<?xml version="1.0" encoding="UTF-8" standalone="no"?>
<svg
   xmlns:dc="http://purl.org/dc/elements/1.1/"
   xmlns:cc="http://creativecommons.org/ns#"
   xmlns:rdf="http://www.w3.org/1999/02/22-rdf-syntax-ns#"
   xmlns:svg="http://www.w3.org/2000/svg"
   xmlns="http://www.w3.org/2000/svg"
   xmlns:sodipodi="http://sodipodi.sourceforge.net/DTD/sodipodi-0.dtd"
   xmlns:inkscape="http://www.inkscape.org/namespaces/inkscape"
   width="800"
   height="400"
   viewBox="0 0 211.66667 105.83334"
   version="1.1"
   id="svg8"
   inkscape:version="1.0.1 (3bc2e813f5, 2020-09-07)"
   sodipodi:docname="Inline_darkest.svg">
  <defs
     id="defs2">
    <rect
       x="64.444941"
       y="39.309524"
       width="53.861607"
       height="19.654762"
       id="rect880" />
    <style
       id="style2">.cls-1{fill:#231f20;stroke:#231f20;stroke-miterlimit:10;stroke-width:5px;}</style>
  </defs>
  <sodipodi:namedview
     id="base"
     pagecolor="#ffffff"
     bordercolor="#666666"
     borderopacity="1.0"
     inkscape:pageopacity="0.0"
     inkscape:pageshadow="2"
     inkscape:zoom="0.35"
     inkscape:cx="82.382621"
     inkscape:cy="121.74727"
     inkscape:document-units="mm"
     inkscape:current-layer="g1034"
     inkscape:document-rotation="0"
     showgrid="false"
     units="px"
     showguides="true"
     inkscape:guide-bbox="true"
     inkscape:window-width="1600"
     inkscape:window-height="847"
     inkscape:window-x="1592"
     inkscape:window-y="292"
     inkscape:window-maximized="1">
    <sodipodi:guide
       position="59.342263,73.516374"
       orientation="0,-1"
       id="guide884" />
    <sodipodi:guide
       position="46.838987,34.171692"
       orientation="0,-1"
       id="guide886" />
  </sodipodi:namedview>
  <metadata
     id="metadata5">
    <rdf:RDF>
      <cc:Work
         rdf:about="">
        <dc:format>image/svg+xml</dc:format>
        <dc:type
           rdf:resource="http://purl.org/dc/dcmitype/StillImage" />
        <dc:title></dc:title>
      </cc:Work>
    </rdf:RDF>
  </metadata>
  <g
     inkscape:label="Vrstva 1"
     inkscape:groupmode="layer"
     id="layer1">
    <g
       id="g1034"
       transform="translate(-16.404171)"
       inkscape:export-xdpi="299"
       inkscape:export-ydpi="299">
      <g
         id="g1457"
         style="fill:#1b0050;fill-opacity:1"
         transform="matrix(0.02236394,0,0,0.02236394,16.752557,32.204481)"
         inkscape:export-xdpi="299"
         inkscape:export-ydpi="299">
        <circle
           class="cls-1"
           cx="902.70001"
           cy="902.60999"
           r="180"
           id="circle8"
           style="fill:#1b0050;fill-opacity:1;stroke:none"
           inkscape:export-xdpi="299"
           inkscape:export-ydpi="299" />
        <path
           class="cls-1"
           d="m 1160.53,1787.84 0.51,2.57 a 88.71,88.71 0 0 0 114.38,67 c 128.7,-41.84 358,-148.19 499.33,-399.13 136.66,-242.73 134.35,-466.37 116.45,-591.9 -8,-56 -65,-90.74 -118.47,-72.34 v 0 A 90.14,90.14 0 0 0 1713,892.56 c 14.39,97.44 19.14,280.44 -92.24,472.44 -118.26,203.82 -300,288.42 -400.74,321.19 a 88.68,88.68 0 0 0 -59.49,101.65 z"
           transform="translate(-97.3,-97.39)"
           id="path10"
           style="fill:#1b0050;fill-opacity:1;stroke:none;stroke-opacity:1"
           inkscape:export-xdpi="299"
           inkscape:export-ydpi="299" />
        <path
           class="cls-1"
           d="m 1414.33,311.26 0.17,-0.27 c 29.29,-46.11 11.16,-107.52 -38.53,-130.22 a 905.05,905.05 0 0 0 -413.95,-80 920.41,920.41 0 0 0 -403.54,113.88 c -48.42,26.93 -61.59,90.58 -27.71,134.41 v 0 A 90.46,90.46 0 0 0 646.2,372.82 C 714,335.24 830.67,285 975.65,280 c 142.21,-4.87 256.9,33.73 325.06,64.82 a 90.19,90.19 0 0 0 113.62,-33.56 z"
           transform="translate(-97.3,-97.39)"
           id="path12"
           style="fill:#1b0050;fill-opacity:1;stroke:none;stroke-opacity:1"
           inkscape:export-xdpi="299"
           inkscape:export-ydpi="299" />
        <path
           class="cls-1"
           d="m 301.12,597.29 v 0 a 89.32,89.32 0 0 1 37.48,113.89 c -46.27,104.44 -106.71,314.2 -4,564.39 103.84,252.85 310.59,360.81 424.15,402.63 a 89.28,89.28 0 0 1 55.08,108.26 l -0.77,2.71 a 89.23,89.23 0 0 1 -115.91,59.56 C 562.15,1800.31 310.89,1671.82 174.86,1360 39.56,1049.85 117.2,775.18 174.86,640 a 89.29,89.29 0 0 1 126.26,-42.71 z"
           transform="translate(-97.3,-97.39)"
           id="path14"
           style="fill:#1b0050;fill-opacity:1;stroke:none;stroke-opacity:1"
           inkscape:export-xdpi="299"
           inkscape:export-ydpi="299" />
        <path
           class="cls-1"
           d="m 647.79,723.6 v 0 A 89.09,89.09 0 0 1 680,837.1 c -64,118.43 -71.9,348.46 147.42,478.89 209.85,109.64 405,-0.6 486.45,-140.36 a 89.2,89.2 0 0 1 109.12,-38.3 l 1.83,0.7 c 51.52,19.84 72.74,81.17 44.72,128.72 -118.91,201.76 -405.91,370 -720.23,211.63 -243.92,-119.23 -370.92,-436 -229.57,-719.72 23.63,-47.51 83.42,-63.81 128.05,-35.06 z"
           transform="translate(-97.3,-97.39)"
           id="path16"
           style="fill:#1b0050;fill-opacity:1;stroke:none;stroke-opacity:1"
           inkscape:export-xdpi="299"
           inkscape:export-ydpi="299" />
        <path
           class="cls-1"
           d="m 1504.66,372.17 v 0 a 90,90 0 0 1 132.86,-7.07 c 26.29,25.94 54.92,56.86 77.14,87.78 a 884,884 0 0 1 70.34,106.3 89.93,89.93 0 0 1 -41,126 l -0.77,0.35 a 90,90 0 0 1 -115.82,-37.91 c -14,-25 -31.49,-53.23 -51.44,-79.69 a 752.3,752.3 0 0 0 -65.66,-75.67 89.88,89.88 0 0 1 -5.65,-120.09 z"
           transform="translate(-97.3,-97.39)"
           id="path18"
           style="fill:#1b0050;fill-opacity:1;stroke:none;stroke-opacity:1"
           inkscape:export-xdpi="299"
           inkscape:export-ydpi="299" />
        <path
           class="cls-1"
           d="m 1114.64,575.4 v 0 c 14.37,-54.95 75.64,-83 126.48,-57.69 51.53,25.66 114.78,67.14 170.18,132.38 a 547.48,547.48 0 0 1 101.24,178.53 C 1531,883 1494,940.48 1436.87,946.44 h -0.51 a 89.61,89.61 0 0 1 -94.16,-60.21 371.32,371.32 0 0 0 -66.69,-118 c -36.91,-44.26 -79.6,-72.52 -114.26,-90 A 89.76,89.76 0 0 1 1114.64,575.4 Z"
           transform="translate(-97.3,-97.39)"
           id="path20"
           style="fill:#1b0050;fill-opacity:1;stroke:none;stroke-opacity:1"
           inkscape:export-xdpi="299"
           inkscape:export-ydpi="299" />
      </g>
      <text
         xml:space="preserve"
         id="text878"
         style="font-size:10.5833px;line-height:1.25;font-family:Montserrat;-inkscape-font-specification:'Montserrat, Normal';white-space:pre;shape-inside:url(#rect880);fill:#1b0050;fill-opacity:1;"
         transform="matrix(5.2196328,0,0,5.2196328,-270.25643,-184.6412)"
         inkscape:export-xdpi="299"
         inkscape:export-ydpi="299"><tspan
           x="64.445312"
           y="49.035636"><tspan
             style="fill:#1b0050;fill-opacity:1">OREXIN</tspan></tspan></text>
    </g>
  </g>
</svg>
