<svg width="933" height="1111" viewBox="0 0 933 1111" fill="none" xmlns="http://www.w3.org/2000/svg">
<path d="M481 0.239182C848.506 -10.2606 645.997 327.945 601.396 421.943C488.226 660.448 845.31 557.739 810 876.739C788.127 1074.35 194.408 1111.44 59.2094 911.943C-75.9892 712.443 53.1692 621.944 122.395 442.443C158.876 347.848 113.494 10.739 481 0.239182Z" fill="#5C09FF"/>
<g filter="url(#filter0_d)">
<path d="M124.969 84.4714C133.101 80.9207 143.014 81.0286 153.207 84.7788L825.532 332.129C851.487 341.678 872.529 371.884 872.486 399.533L871.541 1009.97C871.515 1026.56 863.762 1039.2 850.847 1043.72L830 1051L153.044 793.513C127.477 783.789 106.839 754.114 106.639 726.789L102 94.5L124.969 84.4714Z" fill="#A094E2"/>
</g>
<rect width="816" height="709" rx="50" transform="matrix(0.938191 0.346117 0 1 88 75)" fill="white"/>
<rect width="8" height="24" transform="matrix(0.938191 0.346117 0 1 282.206 606.646)" fill="#A094E2"/>
<path d="M468.577 617.402L470.682 625.857L284.31 615.148L277.5 609L282.205 606.692L468.577 617.402Z" fill="#A094E2"/>
<rect width="7.76531" height="25" transform="matrix(-0.938191 -0.346117 0 1 655.386 743.319)" fill="#A094E2"/>
<path d="M471.796 619.59L469.844 626.575L653.506 750.569L655.137 743.228L471.796 619.59Z" fill="#A094E2"/>
<rect width="18" height="120" transform="matrix(0.938191 0.346117 0 1 460.462 576.408)" fill="#A094E2"/>
<path d="M329.206 689.906C329.206 691.392 328.539 692.93 326.607 694.232C324.663 695.543 321.655 696.444 317.634 696.735C309.61 697.315 298.265 695.413 285.539 690.718C272.814 686.023 261.468 679.555 253.444 673.054C249.423 669.797 246.416 666.676 244.471 663.931C242.539 661.203 241.873 659.173 241.873 657.688C241.873 656.202 242.539 654.664 244.471 653.362C246.416 652.051 249.423 651.15 253.444 650.859C261.468 650.279 272.814 652.181 285.539 656.876C298.265 661.571 309.61 668.04 317.634 674.54C321.655 677.797 324.663 680.918 326.607 683.663C328.539 686.391 329.206 688.421 329.206 689.906Z" fill="white" stroke="#A094E2" stroke-width="8"/>
<path d="M241.866 687.967L241.871 687.865V687.76C241.871 679.038 241.871 673.828 241.871 670.088C241.871 666.417 241.871 664.163 241.871 661.394C241.968 661.38 242.052 661.373 242.13 661.372C242.154 661.372 242.179 661.372 242.203 661.373C242.469 661.945 242.768 662.485 243.072 662.979C244.004 664.496 245.214 665.964 246.513 667.332C249.117 670.075 252.615 672.976 256.575 675.795C264.528 681.455 275.003 687.248 285.537 691.134C294.936 694.601 305.45 696.649 313.676 697.009C317.773 697.189 321.491 696.959 324.267 696.174C325.65 695.782 326.955 695.211 327.954 694.345C328.158 694.168 328.36 693.969 328.551 693.747C328.764 693.887 328.98 694.038 329.203 694.203L329.203 707.967L329.203 719.457C329.203 720.931 328.547 722.431 326.632 723.683C324.698 724.947 321.698 725.792 317.675 726.021C309.646 726.479 298.288 724.449 285.537 719.745C272.876 715.074 261.402 708.274 253.27 701.689C249.188 698.383 246.123 695.273 244.173 692.669C242.144 689.959 241.838 688.521 241.866 687.967Z" stroke="#A094E2" stroke-width="8"/>
<path d="M241.873 746.003L241.878 745.9V745.796C241.878 737.074 241.878 731.864 241.878 728.124C241.878 724.453 241.878 722.198 241.878 719.43C241.975 719.416 242.06 719.409 242.137 719.408C242.162 719.408 242.186 719.408 242.21 719.409C242.476 719.981 242.775 720.52 243.079 721.015C244.012 722.532 245.222 723.999 246.52 725.367C249.125 728.111 252.622 731.012 256.582 733.83C264.535 739.491 275.011 745.283 285.544 749.169C294.943 752.637 305.457 754.684 313.683 755.045C317.781 755.224 321.498 754.995 324.274 754.209C325.657 753.818 326.962 753.246 327.961 752.38C328.165 752.203 328.367 752.005 328.558 751.783C328.771 751.922 328.987 752.074 329.211 752.239L329.211 766.003L329.211 777.492C329.211 778.967 328.554 780.467 326.639 781.719C324.705 782.983 321.706 783.827 317.682 784.057C309.653 784.515 298.295 782.485 285.544 777.781C272.883 773.11 261.409 766.31 253.277 759.724C249.196 756.419 246.13 753.309 244.18 750.704C242.151 747.995 241.845 746.556 241.873 746.003Z" stroke="#A094E2" stroke-width="8"/>
<path d="M238.118 654.786L245.299 660.26L245.413 747.385L238.118 745.478V654.786Z" fill="#A094E2"/>
<path d="M332.957 689.721L325.661 690.822V776.989L332.957 780.466V689.721Z" fill="#A094E2"/>
<path d="M512.153 757.399C512.153 758.885 511.486 760.423 509.554 761.725C507.61 763.036 504.602 763.937 500.582 764.228C492.557 764.808 481.212 762.905 468.487 758.211C455.761 753.516 444.416 747.047 436.391 740.547C432.371 737.289 429.363 734.169 427.419 731.424C425.487 728.696 424.82 726.666 424.82 725.18C424.82 723.695 425.487 722.157 427.419 720.854C429.363 719.544 432.371 718.642 436.391 718.352C444.416 717.772 455.761 719.674 468.487 724.369C481.212 729.064 492.557 735.532 500.582 742.033C504.602 745.29 507.61 748.41 509.554 751.156C511.486 753.884 512.153 755.914 512.153 757.399Z" fill="white" stroke="#A094E2" stroke-width="8"/>
<path d="M424.813 755.46L424.818 755.357V755.253C424.818 746.531 424.818 741.321 424.818 737.581C424.818 733.91 424.818 731.655 424.818 728.887C424.915 728.873 425 728.866 425.077 728.865C425.101 728.865 425.126 728.865 425.15 728.866C425.416 729.438 425.715 729.978 426.019 730.472C426.952 731.989 428.161 733.456 429.46 734.825C432.064 737.568 435.562 740.469 439.522 743.287C447.475 748.948 457.951 754.74 468.484 758.626C477.883 762.094 488.397 764.141 496.623 764.502C500.721 764.681 504.438 764.452 507.214 763.666C508.597 763.275 509.902 762.703 510.901 761.837C511.105 761.66 511.307 761.462 511.498 761.24C511.711 761.379 511.927 761.531 512.151 761.696L512.151 775.46L512.151 786.949C512.151 788.424 511.494 789.924 509.579 791.176C507.645 792.44 504.646 793.284 500.622 793.514C492.593 793.972 481.235 791.942 468.484 787.238C455.823 782.567 444.349 775.767 436.217 769.181C432.135 765.876 429.07 762.766 427.12 760.161C425.091 757.452 424.785 756.013 424.813 755.46Z" stroke="#A094E2" stroke-width="8"/>
<path d="M424.82 813.496L424.825 813.393V813.288C424.825 804.567 424.825 799.356 424.825 795.616C424.825 791.946 424.825 789.691 424.825 786.923C424.923 786.908 425.007 786.902 425.084 786.901C425.109 786.9 425.133 786.901 425.157 786.902C425.423 787.474 425.722 788.013 426.026 788.508C426.959 790.025 428.169 791.492 429.468 792.86C432.072 795.603 435.569 798.504 439.529 801.323C447.482 806.984 457.958 812.776 468.492 816.662C477.891 820.129 488.404 822.177 496.63 822.537C500.728 822.717 504.446 822.488 507.222 821.702C508.605 821.311 509.91 820.739 510.908 819.873C511.113 819.696 511.314 819.497 511.505 819.275C511.719 819.415 511.934 819.567 512.158 819.731L512.158 833.495L512.158 844.985C512.158 846.459 511.501 847.96 509.586 849.212C507.652 850.476 504.653 851.32 500.629 851.549C492.6 852.007 481.243 849.978 468.492 845.274C455.831 840.603 444.357 833.802 436.225 827.217C432.143 823.911 429.078 820.801 427.127 818.197C425.098 815.487 424.792 814.049 424.82 813.496Z" stroke="#A094E2" stroke-width="8"/>
<path d="M421.065 722.278L428.247 727.752L428.361 814.878L421.065 812.971V722.278Z" fill="#A094E2"/>
<path d="M515.904 757.214L508.609 758.314V844.482L515.904 847.958V757.214Z" fill="#A094E2"/>
<path d="M695.1 825.892C695.1 827.378 694.434 828.916 692.502 830.218C690.557 831.529 687.55 832.43 683.529 832.721C675.505 833.301 664.159 831.399 651.434 826.704C638.708 822.009 627.363 815.54 619.339 809.04C615.318 805.783 612.31 802.662 610.366 799.917C608.434 797.189 607.767 795.159 607.767 793.674C607.767 792.188 608.434 790.65 610.366 789.348C612.31 788.037 615.318 787.136 619.339 786.845C627.363 786.265 638.708 788.167 651.434 792.862C664.159 797.557 675.505 804.025 683.529 810.526C687.55 813.783 690.557 816.904 692.502 819.649C694.434 822.377 695.1 824.407 695.1 825.892Z" fill="white" stroke="#A094E2" stroke-width="8"/>
<path d="M607.76 823.953L607.765 823.851V823.746C607.765 815.024 607.765 809.814 607.765 806.074C607.765 802.403 607.765 800.149 607.765 797.38C607.863 797.366 607.947 797.359 608.024 797.358C608.049 797.358 608.073 797.358 608.097 797.359C608.363 797.931 608.662 798.471 608.966 798.965C609.899 800.482 611.109 801.95 612.408 803.318C615.012 806.061 618.509 808.962 622.469 811.781C630.422 817.441 640.898 823.233 651.432 827.119C660.831 830.587 671.344 832.634 679.57 832.995C683.668 833.175 687.386 832.945 690.162 832.159C691.545 831.768 692.85 831.196 693.848 830.33C694.053 830.153 694.254 829.955 694.445 829.733C694.658 829.873 694.874 830.024 695.098 830.189L695.098 843.953L695.098 855.443C695.098 856.917 694.441 858.417 692.526 859.669C690.592 860.933 687.593 861.777 683.569 862.007C675.54 862.465 664.183 860.435 651.432 855.731C638.771 851.06 627.297 844.26 619.165 837.675C615.083 834.369 612.018 831.259 610.067 828.654C608.038 825.945 607.732 824.507 607.76 823.953Z" stroke="#A094E2" stroke-width="8"/>
<path d="M607.767 881.989L607.773 881.886V881.782C607.773 873.06 607.773 867.85 607.773 864.11C607.773 860.439 607.772 858.184 607.773 855.416C607.87 855.401 607.954 855.395 608.031 855.394C608.056 855.393 608.08 855.394 608.104 855.395C608.371 855.967 608.669 856.506 608.973 857.001C609.906 858.518 611.116 859.985 612.415 861.353C615.019 864.096 618.516 866.997 622.477 869.816C630.43 875.477 640.905 881.269 651.439 885.155C660.838 888.623 671.351 890.67 679.577 891.031C683.675 891.21 687.393 890.981 690.169 890.195C691.552 889.804 692.857 889.232 693.856 888.366C694.06 888.189 694.261 887.99 694.452 887.769C694.666 887.908 694.882 888.06 695.105 888.224L695.105 901.988L695.105 913.478C695.105 914.953 694.449 916.453 692.533 917.705C690.6 918.969 687.6 919.813 683.577 920.042C675.548 920.5 664.19 918.471 651.439 913.767C638.778 909.096 627.304 902.295 619.172 895.71C615.09 892.405 612.025 889.294 610.075 886.69C608.046 883.98 607.74 882.542 607.767 881.989Z" stroke="#A094E2" stroke-width="8"/>
<path d="M604.013 790.771L611.194 796.245L611.308 883.371L604.013 881.464V790.771Z" fill="#A094E2"/>
<path d="M698.851 825.707L691.556 826.808V912.975L698.851 916.452V825.707Z" fill="#A094E2"/>
<path d="M637.78 763.825C637.78 755.54 644.081 751.149 651.853 754.016C659.625 756.884 665.926 765.924 665.926 774.208V811.827C665.926 812.41 665.834 812.959 665.513 813.313C664.491 814.444 661.207 816.467 651.853 813.016C642.499 809.566 639.215 805.119 638.193 803.234C637.873 802.643 637.78 802.027 637.78 801.444V763.825Z" fill="#A094E2"/>
<path d="M271.886 629.839C271.886 621.555 278.186 617.164 285.959 620.031C293.731 622.898 300.031 631.939 300.031 640.223V677.842C300.031 678.425 299.939 678.973 299.619 679.328C298.596 680.458 295.313 682.482 285.959 679.031C276.605 675.58 273.321 671.134 272.298 669.249C271.978 668.658 271.886 668.041 271.886 667.458V629.839Z" fill="#A094E2"/>
<path d="M454.833 696.332C454.833 688.048 461.134 683.656 468.906 686.524C476.678 689.391 482.979 698.431 482.979 706.716V744.335C482.979 744.917 482.886 745.466 482.566 745.82C481.544 746.951 478.26 748.975 468.906 745.524C459.552 742.073 456.268 737.626 455.246 735.741C454.925 735.151 454.833 734.534 454.833 733.951V696.332Z" fill="#A094E2"/>
<path d="M323.095 690.528C323.095 692.013 322.428 693.551 320.496 694.854C318.552 696.164 315.544 697.066 311.524 697.356C303.499 697.936 292.154 696.034 279.428 691.339C266.703 686.644 255.358 680.176 247.333 673.675C243.313 670.418 240.305 667.298 238.36 664.552C236.429 661.824 235.762 659.794 235.762 658.309C235.762 656.823 236.429 655.285 238.36 653.983C240.305 652.672 243.313 651.771 247.333 651.48C255.358 650.9 266.703 652.803 279.428 657.497C292.154 662.192 303.499 668.661 311.524 675.161C315.544 678.419 318.552 681.539 320.496 684.284C322.428 687.012 323.095 689.042 323.095 690.528Z" fill="white" stroke="#4508BD" stroke-width="8"/>
<path d="M235.755 688.588L235.76 688.486V688.381C235.76 679.659 235.76 674.449 235.76 670.709C235.76 667.038 235.76 664.784 235.76 662.016C235.857 662.001 235.941 661.994 236.019 661.993C236.043 661.993 236.068 661.993 236.092 661.994C236.358 662.566 236.657 663.106 236.961 663.6C237.894 665.117 239.103 666.585 240.402 667.953C243.006 670.696 246.504 673.597 250.464 676.416C258.417 682.076 268.893 687.869 279.426 691.755C288.825 695.222 299.339 697.27 307.565 697.63C311.662 697.81 315.38 697.58 318.156 696.795C319.539 696.403 320.844 695.832 321.843 694.966C322.047 694.789 322.249 694.59 322.44 694.368C322.653 694.508 322.869 694.659 323.093 694.824L323.093 708.588L323.093 720.078C323.093 721.552 322.436 723.052 320.521 724.304C318.587 725.569 315.588 726.413 311.564 726.642C303.535 727.1 292.177 725.07 279.426 720.366C266.765 715.695 255.291 708.895 247.159 702.31C243.077 699.004 240.012 695.894 238.062 693.29C236.033 690.58 235.727 689.142 235.755 688.588Z" stroke="#4508BD" stroke-width="8"/>
<path d="M235.762 746.624L235.767 746.521V746.417C235.767 737.695 235.767 732.485 235.767 728.745C235.767 725.074 235.767 722.82 235.767 720.051C235.865 720.037 235.949 720.03 236.026 720.029C236.051 720.029 236.075 720.029 236.099 720.03C236.365 720.602 236.664 721.142 236.968 721.636C237.901 723.153 239.111 724.621 240.409 725.989C243.014 728.732 246.511 731.633 250.471 734.451C258.424 740.112 268.9 745.904 279.434 749.79C288.832 753.258 299.346 755.305 307.572 755.666C311.67 755.846 315.388 755.616 318.164 754.83C319.547 754.439 320.852 753.867 321.85 753.001C322.055 752.824 322.256 752.626 322.447 752.404C322.66 752.543 322.876 752.695 323.1 752.86L323.1 766.624L323.1 778.113C323.1 779.588 322.443 781.088 320.528 782.34C318.594 783.604 315.595 784.448 311.571 784.678C303.542 785.136 292.185 783.106 279.434 778.402C266.772 773.731 255.299 766.931 247.167 760.345C243.085 757.04 240.019 753.93 238.069 751.325C236.04 748.616 235.734 747.177 235.762 746.624Z" stroke="#4508BD" stroke-width="8"/>
<path d="M232.007 655.407L239.189 660.881L239.303 748.006L232.007 746.099V655.407Z" fill="#4508BD"/>
<path d="M326.846 690.342L319.55 691.443V777.61L326.846 781.087V690.342Z" fill="#4508BD"/>
<ellipse rx="3.88794" ry="4.18419" transform="matrix(0.938191 0.346117 0 1 246.598 687.412)" fill="#4508BD"/>
<ellipse rx="3.88794" ry="4.18419" transform="matrix(0.938191 0.346117 0 1 246.598 716.439)" fill="#4508BD"/>
<ellipse rx="3.88794" ry="4.18419" transform="matrix(0.938191 0.346117 0 1 246.598 746.252)" fill="#4508BD"/>
<path d="M320.06 690.003C318.542 696.622 294.466 694.207 277.03 687.034C261.431 680.617 240.58 668.275 239.061 659.626C237.542 650.976 264.655 655.422 282.092 662.594C297.691 669.011 320.06 680.702 320.06 690.003Z" fill="#6455C1"/>
<path d="M320.121 689.194C318.78 695.15 297.526 693.118 282.133 686.774C268.362 681.099 249.955 670.131 248.615 662.369C247.274 654.608 271.209 658.446 286.602 664.789C300.373 670.464 320.121 680.839 320.121 689.194Z" fill="white"/>
<path d="M506.042 758.02C506.042 759.506 505.376 761.044 503.444 762.346C501.499 763.657 498.492 764.558 494.471 764.849C486.446 765.429 475.101 763.527 462.376 758.832C449.65 754.137 438.305 747.668 430.281 741.168C426.26 737.911 423.252 734.79 421.308 732.045C419.376 729.317 418.709 727.287 418.709 725.801C418.709 724.316 419.376 722.778 421.308 721.476C423.252 720.165 426.26 719.264 430.281 718.973C438.305 718.393 449.65 720.295 462.376 724.99C475.101 729.685 486.446 736.153 494.471 742.654C498.492 745.911 501.499 749.032 503.444 751.777C505.376 754.505 506.042 756.535 506.042 758.02Z" fill="white" stroke="#4508BD" stroke-width="8"/>
<path d="M502.5 757C501 763.5 477.222 761.08 460 754C444.593 747.666 424 735.5 422.5 727C421 718.5 447.778 722.92 465 730C480.406 736.334 502.5 747.863 502.5 757Z" fill="#6455C1"/>
<path d="M502.561 756.226C501.22 762.036 479.966 759.873 464.573 753.544C450.802 747.883 432.395 737.008 431.054 729.411C429.713 721.813 453.649 725.764 469.042 732.092C482.813 737.754 502.561 748.059 502.561 756.226Z" fill="white"/>
<path d="M418.702 756.081L418.707 755.978V755.874C418.707 747.152 418.707 741.942 418.707 738.202C418.707 734.531 418.707 732.277 418.707 729.508C418.804 729.494 418.889 729.487 418.966 729.486C418.991 729.486 419.015 729.486 419.039 729.487C419.305 730.059 419.604 730.599 419.908 731.093C420.841 732.61 422.051 734.078 423.349 735.446C425.954 738.189 429.451 741.09 433.411 743.908C441.364 749.569 451.84 755.361 462.373 759.247C471.772 762.715 482.286 764.762 490.512 765.123C494.61 765.303 498.328 765.073 501.104 764.287C502.486 763.896 503.792 763.324 504.79 762.458C504.995 762.281 505.196 762.083 505.387 761.861C505.6 762.001 505.816 762.152 506.04 762.317L506.04 776.081L506.04 787.57C506.04 789.045 505.383 790.545 503.468 791.797C501.534 793.061 498.535 793.905 494.511 794.135C486.482 794.593 475.125 792.563 462.373 787.859C449.712 783.188 438.238 776.388 430.106 769.802C426.025 766.497 422.959 763.387 421.009 760.782C418.98 758.073 418.674 756.634 418.702 756.081Z" stroke="#4508BD" stroke-width="8"/>
<path d="M418.709 814.117L418.714 814.014V813.909C418.714 805.188 418.714 799.978 418.714 796.238C418.714 792.567 418.714 790.312 418.714 787.544C418.812 787.529 418.896 787.523 418.973 787.522C418.998 787.521 419.022 787.522 419.046 787.523C419.313 788.095 419.611 788.634 419.915 789.129C420.848 790.646 422.058 792.113 423.357 793.481C425.961 796.224 429.458 799.125 433.419 801.944C441.371 807.605 451.847 813.397 462.381 817.283C471.78 820.75 482.293 822.798 490.519 823.159C494.617 823.338 498.335 823.109 501.111 822.323C502.494 821.932 503.799 821.36 504.798 820.494C505.002 820.317 505.203 820.118 505.394 819.896C505.608 820.036 505.823 820.188 506.047 820.352L506.047 834.116L506.047 845.606C506.047 847.08 505.391 848.581 503.475 849.833C501.541 851.097 498.542 851.941 494.519 852.17C486.49 852.628 475.132 850.599 462.381 845.895C449.72 841.224 438.246 834.423 430.114 827.838C426.032 824.533 422.967 821.422 421.017 818.818C418.988 816.108 418.682 814.67 418.709 814.117Z" stroke="#4508BD" stroke-width="8"/>
<path d="M414.955 722.899L422.136 728.373L422.25 815.499L414.955 813.592V722.899Z" fill="#4508BD"/>
<path d="M509.793 757.835L502.498 758.936V845.103L509.793 848.579V757.835Z" fill="#4508BD"/>
<ellipse rx="3.88794" ry="4.18419" transform="matrix(0.938191 0.346117 0 1 429.545 754.904)" fill="#4508BD"/>
<ellipse rx="3.88794" ry="4.18419" transform="matrix(0.938191 0.346117 0 1 429.545 783.932)" fill="#4508BD"/>
<ellipse rx="3.88794" ry="4.18419" transform="matrix(0.938191 0.346117 0 1 429.545 813.745)" fill="#4508BD"/>
<path d="M688.989 826.513C688.989 827.999 688.323 829.537 686.391 830.839C684.446 832.15 681.439 833.051 677.418 833.342C669.394 833.922 658.048 832.02 645.323 827.325C632.597 822.63 621.252 816.162 613.228 809.661C609.207 806.404 606.199 803.283 604.255 800.538C602.323 797.81 601.657 795.78 601.657 794.295C601.657 792.809 602.323 791.271 604.255 789.969C606.199 788.658 609.207 787.757 613.228 787.466C621.252 786.886 632.597 788.788 645.323 793.483C658.048 798.178 669.394 804.647 677.418 811.147C681.439 814.404 684.446 817.525 686.391 820.27C688.323 822.998 688.989 825.028 688.989 826.513Z" fill="white" stroke="#4508BD" stroke-width="8"/>
<path d="M601.649 824.574L601.654 824.472V824.367C601.654 815.645 601.654 810.435 601.654 806.695C601.654 803.024 601.654 800.77 601.654 798.001C601.752 797.987 601.836 797.98 601.913 797.979C601.938 797.979 601.962 797.979 601.986 797.98C602.253 798.552 602.551 799.092 602.855 799.586C603.788 801.103 604.998 802.571 606.297 803.939C608.901 806.682 612.398 809.583 616.358 812.402C624.311 818.062 634.787 823.855 645.321 827.741C654.72 831.208 665.233 833.255 673.459 833.616C677.557 833.796 681.275 833.566 684.051 832.781C685.434 832.389 686.739 831.818 687.738 830.952C687.942 830.774 688.143 830.576 688.334 830.354C688.548 830.494 688.763 830.645 688.987 830.81L688.987 844.574L688.987 856.064C688.987 857.538 688.33 859.038 686.415 860.29C684.481 861.554 681.482 862.398 677.459 862.628C669.429 863.086 658.072 861.056 645.321 856.352C632.66 851.681 621.186 844.881 613.054 838.296C608.972 834.99 605.907 831.88 603.957 829.275C601.927 826.566 601.622 825.128 601.649 824.574Z" stroke="#4508BD" stroke-width="8"/>
<path d="M601.657 882.61L601.662 882.507V882.403C601.662 873.681 601.662 868.471 601.662 864.731C601.662 861.06 601.662 858.805 601.662 856.037C601.759 856.023 601.843 856.016 601.921 856.015C601.945 856.015 601.97 856.015 601.994 856.016C602.26 856.588 602.559 857.127 602.863 857.622C603.796 859.139 605.005 860.606 606.304 861.974C608.908 864.718 612.406 867.619 616.366 870.437C624.319 876.098 634.794 881.89 645.328 885.776C654.727 889.244 665.241 891.291 673.467 891.652C677.564 891.831 681.282 891.602 684.058 890.816C685.441 890.425 686.746 889.853 687.745 888.987C687.949 888.81 688.151 888.612 688.342 888.39C688.555 888.529 688.771 888.681 688.994 888.846L688.994 902.609L688.994 914.099C688.994 915.574 688.338 917.074 686.423 918.326C684.489 919.59 681.49 920.434 677.466 920.664C669.437 921.122 658.079 919.092 645.328 914.388C632.667 909.717 621.193 902.917 613.061 896.331C608.979 893.026 605.914 889.915 603.964 887.311C601.935 884.601 601.629 883.163 601.657 882.61Z" stroke="#4508BD" stroke-width="8"/>
<path d="M597.902 791.393L605.083 796.867L605.197 883.992L597.902 882.085V791.393Z" fill="#4508BD"/>
<path d="M692.74 826.328L685.445 827.429V913.596L692.74 917.073V826.328Z" fill="#4508BD"/>
<ellipse rx="3.88794" ry="4.18419" transform="matrix(0.938191 0.346117 0 1 612.492 823.398)" fill="#4508BD"/>
<ellipse rx="3.88794" ry="4.18419" transform="matrix(0.938191 0.346117 0 1 612.492 852.425)" fill="#4508BD"/>
<ellipse rx="3.88794" ry="4.18419" transform="matrix(0.938191 0.346117 0 1 612.492 882.238)" fill="#4508BD"/>
<path d="M685.06 825.538C683.561 832.164 659.782 829.859 642.56 822.765C627.154 816.42 606.561 804.172 605.06 795.53C603.56 786.887 630.339 791.209 647.56 798.303C662.967 804.648 685.06 816.237 685.06 825.538Z" fill="#6455C1"/>
<path d="M685.121 824.729C683.78 830.684 662.526 828.653 647.133 822.309C633.362 816.634 614.955 805.665 613.615 797.904C612.274 790.143 636.209 793.981 651.602 800.324C665.373 805.999 685.121 816.373 685.121 824.729Z" fill="white"/>
<path d="M631.669 764.446C631.669 756.162 637.97 751.77 645.742 754.638C653.515 757.505 659.815 766.545 659.815 774.829V812.448C659.815 813.031 659.723 813.58 659.403 813.934C658.38 815.065 655.096 817.088 645.742 813.638C636.388 810.187 633.105 805.74 632.082 803.855C631.762 803.265 631.669 802.648 631.669 802.065V764.446Z" fill="#4508BD"/>
<path d="M265.775 630.46C265.775 622.176 272.076 617.785 279.848 620.652C287.62 623.52 293.921 632.56 293.921 640.844V678.463C293.921 679.046 293.828 679.595 293.508 679.949C292.485 681.079 289.202 683.103 279.848 679.652C270.494 676.201 267.21 671.755 266.188 669.87C265.867 669.279 265.775 668.662 265.775 668.08V630.46Z" fill="#4508BD"/>
<path d="M448.722 696.953C448.722 688.669 455.023 684.278 462.795 687.145C470.567 690.012 476.868 699.052 476.868 707.337V744.956C476.868 745.539 476.776 746.087 476.455 746.441C475.433 747.572 472.149 749.596 462.795 746.145C453.441 742.694 450.157 738.247 449.135 736.362C448.815 735.772 448.722 735.155 448.722 734.572V696.953Z" fill="#4508BD"/>
<path d="M575.015 810.572C572.591 807.258 569.445 804.771 566.107 803.543C560.1 801.332 554.914 803.809 553.482 809.371C553.378 809.776 549 812 549 812C548.419 811.785 547.111 807.214 547.219 806.645C548.897 797.766 556.72 793.467 566.119 796.934C571.272 798.835 575.952 802.722 579.405 807.513L582.174 805.583C583.347 804.766 585.352 806.39 585.352 808.158V819.239C585.352 820.335 581 822.5 581 822.5L573.094 816.701C571.436 816.089 570.605 813.646 571.778 812.829L575.015 810.572ZM548.747 814.332L559.144 818.168C560.802 818.779 561.632 821.222 560.46 822.04L557.222 824.296C559.646 827.611 562.793 830.098 566.131 831.326C572.135 833.535 573 832 575.5 827C575.5 827 579.23 824.917 579.659 825.075L584.103 826.714C584.684 826.929 585.126 827.655 585.018 828.224C583.34 837.103 575.517 841.402 566.119 837.934C560.965 836.033 556.286 832.146 552.833 827.355L550.063 829.286C548.891 830.103 546.886 828.478 546.886 826.711L543.5 816.5C543.5 816.5 547.719 813.953 548.747 814.332Z" fill="#A094E2"/>
<path d="M391.13 742.734C388.705 739.42 385.559 736.932 382.221 735.704C376.214 733.494 371.028 735.971 369.596 741.532C369.492 741.937 365.5 744 365.5 744L364.249 740.316C363.667 740.101 363.226 739.376 363.333 738.806C365.011 729.927 372.835 725.628 382.233 729.096C387.386 730.997 392.066 734.884 395.519 739.675L398.289 737.744C399.461 736.927 401.466 738.552 401.466 740.319V751.401C401.466 752.496 397 754.5 397 754.5L389.208 748.862C387.55 748.251 386.719 745.807 387.892 744.99L391.13 742.734ZM364.861 746.493L375.258 750.329C376.916 750.941 377.746 753.384 376.574 754.201L373.336 756.458C375.761 759.772 378.907 762.259 382.245 763.487C388.249 765.696 389.567 765.064 391 759.5C391.104 759.095 395.344 757.078 395.773 757.236L400.217 758.876C400.799 759.09 401.24 759.816 401.133 760.385C399.455 769.264 391.631 773.563 382.233 770.096C377.08 768.194 372.4 764.308 368.947 759.517L366.177 761.447C365.005 762.264 363 760.639 363 758.872L359.5 749C359.5 747.904 363.833 746.114 364.861 746.493Z" fill="#A094E2"/>
<path d="M571.153 812.601C568.728 809.287 565.582 806.799 562.244 805.571C556.237 803.361 551.051 805.838 549.619 811.399C549.515 811.804 549.145 811.98 548.716 811.822L544.272 810.183C543.69 809.968 543.249 809.243 543.356 808.673C545.034 799.794 552.858 795.495 562.256 798.963C567.409 800.864 572.089 804.751 575.542 809.542L578.311 807.611C579.484 806.794 581.489 808.419 581.489 810.186V821.268C581.489 822.363 580.655 822.944 579.628 822.565L569.231 818.729C567.573 818.118 566.742 815.674 567.915 814.857L571.153 812.601ZM544.884 816.36L555.281 820.196C556.939 820.808 557.769 823.251 556.597 824.068L553.359 826.325C555.784 829.639 558.93 832.126 562.268 833.354C568.272 835.563 573.46 833.09 574.892 827.526C574.997 827.121 575.367 826.945 575.796 827.103L580.24 828.743C580.822 828.957 581.263 829.683 581.156 830.252C579.478 839.131 571.654 843.43 562.256 839.963C557.103 838.061 552.423 834.175 548.97 829.384L546.2 831.314C545.028 832.131 543.023 830.506 543.023 828.739V817.658C543.023 816.562 543.856 815.981 544.884 816.36Z" fill="#4508BD"/>
<path d="M387.267 744.762C384.842 741.448 381.696 738.961 378.358 737.732C372.351 735.522 367.165 737.999 365.734 743.56C365.629 743.965 365.259 744.142 364.83 743.983L360.386 742.344C359.805 742.129 359.363 741.404 359.47 740.834C361.148 731.956 368.972 727.657 378.37 731.124C383.523 733.025 388.203 736.912 391.656 741.703L394.426 739.772C395.598 738.955 397.603 740.58 397.603 742.347V753.429C397.603 754.524 396.77 755.105 395.742 754.726L385.345 750.891C383.687 750.279 382.857 747.836 384.029 747.018L387.267 744.762ZM360.998 748.521L371.395 752.357C373.053 752.969 373.884 755.412 372.711 756.229L369.473 758.486C371.898 761.8 375.044 764.287 378.382 765.515C384.386 767.725 389.574 765.251 391.007 759.687C391.111 759.282 391.481 759.106 391.91 759.264L396.354 760.904C396.936 761.118 397.378 761.844 397.27 762.413C395.592 771.292 387.768 775.591 378.37 772.124C373.217 770.223 368.537 766.336 365.084 761.545L362.315 763.475C361.142 764.292 359.137 762.668 359.137 760.9V749.819C359.137 748.723 359.971 748.142 360.998 748.521Z" fill="#4508BD"/>
<rect width="8" height="24" transform="matrix(0.938191 0.346117 0 1 277 609)" fill="#4508BD"/>
<rect width="8" height="206.957" transform="matrix(0.26314 1.05694 -0.900533 -0.0517489 463.371 619.756)" fill="#4508BD"/>
<rect width="7.76531" height="25" transform="matrix(-0.938191 -0.346117 0 1 650.18 745.673)" fill="#4508BD"/>
<path d="M466.59 621.944L464.638 628.929L648.3 752.923L649.931 745.582L466.59 621.944Z" fill="#4508BD"/>
<rect width="18" height="120" transform="matrix(0.938191 0.346117 0 1 455.256 578.762)" fill="#4508BD"/>
<path d="M130.919 157.024C133.252 156.174 136.015 156.272 138.847 157.306L781.655 391.996C789.447 394.841 795.778 403.901 795.778 412.207V690.391C795.778 694.14 794.461 697.267 792.087 699.156L786 704L139.933 464.23C132.18 461.352 125.901 452.338 125.889 444.07L125.5 159L130.919 157.024Z" fill="#A094E2"/>
<rect width="714" height="309" rx="15" transform="matrix(0.938191 0.346117 0 1 120 154)" fill="#4508BD"/>
<rect width="685" height="282" rx="12" transform="matrix(0.938191 0.346117 0 1 132.196 172.5)" fill="#310686"/>
<path d="M149 194L153.691 195.731V242.731L151.5 243.5L149 241L147 195L149 194Z" fill="#A094E2"/>
<rect width="5" height="47" transform="matrix(0.938191 0.346117 0 1 147 195)" fill="white"/>
<path d="M157.444 197.116L162.135 198.846V245.846L160 247L157.444 244.116L155.5 198L157.444 197.116Z" fill="#A094E2"/>
<rect width="5" height="47" transform="matrix(0.938191 0.346117 0 1 155.444 198.115)" fill="white"/>
<path d="M165.887 200.23L170.578 201.961V248.961L168.5 250L165.887 247.23L164 201.5L165.887 200.23Z" fill="#A094E2"/>
<rect width="5" height="47" transform="matrix(0.938191 0.346117 0 1 163.887 201.229)" fill="white"/>
<path d="M174.331 203.345L179.022 205.076V252.076L177 253L174.331 250.345L172.5 204.5L174.331 203.345Z" fill="#A094E2"/>
<rect width="5" height="47" transform="matrix(0.938191 0.346117 0 1 172.331 204.345)" fill="white"/>
<path d="M524.279 421.687L613.565 410.184L612.723 484.393L524.279 421.687Z" fill="#5C09FF"/>
<path d="M613.565 410.633L683.9 491.348L612.723 484.392L613.565 410.633Z" fill="#5C09FF" fill-opacity="0.8"/>
<path d="M612.723 484.392L683.9 491.348L693.587 547.893L612.723 484.392Z" fill="#5C09FF" fill-opacity="0.6"/>
<path d="M612.723 484.393L693.587 547.893L631.254 568.891L612.723 484.393Z" fill="#5C09FF" fill-opacity="0.4"/>
<path d="M612.723 484.392L631.254 568.89L563.026 520.376L612.723 484.392Z" fill="#5C09FF" fill-opacity="0.2"/>
<circle r="3.14237" transform="matrix(0.938191 0.346117 0 1 693.165 547.289)" fill="white"/>
<circle r="3.14237" transform="matrix(0.938191 0.346117 0 1 693.165 547.289)" fill="white"/>
<circle r="3.14237" transform="matrix(0.938191 0.346117 0 1 630.833 568.286)" fill="white"/>
<circle r="3.14237" transform="matrix(0.938191 0.346117 0 1 630.833 568.286)" fill="white"/>
<circle r="3.14237" transform="matrix(0.938191 0.346117 0 1 562.605 520.67)" fill="white"/>
<circle r="3.14237" transform="matrix(0.938191 0.346117 0 1 562.605 520.67)" fill="white"/>
<circle r="3.14237" transform="matrix(0.938191 0.346117 0 1 683.058 491.486)" fill="white"/>
<circle r="3.14237" transform="matrix(0.938191 0.346117 0 1 683.058 491.486)" fill="white"/>
<line y1="-0.5" x2="104.031" y2="-0.5" transform="matrix(0.850173 -0.10924 0.396747 1.05255 525.122 421.998)" stroke="white"/>
<line y1="-0.5" x2="93.7352" y2="-0.5" transform="matrix(0.754844 0.872329 -0.557147 0.599032 612.723 410.322)" stroke="white"/>
<line y1="-0.5" x2="54.0559" y2="-0.5" transform="matrix(0.18699 1.04892 -0.919368 -0.139864 683.479 491.192)" stroke="url(#paint0_linear)"/>
<line y1="-0.5" x2="80.9284" y2="-0.5" transform="matrix(-0.780622 0.266713 -0.520415 -1.02404 693.587 546.995)" stroke="url(#paint1_linear)"/>
<line y1="-0.5" x2="76.378" y2="-0.5" transform="matrix(-0.8933 -0.635184 0.286738 -0.846367 631.254 568.891)" stroke="url(#paint2_linear)"/>
<circle r="3.14237" transform="matrix(0.938191 0.346117 0 1 524.7 422.291)" fill="white"/>
<circle r="3.14237" transform="matrix(0.938191 0.346117 0 1 524.7 422.291)" fill="white"/>
<circle r="3.14237" transform="matrix(0.938191 0.346117 0 1 613.144 410.927)" fill="white"/>
<circle r="3.14237" transform="matrix(0.938191 0.346117 0 1 613.144 410.927)" fill="white"/>
<text transform="matrix(0.938191 0.346117 0 1 541.968 518.892)" fill="white" xml:space="preserve" style="white-space: pre" font-family="Montserrat" font-size="13" letter-spacing="0em"><tspan x="0.0837221" y="14.0876">1500</tspan></text>
<text transform="matrix(0.938191 0.346117 0 1 617.777 566.612)" fill="white" xml:space="preserve" style="white-space: pre" font-family="Montserrat" font-size="13" letter-spacing="0em"><tspan x="0.693097" y="14.0876">1250</tspan></text>
<text transform="matrix(0.938191 0.346117 0 1 490.586 400.278)" fill="white" xml:space="preserve" style="white-space: pre" font-family="Montserrat" font-size="13" letter-spacing="0em"><tspan x="3.04173" y="14.0876">250</tspan></text>
<text transform="matrix(0.938191 0.346117 0 1 690.217 483.802)" fill="white" xml:space="preserve" style="white-space: pre" font-family="Montserrat" font-size="13" letter-spacing="0em"><tspan x="3.02903" y="14.0876">750</tspan></text>
<text transform="matrix(0.938191 0.346117 0 1 700.325 540.503)" fill="white" xml:space="preserve" style="white-space: pre" font-family="Montserrat" font-size="13" letter-spacing="0em"><tspan x="3.76536" y="6.08761">100</tspan><tspan x="10.4177" y="22.0876">0</tspan></text>
<text transform="matrix(0.938191 0.346117 0 1 599.246 383.803)" fill="white" xml:space="preserve" style="white-space: pre" font-family="Montserrat" font-size="13" letter-spacing="0em"><tspan x="2.43235" y="14.0876">500</tspan></text>
<text transform="matrix(0.938191 0.346117 0 1 356.425 372.221)" fill="white" xml:space="preserve" style="white-space: pre" font-family="Montserrat" font-size="15" letter-spacing="0em"><tspan x="16.9627" y="14.3775">250 K&#x10d;</tspan></text>
<text transform="matrix(0.938191 0.346117 0 1 356.425 395.465)" fill="white" xml:space="preserve" style="white-space: pre" font-family="Montserrat" font-size="15" letter-spacing="0em"><tspan x="15.5565" y="14.3775">500 K&#x10d;</tspan></text>
<text transform="matrix(0.938191 0.346117 0 1 356.425 418.708)" fill="white" xml:space="preserve" style="white-space: pre" font-family="Montserrat" font-size="15" letter-spacing="0em"><tspan x="16.9334" y="14.3775">750 K&#x10d;</tspan></text>
<text transform="matrix(0.938191 0.346117 0 1 356.425 441.953)" fill="white" xml:space="preserve" style="white-space: pre" font-family="Montserrat" font-size="15" letter-spacing="0em"><tspan x="8.70099" y="14.3775">1000 K&#x10d;</tspan></text>
<text transform="matrix(0.938191 0.346117 0 1 356.425 465.221)" fill="white" xml:space="preserve" style="white-space: pre" font-family="Montserrat" font-size="15" letter-spacing="0em"><tspan x="11.5428" y="14.3775">1250 K&#x10d;</tspan></text>
<text opacity="0.5" transform="matrix(0.938191 0.346117 0 1 311.03 354.792)" fill="white" xml:space="preserve" style="white-space: pre" font-family="Montserrat" font-size="15" letter-spacing="0em"><tspan x="0" y="14.3775">100</tspan></text>
<text opacity="0.5" transform="matrix(0.938191 0.346117 0 1 311.03 378.036)" fill="white" xml:space="preserve" style="white-space: pre" font-family="Montserrat" font-size="15" letter-spacing="0em"><tspan x="0" y="14.3775">200</tspan></text>
<text opacity="0.5" transform="matrix(0.938191 0.346117 0 1 311.03 401.28)" fill="white" xml:space="preserve" style="white-space: pre" font-family="Montserrat" font-size="15" letter-spacing="0em"><tspan x="0" y="14.3775">300</tspan></text>
<text opacity="0.5" transform="matrix(0.938191 0.346117 0 1 311.03 424.524)" fill="white" xml:space="preserve" style="white-space: pre" font-family="Montserrat" font-size="15" letter-spacing="0em"><tspan x="0" y="14.3775">400</tspan></text>
<text transform="matrix(0.938191 0.346117 0 1 240.505 328.774)" fill="white" xml:space="preserve" style="white-space: pre" font-family="Montserrat" font-size="15" letter-spacing="0em"><tspan x="0" y="14.3775">Item 1</tspan></text>
<text transform="matrix(0.938191 0.346117 0 1 240.505 352.018)" fill="white" xml:space="preserve" style="white-space: pre" font-family="Montserrat" font-size="15" letter-spacing="0em"><tspan x="0" y="14.3775">Item 2</tspan></text>
<text transform="matrix(0.938191 0.346117 0 1 240.505 375.262)" fill="white" xml:space="preserve" style="white-space: pre" font-family="Montserrat" font-size="15" letter-spacing="0em"><tspan x="0" y="14.3775">Item 3</tspan></text>
<text transform="matrix(0.938191 0.346117 0 1 240.505 398.506)" fill="white" xml:space="preserve" style="white-space: pre" font-family="Montserrat" font-size="15" letter-spacing="0em"><tspan x="0" y="14.3775">Item 4</tspan></text>
<text transform="matrix(0.938191 0.346117 0 1 240.505 421.774)" fill="white" xml:space="preserve" style="white-space: pre" font-family="Montserrat" font-size="15" letter-spacing="0em"><tspan x="0" y="14.3775">Item 5</tspan></text>
<text opacity="0.5" transform="matrix(0.938191 0.346117 0 1 311.03 447.792)" fill="white" xml:space="preserve" style="white-space: pre" font-family="Montserrat" font-size="15" letter-spacing="0em"><tspan x="0" y="14.3775">500</tspan></text>
<path d="M418.533 354.457C380.453 381.472 352.167 308.979 304.666 295.885C270.386 286.435 266.697 312.561 242.365 305.73" stroke="white"/>
<path d="M418.662 354.33C396.689 369.915 376.952 328.141 354.823 312.342C338.595 300.756 320.733 317.145 300.635 311.605C266.352 302.154 266.7 312.562 242.365 305.731" stroke="#5C09FF"/>
<defs>
<filter id="filter0_d" x="42" y="21.8853" width="890.486" height="1089.11" filterUnits="userSpaceOnUse" color-interpolation-filters="sRGB">
<feFlood flood-opacity="0" result="BackgroundImageFix"/>
<feColorMatrix in="SourceAlpha" type="matrix" values="0 0 0 0 0 0 0 0 0 0 0 0 0 0 0 0 0 0 127 0"/>
<feOffset/>
<feGaussianBlur stdDeviation="30"/>
<feColorMatrix type="matrix" values="0 0 0 0 0 0 0 0 0 0 0 0 0 0 0 0 0 0 0.25 0"/>
<feBlend mode="normal" in2="BackgroundImageFix" result="effect1_dropShadow"/>
<feBlend mode="normal" in="SourceGraphic" in2="effect1_dropShadow" result="shape"/>
</filter>
<linearGradient id="paint0_linear" x1="1.05875" y1="-0.780557" x2="49.657" y2="-0.954603" gradientUnits="userSpaceOnUse">
<stop stop-color="white"/>
<stop offset="1" stop-color="white" stop-opacity="0.87"/>
</linearGradient>
<linearGradient id="paint1_linear" x1="1.24505" y1="-0.277581" x2="78.8128" y2="-0.836509" gradientUnits="userSpaceOnUse">
<stop stop-color="white"/>
<stop offset="0.0001" stop-color="white" stop-opacity="0.78"/>
<stop offset="1" stop-color="white" stop-opacity="0.42"/>
</linearGradient>
<linearGradient id="paint2_linear" x1="0.42743" y1="-0.152629" x2="73.9665" y2="-0.181069" gradientUnits="userSpaceOnUse">
<stop stop-color="white" stop-opacity="0.44"/>
<stop offset="1" stop-color="white" stop-opacity="0.34"/>
</linearGradient>
</defs>
</svg>
