<svg width="1032" height="1150" viewBox="0 0 1032 1150" fill="none" xmlns="http://www.w3.org/2000/svg">
<path d="M854.284 707.585C1027.03 936.915 829.241 1090.98 552.241 1090.98C427.862 1090.98 157.294 884.983 0.000110626 884.983L0 459.983C0 459.983 697.213 499.061 854.284 707.585Z" fill="#5C09FF"/>
<g filter="url(#filter0_d)">
<path d="M164 375.24C164 347.529 185.143 317.304 211.141 307.849L882.983 63.5268C892.44 60.0878 901.662 59.7808 909.439 62.6461L935.5 72.2476L934.549 749.133C934.511 776.373 914.043 806.113 888.505 816.037L206 1081.25L184.207 1073.2C171.552 1068.53 164 1055.96 164 1039.55V375.24Z" fill="#A094E2"/>
</g>
<rect width="821.24" height="757.424" rx="50" transform="matrix(0.938191 -0.346117 0 1 185 339.993)" fill="white"/>
<path d="M707 683.125L955 594.125L967.5 598.625C967.5 598.625 953.376 749.576 953.376 753.643C953.376 758.874 952.885 761.67 951.413 767.967C949.941 774.265 948.37 777.459 948.37 777.459L788 845.625L774 840.625L707 683.125Z" fill="#A094E2"/>
<path d="M722.104 689.042L967.48 598.518V778L787.865 845.768L722.104 689.042Z" fill="#4508BD"/>
<path d="M742.716 693.992L954.721 615.779V771.658L799.533 828.909L742.716 693.992Z" fill="#310686"/>
<path d="M761.365 699.666L939.998 633.764V764.535L809.239 812.775L761.365 699.666Z" fill="#045692"/>
<path d="M761.365 699.666L939.998 633.764V764.535L809.239 812.775L761.365 699.666Z" fill="#6455C1"/>
<path d="M761.365 699.666L927 638.559V759.522L805.055 804.613L761.365 699.666Z" fill="#045692"/>
<path d="M761.365 699.666L927 638.559V759.522L805.055 804.613L761.365 699.666Z" fill="#1E005A"/>
<path d="M771.67 724.11L939.998 662.01V670.38L774.615 731.393L771.67 724.11Z" fill="#045692"/>
<path d="M771.67 724.11L939.998 662.01V670.38L774.615 731.393L771.67 724.11Z" fill="#4508BD"/>
<path d="M768.5 716.625L927.328 657.626L940 662.125L771.5 724.125L768.5 716.625Z" fill="#045692"/>
<path d="M768.5 716.625L927.328 657.626L940 662.125L771.5 724.125L768.5 716.625Z" fill="#6455C1"/>
<path d="M783.5 752.625L939.999 695.488V703.857L786.5 760.125L783.5 752.625Z" fill="#045692"/>
<path d="M783.5 752.625L939.999 695.488V703.857L786.5 760.125L783.5 752.625Z" fill="#4508BD"/>
<path d="M780.5 745.625L927.059 691.625L940 695.625L783.5 752.625L780.5 745.625Z" fill="#045692"/>
<path d="M780.5 745.625L927.059 691.625L940 695.625L783.5 752.625L780.5 745.625Z" fill="#6455C1"/>
<path d="M796 783L939.998 728.965V737.334L798.5 789L796 783Z" fill="#045692"/>
<path d="M796 783L939.998 728.965V737.334L798.5 789L796 783Z" fill="#4508BD"/>
<path d="M792.5 774.5L927.79 724V733.61L796 783L792.5 774.5Z" fill="#045692"/>
<path d="M792.5 774.5L927.79 724V733.61L796 783L792.5 774.5Z" fill="#6455C1"/>
<path d="M752 601.809C752 596.302 756.178 590.29 761.345 588.362L896.135 538.069C898.003 537.372 899.83 537.284 901.382 537.817L916.5 543L908.177 602.606C907.491 607.522 903.839 612.385 899.417 614.272L770.106 669.461L756.102 664.463C753.536 663.548 752 661.019 752 657.711V601.809Z" fill="#A094E2"/>
<path d="M786 541.744L891.021 502.999V573.092L786 611.837V541.744Z" fill="#EBEBEB"/>
<path d="M759 604.528C759 599.02 763.178 593.008 768.346 591.08L894.247 544.115C896.084 543.429 897.883 543.333 899.421 543.839L913.5 548.467L905.775 602.75C905.077 607.661 901.425 612.51 897.01 614.389L776.005 665.893L763.174 661.499C760.566 660.605 759 658.062 759 654.721V604.528Z" fill="#A094E2"/>
<rect width="164.248" height="76.3701" rx="10" transform="matrix(0.938191 -0.346117 0 1 766.05 596.406)" fill="#5C09FF"/>
<path d="M774.884 593.147L911.313 542.816V602.909C911.313 608.432 907.112 614.458 901.931 616.37L784.266 659.779C779.084 661.69 774.884 658.763 774.884 653.24V593.147Z" fill="#4508BD"/>
<rect width="134.955" height="9.41549" rx="2" transform="matrix(0.938191 -0.346117 0 1 781 639.71)" fill="#1E005A"/>
<rect width="49.1698" height="33.4773" rx="5" transform="matrix(0.938191 -0.346117 0 1 783.717 595.119)" fill="#310686"/>
<rect width="22.3835" height="24.9246" transform="matrix(0.938191 -0.346117 0 1 789 597.747)" fill="#6ECED9"/>
<rect width="14.9223" height="11.8698" transform="matrix(0.938191 -0.346117 0 1 812 589.165)" fill="white"/>
<rect width="14.9223" height="11.2449" transform="matrix(0.938191 -0.346117 0 1 812 603.226)" fill="#5C09FF"/>
<rect width="7.87804" height="7.88639" rx="3.93902" transform="matrix(0.938191 -0.346117 0 1 895.609 553.84)" fill="white"/>
<path d="M900.707 553.899C901.303 554.126 901.691 554.713 901.691 555.539C901.691 556.896 900.643 558.383 899.35 558.863C898.059 559.342 897.002 558.628 897 557.274C896.999 556.448 897.387 555.572 897.982 554.906C898.092 554.782 898.247 554.76 898.313 554.86L898.462 555.083C898.518 555.167 898.491 555.309 898.4 555.414C898.007 555.864 897.757 556.441 897.757 556.99C897.756 557.906 898.461 558.397 899.345 558.071C900.212 557.751 900.94 556.747 900.934 555.807C900.932 555.294 900.701 554.884 900.29 554.716C900.199 554.678 900.173 554.555 900.229 554.432L900.378 554.098C900.444 553.95 900.598 553.857 900.707 553.899ZM899.724 556.344V553.963C899.724 553.831 899.623 553.762 899.497 553.809L899.194 553.921C899.068 553.967 898.967 554.11 898.967 554.242V556.623C898.967 556.755 899.068 556.824 899.194 556.778L899.497 556.666C899.623 556.62 899.724 556.476 899.724 556.344Z" fill="#1E005A"/>
<rect width="6.27699" height="6.27699" rx="2" transform="matrix(0.938191 -0.346117 0 1 845 578.172)" fill="#310686"/>
<rect width="6.27699" height="6.27699" rx="2" transform="matrix(0.938191 -0.346117 0 1 844.57 586.27)" fill="#310686"/>
<rect width="6.27699" height="6.27699" rx="2" transform="matrix(0.938191 -0.346117 0 1 844.57 594.639)" fill="#310686"/>
<rect width="6.27699" height="6.27699" rx="2" transform="matrix(0.938191 -0.346117 0 1 853 583.542)" fill="#310686"/>
<rect width="6.27699" height="6.27699" rx="2" transform="matrix(0.938191 -0.346117 0 1 837 589.542)" fill="#310686"/>
<rect width="6.27699" height="6.27699" rx="2" transform="matrix(0.938191 -0.346117 0 1 837 581.172)" fill="#310686"/>
<rect width="6.27699" height="6.27699" rx="2" transform="matrix(0.938191 -0.346117 0 1 853 575.172)" fill="#310686"/>
<rect width="6.27699" height="6.27699" rx="2" transform="matrix(0.938191 -0.346117 0 1 853 591.911)" fill="#310686"/>
<rect width="6.27699" height="6.27699" rx="2" transform="matrix(0.938191 -0.346117 0 1 837 597.911)" fill="#310686"/>
<path d="M846 581.306C846 580.227 846.821 579.049 847.833 578.676C848.846 578.302 849.667 578.874 849.667 579.953C849.667 581.033 848.846 582.21 847.833 582.584C846.821 582.957 846 582.386 846 581.306ZM848.159 581.424V580.51L848.683 580.316C848.762 580.287 848.802 580.17 848.746 580.132L847.896 579.544C847.861 579.52 847.806 579.541 847.771 579.591L846.921 580.805C846.865 580.885 846.905 580.972 846.984 580.943L847.508 580.75V581.664C847.508 581.716 847.548 581.744 847.597 581.726L848.07 581.551C848.119 581.533 848.159 581.476 848.159 581.424Z" fill="white"/>
<path d="M839.833 593.584C838.821 593.957 838 593.386 838 592.306C838 591.227 838.821 590.049 839.833 589.676C840.846 589.302 841.667 589.874 841.667 590.953C841.667 592.033 840.846 593.21 839.833 593.584ZM840.691 590.967L839.833 591.283V590.724C839.833 590.64 839.737 590.633 839.682 590.713L838.837 591.93C838.802 591.98 838.802 592.039 838.837 592.064L839.682 592.657C839.738 592.696 839.833 592.619 839.833 592.534V591.976L840.691 591.66C840.74 591.642 840.78 591.585 840.78 591.533V591.029C840.78 590.977 840.74 590.949 840.691 590.967Z" fill="white"/>
<path d="M855.833 583.676C856.846 583.302 857.667 583.874 857.667 584.953C857.667 586.033 856.846 587.21 855.833 587.584C854.821 587.957 854 587.386 854 586.306C854 585.227 854.821 584.049 855.833 583.676ZM854.976 586.293L855.833 585.976V586.535C855.833 586.619 855.929 586.627 855.985 586.546L856.83 585.329C856.865 585.279 856.865 585.22 856.83 585.196L855.985 584.602C855.929 584.562 855.833 584.64 855.833 584.724V585.283L854.976 585.599C854.927 585.617 854.887 585.675 854.887 585.727V586.231C854.887 586.283 854.927 586.311 854.976 586.293Z" fill="white"/>
<path d="M849.667 595.953C849.667 597.033 848.846 598.21 847.833 598.584C846.821 598.957 846 598.386 846 597.306C846 596.227 846.821 595.049 847.833 594.676C848.846 594.302 849.667 594.874 849.667 595.953ZM847.508 595.836V596.75L846.984 596.943C846.905 596.972 846.865 597.089 846.921 597.128L847.77 597.715C847.805 597.739 847.861 597.719 847.895 597.669L848.745 596.455C848.801 596.374 848.761 596.288 848.682 596.317L848.159 596.51V595.596C848.159 595.544 848.119 595.516 848.07 595.534L847.597 595.709C847.548 595.727 847.508 595.784 847.508 595.836Z" fill="white"/>
<circle r="2" transform="matrix(0.938191 -0.346117 0 1 847.876 588.692)" fill="white"/>
<g filter="url(#filter1_d)">
<rect width="434.719" height="272.003" rx="10" transform="matrix(0.938191 -0.346117 0 1 398 346.463)" fill="#A094E2"/>
</g>
<g filter="url(#filter2_d)">
<rect width="434.719" height="272.003" rx="10" transform="matrix(0.938191 -0.346117 0 1 404.097 349.364)" fill="white"/>
</g>
<line y1="-0.5" x2="231.931" y2="-0.5" transform="matrix(0.938191 -0.346117 0 1 458.781 517.096)" stroke="#5C09FF"/>
<line y1="-0.5" x2="231.931" y2="-0.5" transform="matrix(0.938191 -0.346117 0 1 458.781 496.454)" stroke="#5C09FF"/>
<line y1="-0.5" x2="231.931" y2="-0.5" transform="matrix(0.938191 -0.346117 0 1 458.781 475.81)" stroke="#5C09FF"/>
<line y1="-0.5" x2="231.931" y2="-0.5" transform="matrix(0.938191 -0.346117 0 1 458.781 455.167)" stroke="#5C09FF"/>
<line y1="-0.5" x2="231.931" y2="-0.5" transform="matrix(0.938191 -0.346117 0 1 458.781 434.524)" stroke="#5C09FF"/>
<line y1="-0.5" x2="231.931" y2="-0.5" transform="matrix(0.938191 -0.346117 0 1 458.781 413.881)" stroke="#5C09FF"/>
<line y1="-0.5" x2="231.931" y2="-0.5" transform="matrix(0.938191 -0.346117 0 1 458.781 393.238)" stroke="#5C09FF"/>
<line y1="-0.5" x2="231.931" y2="-0.5" transform="matrix(0.938191 -0.346117 0 1 458.781 372.595)" stroke="#5C09FF"/>
<line y1="-0.5" x2="231.931" y2="-0.5" transform="matrix(0.938191 -0.346117 0 1 458.781 351.952)" stroke="#5C09FF"/>
<text transform="matrix(0.938191 -0.346117 0 1 423.465 521.625)" fill="black" xml:space="preserve" style="white-space: pre" font-family="Montserrat" font-size="13" font-weight="600" letter-spacing="0em"><tspan x="10.3408" y="12.5534">100</tspan></text>
<text transform="matrix(0.938191 -0.346117 0 1 423.465 500.982)" fill="black" xml:space="preserve" style="white-space: pre" font-family="Montserrat" font-size="13" font-weight="600" letter-spacing="0em"><tspan x="7.76362" y="12.5534">200</tspan></text>
<text transform="matrix(0.938191 -0.346117 0 1 423.465 480.338)" fill="black" xml:space="preserve" style="white-space: pre" font-family="Montserrat" font-size="13" font-weight="600" letter-spacing="0em"><tspan x="7.72553" y="12.5534">300</tspan></text>
<text transform="matrix(0.938191 -0.346117 0 1 423.465 459.696)" fill="black" xml:space="preserve" style="white-space: pre" font-family="Montserrat" font-size="13" font-weight="600" letter-spacing="0em"><tspan x="6.4687" y="12.5534">400</tspan></text>
<text transform="matrix(0.938191 -0.346117 0 1 423.465 439.052)" fill="black" xml:space="preserve" style="white-space: pre" font-family="Montserrat" font-size="13" font-weight="600" letter-spacing="0em"><tspan x="7.70014" y="12.5534">500</tspan></text>
<text transform="matrix(0.938191 -0.346117 0 1 423.465 418.409)" fill="black" xml:space="preserve" style="white-space: pre" font-family="Montserrat" font-size="13" font-weight="600" letter-spacing="0em"><tspan x="7.14155" y="12.5534">600</tspan></text>
<text transform="matrix(0.938191 -0.346117 0 1 423.465 397.766)" fill="black" xml:space="preserve" style="white-space: pre" font-family="Montserrat" font-size="13" font-weight="600" letter-spacing="0em"><tspan x="7.63667" y="12.5534">700</tspan></text>
<text transform="matrix(0.938191 -0.346117 0 1 423.465 377.123)" fill="black" xml:space="preserve" style="white-space: pre" font-family="Montserrat" font-size="13" font-weight="600" letter-spacing="0em"><tspan x="6.81147" y="12.5534">800</tspan></text>
<text transform="matrix(0.938191 -0.346117 0 1 423.465 356.48)" fill="black" xml:space="preserve" style="white-space: pre" font-family="Montserrat" font-size="13" font-weight="600" letter-spacing="0em"><tspan x="7.14155" y="12.5534">900</tspan></text>
<path d="M478.148 512.987C478.148 512.987 531.502 469.38 550.675 438.94C569.322 409.335 579.167 355.212 579.167 355.212" stroke="#1E005A" stroke-width="3"/>
<path d="M579.349 355.467C579.349 355.467 581.116 375.316 588.182 380.52C593.468 384.413 601.934 383.421 611.619 381.025C649.038 371.768 662.706 271.254 662.706 271.254" stroke="#1E005A" stroke-width="3"/>
<path d="M726.122 296.743C726.122 297.493 726.122 298.243 726.122 298.994C726.122 299.537 725.858 300.144 725.858 300.748C725.858 302.061 725.858 303.374 725.858 304.686C725.858 306.883 725.726 309.09 725.726 311.3C725.726 312.43 726.417 313.325 727.185 313.723C727.828 314.057 729.012 313.618 729.758 313.719C732.059 314.032 734.478 312.932 737.017 311.995C739.293 311.155 741.499 310.695 743.748 309.934C745.526 309.332 747.279 309.194 749.085 308.527C749.95 308.209 751.161 307.964 751.981 307.389C754.103 305.899 756.718 305.527 758.851 305.097C760.295 304.805 761.819 304.111 763.28 303.572C764.253 303.213 764.856 302.858 765.648 302.003C766.151 301.46 766.689 300.326 766.902 299.626C767.405 297.966 767.952 296.298 768.485 294.681C768.837 293.615 768.898 292.437 769.138 291.369C769.218 291.012 769.422 290.686 769.512 290.332C769.621 289.904 769.541 289.426 769.541 289.024C769.541 288.407 769.544 287.848 769.666 287.22C769.76 286.732 769.532 286.224 769.702 285.729C769.986 284.906 769.937 283.646 769.937 282.86C769.937 281.99 769.541 281.659 769.541 280.795C769.541 280.379 769.444 280.239 769.211 279.994C768.83 279.594 768.42 279.994 767.906 279.968C765.818 279.864 763.651 280.646 761.461 281.173C759.367 281.678 757.301 282.365 755.244 282.701C753.714 282.951 752.195 283.13 750.669 283.357C748.899 283.621 746.931 284.565 745.126 285.23C741.967 286.396 738.796 287.707 735.653 288.866C734.202 289.401 732.662 289.876 731.298 290.863C730.161 291.687 729.227 292.64 728.299 293.751C727.636 294.546 726.977 294.924 726.444 295.85C725.904 296.79 725.244 297.803 725.066 298.82" stroke="#1E005A" stroke-width="2" stroke-linecap="round" stroke-linejoin="round"/>
<path d="M742.519 314.606C741.941 316.34 740.585 318.434 740.498 320.138C740.448 321.116 739.499 323.008 739.101 324.004C738.03 326.682 735.538 330.544 733.413 332.563C732.478 333.452 731.335 334.718 730.445 335.679C729.551 336.644 728.609 337.745 727.701 338.686C726.491 339.938 724.998 342.865 724.333 344.528" stroke="#1E005A" stroke-linecap="round" stroke-linejoin="round"/>
<path d="M721.189 341.858C721.189 343.438 721.159 345.078 721.588 346.444C721.871 347.344 721.897 348.71 722.486 349.33C722.801 349.661 722.541 350.644 723.035 350.936C723.507 351.214 724.744 350.263 725.006 349.677C725.608 348.331 725.933 346.992 726.677 345.697C727.536 344.203 728.446 343.75 729.945 343.653" stroke="#1E005A" stroke-linecap="round" stroke-linejoin="round"/>
<path d="M707.943 363.736C711.492 361.687 714.754 360.012 718.371 359.118C721.36 358.379 724.352 357.682 727.364 356.571C730.124 355.553 737.46 350.295 738.24 354.58C738.562 356.35 740.081 356.948 740.847 358.298C741.794 359.967 741.422 362.648 741.059 364.947C740.784 366.691 740.826 369.114 740.049 370.85C739.115 372.937 739.663 373.463 737.379 374.68C736.561 375.116 735.609 375.888 734.798 376.43C733.722 377.147 732.571 377.356 731.467 378.057C727.077 380.847 723.413 382.236 718.944 383.355C716.765 383.901 714.663 383.192 712.533 383.394C711.382 383.503 710.892 382.872 709.764 382.82C708.711 382.772 707.71 383.206 706.596 383.617C705.578 383.992 705.055 384.384 704.127 384.953C703.713 385.206 702.215 385.939 701.931 385.577C701.351 384.835 700.429 384.805 699.986 383.888C699.568 383.025 699.861 381.315 699.861 380.225C699.861 378.987 700.37 377.834 700.584 376.555C700.788 375.34 701.432 373.979 701.432 372.839C701.432 371.881 701.738 371.115 701.894 370.142C702.155 368.516 703.422 367.658 704.675 366.75C705.66 366.037 706.653 364.93 707.669 364.555C708.509 364.245 709.349 363.936 710.188 363.626" stroke="#1E005A" stroke-width="2" stroke-linecap="round" stroke-linejoin="round"/>
<path d="M720.319 390.251C723.941 396.713 727.45 403.446 730.12 410.546C731.335 413.774 733.339 415.924 733.339 419.87C733.339 421.839 733.339 423.807 733.339 425.775C733.339 434.338 723.622 445.15 716.703 452.449C713.52 455.806 711.32 458.366 707.444 461.218C705.704 462.498 703.854 462.862 702.055 464.147C699.286 466.123 696.204 467.923 693.339 469.666C685.629 474.354 676.034 478.722 669.542 485.485" stroke="#1E005A" stroke-linecap="round" stroke-linejoin="round"/>
<path d="M683.368 465.813C679.365 468.088 674.099 470.303 670.518 474.017C668.12 476.503 665.908 479.44 663.587 482.037C661.538 484.329 654.968 490.449 660.013 490.012C666.723 489.429 673.814 489.422 680.769 486.856" stroke="#1E005A" stroke-linecap="round" stroke-linejoin="round"/>
<path d="M730.159 296.069C730.027 298.119 729.862 300.178 729.765 302.217C729.706 303.469 729.747 304.671 729.632 305.94C729.559 306.748 729.533 307.514 729.533 308.305" stroke="#191847" stroke-linecap="round" stroke-linejoin="round"/>
<path d="M730.368 296.659C731.331 296.57 731.612 296.885 731.805 297.685C731.918 298.158 732.067 298.892 731.926 299.468C731.784 300.051 730.556 300.568 730.264 301.144" stroke="#191847" stroke-linecap="round" stroke-linejoin="round"/>
<path d="M732.662 302.593C732.644 303.465 732.559 304.316 732.616 305.167C732.617 305.192 732.786 306.616 732.847 306.477C733.123 305.852 733.333 305.291 733.658 304.671C734.238 303.567 734.852 303.397 734.852 304.675" stroke="#191847" stroke-linecap="round" stroke-linejoin="round"/>
<path d="M736.833 305.723C736.674 304.721 736.487 303.115 737.714 302.187C738.412 301.659 738.631 303.956 738.919 304.373C739.215 304.801 738.466 304.898 738.137 305.019C737.919 305.1 737.355 305.672 737.355 305.197" stroke="#191847" stroke-linecap="round" stroke-linejoin="round"/>
<path d="M742.986 290.559C743.395 293.349 742.778 296.639 742.778 299.602C742.778 300.636 742.778 301.669 742.778 302.702C742.778 303.476 742.812 302.606 743.091 302.192C743.306 301.872 743.807 301.261 744.134 301.14C744.969 300.832 745.454 301.63 745.275 302.553C745.196 302.963 744.706 303.041 744.446 303.137C744.094 303.267 744.134 302.997 744.134 302.696" stroke="#191847" stroke-linecap="round" stroke-linejoin="round"/>
<path d="M749.556 289.913C749.49 291.669 749.048 293.478 748.728 295.283C748.495 296.593 748.4 297.832 748.299 299.109C748.264 299.554 747.922 301.169 748.409 301.119" stroke="#191847" stroke-linecap="round" stroke-linejoin="round"/>
<path d="M750.286 299.648C751.049 299.08 752.127 298.07 752.453 297.095C752.511 296.923 752.813 296.487 752.639 296.385C752.452 296.276 751.794 296.658 751.596 296.843C751.207 297.208 750.996 297.881 750.802 298.34C750.651 298.698 750.391 298.967 750.391 299.326C750.391 299.944 750.64 300.251 751.225 300.191" stroke="#191847" stroke-linecap="round" stroke-linejoin="round"/>
<path d="M754.458 292.662C754.895 291.62 755.576 290.612 756.126 289.601" stroke="#191847" stroke-linecap="round" stroke-linejoin="round"/>
<path d="M755.709 294.646C755.546 295.557 755.339 296.473 755.194 297.381C755.105 297.931 754.903 299.279 755.315 297.99C755.501 297.409 755.719 296.816 756.022 296.26C756.218 295.9 756.307 297.039 756.445 297.209C756.98 297.867 757.835 295.614 758.369 295.796C758.97 296.001 758.405 297.987 759.464 297.596" stroke="#191847" stroke-linecap="round" stroke-linejoin="round"/>
<path d="M704.417 377.176C704.417 376.055 704.095 374.489 704.684 373.296C705.228 372.193 705.548 371.331 706.408 370.391C707.015 369.727 707.843 368.428 708.577 368.939C709.108 369.31 709.358 370.762 709.553 371.416C710.056 373.109 709.608 374.625 708.399 376.359C707.434 377.744 704.932 377.895 704.417 376.987" stroke="#191847" stroke-linecap="round" stroke-linejoin="round"/>
<path d="M712.224 372.594C712.224 373.35 712.053 377.762 712.401 377.634" stroke="#191847" stroke-linecap="round" stroke-linejoin="round"/>
<path d="M712.401 372.908C713.625 372.176 714.352 371.882 714.352 373.417C714.352 374.317 714.24 375.241 713.288 375.795" stroke="#191847" stroke-linecap="round" stroke-linejoin="round"/>
<path d="M716.659 370.958C716.659 371.56 716.659 372.163 716.659 372.765C716.659 372.871 716.628 373.166 716.698 373.066C716.905 372.769 717.109 372.301 717.27 371.972C717.745 371.001 717.856 370.705 718.788 370.362" stroke="#191847" stroke-linecap="round" stroke-linejoin="round"/>
<path d="M722.513 369.555C722.043 370.135 721.047 372.204 722.414 371.283C722.559 371.185 723.004 369.852 723.262 370.224C723.614 370.732 723.627 371.379 724.208 371.671C724.882 372.01 725.706 371.9 725.706 370.835" stroke="#191847" stroke-linecap="round" stroke-linejoin="round"/>
<path d="M726.948 368.107C726.982 369.631 727.379 370.974 728.969 370.388C729.755 370.098 730.319 368.749 730.319 367.998" stroke="#191847" stroke-linecap="round" stroke-linejoin="round"/>
<path d="M732.271 369.17C732.443 368.911 733.63 366.799 732.616 367.173C731.875 367.446 731.657 368.497 731.571 369.124C731.395 370.412 731.615 371.114 732.803 370.676" stroke="#191847" stroke-linecap="round" stroke-linejoin="round"/>
<path d="M734.754 366.173C734.754 366.778 734.378 368.784 734.666 369.169C734.926 369.516 735.004 368.05 735.277 367.514C735.624 366.83 735.84 366.905 736.134 367.366C736.683 368.228 736.972 369.213 738.125 369.279" stroke="#191847" stroke-linecap="round" stroke-linejoin="round"/>
<path d="M604.771 492.38C604.771 497.695 604.771 503.009 604.771 508.324" stroke="#191847" stroke-linecap="round" stroke-linejoin="round"/>
<path d="M600.048 494.542C603.164 494.04 606.328 492.644 609.495 491.476" stroke="#191847" stroke-linecap="round" stroke-linejoin="round"/>
<path d="M609.495 504.064C611.419 503.354 614.198 502.747 615.575 500.352C616.234 499.205 615.906 497.922 614.831 498.319C613.648 498.755 609.889 501.519 609.889 502.87C609.889 505.315 609.449 507.728 611.244 508.873C611.832 509.247 613.853 508.597 614.612 507.957C616.013 506.777 617.801 506.454 619.336 505.888" stroke="#191847" stroke-linecap="round" stroke-linejoin="round"/>
<path d="M626.028 496.705C622.983 497.908 623.249 499.293 625.066 500.207C625.966 500.66 628.067 503.049 626.422 504.532" stroke="#191847" stroke-linecap="round" stroke-linejoin="round"/>
<path d="M633.114 484.441C633.114 491.994 633.114 499.546 633.114 507.099" stroke="#191847" stroke-linecap="round" stroke-linejoin="round"/>
<path d="M630.752 499.578C632.742 498.896 634.635 498.565 636.657 497.819" stroke="#191847" stroke-linecap="round" stroke-linejoin="round"/>
<path d="M488.896 533.914C491.104 533.185 493.2 533.166 495.391 532.357C495.763 532.22 497.296 531.427 497.469 531.777C498.397 533.662 491.437 542.128 490.164 544.356C489.556 545.421 485.909 550.961 487.802 550.262C489.303 549.708 493.773 547.384 494.8 548.1" stroke="#191847" stroke-linecap="round" stroke-linejoin="round"/>
<path d="M502.671 541.106C502.247 541.456 497.634 545.379 498.557 546.269C499.031 546.725 500.437 546.37 501.18 546.096C501.966 545.806 502.466 543.968 502.889 543.136C503.229 542.468 502.837 544.715 503.365 544.851C504.106 545.043 504.066 544.535 504.522 544.123" stroke="#191847" stroke-linecap="round" stroke-linejoin="round"/>
<path d="M501.746 539.475C502.317 538.655 502.888 537.704 503.597 537.066" stroke="#191847" stroke-linecap="round" stroke-linejoin="round"/>
<path d="M507.762 530.103C507.682 534.655 506.142 539.482 506.142 544.019" stroke="#191847" stroke-linecap="round" stroke-linejoin="round"/>
<path d="M506.605 541.628C507.873 541.848 509.183 542.039 510.423 542.316C510.532 542.34 511.07 542.447 510.77 542.558" stroke="#191847" stroke-linecap="round" stroke-linejoin="round"/>
<path d="M506.836 541.543C507.397 540.546 509.099 537.995 510.076 537.634" stroke="#191847" stroke-linecap="round" stroke-linejoin="round"/>
<path d="M517.712 536.298C516.165 537.821 514.472 538.986 514.472 541.137C514.472 543.04 516.048 540.3 516.439 539.508C516.857 538.66 517.712 536.772 517.712 538.764C517.712 540.048 519.028 539.758 520.026 539.39" stroke="#191847" stroke-linecap="round" stroke-linejoin="round"/>
<path d="M521.646 535.833C523.073 535.306 524.5 534.78 525.927 534.253C526.408 534.076 527.255 533.707 527.611 534.002C528.466 534.712 526.109 536.754 525.605 537.208C523.814 538.824 526.429 537.521 527.199 537.237" stroke="#191847" stroke-linecap="round" stroke-linejoin="round"/>
<path d="M530.439 533.329C530.426 533.943 529.786 536.283 530.387 536.061C531.16 535.776 531.475 534.409 532.187 533.945C532.564 533.698 534.589 532.463 534.835 532.831C535.214 533.397 535.042 534.144 535.529 534.657" stroke="#191847" stroke-linecap="round" stroke-linejoin="round"/>
<path d="M539.463 531.479C539.463 532.302 539.463 533.124 539.463 533.946" stroke="#191847" stroke-linecap="round" stroke-linejoin="round"/>
<path d="M540.157 528.511C541.242 527.202 542.348 525.947 543.397 524.603C544.127 523.666 544.969 523.135 545.71 522.269" stroke="#191847" stroke-linecap="round" stroke-linejoin="round"/>
<path d="M550.107 516.454C550.043 518.527 549.277 520.701 548.719 522.858C548.393 524.119 548.366 525.315 548.025 526.595C547.599 528.192 548.025 529.157 548.025 530.541" stroke="#191847" stroke-linecap="round" stroke-linejoin="round"/>
<path d="M547.331 528.577C548.376 528.632 549.864 528.876 551.033 528.444" stroke="#191847" stroke-linecap="round" stroke-linejoin="round"/>
<path d="M548.719 527.818C550.185 526.374 551.399 525.095 552.653 523.407" stroke="#191847" stroke-linecap="round" stroke-linejoin="round"/>
<path d="M593.536 490.886C596.844 489.666 600.152 488.445 603.461 487.225C604.712 486.763 605.789 486.572 607.019 486.364C608.363 486.136 609.778 485.415 611.139 484.959C612.048 484.655 612.794 485.073 613.721 484.763C614.573 484.478 615.431 484.132 616.284 483.818C618.011 483.18 619.661 482.382 621.389 481.745C622.835 481.212 624.09 480.37 625.529 479.84C627.451 479.13 629.375 478.348 631.285 477.863C633.669 477.258 635.919 476.827 638.204 476.907C638.89 476.932 639.771 477.621 640.293 477.986C640.927 478.427 640.904 479.041 640.904 479.935C640.904 481.421 641.67 482.832 642.639 483.508C643.301 483.969 644.035 484.675 644.541 485.327C644.894 485.782 645.245 486.205 645.586 486.686C645.908 487.139 645.694 488.386 645.694 489.041C645.694 491.422 646.555 493.814 645.941 496.367C645.731 497.24 645.47 498.268 645.064 499.128C644.761 499.768 644.338 500.683 644.275 501.331C644.205 502.056 643.689 502.701 643.427 503.387C643.2 503.984 643.266 504.69 643.201 505.267C643.083 506.32 642.633 507.057 642.136 508.034C641.865 508.569 641.093 509.233 640.628 509.452C639.77 509.856 639.097 510.617 638.302 511.098C635.22 512.965 631.826 513.823 628.693 514.979C622.152 517.392 615.585 519.437 609.059 521.844C608.142 522.183 607.226 522.521 606.309 522.859C605.392 523.197 604.03 523.751 603.175 523.742C602.92 523.739 601.916 523.878 601.874 523.508C601.801 522.86 601.317 522.105 600.957 521.682C600.422 521.052 599.821 520.602 599.479 519.779C599.161 519.015 599.183 518.576 598.503 518.175C597.006 517.291 595.296 516.888 593.713 516.16C591.884 515.318 589.728 515.846 588.391 514.089C587.445 512.847 587.858 510.209 587.858 508.371C587.858 505.816 588.472 503.194 589.288 500.574C589.731 499.15 590.474 497.669 591.052 496.257C591.321 495.598 591.587 495.08 592.037 494.506C592.471 493.954 592.507 492.967 593.181 492.719C594.194 492.345 594.807 491.552 595.803 491.184C596.211 491.034 597.614 489.765 597.793 489.315" stroke="#191847" stroke-width="2" stroke-linecap="round" stroke-linejoin="round"/>
<path d="M575.44 513.825C577.864 512.93 585.138 510.247 582.714 511.141" stroke="#191847" stroke-linecap="round" stroke-linejoin="round"/>
<path d="M579.343 507.657C577.036 509.031 574.793 510.656 572.483 512.027C572.154 512.222 569.898 513.209 569.762 513.839C569.511 515.004 569.438 515.625 570.551 515.723C572.127 515.861 573.587 516.382 574.907 517.047C575.66 517.426 576.566 517.434 577.371 517.714C577.753 517.846 578.342 518.049 578.81 517.876" stroke="#191847" stroke-linecap="round" stroke-linejoin="round"/>
<path d="M481.785 531.039C495.28 523.993 508.986 519.833 522.588 514.507C523.316 514.221 524.125 513.69 524.85 513.302C526.493 512.422 528.217 511.937 529.877 511.324C532.211 510.463 534.549 509.564 536.883 508.74C539.361 507.864 541.968 507.882 544.403 507.445C546.328 507.1 548.164 506.581 549.995 506.615C551.307 506.64 553.158 505.602 554.328 506.141C555.457 506.66 556.67 507.017 557.451 508.003C558.2 508.947 559.071 510.81 559.071 512.256C559.071 513.835 559.871 515.032 560.28 516.332C560.689 517.634 560.691 519.555 560.691 521.072C560.691 523.06 560.454 525.366 558.788 527.295C558.108 528.083 557.775 529.145 557.001 529.791C556.26 530.41 555.245 531.003 554.456 531.483C551.343 533.379 548.254 535.155 545.085 536.791C542.205 538.276 539.281 539.171 536.369 540.445C533.627 541.644 530.947 542.746 528.193 543.762C524.393 545.164 520.885 547.033 517.15 548.809C512.335 551.098 507.347 552.686 502.508 554.471C498.877 555.81 495.416 556.182 491.786 557.44C490.461 557.899 489.12 558.018 487.788 558.408C485.921 558.955 484.333 559.231 482.608 559.113C480.362 558.96 477.344 559.471 475.768 557.978C474.642 556.91 474.149 554.964 474.149 553.081C474.149 550.716 474.401 549.014 475.64 546.515C476.651 544.478 477.539 542.494 478.648 540.473C479.386 539.128 479.685 537.692 480.396 536.293C481.034 535.038 482.021 533.907 482.826 532.752C483.3 532.072 486.805 527.557 487.107 528.089" stroke="#191847" stroke-width="2" stroke-linecap="round" stroke-linejoin="round"/>
<g filter="url(#filter3_d)">
<g filter="url(#filter4_d)">
<path d="M140.898 417.515C140.9 409.146 147.327 399.938 155.179 397.055L298.709 344.346C301.641 343.269 304.487 343.2 306.848 344.149L313.989 347.019L311.732 512.99C311.62 521.231 305.351 530.215 297.656 533.159L153.549 588.296L146.675 585.614C143.025 584.189 140.865 580.501 140.866 575.695L140.898 417.515Z" fill="#A094E2"/>
</g>
<path d="M148.514 420.026C148.616 411.705 154.999 402.635 162.771 399.767L307.569 346.348C315.341 343.481 321.559 347.902 321.457 356.223L319.511 515.445C319.409 523.766 313.026 532.836 305.254 535.703L160.456 589.122C152.684 591.989 146.465 587.568 146.567 579.247L148.514 420.026Z" fill="white"/>
<path d="M148.514 420.026C148.616 411.705 154.999 402.635 162.771 399.767L307.569 346.348C315.341 343.481 321.559 347.902 321.457 356.223L321.252 373.003L148.309 436.805L148.514 420.026Z" fill="#4508BD"/>
<line y1="-1" x2="103.319" y2="-1" transform="matrix(-0.0122806 1.00444 -0.938191 0.346117 182.782 451.338)" stroke="#8A5BE8" stroke-width="2"/>
<line y1="-1" x2="103.319" y2="-1" transform="matrix(-0.0122806 1.00444 -0.938191 0.346117 208.614 441.805)" stroke="#8A5BE8" stroke-width="2"/>
<line y1="-1" x2="103.319" y2="-1" transform="matrix(-0.0122806 1.00444 -0.938191 0.346117 235.126 432.025)" stroke="#8A5BE8" stroke-width="2"/>
<line y1="-1" x2="103.319" y2="-1" transform="matrix(-0.0122806 1.00444 -0.938191 0.346117 260.957 422.495)" stroke="#8A5BE8" stroke-width="2"/>
<line y1="-1" x2="103.319" y2="-1" transform="matrix(-0.0122806 1.00444 -0.938191 0.346117 285.432 413.465)" stroke="#8A5BE8" stroke-width="2"/>
<line y1="-1" x2="109.414" y2="-1" transform="matrix(0.938191 -0.346117 -0.0122805 1.00444 182.482 475.708)" stroke="#8A5BE8" stroke-width="2"/>
<line y1="-1" x2="111.298" y2="-1" transform="matrix(0.938191 -0.346117 -0.0122805 1.00444 182.782 451.338)" stroke="#8A5BE8" stroke-width="2"/>
<line y1="-1" x2="109.414" y2="-1" transform="matrix(0.938191 -0.346117 -0.0122805 1.00444 182.854 500.616)" stroke="#8A5BE8" stroke-width="2"/>
<line y1="-1" x2="109.414" y2="-1" transform="matrix(0.938191 -0.346117 -0.0122805 1.00444 181.847 527.597)" stroke="#8A5BE8" stroke-width="2"/>
<line y1="-1" x2="109.414" y2="-1" transform="matrix(0.938191 -0.346117 -0.0122805 1.00444 181.511 555.114)" stroke="#8A5BE8" stroke-width="2"/>
</g>
<circle r="69.0637" transform="matrix(0.938191 -0.346117 0 1 959.795 173.967)" fill="#A094E2"/>
<circle r="69.0637" transform="matrix(0.938191 -0.346117 0 1 966.795 178.967)" fill="#191847"/>
<circle r="65.2503" transform="matrix(0.938191 -0.346117 0 1 967.192 179.245)" fill="#6455C1"/>
<ellipse rx="62.3673" ry="63" transform="matrix(0.938191 -0.346117 0 1 964.488 178.586)" fill="#4508BD"/>
<path d="M967.42 182.611L949.271 200.401L946.316 199.878L946.502 196.276L964.651 178.487L967.42 182.611Z" fill="#191847"/>
<path d="M964.807 175.886V148.589L966.794 145.494L968.782 147.123V174.42L964.807 175.886Z" fill="#191847"/>
<circle r="7.62666" transform="matrix(0.938191 -0.346117 0 1 967.192 179.243)" fill="#5C09FF"/>
<circle r="7.62666" transform="matrix(0.938191 -0.346117 0 1 967.192 179.243)" fill="#5C09FF"/>
<circle r="4.23704" transform="matrix(0.938191 -0.346117 0 1 967.192 179.244)" fill="#310686"/>
<rect width="3.44098" height="13.7639" transform="matrix(0.938191 -0.346117 0 1 965.578 123.063)" fill="white"/>
<rect width="3.44098" height="13.7639" transform="matrix(0.938191 -0.346117 0 1 965.578 222.853)" fill="white"/>
<rect width="3.44098" height="13.7639" transform="matrix(0 -1 0.938191 -0.346117 913.925 200.617)" fill="white"/>
<rect width="3.44098" height="13.7639" transform="matrix(0 -1 0.938191 -0.346117 1007.55 166.078)" fill="white"/>
<rect width="3.44098" height="13.7639" transform="matrix(0.469096 0.692967 -0.812498 0.799746 1012.52 132.645)" fill="white"/>
<rect width="3.44098" height="13.7639" transform="matrix(0.469096 0.692967 -0.812498 0.799746 931.438 212.45)" fill="white"/>
<rect width="3.44098" height="13.7639" transform="matrix(0.469096 -1.03908 0.812498 0.200254 920.256 169.66)" fill="white"/>
<rect width="3.44098" height="13.7639" transform="matrix(0.469096 -1.03908 0.812498 0.200254 1001.33 189.646)" fill="white"/>
<rect width="3.44098" height="13.7639" transform="matrix(0.812498 0.200254 -0.469096 1.03908 992.427 119.904)" fill="white"/>
<rect width="3.44098" height="13.7639" transform="matrix(0.812498 0.200254 -0.469096 1.03908 945.616 223.594)" fill="white"/>
<rect width="3.44098" height="13.7639" transform="matrix(0.812498 -0.799746 0.469096 0.692967 939.16 141.276)" fill="white"/>
<rect width="3.44098" height="13.7639" transform="matrix(0.812498 -0.799746 0.469096 0.692967 985.97 210.426)" fill="white"/>
<path d="M241.01 1035.94L257.205 866.761L636.065 726.992L379.893 876.946L310.206 1010.41L257.5 1041.67L241.01 1035.94Z" fill="#A094E2"/>
<path d="M215 864.546L671.399 696.171L687.5 702.171L660.112 718.12L240.5 884.671L224.324 878.891L215 864.546Z" fill="#A094E2"/>
<path d="M257.288 1041.83L273.483 872.651L652.343 732.882L396.171 882.836L326.484 1016.3L257.288 1041.83Z" fill="#310686"/>
<path d="M426.107 825.238L565.971 773.639L405.005 864.931L426.107 825.238Z" fill="#4508BD"/>
<path d="M426.107 825.238L565.971 773.639L405.005 864.931L426.107 825.238Z" fill="#6455C1"/>
<path d="M426 825.171L516 792.171L412.5 850.671L426 825.171Z" fill="#4508BD"/>
<path d="M426 825.171L516 792.171L412.5 850.671L426 825.171Z" fill="#4508BD"/>
<path d="M267.594 1029.66L282.808 878.104L412.366 830.307L321.404 1009.8L267.594 1029.66Z" fill="#6455C1"/>
<path d="M269 1015.17L282.616 878.199L390 838.583L314.606 997.719L269 1015.17Z" fill="#191847"/>
<path d="M276.918 936.769L277.9 926.991L383.089 888.185L377.032 899.835L276.918 936.769Z" fill="#4508BD"/>
<path d="M278 927.171L279 917.671L369.17 883.171L363 895.671L278 927.171Z" fill="#6455C1"/>
<path d="M271.854 987.285L272.816 977.514L352.735 948.03L346.839 959.621L271.854 987.285Z" fill="#4508BD"/>
<path d="M273 977.671L274 967.671L340.882 943.172L334.986 954.762L273 977.671Z" fill="#6455C1"/>
<path d="M231.279 870.437L687.678 702.062L676.39 724.011L240.603 884.781L231.279 870.437Z" fill="#4508BD"/>
<path d="M389.89 812.507C389.89 807.392 393.78 801.812 398.578 800.042L485.454 767.991C490.252 766.221 494.142 768.932 494.142 774.046L389.89 812.507Z" fill="#310686"/>
<path d="M372 806.891C372 801.773 375.886 796.186 380.688 794.401L466.109 762.633C468.968 761.57 471.762 761.459 474.119 762.316L487 767L372 806.891Z" fill="#A094E2"/>
<path d="M416 618.097L444.234 607.681V774.36L421 786.681L416 784.776V618.097Z" fill="#A094E2"/>
<path d="M420.898 620.055L449.133 609.638V776.318L420.898 786.734V620.055Z" fill="#360399"/>
<path d="M420.898 620.055L442.617 612.042L420.898 785.576V620.055Z" fill="#20025B"/>
<path d="M435 605.684C435 600.152 439.215 594.115 444.405 592.214L643.135 519.427C645.002 518.743 646.826 518.669 648.372 519.215L654.5 521.378L652.76 636.781C652.678 642.229 648.562 648.11 643.478 650.043L444 725.878L438.946 723.912C436.47 722.95 435 720.455 435 717.218L435 605.684Z" fill="#A094E2"/>
<g filter="url(#filter5_d)">
<rect x="0.938191" y="0.653883" width="229.948" height="129.193" rx="9" transform="matrix(0.938191 -0.346117 0 1 439.286 598.57)" fill="#310686" stroke="white" stroke-width="2"/>
<path d="M439.782 712.441L657.394 632.16V638.953C657.394 644.476 653.193 650.502 648.012 652.414L449.164 725.773C443.982 727.684 439.782 724.757 439.782 719.234V712.441Z" fill="white"/>
<circle r="5.0477" transform="matrix(0.938191 -0.346117 0 1 549.077 680.517)" fill="white" stroke="#310686" stroke-width="0.4"/>
<rect width="189.829" height="104.987" rx="4" transform="matrix(0.938191 -0.346117 0 1 460.415 599.689)" fill="#3C00B2"/>
<rect width="189.829" height="104.987" rx="4" transform="matrix(0.938191 -0.346117 0 1 460.415 599.689)" fill="#3C00B2"/>
<rect width="169.981" height="91.3333" rx="4" transform="matrix(0.938191 -0.346117 0 1 469.356 602.353)" fill="#3C00B2"/>
<rect width="169.981" height="91.3333" rx="4" transform="matrix(0.938191 -0.346117 0 1 469.356 602.353)" fill="white"/>
<rect width="169.981" height="91.3333" rx="4" transform="matrix(0.938191 -0.346117 0 1 469.356 602.353)" fill="white"/>
<rect width="165.294" height="9.41549" rx="3" transform="matrix(0.938191 -0.346117 0 1 471.617 604.082)" fill="#191847"/>
<path fill-rule="evenodd" clip-rule="evenodd" d="M626.695 614.73C623.901 616.464 613.069 626.081 606.083 630.064C599.796 633.788 595.892 636.304 588.907 640.287C581.921 644.269 575.002 646.449 568.715 643.849C562.428 641.953 555.443 633.288 549.156 630.688C542.869 628.792 536.376 632.817 530.507 637.568C524.128 642.732 517.023 647.461 510.736 647.673C503.75 647.439 497.464 642.03 491.177 640.836C484.89 638.939 478.603 641.259 475.11 642.547L471.617 643.836V687.913C471.617 689.57 472.877 690.448 474.432 689.875L475.11 689.625C478.603 688.336 484.89 686.017 491.177 683.697C497.464 681.378 503.75 679.059 510.736 676.481C517.023 674.162 523.31 671.843 529.597 669.523C536.582 666.946 542.869 664.627 549.156 662.308C555.443 659.988 562.428 657.411 568.715 655.092C575.002 652.772 581.289 650.453 588.275 647.876C594.562 645.557 600.849 643.237 607.135 640.918C614.121 638.341 620.408 636.021 623.202 634.991L623.88 634.74C625.435 634.167 626.695 632.359 626.695 630.702V614.73Z" fill="url(#paint0_linear)" fill-opacity="0.95"/>
<path opacity="0.85" fill-rule="evenodd" clip-rule="evenodd" d="M471.617 663.931C474.411 663.9 485.243 667.898 492.229 667.32C498.516 666.999 502.42 667.089 509.405 666.511C516.391 665.932 523.31 662.849 529.597 653.534C535.884 645.219 542.869 626.653 549.156 617.338C555.443 609.023 561.936 608.946 567.805 610.458C574.184 612.102 581.289 612.479 587.576 607.161C594.562 600.587 600.848 587.275 607.135 579.959C613.422 571.644 619.709 569.324 623.202 568.036L626.695 566.747V630.702C626.695 632.359 625.435 634.167 623.88 634.74L623.202 634.991C619.709 636.279 613.422 638.598 607.135 640.918C600.848 643.237 594.562 645.557 587.576 648.134C581.289 650.453 575.002 652.772 568.715 655.092C561.73 657.669 555.443 659.988 549.156 662.308C542.869 664.627 535.884 667.204 529.597 669.523C523.31 671.843 517.023 674.162 510.037 676.739C503.75 679.059 497.463 681.378 491.177 683.697C484.191 686.274 477.904 688.594 475.11 689.625L474.432 689.875C472.877 690.448 471.617 689.57 471.617 687.913V663.931Z" fill="url(#paint1_linear)"/>
<text transform="matrix(0.938191 -0.346117 0 1 493.21 595.07)" fill="white" xml:space="preserve" style="white-space: pre" font-family="Montserrat" font-size="4" font-weight="600" letter-spacing="0em"><tspan x="0" y="7.14233">V&#xfd;kon</tspan></text>
<text transform="matrix(0.938191 -0.346117 0 1 514.803 587.103)" fill="white" xml:space="preserve" style="white-space: pre" font-family="Montserrat" font-size="4" font-weight="600" letter-spacing="0em"><tspan x="0" y="7.14233">Test</tspan></text>
<text transform="matrix(0.938191 -0.346117 0 1 532.47 580.585)" fill="white" xml:space="preserve" style="white-space: pre" font-family="Montserrat" font-size="4" font-weight="600" letter-spacing="0em"><tspan x="0" y="7.14233">Zobrazen&#xed;</tspan></text>
<text transform="matrix(0.938191 -0.346117 0 1 560.934 570.084)" fill="white" xml:space="preserve" style="white-space: pre" font-family="Montserrat" font-size="4" font-weight="600" letter-spacing="0em"><tspan x="0" y="7.14233">Oprava</tspan></text>
<text transform="matrix(0.938191 -0.346117 0 1 586.453 560.669)" fill="white" xml:space="preserve" style="white-space: pre" font-family="Montserrat" font-size="4" font-weight="600" letter-spacing="0em"><tspan x="0" y="7.14233">Nasteven&#xed;</tspan></text>
</g>
<g filter="url(#filter6_d)">
<path d="M208 688.987C208 683.455 212.215 677.419 217.405 675.518L416.135 602.731C418.002 602.047 419.826 601.973 421.372 602.518L427.5 604.681L425.76 720.084C425.678 725.532 421.562 731.413 416.478 733.346L217 809.181L211.946 807.216C209.47 806.253 208 803.758 208 800.521L208 688.987Z" fill="#A094E2"/>
<rect x="0.938191" y="0.653883" width="229.948" height="129.193" rx="9" transform="matrix(0.938191 -0.346117 0 1 213.54 681.853)" fill="#310686" stroke="white" stroke-width="2"/>
<path d="M213.482 795.928L431.094 715.646V722.439C431.094 727.962 426.894 733.989 421.712 735.9L222.864 809.259C217.682 811.171 213.482 808.243 213.482 802.72V795.928Z" fill="white"/>
<circle r="5.0477" transform="matrix(0.938191 -0.346117 0 1 322.778 764.004)" fill="white" stroke="#310686" stroke-width="0.4"/>
<rect width="189.829" height="104.987" rx="4" transform="matrix(0.938191 -0.346117 0 1 234.115 683.175)" fill="#3C00B2"/>
<rect width="189.829" height="104.987" rx="4" transform="matrix(0.938191 -0.346117 0 1 234.115 683.175)" fill="#3C00B2"/>
<rect width="173.624" height="11.5749" rx="4" transform="matrix(0.938191 -0.346117 0 1 240.631 686.559)" fill="#3C00B2"/>
<rect width="173.624" height="11.5749" rx="4" transform="matrix(0.938191 -0.346117 0 1 240.631 686.559)" fill="white"/>
<rect width="173.624" height="11.5749" rx="4" transform="matrix(0.938191 -0.346117 0 1 240.631 686.559)" fill="white"/>
<rect width="91.4421" height="72.9222" rx="4" transform="matrix(0.938191 -0.346117 0 1 240.631 705.078)" fill="#3C00B2"/>
<rect width="91.4421" height="72.9222" rx="4" transform="matrix(0.938191 -0.346117 0 1 240.631 705.078)" fill="white"/>
<rect width="91.4421" height="72.9222" rx="4" transform="matrix(0.938191 -0.346117 0 1 240.631 705.078)" fill="white"/>
<rect x="0.469096" y="0.326941" width="73.0797" height="71.9222" rx="3.5" transform="matrix(0.938191 -0.346117 0 1 334.051 670.787)" fill="#3C00B2" stroke="white"/>
<rect x="0.469096" y="0.326941" width="63.8197" height="62.6622" rx="1.5" transform="matrix(0.938191 -0.346117 0 1 338.395 673.814)" fill="white" stroke="white"/>
<text transform="matrix(0.938191 -0.346117 0 1 247.995 684.017)" fill="#310686" xml:space="preserve" style="white-space: pre" font-family="Montserrat" font-size="4" font-weight="600" letter-spacing="0em"><tspan x="0" y="7.14233">Ticket</tspan></text>
<text transform="matrix(0.938191 -0.346117 0 1 269.417 676.114)" fill="#310686" xml:space="preserve" style="white-space: pre" font-family="Montserrat" font-size="4" font-weight="600" letter-spacing="0em"><tspan x="0" y="7.14233">Z&#xe1;lo&#x17e;ky</tspan></text>
<text transform="matrix(0.938191 -0.346117 0 1 374.147 637.477)" fill="#310686" xml:space="preserve" style="white-space: pre" font-family="Montserrat" font-size="4" font-weight="600" letter-spacing="0em"><tspan x="0" y="7.14233">Nastaven&#xed;</tspan></text>
<text transform="matrix(0.938191 -0.346117 0 1 247.995 704.313)" fill="#310686" xml:space="preserve" style="white-space: pre" font-family="Montserrat" font-size="5" font-weight="600" letter-spacing="0em"><tspan x="0" y="7.50083">Z&#xe1;kazn&#xed;k 1 - ID: 345</tspan></text>
<text transform="matrix(0.938191 -0.346117 0 1 247.995 715.73)" fill="#310686" xml:space="preserve" style="white-space: pre" font-family="Montserrat" font-size="5" font-weight="600" letter-spacing="0em"><tspan x="0" y="7.50083">Z&#xe1;kazn&#xed;k 2 - ID: 218</tspan></text>
<text transform="matrix(0.938191 -0.346117 0 1 247.995 727.146)" fill="#310686" xml:space="preserve" style="white-space: pre" font-family="Montserrat" font-size="5" font-weight="600" letter-spacing="0em"><tspan x="0" y="7.50083">Z&#xe1;kazn&#xed;k 3 - ID: 327</tspan></text>
<text transform="matrix(0.938191 -0.346117 0 1 247.995 738.563)" fill="#310686" xml:space="preserve" style="white-space: pre" font-family="Montserrat" font-size="5" font-weight="600" letter-spacing="0em"><tspan x="0" y="7.50083">Z&#xe1;kazn&#xed;k 4 - ID: 280</tspan></text>
<text transform="matrix(0.938191 -0.346117 0 1 247.995 749.979)" fill="#310686" xml:space="preserve" style="white-space: pre" font-family="Montserrat" font-size="5" font-weight="600" letter-spacing="0em"><tspan x="0" y="7.50083">Z&#xe1;kazn&#xed;k 5 - ID: 198</tspan></text>
<text transform="matrix(0.938191 -0.346117 0 1 247.995 761.396)" fill="#310686" xml:space="preserve" style="white-space: pre" font-family="Montserrat" font-size="5" font-weight="600" letter-spacing="0em"><tspan x="0" y="7.50083">Z&#xe1;kazn&#xed;k 6 - ID: 255</tspan></text>
<text transform="matrix(0.938191 -0.346117 0 1 344.395 672.555)" fill="#310686" xml:space="preserve" style="white-space: pre" font-family="Montserrat" font-size="5" font-weight="600" letter-spacing="0em"><tspan x="0" y="7.50083">Z&#xe1;kazn&#xed;k 1 - ID: 345</tspan></text>
<text transform="matrix(0.938191 -0.346117 0 1 345.276 686.26)" fill="#310686" xml:space="preserve" style="white-space: pre" font-family="Montserrat" font-size="4" font-weight="600" letter-spacing="0em"><tspan x="0" y="6.08032">Dobr&#xfd; den, &#10;</tspan><tspan x="0" y="11.0803">na web bych cht&#x11b;l </tspan><tspan x="0" y="16.0803">p&#x159;idat odkaz na soci&#xe1;ln&#xed; </tspan><tspan x="0" y="21.0803">s&#xed;t&#x11b; a nev&#xed;m si rady. </tspan><tspan x="0" y="26.0803">D&#xed;ky za pomoc :-). </tspan></text>
<rect width="25.3704" height="7.61111" rx="2" transform="matrix(0.938191 -0.346117 0 1 356.296 717.637)" fill="#4508BD"/>
<text transform="matrix(0.938191 -0.346117 0 1 360.981 717.083)" fill="white" xml:space="preserve" style="white-space: pre" font-family="Montserrat" font-size="4" font-weight="600" letter-spacing="0em"><tspan x="0" y="3.97104">Hotovo</tspan></text>
</g>
<path fill-rule="evenodd" clip-rule="evenodd" d="M538.807 552.607C533.841 548.225 530.479 541.85 531.041 533.109C532.659 507.925 564.77 501.488 571.016 511.593C577.262 521.698 576.52 553.449 568.447 558.645C565.228 560.717 558.37 561.081 551.39 559.172L555.771 590.593L529.902 600.136L538.807 552.607Z" fill="#B28B67"/>
<path fill-rule="evenodd" clip-rule="evenodd" d="M582.476 490.162C581.94 488.353 580.5 487.166 578.558 487.373C578.087 487.423 577.601 487.552 577.116 487.752C576.942 487.823 576.893 487.895 576.812 487.795C576.752 487.721 576.751 487.487 576.726 487.383C576.649 487.061 576.552 486.75 576.433 486.456C576.027 485.454 575.344 484.687 574.521 484.132C572.981 483.094 570.901 482.753 568.74 483.35C567.557 483.676 566.382 484.314 565.264 485.137C564.685 485.563 564.124 486.035 563.577 486.529C563.412 486.677 562.878 487.305 562.713 487.338C562.531 487.375 562.164 487.027 562.015 486.96C560.182 486.137 557.917 486.383 555.633 487.243C553.054 488.215 550.572 489.268 548.421 491.737C547.966 492.26 547.532 492.808 547.12 493.369C546.902 493.664 546.692 493.965 546.491 494.272C546.37 494.457 546.252 494.644 546.138 494.833C545.946 495.155 545.977 495.225 545.707 495.15C544.672 494.862 543.473 494.991 542.265 495.595C541.548 495.954 540.85 496.44 540.187 496.987C539.961 497.173 539.439 497.776 539.199 497.869C538.96 497.961 538.445 497.77 538.2 497.764C536.873 497.732 535.442 498.131 534.047 498.887C532.608 499.666 531.195 500.8 529.976 502.095C529.389 502.718 528.878 503.358 528.467 504.114C528.289 504.441 528.129 504.776 527.928 505.092C527.81 505.278 527.577 505.509 527.514 505.712C527.552 505.59 525.94 505.523 525.788 505.536C524.978 505.61 524.153 505.96 523.36 506.531C521.868 507.604 520.585 509.251 519.531 510.843C518.989 511.661 518.515 512.519 518.113 513.395C517.92 513.814 517.744 514.238 517.583 514.664C517.505 514.87 517.453 515.111 517.35 515.309C517.217 515.564 517.128 515.6 516.888 515.779C515.667 516.685 514.554 517.867 513.706 519.223C512.849 520.594 512.293 522.098 512.06 523.552C512.046 523.638 512.038 523.975 511.994 524.035C511.933 524.117 511.687 524.181 511.594 524.227C511.273 524.386 510.954 524.563 510.638 524.759C510.058 525.12 509.492 525.544 508.958 526.024C506.873 527.892 505.382 530.503 504.652 533.091C503.887 535.808 503.9 538.591 504.815 540.642C504.963 540.973 505.139 541.283 505.346 541.561C505.473 541.732 505.513 541.717 505.431 541.976C505.339 542.263 505.172 542.572 505.063 542.86C504.707 543.801 504.458 544.751 504.301 545.685C504.044 547.219 503.916 548.777 504.17 550.132C504.288 550.762 504.494 551.344 504.808 551.827C504.967 552.074 505.155 552.295 505.366 552.485C505.476 552.583 505.592 552.673 505.714 552.756C505.784 552.803 505.875 552.833 505.934 552.892C506.079 553.037 506.11 552.863 506.035 553.181C505.931 553.626 505.694 554.115 505.549 554.564C505.4 555.027 505.265 555.49 505.142 555.953C504.892 556.891 504.681 557.83 504.549 558.754C504.295 560.529 504.34 562.304 505.086 563.571C505.405 564.114 505.862 564.524 506.417 564.769C506.689 564.89 506.983 564.971 507.292 565.013C507.45 565.035 507.653 564.994 507.725 565.131C507.803 565.278 507.687 565.67 507.661 565.876C507.432 567.671 507.317 569.509 507.794 571.008C508.233 572.39 509.2 573.395 510.455 573.834C512.891 574.686 516.174 573.376 518.733 571.031C519.4 570.42 520.024 569.736 520.581 568.996C521.999 570.507 524.916 569.366 526.988 568.022C529.569 566.348 531.641 563.67 532.834 560.716C534.466 562.232 537.891 560.281 539.022 557.567C539.299 556.902 539.464 556.222 539.544 555.565C539.587 555.22 539.56 554.897 539.592 554.559C539.633 554.127 539.894 553.625 540.044 553.167C540.336 552.274 540.518 551.397 540.526 550.547C540.53 550.104 540.477 549.693 540.438 549.269C540.402 548.887 540.505 548.482 540.563 548.071C539.901 548.431 539.095 548.538 538.471 548.564C537.859 548.589 537.286 548.272 536.854 547.948C535.85 547.197 535.238 545.953 534.819 544.644C533.899 541.772 534.276 537.78 537.306 534.899C538.718 533.557 542.947 532 544.629 531.785C546.397 531.56 548.401 534.978 548.5 535.333C548.561 535.552 548.53 535.863 548.739 535.947C549.197 536.132 549.952 535.239 550.29 534.81C550.874 534.071 551.29 533.221 551.65 532.382C552.435 530.553 553.068 528.669 553.515 526.819C553.859 525.392 554.08 523.972 554.53 522.539C554.978 521.114 555.685 519.728 556.784 518.609C557.979 517.392 559.349 516.477 560.661 515.505C561.961 514.542 563.239 513.48 564.247 512.082C564.469 511.775 564.684 511.455 564.863 511.124C565.003 510.862 565.143 510.41 565.357 510.198C565.691 509.868 566.178 510.226 566.466 510.315C567.889 510.753 569.077 511.659 570.035 512.773C570.987 513.882 571.768 514.999 572.403 516.395C572.874 517.43 573.168 518.87 573.997 519.555C574.367 519.861 577.116 519.115 578.006 518.4C578.897 517.685 579.895 516.314 580.194 515.575C580.5 514.819 580.573 514.085 580.442 513.429C580.365 513.043 580.208 512.714 580.122 512.339C580.05 512.023 579.984 511.724 579.828 511.469C579.532 510.984 579.027 510.744 578.417 510.791C579.052 509.933 579.577 508.994 579.941 508.026C580.319 507.02 580.639 505.849 580.73 504.864C580.804 504.065 580.69 503.307 580.294 502.79C579.877 502.247 579.14 502.065 578.503 501.866C579.477 500.694 580.31 499.399 580.996 498.052C582.329 495.434 583.153 492.448 582.476 490.162Z" fill="#191847"/>
<path fill-rule="evenodd" clip-rule="evenodd" d="M521.29 698.7L573.116 825.752L609.443 920.086L630.156 912.444L580.222 676.959L521.29 698.7Z" fill="#1F28CF"/>
<path fill-rule="evenodd" clip-rule="evenodd" d="M511.949 702.146C511.386 752.508 508.324 821.163 507.012 824.773C506.137 827.18 475.672 905.866 457.246 973.426L475.672 969.083C513.677 902.893 533.043 837.287 536.294 830.264C541.171 819.73 565.671 730.309 578.417 677.625L511.949 702.146Z" fill="#2B44FF"/>
<path fill-rule="evenodd" clip-rule="evenodd" d="M456.095 997.363L457.173 972.839L479.808 964.488C490.542 968.571 504.554 969.911 521.846 968.511L521.846 973.106L480.886 988.217L466.874 991.089L466.874 993.387L456.095 997.363Z" fill="#191847"/>
<path fill-rule="evenodd" clip-rule="evenodd" d="M607.521 941.475L608.599 916.95L631.234 908.6C641.968 912.682 655.98 914.023 673.272 912.623V917.218L632.312 932.329L618.3 935.201V937.499L607.521 941.475Z" fill="#191847"/>
<path fill-rule="evenodd" clip-rule="evenodd" d="M612.377 641.1L654.936 619.212C663.449 611.024 671.281 604.717 678.431 600.293C680.443 599.488 683.645 599.087 678.876 605.083C674.107 611.08 669.269 617.552 670.118 619.5C670.968 621.448 675.403 618.97 676.137 622.178C676.627 624.316 669.43 627.348 654.545 631.274L620.013 658.606L612.377 641.1ZM478.687 700.921L502.289 692.307C476.408 763.935 462.913 801.417 461.805 804.755C459.311 812.263 464.589 820.35 466.846 824.91C459.494 831.128 460.278 817.854 451.004 825.874C442.54 833.194 436.101 843.174 426.322 840.351C425.119 840.003 423.802 837.512 426.985 834.011C434.916 825.289 446.345 810.928 447.889 807.019C449.995 801.689 460.261 766.322 478.687 700.921Z" fill="#997659"/>
<path fill-rule="evenodd" clip-rule="evenodd" d="M544.945 575.067L563.425 569.561C567.977 611.772 592.768 630.348 648.273 600.486L655.648 654.285C603.769 680.571 558.272 675.217 548.947 618.717C546.533 604.091 544.627 588.647 544.945 575.067Z" fill="#AFB9C5"/>
<path fill-rule="evenodd" clip-rule="evenodd" d="M535.828 572.704L563.828 569.21C563.828 620.542 579.169 647.633 587.038 682.471L509.071 711.234C508.005 724.668 482.348 774.249 482.007 788.142L446.306 792.106C459.137 714.606 492.647 628.442 533.979 573.368L535.813 572.691L535.828 572.704Z" fill="#C5CFD6"/>
<path fill-rule="evenodd" clip-rule="evenodd" d="M523.348 632.735C521.399 665.441 522.545 689.429 526.786 704.699L511.417 710.369C513.527 683.756 517.251 657.971 523.348 632.735L523.348 632.735Z" fill="black" fill-opacity="0.1"/>
<path fill-rule="evenodd" clip-rule="evenodd" d="M806.798 442.158C810.387 433.293 811.912 424.258 809.059 417.038C800.837 396.237 768.422 422.6 765.126 437.838C761.831 453.077 770.954 480.601 780.052 477.158C783.68 475.785 790.335 469.254 796.504 460.578L800.641 492.929L827.91 475.569L806.798 442.158Z" fill="#D4A181"/>
<path fill-rule="evenodd" clip-rule="evenodd" d="M796.901 446.628C802.022 450.318 808.009 451.74 812.681 448.766C821.556 443.116 824.687 428.419 821.268 416.935C821.148 416.532 821.02 416.137 820.884 415.75C831.998 415.573 842.636 422.397 855.057 414.489C871.957 403.731 869.535 368.775 845.924 383.806C829.867 394.028 822.595 401.164 816.716 408.614C814.359 406.061 811.459 404.5 808.361 404.093C807.577 403.867 806.48 403.87 805.127 404.088C804.292 404.192 803.452 404.38 802.612 404.653C798.103 405.909 791.871 408.736 785.167 412.756C783.915 413.506 782.694 414.27 781.51 415.041C779.813 409.42 773.376 408.092 767.113 412.079C760.837 416.074 757.113 423.891 758.795 429.54C760.421 435.003 766.507 436.436 772.582 432.912C776.291 431.682 780.901 429.579 785.87 426.766C785.874 428.672 786.159 430.658 786.772 432.718C787.313 434.537 788.11 436.323 789.104 438.02C789.825 436.214 791.021 434.573 792.458 433.658C796.477 431.1 800.161 432.295 801.102 435.455C802.296 439.466 800.587 444.005 796.901 446.628Z" fill="#191847"/>
<path fill-rule="evenodd" clip-rule="evenodd" d="M862.692 566.621L819.603 730.851L799.336 849.699L778.994 857.203L799.3 590.007L862.692 566.621Z" fill="#BA8B72"/>
<path fill-rule="evenodd" clip-rule="evenodd" d="M882.057 559.476C879.051 637.644 880.237 679.237 880.909 685.989C881.582 692.742 885.403 738.222 911.435 810.694L890.277 818.499C855.802 752.48 843.767 710.031 839.813 701.151C835.859 692.27 824.181 654.549 807.132 587.118L882.057 559.476Z" fill="#D4A181"/>
<path fill-rule="evenodd" clip-rule="evenodd" d="M863.618 566.279C852.41 621.456 833.024 710.084 805.462 832.162L775.709 843.139C773.512 729.084 782.86 650.035 799.049 590.1L863.618 566.279Z" fill="#69A1AC"/>
<path fill-rule="evenodd" clip-rule="evenodd" d="M882.208 559.421C879.263 637.566 886.894 710.668 910.533 794.599L878.789 806.31C844.25 741.489 819.495 675.079 802.577 588.798L882.208 559.421Z" fill="#89C5CC"/>
<path fill-rule="evenodd" clip-rule="evenodd" d="M914.45 824.858L913.283 806.486C906.448 811.005 897.887 813.379 887.6 813.611C876.539 825.518 862.615 836 845.828 845.055C844.547 845.746 843.686 847.278 843.904 848.477C843.918 848.554 843.937 848.63 843.96 848.702L845.574 853.793L887.6 838.288L912.115 829.244L914.45 824.858Z" fill="#191847"/>
<path fill-rule="evenodd" clip-rule="evenodd" d="M803.877 865.65L802.71 847.279C795.875 851.798 787.314 854.172 777.027 854.404C765.967 866.311 752.042 876.793 735.255 885.848C733.974 886.539 733.113 888.071 733.332 889.27C733.346 889.347 733.364 889.423 733.387 889.495L735.001 894.586L777.027 879.081L801.543 870.037L803.877 865.65Z" fill="#191847"/>
<path fill-rule="evenodd" clip-rule="evenodd" d="M712.916 596.725L692.702 601.843C686.966 596.033 682.455 594.369 679.17 596.852C676.22 597.799 684.868 604.054 679.743 606.903C674.618 609.752 659.742 611.375 658.407 614.421C656.433 618.928 662.09 623.683 666.7 624.656C675.315 626.475 681.083 624.91 694.225 618.528C701.096 615.191 709.132 612.949 718.333 611.804L712.916 596.725Z" fill="#D4A181"/>
<path fill-rule="evenodd" clip-rule="evenodd" d="M781.892 542.843C767.598 554.476 737.804 589.608 700.402 597.095C694.856 618.72 698.387 620.959 700.402 627.783C741.703 612.546 764.16 596.282 781.892 579.92C783.445 592.104 787.107 626.465 794.219 633.917C808.839 649.239 867.412 595.743 889.075 588.181C894.678 541.269 866.277 538.925 861.453 513.492C856.17 485.64 824.116 455.808 820.592 457.729L788.449 475.249C790.693 497.496 784.843 515.681 781.892 542.843Z" fill="#310686"/>
<defs>
<filter id="filter0_d" x="104" y="0.701172" width="891.5" height="1140.55" filterUnits="userSpaceOnUse" color-interpolation-filters="sRGB">
<feFlood flood-opacity="0" result="BackgroundImageFix"/>
<feColorMatrix in="SourceAlpha" type="matrix" values="0 0 0 0 0 0 0 0 0 0 0 0 0 0 0 0 0 0 127 0"/>
<feOffset/>
<feGaussianBlur stdDeviation="30"/>
<feColorMatrix type="matrix" values="0 0 0 0 0 0 0 0 0 0 0 0 0 0 0 0 0 0 0.25 0"/>
<feBlend mode="normal" in2="BackgroundImageFix" result="effect1_dropShadow"/>
<feBlend mode="normal" in="SourceGraphic" in2="effect1_dropShadow" result="shape"/>
</filter>
<filter id="filter1_d" x="378" y="178.876" width="447.85" height="456.714" filterUnits="userSpaceOnUse" color-interpolation-filters="sRGB">
<feFlood flood-opacity="0" result="BackgroundImageFix"/>
<feColorMatrix in="SourceAlpha" type="matrix" values="0 0 0 0 0 0 0 0 0 0 0 0 0 0 0 0 0 0 127 0"/>
<feOffset/>
<feGaussianBlur stdDeviation="10"/>
<feColorMatrix type="matrix" values="0 0 0 0 0 0 0 0 0 0 0 0 0 0 0 0 0 0 0.15 0"/>
<feBlend mode="normal" in2="BackgroundImageFix" result="effect1_dropShadow"/>
<feBlend mode="normal" in="SourceGraphic" in2="effect1_dropShadow" result="shape"/>
</filter>
<filter id="filter2_d" x="385.097" y="181.777" width="447.85" height="456.714" filterUnits="userSpaceOnUse" color-interpolation-filters="sRGB">
<feFlood flood-opacity="0" result="BackgroundImageFix"/>
<feColorMatrix in="SourceAlpha" type="matrix" values="0 0 0 0 0 0 0 0 0 0 0 0 0 0 0 0 0 0 127 0"/>
<feOffset dx="1"/>
<feGaussianBlur stdDeviation="10"/>
<feColorMatrix type="matrix" values="0 0 0 0 0 0 0 0 0 0 0 0 0 0 0 0 0 0 0.15 0"/>
<feBlend mode="normal" in2="BackgroundImageFix" result="effect1_dropShadow"/>
<feBlend mode="normal" in="SourceGraphic" in2="effect1_dropShadow" result="shape"/>
</filter>
<filter id="filter3_d" x="136.866" y="337.484" width="188.593" height="254.511" filterUnits="userSpaceOnUse" color-interpolation-filters="sRGB">
<feFlood flood-opacity="0" result="BackgroundImageFix"/>
<feColorMatrix in="SourceAlpha" type="matrix" values="0 0 0 0 0 0 0 0 0 0 0 0 0 0 0 0 0 0 127 0"/>
<feOffset dy="-2"/>
<feGaussianBlur stdDeviation="2"/>
<feColorMatrix type="matrix" values="0 0 0 0 0 0 0 0 0 0 0 0 0 0 0 0 0 0 0.15 0"/>
<feBlend mode="normal" in2="BackgroundImageFix" result="effect1_dropShadow"/>
<feBlend mode="normal" in="SourceGraphic" in2="effect1_dropShadow" result="shape"/>
</filter>
<filter id="filter4_d" x="125.866" y="332.484" width="203.123" height="274.812" filterUnits="userSpaceOnUse" color-interpolation-filters="sRGB">
<feFlood flood-opacity="0" result="BackgroundImageFix"/>
<feColorMatrix in="SourceAlpha" type="matrix" values="0 0 0 0 0 0 0 0 0 0 0 0 0 0 0 0 0 0 127 0"/>
<feOffset dy="4"/>
<feGaussianBlur stdDeviation="7.5"/>
<feColorMatrix type="matrix" values="0 0 0 0 0 0 0 0 0 0 0 0 0 0 0 0 0 0 0.15 0"/>
<feBlend mode="normal" in2="BackgroundImageFix" result="effect1_dropShadow"/>
<feBlend mode="normal" in="SourceGraphic" in2="effect1_dropShadow" result="shape"/>
</filter>
<filter id="filter5_d" x="409.228" y="490.84" width="278.166" height="265.721" filterUnits="userSpaceOnUse" color-interpolation-filters="sRGB">
<feFlood flood-opacity="0" result="BackgroundImageFix"/>
<feColorMatrix in="SourceAlpha" type="matrix" values="0 0 0 0 0 0 0 0 0 0 0 0 0 0 0 0 0 0 127 0"/>
<feOffset/>
<feGaussianBlur stdDeviation="15"/>
<feColorMatrix type="matrix" values="0 0 0 0 0 0 0 0 0 0 0 0 0 0 0 0 0 0 0.3 0"/>
<feBlend mode="normal" in2="BackgroundImageFix" result="effect1_dropShadow"/>
<feBlend mode="normal" in="SourceGraphic" in2="effect1_dropShadow" result="shape"/>
</filter>
<filter id="filter6_d" x="178" y="572.157" width="283.094" height="267.687" filterUnits="userSpaceOnUse" color-interpolation-filters="sRGB">
<feFlood flood-opacity="0" result="BackgroundImageFix"/>
<feColorMatrix in="SourceAlpha" type="matrix" values="0 0 0 0 0 0 0 0 0 0 0 0 0 0 0 0 0 0 127 0"/>
<feOffset/>
<feGaussianBlur stdDeviation="15"/>
<feColorMatrix type="matrix" values="0 0 0 0 0 0 0 0 0 0 0 0 0 0 0 0 0 0 0.3 0"/>
<feBlend mode="normal" in2="BackgroundImageFix" result="effect1_dropShadow"/>
<feBlend mode="normal" in="SourceGraphic" in2="effect1_dropShadow" result="shape"/>
</filter>
<linearGradient id="paint0_linear" x1="549.156" y1="615.23" x2="564.443" y2="656.668" gradientUnits="userSpaceOnUse">
<stop stop-color="#4508BD"/>
<stop offset="1" stop-color="#4508BD" stop-opacity="0.81"/>
</linearGradient>
<linearGradient id="paint1_linear" x1="549.156" y1="628.83" x2="558.498" y2="654.153" gradientUnits="userSpaceOnUse">
<stop stop-color="#310686"/>
<stop offset="1" stop-color="#5826BB"/>
</linearGradient>
</defs>
</svg>
