<svg width="853" height="1087" fill="none" xmlns="http://www.w3.org/2000/svg"><path d="M729.874 555.729C675.02 683.362 572.591 728.731 461.9 738.222c-145.723 12.495-307.923-14.403-394.571-138.118-180.54-257.771 59.165-381.501 59.165-381.501 322.108-179.33 673.955 172.914 603.38 337.126z" fill="#5C09FF"/><g filter="url(#a)"><path d="M140 391.985c0-27.676 21.093-57.869 47.058-67.36l563.504-205.982c10.028-3.665 19.781-3.806 27.829-.4L792 124l.737 625.956c.032 27.627-20.979 57.802-46.91 67.369L186.91 1023.52c-25.908 9.56-46.91-5.08-46.91-32.694V391.985z" fill="#A195E4"/></g><rect width="699" height="699" rx="50" transform="matrix(.9382 -.34612 0 1 151 346.933)" fill="#4508BD"/><g filter="url(#b)"><rect width="643" height="643" rx="35" transform="matrix(.9382 -.34612 0 1 177.269 365.242)" fill="#310686"/></g><ellipse rx="82.252" ry="79.157" transform="matrix(.93819 -.3435 0 1 542.832 559.408)" fill="#1E005A"/><path fill="#1E005A" d="m409.541 529.053 130.952-47.946v158.314l-130.952 47.946z"/><ellipse rx="74.775" ry="79.157" transform="matrix(.93819 -.3435 0 1 415.153 606.155)" fill="#1E005A"/><rect width="624" height="625" rx="27" transform="matrix(.9382 -.34612 0 1 185.713 371.127)" fill="#fff"/><g filter="url(#c)"><circle r="245.5" transform="matrix(.9382 -.34612 0 1 479.326 585.469)" fill="#310686"/></g><ellipse rx="82.252" ry="79.157" transform="matrix(.93819 -.3435 0 1 542.832 560.175)" fill="#A195E3"/><path fill="#A195E3" d="m409.541 529.82 130.952-47.946v158.314l-130.952 47.946z"/><ellipse rx="74.775" ry="79.157" transform="matrix(.93819 -.3435 0 1 415.153 606.922)" fill="#A195E3"/><ellipse rx="82.252" ry="79.157" transform="matrix(.93819 -.3435 0 1 551.02 566.174)" fill="#1E005A"/><path fill="#1E005A" d="m417.729 535.819 130.952-47.946v158.314L417.73 694.133z"/><ellipse rx="74.775" ry="79.157" transform="matrix(.93819 -.3435 0 1 423.341 612.922)" fill="#1E005A"/><circle r="75" transform="matrix(.9382 -.34612 0 1 428.629 611.298)" fill="#390898"/><circle r="75" transform="matrix(.9382 -.34612 0 1 554.166 564.984)" fill="#4508BD"/><path fill="#4508BD" d="m433.14 534.633 120.088-44.303v150L433.14 684.633z"/><path d="M502.409 584.031c0 41.321-34.552 87.566-73.701 102.008C401.553 696.058 372 669.559 372 632.141c0-37.418 22.986-79.927 56.708-95.74 33.723-15.813 73.701 6.309 73.701 47.63z" fill="#4508BD"/><circle r="49" transform="matrix(.9382 -.34612 0 1 428.449 611.364)" fill="#4508BD"/><circle r="48.5" transform="matrix(.9382 -.34612 0 1 428.449 611.364)" fill="#4508BD" stroke="#fff"/><path d="M465.38 596.702c2.18 1.07 2.399 4.228 1.054 8.759-1.336 4.497-4.162 10.139-7.739 15.788-3.575 5.645-7.874 11.257-12.126 15.694-4.213 4.397-8.302 7.558-11.565 8.542-11.641-4.381-19.304-7.953-23.98-12.284-4.664-4.321-6.353-9.398-6.007-16.844.385-8.276 3.948-15.266 8.917-20.675 4.984-5.425 11.41-9.289 17.515-11.231 6.014-1.913 12.042-.1 17.836 2.862 2.886 1.475 5.69 3.222 8.386 4.903l.04.025c2.676 1.669 5.249 3.273 7.669 4.461z" fill="#DBDBDB" stroke="#310686"/><path d="m413.43 627.77.246-.262 5.241 3.014 5.183 2.981-.172.259a1739.88 1739.88 0 0 1-6.447 9.627 1708.848 1708.848 0 0 1-16.675 24.26c-13.009 18.563-28.358 39.526-37.848 49.347-.512.53-1.357.778-2.582.64-1.187-.133-2.563-.612-3.983-1.259-1.913-.872-3.838-2.014-5.444-2.967a65.386 65.386 0 0 0-2.094-1.212c-1.768-.956-2.781-2.166-3.496-4.18-1.317-3.715.231-8.409 2.632-10.93 7.997-8.392 24.498-25.873 38.999-41.254 7.251-7.691 14.003-14.857 18.941-20.101l5.884-6.248 1.615-1.715z" fill="#fff" stroke="#310686"/><path d="m436.069 621.092.267-.278 11.311 12.793-.228.239-1.795 1.878-6.574 6.881a53996.523 53996.523 0 0 1-21.47 22.455c-16.633 17.387-36.065 37.674-47.266 49.28-3.306 3.426-8.261 4.991-11.815 3.323-.936-.44-1.603-.901-2.113-1.504-.51-.602-.878-1.363-1.19-2.428-1.13-3.872.909-9.143 3.807-12.183 9.392-9.848 28.824-30.136 45.91-47.962 8.543-8.913 16.499-17.21 22.319-23.279l6.934-7.231 1.903-1.984z" fill="#fff" stroke="#310686"/><path d="m436.194 621.497 5.021 5.68s-54.753 48.579-78.991 73.725c-3.783 3.925-6.668 12.582-6.71 12.305-.849-5.58 1.825-9.272 5.599-13.288 22.283-23.705 75.081-78.422 75.081-78.422z" fill="#B8B8B8"/><path d="M473.222 613.511c-1.046 13.758-12.865 28.054-26.418 31.916-13.553 3.862-23.675-4.181-22.63-17.94 1.045-13.758 12.865-28.054 26.418-31.916 13.553-3.862 23.675 4.181 22.63 17.94z" fill="#DBDBDB" stroke="#310686"/><path d="M472.741 613.648c-1.025 13.492-12.621 27.497-25.899 31.281-13.279 3.783-18.404-5.457-17.379-18.949 1.025-13.492 7.812-26.127 21.091-29.911 13.278-3.784 23.212 4.087 22.187 17.579z" fill="#fff"/><circle r="51.5" transform="matrix(.9382 -.34612 0 1 553.697 564.658)" fill="#DBDBDB"/><path d="M602.014 546.833c0 28.442-22.216 59.695-49.62 69.805-27.405 10.11-40.949-7.393-42.394-35.36.963-28.855 14.989-57.53 42.394-67.64 27.404-10.11 49.62 4.752 49.62 33.195z" fill="#fff"/><path d="m545.847 559.66 17.976-6.631 3.177 1.968-3.177 16.152L549 579.497l-3.153-1.5V559.66z" fill="#4508BD"/><path d="m545.847 559.66 17.976-6.631 3.177 1.968-3.177 16.152L549 579.497l-3.153-1.5V559.66z" fill="#A195E3"/><path fill="#4508BD" d="m549 561.629 17.976-6.632v18.12L549 579.75z"/><path fill="#4508BD" d="m549 561.629 17.976-6.632v18.12L549 579.75zM515.493 593.467l25.507-9.47 4 2-3.34 24.947s-4.161-.159-6.606-.71c-2.897-.652-4.358-1.369-6.834-2.733-3.294-1.814-5.024-3.087-7.456-5.934-3.727-4.365-5.271-8.1-5.271-8.1z"/><path d="m515.493 593.467 25.507-9.47 4 2-3.34 24.947s-4.161-.159-6.606-.71c-2.897-.652-4.358-1.369-6.834-2.733-3.294-1.814-5.024-3.087-7.456-5.934-3.727-4.365-5.271-8.1-5.271-8.1z" fill="#A195E3"/><path d="m519 595.651 26.167-9.654v27.131s-4.162-.16-6.606-.71c-2.897-.653-4.358-1.369-6.834-2.733-3.294-1.814-5.024-3.087-7.456-5.934-3.727-4.365-5.271-8.1-5.271-8.1z" fill="#4508BD"/><path d="m519 595.651 26.167-9.654v27.131s-4.162-.16-6.606-.71c-2.897-.653-4.358-1.369-6.834-2.733-3.294-1.814-5.024-3.087-7.456-5.934-3.727-4.365-5.271-8.1-5.271-8.1zM545.847 582.269l17.976-6.632v28.31s-4.031 2.529-8.989 4.358c-5.058 1.866-8.987 2.279-8.987 2.279v-28.315z" fill="#4508BD"/><path d="m545.847 582.269 17.976-6.632v28.31s-4.031 2.529-8.989 4.358c-5.058 1.866-8.987 2.279-8.987 2.279v-28.315z" fill="#310686"/><path d="M567.827 574.16 592 564.997l4 2-25 36-3.173-1.706V574.16z" fill="#4508BD"/><path d="M567.827 574.16 592 564.997l4 2-25 36-3.173-1.706V574.16z" fill="#A195E3"/><path d="m571 576.265 25.12-9.268s-1.914 6.534-5.518 12.859c-3.605 6.326-4.205 7.172-8.41 12.469S571 603.395 571 603.395v-27.13z" fill="#4508BD"/><path d="m571 576.265 25.12-9.268s-1.914 6.534-5.518 12.859c-3.605 6.326-4.205 7.172-8.41 12.469S571 603.395 571 603.395v-27.13z" fill="#4508BD"/><path d="M536.654 594.429v9.1l-.878.324v-8.268l-2.013.742v-.832l2.891-1.066zM558.464 594.256v.832l-5.988 2.209v-.663l3.549-5.014c.447-.633.748-1.147.902-1.542.163-.407.244-.784.244-1.13 0-.538-.175-.889-.524-1.055-.342-.177-.834-.147-1.476.09-1 .369-1.777.993-2.329 1.873l-.622-.342a5.655 5.655 0 0 1 1.268-1.43 6.218 6.218 0 0 1 1.756-.986c.87-.321 1.557-.354 2.061-.098.513.245.769.748.769 1.511 0 .468-.098.954-.293 1.46-.195.505-.565 1.14-1.11 1.904l-2.903 4.113 4.696-1.732zM579.77 582.22c.895-.278 1.573-.268 2.037.029.472.285.707.801.707 1.546 0 .52-.118 1.027-.353 1.521a4.246 4.246 0 0 1-1.049 1.336c-.464.405-1.029.731-1.696.977-.618.228-1.203.34-1.756.336-.545-.016-.984-.14-1.317-.372l.427-.899c.284.207.662.323 1.134.349.472.016.976-.074 1.512-.272.7-.258 1.24-.618 1.623-1.08.382-.47.573-.991.573-1.563 0-.564-.191-.935-.573-1.115-.383-.179-.96-.127-1.732.158l-.61.225v-.689l2.366-4.032-4.366 1.611v-.832l5.488-2.025v.663l-2.415 4.128z" fill="#fff"/><path d="m513.16 571.719 28.5-10.514 3.84 1.792-3.84 16.295L517 591.497l-3.528-1.806s-1.119-4.609-1.119-8.766c0-4.437.807-9.206.807-9.206z" fill="#4508BD"/><path d="m513.16 571.719 28.5-10.514 3.84 1.792-3.84 16.295L517 591.497l-3.528-1.806s-1.119-4.609-1.119-8.766c0-4.437.807-9.206.807-9.206z" fill="#A195E3"/><path d="m516.806 573.512 28.501-10.515v18.087l-28.188 10.399S516 586.874 516 582.717c0-4.437.806-9.205.806-9.205z" fill="#4508BD"/><path d="m516.806 573.512 28.501-10.515v18.087l-28.188 10.399S516 586.874 516 582.717c0-4.437.806-9.205.806-9.205z" fill="#4508BD"/><path d="m533.311 577.161-1.707.63v2.392l-.878.324v-2.392l-4.818 1.777v-.676l4.525-7.701.976-.36-4.367 7.487 3.708-1.368v-2.106l.854-.315v2.106l1.707-.63v.832zM557.112 565.398c1.236-.456 2.134-.549 2.695-.279.569.258.854.811.854 1.661 0 .528-.118 1.044-.354 1.547a4.14 4.14 0 0 1-1.036 1.371c-.464.405-1.033.732-1.708.98-.61.225-1.191.336-1.744.332-.545-.016-.984-.14-1.317-.372l.427-.899c.284.207.658.325 1.122.353.463.02.963-.069 1.5-.267.707-.261 1.252-.631 1.634-1.11.39-.482.586-1.005.586-1.568 0-.624-.22-1.015-.659-1.174-.431-.162-1.163-.052-2.195.329l-1.818.67.439-4.725 4.672-1.723v.832l-3.903 1.44-.293 3.007 1.098-.405z" fill="#fff"/><path d="m567.827 551.552 26.392-9.737 3.281 1.682-3.363 16.435L571 570.997l-3.173-1.588v-17.857z" fill="#4508BD"/><path d="m567.827 551.552 26.392-9.737 3.281 1.682-3.363 16.435L571 570.997l-3.173-1.588v-17.857z" fill="#A195E3"/><path d="M581.418 553.221c.561-.207 1.057-.277 1.488-.211.439.063.78.258 1.024.584.244.318.366.749.366 1.295 0 .555-.126 1.091-.378 1.609a4.442 4.442 0 0 1-1.049 1.375 4.68 4.68 0 0 1-1.488.887c-1.13.417-1.996.342-2.598-.225-.602-.575-.902-1.587-.902-3.034 0-1.014.162-1.932.487-2.754a5.932 5.932 0 0 1 1.366-2.09 5.67 5.67 0 0 1 2.049-1.302c.846-.312 1.521-.396 2.025-.253l-.354.885c-.406-.136-.959-.075-1.658.183a4.349 4.349 0 0 0-2.22 1.781c-.537.83-.805 1.852-.805 3.065 0 .217.012.46.036.728a3.966 3.966 0 0 1 1.013-1.517 4.515 4.515 0 0 1 1.598-1.006zm-.074 4.759a3.29 3.29 0 0 0 1.501-1.086c.39-.508.585-1.061.585-1.659 0-.598-.195-1.003-.585-1.214-.383-.215-.903-.2-1.562.043a3.548 3.548 0 0 0-1.146.683 3.384 3.384 0 0 0-.768.998 2.47 2.47 0 0 0-.281 1.117c0 .347.085.636.256.868.179.229.439.371.781.427.341.056.748-.003 1.219-.177z" fill="#fff"/><path d="m571 553.037 26.186-9.661s.814 3.659.814 8.41-.896 9.707-.896 9.707L571 571.124v-18.087z" fill="#4508BD"/><path d="m571 553.037 26.186-9.661s.814 3.659.814 8.41-.896 9.707-.896 9.707L571 571.124v-18.087z" fill="#4508BD"/><path d="M584.591 554.706c.561-.207 1.057-.277 1.488-.211.439.064.78.259 1.024.585.244.317.366.749.366 1.295 0 .554-.126 1.09-.378 1.608a4.43 4.43 0 0 1-1.049 1.375 4.68 4.68 0 0 1-1.488.887c-1.13.417-1.996.342-2.598-.225-.601-.575-.902-1.586-.902-3.034 0-1.014.163-1.932.488-2.754a5.914 5.914 0 0 1 1.366-2.09 5.654 5.654 0 0 1 2.049-1.302c.845-.312 1.52-.396 2.024-.252l-.353.884c-.407-.136-.96-.075-1.659.183a4.358 4.358 0 0 0-2.22 1.781c-.536.83-.805 1.852-.805 3.066 0 .216.012.459.037.727a3.97 3.97 0 0 1 1.012-1.517 4.538 4.538 0 0 1 1.598-1.006zm-.073 4.759a3.282 3.282 0 0 0 1.5-1.086c.39-.508.585-1.061.585-1.659 0-.598-.195-1.003-.585-1.214-.382-.214-.903-.2-1.561.043a3.581 3.581 0 0 0-1.147.683 3.384 3.384 0 0 0-.768.998 2.474 2.474 0 0 0-.281 1.118c0 .346.086.636.256.867.179.229.44.371.781.427.342.056.748-.003 1.22-.177z" fill="#fff"/><path d="M536.097 531.989c2.098-1.958 5.563-4.697 5.563-4.697l3.34 1.705-3.34 27.686L518 568.497l-3.553-1.774s1.601-4.906 2.962-8.006c1.124-2.56 1.93-3.957 3.222-6.478.987-1.926 8.288-13.549 15.466-20.25z" fill="#4508BD"/><path d="M536.097 531.989c2.098-1.958 5.563-4.697 5.563-4.697l3.34 1.705-3.34 27.686L518 568.497l-3.553-1.774s1.601-4.906 2.962-8.006c1.124-2.56 1.93-3.957 3.222-6.478.987-1.926 8.288-13.549 15.466-20.25z" fill="#A195E3"/><path d="M539.651 533.694c2.097-1.958 5.562-4.697 5.562-4.697v29.392L518 568.428s1.601-4.906 2.962-8.006c1.124-2.56 1.931-3.957 3.222-6.477.988-1.927 8.288-13.55 15.467-20.251z" fill="#4508BD"/><path d="M539.651 533.694c2.097-1.958 5.562-4.697 5.562-4.697v29.392L518 568.428s1.601-4.906 2.962-8.006c1.124-2.56 1.931-3.957 3.222-6.477.988-1.927 8.288-13.55 15.467-20.251z" fill="#4508BD"/><path d="M537.266 544.765v.663l-3.574 9.755-.951.351 3.513-9.564-4.391 1.62v1.703l-.866.319v-2.535l6.269-2.312z" fill="#fff"/><path d="M545.847 524.548s3.994-2.509 8.724-4.28c4.504-1.686 9.069-2.199 9.069-2.199l2.86 1.428-2.86 29.077-14.64 8.423-3.153-1.858v-30.591z" fill="#4508BD"/><path d="M545.847 524.548s3.994-2.509 8.724-4.28c4.504-1.686 9.069-2.199 9.069-2.199l2.86 1.428-2.86 29.077-14.64 8.423-3.153-1.858v-30.591z" fill="#A195E3"/><path d="M549 525.991s3.995-2.53 8.724-4.301c4.505-1.687 9.069-2.175 9.069-2.175v31.134L549 557.214v-31.223z" fill="#4508BD"/><path d="M549 525.991s3.995-2.53 8.724-4.301c4.505-1.687 9.069-2.175 9.069-2.175v31.134L549 557.214v-31.223z" fill="#4508BD"/><path d="M558.712 537.382c.536-.008.947.127 1.231.403.293.274.439.679.439 1.216a3.21 3.21 0 0 1-.402 1.54c-.268.489-.655.934-1.159 1.337a6.376 6.376 0 0 1-1.756.96c-1.024.378-1.829.441-2.415.189-.585-.252-.878-.781-.878-1.587 0-.546.138-1.056.415-1.531.284-.486.695-.924 1.231-1.312-.439-.021-.772-.158-1-.412-.227-.262-.341-.628-.341-1.096 0-.736.268-1.42.805-2.052.545-.634 1.272-1.119 2.183-1.455.602-.222 1.126-.316 1.573-.281.456.022.809.169 1.061.44.253.271.379.649.379 1.135 0 .468-.118.919-.354 1.352-.236.425-.573.81-1.012 1.154zm-3.757-.591c0 .503.187.833.561.99.374.156.89.113 1.549-.13.659-.243 1.175-.581 1.549-1.013.382-.436.573-.901.573-1.395 0-.511-.195-.842-.585-.993-.382-.154-.895-.112-1.537.125-.65.24-1.167.578-1.549 1.014-.374.432-.561.9-.561 1.402zm2.11 5.254c.756-.279 1.346-.661 1.768-1.146.431-.489.647-1.015.647-1.578 0-.563-.216-.926-.647-1.087-.422-.174-1.012-.121-1.768.158-.748.276-1.338.658-1.768 1.147-.423.476-.635.996-.635 1.559 0 .572.212.945.635 1.119.422.164 1.012.107 1.768-.172z" fill="#fff"/><path d="M567.827 517.997s5.529.467 8.702 1.784c6.175 2.563 9.35 5.086 13.085 10.998 1.567 2.48 3.333 6.984 3.333 6.984L571 549.497l-3.173-1.82v-29.68z" fill="#4508BD"/><path d="M567.827 517.997s5.529.467 8.702 1.784c6.175 2.563 9.35 5.086 13.085 10.998 1.567 2.48 3.333 6.984 3.333 6.984L571 549.497l-3.173-1.82v-29.68z" fill="#A195E3"/><path d="M571 519.281s5.529.921 8.703 2.322c6.174 2.724 9.35 5.371 13.085 11.527 1.567 2.582 3.332 7.258 3.332 7.258L571 549.656v-30.375z" fill="#4508BD"/><path d="M571 519.281s5.529.921 8.703 2.322c6.174 2.724 9.35 5.371 13.085 11.527 1.567 2.582 3.332 7.258 3.332 7.258L571 549.656v-30.375z" fill="#4508BD"/><path d="M580.526 529.245c1.13-.417 1.996-.338 2.598.238.602.566.903 1.573.903 3.021 0 1.014-.163 1.932-.488 2.754a6.07 6.07 0 0 1-1.366 2.103 5.762 5.762 0 0 1-2.049 1.289c-.846.312-1.521.396-2.025.252l.354-.884c.406.136.959.075 1.659-.183a4.368 4.368 0 0 0 2.219-1.768c.537-.839.805-1.865.805-3.079 0-.225-.012-.468-.036-.727a4.08 4.08 0 0 1-1.013 1.53c-.463.44-.996.771-1.597.993-.561.207-1.061.278-1.501.215-.43-.066-.768-.258-1.012-.576-.244-.326-.366-.762-.366-1.308 0-.554.126-1.09.378-1.608s.598-.97 1.037-1.357a4.655 4.655 0 0 1 1.5-.905zm.098 4.696a3.466 3.466 0 0 0 1.134-.678 3.37 3.37 0 0 0 .781-1.003c.187-.373.28-.745.28-1.118 0-.347-.089-.634-.268-.863-.171-.232-.427-.375-.769-.431-.341-.056-.748.003-1.219.177a3.316 3.316 0 0 0-1.513 1.104 2.628 2.628 0 0 0-.573 1.641c0 .598.191 1.004.573 1.219.391.211.915.195 1.574-.048z" fill="#fff"/><circle r="15.5" transform="matrix(.9382 -.34612 0 1 238.721 394.071)" fill="#A095E3"/><ellipse rx="12.162" ry="13.24" transform="matrix(.9382 -.34612 0 1 235.589 392.966)" fill="#310686"/><circle r="15.5" transform="matrix(.9382 -.34612 0 1 724.542 216.862)" fill="#A095E3"/><ellipse rx="12.162" ry="13.24" transform="matrix(.9382 -.34612 0 1 721.411 215.757)" fill="#310686"/><circle r="15.5" transform="matrix(.9382 -.34612 0 1 724.542 754.862)" fill="#A095E3"/><ellipse rx="12.162" ry="13.24" transform="matrix(.9382 -.34612 0 1 721.411 753.757)" fill="#310686"/><circle r="15.5" transform="matrix(.9382 -.34612 0 1 238.542 931.862)" fill="#A095E3"/><ellipse rx="12.162" ry="13.24" transform="matrix(.9382 -.34612 0 1 235.411 930.757)" fill="#310686"/><path transform="matrix(0 1 -.9382 .34612 323.988 311.025)" stroke="#89C5CC" stroke-width="5" d="M0-2.5h350"/><path d="m307.57 289.082 5.629-2.077 15.48 22.288-4.691 1.73-16.418-21.941z" fill="#89C5CC"/><path d="m307.57 289.082 5.629-2.077-9.199-5.508-6 2 9.57 5.585z" fill="#89C5CC"/><path transform="matrix(0 1 -.9382 .34612 411.817 278.712)" stroke="#89C5CC" stroke-width="5" d="M0-2.5h199"/><path d="m394.93 256.853 5.629-2.077 13.604 19.071 2.345 3.135-4.691 2.23-16.887-22.359z" fill="#89C5CC"/><path d="m394.93 256.853 5.629-2.077L390 249.497l-5 2 9.93 5.356z" fill="#89C5CC"/><circle r="5" transform="matrix(.9382 -.34612 0 1 326.442 652.209)" fill="#3E98A3"/><path fill-rule="evenodd" clip-rule="evenodd" d="M360.595 641.794c.849-1.843 2.081-3.575 3.769-4.679 4.863-3.181 6.093 3.794 4.139 6.764-1.954 2.971-8.085 7.3-9.086 6.055-.398-.497-.466-2.13-.094-4.116l-6.07 5.541-1.833-5 9.175-4.565z" fill="#915B3C"/><path fill-rule="evenodd" clip-rule="evenodd" d="M360.43 641.369c.975-2.12 2.393-4.111 4.334-5.381 5.592-3.658 7.007 4.363 4.76 7.779-2.247 3.416-9.299 8.395-10.449 6.963-.459-.571-.536-2.449-.109-4.733l1.464-4.628z" fill="#191847"/><ellipse rx="1" ry=".5" transform="matrix(.446 .71524 -.8254 .7799 366.007 641.951)" fill="#915B3C"/><ellipse rx="1.789" ry=".528" transform="matrix(.25646 .8673 -.90246 .6063 361.514 646.363)" fill="#915B3C"/><ellipse rx="1" ry=".5" transform="matrix(-.02029 1.00725 -.93797 .3244 366.632 644.634)" fill="#915B3C"/><path fill-rule="evenodd" clip-rule="evenodd" d="m329.342 656.391-23.449 31.369-18.695 21.582 1.833 3.315 46.024-45.935-5.713-10.331z" fill="#BA8B72"/><path fill-rule="evenodd" clip-rule="evenodd" d="M327.597 653.236c-13.928 13.138-21.78 19.843-23.13 20.882-1.351 1.04-10.335 8.113-27.805 17.342l1.907 3.448c17.615-7.305 27.34-13.04 29.601-14.093 2.262-1.052 11.059-6.048 26.179-15.369l-6.752-12.21z" fill="#D4A181"/><path fill-rule="evenodd" clip-rule="evenodd" d="M329.259 656.241c-8.395 10.204-21.661 26.736-39.798 49.596l2.681 4.848c21.363-18.495 34.451-32.427 42.936-43.922l-5.819-10.522z" fill="#080651"/><path fill-rule="evenodd" clip-rule="evenodd" d="M327.583 653.211c-13.933 13.128-28.61 24.345-47.813 35.7l2.861 5.173c17.405-7.102 33.556-15.467 52.129-27.896l-7.177-12.977z" fill="#100E68"/><path fill-rule="evenodd" clip-rule="evenodd" d="m273.576 693.476 3.569-2.895c.248 1.441 1.164 2.708 2.748 3.799-.445 3.087-.175 6.234.81 9.439.075.244-.071.584-.326.759l-.051.031-1.193.67-3.787-6.848-2.21-3.995.44-.96zM283.54 711.495l3.57-2.896c.248 1.442 1.164 2.709 2.748 3.8-.446 3.087-.176 6.233.81 9.439.075.244-.071.584-.326.758a.713.713 0 0 1-.051.032l-1.193.67-3.787-6.849-2.21-3.995.439-.959z" fill="#4508BD"/><path fill-rule="evenodd" clip-rule="evenodd" d="m349.099 659.264 6.723 4.737c1.973.209 3.586.639 4.839 1.29.28.269.58.866-.758 1.023-1.338.156-2.76.39-3.019.946-.26.557.473 1.013-.002 1.789-.317.518-1.344-.413-3.079-2.792l-7.035-1.988 2.331-5.005zm-.084 14.596 2.959 2.077c2.028-.8 3.148-.873 3.358-.22.399.342-2.249 1.068-1.753 1.892.496.823 3.024 1.941 2.776 2.596-.367.97-2.208 1.572-3.233 1.508-1.916-.12-2.743-.733-4.167-2.667-.744-1.012-1.886-1.877-3.426-2.596l3.486-2.59z" fill="#D4A181"/><path fill-rule="evenodd" clip-rule="evenodd" d="M348.951 654.844c.842 2.682 2.52 5.883 6.219 8.008l-3.056 3.883c-3.54-.797-6.914-3.002-7.799-6.327-.697-2.62 2.148-6.125 4.636-5.564z" fill="#2026A2"/><path fill-rule="evenodd" clip-rule="evenodd" d="M344.417 662.289c.116 3.373 2.441 7.589 6.975 12.648-3.108 4.117-5.45 6.633-7.026 7.547-4.895-3.661-7.793-7.675-9.115-11.702-2.491 1.84-4.986 3.173-7.484 3.668-5.135 1.017-4.538-13.762-6.569-17.221 7.758-8.274 12.68-5.75 18.129-9.43 5.968-4.031 16.532-5.645 16.735-4.969l1.854 6.168c-4.454 3.421-8.961 8.53-13.499 13.291z" fill="#1119A7"/><path transform="matrix(.22754 .8862 -.91018 .57832 325.504 652.555)" stroke="#3E98A3" stroke-width="2" d="M0-1h24.739"/><circle r="2.5" transform="matrix(.9382 -.34612 0 1 331.618 672.996)" fill="#23727B"/><path fill-rule="evenodd" clip-rule="evenodd" d="M464.751 430.732c-1.331-.578-2.384-1.638-2.644-3.383-.75-5.03 6.313-8.109 8.192-6.481 1.879 1.628 3.121 7.895 1.505 9.37-.645.589-2.198 1.048-3.881 1.069l2.401 5.912-5.497 3.335-.076-9.822z" fill="#915B3C"/><path fill-rule="evenodd" clip-rule="evenodd" d="M464.28 431.027c-1.532-.665-2.743-1.883-3.042-3.891-.862-5.783 7.261-9.324 9.421-7.452 2.161 1.871 3.59 9.079 1.731 10.776-.741.676-2.528 1.205-4.463 1.228l-3.647-.661z" fill="#191847"/><ellipse rx="1" ry=".5" transform="matrix(.87006 -.6951 .351 .79788 467.365 424.276)" fill="#915B3C"/><ellipse rx="1.789" ry=".528" transform="matrix(.92546 -.50561 .15404 .9296 469.43 428.581)" fill="#915B3C"/><ellipse rx="1" ry=".5" transform="matrix(.92983 -.20986 -.12495 1.03719 470.15 422.912)" fill="#915B3C"/><path fill-rule="evenodd" clip-rule="evenodd" d="m466.715 458.986 8.595 28.399 4.043 22.212 4.058-1.497-4.05-53.779-12.646 4.665z" fill="#784931"/><path fill-rule="evenodd" clip-rule="evenodd" d="M462.852 460.411c.6 16.18.363 25.212.229 26.752-.134 1.539-.896 11.8-6.089 31.184l4.22-1.557c6.877-19.295 9.278-30.16 10.067-32.652.789-2.491 3.118-12.296 6.519-29.241l-14.946 5.514z" fill="#915B3C"/><path fill-rule="evenodd" clip-rule="evenodd" d="M466.531 459.054c2.235 10.039 6.102 25.953 11.6 47.743l5.935-2.19c.439-24.609-1.426-40.011-4.655-50.305l-12.88 4.752z" fill="#080651"/><path fill-rule="evenodd" clip-rule="evenodd" d="M462.822 460.422c.587 16.184-.935 32.904-5.65 54.363l6.332-2.337c6.89-19.049 11.828-36.949 15.203-57.886l-15.885 5.86z" fill="#100E68"/><path fill-rule="evenodd" clip-rule="evenodd" d="m456.39 521.82.233-4.087c1.364-.078 3.071-.875 5.123-2.391 2.207.852 4.984.965 8.333.339.256-.048.427.147.384.436a1.377 1.377 0 0 1-.011.056l-.322 1.329-8.384 3.093-4.89 1.804-.466-.579zM478.448 513.683l.232-4.088c1.364-.077 3.072-.874 5.124-2.39 2.206.852 4.984.965 8.332.339.256-.048.428.147.384.435l-.011.057-.322 1.329-8.383 3.092-4.891 1.805-.465-.579z" fill="#191847"/><path fill-rule="evenodd" clip-rule="evenodd" d="m486.092 446.159 8.326 1.313c2.094-.573 3.883-.832 5.366-.775.368.112.854.484-.478 1.115-1.332.631-2.727 1.356-2.829 1.905-.103.55.787.643.527 1.453-.173.539-1.506.17-3.998-1.107l-7.833 1.035.919-4.939zm-28.268 15.948 4.832-2.671c-1.284 11.294-1.993 17.302-2.127 18.024-.301 1.624 1.186 3.014 1.861 3.83-1.451 1.583-1.744-1.124-3.569.909-1.666 1.855-2.776 4.155-5.101 4.028-.286-.016-.674-.458-.074-1.307 1.495-2.113 3.585-5.52 3.798-6.376.29-1.168.416-6.647.38-16.437z" fill="#915B3C"/><path fill-rule="evenodd" clip-rule="evenodd" d="m467.974 434.184 1.938-1.455c8.543 2.281 13.758 12.899 23.995 14.362l-1.709 3.932c-16.11 6.825-22.664-6.019-24.224-16.839z" fill="#242DD1"/><path fill-rule="evenodd" clip-rule="evenodd" d="m463.691 464.167 17.681-9.845c.808-.45.45-1.533.229-2.057-2.545-6.049-9.098-10.449-10.804-20.128l-5.241 2.04c-3.022 9.139-3.008 18.311-1.865 29.99z" fill="#6468B1"/><path fill-rule="evenodd" clip-rule="evenodd" d="M460.364 444.397c-.778.199-1.452.029-2.022-.511-2.457-2.328-2.111-4.557-.226-6.275 1.885-1.719 3.882-1.453 7.056-3.22.173-.097.333-.174.48-.232l1.613-.798c7.318 12.987 10.407 22.649 9.269 28.988l-13.916 7.75c-.486 2.383-.99 4.441-1.512 6.174l-3.791 2.112c-2.392-11.35-1.375-22.679 3.049-33.988z" fill="#1119A7"/><path fill-rule="evenodd" clip-rule="evenodd" d="M464.242 460.431c1.084 3.421 2.264 5.685 3.54 6.792l-5.164 2.875c.566-2.78 1.108-6.002 1.624-9.667z" fill="#000" fill-opacity=".1"/><path d="M415.624 475.663c11.254-2.709 15.116-4.389 20.405 8.133M393.053 499.636c4.691-12.73 5.629-17.077 20.172-23.443" stroke="#3E98A3" stroke-width="2"/><g filter="url(#d)"><circle r="5.5" transform="matrix(.9382 -.34612 0 1 414.163 476.347)" fill="#3E98A3"/></g><circle r="2.5" transform="matrix(.9382 -.34612 0 1 393.522 499.962)" fill="#23727B"/><circle r="2.5" transform="matrix(.9382 -.34612 0 1 435.741 484.386)" fill="#23727B"/><path d="M574 163.869c0-2.861 2.237-5.967 4.918-6.823C590.33 153.402 619.074 144.11 638 137c16.442-6.177 37.894-14.678 46.348-18.044 2.353-.936 4.639-.908 6.417.08L697 122.5l-3.6 5.637c-.765 1.198-1.188 2.538-1.188 3.764v3.376c0 2.65-1.939 5.555-4.421 6.623l-102.588 44.149c-1.395.601-2.754.52-3.706-.22l-6.242-4.856c-.807-.627-1.255-1.678-1.255-2.941v-14.163z" fill="#6455C1"/><path d="M580.692 168.944c0-2.961 2.386-6.159 5.151-6.901 12.043-3.235 42.435-11.599 61.157-18.543 16.589-6.153 37.03-16.168 46.552-20.967 2.833-1.427 5.352-.008 5.352 3.036v14.232c0 2.761-2.1 5.774-4.691 6.73l-108.83 40.15c-2.591.955-4.691-.508-4.691-3.27v-14.467z" fill="#191847"/><g filter="url(#e)"><path d="M680 124.5s-5.036 7.089-40 19c-20.682 7.045-48.5 12.498-48.5 12.498 0-38.936 18.162-82.974 44.329-92.627C661.995 53.717 680 85.564 680 124.5z" fill="url(#f)"/></g><defs><filter id="a" x="80" y="55.788" width="772.737" height="1030.66" filterUnits="userSpaceOnUse" color-interpolation-filters="sRGB"><feFlood flood-opacity="0" result="BackgroundImageFix"/><feColorMatrix in="SourceAlpha" values="0 0 0 0 0 0 0 0 0 0 0 0 0 0 0 0 0 0 127 0"/><feOffset/><feGaussianBlur stdDeviation="30"/><feColorMatrix values="0 0 0 0 0 0 0 0 0 0 0 0 0 0 0 0 0 0 0.25 0"/><feBlend in2="BackgroundImageFix" result="effect1_dropShadow"/><feBlend in="SourceGraphic" in2="effect1_dropShadow" result="shape"/></filter><filter id="b" x="135.269" y="114.755" width="687.257" height="929.42" filterUnits="userSpaceOnUse" color-interpolation-filters="sRGB"><feFlood flood-opacity="0" result="BackgroundImageFix"/><feColorMatrix in="SourceAlpha" values="0 0 0 0 0 0 0 0 0 0 0 0 0 0 0 0 0 0 127 0"/><feMorphology radius="2" operator="dilate" in="SourceAlpha" result="effect1_dropShadow"/><feOffset dy="4"/><feGaussianBlur stdDeviation="20"/><feColorMatrix values="0 0 0 0 0 0 0 0 0 0 0 0 0 0 0 0 0 0 0.25 0"/><feBlend in2="BackgroundImageFix" result="effect1_dropShadow"/><feBlend in="SourceGraphic" in2="effect1_dropShadow" result="shape"/></filter><filter id="c" x="239" y="325.609" width="480.652" height="519.72" filterUnits="userSpaceOnUse" color-interpolation-filters="sRGB"><feFlood flood-opacity="0" result="BackgroundImageFix"/><feBlend in="SourceGraphic" in2="BackgroundImageFix" result="shape"/><feColorMatrix in="SourceAlpha" values="0 0 0 0 0 0 0 0 0 0 0 0 0 0 0 0 0 0 127 0" result="hardAlpha"/><feOffset dx="20"/><feGaussianBlur stdDeviation="5"/><feComposite in2="hardAlpha" operator="arithmetic" k2="-1" k3="1"/><feColorMatrix values="0 0 0 0 0 0 0 0 0 0 0 0 0 0 0 0 0 0 0.25 0"/><feBlend in2="shape" result="effect1_innerShadow"/><feColorMatrix in="SourceAlpha" values="0 0 0 0 0 0 0 0 0 0 0 0 0 0 0 0 0 0 127 0" result="hardAlpha"/><feOffset dx="-10"/><feGaussianBlur stdDeviation="15"/><feComposite in2="hardAlpha" operator="arithmetic" k2="-1" k3="1"/><feColorMatrix values="0 0 0 0 1 0 0 0 0 1 0 0 0 0 1 0 0 0 0.6 0"/><feBlend in2="effect1_innerShadow" result="effect2_innerShadow"/></filter><filter id="d" x="407.003" y="468.525" width="14.32" height="13.643" filterUnits="userSpaceOnUse" color-interpolation-filters="sRGB"><feFlood flood-opacity="0" result="BackgroundImageFix"/><feBlend in="SourceGraphic" in2="BackgroundImageFix" result="shape"/><feColorMatrix in="SourceAlpha" values="0 0 0 0 0 0 0 0 0 0 0 0 0 0 0 0 0 0 127 0" result="hardAlpha"/><feOffset dx="2" dy="-2"/><feGaussianBlur stdDeviation="2"/><feComposite in2="hardAlpha" operator="arithmetic" k2="-1" k3="1"/><feColorMatrix values="0 0 0 0 0 0 0 0 0 0 0 0 0 0 0 0 0 0 0.35 0"/><feBlend in2="shape" result="effect1_innerShadow"/><feColorMatrix in="SourceAlpha" values="0 0 0 0 0 0 0 0 0 0 0 0 0 0 0 0 0 0 127 0" result="hardAlpha"/><feOffset dx="-2" dy="-2"/><feGaussianBlur stdDeviation="2"/><feComposite in2="hardAlpha" operator="arithmetic" k2="-1" k3="1"/><feColorMatrix values="0 0 0 0 1 0 0 0 0 1 0 0 0 0 1 0 0 0 0.35 0"/><feBlend in2="effect1_innerShadow" result="effect2_innerShadow"/></filter><filter id="e" x="591.5" y="61.628" width="91.5" height="96.37" filterUnits="userSpaceOnUse" color-interpolation-filters="sRGB"><feFlood flood-opacity="0" result="BackgroundImageFix"/><feBlend in="SourceGraphic" in2="BackgroundImageFix" result="shape"/><feColorMatrix in="SourceAlpha" values="0 0 0 0 0 0 0 0 0 0 0 0 0 0 0 0 0 0 127 0" result="hardAlpha"/><feOffset dx="3" dy="2"/><feGaussianBlur stdDeviation="3.5"/><feComposite in2="hardAlpha" operator="arithmetic" k2="-1" k3="1"/><feColorMatrix values="0 0 0 0 0.779167 0 0 0 0 0.70125 0 0 0 0 0.70125 0 0 0 0.45 0"/><feBlend in2="shape" result="effect1_innerShadow"/></filter><linearGradient id="f" x1="564.526" y1="80.675" x2="652.545" y2="121.199" gradientUnits="userSpaceOnUse"><stop stop-color="#ED0000"/><stop offset="1" stop-color="#EA6D38"/></linearGradient></defs></svg>