<?xml version="1.0" encoding="UTF-8" standalone="no"?>
<svg
   width="883"
   height="874"
   viewBox="0 0 883 874"
   fill="none"
   xmlns="http://www.w3.org/2000/svg">
  <g
     id="svg-sluzby-grafika-bg-shape">
    <path
       d="M813 569.524C813 746.851 683.559 801.912 592.463 814.661C472.537 831.445 259.825 748.233 177.058 714.656C149.292 703.392 0 644.353 0 516.339C0 329.323 191.974 484.22 216.594 346.237C283.921 26.3182 813 382.508 813 569.524Z"
       fill="#4508BD"
       id="path1429" />
    <path
       d="M764 572.081C764 727.501 650.162 775.76 570.047 786.934C464.576 801.645 277.505 728.713 204.715 699.283C180.296 689.411 49 637.666 49 525.466C49 361.555 217.833 497.315 239.486 376.379C298.697 95.9825 764 408.169 764 572.081Z"
       fill="#5C09FF"
       id="path1431" />
  </g>

  <g
     id="svg-sluzby-grafika-na-miru-blueprint">
    <g
       id="g1439">
      <path
         d="M118 374.304C118 368.722 122.288 362.638 127.525 360.791L250.69 317.361C252.523 316.715 254.307 316.658 255.823 317.198L284.881 327.548C287.986 328.653 289.532 332.09 288.812 336.284L258.158 514.742C257.452 518.848 254.704 522.915 251.127 525.144L162.578 580.329C159.983 581.946 157.247 582.406 155.054 581.594L122.034 569.365C119.507 568.429 118 565.915 118 562.636V374.304Z"
         fill="#A094E3"
         id="path1437" />
    </g>
    <rect
       width="148.157"
       height="208.614"
       rx="10"
       transform="matrix(0.938191 -0.346117 0 1 153 376.917)"
       fill="white"
       id="rect1441" />
    <g
       id="g1717">
      <rect
         width="134.301"
         height="87.2036"
         transform="matrix(0.938191 -0.346117 0 1 160 388.354)"
         fill="#2B09FF"
         id="rect1443" />
      <g
         id="g1659">
        <rect
           x="0.469096"
           y="0.326941"
           width="40.0262"
           height="61.5511"
           rx="7.5"
           transform="matrix(0.938191 -0.346117 0 1 168.831 405.138)"
           stroke="white"
           id="rect1449" />
        <rect
           x="1.68288"
           y="1.1729"
           width="37.4387"
           height="3.58749"
           transform="matrix(0.938191 -0.346117 0 1 168.906 453.944)"
           stroke="white"
           stroke-width="3.58749"
           id="rect1455" />
        <rect
           x="1.68288"
           y="1.1729"
           width="37.4387"
           height="3.58749"
           transform="matrix(0.938191 -0.346117 0 1 168.906 440.146)"
           stroke="white"
           stroke-width="3.58749"
           id="rect1461" />
        <rect
           x="1.68288"
           y="1.1729"
           width="37.4387"
           height="3.58749"
           transform="matrix(0.938191 -0.346117 0 1 168.906 426.347)"
           stroke="white"
           stroke-width="3.58749"
           id="rect1467" />
        <rect
           x="1.68288"
           y="1.1729"
           width="37.4387"
           height="3.58749"
           transform="matrix(0.938191 -0.346117 0 1 168.906 412.55)"
           stroke="white"
           stroke-width="3.58749"
           id="rect1473" />
      </g>
      <g
         id="g1634">
        <rect
           x="0.469096"
           y="0.326941"
           width="114.352"
           height="5.80703"
           rx="2.90352"
           transform="matrix(0.938191 -0.346117 0 1 168.831 391.892)"
           stroke="white"
           id="rect1447" />
        <path
           d="M181.188 391.781C180.916 391.881 180.704 391.878 180.552 391.773C180.4 391.665 180.324 391.459 180.324 391.155V389.97L180.69 389.835V391.005C180.69 391.417 180.857 391.561 181.191 391.438C181.523 391.315 181.689 391.048 181.689 390.636V389.466L182.049 389.333V390.518C182.049 390.822 181.973 391.084 181.821 391.304C181.671 391.522 181.46 391.68 181.188 391.781ZM181.334 389.015L181.748 388.862L181.258 389.454L180.954 389.566L181.334 389.015ZM183.935 389.135L183.291 390.975L182.928 391.109L182.283 389.745L182.649 389.61L183.116 390.626L183.598 389.26L183.935 389.135ZM184.789 390.443C184.637 390.499 184.501 390.515 184.379 390.49C184.257 390.465 184.161 390.403 184.091 390.305C184.024 390.204 183.99 390.074 183.99 389.916C183.99 389.758 184.024 389.605 184.091 389.456C184.161 389.306 184.257 389.174 184.379 389.059C184.501 388.944 184.637 388.858 184.789 388.802C184.943 388.745 185.081 388.73 185.203 388.755C185.325 388.78 185.42 388.842 185.487 388.941C185.557 389.039 185.592 389.167 185.592 389.325C185.592 389.483 185.557 389.638 185.487 389.79C185.42 389.939 185.325 390.071 185.203 390.186C185.081 390.301 184.943 390.386 184.789 390.443ZM184.789 390.122C184.919 390.074 185.026 389.989 185.11 389.866C185.195 389.743 185.237 389.606 185.237 389.456C185.237 389.306 185.195 389.201 185.11 389.14C185.026 389.079 184.919 389.072 184.789 389.12C184.66 389.168 184.553 389.253 184.469 389.377C184.386 389.499 184.345 389.635 184.345 389.785C184.345 389.935 184.386 390.041 184.469 390.103C184.553 390.163 184.66 390.17 184.789 390.122ZM187.4 387.233V389.459L187.062 389.584V389.377C187.004 389.474 186.932 389.558 186.846 389.628C186.761 389.697 186.667 389.75 186.564 389.789C186.42 389.842 186.289 389.856 186.173 389.831C186.058 389.805 185.968 389.742 185.903 389.643C185.837 389.541 185.804 389.409 185.804 389.247C185.804 389.085 185.837 388.93 185.903 388.782C185.968 388.633 186.058 388.504 186.173 388.394C186.289 388.283 186.42 388.201 186.564 388.148C186.664 388.111 186.755 388.095 186.837 388.101C186.92 388.106 186.99 388.134 187.048 388.185V387.363L187.4 387.233ZM186.606 389.452C186.691 389.421 186.767 389.373 186.834 389.308C186.902 389.241 186.955 389.162 186.995 389.072C187.034 388.981 187.054 388.886 187.054 388.786C187.054 388.686 187.034 388.605 186.995 388.544C186.955 388.482 186.902 388.444 186.834 388.429C186.767 388.412 186.691 388.419 186.606 388.45C186.522 388.481 186.446 388.53 186.378 388.597C186.311 388.662 186.257 388.74 186.218 388.83C186.179 388.921 186.159 389.016 186.159 389.116C186.159 389.216 186.179 389.297 186.218 389.358C186.257 389.42 186.311 389.459 186.378 389.476C186.446 389.491 186.522 389.483 186.606 389.452Z"
           fill="white"
           id="path1501" />
        <path
           d="M196.922 385.879C196.721 385.953 196.54 385.974 196.379 385.942C196.217 385.907 196.091 385.825 195.999 385.695C195.907 385.563 195.861 385.395 195.861 385.191C195.861 384.987 195.907 384.786 195.999 384.588C196.091 384.388 196.217 384.212 196.379 384.061C196.54 383.907 196.721 383.793 196.922 383.719C197.123 383.645 197.304 383.625 197.465 383.66C197.626 383.692 197.753 383.773 197.845 383.904C197.937 384.034 197.983 384.202 197.983 384.408C197.983 384.614 197.937 384.816 197.845 385.014C197.753 385.211 197.626 385.387 197.465 385.541C197.304 385.692 197.123 385.805 196.922 385.879ZM196.922 385.537C197.053 385.489 197.171 385.414 197.276 385.313C197.382 385.211 197.464 385.092 197.524 384.958C197.584 384.822 197.614 384.684 197.614 384.544C197.614 384.404 197.584 384.289 197.524 384.199C197.464 384.107 197.382 384.05 197.276 384.026C197.171 384.001 197.053 384.013 196.922 384.061C196.79 384.11 196.672 384.185 196.567 384.288C196.462 384.389 196.38 384.507 196.32 384.643C196.259 384.777 196.229 384.915 196.229 385.055C196.229 385.195 196.259 385.31 196.32 385.402C196.38 385.492 196.462 385.55 196.567 385.575C196.672 385.598 196.79 385.586 196.922 385.537ZM199.968 383.105C200.157 383.036 200.309 383.038 200.424 383.114C200.538 383.19 200.595 383.344 200.595 383.576V384.494L200.243 384.624V383.754C200.243 383.614 200.213 383.52 200.151 383.473C200.089 383.424 200.001 383.42 199.886 383.463C199.757 383.51 199.654 383.59 199.579 383.702C199.504 383.811 199.467 383.944 199.467 384.1V384.91L199.115 385.04V383.438L199.45 383.314V383.521C199.508 383.426 199.581 383.343 199.669 383.272C199.758 383.202 199.857 383.146 199.968 383.105ZM201.616 382.497C201.837 382.416 202.006 382.41 202.122 382.482C202.241 382.55 202.3 382.698 202.3 382.926V383.865L201.968 383.988V383.793C201.924 383.879 201.863 383.955 201.782 384.023C201.703 384.088 201.607 384.142 201.495 384.183C201.382 384.225 201.284 384.241 201.199 384.232C201.115 384.221 201.049 384.188 201.002 384.134C200.957 384.076 200.935 384.002 200.935 383.91C200.935 383.766 200.984 383.632 201.084 383.51C201.185 383.384 201.344 383.282 201.56 383.202L201.948 383.059V383.035C201.948 382.923 201.916 382.849 201.852 382.812C201.79 382.775 201.697 382.779 201.574 382.825C201.489 382.856 201.406 382.901 201.323 382.959C201.242 383.017 201.174 383.081 201.118 383.152L200.98 382.93C201.059 382.837 201.153 382.753 201.264 382.678C201.375 382.603 201.492 382.543 201.616 382.497ZM201.568 383.883C201.656 383.851 201.734 383.801 201.802 383.734C201.871 383.664 201.92 383.584 201.948 383.494V383.308L201.585 383.442C201.382 383.517 201.281 383.625 201.281 383.767C201.281 383.835 201.306 383.88 201.357 383.901C201.408 383.922 201.478 383.916 201.568 383.883ZM201.79 381.821L202.204 381.668L201.714 382.26L201.41 382.372L201.79 381.821ZM203.216 383.548C203.094 383.593 202.975 383.62 202.858 383.629C202.742 383.638 202.649 383.629 202.58 383.603L202.715 383.268C202.782 383.291 202.863 383.3 202.957 383.296C203.052 383.288 203.146 383.268 203.238 383.234C203.448 383.156 203.553 383.059 203.553 382.941C203.553 382.885 203.526 382.856 203.472 382.854C203.419 382.851 203.334 382.862 203.216 382.885C203.092 382.911 202.99 382.925 202.912 382.928C202.835 382.931 202.767 382.911 202.709 382.868C202.653 382.823 202.625 382.742 202.625 382.626C202.625 382.474 202.684 382.331 202.802 382.198C202.922 382.062 203.083 381.956 203.286 381.881C203.389 381.843 203.492 381.818 203.596 381.806C203.699 381.792 203.783 381.794 203.849 381.812L203.714 382.146C203.586 382.113 203.443 382.126 203.283 382.185C203.18 382.223 203.101 382.269 203.047 382.323C202.994 382.375 202.968 382.428 202.968 382.482C202.968 382.542 202.996 382.574 203.052 382.579C203.111 382.582 203.2 382.572 203.32 382.55C203.44 382.525 203.538 382.512 203.615 382.51C203.692 382.507 203.758 382.527 203.812 382.569C203.869 382.61 203.897 382.688 203.897 382.802C203.897 382.952 203.836 383.094 203.714 383.229C203.592 383.364 203.426 383.471 203.216 383.548Z"
           fill="white"
           id="path1503" />
        <path
           d="M211.972 380.23C211.82 380.286 211.673 380.317 211.53 380.324C211.389 380.33 211.278 380.31 211.195 380.264L211.322 379.914C211.402 379.953 211.501 379.972 211.617 379.973C211.735 379.972 211.854 379.949 211.972 379.906C212.118 379.852 212.227 379.786 212.298 379.71C212.371 379.633 212.408 379.554 212.408 379.472C212.408 379.412 212.387 379.37 212.346 379.347C212.307 379.322 212.256 379.31 212.194 379.311C212.132 379.311 212.048 379.318 211.941 379.329C211.791 379.346 211.669 379.353 211.575 379.35C211.483 379.346 211.403 379.316 211.336 379.261C211.27 379.203 211.237 379.106 211.237 378.968C211.237 378.852 211.266 378.736 211.324 378.62C211.384 378.502 211.474 378.393 211.592 378.294C211.712 378.193 211.858 378.111 212.031 378.048C212.151 378.003 212.269 377.976 212.386 377.965C212.502 377.954 212.602 377.963 212.687 377.992L212.571 378.337C212.485 378.315 212.395 378.307 212.301 378.314C212.207 378.321 212.116 378.34 212.028 378.373C211.884 378.426 211.776 378.492 211.704 378.57C211.635 378.648 211.6 378.73 211.6 378.816C211.6 378.876 211.62 378.917 211.659 378.941C211.701 378.964 211.752 378.975 211.814 378.974C211.876 378.973 211.961 378.967 212.067 378.955C212.214 378.937 212.334 378.931 212.428 378.936C212.522 378.94 212.601 378.969 212.667 379.025C212.735 379.08 212.768 379.176 212.768 379.312C212.768 379.428 212.738 379.544 212.678 379.66C212.62 379.775 212.531 379.883 212.411 379.984C212.291 380.084 212.144 380.166 211.972 380.23ZM213.097 377.558L213.449 377.429V379.655L213.097 379.784V377.558ZM215.366 377.345V378.947L215.031 379.071V378.867C214.975 378.96 214.905 379.042 214.82 379.113C214.736 379.182 214.645 379.235 214.547 379.271C214.346 379.345 214.188 379.344 214.071 379.269C213.957 379.191 213.9 379.035 213.9 378.801V377.886L214.252 377.757V378.621C214.252 378.765 214.282 378.861 214.342 378.911C214.404 378.958 214.491 378.961 214.603 378.92C214.729 378.873 214.829 378.796 214.902 378.687C214.977 378.575 215.014 378.441 215.014 378.285V377.475L215.366 377.345ZM217 378.044V378.344L215.703 378.823V378.586L216.528 377.217L215.72 377.515V377.215L216.978 376.751V376.988L216.15 378.358L217 378.044ZM216.888 376.154L216.511 376.704L216.19 376.822L215.813 376.551L216.103 376.444L216.35 376.574L216.598 376.261L216.888 376.154ZM218.158 376.297C218.304 376.243 218.435 376.229 218.549 376.255C218.665 376.28 218.756 376.343 218.822 376.442C218.888 376.542 218.921 376.673 218.921 376.835C218.921 376.997 218.888 377.153 218.822 377.303C218.756 377.452 218.665 377.581 218.549 377.692C218.435 377.802 218.304 377.884 218.158 377.938C218.055 377.977 217.96 377.992 217.874 377.986C217.789 377.979 217.718 377.949 217.66 377.894V378.101L217.325 378.225V375.999L217.677 375.869V376.688C217.737 376.596 217.807 376.517 217.888 376.451C217.97 376.385 218.06 376.333 218.158 376.297ZM218.118 377.632C218.248 377.584 218.354 377.499 218.436 377.377C218.521 377.253 218.563 377.117 218.563 376.967C218.563 376.817 218.521 376.711 218.436 376.651C218.354 376.589 218.248 376.582 218.118 376.63C218.034 376.661 217.958 376.71 217.89 376.777C217.823 376.842 217.769 376.92 217.73 377.01C217.691 377.101 217.671 377.196 217.671 377.296C217.671 377.396 217.691 377.477 217.73 377.538C217.769 377.6 217.823 377.639 217.89 377.656C217.958 377.671 218.034 377.663 218.118 377.632ZM220.62 375.407L219.917 377.398C219.851 377.596 219.771 377.747 219.677 377.852C219.584 377.958 219.47 378.036 219.337 378.085C219.262 378.113 219.188 378.128 219.115 378.128C219.041 378.129 218.981 378.116 218.934 378.087L219.075 377.759C219.109 377.781 219.148 377.793 219.193 377.796C219.24 377.799 219.287 377.792 219.334 377.775C219.396 377.752 219.447 377.716 219.486 377.667C219.527 377.618 219.565 377.547 219.599 377.455L219.624 377.383L218.968 376.016L219.334 375.882L219.807 376.892L220.283 375.532L220.62 375.407Z"
           fill="white"
           id="path1505" />
        <path
           d="M257.991 362.683L257.678 363.14V363.677L257.312 363.812V361.712L257.678 361.577V362.654L258.652 361.217L259.063 361.066L258.236 362.31L259.114 363.147L258.686 363.305L257.991 362.683ZM259.939 362.864C259.787 362.92 259.65 362.935 259.528 362.91C259.406 362.885 259.31 362.824 259.241 362.725C259.173 362.624 259.139 362.495 259.139 362.337C259.139 362.179 259.173 362.025 259.241 361.876C259.31 361.727 259.406 361.594 259.528 361.479C259.65 361.364 259.787 361.279 259.939 361.223C260.093 361.166 260.23 361.15 260.352 361.175C260.474 361.2 260.569 361.262 260.637 361.361C260.706 361.46 260.741 361.588 260.741 361.746C260.741 361.904 260.706 362.059 260.637 362.21C260.569 362.359 260.474 362.491 260.352 362.606C260.23 362.721 260.093 362.807 259.939 362.864ZM259.939 362.543C260.068 362.495 260.175 362.41 260.26 362.287C260.344 362.163 260.386 362.027 260.386 361.877C260.386 361.727 260.344 361.621 260.26 361.561C260.175 361.5 260.068 361.493 259.939 361.541C259.809 361.589 259.702 361.674 259.618 361.797C259.535 361.92 259.494 362.056 259.494 362.206C259.494 362.356 259.535 362.462 259.618 362.523C259.702 362.584 259.809 362.591 259.939 362.543ZM261.93 360.488C262.12 360.418 262.272 360.421 262.386 360.497C262.5 360.573 262.558 360.727 262.558 360.959V361.877L262.206 362.006V361.136C262.206 360.996 262.175 360.903 262.113 360.856C262.051 360.807 261.963 360.803 261.848 360.845C261.719 360.893 261.617 360.973 261.542 361.085C261.467 361.194 261.429 361.327 261.429 361.483V362.293L261.077 362.423V360.821L261.412 360.697V360.904C261.47 360.809 261.544 360.726 261.632 360.655C261.72 360.585 261.819 360.529 261.93 360.488ZM263.908 361.292C263.866 361.343 263.816 361.389 263.756 361.429C263.697 361.468 263.635 361.5 263.57 361.524C263.405 361.585 263.277 361.586 263.187 361.528C263.097 361.469 263.052 361.351 263.052 361.175V360.404L262.804 360.496V360.196L263.052 360.104V359.738L263.404 359.609V359.975L263.806 359.826V360.126L263.404 360.275V361.037C263.404 361.115 263.422 361.168 263.457 361.197C263.493 361.224 263.544 361.225 263.612 361.2C263.691 361.171 263.756 361.124 263.809 361.061L263.908 361.292ZM264.771 359.44C264.993 359.358 265.161 359.353 265.278 359.424C265.396 359.493 265.455 359.641 265.455 359.869V360.808L265.123 360.93V360.735C265.08 360.821 265.018 360.898 264.937 360.966C264.858 361.031 264.763 361.084 264.65 361.126C264.537 361.167 264.439 361.184 264.355 361.175C264.27 361.164 264.204 361.131 264.158 361.076C264.112 361.019 264.09 360.944 264.09 360.852C264.09 360.708 264.14 360.575 264.239 360.452C264.34 360.327 264.499 360.224 264.715 360.145L265.103 360.002V359.978C265.103 359.866 265.071 359.791 265.008 359.755C264.946 359.718 264.853 359.722 264.729 359.768C264.644 359.799 264.561 359.844 264.478 359.902C264.398 359.96 264.329 360.024 264.273 360.095L264.135 359.873C264.214 359.78 264.309 359.696 264.419 359.621C264.53 359.546 264.647 359.486 264.771 359.44ZM264.723 360.826C264.811 360.793 264.889 360.744 264.957 360.677C265.026 360.607 265.075 360.527 265.103 360.437V360.251L264.74 360.385C264.537 360.459 264.436 360.568 264.436 360.71C264.436 360.778 264.461 360.822 264.512 360.844C264.563 360.865 264.633 360.859 264.723 360.826ZM266.52 359.728L266.258 360.088V360.511L265.907 360.641V358.415L266.258 358.285V359.629L266.987 358.64L267.41 358.485L266.782 359.388L267.469 360.065L267.041 360.223L266.52 359.728ZM268.599 359.561C268.558 359.612 268.507 359.658 268.447 359.698C268.389 359.737 268.327 359.769 268.262 359.793C268.097 359.854 267.969 359.855 267.879 359.797C267.789 359.738 267.744 359.62 267.744 359.444V358.673L267.496 358.765V358.465L267.744 358.373V358.007L268.096 357.878V358.244L268.498 358.095V358.395L268.096 358.544V359.306C268.096 359.384 268.113 359.437 268.149 359.466C268.185 359.493 268.236 359.494 268.304 359.469C268.383 359.44 268.448 359.394 268.501 359.33L268.599 359.561Z"
           fill="white"
           id="path1507" />
      </g>
      <g
         id="g1681">
        <rect
           x="0.469096"
           y="0.326941"
           width="65.9665"
           height="61.5511"
           rx="8.5"
           transform="matrix(0.938191 -0.346117 0 1 214.226 388.391)"
           stroke="white"
           id="rect1509" />
        <path
           fill-rule="evenodd"
           clip-rule="evenodd"
           d="M214.755 432.484C224.929 430.194 234.314 430.321 244.488 422.909C254.519 415.55 266.505 402.903 276.679 398.661V419.508C276.679 419.508 276.726 421.137 276.295 422.308C275.831 423.566 275.339 424.515 274.357 425.7C273.678 426.519 272.321 427.954 271.449 428.607C270.241 429.513 269.494 429.903 268.274 430.404C267.053 430.905 265.104 431.599 265.104 431.599L225.083 446.395C225.083 446.395 223.049 447.366 221.878 447.578C219.601 447.99 219.293 447.887 218.147 447.505C216.694 447.021 216.491 446.699 215.724 445.567C215.048 444.569 214.755 441.691 214.755 441.691L214.755 432.484Z"
           stroke="white"
           id="path1511" />
      </g>
    </g>
    <g
       id="g1982">
      <rect
         width="92.731598"
         height="56.8307"
         transform="matrix(0.938191,-0.346117,0,1,198.78836,468.33776)"
         fill="#2b09ff"
         filter="url(#shadow-1)"
         id="rect1445"
         x="0"
         y="0" />
      <rect
         x="0.469096"
         y="0.326941"
         width="29.9754"
         height="46.227"
         rx="5.5"
         transform="matrix(0.938191 -0.346117 0 1 203.029 471.482)"
         stroke="white"
         id="rect1475" />
      <rect
         x="1.2706"
         y="0.885557"
         width="28.2668"
         height="2.70861"
         transform="matrix(0.938191 -0.346117 0 1 203.078 508.291)"
         stroke="white"
         stroke-width="2.70861"
         id="rect1481" />
      <rect
         x="1.2706"
         y="0.885557"
         width="28.2668"
         height="2.70861"
         transform="matrix(0.938191 -0.346117 0 1 203.078 497.874)"
         stroke="white"
         stroke-width="2.70861"
         id="rect1487" />
      <rect
         x="1.2706"
         y="0.885557"
         width="28.2668"
         height="2.70861"
         transform="matrix(0.938191 -0.346117 0 1 203.078 487.456)"
         stroke="white"
         stroke-width="2.70861"
         id="rect1493" />
      <rect
         x="1.2706"
         y="0.885557"
         width="28.2668"
         height="2.70861"
         transform="matrix(0.938191 -0.346117 0 1 203.078 477.038)"
         stroke="white"
         stroke-width="2.70861"
         id="rect1499" />
      <rect
         x="0.469096"
         y="0.326941"
         width="49.3505"
         height="46.0307"
         rx="5.5"
         transform="matrix(0.938191 -0.346117 0 1 235.029 460.46)"
         stroke="white"
         id="rect1513" />
      <path
         fill-rule="evenodd"
         clip-rule="evenodd"
         d="M235.419 493.572C243.069 491.85 250.125 491.945 257.775 486.373C265.316 480.84 274.329 471.33 281.978 468.141V483.816C281.978 483.816 282.014 485.04 281.69 485.921C281.341 486.867 280.971 487.58 280.232 488.471C279.722 489.087 278.702 490.166 278.046 490.657C277.138 491.338 276.576 491.631 275.659 492.008C274.741 492.384 273.275 492.907 273.275 492.907L243.185 504.031C243.185 504.031 241.655 504.761 240.774 504.921C239.063 505.23 238.831 505.153 237.97 504.866C236.877 504.502 236.725 504.26 236.148 503.409C235.64 502.658 235.419 500.494 235.419 500.494L235.419 493.572Z"
         stroke="white"
         id="path1515" />
    </g>
    <g
       id="g1848">
      <rect
         width="34.1082"
         height="56.8307"
         transform="matrix(0.938191 -0.346117 0 1 160 482.354)"
         fill="#2B09FF"
         id="rect1517" />
      <circle
         r="12.5"
         transform="matrix(0.938191 -0.346117 0 1 176.196 494.37)"
         stroke="white"
         id="circle1519" />
      <circle
         r="8.52705"
         transform="matrix(0.938191 -0.346117 0 1 176 494.349)"
         fill="white"
         id="circle1521" />
      <rect
         x="0.234548"
         y="0.163471"
         width="24.0153"
         height="17.1352"
         rx="3.75"
         transform="matrix(0.938191 -0.346117 0 1 165.014 515.953)"
         stroke="white"
         stroke-width="0.5"
         id="rect1523" />
      <rect
         x="0.234548"
         y="0.163471"
         width="19.8334"
         height="12.0667"
         rx="2.75"
         transform="matrix(0.938191 -0.346117 0 1 167.014 517.99)"
         stroke="white"
         stroke-width="0.5"
         id="rect1525" />
      <rect
         x="0.234548"
         y="0.163471"
         width="15.4882"
         height="7.86973"
         rx="1.75"
         transform="matrix(0.938191 -0.346117 0 1 169.014 519.486)"
         stroke="white"
         stroke-width="0.5"
         id="rect1527" />
    </g>
  </g>
  <g
     id="svg-sluzby-grafika-na-miru-web">
    <g
       id="g2513">
      <path
         d="M525.189 572.344C526.013 572.033 527 572.081 528.004 572.481L570.826 589.504C573.367 590.514 575.391 593.477 575.391 596.186V619.398C575.391 621.041 574.633 622.3 573.364 622.766L557.041 628.751L517.766 609.333C515.898 608.409 514.342 606.434 513.813 604.315L507.496 579.01L525.189 572.344Z"
         fill="#A195E3"
         id="path1433" />
      <rect
         width="56.9957"
         height="34.1974"
         rx="5"
         transform="matrix(0.938191 0.346117 0 1 506 576.775)"
         fill="white"
         id="rect1435" />
    </g>
    <g
       id="g2170">
      <g
         id="g1531">
        <path
           d="M490.356 144.609C500.5 147.652 745.971 283.846 829.533 330.284C844.846 338.794 854.9 358.031 852.2 373.354L796.829 687.641C794.13 702.962 779.532 708.471 764.224 699.947L431.69 514.771C416.327 506.216 406.098 486.787 408.884 471.455L467.724 147.667C467.724 147.667 478.122 140.939 490.356 144.609Z"
           fill="#A195E3"
           id="path1529" />
      </g>
      <g
         id="g1535">
        <rect
           width="421.768"
           height="395.713"
           rx="30"
           transform="matrix(0.923938 0.514507 -0.162915 0.924705 457.603 132.824)"
           fill="white"
           filter="url(#shadow-1)"
           id="rect1533" />
      </g>
    </g>
    <g
       id="g2357">
      <g
         id="g1545">
        <path
           d="M426.566 159.692C427.016 157.139 429.449 156.221 432 157.641L808.092 367.073C810.639 368.492 812.343 371.707 811.899 374.26L806.316 406.353C806.099 407.598 805.391 408.513 804.352 408.891L799.249 410.747L424.599 199.464C422.062 198.034 420.376 194.827 420.824 192.285L426.566 159.692Z"
           fill="#A195E3"
           id="path1543" />
      </g>
      <rect
         width="417.043"
         height="45.2142"
         rx="5"
         transform="matrix(0.923938 0.514507 -0.162915 0.924705 422.93 157.001)"
         fill="white"
         filter="url(#shadow-1)"
         id="rect1547" />
      <path
         d="M710.498 336.789L707.694 337.878L707.155 340.941L705.924 340.255L707.977 328.604L709.208 329.289L707.967 336.33L716.043 333.096L717.456 333.883L711.488 336.353L715.753 345.729L714.289 344.914L710.498 336.789ZM720.653 348.549C719.811 348.079 719.084 347.468 718.474 346.714C717.867 345.949 717.428 345.12 717.159 344.227C716.891 343.334 716.831 342.46 716.982 341.606C717.133 340.751 717.461 340.094 717.969 339.633C718.476 339.172 719.101 338.942 719.844 338.941C720.587 338.94 721.379 339.175 722.222 339.644C723.065 340.113 723.791 340.725 724.401 341.478C725.011 342.232 725.444 343.053 725.702 343.939C725.971 344.832 726.03 345.706 725.88 346.561C725.729 347.415 725.4 348.073 724.893 348.533C724.397 349 723.776 349.24 723.031 349.252C722.288 349.252 721.496 349.018 720.653 348.549ZM720.838 347.5C721.459 347.846 722.038 348.016 722.574 348.01C723.124 347.999 723.583 347.81 723.953 347.443C724.322 347.076 724.565 346.56 724.682 345.894C724.799 345.228 724.765 344.557 724.58 343.881C724.395 343.205 724.077 342.59 723.627 342.035C723.19 341.474 722.661 341.021 722.04 340.676C721.419 340.33 720.834 340.162 720.284 340.173C719.748 340.179 719.289 340.362 718.909 340.723C718.54 341.09 718.297 341.607 718.179 342.273C718.062 342.938 718.096 343.609 718.281 344.285C718.478 344.967 718.794 345.588 719.231 346.149C719.682 346.704 720.217 347.154 720.838 347.5ZM733.53 345.941C734.628 346.552 735.442 347.359 735.971 348.36C736.514 349.357 736.678 350.466 736.463 351.686L735.568 356.763L734.388 356.105L735.261 351.145C735.422 350.235 735.317 349.415 734.946 348.685C734.576 347.955 733.969 347.355 733.126 346.886C732.184 346.361 731.386 346.227 730.732 346.484C730.091 346.737 729.683 347.357 729.509 348.344L728.7 352.938L727.519 352.281L729.061 343.525L730.192 344.155L729.908 345.77C730.323 345.416 730.839 345.253 731.455 345.279C732.085 345.3 732.776 345.521 733.53 345.941ZM743.475 360.581C743.218 360.657 742.913 360.658 742.561 360.584C742.222 360.505 741.875 360.366 741.52 360.169C740.7 359.712 740.107 359.138 739.741 358.447C739.376 357.756 739.265 357.006 739.408 356.196L740.34 350.903L738.777 350.032L738.953 349.034L740.516 349.904L740.853 347.99L742.034 348.648L741.697 350.562L744.358 352.043L744.182 353.042L741.521 351.56L740.6 356.787C740.508 357.308 740.565 357.779 740.772 358.198C740.991 358.613 741.344 358.956 741.832 359.227C742.076 359.363 742.316 359.454 742.551 359.5C742.798 359.552 743.017 359.552 743.208 359.5L743.475 360.581ZM750.145 355.193C751.287 355.829 752.112 356.605 752.62 357.522C753.13 358.427 753.286 359.44 753.089 360.561L752.133 365.987L751.002 365.357L751.242 363.993C750.896 364.299 750.44 364.435 749.874 364.4C749.319 364.371 748.687 364.159 747.977 363.764C747.001 363.221 746.266 362.556 745.772 361.769C745.277 360.982 745.098 360.205 745.233 359.44C745.364 358.696 745.735 358.245 746.348 358.086C746.971 357.934 747.87 358.185 749.046 358.84L751.823 360.386L751.917 359.853C752.05 359.099 751.94 358.41 751.587 357.787C751.236 357.153 750.656 356.611 749.846 356.16C749.292 355.851 748.743 355.649 748.2 355.554C747.659 355.447 747.177 355.453 746.754 355.571L746.377 354.393C746.887 354.262 747.47 354.27 748.126 354.416C748.785 354.551 749.457 354.81 750.145 355.193ZM748.324 362.934C748.989 363.305 749.587 363.473 750.116 363.439C750.648 363.393 751.081 363.147 751.415 362.7L751.668 361.268L748.923 359.74C747.427 358.907 746.586 359.011 746.403 360.055C746.313 360.565 746.435 361.078 746.771 361.594C747.108 362.098 747.626 362.545 748.324 362.934ZM759.357 365.185L756.961 365.934L756.521 368.431L755.34 367.773L757.516 355.423L758.697 356.08L757.222 364.453L763.285 362.583L764.749 363.398L760.376 364.893L763.556 372.348L762.109 371.542L759.357 365.185ZM770.029 375.368C769.772 375.444 769.467 375.445 769.115 375.371C768.776 375.292 768.429 375.153 768.074 374.956C767.254 374.499 766.661 373.925 766.296 373.234C765.93 372.543 765.819 371.793 765.962 370.983L766.894 365.69L765.331 364.819L765.507 363.821L767.07 364.691L767.408 362.777L768.588 363.435L768.251 365.349L770.912 366.831L770.736 367.829L768.075 366.347L767.154 371.574C767.062 372.095 767.12 372.566 767.326 372.985C767.545 373.4 767.898 373.743 768.386 374.015C768.63 374.15 768.87 374.241 769.105 374.287C769.352 374.339 769.571 374.339 769.763 374.287L770.029 375.368Z"
         fill="#4508BD"
         id="path1549" />
    </g>
    <g
       id="g2491">
      <g
         id="g1539">
        <rect
           width="265.352"
           height="248.96"
           rx="30"
           transform="matrix(0.923938 0.514507 -0.162915 0.924705 620.831 345.91)"
           fill="#A195E0"
           id="rect1537" />
      </g>
      <rect
         width="265.352"
         height="248.96"
         rx="30"
         transform="matrix(0.923938 0.514507 -0.162915 0.924705 615.411 348.356)"
         fill="white"
         filter="url(#shadow-1)"
         id="rect1541" />
      <path
         fill-rule="evenodd"
         clip-rule="evenodd"
         d="M589.554 487.292C628.667 517.157 663.418 557.528 707.072 561.626C750.156 565.407 804.656 550.321 845.5 570.37L826.5 678.37C826.5 678.37 825.821 683.262 825 687.37C824 692.37 823 698.87 811.999 702.87C808.712 704.065 806.5 704.37 802 703.37C796.529 702.154 793.893 700.317 789 697.87C784.106 695.423 772 688.5 772 688.5L614.999 600.87C614.999 600.87 608.5 597.5 602.5 594C596.58 590.546 592.999 587.87 585.999 577.87C580.427 569.91 578.739 559.033 578.999 554.87C579.499 546.87 581.32 537.592 581.32 537.592L589.554 487.292Z"
         fill="#4508BD"
         id="path1551" />
    </g>
    <g
       id="g2652">
      <line
         y1="-3.5"
         x2="360.677"
         y2="-3.5"
         transform="matrix(0.233904 -0.802249 0.961054 0.647207 371.45 598.286)"
         stroke="#310686"
         stroke-width="7"
         id="line1553" />
      <line
         y1="-3"
         x2="84.1401"
         y2="-3"
         transform="matrix(0.903395 0.726851 -0.338123 0.745361 368.173 552.448)"
         stroke="#310686"
         stroke-width="6"
         id="line1557" />
      <line
         y1="-3"
         x2="84.1401"
         y2="-3"
         transform="matrix(0.903395 0.726851 -0.338123 0.745361 399.355 458.096)"
         stroke="#310686"
         stroke-width="6"
         id="line1559" />
      <line
         y1="-3"
         x2="84.1401"
         y2="-3"
         transform="matrix(0.903395 0.726851 -0.338123 0.745361 430.256 349.723)"
         stroke="#310686"
         stroke-width="6"
         id="line1561" />
      <line
         y1="-3"
         x2="84.1401"
         y2="-3"
         transform="matrix(0.903395 0.726851 -0.338123 0.745361 411.578 400.043)"
         stroke="#310686"
         stroke-width="6"
         id="line1563" />
      <line
         y1="-3"
         x2="84.1401"
         y2="-3"
         transform="matrix(0.903395 0.726851 -0.338123 0.745361 380.827 496.193)"
         stroke="#310686"
         stroke-width="6"
         id="line1565" />
      <line
         y1="-3.5"
         x2="360.677"
         y2="-3.5"
         transform="matrix(0.233904 -0.802249 0.961054 0.647207 426.528 636.064)"
         stroke="#310686"
         stroke-width="7"
         id="line1583" />
    </g>
    <g
       id="g1086">
      <g
         id="g2963">
        <path
           fill-rule="evenodd"
           clip-rule="evenodd"
           d="m 445.287,219.976 c -2.403,-4.141 -3.852,-8.549 -3.099,-12.428 2.17,-11.176 19.518,-0.768 22.301,6.602 2.783,7.37 0.736,22.004 -3.812,21.072 -1.814,-0.372 -5.466,-3.071 -9.065,-6.891 l 0.684,16.623 -14.203,-6.334 z"
           fill="#d4a181"
           id="path1567" />
        <path
           fill-rule="evenodd"
           clip-rule="evenodd"
           d="m 450.293,221.354 c -2.103,2.304 -4.796,3.544 -7.23,2.459 -4.622,-2.062 -7.284,-9.174 -6.612,-15.246 0.024,-0.213 0.052,-0.423 0.084,-0.629 -5.229,0.885 -9.666,5.248 -16.136,2.363 -8.803,-3.925 -10.503,-21.707 1.795,-16.223 8.364,3.73 12.354,6.679 15.718,9.907 0.898,-1.489 2.132,-2.528 3.553,-3.004 0.35,-0.183 0.865,-0.277 1.517,-0.287 0.4,-0.02 0.81,0 1.226,0.064 2.218,0.236 5.371,1.11 8.842,2.543 0.649,0.267 1.284,0.544 1.902,0.828 0.34,-2.975 3.252,-4.206 6.515,-2.752 3.268,1.458 5.65,5.061 5.319,8.047 -0.319,2.888 -3.059,4.143 -6.195,2.904 -1.84,-0.293 -4.174,-0.946 -6.733,-1.924 0.153,0.958 0.18,1.982 0.059,3.071 -0.106,0.961 -0.335,1.929 -0.663,2.869 -0.486,-0.845 -1.18,-1.564 -1.928,-1.898 -2.094,-0.934 -3.725,-0.01 -3.91,1.661 -0.235,2.121 0.935,4.252 2.877,5.247 z"
           fill="#191847"
           id="path1569" />
      </g>
      <g
         id="g2931">
        <path
           fill-rule="evenodd"
           clip-rule="evenodd"
           d="m 477,366.554 3.723,23.96 10.098,-2.478 -3.758,-20.941 z"
           fill="#ba8b72"
           id="path1571" />
        <path
           fill-rule="evenodd"
           clip-rule="evenodd"
           d="m 428.701,287.343 c 4.673,12.84 19.103,32.964 33.299,52.211 6.679,11.932 12.538,17.786 13,37 l 16.5,-1 c 0.13,-9.005 -0.5,-31.5 -6.5,-45.5 -7.154,-16.692 -20.887,-22.842 -27.023,-36.978 z"
           fill="#69a1ac"
           id="path1575" />
        <path
           fill-rule="evenodd"
           clip-rule="evenodd"
           d="m 478.225,390.11 -1.059,-8.184 c 4.029,1.12 8.775,1.085 14.24,-0.104 6.939,3.823 15.263,6.663 24.972,8.519 0.741,0.142 1.336,0.704 1.33,1.256 0,0.036 -0.003,0.071 -0.009,0.106 l -0.389,2.429 -23.653,-1.513 -13.797,-0.883 z"
           fill="#191847"
           id="path1581" />
      </g>
      <g
         id="g2936">
        <path
           fill-rule="evenodd"
           clip-rule="evenodd"
           d="m 419.496,285.541 c 7.754,39.025 10.573,60.034 10.805,63.487 0.232,3.453 2.131,26.646 -4.202,65.355 l 10.56,2.067 c 10.818,-36.205 13.02,-58.596 14.155,-63.406 1.135,-4.81 3.553,-24.794 6.08,-60.18 z"
           fill="#d4a181"
           id="path1573" />
        <path
           fill-rule="evenodd"
           clip-rule="evenodd"
           d="m 419.422,285.526 c 7.723,39.019 10.074,76.43 5.794,120.688 l 15.845,3.103 c 10.945,-35.609 17.171,-71.158 18.107,-116.008 z"
           fill="#89c5cc"
           id="path1577" />
        <path
           fill-rule="evenodd"
           clip-rule="evenodd"
           d="m 425.833,421.766 -0.943,-9.336 c 3.574,1.672 7.783,2.115 12.629,1.329 6.156,5.015 13.539,9.062 22.151,12.141 0.657,0.235 1.185,0.929 1.18,1.551 0,0.04 -0.003,0.08 -0.008,0.118 l -0.344,2.7 -20.977,-4.107 -12.236,-2.396 z"
           fill="#191847"
           id="path1579" />
      </g>
      <g
         id="g2941">
        <path
           fill-rule="evenodd"
           clip-rule="evenodd"
           d="m 465.812,262.456 20.797,-3.189 c 3.489,-2.604 6.914,-4.367 10.276,-5.289 1.024,-0.032 2.808,0.371 1.103,2.558 -1.705,2.187 -3.366,4.607 -2.53,5.774 0.836,1.168 2.968,0.734 3.96,2.53 0.661,1.197 -2.975,1.391 -10.907,0.58 l -15.186,7.529 z m 32.204,20.74 9.136,-1.415 c 1.338,-4.111 2.892,-5.86 4.662,-5.246 1.368,-0.104 -1.083,4.814 1.502,5.248 2.584,0.434 8.937,-1.702 10.008,-0.412 1.584,1.909 0.096,5.465 -1.617,6.881 -3.203,2.646 -5.828,2.996 -12.295,2.355 -3.381,-0.335 -7.049,0.122 -11.003,1.37 z"
           fill="#d4a181"
           id="path1585" />
        <rect
           width="62.938099"
           height="27.5354"
           rx="5"
           transform="matrix(0.622582,0.977772,-0.701851,0.404671,503.326,231.184)"
           fill="#ffffff"
           filter="url(#shadow-1)"
           id="rect1591"
           x="0"
           y="0" />
        <path
           d="m 503.638,256.298 c -0.741,-1.148 -1.084,-2.182 -1.027,-3.104 0.056,-0.921 0.534,-1.648 1.433,-2.182 l 3.629,-2.156 0.605,0.937 -3.602,2.14 c -0.736,0.437 -1.135,0.995 -1.198,1.675 -0.062,0.679 0.191,1.458 0.758,2.335 0.572,0.887 1.189,1.455 1.851,1.704 0.662,0.249 1.36,0.155 2.097,-0.282 l 3.601,-2.14 0.589,0.912 -3.629,2.156 c -0.899,0.534 -1.791,0.62 -2.676,0.258 -0.879,-0.354 -1.689,-1.105 -2.431,-2.253 z m 8.616,-3.857 0.777,1.203 -2.447,-1.385 -0.572,-0.886 z m 3.86,12.862 -6.674,-0.135 -0.596,-0.925 2.855,-5.778 0.605,0.937 -2.444,4.903 5.682,0.111 z m -2.35,6.658 c -0.414,-0.642 -0.685,-1.281 -0.812,-1.918 -0.122,-0.64 -0.094,-1.217 0.084,-1.732 0.177,-0.514 0.498,-0.909 0.962,-1.185 0.465,-0.276 0.977,-0.375 1.535,-0.298 0.559,0.076 1.107,0.311 1.645,0.704 0.538,0.394 1.014,0.911 1.428,1.552 0.414,0.642 0.685,1.281 0.812,1.918 0.128,0.637 0.1,1.208 -0.083,1.714 -0.177,0.514 -0.498,0.909 -0.962,1.185 -0.465,0.276 -0.977,0.375 -1.535,0.299 -0.554,-0.069 -1.102,-0.298 -1.646,-0.687 -0.538,-0.393 -1.014,-0.911 -1.428,-1.552 z m 0.57,-0.339 c 0.306,0.473 0.654,0.85 1.044,1.132 0.402,0.287 0.813,0.451 1.233,0.494 0.42,0.042 0.811,-0.044 1.173,-0.259 0.362,-0.215 0.617,-0.512 0.764,-0.892 0.147,-0.379 0.174,-0.804 0.079,-1.273 -0.083,-0.465 -0.277,-0.933 -0.582,-1.406 -0.305,-0.473 -0.659,-0.853 -1.061,-1.139 -0.391,-0.282 -0.799,-0.449 -1.224,-0.5 -0.42,-0.042 -0.811,0.044 -1.173,0.259 -0.362,0.215 -0.617,0.512 -0.764,0.892 -0.142,0.388 -0.171,0.814 -0.088,1.279 0.094,0.469 0.294,0.94 0.599,1.413 z m 13.483,7.617 -6.715,3.989 -0.556,-0.861 0.942,-0.559 c -0.495,-0.08 -0.971,-0.294 -1.428,-0.641 -0.453,-0.338 -0.859,-0.786 -1.219,-1.343 -0.403,-0.625 -0.666,-1.252 -0.788,-1.88 -0.122,-0.628 -0.091,-1.195 0.092,-1.701 0.182,-0.506 0.509,-0.898 0.98,-1.178 0.47,-0.279 0.982,-0.385 1.535,-0.317 0.554,0.069 1.094,0.297 1.62,0.685 0.532,0.385 1,0.89 1.403,1.514 0.349,0.541 0.581,1.074 0.696,1.602 0.127,0.532 0.126,1.029 -0.002,1.49 l 2.86,-1.699 z m -8.356,0.322 c 0.299,0.464 0.645,0.837 1.035,1.119 0.402,0.287 0.813,0.451 1.233,0.494 0.426,0.051 0.819,-0.031 1.181,-0.246 0.362,-0.215 0.614,-0.517 0.756,-0.905 0.147,-0.379 0.174,-0.804 0.079,-1.273 -0.083,-0.465 -0.274,-0.929 -0.574,-1.393 -0.305,-0.473 -0.659,-0.853 -1.061,-1.14 -0.391,-0.281 -0.799,-0.448 -1.224,-0.499 -0.42,-0.042 -0.811,0.044 -1.173,0.259 -0.362,0.215 -0.616,0.512 -0.764,0.892 -0.142,0.388 -0.171,0.814 -0.088,1.279 0.094,0.469 0.294,0.94 0.6,1.413 z"
           fill="#4508bd"
           id="path1593" />
      </g>
      <g
         id="g1066">
        <path
           fill-rule="evenodd"
           clip-rule="evenodd"
           d="M455.792 256.43C463.024 258.981 472.688 261.037 483.065 258.602L486.983 268.577C479.791 272.654 469.734 274.499 461.012 271.102C454.138 268.425 450.737 259.295 455.792 256.43Z"
           fill="#2026A2"
           id="path1587" />
        <path
           fill-rule="evenodd"
           clip-rule="evenodd"
           d="m 465.333,273.609 c 7.65,4.593 20.554,7.131 38.711,7.614 4.357,10.384 6.339,17.378 5.948,20.985 -15.611,2.023 -28.946,0.612 -39.895,-3.134 0.26,6.26 -0.614,11.81 -3.346,16.179 -5.617,8.983 -37.441,-12.768 -48.218,-14.67 -6.436,-23.087 6.7,-26.755 6.899,-39.961 0.219,-14.463 12.837,-32.268 14.647,-31.611 l 16.503,5.987 c 0.753,11.379 5.161,25.217 8.751,38.611 z"
           fill="#1f28cf"
           id="path1589" />
      </g>
    </g>
  </g>
  <defs
     id="defs1623">
    <filter
       id="shadow-1"
       x="-0.38132706"
       y="-0.87160527"
       width="1.7626541"
       height="2.8884781"
       filterUnits="objectBoundingBox">
      <feOffset
         dx="0"
         dy="4"
         in="SourceAlpha"
         result="shadowOffsetOuter1"
         id="feOffset1595" />
      <feGaussianBlur
         stdDeviation="10"
         in="shadowOffsetOuter1"
         result="shadowBlurOuter1"
         id="feGaussianBlur1597" />
      <feColorMatrix
         values="0 0 0 0 0 0 0 0 0 0 0 0 0 0 0 0 0 0 0.2 0"
         in="shadowBlurOuter1"
         type="matrix"
         result="shadowMatrixOuter1"
         id="feColorMatrix1599" />
      <feMerge
         id="feMerge1605">
        <feMergeNode
           in="shadowMatrixOuter1"
           id="feMergeNode1601" />
        <feMergeNode
           in="SourceGraphic"
           id="feMergeNode1603" />
      </feMerge>
    </filter>
    <filter
       id="filter0_d"
       x="101"
       y="299.831"
       width="200.987"
       height="295.156"
       filterUnits="userSpaceOnUse"
       color-interpolation-filters="sRGB">
      <feFlood
         flood-opacity="0"
         result="BackgroundImageFix"
         id="feFlood1608" />
      <feColorMatrix
         in="SourceAlpha"
         type="matrix"
         values="0 0 0 0 0 0 0 0 0 0 0 0 0 0 0 0 0 0 127 0"
         id="feColorMatrix1610" />
      <feOffset
         dx="-2"
         dy="-2"
         id="feOffset1612" />
      <feGaussianBlur
         stdDeviation="7.5"
         id="feGaussianBlur1614" />
      <feColorMatrix
         type="matrix"
         values="0 0 0 0 0 0 0 0 0 0 0 0 0 0 0 0 0 0 0.15 0"
         id="feColorMatrix1616" />
      <feBlend
         mode="normal"
         in2="BackgroundImageFix"
         result="effect1_dropShadow"
         id="feBlend1618" />
      <feBlend
         mode="normal"
         in="SourceGraphic"
         in2="effect1_dropShadow"
         result="shape"
         id="feBlend1620" />
    </filter>
  </defs>
</svg>
