<svg width="883" height="874" fill="none" xmlns="http://www.w3.org/2000/svg"><path d="M813 569.524c0 177.327-129.441 232.388-220.537 245.137-119.926 16.784-332.638-66.428-415.405-100.005C149.292 703.392 0 644.353 0 516.339c0-187.016 191.974-32.119 216.594-170.102C283.921 26.318 813 382.508 813 569.524z" fill="#4508BD"/><path d="M764 572.081c0 155.42-113.838 203.679-193.953 214.853-105.471 14.711-292.542-58.221-365.332-87.651C180.296 689.411 49 637.666 49 525.466c0-163.911 168.833-28.151 190.486-149.087C298.697 95.982 764 408.169 764 572.081z" fill="#5C09FF"/><path d="M525.189 572.344c.824-.311 1.811-.263 2.815.137l42.822 17.023c2.541 1.01 4.565 3.973 4.565 6.682v23.212c0 1.643-.758 2.902-2.027 3.368l-16.323 5.985-39.275-19.418c-1.868-.924-3.424-2.899-3.953-5.018l-6.317-25.305 17.693-6.666z" fill="#A195E3"/><rect width="56.996" height="34.197" rx="5" transform="matrix(.9382 .34612 0 1 506 576.775)" fill="#fff"/><g filter="url(#a)"><path d="M118 374.304c0-5.582 4.288-11.666 9.525-13.513l123.165-43.43c1.833-.646 3.617-.703 5.133-.163l29.058 10.35c3.105 1.105 4.651 4.542 3.931 8.736l-30.654 178.458c-.706 4.106-3.454 8.173-7.031 10.402l-88.549 55.185c-2.595 1.617-5.331 2.077-7.524 1.265l-33.02-12.229c-2.527-.936-4.034-3.45-4.034-6.729V374.304z" fill="#A094E3"/></g><rect width="148.157" height="208.614" rx="10" transform="matrix(.9382 -.34612 0 1 153 376.917)" fill="#fff"/><path fill="#2B09FF" d="m160 388.354 126-46.484v87.204l-126 46.484zM199 467.676l87-32.096v56.83l-87 32.097z"/><rect x=".469" y=".327" width="114.352" height="5.807" rx="2.904" transform="matrix(.9382 -.34612 0 1 168.831 391.892)" stroke="#fff"/><rect x=".469" y=".327" width="40.026" height="61.551" rx="7.5" transform="matrix(.9382 -.34612 0 1 168.831 405.138)" stroke="#fff"/><path fill="#fff" d="m170.485 454.534 35.125-12.958v3.587l-35.125 12.958z"/><path fill="#fff" d="m170.485 454.534 35.125-12.958v3.587l-35.125 12.958z"/><path transform="matrix(.9382 -.34612 0 1 168.906 453.944)" stroke="#fff" stroke-width="3.587" d="M1.683 1.173h37.439V4.76H1.683z"/><path fill="#fff" d="m170.485 440.736 35.125-12.958v3.587l-35.125 12.958z"/><path fill="#fff" d="m170.485 440.736 35.125-12.958v3.587l-35.125 12.958z"/><path transform="matrix(.9382 -.34612 0 1 168.906 440.146)" stroke="#fff" stroke-width="3.587" d="M1.683 1.173h37.439V4.76H1.683z"/><path fill="#fff" d="m170.485 426.937 35.125-12.958v3.587l-35.125 12.958z"/><path fill="#fff" d="m170.485 426.937 35.125-12.958v3.587l-35.125 12.958z"/><path transform="matrix(.9382 -.34612 0 1 168.906 426.347)" stroke="#fff" stroke-width="3.587" d="M1.683 1.173h37.439V4.76H1.683z"/><path fill="#fff" d="m170.485 413.14 35.125-12.958v3.587l-35.125 12.958z"/><path fill="#fff" d="m170.485 413.14 35.125-12.958v3.587l-35.125 12.958z"/><path transform="matrix(.9382 -.34612 0 1 168.906 412.55)" stroke="#fff" stroke-width="3.587" d="M1.683 1.173h37.439V4.76H1.683z"/><rect x=".469" y=".327" width="29.975" height="46.227" rx="5.5" transform="matrix(.9382 -.34612 0 1 203.029 471.482)" stroke="#fff"/><path fill="#fff" d="m204.27 508.737 26.52-9.784v2.71l-26.52 9.783z"/><path fill="#fff" d="m204.27 508.737 26.52-9.784v2.71l-26.52 9.783z"/><path transform="matrix(.9382 -.34612 0 1 203.078 508.291)" stroke="#fff" stroke-width="2.709" d="M1.271.886h28.267v2.709H1.271z"/><path fill="#fff" d="m204.27 498.32 26.52-9.784v2.71l-26.52 9.783z"/><path fill="#fff" d="m204.27 498.32 26.52-9.784v2.71l-26.52 9.783z"/><path transform="matrix(.9382 -.34612 0 1 203.078 497.874)" stroke="#fff" stroke-width="2.709" d="M1.271.886h28.267v2.709H1.271z"/><path fill="#fff" d="m204.27 487.902 26.52-9.784v2.71l-26.52 9.783z"/><path fill="#fff" d="m204.27 487.902 26.52-9.784v2.71l-26.52 9.783z"/><path transform="matrix(.9382 -.34612 0 1 203.078 487.456)" stroke="#fff" stroke-width="2.709" d="M1.271.886h28.267v2.709H1.271z"/><path fill="#fff" d="m204.27 477.484 26.52-9.784v2.71l-26.52 9.783z"/><path fill="#fff" d="m204.27 477.484 26.52-9.784v2.71l-26.52 9.783z"/><path transform="matrix(.9382 -.34612 0 1 203.078 477.038)" stroke="#fff" stroke-width="2.709" d="M1.271.886h28.267v2.709H1.271z"/><text transform="matrix(.9382 -.34612 0 1 176 389.665)" fill="#fff" xml:space="preserve" style="white-space:pre" font-family="Montserrat" font-size="3" font-weight="600" letter-spacing="0em"><tspan x="4.345" y="4.479">Úvod</tspan></text><text transform="matrix(.9382 -.34612 0 1 192 383.665)" fill="#fff" xml:space="preserve" style="white-space:pre" font-family="Montserrat" font-size="3" font-weight="600" letter-spacing="0em"><tspan x="3.984" y="4.479">O nás</tspan></text><text transform="matrix(.9382 -.34612 0 1 208 377.665)" fill="#fff" xml:space="preserve" style="white-space:pre" font-family="Montserrat" font-size="3" font-weight="600" letter-spacing="0em"><tspan x="3.301" y="4.479">Služby</tspan></text><text transform="matrix(.9382 -.34612 0 1 255 360.665)" fill="#fff" xml:space="preserve" style="white-space:pre" font-family="Montserrat" font-size="3" font-weight="600" letter-spacing="0em"><tspan x="2.183" y="4.479">Kontakt</tspan></text><rect x=".469" y=".327" width="65.966" height="61.551" rx="8.5" transform="matrix(.9382 -.34612 0 1 214.226 388.391)" stroke="#fff"/><path clip-rule="evenodd" d="M214.755 432.484c10.174-2.29 19.559-2.163 29.733-9.575 10.031-7.359 22.017-20.006 32.191-24.248v20.847s.047 1.629-.384 2.8c-.464 1.258-.956 2.207-1.938 3.392-.679.819-2.036 2.254-2.908 2.907-1.208.906-1.955 1.296-3.175 1.797-1.221.501-3.17 1.195-3.17 1.195l-40.021 14.796s-2.034.971-3.205 1.183c-2.277.412-2.585.309-3.731-.073-1.453-.484-1.656-.806-2.423-1.938-.676-.998-.969-3.876-.969-3.876v-9.207z" stroke="#fff"/><rect x=".469" y=".327" width="49.35" height="46.031" rx="5.5" transform="matrix(.9382 -.34612 0 1 235.029 460.46)" stroke="#fff"/><path clip-rule="evenodd" d="M235.419 493.572c7.65-1.722 14.706-1.627 22.356-7.199 7.541-5.533 16.554-15.043 24.203-18.232v15.675s.036 1.224-.288 2.105c-.349.946-.719 1.659-1.458 2.55-.51.616-1.53 1.695-2.186 2.186-.908.681-1.47.974-2.387 1.351-.918.376-2.384.899-2.384.899l-30.09 11.124s-1.53.73-2.411.89c-1.711.309-1.943.232-2.804-.055-1.093-.364-1.245-.606-1.822-1.457-.508-.751-.729-2.915-.729-2.915v-6.922z" stroke="#fff"/><path fill="#2B09FF" d="m160 482.354 32-11.805v56.83l-32 11.806z"/><circle r="12.5" transform="matrix(.9382 -.34612 0 1 176.196 494.37)" stroke="#fff"/><circle r="8.527" transform="matrix(.9382 -.34612 0 1 176 494.349)" fill="#fff"/><rect x=".235" y=".163" width="24.015" height="17.135" rx="3.75" transform="matrix(.9382 -.34612 0 1 165.014 515.953)" stroke="#fff" stroke-width=".5"/><rect x=".235" y=".163" width="19.833" height="12.067" rx="2.75" transform="matrix(.9382 -.34612 0 1 167.014 517.99)" stroke="#fff" stroke-width=".5"/><rect x=".235" y=".163" width="15.488" height="7.87" rx="1.75" transform="matrix(.9382 -.34612 0 1 169.014 519.486)" stroke="#fff" stroke-width=".5"/><g filter="url(#b)"><path d="M490.356 144.609c10.144 3.043 255.615 139.237 339.177 185.675 15.313 8.51 25.367 27.747 22.667 43.07l-55.371 314.287c-2.699 15.321-17.297 20.83-32.605 12.306L431.69 514.771c-15.363-8.555-25.592-27.984-22.806-43.316l58.84-323.788s10.398-6.728 22.632-3.058z" fill="#A195E3"/></g><g filter="url(#c)"><rect width="421.768" height="395.713" rx="30" transform="matrix(.92394 .5145 -.16292 .9247 457.603 132.824)" fill="#fff"/></g><g filter="url(#d)"><rect width="265.352" height="248.96" rx="30" transform="matrix(.92394 .5145 -.16292 .9247 620.831 345.91)" fill="#A195E0"/></g><rect width="265.352" height="248.96" rx="30" transform="matrix(.92394 .5145 -.16292 .9247 615.411 348.356)" fill="#fff"/><g filter="url(#e)"><path d="M426.566 159.692c.45-2.553 2.883-3.471 5.434-2.051l376.092 209.432c2.547 1.419 4.251 4.634 3.807 7.187l-5.583 32.093c-.217 1.245-.925 2.16-1.964 2.538l-5.103 1.856-374.65-211.283c-2.537-1.43-4.223-4.637-3.775-7.179l5.742-32.593z" fill="#A195E3"/></g><rect width="417.043" height="45.214" rx="5" transform="matrix(.92394 .5145 -.16292 .9247 422.93 157.001)" fill="#fff"/><text transform="matrix(.92394 .5145 -.16292 .9247 684.449 311.034)" fill="#4508BD" xml:space="preserve" style="white-space:pre" font-family="Montserrat" font-size="18" letter-spacing="0em"><tspan x="24.189" y="17.453">Kontakt</tspan></text><path fill-rule="evenodd" clip-rule="evenodd" d="M589.554 487.292c39.113 29.865 73.864 70.236 117.518 74.334 43.084 3.781 97.584-11.305 138.428 8.744l-19 108s-.679 4.892-1.5 9c-1 5-2 11.5-13.001 15.5-3.287 1.195-5.499 1.5-9.999.5-5.471-1.216-8.107-3.053-13-5.5-4.894-2.447-17-9.37-17-9.37l-157.001-87.63S608.5 597.5 602.5 594c-5.92-3.454-9.501-6.13-16.501-16.13-5.572-7.96-7.26-18.837-7-23 .5-8 2.321-17.278 2.321-17.278l8.234-50.3z" fill="#4508BD"/><path transform="matrix(.2339 -.80225 .96105 .6472 371.45 598.286)" stroke="#310686" stroke-width="7" d="M0-3.5h360.677"/><path transform="matrix(.2339 -.80225 .96105 .6472 426.526 636.064)" stroke="#310686" stroke-width="7" d="M0-3.5h360.677"/><path transform="matrix(.9034 .72685 -.33812 .74536 368.173 552.448)" stroke="#310686" stroke-width="6" d="M0-3h84.14"/><path transform="matrix(.9034 .72685 -.33812 .74536 399.355 458.096)" stroke="#310686" stroke-width="6" d="M0-3h84.14"/><path transform="matrix(.9034 .72685 -.33812 .74536 430.256 349.723)" stroke="#310686" stroke-width="6" d="M0-3h84.14"/><path transform="matrix(.9034 .72685 -.33812 .74536 411.578 400.043)" stroke="#310686" stroke-width="6" d="M0-3h84.14"/><path transform="matrix(.9034 .72685 -.33812 .74536 380.827 496.193)" stroke="#310686" stroke-width="6" d="M0-3h84.14"/><path fill-rule="evenodd" clip-rule="evenodd" d="M445.287 219.976c-2.403-4.141-3.852-8.549-3.099-12.428 2.17-11.176 19.518-.768 22.301 6.602 2.783 7.37.736 22.004-3.812 21.072-1.814-.372-5.466-3.071-9.065-6.891l.684 16.623-14.203-6.334 7.194-18.644z" fill="#D4A181"/><path fill-rule="evenodd" clip-rule="evenodd" d="M450.293 221.354c-2.103 2.304-4.796 3.544-7.23 2.459-4.622-2.062-7.284-9.174-6.612-15.246.024-.213.052-.423.084-.629-5.229.885-9.666 5.248-16.136 2.363-8.803-3.925-10.503-21.707 1.795-16.223 8.364 3.73 12.354 6.679 15.718 9.907.898-1.489 2.132-2.528 3.553-3.004.35-.183.865-.277 1.517-.287.4-.02.81 0 1.226.064 2.218.236 5.371 1.11 8.842 2.543.649.267 1.284.544 1.902.828.34-2.975 3.252-4.206 6.515-2.752 3.268 1.458 5.65 5.061 5.319 8.047-.319 2.888-3.059 4.143-6.195 2.904-1.84-.293-4.174-.946-6.733-1.924.153.958.18 1.982.059 3.071a13.117 13.117 0 0 1-.663 2.869c-.486-.845-1.18-1.564-1.928-1.898-2.094-.934-3.725-.01-3.91 1.661-.235 2.121.935 4.252 2.877 5.247z" fill="#191847"/><path fill-rule="evenodd" clip-rule="evenodd" d="m477 366.554 3.723 23.96 10.098-2.478-3.758-20.941-10.063-.541z" fill="#BA8B72"/><path fill-rule="evenodd" clip-rule="evenodd" d="M419.496 285.541c7.754 39.025 10.573 60.034 10.805 63.487.232 3.453 2.131 26.646-4.202 65.355l10.56 2.067c10.818-36.205 13.02-58.596 14.155-63.406 1.135-4.81 3.553-24.794 6.08-60.18l-37.398-7.323z" fill="#D4A181"/><path fill-rule="evenodd" clip-rule="evenodd" d="M428.701 287.343c4.673 12.84 19.103 32.964 33.299 52.211 6.679 11.932 12.538 17.786 13 37l16.5-1c.13-9.005-.5-31.5-6.5-45.5-7.154-16.692-20.887-22.842-27.023-36.978l-29.276-5.733z" fill="#69A1AC"/><path fill-rule="evenodd" clip-rule="evenodd" d="M419.422 285.526c7.723 39.019 10.074 76.43 5.794 120.688l15.845 3.103c10.945-35.609 17.171-71.158 18.107-116.008l-39.746-7.783z" fill="#89C5CC"/><path fill-rule="evenodd" clip-rule="evenodd" d="m425.833 421.766-.943-9.336c3.574 1.672 7.783 2.115 12.629 1.329 6.156 5.015 13.539 9.062 22.151 12.141.657.235 1.185.929 1.18 1.551a.91.91 0 0 1-.008.118l-.344 2.7-20.977-4.107-12.236-2.396-1.452-2zM478.225 390.11l-1.059-8.184c4.029 1.12 8.775 1.085 14.24-.104 6.939 3.823 15.263 6.663 24.972 8.519.741.142 1.336.704 1.33 1.256a.623.623 0 0 1-.009.106l-.389 2.429-23.653-1.513-13.797-.883-1.635-1.626z" fill="#191847"/><path transform="matrix(.2339 -.80225 .96105 .6472 426.528 636.064)" stroke="#310686" stroke-width="7" d="M0-3.5h360.677"/><path fill-rule="evenodd" clip-rule="evenodd" d="m465.812 262.456 20.797-3.189c3.489-2.604 6.914-4.367 10.276-5.289 1.024-.032 2.808.371 1.103 2.558-1.705 2.187-3.366 4.607-2.53 5.774.836 1.168 2.968.734 3.96 2.53.661 1.197-2.975 1.391-10.907.58l-15.186 7.529-7.513-10.493zm32.204 20.74 9.136-1.415c1.338-4.111 2.892-5.86 4.662-5.246 1.368-.104-1.083 4.814 1.502 5.248 2.584.434 8.937-1.702 10.008-.412 1.584 1.909.096 5.465-1.617 6.881-3.203 2.646-5.828 2.996-12.295 2.355-3.381-.335-7.049.122-11.003 1.37l-.393-8.781z" fill="#D4A181"/><path fill-rule="evenodd" clip-rule="evenodd" d="M455.792 256.43c7.232 2.551 16.896 4.607 27.273 2.172l3.918 9.975c-7.192 4.077-17.249 5.922-25.971 2.525-6.874-2.677-10.275-11.807-5.22-14.672z" fill="#2026A2"/><path fill-rule="evenodd" clip-rule="evenodd" d="M465.333 273.609c7.65 4.593 20.554 7.131 38.711 7.614 4.357 10.384 6.339 17.378 5.948 20.985-15.611 2.023-28.946.612-39.895-3.134.26 6.26-.614 11.81-3.346 16.179-5.617 8.983-37.441-12.768-48.218-14.67-6.436-23.087 6.7-26.755 6.899-39.961.219-14.463 12.837-32.268 14.647-31.611l16.503 5.987c.753 11.379 5.161 25.217 8.751 38.611z" fill="#1F28CF"/><g filter="url(#f)"><rect width="62.938" height="27.535" rx="5" transform="matrix(.62258 .97777 -.70185 .40467 503.326 231.184)" fill="#fff"/></g><text transform="matrix(.62895 .97404 -.69615 .41357 500.021 231.188)" fill="#4508BD" xml:space="preserve" style="white-space:pre" font-family="Montserrat" font-size="13" letter-spacing="0em"><tspan x="15.079" y="12.661">Úvod</tspan></text><defs><filter id="a" x="101" y="299.831" width="200.987" height="295.156" filterUnits="userSpaceOnUse" color-interpolation-filters="sRGB"><feFlood flood-opacity="0" result="BackgroundImageFix"/><feColorMatrix in="SourceAlpha" values="0 0 0 0 0 0 0 0 0 0 0 0 0 0 0 0 0 0 127 0"/><feOffset dx="-2" dy="-2"/><feGaussianBlur stdDeviation="7.5"/><feColorMatrix values="0 0 0 0 0 0 0 0 0 0 0 0 0 0 0 0 0 0 0.15 0"/><feBlend in2="BackgroundImageFix" result="effect1_dropShadow"/><feBlend in="SourceGraphic" in2="effect1_dropShadow" result="shape"/></filter><filter id="b" x="388.427" y="125.513" width="474.212" height="590.444" filterUnits="userSpaceOnUse" color-interpolation-filters="sRGB"><feFlood flood-opacity="0" result="BackgroundImageFix"/><feColorMatrix in="SourceAlpha" values="0 0 0 0 0 0 0 0 0 0 0 0 0 0 0 0 0 0 127 0"/><feOffset dx="-5" dy="-3"/><feGaussianBlur stdDeviation="7.5"/><feColorMatrix values="0 0 0 0 0 0 0 0 0 0 0 0 0 0 0 0 0 0 0.15 0"/><feBlend in2="BackgroundImageFix" result="effect1_dropShadow"/><feBlend in="SourceGraphic" in2="effect1_dropShadow" result="shape"/></filter><filter id="c" x="379.59" y="131.249" width="475.245" height="590.072" filterUnits="userSpaceOnUse" color-interpolation-filters="sRGB"><feFlood flood-opacity="0" result="BackgroundImageFix"/><feColorMatrix in="SourceAlpha" values="0 0 0 0 0 0 0 0 0 0 0 0 0 0 0 0 0 0 127 0"/><feOffset dx="-3" dy="2"/><feGaussianBlur stdDeviation="7.5"/><feColorMatrix values="0 0 0 0 0 0 0 0 0 0 0 0 0 0 0 0 0 0 0.15 0"/><feBlend in2="BackgroundImageFix" result="effect1_dropShadow"/><feBlend in="SourceGraphic" in2="effect1_dropShadow" result="shape"/></filter><filter id="d" x="563.727" y="336.334" width="318.818" height="385.891" filterUnits="userSpaceOnUse" color-interpolation-filters="sRGB"><feFlood flood-opacity="0" result="BackgroundImageFix"/><feColorMatrix in="SourceAlpha" values="0 0 0 0 0 0 0 0 0 0 0 0 0 0 0 0 0 0 127 0"/><feMorphology radius="1" operator="dilate" in="SourceAlpha" result="effect1_dropShadow"/><feOffset/><feGaussianBlur stdDeviation="10"/><feColorMatrix values="0 0 0 0 0.6 0 0 0 0 0.6 0 0 0 0 0.6 0 0 0 0.25 0"/><feBlend in2="BackgroundImageFix" result="effect1_dropShadow"/><feBlend in="SourceGraphic" in2="effect1_dropShadow" result="shape"/></filter><filter id="e" x="405.751" y="139.973" width="421.217" height="283.774" filterUnits="userSpaceOnUse" color-interpolation-filters="sRGB"><feFlood flood-opacity="0" result="BackgroundImageFix"/><feColorMatrix in="SourceAlpha" values="0 0 0 0 0 0 0 0 0 0 0 0 0 0 0 0 0 0 127 0"/><feOffset dy="-2"/><feGaussianBlur stdDeviation="7.5"/><feColorMatrix values="0 0 0 0 0 0 0 0 0 0 0 0 0 0 0 0 0 0 0.15 0"/><feBlend in2="BackgroundImageFix" result="effect1_dropShadow"/><feBlend in="SourceGraphic" in2="effect1_dropShadow" result="shape"/></filter><filter id="f" x="475.431" y="222.303" width="75.648" height="90.442" filterUnits="userSpaceOnUse" color-interpolation-filters="sRGB"><feFlood flood-opacity="0" result="BackgroundImageFix"/><feColorMatrix in="SourceAlpha" values="0 0 0 0 0 0 0 0 0 0 0 0 0 0 0 0 0 0 127 0"/><feMorphology radius=".5" operator="dilate" in="SourceAlpha" result="effect1_dropShadow"/><feOffset/><feGaussianBlur stdDeviation="5"/><feColorMatrix values="0 0 0 0 0 0 0 0 0 0 0 0 0 0 0 0 0 0 0.25 0"/><feBlend in2="BackgroundImageFix" result="effect1_dropShadow"/><feBlend in="SourceGraphic" in2="effect1_dropShadow" result="shape"/></filter></defs></svg>