<?xml version="1.0" encoding="UTF-8" standalone="no"?>
<svg
   xmlns="http://www.w3.org/2000/svg"
   width="1017"
   height="1838"
   viewBox="0 0 1017 1838"
   fill="none">
  <path
     d="M1017 919C1017 1185.2 740.76 1401 400 1401C247.385 1401 107.711 1357.71 -0.000976562 1286V552C107.711 480.286 247.385 437 400 437C740.76 437 1017 652.799 1017 919Z"
     fill="#262461"
     id="svg-sluzby-web-pres-bg-shape" />
   <g id="svg-sluzby-web-pres-content">
     <g
     id="g1193">
    <rect
       width="631.65"
       height="534.473"
       rx="50"
       transform="matrix(0.938191 -0.346117 0 1 179 668.306)"
       fill="#B4A7FF"
       id="rect1191" />
  </g>
  <path
     d="M756.5 468.5L767.5 474.5L764.671 486.66L752 481.784L756.5 468.5Z"
     fill="#B4A7FF"
     id="path1195" />
  <path
     d="M197 1169L215.47 1176.25L211 1193L197 1185.5V1169Z"
     fill="#B4A7FF"
     id="path1197" />
  <g
     id="g1201">
    <rect
       width="631.65"
       height="534.473"
       rx="50"
       transform="matrix(0.938191 -0.346117 0 1 192.339 675.471)"
       fill="white"
       filter="url(#shadow-1)"
       id="rect1199" />
  </g>
  <rect
     width="161.463"
     height="218.274"
     rx="30"
     transform="matrix(0.938191 -0.346117 0 1 596.751 816.759)"
     fill="#6455C1"
     id="rect1203" />
  <g
     id="g954"
     transform="translate(-130.479,-71.449)">
    <g
       id="g1207">
      <rect
         width="161.463"
         height="218.274"
         rx="30"
         transform="matrix(0.938191,-0.346117,0,1,727.23,888.208)"
         fill="#b4a7ff"
         id="rect1205"
         x="0"
         y="0" />
    </g>
    <rect
       width="161.463"
       height="218.274"
       rx="30"
       transform="matrix(0.938191,-0.346117,0,1,733.107,891.55)"
       fill="#ffffff"
       filter="url(#shadow-1)"
       id="rect1209"
       x="0"
       y="0" />
    <path
       fill-rule="evenodd"
       clip-rule="evenodd"
       d="m 778.62769,1093.3361 c 1.403,-27.8 2.74231,-41.2461 15.64531,-71.4861 10.752,-29.443 30.106,-62.06 38.707,-90.711 10.752,-29.445 10.752,-54.923 10.752,-67.662 v -12.739 c 0,0 18.767,-6.923 20.52,-7.57 1.753,-0.646 6.364,-1.481 9.818,-0.632 3.691,0.908 5.588,2.227 7.715,5.377 2.122,3.144 3.48937,7.93517 3.46208,10.178 l 0.0973,55.55894 -0.14817,74.90211 0.14286,39.67015 c 0,0 -0.74911,8.5278 -2.85311,13.7878 -2.104,5.26 -4.724,9.19 -8.416,12.82 -5.259,5.17 -10.04946,7.2103 -10.04946,7.2103 z"
       fill="#6a1eff"
       id="path1211"
       sodipodi:nodetypes="cccsccccscccsccc" />
  </g>
  <rect
     width="161.463"
     height="130.068"
     rx="30"
     transform="matrix(0.938191 -0.346117 0 1 395.91 976.485)"
     fill="#6455C1"
     id="rect1213" />
  <g
     id="g977"
     transform="translate(-124.79001,-31.985207)">
    <g
       id="g1217">
      <rect
         width="161.98883"
         height="133.5631"
         rx="30.097702"
         transform="matrix(0.93514549,-0.3542639,0,1,0,0)"
         fill="#b4a7ff"
         id="rect1215"
         x="556.81177"
         y="1205.7285"
         style="stroke-width:1.015" />
    </g>
    <rect
       width="161.463"
       height="130.06799"
       rx="30"
       transform="matrix(0.938191,-0.346117,0,1,525.736,1010.39)"
       fill="#4508bd"
       id="rect1219"
       x="0"
       y="0" />
    <rect
       width="162.30699"
       height="54.934826"
       rx="26.163"
       transform="matrix(0.938191,-0.346117,0,1,525.736,1088.13)"
       fill="#5c09ff"
       id="rect1221"
       x="0"
       y="0" />
    <path
       fill-rule="evenodd"
       clip-rule="evenodd"
       d="m 525.736,1068.9 c 17.089,-3.14 32.825,-6.83 49.914,-21.05 16.848,-14.13 33.696,-38.02 50.785,-45.38 16.848,-7.535 33.937,1.99 42.361,6.54 l 8.88363,5.275 -0.0519,19.585 -8.83175,3.1 c -8.424,3.11 -25.513,9.42 -42.361,15.63 -17.089,6.31 -33.937,12.52 -50.785,18.74 -17.089,6.3 -32.825,12.11 -49.914,18.41 z"
       fill="#ffffff"
       filter="url(#shadow-1)"
       id="path1223"
       sodipodi:nodetypes="ccccccccccc" />
    <path
       fill-rule="evenodd"
       clip-rule="evenodd"
       d="M 677.65467,1065.8163 666.618,1067.48 c -10.603,1.54 -32.111,5 -53.317,9.4 -21.508,4.78 -42.713,10.23 -64.222,26.06 -21.238,15.06 -23.342,15.84 -23.342,15.84 v -30.65 c 21.508,-7.93 66.056,-24.37 87.564,-32.3 21.206,-7.83 42.714,-15.76 53.317,-19.67 l 11.00973,-2.29 z"
       fill="#ffffff"
       id="path1225"
       sodipodi:nodetypes="cccccccccc" />
  </g>
  <rect
     width="161.463"
     height="130.068"
     rx="25"
     transform="matrix(0.938191 -0.346117 0 1 600.768 645.848)"
     fill="#6455C1"
     id="rect1227" />
  <g
     id="g969"
     transform="translate(-81.886,-43.191)">
    <g
       id="g1231">
      <rect
         width="161.463"
         height="130.06799"
         rx="25"
         transform="matrix(0.938191,-0.346117,0,1,682.654,689.039)"
         fill="#b4a7ff"
         id="rect1229"
         x="0"
         y="0" />
    </g>
    <rect
       width="161.463"
       height="130.06799"
       rx="25"
       transform="matrix(0.938191,-0.346117,0,1,688.61,692.233)"
       fill="white"
       filter="url(#shadow-1)"
       id="rect1233"
       style="fill:#ffffff"
       x="0"
       y="0" />
    <path
       fill-rule="evenodd"
       clip-rule="evenodd"
       d="m 842.72602,663.07929 0.10731,13.64971 -1.89588,62.00065 c 0,0 -8.03,-35.489 -15.078,-49.941 -7.049,-14.452 -16.271,-18.406 -31.104,-23.801 L 779.08,658.873 819.054,644.126 c 0,0 9.793,-3.172 15.403,2.114 5.611,5.286 8.29348,12.22536 8.26902,16.83929 z"
       fill="#4508bd"
       id="path1235"
       sodipodi:nodetypes="scccccccs" />
    <path
       fill-rule="evenodd"
       clip-rule="evenodd"
       d="m 728.164,677.641 -3.296,6.636 c -3.296,6.635 -9.889,19.906 -1.648,27.705 8.24,7.799 24.546,12.623 22.898,24.07 -1.648,11.447 -21.25,29.517 -19.602,39.748 1.648,10.231 31.314,10.126 46.146,10.073 l 17.28338,-0.10983 -78.36367,29.66049 c 0,0 -3.84966,1.71863 -11.04971,0.23634 -5.25475,-1.49647 -6.29116,-2.645 -9.467,-6.225 -2.455,-3.579 -3.024,-9.11059 -3.024,-9.11059 l -0.005,-10.91507 -0.0255,-33.2168 -0.0597,-31.47803 -0.15297,-11.51912 c 0,0 0.69282,-3.90285 2.21519,-7.27639 1.402,-4.255 4.208,-9.401 9.117,-14.576 4.909,-5.175 11.455,-7.216 11.455,-7.216 z"
       fill="#5c09ff"
       id="path1237"
       sodipodi:nodetypes="cccsscccccccccccscc" />
  </g>
  <rect
     width="161.46294"
     height="218.274"
     rx="29.99999"
     transform="matrix(0.93819131,-0.34611712,0,1,0,0)"
     fill="#6455c1"
     id="rect1239"
     x="421.99283"
     y="863.89795" />
  <g
     id="g962"
     transform="translate(-92.886007,-36.103995)">
    <rect
       width="161.46294"
       height="218.274"
       rx="29.99999"
       transform="matrix(0.93819131,-0.34611712,0,1,0,0)"
       fill="#b4a7ff"
       id="rect1241"
       x="520.99823"
       y="934.26941" />
    <rect
       width="161.463"
       height="218.274"
       rx="30"
       transform="matrix(0.938191,-0.346117,0,1,492.994,756.989)"
       fill="#ffffff"
       filter="url(#shadow-1)"
       id="rect1243"
       x="0"
       y="0" />
    <path
       fill-rule="evenodd"
       clip-rule="evenodd"
       d="m 492.996,878.684 4.207,-2.955 c 4.208,-2.956 12.624,-8.867 21.04,-9.165 8.416,-0.299 16.831,6.418 25.247,11.731 8.416,6.716 16.832,12.03 25.247,11.731 8.416,-0.298 19.2,-7.326 28.053,-16.967 12.974,-14.131 18.234,-20.93 27.702,-35.262 8.793,-13.31 14.026,-28.721 15.779,-44.312 l 4.40867,-26.67822 0.38801,110.4573 -4.79668,1.80492 c -4.208,1.553 -12.623,4.657 -21.039,7.762 -8.416,3.105 -16.832,6.21 -25.247,9.314 l -25.248,9.315 c -8.415,3.104 -16.831,6.209 -25.247,9.314 -8.416,3.105 -16.831,6.209 -25.247,9.314 -8.416,3.105 -16.832,6.209 -21.04,7.762 l -4.207,1.552 z"
       fill="#4508bd"
       id="path1245"
       sodipodi:nodetypes="ccccccsccccsccssccc" />
    <path
       d="m 492.994,932.46 152.07368,-56.86498 -0.18182,21.72579 c -0.0224,2.6749 -1.22086,7.12719 -3.21386,11.62719 -2.129,4.807 -4.022,7.573 -7.714,11.254 -3.684,3.672 -5.70425,5.13976 -10.54534,7.398 -4.94676,2.98196 -102.30836,39.21998 -107.73361,39.70494 -2.05842,0.184 -8.48405,1.98106 -12.16505,1.02006 -4.195,-1.095 -6.308,-2.854 -8.416,-6.832 -1.473,-2.781 -2.104,-6.103 -2.104,-8.396 z"
       fill="#4508bd"
       id="path1247"
       sodipodi:nodetypes="ccssccsscsc" />
  </g>
  <ellipse
     rx="3.34993"
     ry="3.41388"
     transform="matrix(0.938191 -0.346117 0 1 307.857 1134.16)"
     fill="white"
     id="ellipse1265" />
  <ellipse
     rx="3.34993"
     ry="3.41388"
     transform="matrix(0.938191 -0.346117 0 1 307.857 1082.95)"
     fill="white"
     id="ellipse1269" />
  <ellipse
     rx="3.34993"
     ry="3.41388"
     transform="matrix(0.938191 -0.346117 0 1 307.857 1031.74)"
     fill="white"
     id="ellipse1273" />
  <ellipse
     rx="3.34993"
     ry="3.41388"
     transform="matrix(0.938191 -0.346117 0 1 307.857 980.533)"
     fill="white"
     id="ellipse1277" />
  <ellipse
     rx="3.34993"
     ry="3.41388"
     transform="matrix(0.938191 -0.346117 0 1 307.857 933.877)"
     fill="white"
     id="ellipse1281" />
  <ellipse
     rx="3.34993"
     ry="3.41388"
     transform="matrix(0.938191 -0.346117 0 1 307.857 900.876)"
     fill="white"
     id="ellipse1285" />
  <ellipse
     rx="3.34993"
     ry="3.41388"
     transform="matrix(0.938191 -0.346117 0 1 307.857 866.737)"
     fill="white"
     id="ellipse1289" />
  <rect
     width="565.869"
     height="32.1432"
     rx="16.0716"
     transform="matrix(0.938191 -0.346117 0 1 225.194 689.64)"
     fill="#6455C1"
     id="rect1351" />
  <rect
     width="146.46201"
     height="387.285"
     rx="20"
     transform="matrix(0.938191,-0.346117,0,1,228.04188,781.10672)"
     fill="#b4a7ff"
     filter="url(#shadow-1)"
     id="rect119"
     x="0"
     y="0"
     style="fill:#6455c1;fill-opacity:1" />
  <g
     id="g208"
     transform="translate(-54.0205,-55.23195)">
    <rect
       width="146.46201"
       height="387.285"
       rx="20"
       transform="matrix(0.938191,-0.346117,0,1,282.06238,836.33867)"
       fill="#b4a7ff"
       filter="url(#shadow-1)"
       id="rect1253"
       x="0"
       y="0" />
    <rect
       width="145.60695"
       height="387.285"
       rx="19.999992"
       transform="matrix(0.93819131,-0.34611712,0,1,0,0)"
       fill="#310686"
       id="rect1257"
       x="305.97424"
       y="944.90558" />
    <g
       id="g1114"
       transform="translate(2.0623845,-1.4043307)">
      <rect
         width="2.23329"
         height="319.76599"
         transform="matrix(0.938191,-0.346117,0,1,306.809,865.986)"
         fill="#ffffff"
         id="rect1259"
         x="0"
         y="0" />
      <ellipse
         rx="3.34993"
         ry="3.4138801"
         transform="matrix(0.938191,-0.346117,0,1,307.857,1185.37)"
         fill="#ffffff"
         id="ellipse1263"
         cx="0"
         cy="0" />
      <ellipse
         rx="3.34993"
         ry="3.4138801"
         transform="matrix(0.938191,-0.346117,0,1,307.857,1134.16)"
         fill="#ffffff"
         id="ellipse1267"
         cx="0"
         cy="0" />
      <ellipse
         rx="3.34993"
         ry="3.4138801"
         transform="matrix(0.938191,-0.346117,0,1,307.857,1082.95)"
         fill="#ffffff"
         id="ellipse1271"
         cx="0"
         cy="0" />
      <ellipse
         rx="3.34993"
         ry="3.4138801"
         transform="matrix(0.938191,-0.346117,0,1,307.857,1031.74)"
         fill="#ffffff"
         id="ellipse1275"
         cx="0"
         cy="0" />
      <ellipse
         rx="3.34993"
         ry="3.4138801"
         transform="matrix(0.938191,-0.346117,0,1,307.857,980.533)"
         fill="#ffffff"
         id="ellipse1279"
         cx="0"
         cy="0" />
      <ellipse
         rx="3.34993"
         ry="3.4138801"
         transform="matrix(0.938191,-0.346117,0,1,307.857,933.877)"
         fill="#ffffff"
         id="ellipse1283"
         cx="0"
         cy="0" />
      <ellipse
         rx="3.34993"
         ry="3.4138801"
         transform="matrix(0.938191,-0.346117,0,1,307.857,900.876)"
         fill="#ffffff"
         id="ellipse1287"
         cx="0"
         cy="0" />
      <ellipse
         rx="3.34993"
         ry="3.4138801"
         transform="matrix(0.938191,-0.346117,0,1,307.857,866.737)"
         fill="#ffffff"
         id="ellipse1291"
         cx="0"
         cy="0" />
      <path
         d="m 298.829,1195.65 0.6,-0.22 v 4.91 l -0.478,0.18 -2.674,-1.93 c -0.338,-0.24 -0.629,-0.38 -0.873,-0.41 -0.25,-0.05 -0.5,-0.02 -0.75,0.07 -0.388,0.15 -0.688,0.4 -0.901,0.76 -0.219,0.37 -0.328,0.81 -0.328,1.34 0,0.82 0.244,1.36 0.732,1.64 l -0.413,0.66 c -0.3,-0.16 -0.532,-0.43 -0.694,-0.79 -0.163,-0.36 -0.244,-0.81 -0.244,-1.35 0,-0.71 0.159,-1.33 0.478,-1.86 0.313,-0.54 0.744,-0.91 1.295,-1.11 0.338,-0.12 0.663,-0.16 0.976,-0.12 0.312,0.04 0.672,0.22 1.078,0.51 l 2.196,1.57 z m 0.657,-3.89 c 0,0.54 -0.135,1.07 -0.404,1.59 -0.269,0.52 -0.653,1 -1.154,1.42 -0.506,0.42 -1.101,0.76 -1.782,1.01 -0.682,0.25 -1.273,0.35 -1.774,0.3 -0.506,-0.05 -0.894,-0.24 -1.163,-0.56 -0.269,-0.33 -0.403,-0.76 -0.403,-1.3 0,-0.54 0.134,-1.07 0.403,-1.59 0.269,-0.53 0.657,-1 1.163,-1.43 0.501,-0.42 1.092,-0.76 1.774,-1.01 0.681,-0.25 1.276,-0.35 1.782,-0.3 0.501,0.06 0.885,0.25 1.154,0.57 0.269,0.32 0.404,0.76 0.404,1.3 z m -0.62,0.22 c 0,-0.4 -0.106,-0.72 -0.319,-0.95 -0.212,-0.23 -0.522,-0.36 -0.928,-0.39 -0.407,-0.02 -0.898,0.08 -1.473,0.29 -0.576,0.21 -1.067,0.48 -1.473,0.8 -0.407,0.32 -0.717,0.68 -0.929,1.07 -0.213,0.39 -0.319,0.78 -0.319,1.19 0,0.41 0.106,0.73 0.319,0.96 0.212,0.23 0.522,0.36 0.929,0.38 0.406,0.02 0.897,-0.07 1.473,-0.28 0.575,-0.21 1.066,-0.48 1.473,-0.81 0.406,-0.32 0.716,-0.67 0.928,-1.06 0.213,-0.39 0.319,-0.79 0.319,-1.2 z m -0.037,-8.57 0.6,-0.23 v 4.91 l -0.478,0.18 -2.674,-1.92 c -0.338,-0.24 -0.629,-0.38 -0.873,-0.42 -0.25,-0.04 -0.5,-0.02 -0.75,0.08 -0.388,0.14 -0.688,0.39 -0.901,0.76 -0.219,0.36 -0.328,0.8 -0.328,1.33 0,0.82 0.244,1.37 0.732,1.64 l -0.413,0.66 c -0.3,-0.16 -0.532,-0.42 -0.694,-0.78 -0.163,-0.37 -0.244,-0.82 -0.244,-1.35 0,-0.72 0.159,-1.34 0.478,-1.87 0.313,-0.53 0.744,-0.9 1.295,-1.11 0.338,-0.12 0.663,-0.16 0.976,-0.12 0.312,0.05 0.672,0.22 1.078,0.52 l 2.196,1.57 z m 0.657,-3.9 c 0,0.54 -0.135,1.07 -0.404,1.6 -0.269,0.52 -0.653,0.99 -1.154,1.41 -0.506,0.42 -1.101,0.76 -1.782,1.01 -0.682,0.25 -1.273,0.35 -1.774,0.31 -0.506,-0.06 -0.894,-0.24 -1.163,-0.57 -0.269,-0.32 -0.403,-0.76 -0.403,-1.3 0,-0.54 0.134,-1.07 0.403,-1.59 0.269,-0.52 0.657,-1 1.163,-1.42 0.501,-0.43 1.092,-0.77 1.774,-1.02 0.681,-0.25 1.276,-0.35 1.782,-0.3 0.501,0.06 0.885,0.25 1.154,0.58 0.269,0.32 0.404,0.75 0.404,1.29 z m -0.62,0.23 c 0,-0.41 -0.106,-0.73 -0.319,-0.95 -0.212,-0.24 -0.522,-0.37 -0.928,-0.39 -0.407,-0.03 -0.898,0.07 -1.473,0.28 -0.576,0.21 -1.067,0.48 -1.473,0.8 -0.407,0.33 -0.717,0.69 -0.929,1.08 -0.213,0.38 -0.319,0.78 -0.319,1.19 0,0.4 0.106,0.72 0.319,0.96 0.212,0.23 0.522,0.35 0.929,0.37 0.406,0.03 0.897,-0.07 1.473,-0.28 0.575,-0.21 1.066,-0.48 1.473,-0.8 0.406,-0.33 0.716,-0.68 0.928,-1.06 0.213,-0.4 0.319,-0.8 0.319,-1.2 z"
         fill="#ffffff"
         id="path1293" />
      <path
         d="m 297.781,1143.35 0.601,-0.23 v 4.91 l -0.479,0.18 -2.673,-1.92 c -0.338,-0.24 -0.629,-0.38 -0.873,-0.42 -0.25,-0.04 -0.5,-0.02 -0.75,0.08 -0.388,0.14 -0.688,0.39 -0.901,0.76 -0.219,0.36 -0.329,0.8 -0.329,1.33 0,0.82 0.244,1.37 0.732,1.64 l -0.413,0.66 c -0.3,-0.16 -0.531,-0.42 -0.694,-0.78 -0.162,-0.37 -0.244,-0.82 -0.244,-1.35 0,-0.72 0.16,-1.34 0.479,-1.87 0.312,-0.53 0.744,-0.9 1.294,-1.11 0.338,-0.12 0.663,-0.16 0.976,-0.12 0.313,0.05 0.673,0.22 1.079,0.52 l 2.195,1.57 z m 0.657,-3.9 c 0,0.54 -0.134,1.07 -0.403,1.6 -0.269,0.52 -0.654,0.99 -1.154,1.41 -0.507,0.42 -1.101,0.76 -1.783,1.01 -0.682,0.25 -1.273,0.35 -1.773,0.31 -0.507,-0.06 -0.894,-0.24 -1.163,-0.57 -0.269,-0.32 -0.404,-0.76 -0.404,-1.3 0,-0.54 0.135,-1.07 0.404,-1.59 0.269,-0.52 0.656,-1 1.163,-1.42 0.5,-0.43 1.091,-0.77 1.773,-1.02 0.682,-0.25 1.276,-0.35 1.783,-0.3 0.5,0.06 0.885,0.25 1.154,0.58 0.269,0.32 0.403,0.75 0.403,1.29 z m -0.619,0.23 c 0,-0.41 -0.106,-0.73 -0.319,-0.95 -0.213,-0.24 -0.522,-0.37 -0.929,-0.39 -0.406,-0.03 -0.897,0.07 -1.473,0.28 -0.575,0.21 -1.066,0.48 -1.473,0.8 -0.406,0.33 -0.716,0.69 -0.929,1.08 -0.212,0.38 -0.319,0.78 -0.319,1.19 0,0.4 0.107,0.72 0.319,0.96 0.213,0.23 0.523,0.35 0.929,0.37 0.407,0.03 0.898,-0.07 1.473,-0.28 0.576,-0.21 1.067,-0.48 1.473,-0.8 0.407,-0.33 0.716,-0.68 0.929,-1.06 0.213,-0.4 0.319,-0.8 0.319,-1.2 z m -0.038,-8.58 0.601,-0.22 v 4.91 l -0.479,0.18 -2.673,-1.93 c -0.338,-0.24 -0.629,-0.38 -0.873,-0.42 -0.25,-0.04 -0.5,-0.01 -0.75,0.08 -0.388,0.14 -0.688,0.4 -0.901,0.76 -0.219,0.36 -0.329,0.81 -0.329,1.33 0,0.82 0.244,1.37 0.732,1.64 l -0.413,0.67 c -0.3,-0.17 -0.531,-0.43 -0.694,-0.79 -0.162,-0.36 -0.244,-0.81 -0.244,-1.35 0,-0.71 0.16,-1.33 0.479,-1.86 0.312,-0.54 0.744,-0.91 1.294,-1.11 0.338,-0.13 0.663,-0.17 0.976,-0.12 0.313,0.04 0.673,0.21 1.079,0.51 l 2.195,1.57 z m -5.966,-0.64 6.567,-2.43 v 0.72 l -5.967,2.21 v 1.65 l -0.6,0.22 z"
         fill="#ffffff"
         id="path1295" />
      <path
         d="m 297.781,1093.17 0.601,-0.22 v 4.91 l -0.479,0.18 -2.673,-1.93 c -0.338,-0.24 -0.629,-0.38 -0.873,-0.41 -0.25,-0.04 -0.5,-0.02 -0.75,0.07 -0.388,0.15 -0.688,0.4 -0.901,0.77 -0.219,0.36 -0.329,0.8 -0.329,1.33 0,0.82 0.244,1.36 0.732,1.64 l -0.413,0.66 c -0.3,-0.16 -0.531,-0.42 -0.694,-0.78 -0.162,-0.37 -0.244,-0.82 -0.244,-1.35 0,-0.72 0.16,-1.34 0.479,-1.87 0.312,-0.54 0.744,-0.91 1.294,-1.11 0.338,-0.12 0.663,-0.16 0.976,-0.12 0.313,0.05 0.673,0.22 1.079,0.51 l 2.195,1.57 z m 0.657,-3.89 c 0,0.54 -0.134,1.07 -0.403,1.6 -0.269,0.51 -0.654,0.99 -1.154,1.41 -0.507,0.42 -1.101,0.76 -1.783,1.01 -0.682,0.25 -1.273,0.35 -1.773,0.3 -0.507,-0.05 -0.894,-0.24 -1.163,-0.56 -0.269,-0.33 -0.404,-0.76 -0.404,-1.3 0,-0.54 0.135,-1.07 0.404,-1.59 0.269,-0.52 0.656,-1 1.163,-1.43 0.5,-0.42 1.091,-0.76 1.773,-1.01 0.682,-0.25 1.276,-0.35 1.783,-0.3 0.5,0.06 0.885,0.25 1.154,0.58 0.269,0.32 0.403,0.75 0.403,1.29 z m -0.619,0.22 c 0,-0.4 -0.106,-0.72 -0.319,-0.95 -0.213,-0.23 -0.522,-0.36 -0.929,-0.38 -0.406,-0.03 -0.897,0.07 -1.473,0.28 -0.575,0.21 -1.066,0.48 -1.473,0.8 -0.406,0.33 -0.716,0.68 -0.929,1.07 -0.212,0.39 -0.319,0.79 -0.319,1.19 0,0.41 0.107,0.73 0.319,0.96 0.213,0.23 0.523,0.36 0.929,0.38 0.407,0.03 0.898,-0.07 1.473,-0.28 0.576,-0.21 1.067,-0.48 1.473,-0.8 0.407,-0.33 0.716,-0.68 0.929,-1.07 0.213,-0.39 0.319,-0.79 0.319,-1.2 z m -0.038,-8.57 0.601,-0.22 v 4.91 l -0.479,0.17 -2.673,-1.92 c -0.338,-0.24 -0.629,-0.38 -0.873,-0.42 -0.25,-0.04 -0.5,-0.01 -0.75,0.08 -0.388,0.14 -0.688,0.39 -0.901,0.76 -0.219,0.36 -0.329,0.8 -0.329,1.33 0,0.82 0.244,1.37 0.732,1.64 l -0.413,0.66 c -0.3,-0.16 -0.531,-0.42 -0.694,-0.78 -0.162,-0.37 -0.244,-0.82 -0.244,-1.35 0,-0.71 0.16,-1.34 0.479,-1.87 0.312,-0.53 0.744,-0.9 1.294,-1.11 0.338,-0.12 0.663,-0.16 0.976,-0.11 0.313,0.04 0.673,0.21 1.079,0.51 l 2.195,1.57 z m 0,-5.69 0.601,-0.22 v 4.91 l -0.479,0.18 -2.673,-1.93 c -0.338,-0.24 -0.629,-0.38 -0.873,-0.41 -0.25,-0.04 -0.5,-0.02 -0.75,0.07 -0.388,0.15 -0.688,0.4 -0.901,0.77 -0.219,0.36 -0.329,0.8 -0.329,1.33 0,0.82 0.244,1.36 0.732,1.64 l -0.413,0.66 c -0.3,-0.16 -0.531,-0.42 -0.694,-0.78 -0.162,-0.37 -0.244,-0.82 -0.244,-1.35 0,-0.72 0.16,-1.34 0.479,-1.87 0.312,-0.54 0.744,-0.91 1.294,-1.11 0.338,-0.12 0.663,-0.16 0.976,-0.12 0.313,0.05 0.673,0.22 1.079,0.51 l 2.195,1.57 z"
         fill="#ffffff"
         id="path1297" />
      <path
         d="m 297.781,1041.95 0.601,-0.23 v 4.91 l -0.479,0.18 -2.673,-1.92 c -0.338,-0.25 -0.629,-0.38 -0.873,-0.42 -0.25,-0.04 -0.5,-0.02 -0.75,0.08 -0.388,0.14 -0.688,0.39 -0.901,0.76 -0.219,0.36 -0.329,0.8 -0.329,1.33 0,0.82 0.244,1.37 0.732,1.64 l -0.413,0.66 c -0.3,-0.16 -0.531,-0.42 -0.694,-0.78 -0.162,-0.37 -0.244,-0.82 -0.244,-1.35 0,-0.72 0.16,-1.34 0.479,-1.87 0.312,-0.53 0.744,-0.9 1.294,-1.11 0.338,-0.12 0.663,-0.16 0.976,-0.12 0.313,0.05 0.673,0.22 1.079,0.52 l 2.195,1.57 z m 0.657,-3.9 c 0,0.54 -0.134,1.07 -0.403,1.6 -0.269,0.52 -0.654,0.99 -1.154,1.41 -0.507,0.42 -1.101,0.76 -1.783,1.01 -0.682,0.25 -1.273,0.35 -1.773,0.31 -0.507,-0.06 -0.894,-0.25 -1.163,-0.57 -0.269,-0.32 -0.404,-0.76 -0.404,-1.3 0,-0.54 0.135,-1.07 0.404,-1.59 0.269,-0.52 0.656,-1 1.163,-1.42 0.5,-0.43 1.091,-0.77 1.773,-1.02 0.682,-0.25 1.276,-0.35 1.783,-0.3 0.5,0.06 0.885,0.25 1.154,0.58 0.269,0.32 0.403,0.75 0.403,1.29 z m -0.619,0.23 c 0,-0.41 -0.106,-0.73 -0.319,-0.96 -0.213,-0.23 -0.522,-0.36 -0.929,-0.38 -0.406,-0.03 -0.897,0.07 -1.473,0.28 -0.575,0.21 -1.066,0.48 -1.473,0.8 -0.406,0.33 -0.716,0.69 -0.929,1.08 -0.212,0.38 -0.319,0.78 -0.319,1.18 0,0.41 0.107,0.73 0.319,0.97 0.213,0.23 0.523,0.35 0.929,0.37 0.407,0.03 0.898,-0.07 1.473,-0.28 0.576,-0.21 1.067,-0.48 1.473,-0.8 0.407,-0.33 0.716,-0.68 0.929,-1.07 0.213,-0.39 0.319,-0.79 0.319,-1.19 z m -0.038,-8.58 0.601,-0.22 v 4.91 l -0.479,0.17 -2.673,-1.92 c -0.338,-0.24 -0.629,-0.38 -0.873,-0.42 -0.25,-0.04 -0.5,-0.01 -0.75,0.08 -0.388,0.14 -0.688,0.4 -0.901,0.76 -0.219,0.36 -0.329,0.81 -0.329,1.33 0,0.82 0.244,1.37 0.732,1.64 l -0.413,0.67 c -0.3,-0.17 -0.531,-0.43 -0.694,-0.79 -0.162,-0.37 -0.244,-0.82 -0.244,-1.35 0,-0.71 0.16,-1.33 0.479,-1.87 0.312,-0.53 0.744,-0.9 1.294,-1.1 0.338,-0.13 0.663,-0.17 0.976,-0.12 0.313,0.04 0.673,0.21 1.079,0.51 l 2.195,1.57 z m -3.152,-2.12 c 0.038,-0.75 0.225,-1.37 0.563,-1.88 0.332,-0.51 0.766,-0.86 1.304,-1.06 0.375,-0.14 0.71,-0.17 1.004,-0.08 0.288,0.09 0.516,0.29 0.685,0.61 0.169,0.31 0.253,0.75 0.253,1.29 0,0.51 -0.075,1.02 -0.225,1.53 -0.156,0.5 -0.363,0.94 -0.619,1.31 l -0.535,-0.16 c 0.225,-0.31 0.41,-0.69 0.554,-1.13 0.137,-0.44 0.206,-0.88 0.206,-1.32 0,-0.57 -0.116,-0.97 -0.347,-1.2 -0.238,-0.23 -0.563,-0.26 -0.976,-0.11 -0.406,0.15 -0.725,0.42 -0.957,0.82 -0.231,0.4 -0.347,0.92 -0.347,1.55 v 0.5 l -0.497,0.18 -2.28,-1.09 v 3.58 l -0.6,0.22 v -4.5 l 0.478,-0.18 z"
         fill="#ffffff"
         id="path1299" />
      <path
         d="m 297.781,991.104 0.601,-0.222 v 4.91 l -0.479,0.177 -2.673,-1.924 c -0.338,-0.242 -0.629,-0.381 -0.873,-0.418 -0.25,-0.041 -0.5,-0.015 -0.75,0.077 -0.388,0.143 -0.688,0.397 -0.901,0.762 -0.219,0.361 -0.329,0.805 -0.329,1.331 0,0.82 0.244,1.367 0.732,1.64 l -0.413,0.663 c -0.3,-0.163 -0.531,-0.424 -0.694,-0.784 -0.162,-0.367 -0.244,-0.817 -0.244,-1.35 0,-0.714 0.16,-1.336 0.479,-1.867 0.312,-0.535 0.744,-0.904 1.294,-1.108 0.338,-0.124 0.663,-0.164 0.976,-0.119 0.313,0.044 0.673,0.215 1.079,0.511 l 2.195,1.571 z m 0.657,-3.897 c 0,0.54 -0.134,1.073 -0.403,1.599 -0.269,0.519 -0.654,0.991 -1.154,1.415 -0.507,0.421 -1.101,0.756 -1.783,1.008 -0.682,0.251 -1.273,0.353 -1.773,0.304 -0.507,-0.053 -0.894,-0.24 -1.163,-0.561 -0.269,-0.327 -0.404,-0.761 -0.404,-1.301 0,-0.54 0.135,-1.069 0.404,-1.589 0.269,-0.526 0.656,-1.002 1.163,-1.429 0.5,-0.424 1.091,-0.763 1.773,-1.014 0.682,-0.252 1.276,-0.351 1.783,-0.298 0.5,0.056 0.885,0.247 1.154,0.575 0.269,0.32 0.403,0.751 0.403,1.291 z m -0.619,0.228 c 0,-0.406 -0.106,-0.724 -0.319,-0.952 -0.213,-0.235 -0.522,-0.364 -0.929,-0.387 -0.406,-0.024 -0.897,0.071 -1.473,0.283 -0.575,0.212 -1.066,0.48 -1.473,0.803 -0.406,0.324 -0.716,0.681 -0.929,1.073 -0.212,0.385 -0.319,0.781 -0.319,1.188 0,0.406 0.107,0.727 0.319,0.962 0.213,0.228 0.523,0.354 0.929,0.377 0.407,0.024 0.898,-0.071 1.473,-0.283 0.576,-0.212 1.067,-0.48 1.473,-0.803 0.407,-0.324 0.716,-0.678 0.929,-1.063 0.213,-0.392 0.319,-0.791 0.319,-1.198 z m -0.038,-8.578 0.601,-0.221 v 4.91 l -0.479,0.176 -2.673,-1.923 c -0.338,-0.242 -0.629,-0.382 -0.873,-0.418 -0.25,-0.041 -0.5,-0.016 -0.75,0.077 -0.388,0.143 -0.688,0.397 -0.901,0.762 -0.219,0.361 -0.329,0.804 -0.329,1.331 0,0.82 0.244,1.367 0.732,1.64 l -0.413,0.662 c -0.3,-0.162 -0.531,-0.423 -0.694,-0.783 -0.162,-0.367 -0.244,-0.817 -0.244,-1.35 0,-0.714 0.16,-1.336 0.479,-1.867 0.312,-0.535 0.744,-0.905 1.294,-1.108 0.338,-0.124 0.663,-0.164 0.976,-0.12 0.313,0.045 0.673,0.216 1.079,0.512 l 2.195,1.57 z m -1.125,-6.203 v 1.4 l 1.726,-0.637 v 0.72 l -1.726,0.637 v 3.95 l -0.488,0.18 -4.353,-2.104 V 976 l 4.24,2.015 v -3.04 l -1.52,0.561 v -0.7 l 1.52,-0.561 v -1.4 z"
         fill="#ffffff"
         id="path1301" />
      <path
         d="m 297.781,944.091 0.601,-0.222 v 4.91 l -0.479,0.177 -2.673,-1.924 c -0.338,-0.242 -0.629,-0.381 -0.873,-0.418 -0.25,-0.041 -0.5,-0.015 -0.75,0.077 -0.388,0.143 -0.688,0.397 -0.901,0.762 -0.219,0.361 -0.329,0.805 -0.329,1.331 0,0.82 0.244,1.367 0.732,1.64 l -0.413,0.663 c -0.3,-0.163 -0.531,-0.424 -0.694,-0.784 -0.162,-0.367 -0.244,-0.817 -0.244,-1.35 0,-0.713 0.16,-1.336 0.479,-1.867 0.312,-0.535 0.744,-0.904 1.294,-1.107 0.338,-0.125 0.663,-0.165 0.976,-0.12 0.313,0.044 0.673,0.215 1.079,0.512 l 2.195,1.57 z m 0.657,-3.897 c 0,0.54 -0.134,1.073 -0.403,1.599 -0.269,0.519 -0.654,0.991 -1.154,1.416 -0.507,0.42 -1.101,0.756 -1.783,1.007 -0.682,0.252 -1.273,0.353 -1.773,0.304 -0.507,-0.053 -0.894,-0.24 -1.163,-0.56 -0.269,-0.328 -0.404,-0.762 -0.404,-1.302 0,-0.54 0.135,-1.069 0.404,-1.588 0.269,-0.526 0.656,-1.003 1.163,-1.43 0.5,-0.424 1.091,-0.762 1.773,-1.014 0.682,-0.251 1.276,-0.351 1.783,-0.297 0.5,0.055 0.885,0.246 1.154,0.574 0.269,0.321 0.403,0.751 0.403,1.291 z m -0.619,0.228 c 0,-0.406 -0.106,-0.724 -0.319,-0.952 -0.213,-0.235 -0.522,-0.364 -0.929,-0.387 -0.406,-0.024 -0.897,0.071 -1.473,0.283 -0.575,0.212 -1.066,0.48 -1.473,0.804 -0.406,0.323 -0.716,0.68 -0.929,1.072 -0.212,0.385 -0.319,0.781 -0.319,1.188 0,0.407 0.107,0.727 0.319,0.962 0.213,0.228 0.523,0.354 0.929,0.378 0.407,0.023 0.898,-0.072 1.473,-0.284 0.576,-0.212 1.067,-0.48 1.473,-0.803 0.407,-0.324 0.716,-0.678 0.929,-1.063 0.213,-0.392 0.319,-0.791 0.319,-1.198 z m -0.038,-8.577 0.601,-0.222 v 4.91 l -0.479,0.177 -2.673,-1.924 c -0.338,-0.242 -0.629,-0.381 -0.873,-0.418 -0.25,-0.041 -0.5,-0.015 -0.75,0.077 -0.388,0.143 -0.688,0.397 -0.901,0.762 -0.219,0.361 -0.329,0.805 -0.329,1.331 0,0.82 0.244,1.367 0.732,1.64 l -0.413,0.663 c -0.3,-0.163 -0.531,-0.424 -0.694,-0.784 -0.162,-0.367 -0.244,-0.817 -0.244,-1.35 0,-0.714 0.16,-1.336 0.479,-1.867 0.312,-0.535 0.744,-0.904 1.294,-1.107 0.338,-0.125 0.663,-0.165 0.976,-0.12 0.313,0.044 0.673,0.215 1.079,0.512 l 2.195,1.57 z m -3.274,-1.536 c 0,-1.013 0.172,-1.813 0.516,-2.4 0.338,-0.592 0.813,-1 1.426,-1.226 0.382,-0.141 0.723,-0.17 1.023,-0.088 0.3,0.076 0.538,0.272 0.713,0.587 0.169,0.318 0.253,0.754 0.253,1.307 0,0.5 -0.075,1.004 -0.225,1.513 -0.156,0.504 -0.363,0.94 -0.619,1.308 l -0.535,-0.152 c 0.225,-0.317 0.41,-0.692 0.554,-1.125 0.137,-0.43 0.206,-0.866 0.206,-1.306 0,-0.58 -0.122,-0.981 -0.366,-1.205 -0.244,-0.23 -0.569,-0.27 -0.976,-0.12 -0.45,0.166 -0.791,0.472 -1.022,0.917 -0.232,0.439 -0.347,1.082 -0.347,1.929 v 1.49 l -3.293,0.854 v -3.83 l 0.6,-0.221 v 3.2 l 2.092,-0.532 z"
         fill="#ffffff"
         id="path1303" />
      <path
         d="m 293.566,919.065 v -2.28 c 0,-0.592 0.112,-1.157 0.337,-1.693 0.221,-0.535 0.531,-1.001 0.931,-1.399 0.395,-0.397 0.848,-0.689 1.359,-0.878 0.51,-0.188 0.965,-0.231 1.366,-0.128 0.395,0.105 0.705,0.343 0.93,0.713 0.22,0.372 0.331,0.854 0.331,1.446 v 2.28 z m 4.773,-4.01 c 0,-0.49 -0.09,-0.886 -0.27,-1.188 -0.185,-0.3 -0.438,-0.492 -0.758,-0.576 -0.325,-0.083 -0.698,-0.047 -1.118,0.108 -0.421,0.155 -0.791,0.393 -1.111,0.714 -0.325,0.323 -0.578,0.701 -0.758,1.136 -0.185,0.436 -0.278,0.9 -0.278,1.39 v 1.656 l 4.293,-1.584 z m -3.467,-6.754 3.948,-1.456 v 0.544 l -0.721,0.266 c 0.24,0.06 0.428,0.197 0.563,0.408 0.13,0.213 0.195,0.488 0.195,0.824 0,0.549 -0.142,1.037 -0.428,1.462 -0.29,0.422 -0.713,0.735 -1.268,0.94 l -2.289,0.844 v -0.568 l 2.236,-0.825 c 0.416,-0.153 0.731,-0.379 0.946,-0.677 0.215,-0.298 0.323,-0.649 0.323,-1.055 0,-0.442 -0.125,-0.746 -0.376,-0.909 -0.255,-0.162 -0.607,-0.16 -1.058,0.006 l -2.071,0.764 z m -0.03,-3.747 c 0,-0.395 0.085,-0.784 0.255,-1.167 0.165,-0.38 0.4,-0.718 0.705,-1.012 0.306,-0.294 0.653,-0.513 1.044,-0.657 0.39,-0.144 0.738,-0.181 1.043,-0.113 0.305,0.069 0.543,0.232 0.713,0.489 0.17,0.258 0.255,0.584 0.255,0.978 0,0.352 -0.07,0.695 -0.21,1.03 -0.14,0.329 -0.343,0.628 -0.608,0.896 l 0.781,-0.288 v 0.544 l -5.57,2.055 v -0.568 l 2.372,-0.875 c -0.255,-0.082 -0.448,-0.235 -0.578,-0.459 -0.135,-0.228 -0.202,-0.512 -0.202,-0.853 z m 3.542,-1.267 c 0,-0.294 -0.062,-0.537 -0.187,-0.731 -0.13,-0.192 -0.313,-0.311 -0.548,-0.358 -0.235,-0.052 -0.503,-0.022 -0.803,0.088 -0.301,0.111 -0.568,0.279 -0.803,0.505 -0.236,0.22 -0.416,0.473 -0.541,0.759 -0.13,0.288 -0.195,0.579 -0.195,0.872 0,0.299 0.065,0.544 0.195,0.736 0.125,0.188 0.305,0.309 0.541,0.361 0.235,0.046 0.502,0.014 0.803,-0.097 0.3,-0.11 0.568,-0.276 0.803,-0.496 0.235,-0.225 0.418,-0.479 0.548,-0.762 0.125,-0.286 0.187,-0.579 0.187,-0.877 z m -1.373,-6.451 v 3.52 c 0.41,-0.184 0.743,-0.475 0.998,-0.873 0.25,-0.396 0.375,-0.826 0.375,-1.29 0,-0.262 -0.042,-0.486 -0.127,-0.673 -0.09,-0.186 -0.22,-0.327 -0.391,-0.424 l 0.346,-0.448 c 0.21,0.11 0.37,0.285 0.48,0.527 0.11,0.237 0.165,0.523 0.165,0.859 0,0.432 -0.085,0.848 -0.255,1.247 -0.175,0.395 -0.415,0.742 -0.721,1.041 -0.305,0.3 -0.65,0.52 -1.035,0.662 -0.386,0.143 -0.731,0.182 -1.036,0.119 -0.305,-0.069 -0.543,-0.227 -0.713,-0.473 -0.17,-0.252 -0.255,-0.573 -0.255,-0.962 0,-0.39 0.085,-0.77 0.255,-1.142 0.17,-0.373 0.408,-0.703 0.713,-0.991 0.3,-0.287 0.645,-0.503 1.036,-0.647 z m -1.712,2.663 c 0,0.405 0.123,0.701 0.368,0.888 0.24,0.184 0.556,0.222 0.946,0.115 v -2.984 c -0.39,0.182 -0.706,0.455 -0.946,0.821 -0.245,0.363 -0.368,0.749 -0.368,1.16 z m -0.457,-5.171 c 0,-0.528 0.145,-1.001 0.435,-1.417 0.285,-0.42 0.703,-0.731 1.253,-0.934 l 2.29,-0.845 v 0.568 l -2.237,0.825 c -0.41,0.152 -0.723,0.376 -0.938,0.674 -0.215,0.298 -0.323,0.65 -0.323,1.055 0,0.454 0.128,0.767 0.383,0.939 0.25,0.169 0.598,0.172 1.043,0.007 l 2.072,-0.764 v 0.568 l -3.948,1.457 v -0.544 l 0.728,-0.269 c -0.24,-0.066 -0.426,-0.211 -0.556,-0.435 -0.135,-0.228 -0.202,-0.523 -0.202,-0.885 z"
         fill="#ffffff"
         id="path1305" />
      <path
         d="m 298.865,879.466 c 0,0.416 -0.063,0.839 -0.188,1.269 -0.125,0.425 -0.29,0.779 -0.495,1.063 l -0.428,-0.074 c 0.19,-0.273 0.345,-0.6 0.465,-0.98 0.115,-0.378 0.173,-0.746 0.173,-1.104 0,-0.501 -0.085,-0.846 -0.255,-1.033 -0.176,-0.187 -0.401,-0.229 -0.676,-0.127 -0.21,0.077 -0.378,0.208 -0.503,0.393 -0.125,0.18 -0.22,0.38 -0.285,0.601 -0.07,0.224 -0.145,0.526 -0.225,0.908 -0.1,0.458 -0.195,0.829 -0.285,1.113 -0.095,0.286 -0.238,0.554 -0.428,0.806 -0.19,0.246 -0.448,0.429 -0.773,0.549 -0.265,0.098 -0.506,0.112 -0.721,0.042 -0.22,-0.068 -0.395,-0.233 -0.525,-0.495 -0.13,-0.261 -0.195,-0.621 -0.195,-1.08 0,-0.32 0.042,-0.647 0.127,-0.983 0.08,-0.339 0.193,-0.647 0.338,-0.924 l 0.443,0.036 c -0.145,0.289 -0.253,0.579 -0.323,0.871 -0.075,0.295 -0.112,0.57 -0.112,0.826 0,0.491 0.09,0.828 0.27,1.012 0.175,0.181 0.403,0.22 0.683,0.116 0.21,-0.077 0.38,-0.207 0.51,-0.388 0.125,-0.185 0.223,-0.391 0.293,-0.62 0.065,-0.232 0.137,-0.536 0.217,-0.912 0.096,-0.446 0.191,-0.812 0.286,-1.097 0.09,-0.29 0.23,-0.557 0.42,-0.804 0.185,-0.244 0.438,-0.425 0.758,-0.543 0.265,-0.098 0.508,-0.11 0.728,-0.037 0.215,0.07 0.388,0.239 0.518,0.505 0.125,0.269 0.188,0.632 0.188,1.091 z m -3.22,-2.614 c -0.265,-0.036 -0.466,-0.159 -0.601,-0.371 -0.135,-0.216 -0.202,-0.519 -0.202,-0.909 l 0.518,-0.191 -0.008,0.139 c 0,0.443 0.128,0.742 0.383,0.899 0.255,0.156 0.613,0.15 1.073,-0.02 l 2.012,-0.742 v 0.568 l -3.948,1.456 v -0.544 z m -0.803,-4.476 c 0,-0.395 0.085,-0.784 0.255,-1.166 0.165,-0.381 0.4,-0.719 0.705,-1.013 0.306,-0.294 0.653,-0.513 1.044,-0.657 0.395,-0.145 0.745,-0.184 1.05,-0.115 0.306,0.069 0.543,0.232 0.713,0.489 0.166,0.254 0.248,0.58 0.248,0.98 0,0.342 -0.065,0.675 -0.195,1 -0.135,0.322 -0.33,0.618 -0.585,0.888 l 2.199,-0.811 v 0.568 l -5.404,1.994 v -0.544 l 0.78,-0.288 c -0.26,-0.075 -0.46,-0.225 -0.6,-0.451 -0.14,-0.231 -0.21,-0.522 -0.21,-0.874 z m 3.542,-1.267 c 0,-0.293 -0.062,-0.537 -0.187,-0.731 -0.13,-0.192 -0.313,-0.311 -0.548,-0.358 -0.235,-0.052 -0.503,-0.022 -0.803,0.088 -0.301,0.111 -0.566,0.278 -0.796,0.502 -0.235,0.22 -0.418,0.474 -0.548,0.762 -0.13,0.288 -0.195,0.579 -0.195,0.872 0,0.299 0.065,0.544 0.195,0.736 0.13,0.187 0.313,0.306 0.548,0.358 0.23,0.048 0.495,0.017 0.796,-0.094 0.3,-0.11 0.568,-0.276 0.803,-0.496 0.235,-0.225 0.418,-0.479 0.548,-0.762 0.125,-0.286 0.187,-0.578 0.187,-0.877 z m -1.373,-6.451 v 3.52 c 0.41,-0.184 0.743,-0.474 0.998,-0.873 0.25,-0.396 0.375,-0.826 0.375,-1.29 0,-0.261 -0.042,-0.486 -0.127,-0.673 -0.09,-0.185 -0.22,-0.327 -0.391,-0.424 l 0.346,-0.447 c 0.21,0.109 0.37,0.284 0.48,0.526 0.11,0.237 0.165,0.524 0.165,0.86 0,0.432 -0.085,0.847 -0.255,1.246 -0.175,0.395 -0.415,0.742 -0.721,1.041 -0.305,0.3 -0.65,0.52 -1.035,0.663 -0.386,0.142 -0.731,0.181 -1.036,0.118 -0.305,-0.069 -0.543,-0.227 -0.713,-0.473 -0.17,-0.252 -0.255,-0.573 -0.255,-0.962 0,-0.389 0.085,-0.77 0.255,-1.142 0.17,-0.372 0.408,-0.703 0.713,-0.991 0.3,-0.287 0.645,-0.502 1.036,-0.646 z m -1.712,2.663 c 0,0.405 0.123,0.701 0.368,0.888 0.24,0.184 0.556,0.222 0.946,0.115 v -2.984 c -0.39,0.182 -0.706,0.455 -0.946,0.821 -0.245,0.363 -0.368,0.749 -0.368,1.16 z m -0.457,-5.171 c 0,-0.528 0.145,-1 0.435,-1.417 0.285,-0.42 0.703,-0.731 1.253,-0.934 l 2.29,-0.845 v 0.568 l -2.237,0.825 c -0.41,0.152 -0.723,0.376 -0.938,0.675 -0.215,0.298 -0.323,0.649 -0.323,1.055 0,0.453 0.128,0.766 0.383,0.938 0.25,0.169 0.598,0.172 1.043,0.007 l 2.072,-0.764 v 0.568 l -3.948,1.457 v -0.544 l 0.728,-0.269 c -0.24,-0.066 -0.426,-0.211 -0.556,-0.435 -0.135,-0.227 -0.202,-0.523 -0.202,-0.885 z"
         fill="#ffffff"
         id="path1307" />
    </g>
    <rect
       width="115.01028"
       height="388.00558"
       rx="20.242769"
       transform="matrix(0.93948052,-0.34260234,0,1,2.0623845,-1.4043307)"
       fill="#ffffff"
       filter="url(#shadow-1)"
       id="rect1309"
       ry="21.899391"
       x="335.29169"
       y="943.50183"
       style="stroke-width:1.00698" />
    <g
       id="g1095"
       transform="translate(2.0623845,-1.4043307)">
      <rect
         width="95.681999"
         height="26.4058"
         rx="12"
         transform="matrix(0.938191,-0.346117,0,1,323,849.117)"
         fill="#4508bd"
         id="rect1311"
         x="0"
         y="0" />
      <path
         d="m 340.907,863.107 c -0.878,0.324 -1.722,0.485 -2.533,0.484 -0.799,-0.005 -1.419,-0.172 -1.858,-0.502 l 0.49,-1.207 c 0.428,0.298 0.996,0.46 1.706,0.487 0.709,0.014 1.441,-0.118 2.195,-0.396 1.058,-0.391 1.852,-0.887 2.381,-1.491 0.529,-0.615 0.794,-1.252 0.794,-1.912 0,-0.504 -0.146,-0.852 -0.439,-1.045 -0.282,-0.196 -0.631,-0.295 -1.047,-0.297 -0.417,-0.015 -0.997,0.019 -1.74,0.101 -0.889,0.089 -1.598,0.122 -2.127,0.101 -0.53,-0.032 -0.986,-0.206 -1.368,-0.521 -0.372,-0.319 -0.558,-0.868 -0.558,-1.648 0,-0.636 0.158,-1.27 0.473,-1.903 0.315,-0.644 0.8,-1.243 1.453,-1.796 0.653,-0.552 1.463,-1.007 2.431,-1.365 0.676,-0.249 1.334,-0.39 1.976,-0.423 0.653,-0.048 1.216,0.014 1.689,0.187 l -0.422,1.218 c -0.496,-0.165 -1.025,-0.228 -1.588,-0.188 -0.563,0.027 -1.114,0.141 -1.655,0.34 -1.035,0.382 -1.818,0.887 -2.347,1.514 -0.518,0.611 -0.777,1.253 -0.777,1.925 0,0.504 0.141,0.86 0.422,1.068 0.293,0.192 0.653,0.293 1.081,0.303 0.439,-0.006 1.025,-0.048 1.756,-0.126 0.867,-0.091 1.565,-0.121 2.094,-0.088 0.541,0.017 0.997,0.184 1.368,0.503 0.372,0.307 0.558,0.845 0.558,1.613 0,0.636 -0.164,1.278 -0.49,1.926 -0.315,0.633 -0.805,1.227 -1.469,1.784 -0.665,0.545 -1.481,0.997 -2.449,1.354 z m 6.877,-16.001 1.199,-0.443 v 13.356 l -1.199,0.443 z m 8.166,10.433 c -0.855,0.316 -1.627,0.396 -2.313,0.242 -0.687,-0.167 -1.228,-0.544 -1.622,-1.13 -0.394,-0.587 -0.591,-1.342 -0.591,-2.266 0,-0.924 0.197,-1.825 0.591,-2.702 0.394,-0.878 0.935,-1.647 1.622,-2.308 0.686,-0.662 1.458,-1.15 2.313,-1.466 0.856,-0.316 1.627,-0.396 2.314,-0.241 0.687,0.154 1.221,0.527 1.604,1.118 0.394,0.586 0.591,1.342 0.591,2.266 0,0.924 -0.197,1.824 -0.591,2.702 -0.383,0.873 -0.917,1.646 -1.604,2.32 -0.687,0.661 -1.458,1.149 -2.314,1.465 z m 0,-1.134 c 0.631,-0.233 1.194,-0.59 1.689,-1.073 0.507,-0.499 0.901,-1.082 1.182,-1.75 0.282,-0.668 0.422,-1.362 0.422,-2.082 0,-0.72 -0.14,-1.31 -0.422,-1.77 -0.281,-0.46 -0.675,-0.747 -1.182,-0.86 -0.495,-0.129 -1.058,-0.078 -1.689,0.155 -0.63,0.233 -1.199,0.598 -1.705,1.097 -0.496,0.483 -0.89,1.06 -1.183,1.732 -0.281,0.668 -0.422,1.362 -0.422,2.082 0,0.72 0.141,1.31 0.422,1.77 0.293,0.456 0.687,0.749 1.183,0.878 0.506,0.113 1.075,0.054 1.705,-0.179 z m 13.074,-4.841 v 1.062 l -7.228,2.666 v -0.846 l 5.59,-9.604 -5.489,2.025 v -1.08 l 7.026,-2.592 v 0.846 l -5.59,9.622 z m -0.828,-11.809 -2.178,3.036 -1.216,0.448 -2.178,-1.428 1.114,-0.411 1.672,0.859 1.672,-2.093 z m 6.481,6.033 -2.094,2.825 v 2.7 l -1.199,0.442 v -13.356 l 1.199,-0.442 v 9.054 l 5.302,-7.122 1.486,-0.549 -3.799,5.272 4.154,4.066 -1.469,0.542 z m 9.791,-8.4 c 1.16,-0.428 2.049,-0.444 2.669,-0.048 0.619,0.383 0.928,1.181 0.928,2.393 v 5.868 l -1.148,0.424 v -1.476 c -0.27,0.591 -0.67,1.123 -1.199,1.594 -0.518,0.467 -1.137,0.834 -1.857,1.099 -0.991,0.366 -1.779,0.405 -2.365,0.117 -0.585,-0.288 -0.878,-0.846 -0.878,-1.674 0,-0.804 0.27,-1.552 0.811,-2.243 0.551,-0.696 1.424,-1.264 2.617,-1.704 l 2.82,-1.041 v -0.576 c 0,-0.816 -0.213,-1.355 -0.641,-1.617 -0.428,-0.274 -1.053,-0.259 -1.875,0.044 -0.563,0.207 -1.103,0.509 -1.621,0.904 -0.518,0.383 -0.963,0.817 -1.334,1.302 l -0.54,-0.755 c 0.45,-0.574 0.99,-1.085 1.621,-1.534 0.63,-0.46 1.294,-0.819 1.992,-1.077 z m -0.422,8.778 c 0.676,-0.249 1.256,-0.625 1.74,-1.128 0.484,-0.514 0.844,-1.127 1.08,-1.839 v -1.548 l -2.786,1.028 c -1.52,0.561 -2.28,1.405 -2.28,2.533 0,0.552 0.197,0.918 0.591,1.096 0.394,0.167 0.946,0.12 1.655,-0.142 z m 14.178,-16.913 v 12.6 l -1.216,0.449 v -11.448 l -2.786,1.028 v -1.152 z"
         fill="#ffffff"
         id="path1313" />
      <rect
         width="95.681999"
         height="26.4058"
         rx="12"
         transform="matrix(0.938191,-0.346117,0,1,323,883.117)"
         fill="#4508bd"
         id="rect1315"
         x="0"
         y="0" />
      <path
         d="m 339.424,897.35 c -0.878,0.324 -1.722,0.486 -2.533,0.485 -0.799,-0.005 -1.419,-0.173 -1.858,-0.503 l 0.49,-1.207 c 0.428,0.299 0.996,0.461 1.706,0.487 0.709,0.014 1.441,-0.118 2.195,-0.396 1.058,-0.39 1.852,-0.887 2.381,-1.49 0.529,-0.615 0.794,-1.253 0.794,-1.913 0,-0.504 -0.146,-0.852 -0.439,-1.044 -0.282,-0.196 -0.631,-0.295 -1.047,-0.298 -0.417,-0.014 -0.997,0.02 -1.74,0.102 -0.889,0.088 -1.598,0.122 -2.127,0.101 -0.53,-0.033 -0.986,-0.207 -1.368,-0.521 -0.372,-0.319 -0.558,-0.869 -0.558,-1.649 0,-0.636 0.158,-1.27 0.473,-1.902 0.315,-0.645 0.8,-1.243 1.453,-1.796 0.653,-0.553 1.463,-1.008 2.431,-1.365 0.676,-0.249 1.334,-0.39 1.976,-0.423 0.653,-0.049 1.216,0.013 1.689,0.187 l -0.422,1.218 c -0.496,-0.166 -1.025,-0.228 -1.588,-0.189 -0.563,0.028 -1.114,0.141 -1.655,0.341 -1.035,0.382 -1.818,0.887 -2.347,1.514 -0.518,0.611 -0.777,1.252 -0.777,1.924 0,0.504 0.141,0.86 0.422,1.069 0.293,0.192 0.653,0.293 1.081,0.303 0.439,-0.006 1.025,-0.048 1.756,-0.126 0.867,-0.092 1.565,-0.121 2.095,-0.089 0.54,0.017 0.996,0.185 1.367,0.504 0.372,0.307 0.558,0.844 0.558,1.612 0,0.636 -0.164,1.278 -0.49,1.927 -0.315,0.632 -0.805,1.227 -1.469,1.784 -0.664,0.545 -1.481,0.996 -2.449,1.353 z m 6.877,-16.001 1.199,-0.442 v 13.356 l -1.199,0.442 z m 8.166,10.433 c -0.855,0.316 -1.627,0.397 -2.313,0.242 -0.687,-0.167 -1.228,-0.543 -1.622,-1.13 -0.394,-0.587 -0.591,-1.342 -0.591,-2.266 0,-0.924 0.197,-1.825 0.591,-2.702 0.394,-0.877 0.935,-1.647 1.622,-2.308 0.686,-0.661 1.458,-1.15 2.313,-1.466 0.856,-0.315 1.627,-0.396 2.314,-0.241 0.687,0.155 1.221,0.527 1.604,1.118 0.394,0.587 0.591,1.342 0.591,2.266 0,0.924 -0.197,1.825 -0.591,2.702 -0.383,0.873 -0.917,1.647 -1.604,2.32 -0.687,0.661 -1.458,1.15 -2.314,1.465 z m 0,-1.134 c 0.631,-0.232 1.194,-0.59 1.689,-1.073 0.507,-0.498 0.901,-1.082 1.182,-1.75 0.282,-0.667 0.422,-1.361 0.422,-2.081 0,-0.72 -0.14,-1.31 -0.422,-1.771 -0.281,-0.46 -0.675,-0.746 -1.182,-0.86 -0.495,-0.129 -1.058,-0.077 -1.689,0.155 -0.63,0.233 -1.199,0.599 -1.705,1.098 -0.496,0.482 -0.89,1.06 -1.183,1.732 -0.281,0.668 -0.422,1.362 -0.422,2.082 0,0.72 0.141,1.31 0.422,1.77 0.293,0.456 0.687,0.748 1.183,0.878 0.506,0.113 1.075,0.053 1.705,-0.18 z m 13.074,-4.841 v 1.062 l -7.228,2.667 v -0.846 l 5.59,-9.604 -5.489,2.024 v -1.08 l 7.026,-2.591 v 0.846 l -5.59,9.622 z m -0.828,-11.808 -2.178,3.035 -1.216,0.449 -2.178,-1.428 1.114,-0.412 1.672,0.86 1.672,-2.093 z m 6.481,6.033 -2.094,2.824 v 2.7 l -1.199,0.443 V 872.643 L 371.1,872.2 v 9.054 l 5.302,-7.122 1.487,-0.548 -3.8,5.272 4.154,4.065 -1.469,0.542 z m 9.791,-8.4 c 1.16,-0.428 2.049,-0.444 2.669,-0.049 0.619,0.384 0.929,1.182 0.929,2.394 v 5.868 l -1.149,0.423 v -1.476 c -0.27,0.592 -0.67,1.123 -1.199,1.595 -0.518,0.467 -1.137,0.833 -1.857,1.099 -0.991,0.365 -1.779,0.404 -2.365,0.116 -0.585,-0.288 -0.878,-0.846 -0.878,-1.674 0,-0.804 0.27,-1.552 0.811,-2.243 0.551,-0.696 1.424,-1.263 2.617,-1.704 l 2.821,-1.04 v -0.576 c 0,-0.816 -0.214,-1.355 -0.642,-1.617 -0.428,-0.275 -1.053,-0.26 -1.875,0.043 -0.563,0.208 -1.103,0.509 -1.621,0.904 -0.518,0.383 -0.963,0.817 -1.334,1.302 l -0.54,-0.754 c 0.45,-0.574 0.99,-1.086 1.621,-1.534 0.63,-0.461 1.294,-0.82 1.992,-1.077 z m -0.422,8.777 c 0.676,-0.249 1.256,-0.625 1.74,-1.127 0.484,-0.515 0.844,-1.128 1.081,-1.839 v -1.548 l -2.787,1.028 c -1.52,0.561 -2.28,1.405 -2.28,2.533 0,0.552 0.197,0.917 0.591,1.096 0.394,0.166 0.946,0.119 1.655,-0.143 z m 18.974,-7.234 v 1.152 l -8.291,3.059 v -0.918 l 4.914,-6.943 c 0.619,-0.876 1.036,-1.588 1.25,-2.135 0.225,-0.563 0.337,-1.084 0.337,-1.564 0,-0.744 -0.242,-1.231 -0.726,-1.46 -0.473,-0.246 -1.154,-0.205 -2.043,0.124 -1.385,0.51 -2.46,1.375 -3.226,2.593 l -0.861,-0.474 c 0.462,-0.746 1.047,-1.406 1.756,-1.98 0.721,-0.578 1.531,-1.033 2.432,-1.365 1.205,-0.444 2.156,-0.489 2.854,-0.135 0.709,0.339 1.064,1.036 1.064,2.092 0,0.648 -0.135,1.322 -0.405,2.021 -0.27,0.7 -0.783,1.579 -1.537,2.637 l -4.019,5.695 z"
         fill="#ffffff"
         id="path1317" />
      <rect
         width="95.681999"
         height="26.4058"
         rx="12"
         transform="matrix(0.938191,-0.346117,0,1,323,917.117)"
         fill="#4508bd"
         id="rect1319"
         x="0"
         y="0" />
      <path
         d="m 338.957,931.522 c -0.878,0.324 -1.722,0.486 -2.533,0.485 -0.799,-0.005 -1.419,-0.173 -1.858,-0.503 l 0.49,-1.206 c 0.428,0.298 0.996,0.46 1.706,0.486 0.709,0.015 1.441,-0.117 2.195,-0.396 1.058,-0.39 1.852,-0.887 2.381,-1.49 0.529,-0.615 0.794,-1.253 0.794,-1.913 0,-0.504 -0.146,-0.852 -0.439,-1.044 -0.282,-0.196 -0.631,-0.295 -1.047,-0.298 -0.417,-0.014 -0.997,0.02 -1.74,0.102 -0.889,0.088 -1.598,0.122 -2.127,0.101 -0.53,-0.033 -0.986,-0.206 -1.368,-0.521 -0.372,-0.319 -0.558,-0.869 -0.558,-1.649 0,-0.636 0.158,-1.27 0.473,-1.902 0.315,-0.644 0.8,-1.243 1.453,-1.796 0.653,-0.553 1.463,-1.008 2.431,-1.365 0.676,-0.249 1.334,-0.39 1.976,-0.423 0.653,-0.049 1.216,0.014 1.689,0.187 l -0.422,1.218 c -0.496,-0.165 -1.025,-0.228 -1.588,-0.189 -0.563,0.028 -1.114,0.142 -1.655,0.341 -1.035,0.382 -1.818,0.887 -2.347,1.514 -0.518,0.611 -0.777,1.253 -0.777,1.925 0,0.504 0.141,0.86 0.422,1.068 0.293,0.192 0.653,0.293 1.081,0.303 0.439,-0.006 1.025,-0.048 1.756,-0.126 0.867,-0.092 1.565,-0.121 2.094,-0.088 0.541,0.016 0.997,0.184 1.368,0.503 0.372,0.307 0.558,0.844 0.558,1.612 0,0.636 -0.164,1.279 -0.49,1.927 -0.315,0.632 -0.805,1.227 -1.469,1.784 -0.665,0.545 -1.481,0.996 -2.449,1.353 z m 6.877,-16.001 1.199,-0.442 v 13.356 l -1.199,0.442 z M 354,925.955 c -0.855,0.315 -1.627,0.396 -2.313,0.241 -0.687,-0.166 -1.228,-0.543 -1.622,-1.13 -0.394,-0.586 -0.591,-1.342 -0.591,-2.266 0,-0.924 0.197,-1.824 0.591,-2.702 0.394,-0.877 0.935,-1.646 1.622,-2.308 0.686,-0.661 1.458,-1.15 2.313,-1.465 0.856,-0.316 1.627,-0.396 2.314,-0.242 0.687,0.155 1.221,0.528 1.604,1.118 0.394,0.587 0.591,1.342 0.591,2.266 0,0.924 -0.197,1.825 -0.591,2.702 -0.383,0.874 -0.917,1.647 -1.604,2.32 -0.687,0.662 -1.458,1.15 -2.314,1.466 z m 0,-1.134 c 0.631,-0.233 1.194,-0.59 1.689,-1.073 0.507,-0.499 0.901,-1.083 1.182,-1.75 0.282,-0.668 0.422,-1.362 0.422,-2.082 0,-0.72 -0.14,-1.31 -0.422,-1.77 -0.281,-0.461 -0.675,-0.747 -1.182,-0.86 -0.495,-0.129 -1.058,-0.078 -1.689,0.155 -0.63,0.232 -1.199,0.598 -1.705,1.097 -0.496,0.483 -0.89,1.06 -1.183,1.732 -0.281,0.668 -0.422,1.362 -0.422,2.082 0,0.72 0.141,1.31 0.422,1.77 0.293,0.456 0.687,0.749 1.183,0.878 0.506,0.113 1.075,0.053 1.705,-0.179 z m 13.074,-4.841 v 1.062 l -7.228,2.666 v -0.846 l 5.59,-9.604 -5.489,2.025 v -1.08 l 7.026,-2.592 v 0.846 l -5.59,9.622 z m -0.828,-11.809 -2.178,3.036 -1.216,0.448 -2.178,-1.428 1.114,-0.411 1.672,0.859 1.672,-2.093 z m 6.481,6.033 -2.094,2.825 v 2.7 l -1.199,0.442 v -13.356 l 1.199,-0.442 v 9.054 l 5.302,-7.123 1.486,-0.548 -3.799,5.272 4.154,4.065 -1.469,0.542 z m 9.791,-8.4 c 1.16,-0.428 2.049,-0.444 2.669,-0.049 0.619,0.384 0.928,1.182 0.928,2.394 v 5.868 l -1.148,0.423 v -1.476 c -0.27,0.592 -0.67,1.124 -1.199,1.595 -0.518,0.467 -1.137,0.833 -1.857,1.099 -0.991,0.366 -1.779,0.404 -2.365,0.116 -0.585,-0.288 -0.878,-0.846 -0.878,-1.674 0,-0.804 0.27,-1.551 0.811,-2.243 0.551,-0.695 1.424,-1.263 2.617,-1.703 l 2.82,-1.041 v -0.576 c 0,-0.816 -0.213,-1.355 -0.641,-1.617 -0.428,-0.274 -1.053,-0.26 -1.875,0.043 -0.563,0.208 -1.103,0.509 -1.621,0.905 -0.518,0.383 -0.963,0.817 -1.334,1.302 l -0.54,-0.755 c 0.45,-0.574 0.99,-1.085 1.621,-1.534 0.63,-0.461 1.294,-0.82 1.992,-1.077 z m -0.422,8.778 c 0.676,-0.25 1.256,-0.626 1.74,-1.128 0.484,-0.515 0.844,-1.128 1.08,-1.839 v -1.548 l -2.786,1.028 c -1.52,0.561 -2.28,1.405 -2.28,2.533 0,0.552 0.197,0.918 0.591,1.096 0.394,0.167 0.946,0.119 1.655,-0.142 z m 14.921,-11.787 c 1.239,-0.385 2.179,-0.372 2.821,0.039 0.653,0.396 0.979,1.109 0.979,2.141 0,0.72 -0.163,1.422 -0.49,2.107 -0.326,0.672 -0.81,1.289 -1.452,1.85 -0.642,0.56 -1.424,1.011 -2.347,1.352 -0.856,0.315 -1.667,0.47 -2.432,0.465 -0.754,-0.022 -1.362,-0.194 -1.824,-0.515 l 0.591,-1.244 c 0.394,0.286 0.918,0.447 1.571,0.482 0.653,0.023 1.351,-0.102 2.094,-0.376 0.968,-0.358 1.717,-0.856 2.246,-1.495 0.529,-0.651 0.793,-1.373 0.793,-2.165 0,-0.78 -0.264,-1.294 -0.793,-1.543 -0.529,-0.249 -1.329,-0.176 -2.398,0.219 l -0.845,0.311 v -0.954 l 3.276,-5.582 -6.045,2.23 v -1.152 l 7.599,-2.804 v 0.918 z"
         fill="#ffffff"
         id="path1321" />
      <rect
         width="95.681999"
         height="26.4058"
         rx="12"
         transform="matrix(0.938191,-0.346117,0,1,323,951.117)"
         fill="#4508BD"
         id="rect1323"
         style="fill:#4508bd;fill-opacity:1"
         x="0"
         y="0" />
      <path
         d="m 338.641,965.008 c -0.878,0.324 -1.723,0.486 -2.533,0.485 -0.8,-0.005 -1.419,-0.173 -1.858,-0.503 l 0.49,-1.207 c 0.428,0.298 0.996,0.461 1.705,0.487 0.71,0.014 1.441,-0.118 2.196,-0.396 1.058,-0.39 1.852,-0.887 2.381,-1.49 0.529,-0.616 0.794,-1.253 0.794,-1.913 0,-0.504 -0.147,-0.852 -0.44,-1.044 -0.281,-0.196 -0.63,-0.296 -1.047,-0.298 -0.416,-0.014 -0.996,0.02 -1.739,0.102 -0.889,0.088 -1.599,0.122 -2.128,0.101 -0.529,-0.033 -0.985,-0.207 -1.368,-0.522 -0.371,-0.319 -0.557,-0.868 -0.557,-1.648 0,-0.636 0.158,-1.27 0.473,-1.902 0.315,-0.645 0.799,-1.243 1.452,-1.796 0.653,-0.553 1.464,-1.008 2.432,-1.365 0.676,-0.25 1.334,-0.391 1.976,-0.423 0.653,-0.049 1.216,0.013 1.689,0.187 l -0.423,1.217 c -0.495,-0.165 -1.024,-0.228 -1.587,-0.188 -0.563,0.028 -1.115,0.141 -1.655,0.341 -1.036,0.382 -1.818,0.886 -2.347,1.514 -0.518,0.611 -0.777,1.252 -0.777,1.924 0,0.504 0.141,0.86 0.422,1.068 0.293,0.192 0.653,0.294 1.081,0.304 0.439,-0.006 1.024,-0.048 1.756,-0.126 0.867,-0.092 1.565,-0.122 2.094,-0.089 0.541,0.017 0.997,0.185 1.368,0.504 0.372,0.307 0.557,0.844 0.557,1.612 0,0.636 -0.163,1.278 -0.489,1.927 -0.316,0.632 -0.805,1.227 -1.47,1.784 -0.664,0.545 -1.48,0.996 -2.448,1.353 z m 6.877,-16.001 1.199,-0.442 v 13.356 l -1.199,0.442 z m 8.166,10.433 c -0.856,0.316 -1.627,0.397 -2.314,0.242 -0.686,-0.167 -1.227,-0.543 -1.621,-1.13 -0.394,-0.587 -0.591,-1.342 -0.591,-2.266 0,-0.924 0.197,-1.825 0.591,-2.702 0.394,-0.877 0.935,-1.647 1.621,-2.308 0.687,-0.661 1.458,-1.15 2.314,-1.466 0.855,-0.315 1.627,-0.396 2.313,-0.241 0.687,0.155 1.222,0.527 1.605,1.118 0.394,0.587 0.591,1.342 0.591,2.266 0,0.924 -0.197,1.825 -0.591,2.702 -0.383,0.873 -0.918,1.647 -1.605,2.32 -0.686,0.661 -1.458,1.15 -2.313,1.465 z m 0,-1.134 c 0.63,-0.232 1.193,-0.59 1.689,-1.073 0.506,-0.499 0.9,-1.082 1.182,-1.75 0.281,-0.668 0.422,-1.361 0.422,-2.081 0,-0.72 -0.141,-1.311 -0.422,-1.771 -0.282,-0.46 -0.676,-0.747 -1.182,-0.86 -0.496,-0.129 -1.059,-0.077 -1.689,0.155 -0.631,0.233 -1.199,0.599 -1.706,1.098 -0.495,0.482 -0.889,1.06 -1.182,1.732 -0.281,0.668 -0.422,1.362 -0.422,2.082 0,0.72 0.141,1.31 0.422,1.77 0.293,0.456 0.687,0.748 1.182,0.878 0.507,0.113 1.075,0.053 1.706,-0.18 z m 13.074,-4.841 v 1.062 l -7.228,2.667 v -0.846 l 5.589,-9.604 -5.488,2.024 v -1.08 l 7.025,-2.591 v 0.846 l -5.59,9.622 z m -0.828,-11.808 -2.178,3.035 -1.216,0.449 -2.179,-1.429 1.115,-0.411 1.672,0.86 1.671,-2.093 z m 6.48,6.033 -2.094,2.824 v 2.7 l -1.199,0.443 v -13.356 l 1.199,-0.443 v 9.054 l 5.303,-7.122 1.486,-0.548 -3.8,5.272 4.155,4.065 -1.469,0.542 z m 9.792,-8.401 c 1.16,-0.427 2.049,-0.443 2.668,-0.048 0.62,0.384 0.929,1.181 0.929,2.393 v 5.868 l -1.148,0.424 v -1.476 c -0.27,0.592 -0.67,1.123 -1.199,1.594 -0.518,0.467 -1.137,0.834 -1.858,1.1 -0.991,0.365 -1.779,0.404 -2.364,0.116 -0.585,-0.288 -0.878,-0.846 -0.878,-1.674 0,-0.804 0.27,-1.552 0.81,-2.243 0.552,-0.696 1.425,-1.264 2.618,-1.704 l 2.82,-1.04 v -0.576 c 0,-0.816 -0.214,-1.355 -0.642,-1.617 -0.427,-0.275 -1.052,-0.26 -1.874,0.043 -0.563,0.208 -1.103,0.509 -1.621,0.904 -0.518,0.383 -0.963,0.817 -1.334,1.302 l -0.541,-0.754 c 0.451,-0.574 0.991,-1.086 1.621,-1.534 0.631,-0.461 1.295,-0.82 1.993,-1.078 z m -0.422,8.778 c 0.675,-0.249 1.255,-0.625 1.739,-1.127 0.484,-0.515 0.845,-1.128 1.081,-1.839 v -1.548 l -2.786,1.028 c -1.52,0.56 -2.28,1.405 -2.28,2.533 0,0.552 0.197,0.917 0.591,1.096 0.394,0.166 0.946,0.119 1.655,-0.143 z m 20.95,-10.123 -2.364,0.873 v 3.312 l -1.216,0.448 v -3.312 l -6.671,2.461 v -0.936 l 6.265,-10.663 1.351,-0.499 -6.045,10.367 5.134,-1.894 v -2.916 l 1.182,-0.436 v 2.916 l 2.364,-0.873 z"
         fill="white"
         id="path1325"
         style="fill:#ffffff" />
      <rect
         width="95.681999"
         height="26.4058"
         rx="12"
         transform="matrix(0.938191,-0.346117,0,1,323,985.117)"
         fill="#4508bd"
         id="rect1327"
         x="0"
         y="0" />
      <path
         d="m 338.941,999.529 c -0.879,0.324 -1.723,0.481 -2.534,0.481 -0.799,0 -1.418,-0.17 -1.857,-0.5 l 0.49,-1.206 c 0.427,0.298 0.996,0.46 1.705,0.486 0.709,0.015 1.441,-0.117 2.196,-0.395 1.058,-0.391 1.852,-0.888 2.381,-1.491 0.529,-0.615 0.793,-1.253 0.793,-1.913 0,-0.504 -0.146,-0.852 -0.439,-1.044 -0.281,-0.196 -0.63,-0.295 -1.047,-0.297 -0.416,-0.015 -0.996,0.019 -1.739,0.101 -0.89,0.088 -1.599,0.122 -2.128,0.101 -0.529,-0.033 -0.985,-0.206 -1.368,-0.521 -0.371,-0.319 -0.557,-0.869 -0.557,-1.649 0,-0.636 0.158,-1.27 0.473,-1.902 0.315,-0.644 0.799,-1.243 1.452,-1.796 0.653,-0.553 1.464,-1.008 2.432,-1.365 0.675,-0.249 1.334,-0.39 1.976,-0.423 0.653,-0.049 1.216,0.014 1.688,0.187 l -0.422,1.218 c -0.495,-0.165 -1.024,-0.228 -1.587,-0.188 -0.563,0.027 -1.115,0.141 -1.655,0.34 -1.036,0.382 -1.818,0.887 -2.347,1.514 -0.518,0.611 -0.777,1.253 -0.777,1.925 0,0.504 0.14,0.86 0.422,1.068 0.293,0.192 0.653,0.293 1.081,0.303 0.439,-0.006 1.024,-0.048 1.756,-0.126 0.867,-0.092 1.565,-0.121 2.094,-0.088 0.54,0.016 0.996,0.184 1.368,0.503 0.371,0.307 0.557,0.845 0.557,1.613 0,0.636 -0.163,1.278 -0.49,1.926 -0.315,0.632 -0.805,1.227 -1.469,1.784 -0.664,0.545 -1.48,0.996 -2.448,1.354 z m 6.877,-16.002 1.199,-0.442 v 13.356 l -1.199,0.442 z m 8.166,10.434 c -0.856,0.316 -1.627,0.396 -2.314,0.241 -0.687,-0.166 -1.227,-0.543 -1.621,-1.13 -0.394,-0.586 -0.591,-1.341 -0.591,-2.265 0,-0.924 0.197,-1.825 0.591,-2.703 0.394,-0.877 0.934,-1.646 1.621,-2.308 0.687,-0.661 1.458,-1.149 2.314,-1.465 0.855,-0.316 1.627,-0.396 2.313,-0.242 0.687,0.155 1.222,0.528 1.605,1.118 0.394,0.587 0.591,1.342 0.591,2.266 0,0.924 -0.197,1.825 -0.591,2.702 -0.383,0.874 -0.918,1.647 -1.605,2.32 -0.686,0.662 -1.458,1.15 -2.313,1.466 z m 0,-1.134 c 0.63,-0.233 1.193,-0.59 1.688,-1.073 0.507,-0.499 0.901,-1.082 1.183,-1.75 0.281,-0.668 0.422,-1.362 0.422,-2.082 0,-0.72 -0.141,-1.31 -0.422,-1.77 -0.282,-0.46 -0.676,-0.747 -1.183,-0.86 -0.495,-0.129 -1.058,-0.078 -1.688,0.155 -0.631,0.232 -1.199,0.598 -1.706,1.097 -0.495,0.483 -0.889,1.06 -1.182,1.732 -0.282,0.668 -0.422,1.362 -0.422,2.082 0,0.72 0.14,1.31 0.422,1.77 0.293,0.456 0.687,0.749 1.182,0.878 0.507,0.113 1.075,0.053 1.706,-0.179 z m 13.073,-4.841 v 1.062 l -7.227,2.666 v -0.846 l 5.589,-9.604 -5.488,2.025 v -1.08 l 7.025,-2.592 v 0.846 l -5.59,9.622 z m -0.827,-11.809 -2.179,3.036 -1.216,0.448 -2.178,-1.428 1.115,-0.411 1.671,0.859 1.672,-2.093 z m 6.48,6.033 -2.094,2.825 v 2.7 l -1.199,0.442 v -13.356 l 1.199,-0.442 v 9.054 l 5.303,-7.122 1.486,-0.549 -3.8,5.272 4.155,4.065 -1.47,0.542 z m 9.792,-8.4 c 1.16,-0.428 2.049,-0.444 2.668,-0.048 0.619,0.383 0.929,1.181 0.929,2.393 v 5.868 l -1.148,0.424 v -1.476 c -0.271,0.591 -0.67,1.123 -1.199,1.594 -0.518,0.467 -1.137,0.833 -1.858,1.099 -0.991,0.366 -1.779,0.404 -2.364,0.116 -0.586,-0.288 -0.878,-0.846 -0.878,-1.674 0,-0.804 0.27,-1.551 0.81,-2.243 0.552,-0.695 1.424,-1.263 2.618,-1.703 l 2.82,-1.041 v -0.576 c 0,-0.816 -0.214,-1.355 -0.642,-1.617 -0.428,-0.274 -1.052,-0.26 -1.874,0.044 -0.563,0.207 -1.104,0.509 -1.621,0.904 -0.518,0.383 -0.963,0.817 -1.335,1.302 l -0.54,-0.755 c 0.45,-0.574 0.991,-1.085 1.621,-1.534 0.631,-0.461 1.295,-0.82 1.993,-1.077 z m -0.422,8.778 c 0.675,-0.25 1.255,-0.625 1.739,-1.128 0.484,-0.515 0.845,-1.128 1.081,-1.839 v -1.548 l -2.786,1.028 c -1.52,0.561 -2.28,1.405 -2.28,2.533 0,0.552 0.197,0.918 0.591,1.096 0.394,0.167 0.946,0.119 1.655,-0.142 z m 14.009,-11.685 c 1.711,-0.631 2.955,-0.76 3.732,-0.386 0.788,0.357 1.182,1.123 1.182,2.299 0,0.732 -0.163,1.447 -0.49,2.143 -0.315,0.692 -0.793,1.325 -1.435,1.898 -0.642,0.56 -1.43,1.013 -2.364,1.358 -0.845,0.311 -1.65,0.464 -2.415,0.459 -0.754,-0.022 -1.362,-0.194 -1.824,-0.515 l 0.591,-1.244 c 0.394,0.286 0.912,0.449 1.554,0.488 0.641,0.028 1.334,-0.096 2.077,-0.37 0.979,-0.361 1.734,-0.874 2.263,-1.537 0.54,-0.667 0.81,-1.391 0.81,-2.171 0,-0.864 -0.304,-1.406 -0.911,-1.625 -0.597,-0.224 -1.61,-0.072 -3.04,0.455 l -2.516,0.928 0.608,-6.542 6.467,-2.386 v 1.152 l -5.404,1.994 -0.405,4.163 z"
         fill="#ffffff"
         id="path1329" />
      <rect
         width="95.681999"
         height="26.4058"
         rx="12"
         transform="matrix(0.938191,-0.346117,0,1,323,1019.12)"
         fill="#4508bd"
         id="rect1331"
         x="0"
         y="0" />
      <path
         d="m 338.578,1033.66 c -0.878,0.33 -1.723,0.49 -2.533,0.49 -0.8,-0.01 -1.419,-0.18 -1.858,-0.51 l 0.49,-1.2 c 0.428,0.3 0.996,0.46 1.705,0.48 0.71,0.02 1.441,-0.11 2.196,-0.39 1.058,-0.39 1.852,-0.89 2.381,-1.49 0.529,-0.62 0.794,-1.25 0.794,-1.91 0,-0.51 -0.147,-0.86 -0.439,-1.05 -0.282,-0.2 -0.631,-0.29 -1.048,-0.3 -0.416,-0.01 -0.996,0.02 -1.739,0.11 -0.889,0.08 -1.599,0.12 -2.128,0.1 -0.529,-0.04 -0.985,-0.21 -1.368,-0.53 -0.371,-0.31 -0.557,-0.86 -0.557,-1.64 0,-0.64 0.158,-1.27 0.473,-1.91 0.315,-0.64 0.799,-1.24 1.452,-1.79 0.653,-0.55 1.464,-1.01 2.432,-1.37 0.676,-0.25 1.334,-0.39 1.976,-0.42 0.653,-0.05 1.216,0.01 1.689,0.19 l -0.423,1.21 c -0.495,-0.16 -1.024,-0.22 -1.587,-0.18 -0.563,0.02 -1.115,0.14 -1.655,0.34 -1.036,0.38 -1.818,0.88 -2.347,1.51 -0.518,0.61 -0.777,1.25 -0.777,1.93 0,0.5 0.141,0.86 0.422,1.06 0.293,0.2 0.653,0.3 1.081,0.31 0.439,-0.01 1.024,-0.05 1.756,-0.13 0.867,-0.09 1.565,-0.12 2.094,-0.09 0.541,0.02 0.997,0.19 1.368,0.51 0.372,0.3 0.557,0.84 0.557,1.61 0,0.63 -0.163,1.28 -0.489,1.93 -0.316,0.63 -0.805,1.22 -1.47,1.78 -0.664,0.54 -1.48,1 -2.448,1.35 z m 6.877,-16 1.199,-0.44 v 13.35 l -1.199,0.45 z m 8.166,10.43 c -0.856,0.32 -1.627,0.4 -2.314,0.25 -0.686,-0.17 -1.227,-0.55 -1.621,-1.13 -0.394,-0.59 -0.591,-1.35 -0.591,-2.27 0,-0.92 0.197,-1.82 0.591,-2.7 0.394,-0.88 0.935,-1.65 1.621,-2.31 0.687,-0.66 1.458,-1.15 2.314,-1.47 0.856,-0.31 1.627,-0.39 2.313,-0.24 0.687,0.16 1.222,0.53 1.605,1.12 0.394,0.59 0.591,1.34 0.591,2.27 0,0.92 -0.197,1.82 -0.591,2.7 -0.383,0.87 -0.918,1.65 -1.605,2.32 -0.686,0.66 -1.457,1.15 -2.313,1.46 z m 0,-1.13 c 0.63,-0.23 1.193,-0.59 1.689,-1.07 0.506,-0.5 0.9,-1.08 1.182,-1.75 0.281,-0.67 0.422,-1.36 0.422,-2.08 0,-0.72 -0.141,-1.31 -0.422,-1.77 -0.282,-0.46 -0.676,-0.75 -1.182,-0.86 -0.496,-0.13 -1.059,-0.08 -1.689,0.15 -0.631,0.23 -1.199,0.6 -1.706,1.1 -0.495,0.48 -0.889,1.06 -1.182,1.73 -0.281,0.67 -0.422,1.36 -0.422,2.08 0,0.72 0.141,1.31 0.422,1.77 0.293,0.46 0.687,0.75 1.182,0.88 0.507,0.11 1.075,0.05 1.706,-0.18 z m 13.074,-4.84 v 1.06 l -7.228,2.67 V 1025 l 5.589,-9.6 -5.488,2.02 v -1.08 l 7.025,-2.59 v 0.85 l -5.59,9.62 z m -0.828,-11.81 -2.178,3.04 -1.216,0.45 -2.179,-1.43 1.115,-0.41 1.672,0.85 1.671,-2.09 z m 6.48,6.03 -2.094,2.83 v 2.7 l -1.199,0.44 v -13.36 l 1.199,-0.44 v 9.06 l 5.303,-7.13 1.486,-0.54 -3.799,5.27 4.154,4.06 -1.469,0.55 z m 9.792,-8.4 c 1.16,-0.42 2.049,-0.44 2.668,-0.04 0.62,0.38 0.929,1.18 0.929,2.39 v 5.87 l -1.148,0.42 v -1.48 c -0.27,0.6 -0.67,1.13 -1.199,1.6 -0.518,0.47 -1.137,0.83 -1.858,1.1 -0.991,0.36 -1.779,0.4 -2.364,0.11 -0.585,-0.28 -0.878,-0.84 -0.878,-1.67 0,-0.8 0.27,-1.55 0.81,-2.24 0.552,-0.7 1.425,-1.27 2.618,-1.71 l 2.82,-1.04 v -0.57 c 0,-0.82 -0.214,-1.36 -0.642,-1.62 -0.427,-0.27 -1.052,-0.26 -1.874,0.04 -0.563,0.21 -1.103,0.51 -1.621,0.91 -0.518,0.38 -0.963,0.81 -1.334,1.3 l -0.541,-0.75 c 0.451,-0.58 0.991,-1.09 1.621,-1.54 0.631,-0.46 1.295,-0.82 1.993,-1.08 z m -0.422,8.78 c 0.675,-0.25 1.255,-0.62 1.739,-1.13 0.484,-0.51 0.845,-1.12 1.081,-1.83 v -1.55 l -2.786,1.03 c -1.52,0.56 -2.28,1.4 -2.28,2.53 0,0.55 0.197,0.92 0.591,1.09 0.394,0.17 0.946,0.12 1.655,-0.14 z m 15.799,-12.45 c 0.777,-0.29 1.464,-0.39 2.061,-0.29 0.607,0.08 1.08,0.35 1.418,0.81 0.338,0.43 0.507,1.03 0.507,1.79 0,0.77 -0.175,1.51 -0.524,2.23 -0.349,0.71 -0.833,1.35 -1.452,1.9 -0.608,0.54 -1.295,0.95 -2.06,1.23 -1.565,0.57 -2.764,0.47 -3.597,-0.31 -0.834,-0.8 -1.25,-2.2 -1.25,-4.2 0,-1.41 0.225,-2.68 0.675,-3.82 0.451,-1.14 1.081,-2.1 1.892,-2.89 0.81,-0.804 1.756,-1.405 2.837,-1.804 1.171,-0.432 2.105,-0.549 2.803,-0.35 l -0.49,1.224 c -0.562,-0.188 -1.328,-0.103 -2.296,0.25 -1.306,0.49 -2.331,1.31 -3.074,2.47 -0.743,1.15 -1.114,2.56 -1.114,4.24 0,0.3 0.017,0.64 0.05,1.01 0.293,-0.79 0.76,-1.49 1.402,-2.1 0.642,-0.62 1.379,-1.08 2.212,-1.39 z m -0.101,6.59 c 0.856,-0.32 1.548,-0.82 2.077,-1.51 0.54,-0.7 0.811,-1.47 0.811,-2.29 0,-0.83 -0.271,-1.39 -0.811,-1.68 -0.529,-0.3 -1.25,-0.28 -2.162,0.06 -0.596,0.22 -1.125,0.53 -1.587,0.94 -0.45,0.41 -0.805,0.87 -1.064,1.38 -0.259,0.52 -0.388,1.03 -0.388,1.55 0,0.48 0.118,0.88 0.354,1.2 0.248,0.32 0.608,0.52 1.081,0.59 0.473,0.08 1.036,0 1.689,-0.24 z"
         fill="#ffffff"
         id="path1333" />
      <rect
         width="95.681999"
         height="26.4058"
         rx="12"
         transform="matrix(0.938191,-0.346117,0,1,323,1053.12)"
         fill="#4508bd"
         id="rect1335"
         x="0"
         y="0" />
      <path
         d="m 338.751,1067.6 c -0.878,0.32 -1.723,0.48 -2.533,0.48 -0.8,0 -1.419,-0.17 -1.858,-0.5 l 0.49,-1.21 c 0.428,0.3 0.996,0.46 1.706,0.49 0.709,0.01 1.441,-0.12 2.195,-0.4 1.058,-0.39 1.852,-0.88 2.381,-1.49 0.529,-0.61 0.794,-1.25 0.794,-1.91 0,-0.5 -0.147,-0.85 -0.439,-1.04 -0.282,-0.2 -0.631,-0.3 -1.047,-0.3 -0.417,-0.01 -0.997,0.02 -1.74,0.1 -0.889,0.09 -1.598,0.12 -2.128,0.1 -0.529,-0.03 -0.985,-0.2 -1.367,-0.52 -0.372,-0.32 -0.558,-0.87 -0.558,-1.65 0,-0.63 0.158,-1.27 0.473,-1.9 0.315,-0.64 0.799,-1.24 1.452,-1.8 0.653,-0.55 1.464,-1 2.432,-1.36 0.676,-0.25 1.334,-0.39 1.976,-0.42 0.653,-0.05 1.216,0.01 1.689,0.18 l -0.422,1.22 c -0.496,-0.16 -1.025,-0.23 -1.588,-0.19 -0.563,0.03 -1.114,0.14 -1.655,0.34 -1.036,0.39 -1.818,0.89 -2.347,1.52 -0.518,0.61 -0.777,1.25 -0.777,1.92 0,0.51 0.141,0.86 0.422,1.07 0.293,0.19 0.653,0.29 1.081,0.3 0.439,0 1.025,-0.04 1.756,-0.12 0.867,-0.09 1.565,-0.12 2.094,-0.09 0.541,0.02 0.997,0.18 1.368,0.5 0.372,0.31 0.558,0.85 0.558,1.61 0,0.64 -0.164,1.28 -0.49,1.93 -0.315,0.63 -0.805,1.23 -1.469,1.79 -0.665,0.54 -1.481,0.99 -2.449,1.35 z m 6.877,-16 1.199,-0.44 v 13.35 l -1.199,0.44 z m 8.166,10.43 c -0.856,0.32 -1.627,0.4 -2.314,0.24 -0.686,-0.16 -1.227,-0.54 -1.621,-1.13 -0.394,-0.58 -0.591,-1.34 -0.591,-2.26 0,-0.93 0.197,-1.83 0.591,-2.71 0.394,-0.87 0.935,-1.64 1.621,-2.3 0.687,-0.66 1.458,-1.15 2.314,-1.47 0.856,-0.31 1.627,-0.4 2.314,-0.24 0.686,0.15 1.221,0.53 1.604,1.12 0.394,0.58 0.591,1.34 0.591,2.26 0,0.93 -0.197,1.83 -0.591,2.71 -0.383,0.87 -0.918,1.64 -1.604,2.32 -0.687,0.66 -1.458,1.15 -2.314,1.46 z m 0,-1.13 c 0.631,-0.24 1.193,-0.59 1.689,-1.08 0.506,-0.5 0.9,-1.08 1.182,-1.75 0.281,-0.66 0.422,-1.36 0.422,-2.08 0,-0.72 -0.141,-1.31 -0.422,-1.77 -0.282,-0.46 -0.676,-0.75 -1.182,-0.86 -0.496,-0.13 -1.058,-0.08 -1.689,0.16 -0.63,0.23 -1.199,0.6 -1.706,1.09 -0.495,0.49 -0.889,1.06 -1.182,1.74 -0.281,0.66 -0.422,1.36 -0.422,2.08 0,0.72 0.141,1.31 0.422,1.77 0.293,0.45 0.687,0.75 1.182,0.88 0.507,0.11 1.076,0.05 1.706,-0.18 z m 13.074,-4.84 v 1.06 l -7.228,2.66 v -0.84 l 5.59,-9.61 -5.489,2.03 v -1.08 l 7.025,-2.59 v 0.84 l -5.589,9.63 z m -0.828,-11.81 -2.178,3.03 -1.216,0.45 -2.179,-1.43 1.115,-0.41 1.672,0.86 1.672,-2.09 z m 6.481,6.03 -2.094,2.82 v 2.7 l -1.199,0.45 v -13.36 l 1.199,-0.44 v 9.05 l 5.302,-7.12 1.486,-0.55 -3.799,5.27 4.154,4.07 -1.469,0.54 z m 9.791,-8.4 c 1.16,-0.43 2.049,-0.44 2.669,-0.05 0.619,0.39 0.928,1.18 0.928,2.39 v 5.87 l -1.148,0.43 v -1.48 c -0.27,0.59 -0.67,1.12 -1.199,1.59 -0.518,0.47 -1.137,0.84 -1.858,1.1 -0.99,0.37 -1.778,0.41 -2.364,0.12 -0.585,-0.29 -0.878,-0.85 -0.878,-1.67 0,-0.81 0.27,-1.56 0.811,-2.25 0.551,-0.69 1.424,-1.26 2.617,-1.7 l 2.82,-1.04 v -0.58 c 0,-0.81 -0.214,-1.35 -0.641,-1.61 -0.428,-0.28 -1.053,-0.26 -1.875,0.04 -0.563,0.21 -1.103,0.51 -1.621,0.9 -0.518,0.39 -0.963,0.82 -1.334,1.31 l -0.541,-0.76 c 0.451,-0.57 0.991,-1.08 1.622,-1.53 0.63,-0.46 1.294,-0.82 1.992,-1.08 z m -0.422,8.78 c 0.676,-0.25 1.255,-0.63 1.74,-1.13 0.484,-0.51 0.844,-1.13 1.08,-1.84 v -1.55 l -2.786,1.03 c -1.52,0.56 -2.28,1.41 -2.28,2.53 0,0.56 0.197,0.92 0.591,1.1 0.394,0.17 0.946,0.12 1.655,-0.14 z m 19.244,-18.78 v 0.91 l -4.948,13.51 -1.317,0.49 4.864,-13.24 -6.08,2.24 v 2.36 l -1.199,0.44 v -3.51 z"
         fill="#ffffff"
         id="path1337" />
      <rect
         width="95.681999"
         height="26.4058"
         rx="12"
         transform="matrix(0.938191,-0.346117,0,1,323,1087.12)"
         fill="#4508bd"
         id="rect1339"
         x="0"
         y="0" />
      <path
         d="m 338.839,1100.94 c -0.879,0.32 -1.723,0.48 -2.534,0.48 -0.799,-0.01 -1.418,-0.17 -1.857,-0.5 l 0.49,-1.21 c 0.427,0.3 0.996,0.46 1.705,0.49 0.71,0.01 1.441,-0.12 2.196,-0.4 1.058,-0.39 1.852,-0.89 2.381,-1.49 0.529,-0.61 0.793,-1.25 0.793,-1.91 0,-0.51 -0.146,-0.85 -0.439,-1.05 -0.281,-0.19 -0.63,-0.29 -1.047,-0.29 -0.416,-0.02 -0.996,0.02 -1.739,0.1 -0.889,0.09 -1.599,0.12 -2.128,0.1 -0.529,-0.03 -0.985,-0.21 -1.368,-0.52 -0.371,-0.32 -0.557,-0.87 -0.557,-1.65 0,-0.64 0.158,-1.27 0.473,-1.9 0.315,-0.65 0.799,-1.25 1.452,-1.8 0.653,-0.55 1.464,-1.01 2.432,-1.36 0.675,-0.25 1.334,-0.39 1.976,-0.43 0.653,-0.05 1.216,0.02 1.688,0.19 l -0.422,1.22 c -0.495,-0.17 -1.024,-0.23 -1.587,-0.19 -0.563,0.03 -1.115,0.14 -1.655,0.34 -1.036,0.38 -1.818,0.89 -2.347,1.51 -0.518,0.61 -0.777,1.26 -0.777,1.93 0,0.5 0.14,0.86 0.422,1.07 0.293,0.19 0.653,0.29 1.081,0.3 0.439,-0.01 1.024,-0.05 1.756,-0.13 0.867,-0.09 1.565,-0.12 2.094,-0.08 0.54,0.01 0.996,0.18 1.368,0.5 0.371,0.31 0.557,0.84 0.557,1.61 0,0.64 -0.163,1.28 -0.49,1.93 -0.315,0.63 -0.804,1.22 -1.469,1.78 -0.664,0.55 -1.48,1 -2.448,1.36 z m 6.877,-16.01 1.199,-0.44 v 13.36 l -1.199,0.44 z m 8.166,10.44 c -0.856,0.31 -1.627,0.39 -2.314,0.24 -0.687,-0.17 -1.227,-0.54 -1.621,-1.13 -0.394,-0.59 -0.591,-1.34 -0.591,-2.27 0,-0.92 0.197,-1.82 0.591,-2.7 0.394,-0.88 0.934,-1.65 1.621,-2.31 0.687,-0.66 1.458,-1.15 2.314,-1.46 0.855,-0.32 1.627,-0.4 2.313,-0.24 0.687,0.15 1.222,0.52 1.605,1.11 0.394,0.59 0.591,1.35 0.591,2.27 0,0.92 -0.197,1.82 -0.591,2.7 -0.383,0.88 -0.918,1.65 -1.605,2.32 -0.686,0.66 -1.458,1.15 -2.313,1.47 z m 0,-1.14 c 0.63,-0.23 1.193,-0.59 1.689,-1.07 0.506,-0.5 0.9,-1.08 1.182,-1.75 0.281,-0.67 0.422,-1.36 0.422,-2.08 0,-0.72 -0.141,-1.31 -0.422,-1.77 -0.282,-0.46 -0.676,-0.75 -1.182,-0.86 -0.496,-0.13 -1.059,-0.08 -1.689,0.15 -0.631,0.24 -1.199,0.6 -1.706,1.1 -0.495,0.48 -0.889,1.06 -1.182,1.73 -0.281,0.67 -0.422,1.36 -0.422,2.08 0,0.72 0.141,1.31 0.422,1.77 0.293,0.46 0.687,0.75 1.182,0.88 0.507,0.12 1.075,0.06 1.706,-0.18 z m 13.073,-4.84 v 1.06 l -7.227,2.67 v -0.85 l 5.589,-9.6 -5.488,2.03 v -1.08 l 7.025,-2.6 v 0.85 l -5.59,9.62 z m -0.827,-11.81 -2.179,3.04 -1.215,0.45 -2.179,-1.43 1.115,-0.41 1.671,0.86 1.672,-2.1 z m 6.48,6.04 -2.094,2.82 v 2.7 l -1.199,0.44 v -13.35 l 1.199,-0.44 v 9.05 l 5.303,-7.12 1.486,-0.55 -3.8,5.27 4.155,4.07 -1.47,0.54 z m 9.792,-8.4 c 1.16,-0.43 2.049,-0.45 2.668,-0.05 0.619,0.38 0.929,1.18 0.929,2.39 v 5.87 l -1.148,0.42 v -1.47 c -0.27,0.59 -0.67,1.12 -1.199,1.59 -0.518,0.47 -1.137,0.83 -1.858,1.1 -0.991,0.37 -1.779,0.4 -2.364,0.12 -0.586,-0.29 -0.878,-0.85 -0.878,-1.68 0,-0.8 0.27,-1.55 0.81,-2.24 0.552,-0.7 1.424,-1.26 2.618,-1.7 l 2.82,-1.04 v -0.58 c 0,-0.82 -0.214,-1.36 -0.642,-1.62 -0.427,-0.27 -1.052,-0.26 -1.874,0.05 -0.563,0.2 -1.103,0.51 -1.621,0.9 -0.518,0.38 -0.963,0.82 -1.334,1.3 l -0.541,-0.75 c 0.45,-0.58 0.991,-1.09 1.621,-1.54 0.631,-0.46 1.295,-0.82 1.993,-1.07 z m -0.422,8.77 c 0.675,-0.25 1.255,-0.62 1.739,-1.12 0.484,-0.52 0.845,-1.13 1.081,-1.84 v -1.55 l -2.786,1.03 c -1.52,0.56 -2.28,1.4 -2.28,2.53 0,0.55 0.197,0.92 0.591,1.1 0.394,0.16 0.946,0.12 1.655,-0.15 z m 17.674,-12.2 c 0.743,-0.01 1.311,0.17 1.705,0.55 0.406,0.38 0.608,0.94 0.608,1.69 0,0.73 -0.186,1.44 -0.557,2.13 -0.372,0.68 -0.906,1.29 -1.604,1.85 -0.687,0.54 -1.498,0.99 -2.432,1.33 -1.419,0.52 -2.533,0.61 -3.344,0.26 -0.811,-0.35 -1.216,-1.08 -1.216,-2.19 0,-0.76 0.192,-1.47 0.574,-2.12 0.394,-0.68 0.963,-1.28 1.706,-1.82 -0.608,-0.03 -1.07,-0.22 -1.385,-0.57 -0.315,-0.36 -0.473,-0.87 -0.473,-1.52 0,-1.02 0.372,-1.97 1.115,-2.84 0.754,-0.88 1.762,-1.55 3.023,-2.01 0.833,-0.31 1.559,-0.44 2.178,-0.39 0.631,0.03 1.12,0.23 1.469,0.61 0.35,0.37 0.524,0.89 0.524,1.57 0,0.64 -0.163,1.27 -0.49,1.87 -0.326,0.59 -0.793,1.12 -1.401,1.6 z m -5.202,-0.82 c 0,0.69 0.259,1.15 0.777,1.37 0.518,0.22 1.233,0.16 2.145,-0.18 0.912,-0.34 1.627,-0.81 2.145,-1.4 0.529,-0.61 0.793,-1.25 0.793,-1.93 0,-0.71 -0.27,-1.17 -0.81,-1.38 -0.53,-0.21 -1.239,-0.16 -2.128,0.17 -0.901,0.34 -1.616,0.8 -2.145,1.41 -0.518,0.6 -0.777,1.24 -0.777,1.94 z m 2.922,7.27 c 1.047,-0.38 1.863,-0.91 2.448,-1.58 0.597,-0.68 0.896,-1.41 0.896,-2.19 0,-0.78 -0.299,-1.28 -0.896,-1.5 -0.585,-0.24 -1.401,-0.17 -2.448,0.22 -1.036,0.38 -1.852,0.91 -2.449,1.58 -0.585,0.66 -0.878,1.38 -0.878,2.16 0,0.79 0.293,1.31 0.878,1.55 0.586,0.23 1.402,0.15 2.449,-0.24 z"
         fill="#ffffff"
         id="path1341" />
      <rect
         width="95.681999"
         height="26.4058"
         rx="12"
         transform="matrix(0.938191,-0.346117,0,1,323,1121.12)"
         fill="#4508bd"
         id="rect1343"
         x="0"
         y="0" />
      <path
         d="m 339.078,1135.85 c -0.878,0.32 -1.723,0.48 -2.533,0.48 -0.8,0 -1.419,-0.17 -1.858,-0.5 l 0.49,-1.21 c 0.428,0.3 0.996,0.46 1.705,0.49 0.71,0.01 1.441,-0.12 2.196,-0.4 1.058,-0.39 1.852,-0.88 2.381,-1.49 0.529,-0.61 0.794,-1.25 0.794,-1.91 0,-0.5 -0.147,-0.85 -0.439,-1.04 -0.282,-0.2 -0.631,-0.3 -1.048,-0.3 -0.416,-0.02 -0.996,0.02 -1.739,0.1 -0.889,0.09 -1.599,0.12 -2.128,0.1 -0.529,-0.03 -0.985,-0.21 -1.368,-0.52 -0.371,-0.32 -0.557,-0.87 -0.557,-1.65 0,-0.64 0.158,-1.27 0.473,-1.9 0.315,-0.65 0.799,-1.24 1.452,-1.8 0.653,-0.55 1.464,-1.01 2.432,-1.36 0.676,-0.25 1.334,-0.39 1.976,-0.43 0.653,-0.04 1.216,0.02 1.689,0.19 l -0.423,1.22 c -0.495,-0.17 -1.024,-0.23 -1.587,-0.19 -0.563,0.03 -1.115,0.14 -1.655,0.34 -1.036,0.38 -1.818,0.89 -2.347,1.52 -0.518,0.61 -0.777,1.25 -0.777,1.92 0,0.5 0.141,0.86 0.422,1.07 0.293,0.19 0.653,0.29 1.081,0.3 0.439,0 1.024,-0.05 1.756,-0.12 0.867,-0.1 1.565,-0.13 2.094,-0.09 0.541,0.01 0.997,0.18 1.368,0.5 0.372,0.31 0.557,0.84 0.557,1.61 0,0.64 -0.163,1.28 -0.489,1.93 -0.316,0.63 -0.805,1.23 -1.47,1.78 -0.664,0.55 -1.48,1 -2.448,1.36 z m 6.877,-16 1.199,-0.45 v 13.36 l -1.199,0.44 z m 8.166,10.43 c -0.856,0.31 -1.627,0.4 -2.314,0.24 -0.686,-0.17 -1.227,-0.54 -1.621,-1.13 -0.394,-0.59 -0.591,-1.34 -0.591,-2.27 0,-0.92 0.197,-1.82 0.591,-2.7 0.394,-0.87 0.935,-1.64 1.621,-2.31 0.687,-0.66 1.458,-1.15 2.314,-1.46 0.856,-0.32 1.627,-0.4 2.313,-0.24 0.687,0.15 1.222,0.53 1.605,1.12 0.394,0.58 0.591,1.34 0.591,2.26 0,0.93 -0.197,1.83 -0.591,2.7 -0.383,0.88 -0.918,1.65 -1.605,2.32 -0.686,0.67 -1.457,1.15 -2.313,1.47 z m 0,-1.13 c 0.63,-0.24 1.193,-0.6 1.689,-1.08 0.506,-0.5 0.9,-1.08 1.182,-1.75 0.281,-0.67 0.422,-1.36 0.422,-2.08 0,-0.72 -0.141,-1.31 -0.422,-1.77 -0.282,-0.46 -0.676,-0.75 -1.182,-0.86 -0.496,-0.13 -1.059,-0.08 -1.689,0.16 -0.631,0.23 -1.199,0.59 -1.706,1.09 -0.495,0.49 -0.889,1.06 -1.182,1.73 -0.281,0.67 -0.422,1.37 -0.422,2.09 0,0.72 0.141,1.31 0.422,1.77 0.293,0.45 0.687,0.75 1.182,0.87 0.507,0.12 1.075,0.06 1.706,-0.17 z m 13.074,-4.85 v 1.07 l -7.228,2.66 v -0.84 l 5.589,-9.61 -5.488,2.03 v -1.08 l 7.025,-2.59 v 0.84 l -5.59,9.62 z m -0.828,-11.8 -2.178,3.03 -1.216,0.45 -2.179,-1.43 1.115,-0.41 1.672,0.86 1.671,-2.09 z m 6.48,6.03 -2.094,2.82 v 2.7 l -1.199,0.45 v -13.36 l 1.199,-0.44 v 9.05 l 5.303,-7.12 1.486,-0.55 -3.799,5.27 4.154,4.07 -1.469,0.54 z m 9.792,-8.4 c 1.16,-0.43 2.049,-0.45 2.668,-0.05 0.62,0.38 0.929,1.18 0.929,2.39 v 5.87 l -1.148,0.42 v -1.47 c -0.27,0.59 -0.67,1.12 -1.199,1.59 -0.518,0.47 -1.137,0.84 -1.858,1.1 -0.991,0.37 -1.779,0.41 -2.364,0.12 -0.585,-0.29 -0.878,-0.85 -0.878,-1.68 0,-0.8 0.27,-1.55 0.81,-2.24 0.552,-0.69 1.425,-1.26 2.618,-1.7 l 2.82,-1.04 v -0.58 c 0,-0.81 -0.214,-1.35 -0.642,-1.62 -0.427,-0.27 -1.052,-0.26 -1.874,0.05 -0.563,0.21 -1.103,0.51 -1.621,0.9 -0.518,0.38 -0.963,0.82 -1.334,1.3 l -0.541,-0.75 c 0.451,-0.57 0.991,-1.09 1.621,-1.53 0.631,-0.47 1.295,-0.82 1.993,-1.08 z m -0.422,8.78 c 0.675,-0.25 1.255,-0.63 1.739,-1.13 0.484,-0.52 0.845,-1.13 1.081,-1.84 v -1.55 l -2.786,1.03 c -1.52,0.56 -2.28,1.4 -2.28,2.53 0,0.55 0.197,0.92 0.591,1.1 0.394,0.17 0.946,0.12 1.655,-0.14 z m 14.583,-17.17 c 1.565,-0.58 2.764,-0.47 3.597,0.32 0.833,0.79 1.25,2.18 1.25,4.19 0,1.4 -0.225,2.67 -0.675,3.81 -0.451,1.14 -1.081,2.11 -1.892,2.91 -0.81,0.79 -1.756,1.39 -2.837,1.79 -1.171,0.43 -2.105,0.55 -2.803,0.35 l 0.489,-1.23 c 0.563,0.19 1.329,0.11 2.297,-0.25 1.306,-0.48 2.331,-1.3 3.074,-2.45 0.743,-1.16 1.114,-2.58 1.114,-4.26 0,-0.31 -0.017,-0.65 -0.05,-1.01 -0.293,0.79 -0.76,1.5 -1.402,2.12 -0.642,0.61 -1.379,1.07 -2.212,1.37 -0.777,0.29 -1.47,0.39 -2.077,0.3 -0.597,-0.09 -1.064,-0.35 -1.402,-0.79 -0.338,-0.46 -0.507,-1.06 -0.507,-1.82 0,-0.76 0.175,-1.51 0.524,-2.22 0.349,-0.72 0.827,-1.35 1.435,-1.88 0.619,-0.55 1.312,-0.97 2.077,-1.25 z m 0.135,6.5 c 0.597,-0.22 1.121,-0.54 1.571,-0.94 0.462,-0.41 0.822,-0.87 1.081,-1.39 0.259,-0.52 0.388,-1.03 0.388,-1.55 0,-0.48 -0.124,-0.88 -0.371,-1.19 -0.237,-0.32 -0.591,-0.52 -1.064,-0.6 -0.473,-0.08 -1.036,0 -1.689,0.25 -0.856,0.31 -1.554,0.82 -2.094,1.52 -0.529,0.69 -0.794,1.45 -0.794,2.28 0,0.82 0.265,1.39 0.794,1.68 0.54,0.3 1.267,0.27 2.178,-0.06 z"
         fill="#ffffff"
         id="path1345" />
      <rect
         width="95.681999"
         height="26.4058"
         rx="12"
         transform="matrix(0.938191,-0.346117,0,1,323,1155.12)"
         fill="#4508bd"
         id="rect1347"
         x="0"
         y="0" />
      <path
         d="m 335.082,1170.43 c -0.879,0.32 -1.723,0.48 -2.534,0.48 -0.799,0 -1.418,-0.17 -1.857,-0.5 l 0.49,-1.21 c 0.427,0.3 0.996,0.46 1.705,0.49 0.709,0.01 1.441,-0.12 2.196,-0.4 1.058,-0.39 1.851,-0.88 2.381,-1.49 0.529,-0.61 0.793,-1.25 0.793,-1.91 0,-0.5 -0.146,-0.85 -0.439,-1.04 -0.281,-0.2 -0.63,-0.3 -1.047,-0.3 -0.416,-0.02 -0.996,0.02 -1.739,0.1 -0.89,0.09 -1.599,0.12 -2.128,0.1 -0.529,-0.03 -0.985,-0.2 -1.368,-0.52 -0.371,-0.32 -0.557,-0.87 -0.557,-1.65 0,-0.63 0.157,-1.27 0.473,-1.9 0.315,-0.64 0.799,-1.24 1.452,-1.8 0.653,-0.55 1.464,-1 2.432,-1.36 0.675,-0.25 1.334,-0.39 1.976,-0.42 0.653,-0.05 1.216,0.01 1.688,0.18 l -0.422,1.22 c -0.495,-0.16 -1.024,-0.23 -1.587,-0.19 -0.563,0.03 -1.115,0.14 -1.655,0.34 -1.036,0.38 -1.818,0.89 -2.348,1.52 -0.517,0.61 -0.776,1.25 -0.776,1.92 0,0.51 0.14,0.86 0.422,1.07 0.293,0.19 0.653,0.29 1.081,0.3 0.439,0 1.024,-0.05 1.756,-0.12 0.867,-0.1 1.565,-0.12 2.094,-0.09 0.54,0.01 0.996,0.18 1.368,0.5 0.371,0.31 0.557,0.85 0.557,1.61 0,0.64 -0.163,1.28 -0.49,1.93 -0.315,0.63 -0.805,1.23 -1.469,1.78 -0.664,0.55 -1.48,1 -2.448,1.36 z m 6.877,-16 1.199,-0.45 v 13.36 l -1.199,0.44 z m 8.166,10.43 c -0.856,0.32 -1.627,0.4 -2.314,0.24 -0.687,-0.16 -1.227,-0.54 -1.621,-1.13 -0.394,-0.58 -0.591,-1.34 -0.591,-2.26 0,-0.93 0.197,-1.83 0.591,-2.71 0.394,-0.87 0.934,-1.64 1.621,-2.3 0.687,-0.67 1.458,-1.15 2.314,-1.47 0.855,-0.32 1.626,-0.4 2.313,-0.24 0.687,0.15 1.222,0.53 1.605,1.12 0.394,0.58 0.591,1.34 0.591,2.26 0,0.93 -0.197,1.83 -0.591,2.7 -0.383,0.88 -0.918,1.65 -1.605,2.32 -0.687,0.67 -1.458,1.15 -2.313,1.47 z m 0,-1.13 c 0.63,-0.24 1.193,-0.59 1.688,-1.08 0.507,-0.5 0.901,-1.08 1.183,-1.75 0.281,-0.66 0.422,-1.36 0.422,-2.08 0,-0.72 -0.141,-1.31 -0.422,-1.77 -0.282,-0.46 -0.676,-0.75 -1.183,-0.86 -0.495,-0.13 -1.058,-0.08 -1.688,0.16 -0.631,0.23 -1.199,0.59 -1.706,1.09 -0.495,0.49 -0.889,1.06 -1.182,1.74 -0.282,0.66 -0.422,1.36 -0.422,2.08 0,0.72 0.14,1.31 0.422,1.77 0.293,0.45 0.687,0.75 1.182,0.88 0.507,0.11 1.075,0.05 1.706,-0.18 z m 13.073,-4.84 v 1.06 l -7.228,2.66 v -0.84 l 5.59,-9.61 -5.488,2.03 v -1.08 l 7.025,-2.59 v 0.84 l -5.59,9.62 z m -0.827,-11.81 -2.179,3.03 -1.216,0.45 -2.178,-1.43 1.115,-0.41 1.671,0.86 1.672,-2.09 z m 6.48,6.03 -2.094,2.82 v 2.7 l -1.199,0.45 v -13.36 l 1.199,-0.44 v 9.05 l 5.303,-7.12 1.486,-0.55 -3.8,5.27 4.155,4.07 -1.47,0.54 z m 9.792,-8.4 c 1.16,-0.43 2.049,-0.44 2.668,-0.05 0.619,0.38 0.929,1.18 0.929,2.39 v 5.87 l -1.148,0.43 v -1.48 c -0.271,0.59 -0.67,1.12 -1.199,1.59 -0.518,0.47 -1.137,0.84 -1.858,1.1 -0.991,0.37 -1.779,0.41 -2.364,0.12 -0.586,-0.29 -0.878,-0.85 -0.878,-1.67 0,-0.81 0.27,-1.56 0.81,-2.25 0.552,-0.69 1.424,-1.26 2.618,-1.7 l 2.82,-1.04 v -0.58 c 0,-0.81 -0.214,-1.35 -0.642,-1.61 -0.428,-0.28 -1.052,-0.26 -1.874,0.04 -0.563,0.21 -1.104,0.51 -1.621,0.9 -0.518,0.39 -0.963,0.82 -1.335,1.31 l -0.54,-0.76 c 0.45,-0.57 0.991,-1.08 1.621,-1.53 0.631,-0.46 1.295,-0.82 1.993,-1.08 z m -0.422,8.78 c 0.675,-0.25 1.255,-0.63 1.739,-1.13 0.484,-0.52 0.845,-1.13 1.081,-1.84 v -1.55 l -2.786,1.03 c -1.52,0.56 -2.28,1.41 -2.28,2.53 0,0.56 0.197,0.92 0.591,1.1 0.394,0.17 0.945,0.12 1.655,-0.14 z m 14.178,-16.92 v 12.6 l -1.216,0.45 v -11.44 l -2.787,1.02 v -1.15 z m 7.537,9.93 c -0.912,0.34 -1.728,0.38 -2.449,0.13 -0.709,-0.25 -1.266,-0.79 -1.671,-1.6 -0.394,-0.82 -0.591,-1.89 -0.591,-3.2 0,-1.31 0.197,-2.51 0.591,-3.62 0.405,-1.12 0.962,-2.07 1.671,-2.85 0.721,-0.78 1.537,-1.34 2.449,-1.67 0.912,-0.34 1.723,-0.38 2.432,-0.13 0.72,0.25 1.283,0.79 1.689,1.61 0.405,0.81 0.608,1.87 0.608,3.18 0,1.31 -0.203,2.52 -0.608,3.64 -0.406,1.11 -0.969,2.06 -1.689,2.84 -0.709,0.78 -1.52,1.34 -2.432,1.67 z m 0,-1.19 c 0.687,-0.25 1.289,-0.68 1.807,-1.27 0.529,-0.61 0.94,-1.35 1.233,-2.24 0.293,-0.89 0.439,-1.89 0.439,-2.99 0,-1.1 -0.146,-1.99 -0.439,-2.66 -0.293,-0.68 -0.704,-1.12 -1.233,-1.33 -0.518,-0.22 -1.12,-0.2 -1.807,0.05 -0.687,0.26 -1.295,0.69 -1.824,1.29 -0.518,0.6 -0.923,1.34 -1.216,2.23 -0.292,0.89 -0.439,1.88 -0.439,2.99 0,1.1 0.147,1.99 0.439,2.66 0.293,0.67 0.698,1.12 1.216,1.33 0.529,0.22 1.137,0.2 1.824,-0.06 z"
         fill="#ffffff"
         id="path1349" />
    </g>
  </g>
  <g
     id="g1091"
     transform="translate(-42.177,-24.605)">
    <rect
       width="565.86902"
       height="32.1432"
       rx="16.0716"
       transform="matrix(0.938191,-0.346117,0,1,267.371,714.245)"
       fill="#b4a7ff"
       id="rect1353"
       x="0"
       y="0" />
    <g
       id="g1357">
      <rect
         width="565.86902"
         height="32.1432"
         rx="16.0716"
         transform="matrix(0.938191,-0.346117,0,1,271.569,716.522)"
         fill="#ffffff"
         filter="url(#shadow-1)"
         id="rect1355"
         x="0"
         y="0" />
    </g>
    <g
       id="g1080">
      <path
         d="m 294.386,731.193 c -1.531,0.565 -2.724,0.537 -3.58,-0.083 -0.856,-0.621 -1.283,-1.825 -1.283,-3.613 v -7.218 l 1.249,-0.461 v 7.164 c 0,1.464 0.31,2.442 0.929,2.933 0.619,0.492 1.514,0.522 2.685,0.09 1.182,-0.436 2.083,-1.129 2.702,-2.077 0.619,-0.948 0.929,-2.155 0.929,-3.619 v -7.164 l 1.216,-0.448 v 7.218 c 0,1.788 -0.428,3.308 -1.284,4.559 -0.844,1.248 -2.032,2.154 -3.563,2.719 z m 1.216,-16.415 1.604,-0.592 -2.735,3.242 -1.183,0.436 z m 14.608,1.001 -3.952,10.926 -1.233,0.455 -3.935,-8.017 1.25,-0.461 3.327,6.837 3.36,-9.304 z m 5.072,7.687 c -0.856,0.316 -1.627,0.396 -2.314,0.242 -0.687,-0.167 -1.227,-0.544 -1.621,-1.13 -0.394,-0.587 -0.591,-1.342 -0.591,-2.266 0,-0.924 0.197,-1.825 0.591,-2.702 0.394,-0.878 0.934,-1.647 1.621,-2.308 0.687,-0.662 1.458,-1.15 2.314,-1.466 0.855,-0.316 1.626,-0.396 2.313,-0.241 0.687,0.154 1.222,0.527 1.604,1.118 0.395,0.586 0.592,1.342 0.592,2.266 0,0.924 -0.197,1.824 -0.592,2.702 -0.382,0.873 -0.917,1.646 -1.604,2.32 -0.687,0.661 -1.458,1.149 -2.313,1.465 z m 0,-1.134 c 0.63,-0.233 1.193,-0.59 1.688,-1.073 0.507,-0.499 0.901,-1.082 1.182,-1.75 0.282,-0.668 0.423,-1.362 0.423,-2.082 0,-0.72 -0.141,-1.31 -0.423,-1.77 -0.281,-0.46 -0.675,-0.747 -1.182,-0.86 -0.495,-0.129 -1.058,-0.078 -1.688,0.155 -0.631,0.233 -1.199,0.598 -1.706,1.097 -0.495,0.483 -0.889,1.06 -1.182,1.732 -0.282,0.668 -0.422,1.362 -0.422,2.082 0,0.72 0.14,1.31 0.422,1.77 0.293,0.456 0.687,0.749 1.182,0.878 0.507,0.113 1.075,0.054 1.706,-0.179 z m 15.062,-17.869 v 13.356 l -1.148,0.424 v -1.872 c -0.36,0.769 -0.839,1.431 -1.435,1.987 -0.586,0.552 -1.25,0.965 -1.993,1.239 -0.833,0.308 -1.588,0.382 -2.263,0.223 -0.676,-0.159 -1.205,-0.533 -1.587,-1.124 -0.383,-0.591 -0.575,-1.354 -0.575,-2.29 0,-0.936 0.192,-1.841 0.575,-2.714 0.382,-0.873 0.911,-1.633 1.587,-2.278 0.675,-0.657 1.43,-1.139 2.263,-1.447 0.72,-0.265 1.368,-0.342 1.942,-0.23 0.585,0.096 1.064,0.381 1.435,0.856 v -5.688 z m -4.475,13.963 c 0.619,-0.228 1.177,-0.584 1.672,-1.067 0.507,-0.499 0.901,-1.082 1.182,-1.75 0.293,-0.672 0.439,-1.368 0.439,-2.088 0,-0.72 -0.146,-1.308 -0.439,-1.764 -0.281,-0.46 -0.675,-0.747 -1.182,-0.86 -0.495,-0.129 -1.053,-0.079 -1.672,0.149 -0.63,0.233 -1.199,0.598 -1.705,1.097 -0.496,0.483 -0.89,1.06 -1.183,1.732 -0.281,0.668 -0.422,1.362 -0.422,2.082 0,0.72 0.141,1.31 0.422,1.77 0.293,0.456 0.687,0.749 1.183,0.878 0.506,0.113 1.075,0.054 1.705,-0.179 z"
         fill="#310686"
         id="path1359" />
      <path
         d="m 352.589,698.165 v 4.95 l 6.114,-2.255 v 1.152 l -6.114,2.255 v 5.346 l -1.249,0.461 v -12.6 l 8.106,-2.991 v 1.152 z m 12.518,6.92 c -0.856,0.316 -1.627,0.396 -2.314,0.241 -0.686,-0.166 -1.227,-0.543 -1.621,-1.129 -0.394,-0.587 -0.591,-1.342 -0.591,-2.266 0,-0.924 0.197,-1.825 0.591,-2.702 0.394,-0.878 0.935,-1.647 1.621,-2.309 0.687,-0.661 1.458,-1.149 2.314,-1.465 0.856,-0.316 1.627,-0.396 2.314,-0.242 0.686,0.155 1.221,0.528 1.604,1.119 0.394,0.586 0.591,1.341 0.591,2.265 0,0.924 -0.197,1.825 -0.591,2.703 -0.383,0.873 -0.918,1.646 -1.604,2.319 -0.687,0.662 -1.458,1.15 -2.314,1.466 z m 0,-1.134 c 0.63,-0.233 1.193,-0.59 1.689,-1.073 0.506,-0.499 0.9,-1.082 1.182,-1.75 0.281,-0.668 0.422,-1.362 0.422,-2.082 0,-0.72 -0.141,-1.31 -0.422,-1.77 -0.282,-0.46 -0.676,-0.747 -1.182,-0.86 -0.496,-0.129 -1.059,-0.078 -1.689,0.155 -0.631,0.232 -1.199,0.598 -1.706,1.097 -0.495,0.483 -0.889,1.06 -1.182,1.732 -0.281,0.668 -0.422,1.362 -0.422,2.082 0,0.72 0.141,1.31 0.422,1.77 0.293,0.456 0.687,0.749 1.182,0.878 0.507,0.113 1.075,0.053 1.706,-0.179 z m 11.635,-3.824 c -0.226,0.299 -0.507,0.571 -0.845,0.815 -0.326,0.229 -0.67,0.409 -1.03,0.542 -0.833,0.308 -1.475,0.304 -1.925,-0.01 -0.45,-0.313 -0.676,-0.908 -0.676,-1.784 v -5.724 l -1.587,0.585 v -1.08 l 1.587,-0.585 v -2.07 l 1.199,-0.443 v 2.07 l 2.702,-0.997 v 1.08 l -2.702,0.997 v 5.652 c 0,0.564 0.13,0.949 0.389,1.153 0.27,0.188 0.653,0.191 1.148,0.008 0.248,-0.091 0.484,-0.22 0.709,-0.387 0.237,-0.172 0.44,-0.366 0.608,-0.585 z m 5.5,-1.363 c -0.856,0.315 -1.627,0.396 -2.314,0.241 -0.687,-0.167 -1.227,-0.543 -1.621,-1.13 -0.394,-0.586 -0.591,-1.342 -0.591,-2.266 0,-0.924 0.197,-1.824 0.591,-2.702 0.394,-0.877 0.934,-1.647 1.621,-2.308 0.687,-0.661 1.458,-1.15 2.314,-1.465 0.855,-0.316 1.627,-0.397 2.313,-0.242 0.687,0.155 1.222,0.527 1.605,1.118 0.394,0.587 0.591,1.342 0.591,2.266 0,0.924 -0.197,1.825 -0.591,2.702 -0.383,0.873 -0.918,1.647 -1.605,2.32 -0.686,0.661 -1.458,1.15 -2.313,1.466 z m 0,-1.134 c 0.63,-0.233 1.193,-0.591 1.689,-1.073 0.506,-0.499 0.9,-1.083 1.182,-1.751 0.281,-0.667 0.422,-1.361 0.422,-2.081 0,-0.72 -0.141,-1.31 -0.422,-1.771 -0.282,-0.46 -0.676,-0.746 -1.182,-0.859 -0.496,-0.13 -1.059,-0.078 -1.689,0.155 -0.631,0.232 -1.199,0.598 -1.706,1.097 -0.495,0.483 -0.889,1.06 -1.182,1.732 -0.281,0.668 -0.422,1.362 -0.422,2.082 0,0.72 0.141,1.31 0.422,1.77 0.293,0.456 0.687,0.749 1.182,0.878 0.507,0.113 1.075,0.053 1.706,-0.179 z m 15.181,-14.025 v 8.316 c 0,1.608 -0.372,2.933 -1.115,3.975 -0.732,1.05 -1.841,1.849 -3.327,2.397 -0.821,0.304 -1.604,0.46 -2.347,0.47 -0.732,0.018 -1.328,-0.115 -1.79,-0.401 l 0.608,-1.196 c 0.428,0.25 0.946,0.377 1.554,0.38 0.619,0 1.266,-0.125 1.942,-0.374 1.125,-0.415 1.953,-1.003 2.482,-1.762 0.529,-0.747 0.794,-1.709 0.794,-2.885 v -1.206 c -0.372,0.737 -0.861,1.374 -1.469,1.91 -0.597,0.532 -1.261,0.933 -1.993,1.203 -0.833,0.308 -1.593,0.396 -2.28,0.266 -0.675,-0.147 -1.21,-0.496 -1.604,-1.047 -0.383,-0.566 -0.574,-1.294 -0.574,-2.182 0,-0.888 0.191,-1.75 0.574,-2.588 0.394,-0.841 0.929,-1.578 1.604,-2.211 0.676,-0.634 1.435,-1.106 2.28,-1.418 0.754,-0.278 1.435,-0.367 2.043,-0.267 0.608,0.099 1.098,0.387 1.469,0.862 v -1.818 z m -4.543,9.65 c 0.642,-0.237 1.222,-0.595 1.739,-1.074 0.518,-0.491 0.918,-1.052 1.199,-1.684 0.293,-0.636 0.44,-1.29 0.44,-1.962 0,-0.672 -0.147,-1.212 -0.44,-1.62 -0.281,-0.424 -0.681,-0.685 -1.199,-0.782 -0.506,-0.113 -1.086,-0.049 -1.739,0.192 -0.642,0.237 -1.221,0.595 -1.739,1.074 -0.507,0.474 -0.907,1.03 -1.199,1.666 -0.282,0.632 -0.423,1.284 -0.423,1.956 0,0.672 0.141,1.22 0.423,1.644 0.292,0.42 0.692,0.686 1.199,0.8 0.518,0.097 1.097,0.027 1.739,-0.21 z m 11.003,-12.105 c 1.16,-0.428 2.049,-0.444 2.668,-0.049 0.619,0.384 0.929,1.182 0.929,2.394 v 5.868 l -1.148,0.423 v -1.476 c -0.27,0.592 -0.67,1.123 -1.199,1.595 -0.518,0.467 -1.137,0.833 -1.858,1.099 -0.991,0.365 -1.779,0.404 -2.364,0.116 -0.586,-0.288 -0.878,-0.846 -0.878,-1.674 0,-0.804 0.27,-1.552 0.81,-2.243 0.552,-0.695 1.424,-1.263 2.618,-1.704 l 2.82,-1.04 v -0.576 c 0,-0.816 -0.214,-1.355 -0.642,-1.617 -0.427,-0.274 -1.052,-0.26 -1.874,0.043 -0.563,0.208 -1.104,0.509 -1.621,0.904 -0.518,0.383 -0.963,0.817 -1.334,1.303 l -0.541,-0.755 c 0.45,-0.574 0.991,-1.086 1.621,-1.534 0.631,-0.461 1.295,-0.82 1.993,-1.077 z m -0.422,8.777 c 0.675,-0.249 1.255,-0.625 1.739,-1.127 0.484,-0.515 0.845,-1.128 1.081,-1.839 v -1.548 l -2.786,1.028 c -1.52,0.561 -2.28,1.405 -2.28,2.533 0,0.552 0.197,0.917 0.591,1.096 0.394,0.167 0.946,0.119 1.655,-0.143 z m 7.276,-15.122 1.199,-0.442 v 13.356 l -1.199,0.442 z m 12.269,4.492 -7.43,2.741 c 0.067,0.959 0.422,1.626 1.064,2.001 0.641,0.364 1.452,0.365 2.432,0.003 0.551,-0.203 1.058,-0.492 1.519,-0.866 0.462,-0.387 0.862,-0.846 1.199,-1.379 l 0.676,0.579 c -0.394,0.649 -0.889,1.216 -1.486,1.7 -0.586,0.48 -1.233,0.851 -1.942,1.113 -0.912,0.336 -1.723,0.431 -2.432,0.285 -0.698,-0.163 -1.244,-0.537 -1.638,-1.124 -0.394,-0.586 -0.591,-1.342 -0.591,-2.266 0,-0.924 0.186,-1.82 0.557,-2.689 0.383,-0.874 0.901,-1.635 1.554,-2.283 0.664,-0.654 1.407,-1.132 2.229,-1.435 0.822,-0.303 1.559,-0.371 2.212,-0.204 0.653,0.167 1.165,0.548 1.537,1.143 0.371,0.583 0.557,1.342 0.557,2.278 z m -4.289,-2.522 c -0.856,0.316 -1.576,0.876 -2.162,1.68 -0.574,0.787 -0.9,1.664 -0.979,2.629 l 6.299,-2.324 c -0.079,-0.907 -0.411,-1.54 -0.996,-1.9 -0.575,-0.376 -1.295,-0.405 -2.162,-0.085 z m 7.895,-2.085 c 0.282,-0.739 0.698,-1.373 1.25,-1.901 0.563,-0.531 1.255,-0.949 2.077,-1.252 v 1.242 l -0.287,0.088 c -0.935,0.345 -1.666,0.921 -2.196,1.728 -0.529,0.807 -0.793,1.763 -0.793,2.867 v 4.824 l -1.199,0.442 v -9.468 l 1.148,-0.424 z m 5.498,-3.882 1.199,-0.442 v 9.468 l -1.199,0.442 z m 0.608,-2.294 c -0.248,0.091 -0.456,0.078 -0.625,-0.04 -0.169,-0.117 -0.253,-0.302 -0.253,-0.554 0,-0.24 0.084,-0.481 0.253,-0.724 0.169,-0.242 0.377,-0.409 0.625,-0.5 0.247,-0.091 0.456,-0.078 0.625,0.039 0.169,0.106 0.253,0.279 0.253,0.519 0,0.264 -0.084,0.517 -0.253,0.759 -0.169,0.243 -0.378,0.41 -0.625,0.501 z m 11.662,2.898 -7.431,2.741 c 0.068,0.959 0.422,1.626 1.064,2.001 0.642,0.364 1.452,0.365 2.432,0.003 0.551,-0.203 1.058,-0.492 1.52,-0.866 0.461,-0.387 0.861,-0.846 1.199,-1.379 l 0.675,0.579 c -0.394,0.649 -0.889,1.216 -1.486,1.7 -0.585,0.48 -1.233,0.851 -1.942,1.113 -0.912,0.336 -1.723,0.431 -2.432,0.285 -0.698,-0.163 -1.244,-0.537 -1.638,-1.124 -0.394,-0.586 -0.591,-1.342 -0.591,-2.266 0,-0.924 0.186,-1.82 0.557,-2.689 0.383,-0.874 0.901,-1.635 1.554,-2.283 0.664,-0.654 1.407,-1.132 2.229,-1.435 0.822,-0.303 1.559,-0.371 2.212,-0.204 0.653,0.167 1.166,0.548 1.537,1.143 0.372,0.583 0.557,1.342 0.557,2.278 z m -4.29,-2.522 c -0.856,0.316 -1.576,0.876 -2.161,1.68 -0.575,0.787 -0.901,1.664 -0.98,2.629 l 6.299,-2.324 c -0.079,-0.907 -0.411,-1.54 -0.996,-1.9 -0.574,-0.376 -1.295,-0.405 -2.162,-0.085 z"
         fill="#310686"
         id="path1361" />
      <path
         d="m 475.731,664.292 c -1.171,0.432 -2.235,0.548 -3.192,0.349 -0.946,-0.215 -1.689,-0.709 -2.229,-1.481 -0.529,-0.777 -0.794,-1.771 -0.794,-2.983 0,-1.212 0.265,-2.402 0.794,-3.569 0.54,-1.172 1.283,-2.208 2.229,-3.109 0.957,-0.917 2.021,-1.591 3.192,-2.023 1.171,-0.432 2.223,-0.544 3.158,-0.337 0.946,0.203 1.689,0.697 2.229,1.482 0.54,0.772 0.811,1.765 0.811,2.977 0,1.212 -0.271,2.409 -0.811,3.593 -0.54,1.171 -1.283,2.207 -2.229,3.108 -0.935,0.897 -1.987,1.561 -3.158,1.993 z m 0,-1.188 c 0.934,-0.345 1.779,-0.878 2.533,-1.601 0.754,-0.734 1.345,-1.576 1.773,-2.526 0.428,-0.962 0.642,-1.934 0.642,-2.918 0,-0.984 -0.214,-1.794 -0.642,-2.428 -0.428,-0.646 -1.019,-1.052 -1.773,-1.218 -0.754,-0.177 -1.599,-0.094 -2.533,0.251 -0.935,0.345 -1.785,0.886 -2.55,1.625 -0.754,0.722 -1.351,1.566 -1.79,2.532 -0.428,0.95 -0.642,1.917 -0.642,2.901 0,0.984 0.214,1.799 0.642,2.445 0.439,0.63 1.036,1.034 1.79,1.212 0.765,0.161 1.615,0.07 2.55,-0.275 z m 17.691,-14.987 c 1.115,-0.411 1.998,-0.389 2.651,0.066 0.665,0.439 0.997,1.319 0.997,2.639 v 5.49 l -1.199,0.442 v -5.364 c 0,-0.984 -0.231,-1.649 -0.693,-1.995 -0.461,-0.345 -1.12,-0.36 -1.976,-0.045 -0.957,0.353 -1.716,0.94 -2.279,1.759 -0.552,0.804 -0.828,1.74 -0.828,2.808 v 4.968 l -1.199,0.442 v -9.468 l 1.148,-0.424 v 1.746 c 0.327,-0.696 0.777,-1.306 1.351,-1.83 0.586,-0.54 1.261,-0.951 2.027,-1.234 z m 10.01,-3.693 c 1.16,-0.427 2.049,-0.443 2.668,-0.048 0.62,0.384 0.929,1.181 0.929,2.393 v 5.868 l -1.148,0.424 v -1.476 c -0.27,0.592 -0.67,1.123 -1.199,1.594 -0.518,0.467 -1.137,0.834 -1.858,1.1 -0.991,0.365 -1.779,0.404 -2.364,0.116 -0.585,-0.288 -0.878,-0.846 -0.878,-1.674 0,-0.804 0.27,-1.552 0.81,-2.243 0.552,-0.696 1.425,-1.264 2.618,-1.704 l 2.82,-1.04 v -0.576 c 0,-0.816 -0.214,-1.355 -0.642,-1.617 -0.427,-0.275 -1.052,-0.26 -1.874,0.043 -0.563,0.208 -1.103,0.509 -1.621,0.904 -0.518,0.383 -0.963,0.817 -1.334,1.302 l -0.541,-0.754 c 0.451,-0.574 0.991,-1.086 1.621,-1.534 0.631,-0.461 1.295,-0.82 1.993,-1.078 z m -0.422,8.778 c 0.675,-0.249 1.255,-0.625 1.739,-1.127 0.484,-0.515 0.845,-1.128 1.081,-1.839 v -1.548 l -2.786,1.028 c -1.52,0.56 -2.28,1.405 -2.28,2.533 0,0.552 0.197,0.917 0.591,1.096 0.394,0.166 0.946,0.119 1.655,-0.143 z m 1.672,-12.875 1.604,-0.591 -2.736,3.241 -1.182,0.436 z m 7.985,10.321 c -0.721,0.265 -1.413,0.413 -2.077,0.442 -0.653,0.013 -1.165,-0.08 -1.537,-0.279 l 0.54,-1.208 c 0.372,0.175 0.839,0.261 1.402,0.257 0.563,-0.015 1.148,-0.135 1.756,-0.36 0.811,-0.299 1.408,-0.651 1.79,-1.056 0.394,-0.421 0.591,-0.878 0.591,-1.37 0,-0.348 -0.106,-0.579 -0.32,-0.692 -0.214,-0.125 -0.484,-0.175 -0.811,-0.151 -0.326,0.013 -0.76,0.071 -1.3,0.174 -0.721,0.122 -1.301,0.192 -1.74,0.21 -0.439,0.006 -0.816,-0.113 -1.131,-0.357 -0.304,-0.248 -0.456,-0.69 -0.456,-1.326 0,-0.792 0.309,-1.554 0.929,-2.286 0.619,-0.733 1.48,-1.302 2.583,-1.709 0.575,-0.212 1.149,-0.34 1.723,-0.384 0.574,-0.056 1.047,-0.02 1.419,0.107 l -0.524,1.219 c -0.732,-0.27 -1.604,-0.218 -2.618,0.156 -0.765,0.282 -1.345,0.64 -1.739,1.073 -0.383,0.429 -0.574,0.878 -0.574,1.346 0,0.36 0.107,0.609 0.321,0.746 0.225,0.133 0.501,0.193 0.827,0.18 0.327,-0.024 0.777,-0.088 1.351,-0.192 0.709,-0.118 1.278,-0.183 1.706,-0.197 0.428,-0.014 0.794,0.097 1.098,0.333 0.304,0.236 0.455,0.66 0.455,1.272 0,0.828 -0.326,1.608 -0.979,2.341 -0.642,0.717 -1.537,1.287 -2.685,1.711 z"
         fill="#310686"
         id="path1363" />
      <rect
         width="94.934402"
         height="23.173"
         rx="11.5865"
         transform="matrix(0.938191,-0.346117,0,1,707.785,560.079)"
         fill="#4508bd"
         id="rect1365"
         x="0"
         y="0" />
      <path
         d="m 724.191,566.6 -2.415,3.501 v 3.312 l -1.25,0.461 v -12.6 l 1.25,-0.461 v 7.614 l 6.94,-10.175 1.436,-0.529 -5.117,7.594 5.472,4.875 -1.487,0.548 z m 11.306,1.841 c -0.855,0.315 -1.627,0.396 -2.313,0.241 -0.687,-0.166 -1.228,-0.543 -1.622,-1.13 -0.394,-0.586 -0.591,-1.342 -0.591,-2.266 0,-0.924 0.197,-1.824 0.591,-2.702 0.394,-0.877 0.935,-1.646 1.622,-2.308 0.686,-0.661 1.458,-1.15 2.313,-1.465 0.856,-0.316 1.627,-0.396 2.314,-0.242 0.687,0.155 1.221,0.528 1.604,1.118 0.394,0.587 0.591,1.342 0.591,2.266 0,0.924 -0.197,1.825 -0.591,2.702 -0.383,0.874 -0.917,1.647 -1.604,2.32 -0.687,0.662 -1.458,1.15 -2.314,1.466 z m 0,-1.134 c 0.631,-0.233 1.194,-0.59 1.689,-1.073 0.507,-0.499 0.901,-1.082 1.182,-1.75 0.282,-0.668 0.422,-1.362 0.422,-2.082 0,-0.72 -0.14,-1.31 -0.422,-1.77 -0.281,-0.46 -0.675,-0.747 -1.182,-0.86 -0.495,-0.129 -1.058,-0.078 -1.689,0.155 -0.63,0.232 -1.199,0.598 -1.705,1.097 -0.496,0.483 -0.89,1.06 -1.183,1.732 -0.281,0.668 -0.422,1.362 -0.422,2.082 0,0.72 0.141,1.31 0.422,1.77 0.293,0.456 0.687,0.749 1.183,0.878 0.506,0.113 1.075,0.053 1.705,-0.179 z m 11.483,-12.732 c 1.114,-0.412 1.998,-0.39 2.651,0.066 0.664,0.438 0.997,1.318 0.997,2.638 v 5.49 l -1.199,0.442 v -5.364 c 0,-0.984 -0.231,-1.649 -0.693,-1.994 -0.461,-0.346 -1.12,-0.361 -1.976,-0.045 -0.957,0.353 -1.717,0.939 -2.279,1.759 -0.552,0.803 -0.828,1.739 -0.828,2.807 v 4.968 l -1.199,0.442 v -9.468 l 1.148,-0.423 v 1.746 c 0.327,-0.697 0.777,-1.307 1.351,-1.831 0.586,-0.54 1.261,-0.951 2.027,-1.233 z m 11.581,4.691 c -0.226,0.299 -0.507,0.571 -0.845,0.816 -0.326,0.228 -0.67,0.409 -1.03,0.542 -0.833,0.307 -1.475,0.304 -1.925,-0.01 -0.45,-0.314 -0.676,-0.909 -0.676,-1.785 v -5.724 l -1.587,0.586 v -1.08 l 1.587,-0.586 v -2.07 l 1.199,-0.442 v 2.07 l 2.702,-0.997 v 1.08 l -2.702,0.997 v 5.652 c 0,0.564 0.13,0.948 0.389,1.153 0.27,0.188 0.653,0.191 1.148,0.008 0.248,-0.091 0.484,-0.221 0.709,-0.388 0.237,-0.171 0.439,-0.366 0.608,-0.584 z m 5.29,-10.915 c 1.159,-0.428 2.049,-0.444 2.668,-0.049 0.619,0.384 0.929,1.182 0.929,2.394 v 5.868 l -1.149,0.423 v -1.476 c -0.27,0.592 -0.67,1.123 -1.199,1.595 -0.518,0.467 -1.137,0.833 -1.857,1.099 -0.991,0.366 -1.779,0.404 -2.365,0.116 -0.585,-0.288 -0.878,-0.846 -0.878,-1.674 0,-0.804 0.27,-1.551 0.811,-2.243 0.551,-0.695 1.424,-1.263 2.617,-1.704 l 2.821,-1.04 v -0.576 c 0,-0.816 -0.214,-1.355 -0.642,-1.617 -0.428,-0.274 -1.053,-0.26 -1.875,0.043 -0.563,0.208 -1.103,0.509 -1.621,0.904 -0.518,0.383 -0.962,0.818 -1.334,1.303 l -0.54,-0.755 c 0.45,-0.574 0.99,-1.086 1.621,-1.534 0.63,-0.461 1.295,-0.82 1.993,-1.077 z m -0.423,8.777 c 0.676,-0.249 1.256,-0.625 1.74,-1.127 0.484,-0.515 0.844,-1.128 1.081,-1.839 v -1.548 l -2.787,1.028 c -1.52,0.561 -2.28,1.405 -2.28,2.533 0,0.552 0.197,0.917 0.591,1.096 0.394,0.167 0.946,0.119 1.655,-0.143 z m 10.569,-7.733 -2.094,2.825 v 2.7 l -1.199,0.442 v -13.356 l 1.199,-0.442 v 9.054 l 5.303,-7.122 1.486,-0.549 -3.8,5.272 4.155,4.066 -1.47,0.542 z m 11.527,-0.076 c -0.225,0.299 -0.506,0.571 -0.844,0.815 -0.326,0.229 -0.67,0.409 -1.03,0.542 -0.833,0.308 -1.475,0.304 -1.925,-0.009 -0.451,-0.314 -0.676,-0.909 -0.676,-1.785 v -5.724 l -1.587,0.585 v -1.08 l 1.587,-0.585 v -2.07 l 1.199,-0.443 v 2.07 l 2.702,-0.996 v 1.08 l -2.702,0.996 v 5.652 c 0,0.564 0.13,0.949 0.389,1.153 0.27,0.188 0.653,0.191 1.148,0.009 0.248,-0.092 0.484,-0.221 0.709,-0.388 0.237,-0.171 0.439,-0.366 0.608,-0.584 z"
         fill="#ffffff"
         id="path1367" />
    </g>
  </g>
   </g>
  <defs
     id="defs1503">
    <filter
       id="shadow-1"
       x="-50%"
       y="-50%"
       width="200%"
       height="200%"
       filterUnits="objectBoundingBox">
      <feOffset
         dx="0"
         dy="4"
         in="SourceAlpha"
         result="shadowOffsetOuter1"
         id="feOffset1138" />
      <feGaussianBlur
         stdDeviation="10"
         in="shadowOffsetOuter1"
         result="shadowBlurOuter1"
         id="feGaussianBlur1140" />
      <feColorMatrix
         values="0 0 0 0 0 0 0 0 0 0 0 0 0 0 0 0 0 0 0.2 0"
         in="shadowBlurOuter1"
         type="matrix"
         result="shadowMatrixOuter1"
         id="feColorMatrix1142" />
      <feMerge
         id="feMerge1148">
        <feMergeNode
           in="shadowMatrixOuter1"
           id="feMergeNode1144" />
        <feMergeNode
           in="SourceGraphic"
           id="feMergeNode1146" />
      </feMerge>
    </filter>
  </defs>
</svg>
