<svg width="853" height="1087" viewBox="0 0 853 1087" fill="none" xmlns="http://www.w3.org/2000/svg">
   <path
      id="svg-sluzby-bezpeci-bg-shape"
      d="M729.874 555.729C675.02 683.362 572.591 728.731 461.9 738.222C316.177 750.717 153.977 723.819 67.3285 600.104C-113.211 342.333 126.494 218.603 126.494 218.603C448.602 39.2736 800.449 391.517 729.874 555.729Z"
      fill="#5C09FF" />
   <g id="svg-sluzby-bezpeci-content"
      class="svg-sluzby-content">
      <g>
         <path
            d="M140 391.985C140 364.309 161.093 334.116 187.058 324.625L750.562 118.643C760.59 114.978 770.343 114.837 778.391 118.243L792 124L792.737 749.956C792.769 777.583 771.758 807.758 745.827 817.325L186.91 1023.52C161.002 1033.08 140 1018.44 140 990.826V391.985Z"
            fill="#A195E4" />
      </g>
      <rect width="699" height="699" rx="50" transform="matrix(0.938191 -0.346117 0 1 151 346.933)"
         fill="#4508BD" />
      <g>
         <rect width="643" height="643" rx="35" transform="matrix(0.938191 -0.346117 0 1 177.269 365.242)"
            fill="#310686" />
      </g>
      <ellipse rx="82.2524" ry="79.1569" transform="matrix(0.938188 -0.3435 0 1 542.832 559.408)" fill="#1E005A" />
      <rect width="139.58" height="158.314" transform="matrix(0.938188 -0.3435 0 1 409.541 529.053)"
         fill="#1E005A" />
      <ellipse rx="74.7749" ry="79.1569" transform="matrix(0.938188 -0.3435 0 1 415.153 606.155)" fill="#1E005A" />
      <rect width="624" height="625" rx="27" transform="matrix(0.938191 -0.346117 0 1 185.713 371.127)"
         fill="white" />
      <g filter="url(#filter2_ii)">
         <circle r="245.5" transform="matrix(0.938191 -0.346117 0 1 479.326 585.469)" fill="#310686" />
      </g>
      <ellipse rx="82.2524" ry="79.1569" transform="matrix(0.938188 -0.3435 0 1 542.832 560.175)" fill="#A195E3" />
      <rect width="139.58" height="158.314" transform="matrix(0.938188 -0.3435 0 1 409.541 529.82)"
         fill="#A195E3" />
      <ellipse rx="74.7749" ry="79.1569" transform="matrix(0.938188 -0.3435 0 1 415.153 606.922)" fill="#A195E3" />
      <ellipse rx="82.2524" ry="79.1569" transform="matrix(0.938188 -0.3435 0 1 551.02 566.174)" fill="#1E005A" />
      <rect width="139.58" height="158.314" transform="matrix(0.938188 -0.3435 0 1 417.729 535.819)"
         fill="#1E005A" />
      <ellipse rx="74.7749" ry="79.1569" transform="matrix(0.938188 -0.3435 0 1 423.341 612.922)" fill="#1E005A" />
      <circle r="75" transform="matrix(0.938191 -0.346117 0 1 428.629 611.298)" fill="#390898" />
      <circle r="75" transform="matrix(0.938191 -0.346117 0 1 554.166 564.984)" fill="#4508BD" />
      <rect width="128" height="150" transform="matrix(0.938191 -0.346117 0 1 433.14 534.633)" fill="#4508BD" />
      <path
         d="M502.409 584.031C502.409 625.352 467.857 671.597 428.708 686.039C401.553 696.058 372 669.559 372 632.141C372 594.723 394.986 552.214 428.708 536.401C462.431 520.588 502.409 542.71 502.409 584.031Z"
         fill="#4508BD" />
      <circle r="49" transform="matrix(0.938191 -0.346117 0 1 428.449 611.364)" fill="#4508BD" />
      <circle r="48.5" transform="matrix(0.938191 -0.346117 0 1 428.449 611.364)" fill="#4508BD" stroke="white" />
      <path
         d="M465.38 596.702C467.56 597.772 467.779 600.93 466.434 605.461C465.098 609.958 462.272 615.6 458.695 621.249C455.12 626.894 450.821 632.506 446.569 636.943C442.356 641.34 438.267 644.501 435.004 645.485C423.363 641.104 415.7 637.532 411.024 633.201C406.36 628.88 404.671 623.803 405.017 616.357C405.402 608.081 408.965 601.091 413.934 595.682C418.918 590.257 425.344 586.393 431.449 584.451C437.463 582.538 443.491 584.351 449.285 587.313C452.171 588.788 454.975 590.535 457.671 592.216L457.711 592.241C460.387 593.91 462.96 595.514 465.38 596.702Z"
         fill="#DBDBDB" stroke="#310686" />
      <path
         d="M413.43 627.77L413.676 627.508L418.917 630.522L424.1 633.503C424.049 633.58 423.991 633.666 423.928 633.762C423.613 634.237 423.148 634.937 422.549 635.836C421.351 637.632 419.619 640.22 417.481 643.389C413.204 649.725 407.303 658.379 400.806 667.649C387.797 686.212 372.448 707.175 362.958 716.996C362.446 717.526 361.601 717.774 360.376 717.636C359.189 717.503 357.813 717.024 356.393 716.377C354.48 715.505 352.555 714.363 350.949 713.41C350.161 712.942 349.45 712.52 348.855 712.198C347.087 711.242 346.074 710.032 345.359 708.018C344.042 704.303 345.59 699.609 347.991 697.088C355.988 688.696 372.489 671.215 386.99 655.834C394.241 648.143 400.993 640.977 405.931 635.733C408.4 633.112 410.416 630.97 411.815 629.485L413.43 627.77Z"
         fill="white" stroke="#310686" />
      <path
         d="M436.069 621.092L436.336 620.814L447.647 633.607L447.419 633.846L445.624 635.724C444.068 637.354 441.819 639.708 439.05 642.605C433.513 648.399 425.897 656.367 417.58 665.06C400.947 682.447 381.515 702.734 370.314 714.34C367.008 717.766 362.053 719.331 358.499 717.663C357.563 717.223 356.896 716.762 356.386 716.159C355.876 715.557 355.508 714.796 355.196 713.731C354.066 709.859 356.105 704.588 359.003 701.548C368.395 691.7 387.827 671.412 404.913 653.586C413.456 644.673 421.412 636.376 427.232 630.307C430.142 627.272 432.518 624.795 434.166 623.076L436.069 621.092Z"
         fill="white" stroke="#310686" />
      <path
         d="M436.194 621.497L441.215 627.177C441.215 627.177 386.462 675.756 362.224 700.902C358.441 704.827 355.556 713.484 355.514 713.207C354.665 707.627 357.339 703.935 361.113 699.919C383.396 676.214 436.194 621.497 436.194 621.497Z"
         fill="#B8B8B8" />
      <path
         d="M473.222 613.511C472.176 627.269 460.357 641.565 446.804 645.427C433.251 649.289 423.129 641.246 424.174 627.487C425.219 613.729 437.039 599.433 450.592 595.571C464.145 591.709 474.267 599.752 473.222 613.511Z"
         fill="#DBDBDB" stroke="#310686" />
      <path
         d="M472.741 613.648C471.716 627.14 460.12 641.145 446.842 644.929C433.563 648.712 428.438 639.472 429.463 625.98C430.488 612.488 437.275 599.853 450.554 596.069C463.832 592.285 473.766 600.156 472.741 613.648Z"
         fill="white" />
      <circle r="51.5" transform="matrix(0.938191 -0.346117 0 1 553.697 564.658)" fill="#DBDBDB" />
      <path
         d="M602.014 546.833C602.014 575.275 579.798 606.528 552.394 616.638C524.989 626.748 511.445 609.245 510 581.278C510.963 552.423 524.989 523.748 552.394 513.638C579.798 503.528 602.014 518.39 602.014 546.833Z"
         fill="white" />
      <path d="M545.847 559.66L563.823 553.029L567 554.997L563.823 571.149L549 579.497L545.847 577.997V559.66Z"
         fill="#4508BD" />
      <path d="M545.847 559.66L563.823 553.029L567 554.997L563.823 571.149L549 579.497L545.847 577.997V559.66Z"
         fill="#A195E3" />
      <rect width="19.1602" height="18.1203" transform="matrix(0.938191 -0.346117 0 1 549 561.629)"
         fill="#4508BD" />
      <rect width="19.1602" height="18.1203" transform="matrix(0.938191 -0.346117 0 1 549 561.629)"
         fill="#4508BD" />
      <path
         d="M515.493 593.467L541 583.997L545 585.997L541.66 610.944C541.66 610.944 537.499 610.785 535.054 610.234C532.157 609.582 530.696 608.865 528.22 607.501C524.926 605.687 523.196 604.414 520.764 601.567C517.037 597.202 515.493 593.467 515.493 593.467Z"
         fill="#4508BD" />
      <path
         d="M515.493 593.467L541 583.997L545 585.997L541.66 610.944C541.66 610.944 537.499 610.785 535.054 610.234C532.157 609.582 530.696 608.865 528.22 607.501C524.926 605.687 523.196 604.414 520.764 601.567C517.037 597.202 515.493 593.467 515.493 593.467Z"
         fill="#A195E3" />
      <path
         d="M519 595.651L545.167 585.997V613.128C545.167 613.128 541.005 612.968 538.561 612.418C535.664 611.765 534.203 611.049 531.727 609.685C528.433 607.871 526.703 606.598 524.271 603.751C520.544 599.386 519 595.651 519 595.651Z"
         fill="#4508BD" />
      <path
         d="M519 595.651L545.167 585.997V613.128C545.167 613.128 541.005 612.968 538.561 612.418C535.664 611.765 534.203 611.049 531.727 609.685C528.433 607.871 526.703 606.598 524.271 603.751C520.544 599.386 519 595.651 519 595.651Z"
         fill="#4508BD" />
      <path
         d="M545.847 582.269L563.823 575.637V603.947C563.823 603.947 559.792 606.476 554.834 608.305C549.776 610.171 545.847 610.584 545.847 610.584V582.269Z"
         fill="#4508BD" />
      <path
         d="M545.847 582.269L563.823 575.637V603.947C563.823 603.947 559.792 606.476 554.834 608.305C549.776 610.171 545.847 610.584 545.847 610.584V582.269Z"
         fill="#310686" />
      <path d="M567.827 574.16L592 564.997L596 566.997L571 602.997L567.827 601.291V574.16Z" fill="#4508BD" />
      <path d="M567.827 574.16L592 564.997L596 566.997L571 602.997L567.827 601.291V574.16Z" fill="#A195E3" />
      <path
         d="M571 576.265L596.12 566.997C596.12 566.997 594.206 573.531 590.602 579.856C586.997 586.182 586.397 587.028 582.192 592.325C577.987 597.622 571 603.395 571 603.395V576.265Z"
         fill="#4508BD" />
      <path
         d="M571 576.265L596.12 566.997C596.12 566.997 594.206 573.531 590.602 579.856C586.997 586.182 586.397 587.028 582.192 592.325C577.987 597.622 571 603.395 571 603.395V576.265Z"
         fill="#4508BD" />
      <path d="M536.654 594.429V603.529L535.776 603.853V595.585L533.763 596.327V595.495L536.654 594.429Z"
         fill="white" />
      <path
         d="M558.464 594.256V595.088L552.476 597.297V596.634L556.025 591.62C556.472 590.987 556.773 590.473 556.927 590.078C557.09 589.671 557.171 589.294 557.171 588.948C557.171 588.41 556.996 588.059 556.647 587.893C556.305 587.716 555.813 587.746 555.171 587.983C554.171 588.352 553.394 588.976 552.842 589.856L552.22 589.514C552.553 588.975 552.976 588.498 553.488 588.084C554.008 587.666 554.594 587.338 555.244 587.098C556.114 586.777 556.801 586.744 557.305 587C557.818 587.245 558.074 587.748 558.074 588.511C558.074 588.979 557.976 589.465 557.781 589.971C557.586 590.476 557.216 591.111 556.671 591.875L553.768 595.988L558.464 594.256Z"
         fill="white" />
      <path
         d="M579.77 582.22C580.665 581.942 581.343 581.952 581.807 582.249C582.279 582.534 582.514 583.05 582.514 583.795C582.514 584.315 582.396 584.822 582.161 585.316C581.925 585.802 581.575 586.247 581.112 586.652C580.648 587.057 580.083 587.383 579.416 587.629C578.798 587.857 578.213 587.969 577.66 587.965C577.115 587.949 576.676 587.825 576.343 587.593L576.77 586.694C577.054 586.901 577.432 587.017 577.904 587.043C578.376 587.059 578.88 586.969 579.416 586.771C580.116 586.513 580.656 586.153 581.039 585.691C581.421 585.221 581.612 584.7 581.612 584.128C581.612 583.564 581.421 583.193 581.039 583.013C580.656 582.834 580.079 582.886 579.307 583.171L578.697 583.396V582.707L581.063 578.675L576.697 580.286V579.454L582.185 577.429V578.092L579.77 582.22Z"
         fill="white" />
      <path
         d="M513.16 571.719L541.66 561.205L545.5 562.997L541.66 579.292L517 591.497L513.472 589.691C513.472 589.691 512.353 585.082 512.353 580.925C512.353 576.488 513.16 571.719 513.16 571.719Z"
         fill="#4508BD" />
      <path
         d="M513.16 571.719L541.66 561.205L545.5 562.997L541.66 579.292L517 591.497L513.472 589.691C513.472 589.691 512.353 585.082 512.353 580.925C512.353 576.488 513.16 571.719 513.16 571.719Z"
         fill="#A195E3" />
      <path
         d="M516.806 573.512L545.307 562.997V581.084L517.119 591.483C517.119 591.483 516 586.874 516 582.717C516 578.28 516.806 573.512 516.806 573.512Z"
         fill="#4508BD" />
      <path
         d="M516.806 573.512L545.307 562.997V581.084L517.119 591.483C517.119 591.483 516 586.874 516 582.717C516 578.28 516.806 573.512 516.806 573.512Z"
         fill="#4508BD" />
      <path
         d="M533.311 577.161L531.604 577.791V580.183L530.726 580.507V578.115L525.908 579.892V579.216L530.433 571.515L531.409 571.155L527.042 578.642L530.75 577.274V575.168L531.604 574.853V576.959L533.311 576.329V577.161Z"
         fill="white" />
      <path
         d="M557.112 565.398C558.348 564.942 559.246 564.849 559.807 565.119C560.376 565.377 560.661 565.93 560.661 566.78C560.661 567.308 560.543 567.824 560.307 568.327C560.08 568.827 559.734 569.284 559.271 569.698C558.807 570.103 558.238 570.43 557.563 570.678C556.953 570.903 556.372 571.014 555.819 571.01C555.274 570.994 554.835 570.87 554.502 570.638L554.929 569.739C555.213 569.946 555.587 570.064 556.051 570.092C556.514 570.112 557.014 570.023 557.551 569.825C558.258 569.564 558.803 569.194 559.185 568.715C559.575 568.233 559.771 567.71 559.771 567.147C559.771 566.523 559.551 566.132 559.112 565.973C558.681 565.811 557.949 565.921 556.917 566.302L555.099 566.972L555.538 562.247L560.21 560.524V561.356L556.307 562.796L556.014 565.803L557.112 565.398Z"
         fill="white" />
      <path d="M567.827 551.552L594.219 541.815L597.5 543.497L594.137 559.932L571 570.997L567.827 569.409V551.552Z"
         fill="#4508BD" />
      <path d="M567.827 551.552L594.219 541.815L597.5 543.497L594.137 559.932L571 570.997L567.827 569.409V551.552Z"
         fill="#A195E3" />
      <path
         d="M581.418 553.221C581.979 553.014 582.475 552.944 582.906 553.01C583.345 553.073 583.686 553.268 583.93 553.594C584.174 553.912 584.296 554.343 584.296 554.889C584.296 555.444 584.17 555.98 583.918 556.498C583.666 557.015 583.316 557.474 582.869 557.873C582.43 558.26 581.934 558.556 581.381 558.76C580.251 559.177 579.385 559.102 578.783 558.535C578.181 557.96 577.881 556.948 577.881 555.501C577.881 554.487 578.043 553.569 578.368 552.747C578.694 551.925 579.149 551.228 579.734 550.657C580.32 550.077 581.003 549.643 581.783 549.355C582.629 549.043 583.304 548.959 583.808 549.102L583.454 549.987C583.048 549.851 582.495 549.912 581.796 550.17C580.852 550.518 580.113 551.111 579.576 551.951C579.039 552.781 578.771 553.803 578.771 555.016C578.771 555.233 578.783 555.476 578.807 555.744C579.019 555.172 579.356 554.666 579.82 554.227C580.283 553.778 580.816 553.443 581.418 553.221ZM581.344 557.98C581.962 557.752 582.462 557.39 582.845 556.894C583.235 556.386 583.43 555.833 583.43 555.235C583.43 554.637 583.235 554.232 582.845 554.021C582.462 553.806 581.942 553.821 581.283 554.064C580.852 554.223 580.47 554.45 580.137 554.747C579.812 555.04 579.556 555.373 579.369 555.745C579.182 556.117 579.088 556.49 579.088 556.862C579.088 557.209 579.173 557.498 579.344 557.73C579.523 557.959 579.783 558.101 580.125 558.157C580.466 558.213 580.873 558.154 581.344 557.98Z"
         fill="white" />
      <path
         d="M571 553.037L597.186 543.376C597.186 543.376 598 547.035 598 551.786C598 556.537 597.104 561.493 597.104 561.493L571 571.124V553.037Z"
         fill="#4508BD" />
      <path
         d="M571 553.037L597.186 543.376C597.186 543.376 598 547.035 598 551.786C598 556.537 597.104 561.493 597.104 561.493L571 571.124V553.037Z"
         fill="#4508BD" />
      <path
         d="M584.591 554.706C585.152 554.499 585.648 554.429 586.079 554.495C586.518 554.559 586.859 554.754 587.103 555.08C587.347 555.397 587.469 555.829 587.469 556.375C587.469 556.929 587.343 557.465 587.091 557.983C586.839 558.501 586.489 558.959 586.042 559.358C585.603 559.745 585.107 560.041 584.554 560.245C583.424 560.662 582.558 560.587 581.956 560.02C581.355 559.445 581.054 558.434 581.054 556.986C581.054 555.972 581.217 555.054 581.542 554.232C581.867 553.41 582.322 552.714 582.908 552.142C583.493 551.562 584.176 551.128 584.957 550.84C585.802 550.528 586.477 550.444 586.981 550.588L586.628 551.472C586.221 551.336 585.668 551.397 584.969 551.655C584.026 552.003 583.286 552.597 582.749 553.436C582.213 554.266 581.944 555.288 581.944 556.502C581.944 556.718 581.956 556.961 581.981 557.229C582.192 556.657 582.53 556.152 582.993 555.712C583.457 555.264 583.989 554.928 584.591 554.706ZM584.518 559.465C585.136 559.237 585.636 558.875 586.018 558.379C586.408 557.871 586.603 557.318 586.603 556.72C586.603 556.122 586.408 555.717 586.018 555.506C585.636 555.292 585.115 555.306 584.457 555.549C584.026 555.708 583.644 555.936 583.31 556.232C582.985 556.525 582.729 556.858 582.542 557.23C582.355 557.603 582.261 557.975 582.261 558.348C582.261 558.694 582.347 558.984 582.517 559.215C582.696 559.444 582.957 559.586 583.298 559.642C583.64 559.698 584.046 559.639 584.518 559.465Z"
         fill="white" />
      <path
         d="M536.097 531.989C538.195 530.031 541.66 527.292 541.66 527.292L545 528.997L541.66 556.683L518 568.497L514.447 566.723C514.447 566.723 516.048 561.817 517.409 558.717C518.533 556.157 519.339 554.76 520.631 552.239C521.618 550.313 528.919 538.69 536.097 531.989Z"
         fill="#4508BD" />
      <path
         d="M536.097 531.989C538.195 530.031 541.66 527.292 541.66 527.292L545 528.997L541.66 556.683L518 568.497L514.447 566.723C514.447 566.723 516.048 561.817 517.409 558.717C518.533 556.157 519.339 554.76 520.631 552.239C521.618 550.313 528.919 538.69 536.097 531.989Z"
         fill="#A195E3" />
      <path
         d="M539.651 533.694C541.748 531.736 545.213 528.997 545.213 528.997V558.389L518 568.428C518 568.428 519.601 563.522 520.962 560.422C522.086 557.862 522.893 556.465 524.184 553.945C525.172 552.018 532.472 540.395 539.651 533.694Z"
         fill="#4508BD" />
      <path
         d="M539.651 533.694C541.748 531.736 545.213 528.997 545.213 528.997V558.389L518 568.428C518 568.428 519.601 563.522 520.962 560.422C522.086 557.862 522.893 556.465 524.184 553.945C525.172 552.018 532.472 540.395 539.651 533.694Z"
         fill="#4508BD" />
      <path
         d="M537.266 544.765V545.428L533.692 555.183L532.741 555.534L536.254 545.97L531.863 547.59V549.293L530.997 549.612V547.077L537.266 544.765Z"
         fill="white" />
      <path
         d="M545.847 524.548C545.847 524.548 549.841 522.039 554.571 520.268C559.075 518.582 563.64 518.069 563.64 518.069L566.5 519.497L563.64 548.574L549 556.997L545.847 555.139V524.548Z"
         fill="#4508BD" />
      <path
         d="M545.847 524.548C545.847 524.548 549.841 522.039 554.571 520.268C559.075 518.582 563.64 518.069 563.64 518.069L566.5 519.497L563.64 548.574L549 556.997L545.847 555.139V524.548Z"
         fill="#A195E3" />
      <path
         d="M549 525.991C549 525.991 552.995 523.461 557.724 521.69C562.229 520.003 566.793 519.515 566.793 519.515V550.649L549 557.214V525.991Z"
         fill="#4508BD" />
      <path
         d="M549 525.991C549 525.991 552.995 523.461 557.724 521.69C562.229 520.003 566.793 519.515 566.793 519.515V550.649L549 557.214V525.991Z"
         fill="#4508BD" />
      <path
         d="M558.712 537.382C559.248 537.374 559.659 537.509 559.943 537.785C560.236 538.059 560.382 538.464 560.382 539.001C560.382 539.53 560.248 540.043 559.98 540.541C559.712 541.03 559.325 541.475 558.821 541.878C558.325 542.269 557.74 542.589 557.065 542.838C556.041 543.216 555.236 543.279 554.65 543.027C554.065 542.775 553.772 542.246 553.772 541.44C553.772 540.894 553.91 540.384 554.187 539.909C554.471 539.423 554.882 538.985 555.418 538.597C554.979 538.576 554.646 538.439 554.418 538.185C554.191 537.923 554.077 537.557 554.077 537.089C554.077 536.353 554.345 535.669 554.882 535.037C555.427 534.403 556.154 533.918 557.065 533.582C557.667 533.36 558.191 533.266 558.638 533.301C559.094 533.323 559.447 533.47 559.699 533.741C559.952 534.012 560.078 534.39 560.078 534.876C560.078 535.344 559.96 535.795 559.724 536.228C559.488 536.653 559.151 537.038 558.712 537.382ZM554.955 536.791C554.955 537.294 555.142 537.624 555.516 537.781C555.89 537.937 556.406 537.894 557.065 537.651C557.724 537.408 558.24 537.07 558.614 536.638C558.996 536.202 559.187 535.737 559.187 535.243C559.187 534.732 558.992 534.401 558.602 534.25C558.22 534.096 557.707 534.138 557.065 534.375C556.415 534.615 555.898 534.953 555.516 535.389C555.142 535.821 554.955 536.289 554.955 536.791ZM557.065 542.045C557.821 541.766 558.411 541.384 558.833 540.899C559.264 540.41 559.48 539.884 559.48 539.321C559.48 538.758 559.264 538.395 558.833 538.234C558.411 538.06 557.821 538.113 557.065 538.392C556.317 538.668 555.727 539.05 555.297 539.539C554.874 540.015 554.662 540.535 554.662 541.098C554.662 541.67 554.874 542.043 555.297 542.217C555.719 542.381 556.309 542.324 557.065 542.045Z"
         fill="white" />
      <path
         d="M567.827 517.997C567.827 517.997 573.356 518.464 576.529 519.781C582.704 522.344 585.879 524.867 589.614 530.779C591.181 533.259 592.947 537.763 592.947 537.763L571 549.497L567.827 547.677V517.997Z"
         fill="#4508BD" />
      <path
         d="M567.827 517.997C567.827 517.997 573.356 518.464 576.529 519.781C582.704 522.344 585.879 524.867 589.614 530.779C591.181 533.259 592.947 537.763 592.947 537.763L571 549.497L567.827 547.677V517.997Z"
         fill="#A195E3" />
      <path
         d="M571 519.281C571 519.281 576.529 520.202 579.703 521.603C585.877 524.327 589.053 526.974 592.788 533.13C594.355 535.712 596.12 540.388 596.12 540.388L571 549.656V519.281Z"
         fill="#4508BD" />
      <path
         d="M571 519.281C571 519.281 576.529 520.202 579.703 521.603C585.877 524.327 589.053 526.974 592.788 533.13C594.355 535.712 596.12 540.388 596.12 540.388L571 549.656V519.281Z"
         fill="#4508BD" />
      <path
         d="M580.526 529.245C581.656 528.828 582.522 528.907 583.124 529.483C583.726 530.049 584.027 531.056 584.027 532.504C584.027 533.518 583.864 534.436 583.539 535.258C583.213 536.08 582.758 536.781 582.173 537.361C581.587 537.932 580.904 538.362 580.124 538.65C579.278 538.962 578.603 539.046 578.099 538.902L578.453 538.018C578.859 538.154 579.412 538.093 580.112 537.835C581.055 537.487 581.795 536.898 582.331 536.067C582.868 535.228 583.136 534.202 583.136 532.988C583.136 532.763 583.124 532.52 583.1 532.261C582.888 532.833 582.551 533.343 582.087 533.791C581.624 534.231 581.091 534.562 580.49 534.784C579.929 534.991 579.429 535.062 578.989 534.999C578.559 534.933 578.221 534.741 577.977 534.423C577.733 534.097 577.611 533.661 577.611 533.115C577.611 532.561 577.737 532.025 577.989 531.507C578.241 530.989 578.587 530.537 579.026 530.15C579.473 529.751 579.973 529.449 580.526 529.245ZM580.624 533.941C581.055 533.782 581.433 533.556 581.758 533.263C582.091 532.966 582.352 532.632 582.539 532.26C582.726 531.887 582.819 531.515 582.819 531.142C582.819 530.795 582.73 530.508 582.551 530.279C582.38 530.047 582.124 529.904 581.782 529.848C581.441 529.792 581.034 529.851 580.563 530.025C579.945 530.253 579.441 530.621 579.05 531.129C578.668 531.625 578.477 532.172 578.477 532.77C578.477 533.368 578.668 533.774 579.05 533.989C579.441 534.2 579.965 534.184 580.624 533.941Z"
         fill="white" />
      <circle r="15.5" transform="matrix(0.938191 -0.346117 0 1 238.721 394.071)" fill="#A095E3" />
      <ellipse rx="12.1623" ry="13.2403" transform="matrix(0.938191 -0.346117 0 1 235.589 392.966)"
         fill="#310686" />
      <circle r="15.5" transform="matrix(0.938191 -0.346117 0 1 724.542 216.862)" fill="#A095E3" />
      <ellipse rx="12.1623" ry="13.2403" transform="matrix(0.938191 -0.346117 0 1 721.411 215.757)"
         fill="#310686" />
      <circle r="15.5" transform="matrix(0.938191 -0.346117 0 1 724.542 754.862)" fill="#A095E3" />
      <ellipse rx="12.1623" ry="13.2403" transform="matrix(0.938191 -0.346117 0 1 721.411 753.757)"
         fill="#310686" />
      <circle r="15.5" transform="matrix(0.938191 -0.346117 0 1 238.542 931.862)" fill="#A095E3" />
      <ellipse rx="12.1623" ry="13.2403" transform="matrix(0.938191 -0.346117 0 1 235.411 930.757)"
         fill="#310686" />
      <line y1="-2.5" x2="350" y2="-2.5" transform="matrix(-4.10096e-08 1 -0.938191 0.346117 323.988 311.025)"
         stroke="#89C5CC" stroke-width="5" />
      <path d="M307.57 289.082L313.199 287.005L328.679 309.293L323.988 311.023L307.57 289.082Z" fill="#89C5CC" />
      <path d="M307.57 289.082L313.199 287.005L304 281.497L298 283.497L307.57 289.082Z" fill="#89C5CC" />
      <line y1="-2.5" x2="199" y2="-2.5" transform="matrix(-4.10096e-08 1 -0.938191 0.346117 411.817 278.712)"
         stroke="#89C5CC" stroke-width="5" />
      <path d="M394.93 256.853L400.559 254.776L414.163 273.847L416.508 276.982L411.817 279.212L394.93 256.853Z"
         fill="#89C5CC" />
      <path d="M394.93 256.853L400.559 254.776L390 249.497L385 251.497L394.93 256.853Z" fill="#89C5CC" />
      <circle r="5" transform="matrix(0.938191 -0.346117 0 1 326.442 652.209)" fill="#3E98A3" />
      <path fill-rule="evenodd" clip-rule="evenodd"
         d="M360.595 641.794C361.444 639.951 362.676 638.219 364.364 637.115C369.227 633.934 370.457 640.909 368.503 643.879C366.549 646.85 360.418 651.179 359.417 649.934C359.019 649.437 358.951 647.804 359.323 645.818L353.253 651.359L351.42 646.359L360.595 641.794Z"
         fill="#915B3C" />
      <path fill-rule="evenodd" clip-rule="evenodd"
         d="M360.43 641.369C361.405 639.249 362.823 637.258 364.764 635.988C370.356 632.33 371.771 640.351 369.524 643.767C367.277 647.183 360.225 652.162 359.075 650.73C358.616 650.159 358.539 648.281 358.966 645.997L360.43 641.369Z"
         fill="#191847" />
      <ellipse rx="1" ry="0.5" transform="matrix(0.446003 0.715238 -0.825399 0.779892 366.007 641.951)"
         fill="#915B3C" />
      <ellipse rx="1.78886" ry="0.527526" transform="matrix(0.256464 0.867297 -0.902457 0.606294 361.514 646.363)"
         fill="#915B3C" />
      <ellipse rx="1" ry="0.5" transform="matrix(-0.0202904 1.00725 -0.937972 0.324409 366.632 644.634)"
         fill="#915B3C" />
      <path fill-rule="evenodd" clip-rule="evenodd"
         d="M329.342 656.391L305.893 687.76L287.198 709.342L289.031 712.657L335.055 666.722L329.342 656.391Z"
         fill="#BA8B72" />
      <path fill-rule="evenodd" clip-rule="evenodd"
         d="M327.597 653.236C313.669 666.374 305.817 673.079 304.467 674.118C303.116 675.158 294.132 682.231 276.662 691.46L278.569 694.908C296.184 687.603 305.909 681.868 308.17 680.815C310.432 679.763 319.229 674.767 334.349 665.446L327.597 653.236Z"
         fill="#D4A181" />
      <path fill-rule="evenodd" clip-rule="evenodd"
         d="M329.259 656.241C320.864 666.445 307.598 682.977 289.461 705.837L292.142 710.685C313.505 692.19 326.593 678.258 335.078 666.763L329.259 656.241Z"
         fill="#080651" />
      <path fill-rule="evenodd" clip-rule="evenodd"
         d="M327.583 653.211C313.65 666.339 298.973 677.556 279.77 688.911L282.631 694.084C300.036 686.982 316.187 678.617 334.76 666.188L327.583 653.211Z"
         fill="#100E68" />
      <path fill-rule="evenodd" clip-rule="evenodd"
         d="M273.576 693.476L277.145 690.581C277.393 692.022 278.309 693.289 279.893 694.38C279.448 697.467 279.718 700.614 280.703 703.819C280.778 704.063 280.632 704.403 280.377 704.578C280.36 704.589 280.343 704.599 280.326 704.609L279.133 705.279L275.346 698.431L273.136 694.436L273.576 693.476Z"
         fill="#4508BD" />
      <path fill-rule="evenodd" clip-rule="evenodd"
         d="M283.54 711.495L287.11 708.599C287.358 710.041 288.274 711.308 289.858 712.399C289.412 715.486 289.682 718.632 290.668 721.838C290.743 722.082 290.597 722.422 290.342 722.596C290.325 722.608 290.308 722.618 290.291 722.628L289.098 723.298L285.311 716.449L283.101 712.454L283.54 711.495Z"
         fill="#4508BD" />
      <path fill-rule="evenodd" clip-rule="evenodd"
         d="M349.099 659.264L355.822 664.001C357.795 664.21 359.408 664.64 360.661 665.291C360.941 665.56 361.241 666.157 359.903 666.314C358.565 666.47 357.143 666.704 356.884 667.26C356.624 667.817 357.357 668.273 356.882 669.049C356.565 669.567 355.538 668.636 353.803 666.257L346.768 664.269L349.099 659.264ZM349.015 673.86L351.974 675.937C354.002 675.137 355.122 675.064 355.332 675.717C355.731 676.059 353.083 676.785 353.579 677.609C354.075 678.432 356.603 679.55 356.355 680.205C355.988 681.175 354.147 681.777 353.122 681.713C351.206 681.593 350.379 680.98 348.955 679.046C348.211 678.034 347.069 677.169 345.529 676.45L349.015 673.86Z"
         fill="#D4A181" />
      <path fill-rule="evenodd" clip-rule="evenodd"
         d="M348.951 654.844C349.793 657.526 351.471 660.727 355.17 662.852L352.114 666.735C348.574 665.938 345.2 663.733 344.315 660.408C343.618 657.788 346.463 654.283 348.951 654.844Z"
         fill="#2026A2" />
      <path fill-rule="evenodd" clip-rule="evenodd"
         d="M344.417 662.289C344.533 665.662 346.858 669.878 351.392 674.937C348.284 679.054 345.942 681.57 344.366 682.484C339.471 678.823 336.573 674.809 335.251 670.782C332.76 672.622 330.265 673.955 327.767 674.45C322.632 675.467 323.229 660.688 321.198 657.229C328.956 648.955 333.878 651.479 339.327 647.799C345.295 643.768 355.859 642.154 356.062 642.83L357.916 648.998C353.462 652.419 348.955 657.528 344.417 662.289Z"
         fill="#1119A7" />
      <line y1="-1" x2="24.7386" y2="-1" transform="matrix(0.227545 0.886197 -0.910179 0.578319 325.504 652.555)"
         stroke="#3E98A3" stroke-width="2" />
      <circle r="2.5" transform="matrix(0.938191 -0.346117 9.41371e-09 1 331.618 672.996)" fill="#23727B" />
      <path fill-rule="evenodd" clip-rule="evenodd"
         d="M464.751 430.732C463.42 430.154 462.367 429.094 462.107 427.349C461.357 422.319 468.42 419.24 470.299 420.868C472.178 422.496 473.42 428.763 471.804 430.238C471.159 430.827 469.606 431.286 467.923 431.307L470.324 437.219L464.827 440.554L464.751 430.732Z"
         fill="#915B3C" />
      <path fill-rule="evenodd" clip-rule="evenodd"
         d="M464.28 431.027C462.748 430.362 461.537 429.144 461.238 427.136C460.376 421.353 468.499 417.812 470.659 419.684C472.82 421.555 474.249 428.763 472.39 430.46C471.649 431.136 469.862 431.665 467.927 431.688L464.28 431.027Z"
         fill="#191847" />
      <ellipse rx="1" ry="0.5" transform="matrix(0.870057 -0.695109 0.351004 0.797885 467.365 424.276)"
         fill="#915B3C" />
      <ellipse rx="1.78886" ry="0.527526" transform="matrix(0.925459 -0.50561 0.154042 0.929599 469.43 428.581)"
         fill="#915B3C" />
      <ellipse rx="1" ry="0.5" transform="matrix(0.929834 -0.209855 -0.124947 1.03719 470.15 422.912)"
         fill="#915B3C" />
      <path fill-rule="evenodd" clip-rule="evenodd"
         d="M466.715 458.986L475.31 487.385L479.353 509.597L483.411 508.1L479.361 454.321L466.715 458.986Z"
         fill="#784931" />
      <path fill-rule="evenodd" clip-rule="evenodd"
         d="M462.852 460.411C463.452 476.591 463.215 485.623 463.081 487.163C462.947 488.702 462.185 498.963 456.992 518.347L461.212 516.79C468.089 497.495 470.49 486.63 471.279 484.138C472.068 481.647 474.397 471.842 477.798 454.897L462.852 460.411Z"
         fill="#915B3C" />
      <path fill-rule="evenodd" clip-rule="evenodd"
         d="M466.531 459.054C468.766 469.093 472.633 485.007 478.131 506.797L484.066 504.607C484.505 479.998 482.64 464.596 479.411 454.302L466.531 459.054Z"
         fill="#080651" />
      <path fill-rule="evenodd" clip-rule="evenodd"
         d="M462.822 460.422C463.409 476.606 461.887 493.326 457.172 514.785L463.504 512.448C470.394 493.399 475.332 475.499 478.707 454.562L462.822 460.422Z"
         fill="#100E68" />
      <path fill-rule="evenodd" clip-rule="evenodd"
         d="M456.39 521.82L456.623 517.733C457.987 517.655 459.694 516.858 461.746 515.342C463.953 516.194 466.73 516.307 470.079 515.681C470.335 515.633 470.506 515.828 470.463 516.117C470.46 516.135 470.456 516.154 470.452 516.173L470.13 517.502L461.746 520.595L456.856 522.399L456.39 521.82Z"
         fill="#191847" />
      <path fill-rule="evenodd" clip-rule="evenodd"
         d="M478.448 513.683L478.68 509.595C480.044 509.518 481.752 508.721 483.804 507.205C486.01 508.057 488.788 508.17 492.136 507.544C492.392 507.496 492.564 507.691 492.52 507.979C492.517 507.998 492.513 508.017 492.509 508.036L492.187 509.365L483.804 512.457L478.913 514.262L478.448 513.683Z"
         fill="#191847" />
      <path fill-rule="evenodd" clip-rule="evenodd"
         d="M486.092 446.159L494.418 447.472C496.512 446.899 498.301 446.64 499.784 446.697C500.152 446.809 500.638 447.181 499.306 447.812C497.974 448.443 496.579 449.168 496.477 449.717C496.374 450.267 497.264 450.36 497.004 451.17C496.831 451.709 495.498 451.34 493.006 450.063L485.173 451.098L486.092 446.159ZM457.824 462.107L462.656 459.436C461.372 470.73 460.663 476.738 460.529 477.46C460.228 479.084 461.715 480.474 462.39 481.29C460.939 482.873 460.646 480.166 458.821 482.199C457.155 484.054 456.045 486.354 453.72 486.227C453.434 486.211 453.046 485.769 453.646 484.92C455.141 482.807 457.231 479.4 457.444 478.544C457.734 477.376 457.86 471.897 457.824 462.107Z"
         fill="#915B3C" />
      <path fill-rule="evenodd" clip-rule="evenodd"
         d="M467.974 434.184L469.912 432.729C478.455 435.01 483.67 445.628 493.907 447.091L492.198 451.023C476.088 457.848 469.534 445.004 467.974 434.184Z"
         fill="#242DD1" />
      <path fill-rule="evenodd" clip-rule="evenodd"
         d="M463.691 464.167C471.704 459.706 477.597 456.424 481.372 454.322C482.18 453.872 481.822 452.789 481.601 452.265C479.056 446.216 472.503 441.816 470.797 432.137L465.556 434.177C462.534 443.316 462.548 452.488 463.691 464.167Z"
         fill="#6468B1" />
      <path fill-rule="evenodd" clip-rule="evenodd"
         d="M460.364 444.397C459.586 444.596 458.912 444.426 458.342 443.886C455.885 441.558 456.231 439.329 458.116 437.611C460.001 435.892 461.998 436.158 465.172 434.391C465.345 434.294 465.505 434.217 465.652 434.159L467.265 433.361C474.583 446.348 477.672 456.01 476.534 462.349L462.618 470.099C462.132 472.482 461.628 474.54 461.106 476.273L457.315 478.385C454.923 467.035 455.94 455.706 460.364 444.397Z"
         fill="#1119A7" />
      <path fill-rule="evenodd" clip-rule="evenodd"
         d="M464.242 460.431C465.326 463.852 466.506 466.116 467.782 467.223L462.618 470.098C463.184 467.318 463.726 464.096 464.242 460.431L464.242 460.431Z"
         fill="black" fill-opacity="0.1" />
      <path d="M415.624 475.663C426.878 472.954 430.74 471.274 436.029 483.796" stroke="#3E98A3" stroke-width="2" />
      <path d="M393.053 499.636C397.744 486.906 398.682 482.559 413.225 476.193" stroke="#3E98A3"
         stroke-width="2" />
      <g filter="url(#filter3_ii)">
         <circle r="5.5" transform="matrix(0.938191 -0.346117 0 1 414.163 476.347)" fill="#3E98A3" />
      </g>
      <circle r="2.5" transform="matrix(0.938191 -0.346117 0 1 393.522 499.962)" fill="#23727B" />
      <circle r="2.5" transform="matrix(0.938191 -0.346117 0 1 435.741 484.386)" fill="#23727B" />
      <path
         d="M574 163.869C574 161.008 576.237 157.902 578.918 157.046C590.33 153.402 619.074 144.11 638 137C654.442 130.823 675.894 122.322 684.348 118.956C686.701 118.02 688.987 118.048 690.765 119.036L697 122.5L693.4 128.137C692.635 129.335 692.212 130.675 692.212 131.901V135.277C692.212 137.927 690.273 140.832 687.791 141.9L585.203 186.049C583.808 186.65 582.449 186.569 581.497 185.829L575.255 180.973C574.448 180.346 574 179.295 574 178.032V163.869Z"
         fill="#6455C1" />
      <path
         d="M580.692 168.944C580.692 165.983 583.078 162.785 585.843 162.043C597.886 158.808 628.278 150.444 647 143.5C663.589 137.347 684.03 127.332 693.552 122.533C696.385 121.106 698.904 122.525 698.904 125.569V139.801C698.904 142.562 696.804 145.575 694.213 146.531L585.383 186.681C582.792 187.636 580.692 186.173 580.692 183.411V168.944Z"
         fill="#191847" />
      <g filter="url(#filter4_i)">
         <path
            d="M680 124.5C680 124.5 674.964 131.589 640 143.5C619.318 150.545 591.5 155.998 591.5 155.998C591.5 117.062 609.662 73.024 635.829 63.3707C661.995 53.7173 680 85.5637 680 124.5Z"
            fill="url(#paint0_linear-3)" />
      </g>
   </g>
   <defs>
      <filter id="filter2_ii" x="239" y="325.609" width="480.652" height="519.72" filterUnits="userSpaceOnUse"
         color-interpolation-filters="sRGB">
         <feFlood flood-opacity="0" result="BackgroundImageFix" />
         <feBlend mode="normal" in="SourceGraphic" in2="BackgroundImageFix" result="shape" />
         <feColorMatrix in="SourceAlpha" type="matrix" values="0 0 0 0 0 0 0 0 0 0 0 0 0 0 0 0 0 0 127 0"
            result="hardAlpha" />
         <feOffset dx="20" />
         <feGaussianBlur stdDeviation="5" />
         <feComposite in2="hardAlpha" operator="arithmetic" k2="-1" k3="1" />
         <feColorMatrix type="matrix" values="0 0 0 0 0 0 0 0 0 0 0 0 0 0 0 0 0 0 0.25 0" />
         <feBlend mode="normal" in2="shape" result="effect1_innerShadow" />
         <feColorMatrix in="SourceAlpha" type="matrix" values="0 0 0 0 0 0 0 0 0 0 0 0 0 0 0 0 0 0 127 0"
            result="hardAlpha" />
         <feOffset dx="-10" />
         <feGaussianBlur stdDeviation="15" />
         <feComposite in2="hardAlpha" operator="arithmetic" k2="-1" k3="1" />
         <feColorMatrix type="matrix" values="0 0 0 0 1 0 0 0 0 1 0 0 0 0 1 0 0 0 0.6 0" />
         <feBlend mode="normal" in2="effect1_innerShadow" result="effect2_innerShadow" />
      </filter>
      <filter id="filter3_ii" x="407.003" y="468.525" width="14.3201" height="13.6434"
         filterUnits="userSpaceOnUse" color-interpolation-filters="sRGB">
         <feFlood flood-opacity="0" result="BackgroundImageFix" />
         <feBlend mode="normal" in="SourceGraphic" in2="BackgroundImageFix" result="shape" />
         <feColorMatrix in="SourceAlpha" type="matrix" values="0 0 0 0 0 0 0 0 0 0 0 0 0 0 0 0 0 0 127 0"
            result="hardAlpha" />
         <feOffset dx="2" dy="-2" />
         <feGaussianBlur stdDeviation="2" />
         <feComposite in2="hardAlpha" operator="arithmetic" k2="-1" k3="1" />
         <feColorMatrix type="matrix" values="0 0 0 0 0 0 0 0 0 0 0 0 0 0 0 0 0 0 0.35 0" />
         <feBlend mode="normal" in2="shape" result="effect1_innerShadow" />
         <feColorMatrix in="SourceAlpha" type="matrix" values="0 0 0 0 0 0 0 0 0 0 0 0 0 0 0 0 0 0 127 0"
            result="hardAlpha" />
         <feOffset dx="-2" dy="-2" />
         <feGaussianBlur stdDeviation="2" />
         <feComposite in2="hardAlpha" operator="arithmetic" k2="-1" k3="1" />
         <feColorMatrix type="matrix" values="0 0 0 0 1 0 0 0 0 1 0 0 0 0 1 0 0 0 0.35 0" />
         <feBlend mode="normal" in2="effect1_innerShadow" result="effect2_innerShadow" />
      </filter>
      <filter id="filter4_i" x="591.5" y="61.6281" width="91.5" height="96.37" filterUnits="userSpaceOnUse"
         color-interpolation-filters="sRGB">
         <feFlood flood-opacity="0" result="BackgroundImageFix" />
         <feBlend mode="normal" in="SourceGraphic" in2="BackgroundImageFix" result="shape" />
         <feColorMatrix in="SourceAlpha" type="matrix" values="0 0 0 0 0 0 0 0 0 0 0 0 0 0 0 0 0 0 127 0"
            result="hardAlpha" />
         <feOffset dx="3" dy="2" />
         <feGaussianBlur stdDeviation="3.5" />
         <feComposite in2="hardAlpha" operator="arithmetic" k2="-1" k3="1" />
         <feColorMatrix type="matrix" values="0 0 0 0 0.779167 0 0 0 0 0.70125 0 0 0 0 0.70125 0 0 0 0.45 0" />
         <feBlend mode="normal" in2="shape" result="effect1_innerShadow" />
      </filter>
      <linearGradient id="paint0_linear-3" x1="564.526" y1="80.6755" x2="652.545" y2="121.199"
         gradientUnits="userSpaceOnUse">
         <stop stop-color="#ED0000" id="stop1872" style="stop-color:#d40000;stop-opacity:1" />
         <stop offset="1" stop-color="#EA6D38" id="stop1874" style="stop-color:#ff7f2a;stop-opacity:1" />
      </linearGradient>
   </defs>
</svg>