<svg width="817" height="933" fill="none" xmlns="http://www.w3.org/2000/svg"><path d="M817 392.247c0 283.002-130.078 370.877-221.622 391.223-120.517 26.786-334.275-106.015-417.449-159.602C150.027 605.891 0 511.67 0 307.368 0 8.904 261 213.774 434 144.116 756.5 14.264 817 93.784 817 392.247z" fill="#5C09FF"/><g filter="url(#a)"><path d="M128.49 62.303c7.82-2.803 17.108-2.344 26.622 1.315l476.242 183.17C657.121 256.699 678 287.094 678 314.694v523.035c0 27.615-20.899 41.978-46.679 32.082L166.989 691.57c-25.559-9.81-46.364-39.813-46.676-67.307L114 67.498l14.49-5.195z" fill="#A094E3"/></g><path d="M619.672 252.404 141.679 68.918C115.899 59.022 95 73.386 95 101v523c0 27.614 20.899 58.022 46.679 67.919l477.993 183.485c25.78 9.896 46.679-4.467 46.679-32.082v-523c0-27.614-20.899-58.022-46.679-67.918z" fill="#fff"/><path d="M94.567 423.734s-.933-.359-1.867-2.717c-.933-2.358-.933-12.358 0-14 .934-1.641 1.867-1.283 1.867-1.283v-3l151.24 58.055v21l-151.24-58.055zm170.846 44.581c0 11.598-8.778 17.631-19.606 13.474v-178l19.606 7.526v157z" fill="#191847"/><path d="M248.608 461.865c0 1.656-1.254 2.518-2.8 1.924l-2.334-.896v-3l2.334.896 2.8 1.076z" fill="#fff"/><path d="m245 303.5 3.5.5.108 157.865L245 457.5v-154zM94.567 402 245 459.5l-1.06 3.573-149.373-57.339V402z" fill="#fff"/><path d="m265.413 313-19.605-8.5v-87.175l19.605 7.074V313z" fill="#191847"/><path d="M245.808 196.789c10.828 4.157 19.605 16.928 19.605 28.526l-83.089-31.895v-21l63.484 24.369z" fill="#191847"/><path d="M246.17 215.765c1.562.628 2.83 2.557 2.83 4.309v2.115l-4.5-3.287 1.67-3.137zM182 194v-4l64.17 25.765v3.137L182 194zm62 115.5.5-90.598 4.5 3.287-.5 87.43-4.5-.119z" fill="#fff"/><path d="M246 283v-18l3 1v18l-3-1z" fill="#35337A"/><path d="M152.448 73.26s.466-.82 1.867-1.283c1.4-.463 14.184 2.436 15.184 8.436 1.867 1.717 2.5 1 2.5 1l-.261 85-19.29-7.5V73.26z" fill="#191847"/><path d="M165 67.75s.467-.82 1.867-1.283c1.401-.463 11.203 3.3 13.07 5.017 1.867 1.717 1.867 2.717 1.867 2.717L165 67.75z" fill="#A094E3"/><path d="M172.055 186.479c-10.828-4.157-19.605-16.928-19.605-28.526l83.088 31.895v21l-63.483-24.369z" fill="#191847"/><path d="M171.813 167.592c-1.554-.596-2.813-2.425-2.813-4.086V161l2.813 1.078v5.514zM319 220.992V224l-147.187-56.409v-3.008L319 220.992z" fill="#fff" stroke="#fff" stroke-width=".4"/><path d="M173 80.489v81.461l-4 .05V79l4 1.489z" fill="#fff"/><path d="m442.793 523.405-19.605-7.526v-162l19.605 7.526v162z" fill="#35337A"/><path d="M423.188 332.88c10.827 4.156 19.605 16.927 19.605 28.525L265 293.154V272l158.188 60.88z" fill="#35337A"/><path d="M423.188 350.879c1.546.594 2.8 2.419 2.8 4.076v2.5l-2.8-1.076v-5.5zM264.5 293.5l.5-3.5 158.188 60.879v3.89L264.5 293.5z" fill="#fff"/><path d="M423.188 515.88v-160l2.8 1.075v160l-2.8-1.075z" fill="#fff"/><path d="M248.608 265.865v21l-52.28-20.069v-21l52.28 20.069zm-71.886-6.594c0-11.598 8.778-17.631 19.605-13.475v89l-19.605-7.525v-68z" fill="#35337A"/><path d="M193.527 265.721c0-1.657 1.254-2.519 2.801-1.925l1.867.717.305 4.987H195l-1.473-3.779z" fill="#fff"/><path d="m197 336.5-3.472-2.779v-68L197 267.5v69zm51.608-49L197.5 268l-.5-4 51.608 19.865v3.635z" fill="#fff"/><path d="M94.567 327.734s-.933-.359-1.867-2.717c-.933-2.358-.933-12.358 0-14 .934-1.642 1.867-1.283 1.867-1.283v-3l79.355 30.461v21l-79.355-30.461zm98.96 16.987c0 11.598-8.778 17.631-19.605 13.474v-89l19.605 7.526v68z" fill="#35337A"/><path d="M176.722 338.27c0 1.657-1.254 2.519-2.801 1.925l-2.334-.896v-3l2.334.896 2.801 1.075z" fill="#fff"/><path d="m172.5 254 4.221 1.5v82.77l-3.221-.77-1-83.5zm-77.933 52 78.921 30.5.012 1-1.445 1.979-77.488-29.745V306z" fill="#fff"/><path d="m613.638 872.987-19.605-7.526L594 274.5l19.638 7v591.487z" fill="#191847"/><path d="M624.841 877.287s0 1-1.867 1.283c-1.867.283-33.609-11.901-35.476-13.618-1.867-1.717-1.867-2.717-1.867-2.717 0-5.522 4.18-8.395 9.336-6.416l20.539 7.884c5.156 1.979 9.335 8.061 9.335 13.584zm-30.808-622.826c10.828 4.156 19.605 16.928 19.605 28.526l-166.177-63.79v-21l146.572 56.264z" fill="#191847"/><path d="M594.033 272.461c1.547.594 2.801 2.418 2.801 4.075v2.5L592 278l2.033-5.539zM447 219.5V216l147.033 56.461L594 277l-147-57.5z" fill="#fff"/><path d="m592.5 855 .5-578 3.833.5v579.036L592.5 855z" fill="#fff"/><path d="M447.461 198.197v21l-80.288-30.82v-21l80.288 30.82zm-99.893-17.345c0-11.598 8.777-17.631 19.605-13.475v89l-19.605-7.525v-68z" fill="#191847"/><path d="M364.372 187.302c0-1.657 1.254-2.518 2.801-1.925l1.867.717L372.5 189l-3.5 2-4.628-1.643v-2.055z" fill="#fff"/><path d="M369.041 257h-4.668v-70.202L368 188l1.041 69zm80.459-35-81.462-31.5.462-4.5 81 31v5z" fill="#fff"/><path d="M265 249v-20l79.767 29.777v21L265 249zm99.372 17.302c0 11.598-8.777 17.631-19.605 13.475v-89l19.605 7.525v68z" fill="#191847"/><path d="M347.568 259.852c0 1.657-1.254 2.518-2.801 1.925l-2.334-.896-1.933-3.381 7-1.5.068 3.852z" fill="#fff"/><path d="m344 176.203 3.567 1.015v82.634L344 258.5v-82.297zM265.5 227l77.4 29.5v4.56l-77.487-29.745.087-4.315z" fill="#fff"/><path d="M370.907 529.811v-21l151.24 58.056v21l-151.24-58.056zm170.845 44.581c0 11.598-8.777 17.631-19.605 13.475v-178l19.605 7.525v157z" fill="#191847"/><path d="M524.948 567.942c0 1.657-1.254 2.518-2.801 1.925l-2.334-.896v-3l2.334.896 2.801 1.075z" fill="#fff"/><path d="m522.147 409.867 2.8 1.075v157l-2.8-1.075v-157zm-151.24 98.944L520.28 566.15v3l-149.373-57.34v-2.999z" fill="#fff"/><path d="m541.752 417.392-19.605-7.526v-86l19.605 7.526v86z" fill="#191847"/><path d="M522.147 302.867c10.828 4.156 19.605 16.927 19.605 28.525l-83.088-31.894v-21l63.483 24.369z" fill="#191847"/><path d="M522.147 320.867c1.547.593 2.801 2.418 2.801 4.075v2l-2.801-1.075v-5zM458.664 301v-4.502l63.483 24.369v4.633L458.664 301zm63.483 108.867v-84l2.801 1.075-.001 84-2.8-1.075z" fill="#fff"/><path d="M428.789 179.03s0-1 1.867-1.283c1.867-.284 11.203 3.3 13.07 5.017 1.868 1.717 1.868 2.717 1.868 2.717l2.8 1.075v85.789l-19.605-7.21V179.03z" fill="#191847"/><path d="M441 173.75s0-1 1.867-1.283c1.867-.284 11.203 3.3 13.07 5.017 1.867 1.717 1.867 2.717 1.867 2.717L441 173.75z" fill="#A094E3"/><path d="M448.394 292.556c-10.827-4.157-19.605-16.928-19.605-28.526l83.089 31.895v21l-63.484-24.369z" fill="#191847"/><path d="M448.394 274.556c-1.546-.594-2.8-2.419-2.8-4.076v-2.5l2.8 1.076v5.5zM594.966 322v8.819l-146.572-56.264v-4.26L594.966 322z" fill="#fff"/><path d="m451 217.5-1.5 52.5-3.907-.5v-54.019L451 217.5zm-1.5-30.5 2.5 13-6.407-2.519v-12L449.5 187z" fill="#fff"/><path d="M289.686 125.633s0-1 1.867-1.284c1.867-.283 11.203 3.301 13.07 5.017 1.867 1.717 1.867 2.717 1.867 2.717l2.801 1.075v380l-19.605-7.525v-380z" fill="#35337A"/><path d="M303 120.75s0-1 1.868-1.283c1.867-.283 11.203 3.3 13.07 5.017 1.867 1.717 1.867 2.717 1.867 2.717L303 120.75z" fill="#A094E3"/><path d="M309.291 534.158c-10.828-4.156-19.605-16.927-19.605-28.525l166.177 63.789v21l-146.572-56.264z" fill="#35337A"/><path d="M309.291 516.158c-1.547-.593-2.801-2.418-2.801-4.075v-2.5l2.801 1.075v5.5zM455.863 568v4.422l-146.572-56.264v-3.942L455.863 568z" fill="#fff"/><path d="m312 308-1.5 203.5-4.009-1.417v-204L312 308zm-1.5-174.5L314 250l-7.509-2.917v-115l4.009 1.417zM317 269l-4 21.5-6.509-2.417v-23L317 269z" fill="#fff"/><path d="M309.291 248.158v18l-2.8-1.075v-18l2.8 1.075z" fill="#191847"/><path d="M453.5 589.5V569l82.651 31.242v21L453.5 589.5zm102.256 18.268c0 11.598-8.778 17.63-19.605 13.474v-89l19.605 7.526v68z" fill="#35337A"/><path d="M538.952 601.317c0 1.657-1.254 2.519-2.801 1.925l-1.867-.717v-3l2.122.815 2.546.977z" fill="#fff"/><path d="m534.283 531.5 4.668 1.817v68L533.5 599l.783-67.5zM454 566.5l80.283 30.5v5.525L445.5 568.5l8.5-2z" fill="#fff"/><path d="M665.918 550.055s.001-1 1.868 2.717c1.867 3.717 1.867 11.716 0 14-1.867 2.283-1.868 1.283-1.868 1.283v3l-107.361-41.212v-21l107.361 41.212z" fill="#35337A"/><path d="M678 546.16s.001-1 1.868 2.717c1.867 3.717 1.867 11.717 0 14-1.867 2.283-1.868 1.283-1.868 1.283v-18z" fill="#A094E3"/><path d="M538.951 522.317c0-11.598 8.778-17.631 19.605-13.474v89l-19.605-7.526v-68z" fill="#35337A"/><path d="M555.756 528.768c0-1.657 1.254-2.519 2.801-1.925l2.334.896v3l-2.334-.896-2.801-1.075z" fill="#fff"/><path d="m665.918 573-105.494-40.5v-4.941l105.494 40.496V573z" fill="#fff"/><path d="m359.784 521.534-14.233-18.388c3.293-7.329 5.012-15.841 5.073-25.106L355 484c7.5-3 16.711-5.709 16.5-8-1.599-15.231-6.386-31.938-13.732-47.083-1.132-2.322-3.39-4.075-5.396-4.154l-17.788-.792a131.558 131.558 0 0 0-20.314-26.24l3.548-17.56c.405-2.003-.707-4.634-2.687-6.301-13.201-11.194-27.361-19.516-41.041-24.583-2.153-.809-12.09 3.713-16.59 5.213l8.657 14.451c-8.914-2.172-17.516-2.553-25.386-1.134l-14.195-18.365c-1.639-2.104-3.997-3.156-5.729-2.509-11.212 3.988-22.096 7.288-28.847 17.557-1.029 1.549.87 8.102 2.51 10.207l14.232 18.387c-3.292 7.33-5.012 15.841-5.072 25.106l-17.788-.792C183.5 418 176 421 170.5 423c1.599 15.231 18.679 29.178 26.026 44.323 1.132 2.322 3.389 4.075 5.396 4.155l17.787.792a131.689 131.689 0 0 0 20.314 26.24l-3.555 17.596c-.404 2.002.707 4.633 2.688 6.3C287 548 249.5 559.5 281.5 547.5c2-1 2.669-.577 3.074-2.58l3.555-17.595c8.914 2.172 17.516 2.554 25.387 1.134L323.5 550c1.639 2.104 8.245.002 9.977-.644 11.212-3.989 20.642-11.25 27.393-21.519.961-1.629.553-4.199-1.086-6.303zm-88.433-44.832c-16.574-9.928-27.472-30.848-24.285-46.62 3.186-15.772 19.272-20.529 35.846-10.602 16.574 9.928 27.472 30.849 24.286 46.62-3.187 15.772-19.273 20.53-35.847 10.602z" fill="#A094E3"/><path d="m345.967 526.678-14.232-18.388c3.292-7.329 5.012-15.841 5.072-25.106l17.788.792c2.044.101 3.29-1.478 3.079-3.769-1.6-15.231-6.376-31.001-13.723-46.146-1.132-2.322-3.389-4.075-5.396-4.155l-17.787-.792a131.689 131.689 0 0 0-20.314-26.24l3.547-17.56c.405-2.003-.707-4.633-2.687-6.3-13.2-11.195-27.36-19.516-41.04-24.583-2.154-.809-3.974.066-4.378 2.068l-3.555 17.596c-8.915-2.172-17.516-2.554-25.387-1.134l-14.195-18.365c-1.639-2.105-3.997-3.156-5.728-2.509-11.212 3.988-20.642 11.249-27.393 21.518-1.03 1.549-.584 4.141 1.055 6.245l14.233 18.388c-3.293 7.329-5.012 15.841-5.073 25.106l-17.788-.792c-2.043-.102-3.289 1.477-3.078 3.769 1.599 15.23 6.376 31.001 13.722 46.146 1.132 2.322 3.39 4.075 5.396 4.154l17.788.792a131.63 131.63 0 0 0 20.314 26.241l-3.555 17.595c-.405 2.003.707 4.633 2.687 6.301 13.2 11.194 27.36 19.515 41.04 24.582 2.154.809 3.974-.065 4.378-2.068l3.556-17.596c8.914 2.173 17.516 2.554 25.386 1.134l14.233 18.388c1.639 2.105 3.996 3.156 5.728 2.509 11.212-3.988 20.642-11.249 27.393-21.518.961-1.629.554-4.199-1.086-6.303zm-88.433-44.832c-16.573-9.928-27.472-30.849-24.285-46.621 3.186-15.771 19.273-20.529 35.847-10.601 16.573 9.927 27.472 30.848 24.285 46.62-3.186 15.772-19.273 20.529-35.847 10.602z" fill="#310686"/><path d="M263.545 485.599c17.015 6.531 30.808-2.948 30.808-21.174 0-18.225-13.793-38.295-30.808-44.826-17.015-6.532-30.808 2.948-30.808 21.174 0 18.225 13.793 38.294 30.808 44.826z" fill="#fff"/><path d="M263.545 485.599c17.015 6.531 30.808-2.948 30.808-21.174 0-18.225-13.793-38.295-30.808-44.826-17.015-6.532-30.808 2.948-30.808 21.174 0 18.225 13.793 38.294 30.808 44.826z" fill="#fff"/><path d="M263.545 485.599c17.015 6.531 30.808-2.948 30.808-21.174 0-18.225-13.793-38.295-30.808-44.826-17.015-6.532-30.808 2.948-30.808 21.174 0 18.225 13.793 38.294 30.808 44.826z" fill="#A094E3"/><path d="M268.679 479.432c13.63 5.232 24.679-3.053 24.679-18.505 0-15.453-11.049-32.221-24.679-37.453-13.63-5.232-24.679 3.053-24.679 18.505 0 15.453 11.049 32.221 24.679 37.453z" fill="#fff"/><path d="M268.679 479.432c13.63 5.232 24.679-3.053 24.679-18.505 0-15.453-11.049-32.221-24.679-37.453-13.63-5.232-24.679 3.053-24.679 18.505 0 15.453 11.049 32.221 24.679 37.453z" fill="#fff"/><path d="M268.679 479.432c13.63 5.232 24.679-3.053 24.679-18.505 0-15.453-11.049-32.221-24.679-37.453-13.63-5.232-24.679 3.053-24.679 18.505 0 15.453 11.049 32.221 24.679 37.453z" fill="#4508BD"/><path d="m573.18 607.52-12.334-34.874c10.669-6.067 19.403-14.952 25.76-26.206L610 568c8.5-3.5 13.709-3.982 14.888-6.963 7.498-19.984 9.836-43.402 7.285-68.302-.401-3.823-3.143-7.935-6.577-9.784l-30.388-16.507c-3.325-16.544-9.288-33.41-17.607-49.77l18.016-18.33c2.055-2.09 1.898-6.271-.42-10.036-15.393-25.194-34.394-47.719-54.756-65.855-3.198-2.868-6.941-2.953-9.941-1.453l-10 3.5-7.119 15.019c-14.031-10.438-28.727-18.419-43.367-23.563l-12.284-34.813c-1.429-4-4.818-7.343-8.265-8.067-22.183-4.928-43.475-4.305-62.141 2.328-2.834.991-3.809 4.543-2.379 8.543l12.334 34.874c-10.669 6.068-19.402 14.953-25.759 26.207l-30.388-16.507C337.647 326.611 328 331 324 332c-2.5 6.32-.599 41.832 1.952 66.733.401 3.822 3.143 7.934 6.578 9.784l30.387 16.507c3.325 16.544 9.288 33.409 17.607 49.769l-18.053 18.367c-2.055 2.091-1.897 6.272.42 10.037 15.394 25.193 34.394 47.719 54.756 65.854 3.199 2.869 6.952 3.392 9.007 1.301l18.054-18.367c14.03 10.439 28.726 18.42 43.366 23.563l12.334 34.874c1.43 4.001 4.819 7.343 8.266 8.067 22.182 4.928 43.475 4.305 62.14-2.328 2.771-1.148 3.796-4.64 2.366-8.641zM449.7 475.55c-22.113-26.595-26.941-61.647-10.759-78.11 16.183-16.463 47.357-8.215 69.47 18.38s26.941 61.647 10.759 78.11-47.356 8.215-69.47-18.38z" fill="#A094E3"/><path d="m561.308 611.645-12.334-34.874c10.669-6.067 19.402-14.952 25.759-26.206l30.388 16.507c3.484 1.91 6.716 1.071 7.895-1.91 7.497-19.983 9.836-43.402 7.284-68.302-.401-3.823-3.142-7.935-6.577-9.784l-30.387-16.507c-3.325-16.544-9.288-33.41-17.608-49.77l18.017-18.329c2.055-2.091 1.897-6.272-.42-10.037-15.394-25.194-34.394-47.719-54.756-65.854-3.198-2.869-6.952-3.392-9.007-1.301l-18.053 18.367c-14.031-10.439-28.727-18.42-43.367-23.563l-12.284-34.814c-1.43-4-4.819-7.343-8.265-8.067-22.183-4.928-43.475-4.305-62.141 2.328-2.834.991-3.809 4.543-2.379 8.543l12.334 34.874c-10.67 6.068-19.403 14.953-25.76 26.207l-30.387-16.507c-3.485-1.91-6.716-1.072-7.895 1.909-7.498 19.984-9.836 43.403-7.285 68.303.401 3.822 3.143 7.935 6.577 9.784l30.388 16.507c3.325 16.544 9.287 33.409 17.607 49.769l-18.053 18.367c-2.055 2.091-1.898 6.272.42 10.037 15.393 25.193 34.394 47.719 54.756 65.854 3.198 2.869 6.952 3.392 9.007 1.301l18.053-18.367c14.031 10.439 28.727 18.42 43.367 23.563l12.334 34.874c1.43 4.001 4.819 7.343 8.265 8.067 22.183 4.928 43.475 4.306 62.141-2.328 2.77-1.148 3.796-4.64 2.366-8.641zm-123.48-131.97c-22.113-26.595-26.941-61.647-10.759-78.11s47.357-8.215 69.47 18.38 26.941 61.647 10.759 78.11-47.357 8.215-69.47-18.38z" fill="#310686"/><path d="M467.066 506.723c29.389 11.282 53.214-5.093 53.214-36.573s-23.825-66.145-53.214-77.427c-29.389-11.282-53.214 5.093-53.214 36.573s23.825 66.145 53.214 77.427z" fill="#fff"/><path d="M467.066 506.723c29.389 11.282 53.214-5.093 53.214-36.573s-23.825-66.145-53.214-77.427c-29.389-11.282-53.214 5.093-53.214 36.573s23.825 66.145 53.214 77.427z" fill="#fff"/><path d="M467.066 506.723c29.389 11.282 53.214-5.093 53.214-36.573s-23.825-66.145-53.214-77.427c-29.389-11.282-53.214 5.093-53.214 36.573s23.825 66.145 53.214 77.427z" fill="#A094E3"/><path d="M474.686 501.415c25.232 9.686 45.687-5.94 45.687-34.901 0-28.962-20.455-60.291-45.687-69.977-25.232-9.686-45.686 5.94-45.686 34.902 0 28.961 20.454 60.29 45.686 69.976z" fill="#fff"/><path d="M474.686 501.415c25.232 9.686 45.687-5.94 45.687-34.901 0-28.962-20.455-60.291-45.687-69.977-25.232-9.686-45.686 5.94-45.686 34.902 0 28.961 20.454 60.29 45.686 69.976z" fill="#fff"/><path d="M474.686 501.415c25.232 9.686 45.687-5.94 45.687-34.901 0-28.962-20.455-60.291-45.687-69.977-25.232-9.686-45.686 5.94-45.686 34.902 0 28.961 20.454 60.29 45.686 69.976z" fill="#4508BD"/><path d="M592.197 682.541c11.95 13.771 28.588 17.226 37.161 7.717 8.574-9.509 5.837-28.382-6.113-42.153-11.95-13.771-28.587-17.225-37.161-7.716-8.574 9.509-5.837 28.381 6.113 42.152z" stroke="#A094E3" stroke-width="6.789"/><path d="m621.671 646.062 3.351 3.862-12.621 13.997c-1.502 1.667.71 4.896-.492 6.229-1.208 1.34-4.009-1.237-5.217.103l-11.119 12.332-3.35-3.862 11.118-12.331c1.269-1.408-1.078-4.487.191-5.895 1.202-1.333 4.15 1.081 5.518-.437l12.621-13.998z" fill="#A094E3"/><path d="m586.415 643.49 2.404-2.666 41.045 47.3-2.404 2.666-41.045-47.3z" fill="#A094E3"/><path d="M590.317 683.86c11.95 13.771 28.587 17.226 37.161 7.717 8.574-9.51 5.837-28.382-6.113-42.153-11.95-13.771-28.588-17.226-37.162-7.717-8.573 9.51-5.836 28.382 6.114 42.153z" stroke="#310686" stroke-width="6.789"/><path d="m619.791 647.38 3.351 3.862-12.621 13.997c-1.502 1.667.71 4.896-.492 6.229-1.208 1.34-4.009-1.237-5.217.103l-11.119 12.332-3.35-3.861 11.118-12.332c1.269-1.407-1.078-4.487.192-5.895 1.202-1.333 4.149 1.081 5.517-.437l12.621-13.998z" fill="#310686"/><path d="m584.535 644.808 2.404-2.666 41.045 47.3-2.404 2.666-41.045-47.3z" fill="#310686"/><path d="M605.471 668.673c1.121.649 2.195.266 2.399-.856.204-1.122-.539-2.558-1.659-3.206-1.121-.649-2.195-.265-2.399.856-.204 1.122.539 2.558 1.659 3.206z" fill="#fff"/><path fill-rule="evenodd" clip-rule="evenodd" d="M423.255 531.96c4.009-3.502 6.723-8.638 6.269-15.734-1.306-20.446-27.225-26.008-32.267-17.877-5.042 8.131-4.443 33.894 2.073 38.195 2.599 1.715 8.135 2.082 13.769.607l-3.536 25.442 20.881 8.015-7.189-38.648z" fill="#B28B67"/><path fill-rule="evenodd" clip-rule="evenodd" d="M438.628 513.082c.675-.457 1.043-1.338 1.361-2.186.33-.881.652-1.776.871-2.741.438-1.928.443-4.337-.953-6.501-1.12-1.735-2.8-2.965-4.35-3.687-1.033-.482-2.094-.734-3.085-.765-.982-.032-1.829.333-2.781.395-.037-2.273-.398-4.775-1.468-7.115-1.029-2.251-2.671-3.922-4.54-4.915-1.919-1.02-3.813-1.266-5.531-.93-.43.084-.856.181-1.264.32-.341.117-.696.278-1.097.225-.446-.059-.668-.42-.958-.881a13 13 0 0 0-1.129-1.522c-1.794-2.101-4.148-3.585-6.226-3.536-.957.022-1.888.327-2.538.991-.579.591-.992 1.723-1.791 1.983-.339.111-.579-.3-.888-.654-.464-.532-.906-1.093-1.375-1.618-.66-.737-1.374-1.373-2.138-1.855-1.119-.707-2.666-1.236-2.986.211-.12.544-.028 1.21.011 1.819.053.837.108 1.674.175 2.514.05.638.113 1.26.222 1.909.058.346.24 1.02.111 1.294-.162.343-.91-.174-1.229-.283-.631-.214-1.265-.339-1.848-.274-.453.05-.928.197-1.119.679-.117.296-.086.658-.031 1.03.067.447-.009.641-.059 1.047-.847-.773-3.784-2.893-4.153-1.408-.123.494.157 1.214.37 1.753.375.945.867 1.866 1.369 2.757 1.048 1.859 2.299 3.596 3.646 5.188-1.578.145-1.989 2.203-.624 4.047.603.814 1.414 1.255 2.174 1.509.279.094.68.133.899.269.118.073.244.229.407.303 1.074.491 2.285.679 3.335.827 1.869.263 3.639-.006 5.085-.897.37-.228.677-.324 1.176-.127.437.173.866.466 1.303.646 1.156.475 2.198.27 3.272.279.066 1.579.479 3.448 1.072 5.073.484 1.326 1.494 1.879 2.487 2.36 3.174 1.538 6.36 2.404 9.538 3.629-3.077-.436-6.256-1.349-9.306-1.643-1.378-.133-.325 1.266.264 2.182.97 1.508 1.692 3.193 2.193 4.868 1.505-1.524 4.165-1.887 6.522-.337 2.604 1.713 4.438 6.189 2.773 8.262-.967 1.203-2.713 1.141-4.166 1.26 1.134 1.697 1.408 3.666 2.09 5.498.336.903.808 1.96 1.561 2.519.278.207.605.34.824.668.272.405.337.766.684 1.158 1.387 1.565 3.552 2.317 4.781 1.441 1.111-.792.822-2.831-.106-4.422 1.477-.093 4.168.092 3.581-2.598 3.201 1.001 10.972-1.577 6.676-7.289 2.358-.522 4.524-3.179 3.01-6.835-1.166-2.815-3.878-4.915-6.104-5.894z" fill="#191847"/><path fill-rule="evenodd" clip-rule="evenodd" d="m454.287 693.132-64.479-24.751-8.807 104.181L468 817l14-5-27.713-118.868z" fill="#A094E3"/><path fill-rule="evenodd" clip-rule="evenodd" d="m441.287 699.151-64.479-24.752-8.807 104.182 100.056 38.408-26.77-117.838z" fill="#191847"/><path fill-rule="evenodd" clip-rule="evenodd" d="m441.287 699.151-17.271-6.63-13.038 102.557 57.079 21.911-26.77-117.838z" fill="#310686"/><path fill-rule="evenodd" clip-rule="evenodd" d="M324.338 626.574c-7.166-7.36-19.19-6.054-19.182.542.025 19.734 16.83 119.145 17.708 125.358.877 6.214 10.276 11.374 10.824 4.175.87-11.456 2.489-51.648.87-71.161-.626-7.558-1.325-15.11-2.097-22.654 8.818 20.442 22.456 50.1 40.914 88.971l10.02-1.057c-7.869-30.789-14.321-52.869-19.356-66.241-8.622-22.897-16.707-42.773-20.11-49.988-5.352-11.348-14.668-11.681-19.591-7.945z" fill="#B28B67"/><path fill-rule="evenodd" clip-rule="evenodd" d="m382.678 735.052-34.391-100.467c-8.239-17.359-31.338-9.141-28.529.171 6.379 21.141 38.82 94.11 40.72 100.409l22.2-.113z" fill="#2C2F78"/><path fill-rule="evenodd" clip-rule="evenodd" d="M384.588 745.703c2.142 2.712 3.536 4.79 4.181 6.234.784 1.756 1.703 4.373 2.755 7.849l-42.498 9.968c-3.212-4.461-3.713-7.158-1.502-8.093a162.5 162.5 0 0 0 5.475-2.41l14.669-16.017c.282-.308.826-.192 1.215.259l.02.024 3.047 3.684c2.796.812 4.883 1.056 6.26.733 1.119-.262 2.403-1.209 3.853-2.84.556-.626 1.643-.406 2.426.491.034.038.067.078.099.118zm-48.7 7.06c.973 3.157 1.46 5.427 1.46 6.808 0 1.681-.261 4.033-.784 7.057l-49.073-18.838c-1.275-5.005-.539-7.16 2.209-6.466 2.275.581 4.557 1.132 6.847 1.653l22.808-2.136c.439-.041.954.368 1.149.913l.01.028 1.466 4.372c2.544 2.248 4.61 3.677 6.201 4.287 1.292.496 3.076.622 5.352.378.874-.094 1.907.714 2.307 1.803.018.047.034.094.048.141z" fill="#000"/><path fill-rule="evenodd" clip-rule="evenodd" d="M302.746 632.896c0 24.759 10.977 86.726 10.984 92.18l23.618 9.086c-3.457-52.86-4.682-79.374-3.677-79.544 1.508-.253 61.818 30.18 79.906 37.123 26.083 10.013 36.873-3.464 37.748-35.765l-51.669-19.834c-10.52-2.832-65.395-12.041-85.775-15.789-8.725-1.604-11.135 5.722-11.135 12.543z" fill="#3E44B8"/><path fill-rule="evenodd" clip-rule="evenodd" d="m391.607 574.992-30.199-29.309c-5.022-8.316-9.97-15.176-14.845-20.582-1.489-1.237-4.093-2.64-1.658 2.925 2.436 5.566 4.804 11.463 3.563 12.413-1.241.951-4.335-2.23-5.816-.428-.987 1.201 4.3 5.727 15.859 13.577l21.944 29.944 11.152-8.54zm-47.298-3.208-13.265-12.898c-1.861-8.3-4.086-12.972-6.675-14.013-1.989-1.754 1.475 9.161-2.295 6.883-3.77-2.279-12.971-13.14-14.556-12.261-2.346 1.302-.254 8.865 2.21 13.174 4.605 8.054 8.418 11.667 17.843 18.099 4.927 3.364 10.255 8.359 15.983 14.985l.755-13.969z" fill="#997659"/><path fill-rule="evenodd" clip-rule="evenodd" d="M406.314 576.691c-10.577-4.18-24.683-11.988-39.733-27.999l-5.911 11.851c10.381 15.021 24.979 29.691 37.743 34.207 10.058 3.558 15.199-7.501 7.901-18.059z" fill="#212353"/><path fill-rule="evenodd" clip-rule="evenodd" d="M392.071 593.866c-11.229-1.311-30.061-12.077-56.494-32.299-6.556 12.013-9.587 21.207-9.092 27.584 22.675 21.392 42.11 34.51 58.122 41.029-.509 9.982.648 20.109 4.532 30.449 7.987 21.255 54.752 22.361 70.476 31.712 9.846-30.474-9.193-51.702-9.208-73.626-.017-24.008-18.009-67.859-20.656-68.876l-24.141-9.266c-1.332 17.819-8.037 35.447-13.539 53.293z" fill="#3E44B8"/><path d="M391.214 653.347c.626 0 1.308.344 1.904.888l6.772 6.18c1.387 1.265 1.957 3.283 1.272 4.506l-1.979 3.537c-.685 1.223-2.364 1.188-3.752-.078l-8.218-7.499c-1.387-1.266-1.957-3.282-1.272-4.505l.671-1.201c.889-1.587 3.252-1.827 4.602-1.828z" fill="#FFCD00"/><path d="m401.346 643.691 5.163 4.711-6.688 11.95-5.163-4.712 6.688-11.949zm-10.699-20.077 4.84 4.416-3.503 6.259-4.84-4.416 3.503-6.259z" fill="#1E005A"/><path d="m386.231 623.667 3.779 1.085-2.07 3.699-2.267-3.788.558-.996z" fill="#fff"/><path d="m395.806 627.462 20.445 18.656s1.496 1.365.7 2.787l-2.548 4.552c-.796 1.423-2.292.057-2.292.057l-20.445-18.656 4.14-7.396z" fill="#310686"/><path d="M397.821 645.633c.44-.785 1.519-.763 2.41.05l-1.911 3.414c-.891-.813-1.257-2.109-.817-2.895l.318-.569z" fill="#1E005A"/><path d="m413.436 672.849 2.569 3.724c-1.43.871-.418 4.093-1.083 5.292-.815 1.47-2.524 1.814-4.264 1.047-.187-.082 2.677-2.925.167-5.047-2.51-2.121-3.147 2.461-3.317 2.186-1.14-1.849-1.45-4.028-.635-5.497 1.088-1.963 4.336-.636 6.563-1.705z" fill="#310686"/><path d="m409.973 675.188 16.603-11.495 2.596 3.764-16.603 11.495-2.596-3.764z" fill="#310686"/><path d="M433.071 662.031c1.617 2.344 1.623 5.148.014 6.262-1.609 1.114-3.746-.957-5.121-.005l-2.596-3.764c1.017-.705.102-3.503 1.862-4.721 1.609-1.114 4.224-.117 5.841 2.228z" fill="#310686"/><path d="m428.252 661.462 2.459.25 1.823 2.643-.636 2.393-2.459-.25-1.823-2.643.636-2.393z" fill="#3E44B8"/><path d="M374.175 631.065s53.681 49.106 65.818 60.265c.466.429 4.201-4.387 4.201-4.387l-59.749-53.936-10.27-1.942z" fill="#3F1D0A"/><path d="M384.867 653.985c-1.136 1.974-.281 5.243 1.931 7.385l9.769 9.459c2.187 2.118 4.838 2.301 6.021.405 1.598-2.561 3.791-6.079 5.44-8.726 1.269-2.035.302-5.551-2.117-7.703l-10.119-9.002c-2.287-2.035-5.019-2.078-6.159-.097l-4.766 8.279z" fill="#3F1D0A"/><defs><filter id="a" x="54" y=".492" width="684" height="932.448" filterUnits="userSpaceOnUse" color-interpolation-filters="sRGB"><feFlood flood-opacity="0" result="BackgroundImageFix"/><feColorMatrix in="SourceAlpha" values="0 0 0 0 0 0 0 0 0 0 0 0 0 0 0 0 0 0 127 0"/><feOffset/><feGaussianBlur stdDeviation="30"/><feColorMatrix values="0 0 0 0 0 0 0 0 0 0 0 0 0 0 0 0 0 0 0.25 0"/><feBlend in2="BackgroundImageFix" result="effect1_dropShadow"/><feBlend in="SourceGraphic" in2="effect1_dropShadow" result="shape"/></filter></defs></svg>