<?xml version="1.0" encoding="UTF-8" standalone="no"?>
<svg
   xmlns="http://www.w3.org/2000/svg"
   width="808"
   height="1051"
   viewBox="0 0 808 1051"
   fill="none">
  <path
     d="M808 823.889C808 961.844 686.922 994.751 595.378 1004.67C474.861 1017.73 239.603 971.224 154.458 952.501C58.958 931.501 0 872.176 0 772.585C0 627.094 153 619.654 217.66 640.253C419 704.388 808 673.389 808 823.889Z"
     fill="#4508BD"
     id="svg-sluzby-traffic-bg-shape" />
<g id="svg-sluzby-traffic-content"
   class="svg-sluzby-content">
  <g
     id="g1599">
    <path
       d="M114 305.437C114 277.701 135.181 247.452 161.202 238.025L643.817 63.1815C654.03 59.4816 663.943 59.443 672.051 63.0717L692 72L687.513 738.798C687.329 766.117 666.705 795.8 641.14 805.543L154.5 991L132.728 981.592C120.937 976.498 114 964.251 114 948.53L114 305.437Z"
       fill="#A094E2"
       id="path1597" />
  </g>
  <rect
     width="612"
     height="742"
     rx="50"
     transform="matrix(0.938191 -0.346117 0 1 133.666 265.067)"
     fill="white"
     id="rect1601" />
  <path
     d="M296.911 357.843C296.911 321.392 324.634 281.615 358.832 268.999L415.123 248.232C449.321 235.616 477.044 254.938 477.044 291.388V356.388L296.911 422.843V357.843Z"
     stroke="#310686"
     stroke-width="8"
     id="path1603" />
  <path
     d="M300.664 415.267L333.5 403.153L332.562 415.345L300.664 427.113V415.267Z"
     fill="white"
     id="path1605" />
  <path
     d="M296.911 505.843C296.911 542.294 269.188 582.071 234.99 594.687L137.418 630.683L137.418 470.807L296.911 411.967V505.843Z"
     fill="white"
     stroke="#310686"
     stroke-width="8"
     id="path1607" />
  <rect
     width="170"
     height="11.9942"
     transform="matrix(-0.938191 0.346117 0 -1 293.158 420.17)"
     fill="white"
     id="rect1609" />
  <rect
     width="151.193"
     height="10.6588"
     transform="matrix(0 -1 0.938191 -0.346117 133 627.971)"
     fill="white"
     id="rect1611" />
  <path
     d="M336.315 413.806C336.315 391.439 353.327 367.03 374.312 359.288C395.297 351.547 412.308 363.403 412.308 385.771V388.271L336.315 416.306V413.806Z"
     stroke="#310686"
     stroke-width="8"
     id="path1613" />
  <path
     d="M476.924 364.433C474.99 397.457 449.79 432.323 418.988 443.686L379.471 458.265C355.637 467.058 336.315 453.591 336.315 428.186V416.306L476.924 364.433Z"
     stroke="#310686"
     stroke-width="8"
     id="path1615" />
  <path
     d="M704.086 421.628L474.229 506.427C440.031 519.043 412.308 499.722 412.308 463.271V396.271L704.086 288.628V421.628Z"
     stroke="#310686"
     stroke-width="8"
     id="path1617" />
  <path
     d="M341.237 400.038L407.386 375.634C407.386 375.634 407.874 380.573 408.087 383.791C408.438 389.121 408.556 397.644 408.556 397.644L340.068 422.911C340.068 422.911 340.26 415.136 340.537 410.114C340.753 406.192 341.237 400.038 341.237 400.038Z"
     fill="white"
     id="path1619" />
  <path
     d="M415.21 372.542L473.291 351.115C473.291 351.115 473.291 359.885 473.204 365.179C473.112 370.779 471.187 379.955 471.187 379.955L416.061 400.292C416.061 400.292 416.273 390.943 416.061 385.091C415.881 380.122 415.21 372.542 415.21 372.542Z"
     fill="white"
     id="path1621" />
  <rect
     width="133.626"
     height="9.42083"
     transform="matrix(0 -1 0.938191 -0.346117 699 419.504)"
     fill="white"
     id="rect1623" />
  <path
     d="m 480.796,361.004 219.537,-75.78 1.85793,25.76091 L 478.962,377.149 c 0,0 0.624,-3.334 0.896,-5.459 0.267,-2.085 0.938,-10.686 0.938,-10.686 z"
     fill="#ffffff"
     id="path1625"
     sodipodi:nodetypes="ccccsc" />
  <path
     d="M 282.693,952.41429 377.126,620.25 133.666,710.067 v -12 L 707.839,486.244 v 12 L 383.224,618 442.95581,894.26084 Z"
     fill="#5913e2"
     id="path1627"
     sodipodi:nodetypes="ccccccccc" />
  <line
     y1="-1.5"
     x2="48"
     y2="-1.5"
     transform="matrix(4.78446e-08 -1 0.938191 -0.346117 146.8 679.222)"
     stroke="#5C09FF"
     stroke-width="3"
     id="line1629" />
  <line
     y1="-1.5"
     x2="48"
     y2="-1.5"
     transform="matrix(4.78446e-08 -1 0.938191 -0.346117 146.8 679.222)"
     stroke="#5C09FF"
     stroke-width="3"
     id="line1631" />
  <line
     y1="-1.5"
     x2="48"
     y2="-1.5"
     transform="matrix(4.78446e-08 -1 0.938191 -0.346117 164.626 672.646)"
     stroke="#5C09FF"
     stroke-width="3"
     id="line1633" />
  <line
     y1="-1.5"
     x2="48"
     y2="-1.5"
     transform="matrix(4.78446e-08 -1 0.938191 -0.346117 164.626 672.646)"
     stroke="#5C09FF"
     stroke-width="3"
     id="line1635" />
  <line
     y1="-1.5"
     x2="48"
     y2="-1.5"
     transform="matrix(4.78446e-08 -1 0.938191 -0.346117 182.452 666.069)"
     stroke="#5C09FF"
     stroke-width="3"
     id="line1637" />
  <line
     y1="-1.5"
     x2="48"
     y2="-1.5"
     transform="matrix(4.78446e-08 -1 0.938191 -0.346117 182.452 666.069)"
     stroke="#5C09FF"
     stroke-width="3"
     id="line1639" />
  <line
     y1="-1.5"
     x2="48"
     y2="-1.5"
     transform="matrix(4.78446e-08 -1 0.938191 -0.346117 200.277 659.493)"
     stroke="#5C09FF"
     stroke-width="3"
     id="line1641" />
  <line
     y1="-1.5"
     x2="48"
     y2="-1.5"
     transform="matrix(4.78446e-08 -1 0.938191 -0.346117 200.277 659.493)"
     stroke="#5C09FF"
     stroke-width="3"
     id="line1643" />
  <line
     y1="-1.5"
     x2="48"
     y2="-1.5"
     transform="matrix(4.78446e-08 -1 0.938191 -0.346117 218.103 652.917)"
     stroke="#5C09FF"
     stroke-width="3"
     id="line1645" />
  <line
     y1="-1.5"
     x2="48"
     y2="-1.5"
     transform="matrix(4.78446e-08 -1 0.938191 -0.346117 218.103 652.917)"
     stroke="#5C09FF"
     stroke-width="3"
     id="line1647" />
  <line
     y1="-1.5"
     x2="48"
     y2="-1.5"
     transform="matrix(4.78446e-08 -1 0.938191 -0.346117 235.928 646.341)"
     stroke="#5C09FF"
     stroke-width="3"
     id="line1649" />
  <line
     y1="-1.5"
     x2="48"
     y2="-1.5"
     transform="matrix(4.78446e-08 -1 0.938191 -0.346117 235.928 646.341)"
     stroke="#5C09FF"
     stroke-width="3"
     id="line1651" />
  <line
     y1="-1.5"
     x2="51"
     y2="-1.5"
     transform="matrix(4.78446e-08 -1 0.938191 -0.346117 253.754 639.764)"
     stroke="#5C09FF"
     stroke-width="3"
     id="line1653" />
  <line
     y1="-1.5"
     x2="51"
     y2="-1.5"
     transform="matrix(4.78446e-08 -1 0.938191 -0.346117 253.754 639.764)"
     stroke="#5C09FF"
     stroke-width="3"
     id="line1655" />
  <line
     y1="-1.5"
     x2="60"
     y2="-1.5"
     transform="matrix(4.78446e-08 -1 0.938191 -0.346117 271.58 633.188)"
     stroke="#5C09FF"
     stroke-width="3"
     id="line1657" />
  <line
     y1="-1.5"
     x2="60"
     y2="-1.5"
     transform="matrix(4.78446e-08 -1 0.938191 -0.346117 271.58 633.188)"
     stroke="#5C09FF"
     stroke-width="3"
     id="line1659" />
  <line
     y1="-1.5"
     x2="79"
     y2="-1.5"
     transform="matrix(4.78446e-08 -1 0.938191 -0.346117 289.405 626.612)"
     stroke="#5C09FF"
     stroke-width="3"
     id="line1661" />
  <line
     y1="-1.5"
     x2="79"
     y2="-1.5"
     transform="matrix(4.78446e-08 -1 0.938191 -0.346117 289.405 626.612)"
     stroke="#5C09FF"
     stroke-width="3"
     id="line1663" />
  <line
     y1="-1.5"
     x2="295"
     y2="-1.5"
     transform="matrix(4.78446e-08 -1 0.938191 -0.346117 307.231 620.036)"
     stroke="#5C09FF"
     stroke-width="3"
     id="line1665" />
  <line
     y1="-1.5"
     x2="295"
     y2="-1.5"
     transform="matrix(4.78446e-08 -1 0.938191 -0.346117 307.231 620.036)"
     stroke="#5C09FF"
     stroke-width="3"
     id="line1667" />
  <line
     y1="-1.5"
     x2="317"
     y2="-1.5"
     transform="matrix(4.78446e-08 -1 0.938191 -0.346117 325.057 613.459)"
     stroke="#5C09FF"
     stroke-width="3"
     id="line1669" />
  <line
     y1="-1.5"
     x2="317"
     y2="-1.5"
     transform="matrix(4.78446e-08 -1 0.938191 -0.346117 325.057 613.459)"
     stroke="#5C09FF"
     stroke-width="3"
     id="line1671" />
  <line
     y1="-1.5"
     x2="325.014"
     y2="-1.5"
     transform="matrix(-0.0086333 -0.996773 0.938152 -0.355305 342.882 606.883)"
     stroke="#5C09FF"
     stroke-width="3"
     id="line1673" />
  <line
     y1="-1.5"
     x2="325.014"
     y2="-1.5"
     transform="matrix(-0.0086333 -0.996773 0.938152 -0.355305 342.882 606.883)"
     stroke="#5C09FF"
     stroke-width="3"
     id="line1675" />
  <line
     y1="-1.5"
     x2="328"
     y2="-1.5"
     transform="matrix(4.78446e-08 -1 0.938191 -0.346117 360.708 600.307)"
     stroke="#5C09FF"
     stroke-width="3"
     id="line1677" />
  <line
     y1="-1.5"
     x2="328"
     y2="-1.5"
     transform="matrix(4.78446e-08 -1 0.938191 -0.346117 360.708 600.307)"
     stroke="#5C09FF"
     stroke-width="3"
     id="line1679" />
  <line
     y1="-1.5"
     x2="328"
     y2="-1.5"
     transform="matrix(4.78446e-08 -1 0.938191 -0.346117 378.533 593.731)"
     stroke="#5C09FF"
     stroke-width="3"
     id="line1681" />
  <line
     y1="-1.5"
     x2="328"
     y2="-1.5"
     transform="matrix(4.78446e-08 -1 0.938191 -0.346117 378.533 593.731)"
     stroke="#5C09FF"
     stroke-width="3"
     id="line1683" />
  <line
     y1="-1.5"
     x2="328"
     y2="-1.5"
     transform="matrix(4.78446e-08 -1 0.938191 -0.346117 396.359 587.155)"
     stroke="#5C09FF"
     stroke-width="3"
     id="line1685" />
  <line
     y1="-1.5"
     x2="328"
     y2="-1.5"
     transform="matrix(4.78446e-08 -1 0.938191 -0.346117 396.359 587.155)"
     stroke="#5C09FF"
     stroke-width="3"
     id="line1687" />
  <line
     y1="-1.5"
     x2="328"
     y2="-1.5"
     transform="matrix(4.78446e-08 -1 0.938191 -0.346117 414.185 580.578)"
     stroke="#5C09FF"
     stroke-width="3"
     id="line1689" />
  <line
     y1="-1.5"
     x2="328"
     y2="-1.5"
     transform="matrix(4.78446e-08 -1 0.938191 -0.346117 414.185 580.578)"
     stroke="#5C09FF"
     stroke-width="3"
     id="line1691" />
  <line
     y1="-1.5"
     x2="327"
     y2="-1.5"
     transform="matrix(4.78446e-08 -1 0.938191 -0.346117 432.01 574.002)"
     stroke="#5C09FF"
     stroke-width="3"
     id="line1693" />
  <line
     y1="-1.5"
     x2="327"
     y2="-1.5"
     transform="matrix(4.78446e-08 -1 0.938191 -0.346117 432.01 574.002)"
     stroke="#5C09FF"
     stroke-width="3"
     id="line1695" />
  <line
     y1="-1.5"
     x2="318"
     y2="-1.5"
     transform="matrix(4.78446e-08 -1 0.938191 -0.346117 449.836 567.426)"
     stroke="#5C09FF"
     stroke-width="3"
     id="line1697" />
  <line
     y1="-1.5"
     x2="318"
     y2="-1.5"
     transform="matrix(4.78446e-08 -1 0.938191 -0.346117 449.836 567.426)"
     stroke="#5C09FF"
     stroke-width="3"
     id="line1699" />
  <line
     y1="-1.5"
     x2="299"
     y2="-1.5"
     transform="matrix(4.78446e-08 -1 0.938191 -0.346117 467.662 560.85)"
     stroke="#5C09FF"
     stroke-width="3"
     id="line1701" />
  <line
     y1="-1.5"
     x2="299"
     y2="-1.5"
     transform="matrix(4.78446e-08 -1 0.938191 -0.346117 467.662 560.85)"
     stroke="#5C09FF"
     stroke-width="3"
     id="line1703" />
  <line
     y1="-1.5"
     x2="48"
     y2="-1.5"
     transform="matrix(4.78446e-08 -1 0.938191 -0.346117 485.487 554.273)"
     stroke="#5C09FF"
     stroke-width="3"
     id="line1705" />
  <line
     y1="-1.5"
     x2="48"
     y2="-1.5"
     transform="matrix(4.78446e-08 -1 0.938191 -0.346117 485.487 554.273)"
     stroke="#5C09FF"
     stroke-width="3"
     id="line1707" />
  <line
     y1="-1.5"
     x2="48"
     y2="-1.5"
     transform="matrix(4.78446e-08 -1 0.938191 -0.346117 503.313 547.697)"
     stroke="#5C09FF"
     stroke-width="3"
     id="line1709" />
  <line
     y1="-1.5"
     x2="48"
     y2="-1.5"
     transform="matrix(4.78446e-08 -1 0.938191 -0.346117 503.313 547.697)"
     stroke="#5C09FF"
     stroke-width="3"
     id="line1711" />
  <line
     y1="-1.5"
     x2="48"
     y2="-1.5"
     transform="matrix(4.78446e-08 -1 0.938191 -0.346117 521.139 541.121)"
     stroke="#5C09FF"
     stroke-width="3"
     id="line1713" />
  <line
     y1="-1.5"
     x2="48"
     y2="-1.5"
     transform="matrix(4.78446e-08 -1 0.938191 -0.346117 521.139 541.121)"
     stroke="#5C09FF"
     stroke-width="3"
     id="line1715" />
  <line
     y1="-1.5"
     x2="48"
     y2="-1.5"
     transform="matrix(4.78446e-08 -1 0.938191 -0.346117 538.964 534.545)"
     stroke="#5C09FF"
     stroke-width="3"
     id="line1717" />
  <line
     y1="-1.5"
     x2="48"
     y2="-1.5"
     transform="matrix(4.78446e-08 -1 0.938191 -0.346117 538.964 534.545)"
     stroke="#5C09FF"
     stroke-width="3"
     id="line1719" />
  <line
     y1="-1.5"
     x2="48"
     y2="-1.5"
     transform="matrix(4.78446e-08 -1 0.938191 -0.346117 556.79 527.969)"
     stroke="#5C09FF"
     stroke-width="3"
     id="line1721" />
  <line
     y1="-1.5"
     x2="48"
     y2="-1.5"
     transform="matrix(4.78446e-08 -1 0.938191 -0.346117 556.79 527.969)"
     stroke="#5C09FF"
     stroke-width="3"
     id="line1723" />
  <line
     y1="-1.5"
     x2="48"
     y2="-1.5"
     transform="matrix(4.78446e-08 -1 0.938191 -0.346117 574.615 521.392)"
     stroke="#5C09FF"
     stroke-width="3"
     id="line1725" />
  <line
     y1="-1.5"
     x2="48"
     y2="-1.5"
     transform="matrix(4.78446e-08 -1 0.938191 -0.346117 574.615 521.392)"
     stroke="#5C09FF"
     stroke-width="3"
     id="line1727" />
  <line
     y1="-1.5"
     x2="48"
     y2="-1.5"
     transform="matrix(4.78446e-08 -1 0.938191 -0.346117 592.441 514.816)"
     stroke="#5C09FF"
     stroke-width="3"
     id="line1729" />
  <line
     y1="-1.5"
     x2="48"
     y2="-1.5"
     transform="matrix(4.78446e-08 -1 0.938191 -0.346117 592.441 514.816)"
     stroke="#5C09FF"
     stroke-width="3"
     id="line1731" />
  <line
     y1="-1.5"
     x2="48"
     y2="-1.5"
     transform="matrix(4.78446e-08 -1 0.938191 -0.346117 610.267 508.24)"
     stroke="#5C09FF"
     stroke-width="3"
     id="line1733" />
  <line
     y1="-1.5"
     x2="48"
     y2="-1.5"
     transform="matrix(4.78446e-08 -1 0.938191 -0.346117 610.267 508.24)"
     stroke="#5C09FF"
     stroke-width="3"
     id="line1735" />
  <line
     y1="-1.5"
     x2="48"
     y2="-1.5"
     transform="matrix(4.78446e-08 -1 0.938191 -0.346117 628.093 501.664)"
     stroke="#5C09FF"
     stroke-width="3"
     id="line1737" />
  <line
     y1="-1.5"
     x2="48"
     y2="-1.5"
     transform="matrix(4.78446e-08 -1 0.938191 -0.346117 628.093 501.664)"
     stroke="#5C09FF"
     stroke-width="3"
     id="line1739" />
  <line
     y1="-1.5"
     x2="48"
     y2="-1.5"
     transform="matrix(4.78446e-08 -1 0.938191 -0.346117 645.918 495.087)"
     stroke="#5C09FF"
     stroke-width="3"
     id="line1741" />
  <line
     y1="-1.5"
     x2="48"
     y2="-1.5"
     transform="matrix(4.78446e-08 -1 0.938191 -0.346117 645.918 495.087)"
     stroke="#5C09FF"
     stroke-width="3"
     id="line1743" />
  <line
     y1="-1.5"
     x2="48"
     y2="-1.5"
     transform="matrix(4.78446e-08 -1 0.938191 -0.346117 628.093 500.664)"
     stroke="#5C09FF"
     stroke-width="3"
     id="line1745" />
  <line
     y1="-1.5"
     x2="48"
     y2="-1.5"
     transform="matrix(4.78446e-08 -1 0.938191 -0.346117 628.093 500.664)"
     stroke="#5C09FF"
     stroke-width="3"
     id="line1747" />
  <line
     y1="-1.5"
     x2="48"
     y2="-1.5"
     transform="matrix(4.78446e-08 -1 0.938191 -0.346117 663.744 488.511)"
     stroke="#5C09FF"
     stroke-width="3"
     id="line1749" />
  <line
     y1="-1.5"
     x2="48"
     y2="-1.5"
     transform="matrix(4.78446e-08 -1 0.938191 -0.346117 663.744 488.511)"
     stroke="#5C09FF"
     stroke-width="3"
     id="line1751" />
  <line
     y1="-1.5"
     x2="48"
     y2="-1.5"
     transform="matrix(4.78446e-08 -1 0.938191 -0.346117 681.569 481.935)"
     stroke="#5C09FF"
     stroke-width="3"
     id="line1753" />
  <line
     y1="-1.5"
     x2="48"
     y2="-1.5"
     transform="matrix(4.78446e-08 -1 0.938191 -0.346117 681.569 481.935)"
     stroke="#5C09FF"
     stroke-width="3"
     id="line1755" />
  <line
     y1="-1.5"
     x2="48"
     y2="-1.5"
     transform="matrix(4.78446e-08 -1 0.938191 -0.346117 699.395 475.359)"
     stroke="#5C09FF"
     stroke-width="3"
     id="line1757" />
  <line
     y1="-1.5"
     x2="48"
     y2="-1.5"
     transform="matrix(4.78446e-08 -1 0.938191 -0.346117 699.395 475.359)"
     stroke="#5C09FF"
     stroke-width="3"
     id="line1759" />
  <path
     d="M447.021 362.464L449.836 361.426V418.084C449.836 418.084 449.551 418.399 449.367 418.599C448.468 419.577 447.021 421.05 447.021 421.05V362.464Z"
     fill="#5C09FF"
     id="path1761" />
  <path
     d="M429.196 369.041L432.01 368.002V433.212C432.01 433.212 431.442 433.612 431.072 433.848C430.35 434.311 429.196 434.913 429.196 434.913V369.041Z"
     fill="#5C09FF"
     id="path1763" />
  <path
     d="M357.893 373.802C357.893 373.802 358.711 373.027 359.301 372.447C359.826 371.929 360.708 371.307 360.708 371.307V456.129C360.708 456.129 359.841 455.966 359.301 455.826C358.74 455.681 357.893 455.396 357.893 455.396V373.802Z"
     fill="#5C09FF"
     id="path1765" />
  <path
     d="M375.719 362.8C375.719 362.8 376.291 362.549 376.657 362.423C377.397 362.169 378.534 362.004 378.534 362.004V454.602C378.534 454.602 378.769 454.501 378.4 454.651C377.659 454.953 375.719 455.471 375.719 455.471V362.8Z"
     fill="#5C09FF"
     id="path1767" />
  <path
     d="M393.545 362.193C393.545 362.193 393.78 362.246 394.483 362.482C395.238 362.736 396.359 363.229 396.359 363.229V448.034C396.359 448.034 396.249 448.075 395.89 448.207C395.149 448.481 393.545 449.073 393.545 449.073V362.193Z"
     fill="#5C09FF"
     id="path1769" />
  <path
     d="M340.068 405.899C340.068 405.899 340.166 404.993 340.537 404.314C340.689 404.035 341.006 403.076 341.006 403.076L341.006 435.576C341.006 435.576 340.132 431.659 340.068 428.922C340.054 428.342 340.068 427.422 340.068 427.422V427.421V405.899Z"
     fill="#5C09FF"
     id="path1771" />
  <path
     d="M464.847 355.888L467.662 354.85V389.553C467.662 389.553 467.15 391.172 466.724 392.196C466.11 393.669 464.847 395.888 464.847 395.888V355.888Z"
     fill="#5C09FF"
     id="path1773" />
  <line
     x1="253.422"
     y1="639.546"
     x2="474.847"
     y2="321.845"
     stroke="#5C09FF"
     id="line1775" />
  <line
     x1="253.422"
     y1="639.546"
     x2="474.847"
     y2="321.845"
     stroke="#5C09FF"
     id="line1777" />
  <line
     x1="295.913"
     y1="463.858"
     x2="446.023"
     y2="248.479"
     stroke="#5C09FF"
     id="line1779" />
  <line
     x1="295.913"
     y1="463.858"
     x2="446.023"
     y2="248.479"
     stroke="#5C09FF"
     id="line1781" />
  <line
     x1="146.468"
     y1="678.281"
     x2="192.44"
     y2="612.321"
     stroke="#5C09FF"
     id="line1783" />
  <line
     x1="146.468"
     y1="678.281"
     x2="192.44"
     y2="612.321"
     stroke="#5C09FF"
     id="line1785" />
  <line
     x1="271.248"
     y1="632.973"
     x2="473.912"
     y2="342.19"
     stroke="#5C09FF"
     id="line1787" />
  <line
     x1="271.248"
     y1="632.973"
     x2="473.912"
     y2="342.19"
     stroke="#5C09FF"
     id="line1789" />
  <line
     x1="289.073"
     y1="626.397"
     x2="475.773"
     y2="358.519"
     stroke="#5C09FF"
     id="line1791" />
  <line
     x1="289.073"
     y1="626.397"
     x2="475.773"
     y2="358.519"
     stroke="#5C09FF"
     id="line1793" />
  <line
     x1="306.899"
     y1="619.805"
     x2="474.835"
     y2="378.85"
     stroke="#5C09FF"
     id="line1795" />
  <line
     x1="306.899"
     y1="619.805"
     x2="474.835"
     y2="378.85"
     stroke="#5C09FF"
     id="line1797" />
  <line
     x1="324.725"
     y1="613.228"
     x2="466.392"
     y2="409.965"
     stroke="#5C09FF"
     id="line1799" />
  <line
     x1="324.725"
     y1="613.228"
     x2="466.392"
     y2="409.965"
     stroke="#5C09FF"
     id="line1801" />
  <line
     x1="342.55"
     y1="606.652"
     x2="465.453"
     y2="430.311"
     stroke="#5C09FF"
     id="line1803" />
  <line
     x1="342.55"
     y1="606.652"
     x2="465.453"
     y2="430.311"
     stroke="#5C09FF"
     id="line1805" />
  <line
     x1="360.376"
     y1="600.076"
     x2="465.453"
     y2="449.311"
     stroke="#5C09FF"
     id="line1807" />
  <line
     x1="360.376"
     y1="600.076"
     x2="465.453"
     y2="449.311"
     stroke="#5C09FF"
     id="line1809" />
  <line
     x1="378.202"
     y1="593.5"
     x2="466.392"
     y2="466.965"
     stroke="#5C09FF"
     id="line1811" />
  <line
     x1="378.202"
     y1="593.5"
     x2="466.392"
     y2="466.965"
     stroke="#5C09FF"
     id="line1813" />
  <line
     x1="396.027"
     y1="586.923"
     x2="466.392"
     y2="485.965"
     stroke="#5C09FF"
     id="line1815" />
  <line
     x1="396.027"
     y1="586.923"
     x2="466.392"
     y2="485.965"
     stroke="#5C09FF"
     id="line1817" />
  <line
     x1="413.853"
     y1="580.347"
     x2="464.515"
     y2="507.657"
     stroke="#5C09FF"
     id="line1819" />
  <line
     x1="413.853"
     y1="580.347"
     x2="464.515"
     y2="507.657"
     stroke="#5C09FF"
     id="line1821" />
  <line
     x1="431.679"
     y1="573.771"
     x2="482.341"
     y2="501.081"
     stroke="#5C09FF"
     id="line1823" />
  <line
     x1="431.679"
     y1="573.771"
     x2="482.341"
     y2="501.081"
     stroke="#5C09FF"
     id="line1825" />
  <line
     x1="449.504"
     y1="567.195"
     x2="500.166"
     y2="494.505"
     stroke="#5C09FF"
     id="line1827" />
  <line
     x1="449.504"
     y1="567.195"
     x2="500.166"
     y2="494.505"
     stroke="#5C09FF"
     id="line1829" />
  <line
     x1="467.33"
     y1="560.619"
     x2="517.992"
     y2="487.928"
     stroke="#5C09FF"
     id="line1831" />
  <line
     x1="467.33"
     y1="560.619"
     x2="517.992"
     y2="487.928"
     stroke="#5C09FF"
     id="line1833" />
  <line
     x1="485.155"
     y1="554.042"
     x2="535.818"
     y2="481.352"
     stroke="#5C09FF"
     id="line1835" />
  <line
     x1="485.155"
     y1="554.042"
     x2="535.818"
     y2="481.352"
     stroke="#5C09FF"
     id="line1837" />
  <line
     x1="502.981"
     y1="547.466"
     x2="553.643"
     y2="474.776"
     stroke="#5C09FF"
     id="line1839" />
  <line
     x1="502.981"
     y1="547.466"
     x2="553.643"
     y2="474.776"
     stroke="#5C09FF"
     id="line1841" />
  <line
     x1="520.807"
     y1="540.89"
     x2="571.469"
     y2="468.2"
     stroke="#5C09FF"
     id="line1843" />
  <line
     x1="520.807"
     y1="540.89"
     x2="571.469"
     y2="468.2"
     stroke="#5C09FF"
     id="line1845" />
  <line
     x1="538.632"
     y1="534.314"
     x2="589.295"
     y2="461.623"
     stroke="#5C09FF"
     id="line1847" />
  <line
     x1="538.632"
     y1="534.314"
     x2="589.295"
     y2="461.623"
     stroke="#5C09FF"
     id="line1849" />
  <line
     x1="556.458"
     y1="527.738"
     x2="607.12"
     y2="455.047"
     stroke="#5C09FF"
     id="line1851" />
  <line
     x1="556.458"
     y1="527.738"
     x2="607.12"
     y2="455.047"
     stroke="#5C09FF"
     id="line1853" />
  <line
     x1="574.284"
     y1="521.161"
     x2="624.946"
     y2="448.471"
     stroke="#5C09FF"
     id="line1855" />
  <line
     x1="574.284"
     y1="521.161"
     x2="624.946"
     y2="448.471"
     stroke="#5C09FF"
     id="line1857" />
  <line
     x1="592.109"
     y1="514.585"
     x2="642.772"
     y2="441.895"
     stroke="#5C09FF"
     id="line1859" />
  <line
     x1="592.109"
     y1="514.585"
     x2="642.772"
     y2="441.895"
     stroke="#5C09FF"
     id="line1861" />
  <line
     x1="609.935"
     y1="508.009"
     x2="660.597"
     y2="435.318"
     stroke="#5C09FF"
     id="line1863" />
  <line
     x1="609.935"
     y1="508.009"
     x2="660.597"
     y2="435.318"
     stroke="#5C09FF"
     id="line1865" />
  <line
     x1="627.761"
     y1="501.433"
     x2="678.423"
     y2="428.742"
     stroke="#5C09FF"
     id="line1867" />
  <line
     x1="627.761"
     y1="501.433"
     x2="678.423"
     y2="428.742"
     stroke="#5C09FF"
     id="line1869" />
  <line
     x1="645.586"
     y1="494.856"
     x2="696.248"
     y2="422.166"
     stroke="#5C09FF"
     id="line1871" />
  <line
     x1="645.586"
     y1="494.856"
     x2="696.248"
     y2="422.166"
     stroke="#5C09FF"
     id="line1873" />
  <line
     x1="164.294"
     y1="672.169"
     x2="213.08"
     y2="602.171"
     stroke="#5C09FF"
     id="line1875" />
  <line
     x1="164.294"
     y1="672.169"
     x2="213.08"
     y2="602.171"
     stroke="#5C09FF"
     id="line1877" />
  <line
     x1="296.349"
     y1="482.697"
     x2="456.78"
     y2="252.511"
     stroke="#5C09FF"
     id="line1879" />
  <line
     x1="296.349"
     y1="482.697"
     x2="456.78"
     y2="252.511"
     stroke="#5C09FF"
     id="line1881" />
  <path
     d="M295.74 502.523L463.676 261.568"
     stroke="#5C09FF"
     id="path1883" />
  <path
     d="M295.74 502.523L463.676 261.568"
     stroke="#5C09FF"
     id="path1885" />
  <path
     d="M182.451 665.321L231.237 595.323"
     stroke="#5C09FF"
     id="path1887" />
  <path
     d="M182.451 665.321L231.237 595.323"
     stroke="#5C09FF"
     id="path1889" />
  <line
     x1="293.529"
     y1="524.737"
     x2="471.786"
     y2="268.975"
     stroke="#5C09FF"
     id="line1891" />
  <line
     x1="293.529"
     y1="524.737"
     x2="471.786"
     y2="268.975"
     stroke="#5C09FF"
     id="line1893" />
  <line
     x1="299.9"
     y1="381.386"
     x2="384.338"
     y2="260.236"
     stroke="#5C09FF"
     id="line1895" />
  <line
     x1="299.9"
     y1="381.386"
     x2="384.338"
     y2="260.236"
     stroke="#5C09FF"
     id="line1897" />
  <line
     x1="297.517"
     y1="365.266"
     x2="366.005"
     y2="266.999"
     stroke="#5C09FF"
     id="line1899" />
  <line
     x1="297.517"
     y1="365.266"
     x2="366.005"
     y2="266.999"
     stroke="#5C09FF"
     id="line1901" />
  <line
     x1="298.455"
     y1="343.92"
     x2="345.365"
     y2="276.614"
     stroke="#5C09FF"
     id="line1903" />
  <line
     x1="298.455"
     y1="343.92"
     x2="345.365"
     y2="276.614"
     stroke="#5C09FF"
     id="line1905" />
  <line
     x1="300.337"
     y1="400.226"
     x2="403.538"
     y2="252.153"
     stroke="#5C09FF"
     id="line1907" />
  <line
     x1="300.337"
     y1="400.226"
     x2="403.538"
     y2="252.153"
     stroke="#5C09FF"
     id="line1909" />
  <path
     d="M299.727 420.052L421.692 245.057"
     stroke="#5C09FF"
     id="path1911" />
  <path
     d="M299.727 420.052L421.692 245.057"
     stroke="#5C09FF"
     id="path1913" />
  <line
     x1="297.517"
     y1="442.266"
     x2="435.431"
     y2="244.387"
     stroke="#5C09FF"
     id="line1915" />
  <line
     x1="297.517"
     y1="442.266"
     x2="435.431"
     y2="244.387"
     stroke="#5C09FF"
     id="line1917" />
  <line
     x1="199.945"
     y1="659.011"
     x2="249.669"
     y2="587.667"
     stroke="#5C09FF"
     id="line1919" />
  <line
     x1="199.945"
     y1="659.011"
     x2="249.669"
     y2="587.667"
     stroke="#5C09FF"
     id="line1921" />
  <line
     x1="217.771"
     y1="651.999"
     x2="475.129"
     y2="282.742"
     stroke="#5C09FF"
     id="line1923" />
  <line
     x1="217.771"
     y1="651.999"
     x2="475.129"
     y2="282.742"
     stroke="#5C09FF"
     id="line1925" />
  <line
     x1="235.597"
     y1="645.937"
     x2="475.611"
     y2="301.564"
     stroke="#5C09FF"
     id="line1927" />
  <line
     x1="235.597"
     y1="645.937"
     x2="475.611"
     y2="301.564"
     stroke="#5C09FF"
     id="line1929" />
  <path
     d="M662.805 488.313L707.838 423.744L707.847 425.102L663.469 488.776L662.805 488.313Z"
     fill="#5C09FF"
     id="path1931" />
  <path
     d="M680.631 481.259L707.838 442.244L707.834 443.642L681.294 481.722L680.631 481.259Z"
     fill="#5C09FF"
     id="path1933" />
  <path
     d="M698.457 474.694L707.838 461.244L707.844 462.639L699.12 475.157L698.457 474.694Z"
     fill="#5C09FF"
     id="path1935" />
  <path
     d="M173.069 621.53L173.953 621.205L133.665 679.067L133.665 678.068L173.069 621.53Z"
     fill="#5C09FF"
     id="path1937" />
  <path
     d="M155.244 628.107L156.097 627.795L133.666 660.067L133.461 659.361L155.244 628.107Z"
     fill="#5C09FF"
     id="path1939" />
  <path
     d="M138.356 634.337L139.163 634.044L133.665 642.067L133.315 641.57L138.356 634.337Z"
     fill="#5C09FF"
     id="path1941" />
  <path
     d="M133.665 671.583L145.057 679.316L144.393 680.267L133.66 672.786L133.665 671.583Z"
     fill="#5C09FF"
     id="path1943" />
  <path
     d="M133.662 652.581L162.51 672.48L161.847 673.432L133.665 654.083L133.662 652.581Z"
     fill="#5C09FF"
     id="path1945" />
  <path
     d="M136.148 635.168L180.608 665.947L179.944 666.899L135.073 635.564L136.148 635.168Z"
     fill="#5C09FF"
     id="path1947" />
  <path
     d="M153.835 628.641L198.385 659.484L197.722 660.436L152.758 629.037L153.835 628.641Z"
     fill="#5C09FF"
     id="path1949" />
  <path
     d="M171.658 622.063L216.033 652.783L215.369 653.735L170.584 622.461L171.658 622.063Z"
     fill="#5C09FF"
     id="path1951" />
  <path
     d="M189.482 615.485L233.85 646.201L233.187 647.153L188.407 615.883L189.482 615.485Z"
     fill="#5C09FF"
     id="path1953" />
  <path
     d="M207.312 608.912L251.889 639.773L251.226 640.725L206.235 609.308L207.312 608.912Z"
     fill="#5C09FF"
     id="path1955" />
  <path
     d="M225.135 602.334L269.715 633.197L269.051 634.149L224.058 602.73L225.135 602.334Z"
     fill="#5C09FF"
     id="path1957" />
  <path
     d="M242.466 595.413L287.54 626.621L286.877 627.573L241.383 595.805L242.466 595.413Z"
     fill="#5C09FF"
     id="path1959" />
  <path
     d="M256.975 586.527L305.366 620.046L304.702 620.998L255.852 586.89L256.975 586.527Z"
     fill="#5C09FF"
     id="path1961" />
  <path
     d="M269.234 576.069L322.998 613.334L322.335 614.285L267.825 576.234L269.234 576.069Z"
     fill="#5C09FF"
     id="path1963" />
  <path
     d="M279.045 563.906L340.854 606.778L340.19 607.73L277.505 563.98L279.045 563.906Z"
     fill="#5C09FF"
     id="path1965" />
  <path
     d="M288.361 551.322L358.794 600.173L358.031 601.268L286.6 551.414L288.361 551.322Z"
     fill="#5C09FF"
     id="path1967" />
  <path
     d="M294.436 536.552L376.643 593.609L375.88 594.704L292.485 536.511L294.436 536.552Z"
     fill="#5C09FF"
     id="path1969" />
  <path
     d="M298.998 520.73L394.429 587.004L393.665 588.099L296.831 520.54L298.998 520.73Z"
     fill="#5C09FF"
     id="path1971" />
  <path
     d="M300.594 502.84L412.366 580.503L411.603 581.598L298.163 502.465L300.594 502.84Z"
     fill="#5C09FF"
     id="path1973" />
  <path
     d="M300.598 483.844L429.911 573.731L429.148 574.827L297.882 483.27L300.598 483.844Z"
     fill="#5C09FF"
     id="path1975" />
  <path
     d="M297.014 462.916L447.862 567.6L447.199 568.552L296.617 463.603L297.014 462.916Z"
     fill="#5C09FF"
     id="path1977" />
  <path
     d="M299.556 445.688L465.315 560.764L464.652 561.716L298.309 446.074L299.556 445.688Z"
     fill="#5C09FF"
     id="path1979" />
  <path
     d="M300.258 426.677L483.413 554.229L482.749 555.181L299.163 427.168L300.258 426.677Z"
     fill="#5C09FF"
     id="path1981" />
  <path
     d="M297.822 405.978L501.191 547.767L500.527 548.719L298.456 407.822L297.822 405.978Z"
     fill="#5C09FF"
     id="path1983" />
  <path
     d="M297.311 387.122L518.838 541.067L518.175 542.018L298.221 388.659L297.311 387.122Z"
     fill="#5C09FF"
     id="path1985" />
  <path
     d="M296.424 368.248L466.66 486.444L465.997 487.396L297.025 369.569L296.424 368.248Z"
     fill="#5C09FF"
     id="path1987" />
  <path
     d="M299.99 352.733L466.045 468.016L465.381 468.967L300.566 354.037L299.99 352.733Z"
     fill="#5C09FF"
     id="path1989" />
  <path
     d="M302.053 334.171L467.142 448.78L466.479 449.732L302.623 335.471L302.053 334.171Z"
     fill="#5C09FF"
     id="path1991" />
  <path
     d="M306.323 317.192L465.701 427.821L465.037 428.773L306.859 318.468L306.323 317.192Z"
     fill="#5C09FF"
     id="path1993" />
  <path
     d="M313.515 304.221L465.983 410.034L465.32 410.986L314.009 305.468L313.515 304.221Z"
     fill="#5C09FF"
     id="path1995" />
  <path
     d="M324.256 291.745L466.157 390.193L465.494 391.145L324.687 292.947L324.256 291.745Z"
     fill="#5C09FF"
     id="path1997" />
  <path
     d="M336.276 282.258L475.586 378.9L474.922 379.852L336.69 283.449L336.276 282.258Z"
     fill="#5C09FF"
     id="path1999" />
  <path
     d="M350.445 272.178L474.145 357.941L473.481 358.892L350.766 273.304L350.445 272.178Z"
     fill="#5C09FF"
     id="path2001" />
  <path
     d="M367.731 266.242L473.521 339.523L472.858 340.475L367.943 267.293L367.731 266.242Z"
     fill="#5C09FF"
     id="path2003" />
  <path
     d="M386.735 259.525L474.601 320.313L473.937 321.265L386.84 260.501L386.735 259.525Z"
     fill="#5C09FF"
     id="path2005" />
  <path
     d="M403.067 252.809L475.586 302.901L474.922 303.853L403.079 253.72L403.067 252.809Z"
     fill="#5C09FF"
     id="path2007" />
  <path
     d="M422.968 246.724L474.145 281.941L473.481 282.893L422.852 247.545L422.968 246.724Z"
     fill="#5C09FF"
     id="path2009" />
  <path
     d="M492.287 503.769L536.656 534.485L535.992 535.437L491.213 504.166L492.287 503.769Z"
     fill="#5C09FF"
     id="path2011" />
  <path
     d="M510.117 497.196L554.694 528.057L554.031 529.009L509.04 497.591L510.117 497.196Z"
     fill="#5C09FF"
     id="path2013" />
  <path
     d="M527.94 490.618L572.52 521.481L571.856 522.433L526.863 491.013L527.94 490.618Z"
     fill="#5C09FF"
     id="path2015" />
  <path
     d="M545.272 483.697L590.346 514.904L589.682 515.856L544.188 484.088L545.272 483.697Z"
     fill="#5C09FF"
     id="path2017" />
  <path
     d="M559.781 474.81L608.171 508.329L607.507 509.281L558.657 475.174L559.781 474.81Z"
     fill="#5C09FF"
     id="path2019" />
  <path
     d="M578.544 468.886L625.803 501.617L625.14 502.569L577.24 469.124L578.544 468.886Z"
     fill="#5C09FF"
     id="path2021" />
  <path
     d="M595.274 461.545L643.659 495.061L642.996 496.013L593.952 461.771L595.274 461.545Z"
     fill="#5C09FF"
     id="path2023" />
  <path
     d="M613.648 455.274L661.6 488.456L660.836 489.551L612.253 455.621L613.648 455.274Z"
     fill="#5C09FF"
     id="path2025" />
  <path
     d="M631.854 448.959L679.449 481.892L678.686 482.988L630.464 449.309L631.854 448.959Z"
     fill="#5C09FF"
     id="path2027" />
  <path
     d="M648.686 441.689L697.234 475.287L696.47 476.382L647.281 442.029L648.686 441.689Z"
     fill="#5C09FF"
     id="path2029" />
  <path
     d="M666.101 434.824L707.845 463.68L707.838 464.744L664.806 435.241L666.101 434.824Z"
     fill="#5C09FF"
     id="path2031" />
  <path
     d="M685.273 429.187L707.842 444.679L707.839 445.744L684.29 429.821L685.273 429.187Z"
     fill="#5C09FF"
     id="path2033" />
  <line
     y1="-1.5"
     x2="69"
     y2="-1.5"
     transform="matrix(0.938191 -0.346117 0 1 648 564.883)"
     stroke="#310686"
     stroke-width="3"
     id="line2035" />
  <line
     y1="-1.5"
     x2="69"
     y2="-1.5"
     transform="matrix(0.938191 -0.346117 0 1 648 564.883)"
     stroke="#310686"
     stroke-width="3"
     id="line2037" />
  <line
     y1="-1"
     x2="186"
     y2="-1"
     transform="matrix(4.2553e-08 -1 0.938191 -0.346117 697.724 730.539)"
     stroke="#310686"
     stroke-width="2"
     id="line2039" />
  <line
     y1="-1"
     x2="186"
     y2="-1"
     transform="matrix(4.2553e-08 -1 0.938191 -0.346117 697.724 730.539)"
     stroke="#310686"
     stroke-width="2"
     id="line2041" />
  <line
     y1="-1"
     x2="185"
     y2="-1"
     transform="matrix(4.2783e-08 -1 0.938191 -0.346117 685.528 735.038)"
     stroke="#310686"
     stroke-width="2"
     id="line2043" />
  <line
     y1="-1"
     x2="185"
     y2="-1"
     transform="matrix(4.2783e-08 -1 0.938191 -0.346117 685.528 735.038)"
     stroke="#310686"
     stroke-width="2"
     id="line2045" />
  <line
     y1="-1"
     x2="186"
     y2="-1"
     transform="matrix(4.2553e-08 -1 0.938191 -0.346117 673.331 739.538)"
     stroke="#310686"
     stroke-width="2"
     id="line2047" />
  <line
     y1="-1"
     x2="186"
     y2="-1"
     transform="matrix(4.2553e-08 -1 0.938191 -0.346117 673.331 739.538)"
     stroke="#310686"
     stroke-width="2"
     id="line2049" />
  <line
     y1="-1"
     x2="186"
     y2="-1"
     transform="matrix(4.2553e-08 -1 0.938191 -0.346117 661.135 744.037)"
     stroke="#310686"
     stroke-width="2"
     id="line2051" />
  <line
     y1="-1"
     x2="186"
     y2="-1"
     transform="matrix(4.2553e-08 -1 0.938191 -0.346117 661.135 744.037)"
     stroke="#310686"
     stroke-width="2"
     id="line2053" />
  <path
     d="M133.665 628.067L235.928 590.34L244.841 587.052L261.259 576.495L282.369 551.208L290.343 529.266L295.034 511.035L293.158 508.227V357.227L296.911 336.343L306.292 313.382L323.18 290.652L342.882 273.383L357.893 265.345L416.999 243.54L428.257 241.387L446.552 241.637L462.97 249.08L471.883 259.292L476.574 269.062L479.858 280.85L480.796 290.004V361.004L477.043 381.389L469.538 401.157C469.538 401.157 467.326 405.088 465.785 407.542C463.233 411.607 461.71 413.863 458.749 417.638C457.157 419.667 456.234 420.782 454.527 422.695C452.242 425.256 450.896 426.632 448.428 428.945C446.114 431.115 444.76 432.245 442.33 434.195C440.88 435.358 440.054 435.982 438.577 437.079C437.484 437.892 436.876 438.366 435.763 439.118C434.14 440.214 433.199 440.721 431.541 441.675C429.176 443.037 427.837 443.755 425.443 444.925C421.797 446.707 378.533 462.731 378.533 462.731C378.533 462.731 375.668 463.541 373.842 463.961C371.632 464.47 370.381 464.787 368.213 465.038C365.395 465.364 363.83 465.392 361.177 465.134C359.676 464.988 358.864 464.82 357.424 464.518C355.546 464.126 354.463 463.947 352.733 463.249C350.528 462.359 349.519 461.466 347.573 460.153C345.072 458.465 343.581 457.604 341.475 455.402C340.282 454.156 339.656 453.399 338.66 451.941C337.63 450.434 337.121 449.515 336.315 447.806C335.174 445.389 334.675 443.905 333.969 441.171C333.514 439.408 333.307 438.385 333.031 436.518C332.759 434.677 332.562 431.691 332.562 431.691V413.691C332.562 413.691 332.75 410.56 333.031 408.518C333.579 404.524 334.113 402.21 335.376 398.152C336.297 395.195 336.852 393.512 338.191 390.614C338.866 389.154 339.301 388.351 340.067 386.922C341.429 384.383 342.214 382.952 343.82 380.537C345.508 378 346.577 376.649 348.511 374.307C350.266 372.181 351.268 370.986 353.202 369.076C354.619 367.677 355.463 366.964 356.955 365.692C358.752 364.16 359.765 363.292 361.646 361.961C364.145 360.192 365.618 359.401 368.213 358.038C370.035 357.081 371.064 356.559 372.904 355.808C375.839 354.608 377.506 354.142 380.41 353.539C383.968 352.799 385.952 352.647 389.322 352.75C391.778 352.826 393.156 352.926 395.421 353.501C397.352 353.991 398.357 354.44 400.112 355.27C402.045 356.186 403.112 356.752 404.803 358.04C406.863 359.61 407.88 360.703 409.494 362.809C410.726 364.418 411.34 365.409 412.308 367.271C413.14 368.87 413.596 369.788 414.184 371.578C415.074 374.284 415.223 376.041 415.592 379.059C415.91 381.661 416.061 383.146 416.061 385.886C416.061 414.886 416.061 462.886 416.061 462.886C416.061 462.886 416.192 467.121 416.53 469.713C416.799 471.778 417.027 472.898 417.468 474.867C417.794 476.319 417.985 477.13 418.406 478.521C419.393 481.778 420.181 483.455 421.69 486.309C422.844 488.491 423.542 489.68 424.974 491.598C426.157 493.183 426.881 494.016 428.257 495.387C430.571 497.691 432.061 498.767 434.825 500.464C437.412 502.052 438.936 502.861 441.861 503.868C443.976 504.596 445.229 504.88 447.49 505.291C450.333 505.808 451.979 506 454.996 506.022C457.511 506.041 458.961 505.936 461.563 505.599C465.709 505.063 472.352 503.119 472.352 503.119L707.838 416.244V424.244L472.352 511.119C472.352 511.119 465.139 513.29 460.625 513.946C457.842 514.35 456.289 514.497 453.589 514.541C450.779 514.588 449.237 514.473 446.552 514.137C443.726 513.784 442.157 513.517 439.516 512.733C436.625 511.876 435.11 511.168 432.479 509.829C429.578 508.353 427.972 507.456 425.443 505.425C422.805 503.307 421.538 501.829 419.345 499.175C417.78 497.282 416.879 496.231 415.592 494.059C414.308 491.892 413.731 490.541 412.777 488.098C411.926 485.916 411.554 484.612 410.901 482.29C410.505 480.882 410.282 480.092 409.963 478.636C409.492 476.488 409.294 475.241 409.024 472.982C408.692 470.191 408.555 465.655 408.555 465.655V391.655C408.555 391.655 408.393 386.828 408.086 383.828C407.816 381.182 407.848 379.575 407.148 377.174C406.504 374.968 405.884 373.902 404.803 372.04C403.832 370.369 403.25 369.45 401.988 368.078C400.685 366.662 399.753 366.108 398.235 364.962C396.987 364.02 396.375 363.347 394.952 362.674C392.829 361.67 391.324 361.684 388.853 361.424C386.365 361.161 384.93 361.067 382.286 361.346C379.947 361.594 378.593 361.857 376.188 362.596C374.725 363.046 373.898 363.354 372.435 363.981C369.277 365.332 367.481 366.311 364.46 368.423C362.185 370.013 360.953 371.063 358.831 372.999C356.928 374.736 355.861 375.745 354.14 377.73C352.78 379.299 352.079 380.248 350.857 381.941C349.072 384.412 348.086 385.84 346.635 388.499C345.377 390.803 344.791 392.151 343.82 394.537C342.738 397.198 342.019 398.73 341.475 401.402C341.178 402.856 341.163 403.647 341.006 405.076C340.76 407.307 340.536 408.592 340.536 410.749C340.536 417.749 340.536 428.749 340.536 428.749C340.536 428.749 340.528 433.059 341.006 435.576C341.468 438.015 341.969 439.249 342.882 441.383C343.933 443.839 344.599 445.19 346.166 447.172C347.307 448.616 348.082 449.282 349.449 450.46C351.315 452.069 352.407 452.942 354.609 454.057C356.338 454.932 357.375 455.323 359.3 455.826C361.063 456.287 362.111 456.424 363.991 456.596C365.96 456.775 367.084 456.85 369.151 456.692C370.953 456.554 371.995 456.349 373.842 455.961C375.663 455.579 378.533 454.731 378.533 454.731C378.533 454.731 421.507 438.759 424.974 437.098C426.443 436.394 427.27 436.015 428.726 435.214C430.392 434.298 431.317 433.724 432.948 432.656C435.186 431.19 436.411 430.255 438.577 428.579C439.5 427.866 440.019 427.468 440.923 426.714C442.425 425.461 444.676 423.33 444.676 423.33C446.554 421.551 447.599 420.529 449.367 418.599C450.883 416.944 451.697 415.969 453.119 414.215C455.235 411.606 456.393 410.1 458.279 407.311C461.173 403.032 462.553 400.456 464.847 395.888C466.02 393.552 466.718 392.241 467.661 389.85C468.533 387.641 468.855 386.382 469.538 384.157C470.34 381.544 470.784 380.074 471.414 377.465C471.825 375.764 472.048 374.809 472.352 373.119C473.021 369.409 473.291 363.773 473.291 363.773V292.773C473.291 292.773 473.207 287.907 472.821 284.946C472.553 282.881 472.332 281.757 471.883 279.792C471.172 276.679 470.651 274.997 469.538 272.157C468.581 269.717 468.016 268.355 466.723 266.196C465.734 264.543 465.108 263.676 463.909 262.234C462.88 260.997 462.242 260.37 461.094 259.273C460.036 258.26 459.425 257.711 458.279 256.811C457.049 255.845 456.312 255.367 454.996 254.522C453.395 253.495 452.512 252.887 450.774 252.08C448.693 251.113 447.412 250.766 445.145 250.157C441.63 249.211 439.588 248.769 435.763 248.618C431.862 248.464 429.553 248.704 425.443 249.425C422.178 249.998 416.999 251.54 416.999 251.54L357.893 273.345C357.893 273.345 352.134 275.769 348.511 277.807C345.538 279.478 343.887 280.543 341.006 282.576C338.961 284.018 337.819 284.856 335.846 286.479C333.584 288.339 332.354 289.475 330.216 291.556C328.139 293.578 326.993 294.755 325.056 296.959C322.527 299.839 321.222 301.586 318.958 304.709C316.419 308.213 314.997 310.216 312.86 313.959C311.246 316.784 310.474 318.429 309.107 321.343C308.343 322.973 307.923 323.89 307.231 325.536C306.001 328.459 305.374 330.118 304.416 333.074C303.57 335.686 303.144 337.159 302.54 339.766C302.343 340.616 302.071 341.939 302.071 341.939L301.132 342.285L300.663 354.459V505.458C300.663 505.458 300.412 512.3 299.725 516.805C299.084 521.008 298.522 523.412 297.38 527.67C296.433 531.2 295.881 533.195 294.565 536.708C292.385 542.527 290.741 545.781 287.529 551.304C285.039 555.584 283.398 557.87 280.492 561.9C277.202 566.464 275.32 569.046 271.579 573.188C267.133 578.112 268.296 577.399 259.383 584.688C256.179 587.307 254.308 588.649 250.939 590.803C248.049 592.65 246.393 593.588 243.434 595.072C240.519 596.532 235.928 598.34 235.928 598.34L133.665 636.067V628.067Z"
     fill="#310686"
     id="path2055" />
  <path
     d="M435.763 637.619C435.763 634.857 437.864 631.843 440.455 630.888L638.04 558.039C638.991 557.688 639.919 557.654 640.702 557.94L660 565.001L643.505 743.776C643.273 746.288 641.433 748.861 639.15 749.865L458.608 829.293C457.566 829.752 456.53 829.835 455.665 829.529L437.823 823.228C436.535 822.773 435.763 821.507 435.763 819.849V637.619Z"
     fill="#A094E2"
     id="path2057" />
  <path
     d="M453 628.597C453 628.046 453.419 627.444 453.937 627.252L483.187 616.408C483.39 616.333 483.588 616.33 483.751 616.399L487 617.792L484.218 622.72C484.054 623.01 483.805 623.245 483.535 623.365L456.847 635.139C456.623 635.238 456.401 635.25 456.222 635.173L453.376 633.953C453.139 633.852 453 633.606 453 633.291V628.597Z"
     fill="#6455C1"
     id="path2059" />
  <path
     d="M468.011 621.061C468.011 619.404 469.271 617.596 470.826 617.023L472.702 616.33C474.257 615.757 475.517 616.635 475.517 618.292V619.292L468.011 622.061V621.061Z"
     fill="#6455C1"
     id="path2061" />
  <rect
     width="33"
     height="7"
     rx="1"
     transform="matrix(0.938191 -0.346117 0 1 456 628.599)"
     fill="#1E005A"
     id="rect2063" />
  <path
     d="M471.011 622.061C471.011 620.404 472.271 618.596 473.826 618.023L475.702 617.33C477.257 616.757 478.517 617.635 478.517 619.292V620.292L471.011 623.061V622.061Z"
     fill="#EB341B"
     id="path2065" />
  <path
     fill-rule="evenodd"
     clip-rule="evenodd"
     d="M570.708 476.98C574.317 471.134 576.759 464.7 576.351 458.65C575.175 441.22 551.845 453.757 547.307 464.447C542.769 475.138 543.308 497.809 549.173 497.257C551.512 497.037 556.495 493.624 561.567 488.495L558.383 513.673L577.179 506.739L570.708 476.98Z"
     fill="#B28B67"
     id="path2067" />
  <path
     fill-rule="evenodd"
     clip-rule="evenodd"
     d="M584.546 449.681C585.153 448.815 585.484 447.778 585.771 446.803C586.068 445.791 586.357 444.772 586.555 443.759C586.949 441.736 586.953 439.576 585.696 438.581C584.689 437.784 583.176 437.817 581.781 438.218C580.851 438.485 579.896 438.977 579.005 439.618C578.121 440.254 577.358 441.152 576.501 441.852C576.468 439.841 576.143 437.844 575.18 436.471C574.253 435.151 572.776 434.763 571.093 435.137C569.366 435.521 567.661 436.581 566.115 438.042C565.728 438.408 565.344 438.784 564.977 439.184C564.67 439.519 564.35 439.904 563.99 440.127C563.588 440.376 563.389 440.202 563.127 439.985C562.821 439.732 562.476 439.536 562.111 439.385C560.496 438.716 558.378 438.977 556.507 440.425C555.645 441.093 554.807 441.995 554.222 443.029C553.701 443.95 553.329 445.243 552.61 446.016C552.305 446.344 552.089 446.138 551.811 446.03C551.394 445.867 550.995 445.664 550.573 445.511C549.979 445.296 549.337 445.209 548.649 445.294C547.641 445.417 546.249 445.989 545.961 447.501C545.853 448.069 545.936 448.604 545.971 449.123C546.019 449.836 546.069 450.549 546.128 451.256C546.173 451.794 546.23 452.308 546.329 452.816C546.381 453.087 546.545 453.567 546.428 453.9C546.282 454.317 545.609 454.359 545.322 454.478C544.754 454.712 544.183 455.029 543.658 455.481C543.251 455.832 542.823 456.285 542.652 456.845C542.546 457.19 542.574 457.493 542.624 457.789C542.684 458.144 542.615 458.369 542.57 458.766C541.808 458.647 539.164 458.733 538.832 460.313C538.721 460.839 538.973 461.294 539.166 461.632C539.503 462.225 539.945 462.718 540.398 463.177C541.341 464.134 542.467 464.844 543.679 465.359C542.259 466.556 541.889 468.677 543.118 469.405C543.661 469.727 544.39 469.574 545.075 469.288C545.325 469.184 545.687 468.948 545.884 468.922C545.99 468.907 546.103 468.961 546.25 468.918C547.217 468.632 548.307 467.981 549.252 467.405C550.934 466.377 552.528 464.939 553.829 463.165C554.162 462.71 554.438 462.417 554.887 462.256C555.281 462.115 555.667 462.087 556.06 461.953C557.101 461.597 558.039 460.709 559.006 459.992C559.065 461.361 559.436 462.757 559.97 463.811C560.406 464.671 561.315 464.484 562.209 464.244C565.066 463.477 567.934 462.099 570.795 461.048C568.025 462.737 565.163 464.067 562.418 465.865C561.178 466.678 562.125 467.22 562.656 467.642C563.529 468.337 564.179 469.358 564.629 470.52C565.984 468.138 568.379 466.014 570.5 465.81C572.844 465.584 574.495 468.354 572.996 471.336C572.126 473.067 570.554 474.191 569.246 475.28C570.267 476.034 570.513 477.612 571.127 478.792C571.43 479.374 571.855 480.001 572.532 479.993C572.783 479.99 573.077 479.89 573.274 480.034C573.519 480.214 573.578 480.493 573.89 480.61C575.138 481.074 577.087 480.284 578.193 478.669C579.193 477.209 578.933 475.578 578.098 474.78C579.427 473.698 581.85 472.045 581.321 470.032C584.203 468.765 591.198 461.204 587.331 458.991C589.453 456.93 591.403 453.086 590.04 450.835C588.99 449.101 586.549 449.054 584.546 449.681Z"
     fill="#191847"
     id="path2069" />
  <path
     fill-rule="evenodd"
     clip-rule="evenodd"
     d="M481.671 628.584C475.22 626.835 464.398 636.132 464.405 642.034C464.427 659.693 479.554 737.377 480.344 742.349C481.134 747.321 489.594 745.59 490.087 738.772C490.871 727.923 492.327 690.829 490.87 674.446C490.268 667.683 489.62 661.27 488.983 655.571C496.92 667.921 509.196 685.267 525.81 707.609L534.829 699.89C527.746 677.631 521.939 662.214 517.406 653.64C509.645 638.96 502.368 626.621 499.306 622.459C494.488 615.912 486.102 621.91 481.671 628.584Z"
     fill="#B28B67"
     id="path2071" />
  <path
     fill-rule="evenodd"
     clip-rule="evenodd"
     d="M534.184 686.315L503.228 619.572C495.812 609.592 475.02 632.566 477.549 639.007C483.291 653.632 512.491 697.064 514.202 701.421L534.184 686.315Z"
     fill="#1F28CF"
     id="path2073" />
  <path
     fill-rule="evenodd"
     clip-rule="evenodd"
     d="M535.904 694.564C537.832 695.545 539.086 696.464 539.667 697.322C540.373 698.365 541.2 700.087 542.147 702.49C540.728 703.886 527.977 716.437 503.894 740.143C501.002 738.318 500.552 736.24 502.542 733.909C504.532 731.577 506.175 729.624 507.47 728.05L520.673 703.789C520.927 703.322 521.417 703.058 521.767 703.2C521.773 703.202 521.779 703.205 521.785 703.207L524.528 704.447C527.045 703.284 528.923 702.093 530.163 700.873C531.17 699.881 532.326 698.166 533.631 695.725L533.631 695.725C534.132 694.788 535.11 694.251 535.815 694.524C535.845 694.536 535.875 694.549 535.904 694.564Z"
     fill="#E4E4E4"
     id="path2075" />
  <path
     fill-rule="evenodd"
     clip-rule="evenodd"
     d="M492.3 733.718C493.021 735.945 493.382 737.678 493.382 738.915C493.382 740.421 493.188 742.689 492.801 745.719C491.453 746.217 479.335 750.687 456.449 759.13C455.505 755.434 456.05 753.049 458.085 751.976C460.12 750.902 461.811 749.987 463.157 749.231L480.053 733.242C480.378 732.934 480.759 732.983 480.904 733.351C480.907 733.357 480.909 733.363 480.912 733.37L481.998 736.381C483.882 736.825 485.413 736.829 486.591 736.395C487.548 736.041 488.87 735.053 490.556 733.43L490.556 733.43C491.203 732.807 491.968 732.893 492.265 733.621C492.278 733.653 492.289 733.685 492.3 733.718Z"
     fill="#E4E4E4"
     id="path2077" />
  <path
     fill-rule="evenodd"
     clip-rule="evenodd"
     d="M462.236 648.84C462.236 671.017 472.117 719.101 472.123 723.982L493.382 716.156C490.27 671.146 489.167 648.226 490.072 647.395C491.429 646.148 545.715 632.644 561.997 626.637C585.475 617.976 595.187 598.612 595.975 569.089L549.466 586.247C539.997 590.82 490.603 619.662 472.259 630.08C464.405 634.54 462.236 642.731 462.236 648.84Z"
     fill="#2B44FF"
     id="path2079" />
  <path
     fill-rule="evenodd"
     clip-rule="evenodd"
     d="M511.211 587.408L480.505 603.22C473.678 604.006 467.618 605.495 462.324 607.686C460.914 608.577 458.828 610.543 462.905 610.982C466.983 611.421 471.19 612.109 471.005 613.912C470.821 615.716 467.586 617.241 467.7 619.75C467.776 621.423 472.848 618.331 482.918 610.475L509.553 603.616L511.211 587.408Z"
     fill="#997659"
     id="path2081" />
  <path
     fill-rule="evenodd"
     clip-rule="evenodd"
     d="M542.639 553.507C532.531 559.923 505.658 590.832 485.018 597.947C482.203 607.485 482.227 607.934 482.672 613.312C507.065 614.313 521.507 596.061 535.92 591.078C535.462 600.363 536.503 608.652 540 615.287C547.188 628.928 589.283 598.31 603.436 596.058C612.299 562.108 595.162 555.961 595.148 536.335C595.133 514.842 578.938 487.726 576.555 488.605L554.825 496.621C553.626 513.482 547.591 533.804 542.639 553.507Z"
     fill="#1F28CF"
     id="path2083" />
  <rect
     width="221"
     height="192"
     rx="5"
     transform="matrix(0.938191 -0.346117 0 1 454 639.492)"
     fill="#4508BD"
     id="rect2085" />
  <rect
     width="197"
     height="171"
     rx="3"
     transform="matrix(0.938191 -0.346117 0 1 466.197 645.993)"
     fill="#310686"
     id="rect2087" />
  <path
     d="M387.319 660.099C389.972 657.767 393.688 658.305 394.95 660.632C396.173 662.888 395.798 667.506 393.227 669.769C375.979 684.951 287.634 763.037 287.634 763.037L281.718 752.609C281.718 752.609 371.064 674.387 387.319 660.099Z"
     fill="#A094E2"
     id="path2089" />
  <path
     d="M389.548 663.822C392.199 661.488 393.982 659.614 394.267 659.807C396.465 661.297 395.945 667.559 393.375 669.824C376.133 685.016 287.773 763.077 287.773 763.077L284.045 756.506C284.045 756.506 373.301 678.125 389.548 663.822Z"
     fill="#310686"
     id="path2091" />
  <path
     d="M394.203 790.786C396.79 791.544 396.011 795.556 394.458 798.889C392.83 802.381 389.757 806.092 387.041 805.31C362.211 798.164 281.225 774.491 281.225 774.491L288.388 759.966C288.388 759.966 371.565 784.15 394.203 790.786Z"
     fill="#310686"
     id="path2093" />
  <path
     d="M394.229 790.802C396.817 791.558 395.838 794.939 395.524 796.041C395.174 797.268 394.479 796.583 391.766 795.796C366.961 788.601 285.951 764.976 285.951 764.976L288.413 759.983C288.413 759.983 371.579 784.191 394.229 790.802Z"
     fill="#A094E2"
     id="path2095" />
  <path
     d="M290.087 769.647V753.676C290.087 753.676 378.703 720.981 389.534 716.985C392.845 715.764 394.95 719.511 394.95 722.975C394.95 726.44 392.845 731.478 389.534 732.699C371.565 739.326 290.087 769.647 290.087 769.647Z"
     fill="#310686"
     id="path2097" />
  <path
     d="M290.021 756.756V753.471C290.021 753.471 378.381 720.873 389.181 716.888C391.756 715.939 393.011 717.447 393.325 717.988C393.639 718.529 392.482 718.903 389.181 720.121C371.263 726.731 290.021 756.756 290.021 756.756Z"
     fill="#A094E2"
     id="path2099" />
  <path
     d="M177 717.522C177 714.757 179.106 711.771 181.7 710.859L273.58 678.543C274.506 678.217 275.411 678.191 276.18 678.468L295 685.237L278.811 878.831C278.615 881.177 276.997 883.594 274.879 884.703L197 925.5L178.923 917.818C177.715 917.304 177 916.057 177 914.461V717.522Z"
     fill="#A094E2"
     id="path2101" />
  <path
     d="M194.632 724.34C194.641 721.582 196.738 718.611 199.323 717.697L291.435 685.104C294.026 684.187 296.126 685.682 296.126 688.444V884.712C296.126 887.452 294.057 890.413 291.487 891.353L198.758 925.26C196.142 926.217 194.007 924.715 194.016 921.922L194.632 724.34Z"
     fill="#310686"
     id="path2103" />
  <path
     d="M290.739 685.35L291.607 685.043C294.197 684.126 296.297 685.622 296.297 688.383V884.596C296.297 887.358 294.197 890.339 291.607 891.256L290.739 891.563V685.35Z"
     fill="#4508BD"
     id="path2105" />
  <circle
     r="8.04134"
     transform="matrix(0.938191 -0.346117 0 1 244.544 742.583)"
     fill="#5C09FF"
     id="circle2107" />
  <rect
     width="2.53937"
     height="9.31102"
     transform="matrix(0.938191 -0.346117 0 1 243.353 738.367)"
     fill="#1E005A"
     id="rect2109" />
  <path
     d="M133.5 749.259L134 749.259L185.959 731.493"
     stroke="#310686"
     stroke-width="3"
     id="path2111" />
  <path
     d="M133.5 749.259L134 749.259L185.959 731.493"
     stroke="#310686"
     stroke-width="3"
     id="path2113" />
  <line
     y1="-1"
     x2="193"
     y2="-1"
     transform="matrix(4.10096e-08 -1 0.938191 -0.346117 175.135 927.912)"
     stroke="#310686"
     stroke-width="2"
     id="line2115" />
  <line
     y1="-1"
     x2="193"
     y2="-1"
     transform="matrix(4.10096e-08 -1 0.938191 -0.346117 175.135 927.912)"
     stroke="#310686"
     stroke-width="2"
     id="line2117" />
  <line
     y1="-1"
     x2="193"
     y2="-1"
     transform="matrix(4.10096e-08 -1 0.938191 -0.346117 162.939 932.411)"
     stroke="#310686"
     stroke-width="2"
     id="line2119" />
  <line
     y1="-1"
     x2="193"
     y2="-1"
     transform="matrix(4.10096e-08 -1 0.938191 -0.346117 162.939 932.411)"
     stroke="#310686"
     stroke-width="2"
     id="line2121" />
  <line
     y1="-1"
     x2="193"
     y2="-1"
     transform="matrix(4.10096e-08 -1 0.938191 -0.346117 150.742 936.911)"
     stroke="#310686"
     stroke-width="2"
     id="line2123" />
  <line
     y1="-1"
     x2="193"
     y2="-1"
     transform="matrix(4.10096e-08 -1 0.938191 -0.346117 150.742 936.911)"
     stroke="#310686"
     stroke-width="2"
     id="line2125" />
  <line
     y1="-1"
     x2="193"
     y2="-1"
     transform="matrix(4.10096e-08 -1 0.938191 -0.346117 138.546 941.411)"
     stroke="#310686"
     stroke-width="2"
     id="line2127" />
  <line
     y1="-1"
     x2="193"
     y2="-1"
     transform="matrix(4.10096e-08 -1 0.938191 -0.346117 138.546 941.411)"
     stroke="#310686"
     stroke-width="2"
     id="line2129" />
  <path
     fill-rule="evenodd"
     clip-rule="evenodd"
     d="M172.082 846.159C176.101 854.32 183.13 858.525 186.72 867.213C188.849 872.366 189.655 878.49 189.576 885.074C189.533 888.651 189.394 892.263 189.302 895.856C189.213 899.36 189.043 902.87 188.662 906.453C188.279 910.055 187.86 913.628 187.634 917.196C187.458 919.977 187.338 923.182 186.319 926.016C185.509 928.269 183.548 929.236 183.079 927.005C182.818 925.765 182.885 924.256 182.946 922.868C183.023 921.088 183.166 919.287 183.257 917.501C183.622 910.338 183.484 903.347 183.779 896.205C184.067 889.227 185.137 881.986 184.252 875.459C183.521 870.069 181.469 865.933 179.091 862.111C176.803 858.433 174.302 854.937 172.799 850.373C172.367 849.063 172.041 847.662 171.902 846.141C171.978 846.081 172.038 846.087 172.082 846.159Z"
     fill="#C1DEE2"
     id="path2131" />
  <path
     fill-rule="evenodd"
     clip-rule="evenodd"
     d="M169.96 864.144C170.783 864.434 171.232 865.12 171.779 865.76C172.46 866.556 173.266 867.208 173.946 868.005C175.364 869.666 176.602 871.522 177.889 873.315C180.333 876.719 182.161 880.616 183.011 885.237C183.892 890.027 184.049 895.231 184.356 900.295C184.681 905.662 185.009 911.069 184.953 916.589C184.928 919.062 185.013 921.649 184.652 924.221C184.427 925.822 183.679 927.379 182.053 927.929C178.6 929.097 177.054 925.984 176.438 923.206C175.532 919.116 175.43 914.473 175.681 909.883C175.985 904.347 177.085 898.618 177.625 893.022C178.197 887.097 178.057 881.52 176.104 876.803C175.117 874.42 173.961 872.16 172.929 869.809C172.49 868.809 172.135 867.748 171.532 866.883C170.861 865.921 170.02 865.129 169.501 864.022C169.654 864.063 169.807 864.103 169.96 864.144Z"
     fill="#89C5CC"
     id="path2133" />
  <path
     fill-rule="evenodd"
     clip-rule="evenodd"
     d="M206.18 857.551C206.288 857.435 206.395 857.319 206.503 857.204C206.173 858.543 205.601 859.736 205.156 861.009C204.757 862.154 204.541 863.368 204.264 864.564C203.611 867.375 202.867 870.158 202.247 872.979C201.021 878.561 201.117 884.085 201.733 889.594C202.314 894.799 203.299 899.856 203.709 905.119C204.05 909.483 204.14 914.074 203.638 918.524C203.297 921.546 202.305 925.357 199.803 925.929C198.625 926.198 198.037 925.047 197.82 923.592C197.473 921.256 197.443 918.684 197.338 916.278C197.104 910.907 197.148 905.458 197.192 900.047C197.232 894.943 197.162 889.776 197.621 884.655C198.065 879.713 199.231 874.996 200.853 870.454C201.707 868.061 202.524 865.632 203.476 863.304C203.933 862.187 204.484 861.15 204.941 860.034C205.308 859.136 205.604 858.243 206.18 857.551Z"
     fill="#C1DEE2"
     id="path2135" />
  <path
     fill-rule="evenodd"
     clip-rule="evenodd"
     d="M172.385 882.172C172.857 881.278 173.812 883.358 173.959 883.61C173.897 883.481 173.835 883.352 173.773 883.223C174.65 884.357 175.448 885.576 175.93 887.058C176.406 888.524 176.81 890.048 177.255 891.537C178.089 894.331 179.186 896.946 179.935 899.797C180.666 902.575 180.804 905.506 180.547 908.729C180.28 912.079 180.089 915.453 180.254 918.652C180.333 920.18 180.833 921.455 181.166 922.838C181.498 924.221 181.753 925.652 182.153 926.993C182.255 926.765 182.255 927.41 182.253 927.459C182.243 927.833 182.182 928.164 182.05 928.56C181.711 929.579 181.095 930.558 180.177 931.124C178.518 932.147 177.016 931.235 176.515 929.898C175.797 927.979 175.426 925.712 175.109 923.543C174.819 921.555 174.784 919.466 174.927 917.299C175.209 913.025 176.087 908.6 176.388 904.321C176.716 899.662 175.859 895.688 175.16 891.505C174.823 889.49 174.503 887.489 173.804 885.699C173.521 884.975 173.144 884.379 172.75 883.756C172.525 883.402 172.069 882.789 172.385 882.172Z"
     fill="#C1DEE2"
     id="path2137" />
  <path
     fill-rule="evenodd"
     clip-rule="evenodd"
     d="M184.053 870.076C183.756 875.385 183.323 880.703 182.487 886.144C181.635 891.696 180.673 897.269 179.848 902.816C179.046 908.216 178.208 913.713 178.198 918.911C178.19 922.74 177.39 929.488 181.809 929.849C186.284 930.214 187.422 921.655 187.774 918.837C188.45 913.433 188.374 908.233 188.206 903.091C188.034 897.814 187.671 892.63 187.196 887.478C186.668 881.754 186.281 875.956 185.994 870.132C185.852 867.252 185.863 864.323 185.98 861.353C186.09 858.549 186.037 855.774 185.061 853.486C185.006 853.543 184.951 853.599 184.896 853.655"
     fill="#69A1AC"
     id="path2139" />
  <path
     fill-rule="evenodd"
     clip-rule="evenodd"
     d="M200.5 887.894C199.665 889.31 198.823 890.718 198.031 892.186C196.615 894.812 195.325 897.634 194.889 900.84C193.975 907.55 194.458 914.289 194.473 920.874C194.476 922.219 194.27 923.596 194.8 924.695C195.281 925.691 196.207 926.256 197.107 925.94C199.033 925.264 198.832 920.838 198.876 918.843C198.954 915.348 198.619 911.96 198.726 908.458C198.832 904.989 199.123 901.446 199.712 897.981C200.309 894.475 201.149 891.016 202.232 887.684C202.383 887.221 203.466 883.676 202.493 884.559"
     fill="#89C5CC"
     id="path2141" />
  <path
     fill-rule="evenodd"
     clip-rule="evenodd"
     d="M198.165 848.559C196.899 848.997 196.782 855.055 196.728 855.846C196.532 858.703 196.507 861.502 196.362 864.342C196.045 870.54 195.684 876.806 194.6 883.199C194.016 886.64 193.35 890.095 192.639 893.556C191.926 897.027 190.992 900.57 190.5 904.006C190.027 907.308 190.191 910.452 190.181 913.61C190.171 916.786 190.206 919.954 190.577 922.972C190.668 923.716 190.779 924.452 190.898 925.183C190.997 925.791 190.915 926.617 191.092 927.167C191.377 928.048 192.678 927.918 193.562 927.459C195.954 926.218 197.535 922.819 198.393 920.439C199.487 917.4 200.099 914.302 200.701 911.289C201.384 907.876 201.812 904.503 202.049 901.187C202.53 894.447 202.224 887.972 201.866 881.544C201.667 877.969 201.425 874.424 201.014 870.945C200.605 867.48 200.059 864.079 199.73 860.576C199.491 858.03 199.256 855.48 199.121 852.888C199.089 852.27 199.134 848.224 198.165 848.559Z"
     fill="#69A1AC"
     id="path2143" />
  <path
     fill-rule="evenodd"
     clip-rule="evenodd"
     d="M196.103 892.779C196.028 886.488 193.939 859.459 193.491 851.974C193.379 850.1 192.085 842.586 191.941 840.468C191.415 841.263 191.261 850.853 191.221 853.059C191.182 855.24 190.856 857.485 190.666 859.706C190.472 861.973 186.471 891.77 185.984 894.052C185.016 898.592 184.337 903.143 183.793 907.631C183.263 912.005 182.482 916.697 182.988 920.735C183.104 921.665 183.3 922.551 183.632 923.327C183.992 924.166 184.233 924.973 184.517 925.882C184.973 927.347 185.83 928.475 187.178 928.679C189.941 929.097 191.505 925.447 192.321 922.458C193.625 917.684 194.495 912.99 194.954 908.291C195.463 903.092 196.164 897.816 196.103 892.779Z"
     fill="#89C5CC"
     id="path2145" />
  <path
     d="M379.472 252.385C379.472 251.832 379.892 251.23 380.41 251.038L395.421 245.501C395.939 245.309 396.359 245.602 396.359 246.154V251.154L379.472 257.385V252.385Z"
     fill="#5C09FF"
     id="path2147" />
  <path
     d="M379.472 252.385C379.472 251.832 379.892 251.23 380.41 251.038L395.421 245.501C395.939 245.309 396.359 245.602 396.359 246.154V251.154L379.472 257.385V252.385Z"
     fill="#5C09FF"
     id="path2149" />
  <path
     d="M398.235 245.462C398.235 244.91 398.654 244.308 399.172 244.116C401.666 243.196 408.353 240.73 409.494 240.309C410.901 239.79 412.334 240.392 413.716 241.251C414.87 241.969 416.061 243.886 416.061 243.886L398.235 250.462V245.462Z"
     fill="#5C09FF"
     id="path2151" />
  <path
     d="M398.235 245.462C398.235 244.91 398.654 244.308 399.172 244.116C401.666 243.196 408.353 240.73 409.494 240.309C410.901 239.79 412.334 240.392 413.716 241.251C414.87 241.969 416.061 243.886 416.061 243.886L398.235 250.462V245.462Z"
     fill="#5C09FF"
     id="path2153" />
  <path
     d="M360.708 259.307C360.708 258.755 361.128 258.152 361.646 257.961L376.657 252.423C377.175 252.232 377.595 252.524 377.595 253.077V258.077L360.708 264.307V259.307Z"
     fill="#5C09FF"
     id="path2155" />
  <path
     d="M360.708 259.307C360.708 258.755 361.128 258.152 361.646 257.961L376.657 252.423C377.175 252.232 377.595 252.524 377.595 253.077V258.077L360.708 264.307V259.307Z"
     fill="#5C09FF"
     id="path2157" />
  <rect
     width="2"
     height="1"
     transform="matrix(0.938191 -0.346117 0 1 377.595 255.077)"
     fill="#310686"
     id="rect2159" />
  <rect
     width="2"
     height="1"
     transform="matrix(0.938191 -0.346117 0 1 377.595 255.077)"
     fill="#310686"
     id="rect2161" />
  <rect
     width="2"
     height="1"
     transform="matrix(0.938191 -0.346117 0 1 396.359 248.155)"
     fill="#310686"
     id="rect2163" />
  <rect
     width="2"
     height="1"
     transform="matrix(0.938191 -0.346117 0 1 396.359 248.155)"
     fill="#310686"
     id="rect2165" />
  <path
     d="M364.93 255.249C365.258 254.954 365.54 254.85 365.868 254.903C366.386 254.988 366.337 256.23 366.337 256.23L364.461 256.923C364.461 256.923 364.412 255.717 364.93 255.249Z"
     fill="#191847"
     id="path2167" />
  <path
     d="M364.93 255.249C365.258 254.954 365.54 254.85 365.868 254.903C366.386 254.988 366.337 256.23 366.337 256.23L364.461 256.923C364.461 256.923 364.412 255.717 364.93 255.249Z"
     fill="#191847"
     id="path2169" />
  <path
     d="M364.93 255.249C365.258 254.954 365.54 254.85 365.868 254.903C366.386 254.988 366.337 256.23 366.337 256.23L364.461 256.923C364.461 256.923 364.412 255.717 364.93 255.249Z"
     fill="#191847"
     id="path2171" />
  <path
     d="M371.497 252.827C371.825 252.531 372.107 252.427 372.435 252.48C372.953 252.565 372.904 253.807 372.904 253.807L371.028 254.5C371.028 254.5 370.979 253.294 371.497 252.827Z"
     fill="#191847"
     id="path2173" />
  <path
     d="M371.497 252.827C371.825 252.531 372.107 252.427 372.435 252.48C372.953 252.565 372.904 253.807 372.904 253.807L371.028 254.5C371.028 254.5 370.979 253.294 371.497 252.827Z"
     fill="#191847"
     id="path2175" />
  <path
     d="M371.497 252.827C371.825 252.531 372.107 252.427 372.435 252.48C372.953 252.565 372.904 253.807 372.904 253.807L371.028 254.5C371.028 254.5 370.979 253.294 371.497 252.827Z"
     fill="#191847"
     id="path2177" />
  <path
     d="M383.694 247.987C384.021 247.652 384.304 247.548 384.631 247.642C385.148 247.789 385.1 249.308 385.1 249.308L383.226 250C383.226 250 383.177 248.517 383.694 247.987Z"
     fill="#191847"
     id="path2179" />
  <path
     d="M383.694 247.987C384.021 247.652 384.304 247.548 384.631 247.642C385.148 247.789 385.1 249.308 385.1 249.308L383.226 250C383.226 250 383.177 248.517 383.694 247.987Z"
     fill="#191847"
     id="path2181" />
  <path
     d="M383.694 247.987C384.021 247.652 384.304 247.548 384.631 247.642C385.148 247.789 385.1 249.308 385.1 249.308L383.226 250C383.226 250 383.177 248.517 383.694 247.987Z"
     fill="#191847"
     id="path2183" />
  <path
     d="M390.261 245.564C390.589 245.23 390.871 245.125 391.198 245.219C391.716 245.367 391.667 246.885 391.667 246.885L389.793 247.577C389.793 247.577 389.744 246.094 390.261 245.564Z"
     fill="#191847"
     id="path2185" />
  <path
     d="M390.261 245.564C390.589 245.23 390.871 245.125 391.198 245.219C391.716 245.367 391.667 246.885 391.667 246.885L389.793 247.577C389.793 247.577 389.744 246.094 390.261 245.564Z"
     fill="#191847"
     id="path2187" />
  <path
     d="M390.261 245.564C390.589 245.23 390.871 245.125 391.198 245.219C391.716 245.367 391.667 246.885 391.667 246.885L389.793 247.577C389.793 247.577 389.744 246.094 390.261 245.564Z"
     fill="#191847"
     id="path2189" />
  <path
     d="M402.458 241.065C402.785 240.73 403.068 240.626 403.395 240.719C403.912 240.867 403.863 242.386 403.863 242.386L401.99 243.077C401.99 243.077 401.941 241.594 402.458 241.065Z"
     fill="#191847"
     id="path2191" />
  <path
     d="M402.458 241.065C402.785 240.73 403.068 240.626 403.395 240.719C403.912 240.867 403.863 242.386 403.863 242.386L401.99 243.077C401.99 243.077 401.941 241.594 402.458 241.065Z"
     fill="#191847"
     id="path2193" />
  <path
     d="M402.458 241.065C402.785 240.73 403.068 240.626 403.395 240.719C403.912 240.867 403.863 242.386 403.863 242.386L401.99 243.077C401.99 243.077 401.941 241.594 402.458 241.065Z"
     fill="#191847"
     id="path2195" />
  <path
     d="M407.149 239.335C407.476 239 407.759 238.895 408.086 238.989C408.603 239.137 408.554 240.655 408.554 240.655L406.68 241.347C406.68 241.347 406.631 239.864 407.149 239.335Z"
     fill="#191847"
     id="path2197" />
  <path
     d="M407.149 239.335C407.476 239 407.759 238.895 408.086 238.989C408.603 239.137 408.554 240.655 408.554 240.655L406.68 241.347C406.68 241.347 406.631 239.864 407.149 239.335Z"
     fill="#191847"
     id="path2199" />
  <path
     d="M407.149 239.335C407.476 239 407.759 238.895 408.086 238.989C408.603 239.137 408.554 240.655 408.554 240.655L406.68 241.347C406.68 241.347 406.631 239.864 407.149 239.335Z"
     fill="#191847"
     id="path2201" />
  <ellipse
     rx="31.3418"
     ry="29.198"
     transform="matrix(0.938191 -0.346117 0 1 533.663 249.038)"
     fill="#1B0051"
     id="ellipse2203" />
  <ellipse
     rx="21.5"
     ry="16"
     transform="matrix(0.938191 -0.346117 0 1 549.76 214.901)"
     fill="#1B0051"
     id="ellipse2205" />
  <ellipse
     rx="17.8036"
     ry="16.5858"
     transform="matrix(0.938191 -0.346117 0 1 635.789 230.294)"
     fill="#1B0051"
     id="ellipse2207" />
  <ellipse
     rx="19.4109"
     ry="18.0832"
     transform="matrix(0.938191 -0.346117 0 1 511.211 274.756)"
     fill="#1B0051"
     id="ellipse2209" />
  <ellipse
     rx="26.2109"
     ry="24.418"
     transform="matrix(0.938191 -0.346117 0 1 614.794 211.202)"
     fill="#1B0051"
     id="ellipse2211" />
  <ellipse
     rx="26"
     ry="17.5"
     transform="matrix(0.938191 -0.346117 0 1 584.004 203.768)"
     fill="#1B0051"
     id="ellipse2213" />
  <path
     d="M511.211 243.657L575.588 203.321L635.209 197.912V247.093L511.211 292.839L516.199 263.586L511.211 243.657Z"
     fill="#1B0051"
     id="path2215" />
  <ellipse
     rx="31.3418"
     ry="29.198"
     transform="matrix(0.938191 -0.346117 0 1 540.663 251.037)"
     fill="#310686"
     id="ellipse2217" />
  <ellipse
     rx="21.5"
     ry="16"
     transform="matrix(0.938191 -0.346117 0 1 556.76 216.901)"
     fill="#310686"
     id="ellipse2219" />
  <ellipse
     rx="17.8036"
     ry="16.5858"
     transform="matrix(0.938191 -0.346117 0 1 642.789 232.293)"
     fill="#310686"
     id="ellipse2221" />
  <ellipse
     rx="19.4109"
     ry="18.0832"
     transform="matrix(0.938191 -0.346117 0 1 518.211 276.755)"
     fill="#310686"
     id="ellipse2223" />
  <ellipse
     rx="26.2109"
     ry="24.418"
     transform="matrix(0.938191 -0.346117 0 1 621.794 213.202)"
     fill="#310686"
     id="ellipse2225" />
  <ellipse
     rx="26"
     ry="17.5"
     transform="matrix(0.938191 -0.346117 0 1 591.005 205.767)"
     fill="#310686"
     id="ellipse2227" />
  <path
     d="M518.211 245.657L582.588 205.321L642.209 199.912V249.093L518.211 294.838L523.199 265.586L518.211 245.657Z"
     fill="#310686"
     id="path2229" />
  <ellipse
     rx="31.3418"
     ry="26.6597"
     transform="matrix(0.938191 -0.346117 0 1 639.876 242.829)"
     fill="#4208B5"
     id="ellipse2231" />
  <ellipse
     rx="17"
     ry="14.4604"
     transform="matrix(0.938191 -0.346117 0 1 664.931 218.547)"
     fill="#4208B5"
     id="ellipse2233" />
  <ellipse
     rx="17.8036"
     ry="15.144"
     transform="matrix(0.938191 -0.346117 0 1 736.79 233.735)"
     fill="#4208B5"
     id="ellipse2235" />
  <ellipse
     rx="19.4109"
     ry="16.5112"
     transform="matrix(0.938191 -0.346117 0 1 612.211 278.327)"
     fill="#4208B5"
     id="ellipse2237" />
  <ellipse
     rx="26.2109"
     ry="22.2953"
     transform="matrix(0.938191 -0.346117 0 1 715.794 216.977)"
     fill="#4208B5"
     id="ellipse2239" />
  <ellipse
     rx="18.9164"
     ry="16.0905"
     transform="matrix(0.938191 -0.346117 0 1 691.203 202.071)"
     fill="#4208B5"
     id="ellipse2241" />
  <path
     d="M612.211 249.932L676.588 211.038L736.209 204.187V249.093L612.211 294.838L617.199 267.969L612.211 249.932Z"
     fill="#4208B5"
     id="path2243" />
  <ellipse
     rx="31.3418"
     ry="26.6597"
     transform="matrix(0.938191 -0.346117 0 1 647.218 244.946)"
     fill="#5C09FF"
     id="ellipse2245" />
  <ellipse
     rx="17"
     ry="14.4604"
     transform="matrix(0.938191 -0.346117 0 1 672.273 220.664)"
     fill="#5C09FF"
     id="ellipse2247" />
  <ellipse
     rx="17.8036"
     ry="15.144"
     transform="matrix(0.938191 -0.346117 0 1 744.131 235.852)"
     fill="#5C09FF"
     id="ellipse2249" />
  <ellipse
     rx="19.4109"
     ry="16.5112"
     transform="matrix(0.938191 -0.346117 0 1 619.553 280.445)"
     fill="#5C09FF"
     id="ellipse2251" />
  <ellipse
     rx="26.2109"
     ry="22.2953"
     transform="matrix(0.938191 -0.346117 0 1 723.136 219.094)"
     fill="#5C09FF"
     id="ellipse2253" />
  <ellipse
     rx="18.9164"
     ry="16.0905"
     transform="matrix(0.938191 -0.346117 0 1 698.546 204.188)"
     fill="#5C09FF"
     id="ellipse2255" />
  <path
     d="M619.553 252.049L683.93 213.155L743.551 206.304V251.21L619.553 296.955L624.541 270.086L619.553 252.049Z"
     fill="#5C09FF"
     id="path2257" />
  <ellipse
     rx="30.4336"
     ry="25.8872"
     transform="matrix(0.938191 -0.346117 0 1 154.546 423.652)"
     fill="#1B0051"
     id="ellipse2259" />
  <ellipse
     rx="16.5074"
     ry="14.0414"
     transform="matrix(0.938191 -0.346117 0 1 178.875 400.074)"
     fill="#1B0051"
     id="ellipse2261" />
  <ellipse
     rx="17.2877"
     ry="14.7051"
     transform="matrix(0.938191 -0.346117 0 1 251.219 414.963)"
     fill="#1B0051"
     id="ellipse2263" />
  <ellipse
     rx="18.8484"
     ry="16.0327"
     transform="matrix(0.938191 -0.346117 0 1 126.683 451.83)"
     fill="#1B0051"
     id="ellipse2265" />
  <ellipse
     rx="25.4513"
     ry="21.6492"
     transform="matrix(0.938191 -0.346117 0 1 228.265 398.55)"
     fill="#1B0051"
     id="ellipse2267" />
  <ellipse
     rx="18.3682"
     ry="15.6242"
     transform="matrix(0.938191 -0.346117 0 1 205.233 391.256)"
     fill="#1B0051"
     id="ellipse2269" />
  <path
     d="M127.683 430.55L190.195 392.783L248.088 386.13V429.735L127.683 474.155L132.527 448.064L127.683 430.55Z"
     fill="#1B0051"
     id="path2271" />
  <ellipse
     rx="30.4336"
     ry="25.8872"
     transform="matrix(0.938191 -0.346117 0 1 161.676 425.708)"
     fill="#310686"
     id="ellipse2273" />
  <ellipse
     rx="16.5074"
     ry="14.0414"
     transform="matrix(0.938191 -0.346117 0 1 186.004 402.13)"
     fill="#310686"
     id="ellipse2275" />
  <ellipse
     rx="17.2877"
     ry="14.7051"
     transform="matrix(0.938191 -0.346117 0 1 255.781 416.878)"
     fill="#310686"
     id="ellipse2277" />
  <ellipse
     rx="18.8484"
     ry="16.0327"
     transform="matrix(0.938191 -0.346117 0 1 134.813 460.178)"
     fill="#310686"
     id="ellipse2279" />
  <ellipse
     rx="25.4513"
     ry="21.6492"
     transform="matrix(0.938191 -0.346117 0 1 235.394 400.605)"
     fill="#310686"
     id="ellipse2281" />
  <ellipse
     rx="18.3682"
     ry="15.6242"
     transform="matrix(0.938191 -0.346117 0 1 209.233 395.256)"
     fill="#310686"
     id="ellipse2283" />
  <path
     d="M134.812 432.606L197.324 394.839L255.217 388.186V431.791L134.812 476.211L139.656 450.12L134.812 432.606Z"
     fill="#310686"
     id="path2285" />
  <ellipse
     rx="24"
     ry="20.5"
     transform="matrix(0.938191 -0.346117 0 1 105.589 478.155)"
     fill="#4508BD"
     id="ellipse2287" />
  <ellipse
     rx="14.7"
     ry="12.504"
     transform="matrix(0.938191 -0.346117 0 1 109.999 457.532)"
     fill="#4508BD"
     id="ellipse2289" />
  <ellipse
     rx="26.5"
     ry="22.5"
     transform="matrix(0.938191 -0.346117 0 1 182.052 460.946)"
     fill="#4508BD"
     id="ellipse2291" />
  <ellipse
     rx="16.7847"
     ry="14.2773"
     transform="matrix(0.938191 -0.346117 0 1 84.7473 504.998)"
     fill="#4508BD"
     id="ellipse2293" />
  <ellipse
     rx="22.6647"
     ry="19.2789"
     transform="matrix(0.938191 -0.346117 0 1 156.875 454.013)"
     fill="#4508BD"
     id="ellipse2295" />
  <ellipse
     rx="16.3571"
     ry="13.9135"
     transform="matrix(0.938191 -0.346117 0 1 131.346 451.849)"
     fill="#4508BD"
     id="ellipse2297" />
  <path
     d="M84.7473 480.444L140.414 446.812L191.969 440.888L183.459 482.858L84.7473 519.275L89.0603 496.04L84.7473 480.444Z"
     fill="#4508BD"
     id="path2299" />
  <ellipse
     rx="24"
     ry="20.5"
     transform="matrix(0.938191 -0.346117 0 1 111.589 480.155)"
     fill="#5C09FF"
     id="ellipse2301" />
  <ellipse
     rx="14.7"
     ry="12.504"
     transform="matrix(0.938191 -0.346117 0 1 115.999 459.532)"
     fill="#5C09FF"
     id="ellipse2303" />
  <ellipse
     rx="26.5"
     ry="22.5"
     transform="matrix(0.938191 -0.346117 0 1 188.052 462.947)"
     fill="#5C09FF"
     id="ellipse2305" />
  <ellipse
     rx="16.7847"
     ry="14.2773"
     transform="matrix(0.938191 -0.346117 0 1 90.7473 506.998)"
     fill="#5C09FF"
     id="ellipse2307" />
  <ellipse
     rx="22.6647"
     ry="19.2789"
     transform="matrix(0.938191 -0.346117 0 1 162.875 456.014)"
     fill="#5C09FF"
     id="ellipse2309" />
  <ellipse
     rx="16.3571"
     ry="13.9135"
     transform="matrix(0.938191 -0.346117 0 1 137.256 455.1)"
     fill="#5C09FF"
     id="ellipse2311" />
  <path
     d="M90.7473 482.444L146.414 448.813L197.969 442.888L189.459 484.858L90.7473 521.275L95.0603 498.041L90.7473 482.444Z"
     fill="#5C09FF"
     id="path2313" />
</g>
</svg>
