<?xml version="1.0" encoding="UTF-8" standalone="no"?>
<svg
   xmlns="http://www.w3.org/2000/svg"
   width="919"
   height="1076"
   viewBox="0 0 919 1076"
   fill="none">
  <path
     d="M854.284 643.602C1027.03 872.932 826.917 1062.81 552.241 1027C395 1006.5 157.294 821 0.000110626 821L0 396C0 396 697.213 435.077 854.284 643.602Z"
     fill="#262461"
     id="svg-sluzby-platby-bg-shape" />
   <g id="svg-sluzby-platby-content"
      class="svg-sluzby-content">
     <g
     id="g1914">
    <rect
       width="655.441"
       height="667.231"
       rx="50"
       transform="matrix(0.938191 -0.346117 0 1 176.014 276.102)"
       fill="#9F94E2"
       id="rect1912" />
  </g>
  <rect
     width="656.314"
     height="663.389"
     rx="50"
     transform="matrix(0.938191 -0.346117 0 1 186.401 281.118)"
     fill="white"
	 filter="url(#shadow-1)"
     id="rect1916" />
  <rect
     width="99.4866"
     height="4.94598"
     transform="matrix(0.455805 0.705896 -0.820028 0.788357 403.396 436.21)"
     fill="#9F94E2"
     id="rect1918" />
  <path
     d="M412.844 555.175C412.844 527.553 433.857 497.412 459.772 487.862L802.888 361.423L811.198 366.096L802.447 450.516V539.61V667.797C802.447 695.411 781.445 725.545 755.537 735.103L607.645 789.663L421.674 866.245L412.844 861.529V555.175Z"
     fill="#9F94E2"
     id="path1920" />
  <rect
     width="87.617"
     height="4.94598"
     transform="matrix(0.455805 0.705896 -0.820028 0.788357 406.251 437.091)"
     fill="#4508BD"
     id="rect1922" />
  <path
     d="M421.693 559.739C421.693 532.125 442.695 501.991 468.603 492.433L811.296 366.007V672.38C811.296 699.995 790.294 730.129 764.387 739.686L421.693 866.113V559.739Z"
     fill="#5C09FF"
     id="path1924" />
  <rect
     width="9.98246"
     height="44.7953"
     transform="matrix(0.576255 -1.00173 0.74036 0.341086 676.436 608.103)"
     fill="#4508BD"
     id="rect1926" />
  <circle
     r="16.4711"
     transform="matrix(0.938191 -0.346117 0 1 681.585 604.026)"
     fill="#4508BD"
     id="circle1928" />
  <circle
     r="11.4798"
     transform="matrix(0.938191 -0.346117 0 1 681.586 604.026)"
     fill="white"
     id="circle1930" />
  <path
     d="M650.211 561.195L640.845 564.65V543.687L636.163 537.928L607.13 548.639V537.159L638.972 525.412L650.211 538.236V561.195Z"
     fill="#4508BD"
     id="path1932" />
  <rect
     width="11.979"
     height="132.767"
     transform="matrix(0.938191 -0.346117 0 1 521.903 659.441)"
     fill="#4508BD"
     id="rect1934" />
  <circle
     r="16.4711"
     transform="matrix(0.938191 -0.346117 0 1 527.055 791.805)"
     fill="#4508BD"
     id="circle1936" />
  <circle
     r="11.4798"
     transform="matrix(0.938191 -0.346117 0 1 527.055 791.805)"
     fill="white"
     id="circle1938" />
  <path
     d="M579.032 664.839L597.295 649.596L682.914 685.506L680.317 696.932L595.89 662.093L590.271 666.662V766.985L579.032 771.132V664.839Z"
     fill="#4508BD"
     id="path1940" />
  <circle
     r="16.4711"
     transform="matrix(0.938191 -0.346117 0 1 584.183 770.728)"
     fill="#4508BD"
     id="circle1942" />
  <circle
     r="11.4798"
     transform="matrix(0.938191 -0.346117 0 1 584.184 770.729)"
     fill="white"
     id="circle1944" />
  <circle
     r="16.4711"
     transform="matrix(0.938191 -0.346117 0 1 527.056 652.05)"
     fill="#4508BD"
     id="circle1946" />
  <circle
     r="11.4798"
     transform="matrix(0.938191 -0.346117 0 1 527.055 652.051)"
     fill="white"
     id="circle1948" />
  <circle
     r="16.4711"
     transform="matrix(0.938191 -0.346117 0 1 595.423 546.968)"
     fill="#4508BD"
     id="circle1950" />
  <circle
     r="11.4798"
     transform="matrix(0.938191 -0.346117 0 1 595.423 546.968)"
     fill="white"
     id="circle1952" />
  <circle
     r="16.4711"
     transform="matrix(0.938191 -0.346117 0 1 645.059 578.569)"
     fill="#4508BD"
     id="circle1954" />
  <circle
     r="11.4798"
     transform="matrix(0.938191 -0.346117 0 1 645.06 578.569)"
     fill="white"
     id="circle1956" />
  <path
     d="M580.925 566.015C580.925 566.015 593.367 546.782 593.67 546.313C593.973 545.844 595.121 544.895 595.925 545.058C596.247 545.123 596.416 545.224 596.619 545.472C597.127 546.092 596.75 547.5 596.447 547.969C596.143 548.438 583.701 567.671 583.701 567.671L580.925 566.015Z"
     fill="#1E005A"
     id="path1958" />
  <path
     d="M525.547 619.546L566.577 555.664L588.39 569.168L595.143 574.88L573.707 598.701L553.274 630.286L528.663 622.143L525.547 619.546Z"
     fill="#310686"
     id="path1960" />
  <path
     d="M525.547 619.546L566.577 555.664L588.39 569.168L595.143 574.88L573.707 598.701L553.274 630.286L528.663 622.143L525.547 619.546Z"
     fill="#9F94E2"
     id="path1962" />
  <path
     d="M528.46 622.261L569.324 559.092L595.493 574.699L554.629 637.868L528.46 622.261Z"
     fill="#310686"
     id="path1964" />
  <path
     d="M528.46 622.261L569.324 559.092L595.493 574.699L554.629 637.868L528.46 622.261Z"
     fill="#310686"
     id="path1966" />
  <path
     d="M537.826 616.363L568.133 569.515L586.652 580.56L556.345 627.408L537.826 616.363Z"
     fill="#310686"
     id="path1968" />
  <path
     d="M537.826 616.363L568.133 569.515L586.652 580.56L556.345 627.408L537.826 616.363Z"
     fill="#191847"
     id="path1970" />
  <path
     d="M542.845 630.831C542.845 630.831 529.545 651.389 529.221 651.891C528.897 652.392 527.697 653.422 526.882 653.275C526.556 653.217 526.387 653.116 526.188 652.861C525.69 652.225 526.12 650.736 526.444 650.235C526.769 649.733 540.068 629.175 540.068 629.175L542.845 630.831Z"
     fill="#1E005A"
     id="path1972" />
  <path
     d="M690.481 567.302V557.32L741.055 538.662L748.079 531.079V449.722L758.849 445.749V530.101L742.928 547.953L690.481 567.302Z"
     fill="#4508BD"
     id="path1974" />
  <path
     d="M463.838 582.036L475.201 577.844V548.079L480.883 540.434L638.035 482.457V470.854L478.688 529.641L463.838 549.749V582.036Z"
     fill="#4508BD"
     id="path1976" />
  <circle
     r="16.4711"
     transform="matrix(0.938191 -0.346117 0 1 681.585 565.094)"
     fill="#4508BD"
     id="circle1978" />
  <circle
     r="11.4798"
     transform="matrix(0.938191 -0.346117 0 1 681.586 565.094)"
     fill="white"
     id="circle1980" />
  <rect
     width="11.979"
     height="187.67"
     transform="matrix(0.938191 -0.346117 0 1 463.838 625.959)"
     fill="#4508BD"
     id="rect1982" />
  <circle
     r="16.4711"
     transform="matrix(0.938191 -0.346117 0 1 468.989 813.227)"
     fill="#4508BD"
     id="circle1984" />
  <circle
     r="11.4798"
     transform="matrix(0.938191 -0.346117 0 1 468.989 813.227)"
     fill="white"
     id="circle1986" />
  <circle
     r="16.4711"
     transform="matrix(0.938191 -0.346117 0 1 753.698 434.672)"
     fill="#4508BD"
     id="circle1988" />
  <circle
     r="11.4798"
     transform="matrix(0.938191 -0.346117 0 1 753.699 434.672)"
     fill="white"
     id="circle1990" />
  <circle
     r="16.4711"
     transform="matrix(0.938191 -0.346117 0 1 649.742 473.024)"
     fill="#4508BD"
     id="circle1992" />
  <circle
     r="11.4798"
     transform="matrix(0.938191 -0.346117 0 1 649.743 473.024)"
     fill="white"
     id="circle1994" />
  <path
     d="M668.372 451.397L729.248 428.939L732.773 431.016L729.248 451.899L698.81 463.128L672.008 476.201L668.372 474.357V451.397Z"
     fill="#9F94E2"
     id="path1996" />
  <path
     d="M671.751 453.425L732.626 430.966V453.926L671.751 476.384V453.425Z"
     fill="#1E005A"
     id="path1998" />
  <path
     d="M732.626 440.948C732.626 440.948 751.825 433.866 752.293 433.692C752.762 433.519 753.938 433.639 754.167 434.499C754.258 434.843 754.258 435.086 754.167 435.497C753.938 436.525 752.762 437.513 752.293 437.685C751.825 437.858 732.626 444.941 732.626 444.941V440.948Z"
     fill="#1E005A"
     id="path2000" />
  <path
     d="M671.821 467.375C671.821 467.375 652.622 474.457 652.154 474.63C651.686 474.804 650.509 474.683 650.281 473.824C650.189 473.48 650.189 473.237 650.281 472.826C650.509 471.798 651.686 470.81 652.154 470.637C652.622 470.465 671.821 463.382 671.821 463.382V467.375Z"
     fill="#1E005A"
     id="path2002" />
  <circle
     r="27.4518"
     transform="matrix(0.938191 -0.346117 0 1 469.925 599.257)"
     fill="#4508BD"
     id="circle2004" />
  <path
     d="M512.562 608.12C519.833 627.856 507.368 635.127 494.384 635.127C481.4 635.127 454.913 625.779 450.757 613.314C445.39 597.214 462.183 575.4 478.284 576.439C492.826 579.036 507.617 594.699 512.562 608.12Z"
     fill="url(#paint0_linear)"
     id="path2006" />
  <path
     d="M667.067 584.435C667.067 584.435 679.51 565.202 679.813 564.733C680.116 564.263 681.263 563.315 682.068 563.477C682.389 563.542 682.559 563.643 682.762 563.891C683.27 564.512 682.893 565.92 682.589 566.389C682.286 566.858 669.844 586.091 669.844 586.091L667.067 584.435Z"
     fill="#1E005A"
     id="path2008" />
  <path
     d="M669.716 592.931C669.716 592.931 682.821 602.066 683.141 602.288C683.461 602.51 683.897 603.598 683.427 604.605C683.238 605.007 683.077 605.239 682.764 605.555C681.982 606.344 680.812 606.312 680.492 606.089C680.173 605.866 667.067 596.732 667.067 596.732L669.716 592.931Z"
     fill="#1E005A"
     id="path2010" />
  <path
     d="M657.468 590.041C657.468 590.041 644.362 580.906 644.042 580.684C643.722 580.462 643.287 579.375 643.757 578.368C643.945 577.965 644.107 577.733 644.419 577.418C645.201 576.628 646.372 576.661 646.691 576.884C647.011 577.106 660.117 586.241 660.117 586.241L657.468 590.041Z"
     fill="#1E005A"
     id="path2012" />
  <path
     d="M652.671 579.481C655.47 575.465 659.127 572.606 662.794 571.214L677.46 581.435C677.423 585.358 676.006 589.778 673.207 593.793C667.537 601.93 658.342 605.322 652.671 601.37C647.001 597.417 647.001 587.617 652.671 579.481Z"
     fill="#9F94E2"
     id="path2014" />
  <path
     d="M655.75 580.824C658.548 576.809 662.205 573.949 665.872 572.557L680.538 582.778C680.502 586.701 679.084 591.122 676.286 595.137C670.615 603.273 661.42 606.665 655.75 602.713C650.079 598.761 650.079 588.961 655.75 580.824Z"
     fill="#310686"
     id="path2016" />
  <path
     d="M551.938 605.316L560.175 610.309L559.4 611.498L551.916 606.961L550.14 609.686L549.387 609.23L551.938 605.316ZM566.37 599.195L567.123 599.652L561.837 607.76L561.237 607.397L561.016 600.558C560.987 599.695 560.888 599.067 560.718 598.672C560.548 598.262 560.306 597.961 559.992 597.771C559.506 597.476 558.975 597.485 558.399 597.797C557.823 598.093 557.252 598.675 556.685 599.545C555.802 600.899 555.423 602.136 555.546 603.256L554.48 603.784C554.397 603.105 554.48 602.356 554.728 601.539C554.984 600.711 555.399 599.856 555.973 598.975C556.741 597.797 557.547 596.988 558.392 596.548C559.237 596.092 560.004 596.074 560.694 596.492C561.118 596.749 561.44 597.128 561.66 597.63C561.88 598.132 562.004 598.907 562.033 599.954L562.225 605.553L566.37 599.195ZM572.084 587.408L570.576 589.72L572.742 591.032L571.967 592.221L569.801 590.909L565.549 597.432L564.937 597.061L563.471 587.624L564.332 586.303L565.797 595.44L569.07 590.419L567.163 589.264L567.917 588.108L569.823 589.263L571.33 586.951L572.084 587.408Z"
     fill="white"
     id="path2018" />
  <rect
     width="35.9369"
     height="205.639"
     transform="matrix(0.938191 -0.346117 0 1 676.921 97.5574)"
     fill="#9F94E2"
     id="rect2020" />
  <path
     d="M676.92 303.196L711.999 289.749L729.138 291.827L732.254 293.385L727.962 296.844L694.012 309.369L664.217 322.989L660.062 321.893V317.401L676.92 303.196Z"
     fill="#9F94E2"
     id="path2022" />
  <rect
     width="35.9369"
     height="205.639"
     transform="matrix(0.938191 -0.346117 0 1 681.116 98.5868)"
     fill="#191847"
     id="rect2024" />
  <path
     d="M681.116 98.5868L695.633 298.87L681.116 304.226V98.5868Z"
     fill="#302F66"
     id="path2026" />
  <path
     d="M681.116 304.226L714.831 291.787L732.157 293.381V297.873L664.258 322.923V318.431L681.116 304.226Z"
     fill="#4508BD"
     id="path2028" />
  <rect
     width="35.9369"
     height="185.674"
     transform="matrix(0.938191 -0.346117 0 1 513.841 156.765)"
     fill="#9F94E2"
     id="rect2030" />
  <path
     d="M513.84 342.439L548.919 328.702L565.019 330.779L569.174 332.857L530.932 348.612L501.137 362.46L496.982 360.902V356.644L513.84 342.439Z"
     fill="#9F94E2"
     id="path2032" />
  <rect
     width="35.9369"
     height="185.674"
     transform="matrix(0.938191 -0.346117 0 1 518.157 157.707)"
     fill="#191847"
     id="rect2034" />
  <path
     d="M518.157 157.707L533.142 337.853L518.157 343.381V157.707Z"
     fill="#302F66"
     id="path2036" />
  <path
     d="M518.158 343.381L551.873 330.943L569.199 332.537V337.029L501.3 362.078V357.586L518.158 343.381Z"
     fill="#4508BD"
     id="path2038" />
  <path
     d="M461.085 411.584L802.924 285.473L807.044 286.633L802.924 362.338L461.085 488.449V411.584Z"
     fill="#9F94E2"
     id="path2040" />
  <path
     d="M461.085 439.535L802.924 362.338L461.085 488.449V439.535Z"
     fill="#9F94E2"
     id="path2042" />
  <path
     d="M780.446 290.771L797.304 284.551V287.546L780.446 293.765V290.771Z"
     fill="#9F94E2"
     id="path2044" />
  <path
     d="M756.097 299.754L772.955 293.535V296.529L756.097 302.749V299.754Z"
     fill="#9F94E2"
     id="path2046" />
  <path
     d="M731.747 308.737L748.605 302.518V305.513L731.747 311.732V308.737Z"
     fill="#9F94E2"
     id="path2048" />
  <path
     d="M707.396 317.72L724.253 311.501V314.496L707.396 320.715V317.72Z"
     fill="#9F94E2"
     id="path2050" />
  <path
     d="M683.046 326.704L699.904 320.484V323.479L683.046 329.698V326.704Z"
     fill="#9F94E2"
     id="path2052" />
  <path
     d="M658.696 335.687L675.554 329.468V332.462L658.696 338.682V335.687Z"
     fill="#9F94E2"
     id="path2054" />
  <path
     d="M634.346 344.67L651.204 338.451V341.446L634.346 347.665V344.67Z"
     fill="#9F94E2"
     id="path2056" />
  <path
     d="M609.995 353.653L626.853 347.434V350.429L609.995 356.648V353.653Z"
     fill="#9F94E2"
     id="path2058" />
  <path
     d="M585.645 362.637L602.502 356.418L606.567 357.786L585.645 365.631V362.637Z"
     fill="#9F94E2"
     id="path2060" />
  <path
     d="M561.296 371.62L578.154 365.401L582.159 366.615L561.296 374.615V371.62Z"
     fill="#9F94E2"
     id="path2062" />
  <path
     d="M536.945 380.603L553.803 374.384L557.747 375.445L536.945 383.598V380.603Z"
     fill="#9F94E2"
     id="path2064" />
  <path
     d="M512.595 389.586L529.702 383.235L533.857 384.793L512.595 392.581V389.586Z"
     fill="#9F94E2"
     id="path2066" />
  <path
     d="M488.244 398.57L505.102 392.351L509.446 393.622L488.244 401.564V398.57Z"
     fill="#9F94E2"
     id="path2068" />
  <path
     d="M463.895 407.553L480.752 401.334L485.036 402.452L463.895 410.548V407.553Z"
     fill="#9F94E2"
     id="path2070" />
  <path
     d="M439.544 416.536L456.402 410.317L460.626 411.281L450.758 415.436L439.544 419.531V416.536Z"
     fill="#9F94E2"
     id="path2072" />
  <path
     d="M415.193 425.52L432.051 419.3L436.216 420.629L415.193 428.514V425.52Z"
     fill="#9F94E2"
     id="path2074" />
  <path
     d="M379.605 441.644L461.085 411.584V417.574L420.345 432.603L399.975 440.118L386.357 447.117L382.231 446.482C380.624 446.235 379.605 444.869 379.605 442.962L379.605 441.644Z"
     fill="#9F94E2"
     id="path2076" />
  <path
     d="M390.844 434.503L407.702 428.284L411.806 429.459L395.186 438.288L390.844 437.498V434.503Z"
     fill="#225709"
     id="path2078" />
  <path
     d="M414.923 425.247L431.781 419.028L436.217 420.629L419.078 429.459L414.923 428.42V425.247Z"
     fill="#225709"
     id="path2080" />
  <path
     d="M439.333 415.955L456.71 409.801L460.627 411.281L443.488 420.63L439.333 419.591V415.955Z"
     fill="#225709"
     id="path2082" />
  <path
     d="M463.743 407.711L480.882 401.413L485.037 402.452L467.898 412.385L463.743 411.346V407.711Z"
     fill="#225709"
     id="path2084" />
  <path
     d="M487.634 398.362L504.773 392.064L509.447 393.622L491.789 403.036L487.634 401.998V398.362Z"
     fill="#225709"
     id="path2086" />
  <path
     d="M512.563 389.205L529.703 383.235L533.857 384.274L516.718 393.879L512.563 392.841V389.205Z"
     fill="#225709"
     id="path2088" />
  <path
     d="M536.974 380.638L553.593 374.406L557.748 375.445L541.129 384.793L536.974 383.755V380.638Z"
     fill="#225709"
     id="path2090" />
  <path
     d="M561.384 371.264L578.004 365.032L582.158 366.615L565.539 375.445L561.384 374.406V371.264Z"
     fill="#225709"
     id="path2092" />
  <path
     d="M585.794 362.461L602.414 356.228L606.569 357.786L590.468 367.135L585.794 365.577V362.461Z"
     fill="#225709"
     id="path2094" />
  <path
     d="M610.204 353.606L626.824 347.374L630.979 348.438L614.878 358.28L610.204 356.722V353.606Z"
     fill="#225709"
     id="path2096" />
  <path
     d="M634.095 344.802L651.234 338.57L655.389 339.608L638.769 349.97L634.095 348.412V344.802Z"
     fill="#225709"
     id="path2098" />
  <path
     d="M657.985 335.973L675.644 329.221L679.799 330.779L662.66 341.206L657.985 339.648V335.973Z"
     fill="#225709"
     id="path2100" />
  <path
     d="M682.915 326.08L700.054 319.872L704.209 321.431L687.589 331.313L682.915 329.755V326.08Z"
     fill="#225709"
     id="path2102" />
  <path
     d="M706.806 317.341L723.945 311.134L728.1 312.692L711.48 322.575L706.806 321.017V317.341Z"
     fill="#225709"
     id="path2104" />
  <path
     d="M730.697 308.602L748.356 302.214L752.511 303.772L735.372 313.836L730.697 312.278V308.602Z"
     fill="#225709"
     id="path2106" />
  <path
     d="M755.627 299.682L772.766 293.475L776.921 294.943L760.301 304.916L755.627 303.358V299.682Z"
     fill="#225709"
     id="path2108" />
  <path
     d="M779.518 290.334L796.657 284.127L800.812 285.685L784.192 295.568L779.518 294.009V290.334Z"
     fill="#225709"
     id="path2110" />
  <rect
     width="364.36"
     height="76.865"
     transform="matrix(0.938191 -0.346117 0 1 465.239 412.623)"
     fill="#191847"
     id="rect2112" />
  <path
     d="M465.239 440.574L807.079 363.377L465.239 489.488V440.574Z"
     fill="#302F66"
     id="path2114" />
  <path
     d="M784.603 291.809L801.46 285.59V288.585L784.603 294.804V291.809Z"
     fill="#4BB31B"
     id="path2116" />
  <path
     d="M760.252 300.792L777.11 294.573V297.568L760.252 303.787V300.792Z"
     fill="#4BB31B"
     id="path2118" />
  <path
     d="M735.902 309.776L752.76 303.556V306.551L735.902 312.77V309.776Z"
     fill="#4BB31B"
     id="path2120" />
  <path
     d="M711.552 318.759L728.41 312.54V315.534L711.552 321.754V318.759Z"
     fill="#4BB31B"
     id="path2122" />
  <path
     d="M687.202 327.742L704.06 321.523V324.518L687.202 330.737V327.742Z"
     fill="#4BB31B"
     id="path2124" />
  <path
     d="M662.852 336.725L679.709 330.506V333.501L662.852 339.72V336.725Z"
     fill="#4BB31B"
     id="path2126" />
  <path
     d="M638.502 345.709L655.36 339.489V342.484L638.502 348.703V345.709Z"
     fill="#4BB31B"
     id="path2128" />
  <path
     d="M614.151 354.692L631.009 348.473V351.467L614.151 357.687V354.692Z"
     fill="#4BB31B"
     id="path2130" />
  <path
     d="M589.801 363.675L606.659 357.456V360.451L589.801 366.67V363.675Z"
     fill="#4BB31B"
     id="path2132" />
  <path
     d="M565.45 372.658L582.308 366.439V369.434L565.45 375.653V372.658Z"
     fill="#4BB31B"
     id="path2134" />
  <path
     d="M541.102 381.642L557.959 375.423V378.417L541.102 384.636V381.642Z"
     fill="#4BB31B"
     id="path2136" />
  <path
     d="M516.75 390.625L533.608 384.406V387.401L516.75 393.62V390.625Z"
     fill="#4BB31B"
     id="path2138" />
  <path
     d="M492.4 399.608L509.258 393.389V396.384L492.4 402.603V399.608Z"
     fill="#4BB31B"
     id="path2140" />
  <path
     d="M468.05 408.592L484.908 402.372V405.367L468.05 411.586V408.592Z"
     fill="#4BB31B"
     id="path2142" />
  <path
     d="M443.699 417.575L460.557 411.356V414.35L443.699 420.569V417.575Z"
     fill="#4BB31B"
     id="path2144" />
  <path
     d="M419.35 426.558L436.207 420.339V423.334L419.35 429.553V426.558Z"
     fill="#4BB31B"
     id="path2146" />
  <path
     d="M394.998 435.542L411.856 429.323V432.317L394.998 438.537V435.542Z"
     fill="#4BB31B"
     id="path2148" />
  <path
     d="M383.76 442.682L465.239 412.623V418.612L388.451 446.941C385.86 447.897 383.76 446.433 383.76 443.672V442.682Z"
     fill="#191847"
     id="path2150" />
  <path
     d="M603.127 285.522C604.621 282.729 606.129 281.331 608.559 279.511C611.175 277.551 613.063 276.354 615.661 276.446C617.614 276.514 618.783 276.934 619.838 278.467C620.922 280.041 620.222 281.878 620.674 283.947C621.174 286.238 621.822 287.288 622.345 289.565C623.142 293.038 623.598 298.899 623.598 298.899L611.901 304.551C611.901 304.551 610.548 303.192 609.394 302.803C608.358 302.455 607.516 302.875 606.47 302.546C605.11 302.119 604.468 301.581 603.545 300.508C601.894 298.588 601.53 296.762 601.456 293.709C601.384 290.7 601.478 288.607 603.127 285.522Z"
     fill="#D5F3F6"
     id="path2152" />
  <path
     fill-rule="evenodd"
     clip-rule="evenodd"
     d="M613.574 292.355C613.574 292.355 613.614 289.138 612.738 286.875C611.228 282.973 611.067 283.038 608.56 282.265C606.33 284.105 604.481 286.567 604.075 288.478C603.063 293.235 605.864 301.858 608.657 300.801C609.771 300.379 612.738 298.452 613.156 296.517C613.573 294.582 613.574 292.355 613.574 292.355Z"
     fill="#D4A181"
     id="path2154" />
  <path
     opacity="0.7"
     d="M604.399 284.574C605.892 281.781 608.281 281.887 610.249 282.861C613.017 284.23 613.598 291.582 613.591 291.87C613.584 292.158 613.573 296.808 611.902 299.206C610.231 301.604 608.787 301.927 607.741 301.599C606.381 301.171 605.739 300.633 604.817 299.56C603.166 297.64 602.802 295.814 602.728 292.761C602.655 289.752 602.75 287.659 604.399 284.574Z"
     fill="#C4C4C4"
     id="path2156" />
  <path
     fill-rule="evenodd"
     clip-rule="evenodd"
     d="M635.744 331.964L621.509 387.117L614.813 427.055L608.093 429.534L614.801 339.69L635.744 331.964Z"
     fill="#BA8B72"
     id="path2158" />
  <path
     fill-rule="evenodd"
     clip-rule="evenodd"
     d="M642.141 329.604C641.148 355.894 641.54 369.889 641.762 372.162C641.984 374.436 643.247 389.744 651.847 414.183L644.857 416.761C633.467 394.475 629.491 380.167 628.185 377.171C626.879 374.175 623.021 361.459 617.388 338.736L642.141 329.604Z"
     fill="#D4A181"
     id="path2160" />
  <path
     fill-rule="evenodd"
     clip-rule="evenodd"
     d="M636.049 331.851C632.346 350.389 624.766 385.502 615.66 426.509L611.483 428.941L607.305 428.701C606.579 390.327 609.369 359.848 614.717 339.721L636.049 331.851Z"
     fill="#C4E6F8"
     id="path2162" />
  <path
     fill-rule="evenodd"
     clip-rule="evenodd"
     d="M642.191 329.586C641.218 355.868 644.615 385.549 652.425 413.837L644.069 415.584C632.659 393.7 621.473 368.355 615.883 339.291L642.191 329.586Z"
     fill="#D5F3F7"
     id="path2164" />
  <path
     fill-rule="evenodd"
     clip-rule="evenodd"
     d="M652.843 418.955L652.457 412.772C650.199 414.276 647.371 415.056 643.972 415.111C640.318 419.092 635.718 422.587 630.172 425.596C629.749 425.826 629.464 426.339 629.537 426.743C629.541 426.769 629.547 426.795 629.555 426.819L630.088 428.535L643.972 423.413L652.071 420.425L652.843 418.955Z"
     fill="white"
     id="path2166" />
  <path
     fill-rule="evenodd"
     clip-rule="evenodd"
     d="M616.313 432.431L615.928 426.248C613.67 427.753 610.842 428.533 607.443 428.588C603.789 432.569 599.189 436.064 593.643 439.073C593.22 439.302 592.935 439.816 593.007 440.22C593.012 440.246 593.018 440.271 593.026 440.296L593.559 442.012L607.443 436.89L615.542 433.902L616.313 432.431Z"
     fill="white"
     id="path2168" />
  <path
     fill-rule="evenodd"
     clip-rule="evenodd"
     d="M607.936 319.999L593.369 320.354C590.697 319.067 588.162 318.321 585.762 318.114C585.058 318.213 583.883 318.683 585.29 319.907C586.697 321.13 588.1 322.51 587.657 323.367C587.214 324.224 585.709 324.191 585.23 325.475C584.91 326.331 587.416 326.032 592.748 324.579L603.958 327.702L607.936 319.999ZM588.213 337.251L581.813 337.398C580.445 334.88 579.19 333.924 578.048 334.53C577.101 334.622 579.319 337.536 577.6 338.12C575.882 338.704 571.304 338.057 570.714 339.021C569.842 340.448 571.251 342.587 572.579 343.308C575.06 344.655 576.893 344.576 581.242 343.403C583.516 342.79 586.073 342.659 588.913 343.009L588.213 337.251Z"
     fill="#C4E6F8"
     id="path2170" />
  <path
     fill-rule="evenodd"
     clip-rule="evenodd"
     d="M614.121 314.908C609.459 317.412 603.082 319.878 595.72 319.506L594.143 326.453C599.508 328.265 606.586 328.29 612.173 325.061C616.575 322.517 617.893 316.181 614.121 314.908Z"
     fill="#70B8C0"
     id="path2172" />
  <path
     fill-rule="evenodd"
     clip-rule="evenodd"
     d="M609.496 327.197C604.774 331.078 596.234 334.236 583.878 336.672C582.046 343.935 581.463 348.716 582.128 351.016C593.021 350.509 601.98 348.033 609.05 344.318C609.563 348.42 610.773 351.928 613.122 354.451C617.953 359.638 637.303 341.771 644.46 339.276C646.311 323.506 636.928 322.655 635.334 314.088C633.589 304.706 623 294.599 621.835 295.237L611.216 301.059C611.958 308.549 610.471 318.065 609.496 327.197Z"
     fill="#84D5DE"
     id="path2174" />
  <path
     d="M352.599 475.367L352.598 472.566L366.004 460.101L377.527 457.504L377.527 460.621L364.48 475.469L352.599 475.367Z"
     fill="#225709"
     id="path2176" />
  <path
     d="M352.39 472.755L365.795 457.489L377.676 457.59L364.271 472.856L352.39 472.755Z"
     fill="#4BB31B"
     id="path2178" />
  <path
     d="M354.971 471.482L366.029 458.889L375.077 458.967L364.019 471.56L354.971 471.482Z"
     stroke="#A2E782"
     id="path2180" />
  <path
     d="M366.831 464.676L365.268 464.157C365.086 464.097 365.088 463.91 365.27 463.703C365.498 463.444 365.927 463.236 366.229 463.239L367.46 463.249C367.686 463.251 367.857 463.312 367.948 463.422C368.004 463.488 368.17 463.473 368.338 463.393L369.458 462.858C369.687 462.749 369.829 462.566 369.767 462.468C369.581 462.158 369.162 461.983 368.581 461.977L369.251 461.213C369.374 461.073 369.341 460.958 369.178 460.956L368.584 460.951C368.421 460.95 368.186 461.063 368.063 461.203L367.393 461.967L367.347 461.966C366.164 461.956 364.45 462.818 363.653 463.851C363.087 464.585 363.217 465.187 363.859 465.401L365.343 465.894C365.523 465.955 365.523 466.141 365.341 466.348C365.113 466.607 364.684 466.815 364.381 466.812L363.151 466.802C362.925 466.8 362.754 466.739 362.663 466.629C362.607 466.563 362.441 466.578 362.273 466.658L361.152 467.193C360.924 467.302 360.782 467.485 360.844 467.583C361.03 467.893 361.449 468.068 362.03 468.074L361.36 468.838C361.237 468.978 361.27 469.093 361.433 469.095L362.027 469.1C362.19 469.101 362.424 468.988 362.547 468.848L363.221 468.081C364.098 468.074 365.296 467.641 366.198 466.942C367.457 465.965 367.67 464.954 366.831 464.676Z"
     fill="#225709"
     id="path2182" />
  <path
     d="M334.939 585.424L342.548 562.992L356.431 558.78L358.311 559.819L348.822 581.213L337.017 586.307L334.939 585.424Z"
     fill="#225709"
     id="path2184" />
  <path
     d="M336.994 586.686L344.603 564.254L358.486 560.043L350.877 582.475L336.994 586.686Z"
     fill="#4BB31B"
     id="path2186" />
  <path
     d="M339.247 584.405L345.597 565.685L356.266 562.448L349.917 581.169L339.247 584.405Z"
     stroke="#A2E782"
     id="path2188" />
  <path
     d="M349.573 572.139L347.481 572.11C347.238 572.109 347.142 571.892 347.245 571.588C347.375 571.208 347.766 570.812 348.119 570.705L349.557 570.269C349.821 570.189 350.052 570.196 350.215 570.289C350.315 570.345 350.501 570.268 350.654 570.114L351.678 569.091C351.887 568.883 351.956 568.621 351.833 568.53C351.454 568.242 350.876 568.194 350.195 568.398L350.576 567.276C350.646 567.07 350.547 566.95 350.356 567.007L349.662 567.218C349.471 567.276 349.258 567.491 349.188 567.697L348.807 568.819L348.753 568.835C347.372 569.254 345.828 570.87 345.441 572.347C345.167 573.397 345.633 574.042 346.493 574.054L348.478 574.081C348.72 574.085 348.816 574.299 348.713 574.603C348.584 574.984 348.193 575.379 347.84 575.486L346.402 575.922C346.137 576.003 345.907 575.995 345.744 575.902C345.644 575.846 345.458 575.923 345.305 576.077L344.281 577.1C344.072 577.308 344.002 577.571 344.125 577.661C344.505 577.949 345.083 577.997 345.764 577.793L345.383 578.915C345.313 579.121 345.412 579.242 345.603 579.184L346.297 578.973C346.488 578.915 346.701 578.7 346.771 578.494L347.153 577.368C348.171 577.04 349.338 576.105 350.022 574.973C350.976 573.392 350.694 572.153 349.573 572.139Z"
     fill="#225709"
     id="path2190" />
  <path
     d="M363.237 535.225L356.073 515.993L368.558 509.296L370.615 510.335L375.723 528.527L365.421 535.784L363.237 535.225Z"
     fill="#225709"
     id="path2192" />
  <path
     d="M365.339 536.03L358.174 516.798L370.66 510.101L377.825 529.332L365.339 536.03Z"
     fill="#4BB31B"
     id="path2194" />
  <path
     d="M366.311 533.723L360.304 517.598L369.815 512.496L375.822 528.621L366.311 533.723Z"
     stroke="#A2E782"
     id="path2196" />
  <path
     d="M369.182 521.663L366.84 522.16C366.569 522.219 366.312 522.075 366.215 521.815C366.093 521.488 366.252 521.086 366.57 520.915L367.863 520.222C368.101 520.094 368.363 520.043 368.609 520.074C368.758 520.093 368.911 519.987 368.974 519.83L369.399 518.785C369.486 518.572 369.381 518.352 369.181 518.313C368.56 518.185 367.883 518.29 367.27 518.617L366.912 517.655C366.846 517.479 366.652 517.41 366.48 517.502L365.856 517.837C365.684 517.929 365.598 518.148 365.663 518.325L366.022 519.286L365.973 519.312C364.731 519.979 364.14 521.61 364.74 522.849C365.166 523.729 366.132 524.112 367.095 523.908L369.318 523.437C369.59 523.38 369.846 523.521 369.943 523.782C370.065 524.108 369.906 524.511 369.588 524.681L368.295 525.375C368.057 525.503 367.795 525.554 367.549 525.522C367.4 525.504 367.247 525.61 367.184 525.767L366.759 526.812C366.672 527.024 366.777 527.244 366.977 527.284C367.598 527.412 368.275 527.306 368.888 526.98L369.246 527.942C369.312 528.118 369.506 528.187 369.678 528.095L370.302 527.76C370.473 527.668 370.56 527.448 370.494 527.272L370.135 526.306C371.037 525.801 371.682 524.789 371.654 523.744C371.613 522.285 370.437 521.396 369.182 521.663Z"
     fill="#225709"
     id="path2198" />
  <path
     d="M271.577 611.85L270.538 609.678L283.264 586.826L296.507 584.749L297.557 586.898L285.871 611.922L271.577 611.85Z"
     fill="#225709"
     id="path2200" />
  <path
     d="M270.575 609.617L282.261 584.594L296.555 584.666L284.869 609.689L270.575 609.617Z"
     fill="#4BB31B"
     id="path2202" />
  <path
     d="M273.128 607.711L282.947 586.685L294.011 586.74L284.192 607.767L273.128 607.711Z"
     stroke="#A2E782"
     id="path2204" />
  <path
     d="M285.58 596.317L283.554 595.481C283.318 595.386 283.267 595.08 283.425 594.741C283.623 594.316 284.079 593.973 284.443 593.975L285.923 593.983C286.195 593.984 286.418 594.082 286.559 594.26C286.645 594.368 286.84 594.343 287.019 594.21L288.21 593.328C288.452 593.149 288.57 592.849 288.468 592.689C288.154 592.186 287.601 591.903 286.902 591.897L287.486 590.646C287.593 590.416 287.52 590.228 287.324 590.227L286.609 590.223C286.413 590.222 286.164 590.409 286.057 590.638L285.473 591.89L285.417 591.89C283.995 591.882 282.185 593.303 281.527 594.995C281.059 596.198 281.389 597.179 282.222 597.523L284.145 598.317C284.379 598.415 284.432 598.718 284.274 599.057C284.076 599.482 283.62 599.824 283.256 599.823L281.776 599.815C281.503 599.814 281.281 599.716 281.14 599.538C281.054 599.43 280.859 599.455 280.68 599.588L279.489 600.47C279.247 600.649 279.129 600.949 279.231 601.109C279.545 601.612 280.098 601.895 280.797 601.901L280.213 603.152C280.106 603.382 280.179 603.57 280.375 603.571L281.09 603.575C281.286 603.576 281.535 603.389 281.642 603.159L282.229 601.903C283.28 601.885 284.593 601.167 285.474 600.019C286.704 598.416 286.667 596.764 285.58 596.317Z"
     fill="#225709"
     id="path2206" />
  <path
     d="M174.977 890.051L174.457 887.02L190.495 868.323L200.426 871.439L200.976 874.097L185.458 895.826L174.977 890.051Z"
     fill="#225709"
     id="path2208" />
  <path
     d="M174.588 887.074L190.106 865.346L200.587 871.121L185.069 892.849L174.588 887.074Z"
     fill="#4BB31B"
     id="path2210" />
  <path
     d="M177.037 886.076L190.044 867.864L198.096 872.3L185.089 890.513L177.037 886.076Z"
     stroke="#A2E782"
     id="path2212" />
  <path
     d="M189.297 879.032L188.039 877.342C187.893 877.148 187.94 876.804 188.15 876.51C188.413 876.141 188.843 875.961 189.11 876.108L190.195 876.707C190.395 876.817 190.531 877.009 190.585 877.253C190.619 877.401 190.769 877.452 190.937 877.383L192.056 876.928C192.284 876.835 192.454 876.566 192.423 876.357C192.332 875.701 192.004 875.183 191.492 874.897L192.268 873.811C192.41 873.612 192.409 873.384 192.265 873.304L191.741 873.016C191.597 872.936 191.362 873.034 191.22 873.233L190.444 874.32L190.403 874.298C189.36 873.723 187.637 874.499 186.685 876.022C186.008 877.103 185.978 878.27 186.495 878.964L187.688 880.568C187.833 880.765 187.788 881.106 187.578 881.4C187.314 881.769 186.885 881.949 186.618 881.802L185.532 881.203C185.333 881.093 185.196 880.901 185.142 880.657C185.109 880.509 184.958 880.458 184.791 880.527L183.671 880.982C183.443 881.075 183.274 881.344 183.304 881.553C183.395 882.209 183.723 882.727 184.236 883.013L183.46 884.099C183.317 884.298 183.319 884.526 183.463 884.606L183.987 884.894C184.131 884.974 184.365 884.876 184.508 884.677L185.287 883.585C186.064 883.985 187.228 883.753 188.193 882.893C189.541 881.693 189.971 879.936 189.297 879.032Z"
     fill="#225709"
     id="path2214" />
  <path
     d="M195.75 817.467L195.75 814.828L211.482 800.805L221.199 803.402L221.199 805.999L205.916 822.416L195.75 817.467Z"
     fill="#225709"
     id="path2216" />
  <path
     d="M195.357 814.97L211.09 798.308L221.256 803.258L205.524 819.919L195.357 814.97Z"
     fill="#4BB31B"
     id="path2218" />
  <path
     d="M197.859 814.222L210.942 800.367L218.709 804.148L205.626 818.004L197.859 814.222Z"
     stroke="#A2E782"
     id="path2220" />
  <path
     d="M209.986 809.123L208.789 807.739C208.65 807.58 208.703 807.31 208.916 807.084C209.184 806.801 209.609 806.674 209.868 806.8L210.921 807.313C211.115 807.407 211.245 807.564 211.292 807.759C211.322 807.878 211.468 807.924 211.635 807.875L212.745 807.554C212.97 807.489 213.143 807.282 213.118 807.115C213.043 806.592 212.733 806.17 212.236 805.925L213.022 805.092C213.167 804.939 213.17 804.759 213.031 804.691L212.522 804.443C212.383 804.375 212.15 804.445 212.006 804.597L211.219 805.431L211.18 805.411C210.168 804.919 208.458 805.473 207.488 806.645C206.799 807.477 206.744 808.401 207.236 808.969L208.372 810.283C208.51 810.444 208.458 810.712 208.245 810.938C207.977 811.221 207.551 811.348 207.293 811.222L206.24 810.709C206.046 810.615 205.916 810.458 205.869 810.263C205.839 810.144 205.692 810.098 205.526 810.147L204.416 810.468C204.191 810.533 204.018 810.74 204.043 810.907C204.118 811.43 204.428 811.852 204.925 812.096L204.139 812.93C203.994 813.082 203.991 813.263 204.13 813.331L204.639 813.579C204.778 813.647 205.011 813.577 205.155 813.424L205.945 812.588C206.7 812.932 207.848 812.789 208.815 812.143C210.166 811.24 210.629 809.864 209.986 809.123Z"
     fill="#225709"
     id="path2222" />
  <path
     d="M297.863 708.775L296.507 686.537L308.453 684.467L310.01 686.026L309.809 706.706L299.624 710.436L297.863 708.775Z"
     fill="#225709"
     id="path2224" />
  <path
     d="M299.596 710.358L298.24 688.12L310.186 686.051L311.542 708.289L299.596 710.358Z"
     fill="#4BB31B"
     id="path2226" />
  <path
     d="M300.968 708.373L299.832 689.743L308.896 688.173L310.032 706.803L300.968 708.373Z"
     stroke="#A2E782"
     id="path2228" />
  <path
     d="M306.205 697.229L304.145 696.846C303.907 696.803 303.728 696.56 303.71 696.259C303.687 695.881 303.915 695.533 304.219 695.48L305.456 695.266C305.684 695.226 305.913 695.273 306.109 695.399C306.229 695.474 306.38 695.424 306.47 695.289L307.071 694.389C307.194 694.206 307.159 693.943 307.003 693.827C306.519 693.462 305.933 693.313 305.347 693.412L305.279 692.3C305.266 692.096 305.122 691.952 304.958 691.981L304.361 692.084C304.196 692.113 304.072 692.303 304.085 692.507L304.152 693.619L304.106 693.627C302.917 693.833 302.039 695.265 302.241 696.75C302.384 697.805 303.094 698.56 303.941 698.717L305.896 699.081C306.134 699.126 306.313 699.367 306.332 699.668C306.355 700.046 306.127 700.394 305.823 700.447L304.586 700.661C304.358 700.701 304.129 700.654 303.932 700.529C303.813 700.453 303.661 700.503 303.571 700.638L302.97 701.538C302.847 701.721 302.882 701.984 303.038 702.1C303.523 702.466 304.109 702.615 304.695 702.515L304.763 703.627C304.775 703.831 304.92 703.975 305.084 703.946L305.681 703.843C305.845 703.815 305.969 703.624 305.957 703.421L305.889 702.304C306.757 702.132 307.533 701.349 307.759 700.278C308.073 698.781 307.31 697.434 306.205 697.229Z"
     fill="#225709"
     id="path2230" />
  <path
     d="M350.707 977.064L349.351 954.826L361.297 952.757L362.854 954.315L362.653 974.995L352.467 978.725L350.707 977.064Z"
     fill="#225709"
     id="path2232" />
  <path
     d="M352.439 978.648L351.084 956.409L363.03 954.34L364.386 976.578L352.439 978.648Z"
     fill="#4BB31B"
     id="path2234" />
  <path
     d="M353.812 976.662L352.676 958.032L361.74 956.462L362.876 975.092L353.812 976.662Z"
     stroke="#A2E782"
     id="path2236" />
  <path
     d="M359.049 965.518L356.989 965.135C356.751 965.092 356.572 964.85 356.554 964.548C356.531 964.171 356.758 963.822 357.062 963.77L358.3 963.555C358.527 963.516 358.756 963.563 358.953 963.688C359.072 963.763 359.224 963.713 359.314 963.579L359.915 962.678C360.038 962.495 360.003 962.232 359.847 962.116C359.363 961.751 358.776 961.602 358.19 961.701L358.123 960.589C358.11 960.385 357.966 960.242 357.801 960.27L357.204 960.373C357.04 960.402 356.916 960.592 356.928 960.796L356.996 961.908L356.949 961.916C355.761 962.122 354.883 963.555 355.084 965.039C355.228 966.094 355.938 966.849 356.785 967.007L358.74 967.37C358.978 967.416 359.157 967.656 359.175 967.957C359.198 968.335 358.971 968.684 358.666 968.736L357.429 968.951C357.202 968.99 356.972 968.943 356.776 968.818C356.657 968.743 356.505 968.792 356.415 968.927L355.814 969.827C355.691 970.01 355.726 970.273 355.882 970.389C356.366 970.755 356.952 970.904 357.539 970.805L357.606 971.917C357.619 972.121 357.763 972.264 357.927 972.236L358.525 972.132C358.689 972.104 358.813 971.914 358.801 971.71L358.733 970.593C359.601 970.422 360.377 969.639 360.602 968.567C360.916 967.07 360.154 965.723 359.049 965.518Z"
     fill="#225709"
     id="path2238" />
  <path
     d="M243.531 760.814L240.415 760.814L241.454 739.423L252.36 726.536L255.195 727.055L256.618 749.406L243.531 760.814Z"
     fill="#225709"
     id="path2240" />
  <path
     d="M240.125 760.903L238.702 738.553L252.443 726.185L253.866 748.535L240.125 760.903Z"
     fill="#4BB31B"
     id="path2242" />
  <path
     d="M241.604 757.738L240.411 739.008L251.059 729.424L252.252 748.154L241.604 757.738Z"
     stroke="#A2E782"
     id="path2244" />
  <path
     d="M247.8 741.393L245.435 742.744C245.161 742.901 244.957 742.797 244.938 742.494C244.913 742.115 245.177 741.552 245.527 741.238L246.95 739.957C247.212 739.721 247.475 739.575 247.7 739.54C247.837 739.518 248.011 739.336 248.115 739.117L248.812 737.653C248.954 737.355 248.916 737.107 248.737 737.117C248.183 737.144 247.51 737.486 246.836 738.09L246.765 736.972C246.752 736.767 246.586 736.739 246.397 736.909L245.711 737.527C245.522 737.697 245.378 738.004 245.391 738.209L245.462 739.326L245.408 739.375C244.041 740.605 243.023 742.868 243.246 744.265C243.405 745.258 244.216 745.451 245.188 744.896L247.433 743.614C247.706 743.459 247.91 743.561 247.93 743.864C247.954 744.243 247.69 744.806 247.34 745.12L245.917 746.401C245.655 746.637 245.392 746.783 245.167 746.818C245.03 746.84 244.856 747.022 244.752 747.241L244.055 748.705C243.913 749.003 243.952 749.251 244.13 749.241C244.685 749.214 245.357 748.872 246.031 748.268L246.103 749.386C246.116 749.591 246.281 749.619 246.47 749.449L247.157 748.831C247.346 748.661 247.489 748.354 247.476 748.149L247.405 747.027C248.404 746.106 249.301 744.616 249.566 743.292C249.936 741.442 249.068 740.668 247.8 741.393Z"
     fill="#225709"
     id="path2246" />
  <path
     d="M308.062 568.788L297.545 553.36L298.585 550.99L308.801 547.355L319.878 560.339L318.839 562.936L308.062 568.788Z"
     fill="#225709"
     id="path2248" />
  <path
     d="M308.782 566.594L298.266 551.166L309.522 545.161L320.038 560.589L308.782 566.594Z"
     fill="#4BB31B"
     id="path2250" />
  <path
     d="M309.382 564.629L300.582 551.718L309.065 547.192L317.865 560.104L309.382 564.629Z"
     stroke="#A2E782"
     id="path2252" />
  <path
     d="M310.083 554.681L307.838 555.186C307.579 555.245 307.298 555.139 307.155 554.93C306.977 554.668 307.064 554.332 307.351 554.179L308.517 553.557C308.731 553.443 308.983 553.39 309.233 553.405C309.385 553.414 309.518 553.321 309.554 553.19L309.793 552.317C309.843 552.14 309.699 551.964 309.493 551.94C308.852 551.861 308.197 551.976 307.644 552.269L307.118 551.498C307.021 551.356 306.816 551.308 306.661 551.391L306.099 551.691C305.944 551.773 305.896 551.957 305.993 552.098L306.518 552.87L306.474 552.893C305.354 553.491 305.054 554.85 305.868 555.838C306.447 556.54 307.477 556.812 308.4 556.605L310.531 556.126C310.791 556.068 311.071 556.173 311.214 556.382C311.392 556.644 311.305 556.98 311.018 557.133L309.853 557.754C309.638 557.869 309.387 557.922 309.136 557.906C308.984 557.898 308.851 557.991 308.815 558.122L308.576 558.994C308.527 559.172 308.67 559.347 308.876 559.371C309.517 559.45 310.172 559.335 310.726 559.042L311.251 559.814C311.348 559.955 311.553 560.003 311.708 559.921L312.271 559.621C312.425 559.538 312.473 559.355 312.377 559.213L311.849 558.439C312.658 557.987 313.123 557.132 312.911 556.279C312.614 555.087 311.287 554.41 310.083 554.681Z"
     fill="#225709"
     id="path2254" />
  <path
     d="M207.177 713.293L223.796 697.971L226.808 697.971L233.337 708.381L213.706 723.703L210.812 723.703L207.177 713.293Z"
     fill="#225709"
     id="path2256" />
  <path
     d="M204.245 713.1L223.876 697.778L230.405 708.188L210.774 723.51L204.245 713.1Z"
     fill="#4BB31B"
     id="path2258" />
  <path
     d="M206.559 713.146L222.991 700.32L228.002 708.309L211.569 721.135L206.559 713.146Z"
     stroke="#A2E782"
     id="path2260" />
  <path
     d="M218.721 711.319L218.266 709.058C218.212 708.797 218.363 708.469 218.628 708.262C218.962 708.001 219.366 708.005 219.533 708.27L220.209 709.349C220.333 709.547 220.38 709.801 220.343 710.072C220.321 710.237 220.425 710.354 220.583 710.357L221.633 710.381C221.846 710.386 222.071 710.186 222.116 709.96C222.258 709.255 222.165 708.587 221.847 708.075L222.829 707.308C223.009 707.168 223.082 706.936 222.993 706.793L222.666 706.272C222.577 706.129 222.356 706.127 222.176 706.268L221.194 707.034L221.169 706.993C220.519 705.957 218.878 705.998 217.611 707.13C216.711 707.934 216.303 709.105 216.49 710.035L216.922 712.18C216.974 712.443 216.825 712.769 216.559 712.977C216.226 713.237 215.821 713.233 215.655 712.968L214.979 711.89C214.854 711.692 214.808 711.437 214.845 711.166C214.866 711.002 214.762 710.884 214.605 710.881L213.555 710.858C213.341 710.853 213.116 711.053 213.072 711.278C212.929 711.983 213.022 712.652 213.341 713.164L212.359 713.93C212.179 714.071 212.105 714.303 212.195 714.446L212.521 714.966C212.611 715.109 212.832 715.111 213.012 714.971L213.997 714.201C214.491 714.945 215.503 715.213 216.562 714.76C218.041 714.126 218.966 712.53 218.721 711.319Z"
     fill="#225709"
     id="path2262" />
  <path
     d="M380.902 918.131L362.239 912.57L361.201 910.261L370.557 898.835L388.208 901.951L389.22 904.396L380.902 918.131Z"
     fill="#225709"
     id="path2264" />
  <path
     d="M379.914 915.805L361.251 910.244L369.568 896.509L388.232 902.07L379.914 915.805Z"
     fill="#4BB31B"
     id="path2266" />
  <path
     d="M379.483 913.712L363.824 909.046L370.178 898.554L385.837 903.22L379.483 913.712Z"
     stroke="#A2E782"
     id="path2268" />
  <path
     d="M375.067 904.409L373.05 906.543C372.817 906.791 372.477 906.909 372.224 906.834C371.907 906.74 371.822 906.38 372.034 906.03L372.895 904.608C373.054 904.346 373.282 904.11 373.544 903.935C373.703 903.828 373.79 903.646 373.758 903.505L373.549 902.561C373.507 902.369 373.271 902.324 373.049 902.458C372.358 902.872 371.752 903.467 371.342 904.14L370.409 903.862C370.238 903.811 370.004 903.924 369.89 904.113L369.474 904.799C369.36 904.988 369.406 905.184 369.577 905.235L370.511 905.513L370.478 905.567C369.651 906.933 370.049 908.349 371.388 908.598C372.338 908.775 373.525 908.237 374.355 907.36L376.27 905.335C376.504 905.088 376.843 904.969 377.095 905.044C377.412 905.138 377.498 905.498 377.286 905.848L376.424 907.27C376.266 907.532 376.038 907.768 375.776 907.943C375.617 908.05 375.53 908.232 375.561 908.373L375.77 909.317C375.812 909.509 376.049 909.554 376.27 909.42C376.962 909.006 377.567 908.411 377.977 907.738L378.911 908.016C379.082 908.067 379.315 907.954 379.43 907.766L379.845 907.079C379.96 906.89 379.913 906.694 379.742 906.643L378.805 906.364C379.393 905.359 379.422 904.261 378.765 903.675C377.846 902.857 376.148 903.265 375.067 904.409Z"
     fill="#225709"
     id="path2270" />
  <path
     d="M280.926 658.048L279.888 655.383L290.652 631.492L301.182 632.531L302.334 635.214L292.607 661.77L280.926 658.048Z"
     fill="#225709"
     id="path2272" />
  <path
     d="M279.542 655.336L289.268 628.78L300.95 632.501L291.224 659.057L279.542 655.336Z"
     fill="#4BB31B"
     id="path2274" />
  <path
     d="M281.667 653.769L289.857 631.41L298.834 634.27L290.645 656.629L281.667 653.769Z"
     stroke="#A2E782"
     id="path2276" />
  <path
     d="M291.899 643.458L290.248 641.956C290.057 641.784 290.017 641.41 290.148 641.05C290.313 640.599 290.688 640.311 290.985 640.405L292.195 640.791C292.418 640.862 292.599 641.034 292.713 641.28C292.783 641.429 292.942 641.449 293.089 641.338L294.069 640.6C294.268 640.45 294.366 640.126 294.284 639.912C294.031 639.238 293.582 638.764 293.01 638.579L293.496 637.251C293.585 637.007 293.527 636.766 293.366 636.715L292.782 636.529C292.622 636.478 292.417 636.635 292.328 636.879L291.842 638.207L291.796 638.192C290.634 637.822 289.145 639.037 288.595 640.867C288.205 642.167 288.467 643.409 289.145 644.027L290.712 645.453C290.902 645.628 290.944 646 290.812 646.359C290.647 646.81 290.272 647.099 289.975 647.004L288.765 646.618C288.542 646.548 288.361 646.375 288.247 646.129C288.177 645.98 288.018 645.96 287.871 646.071L286.892 646.809C286.692 646.959 286.594 647.283 286.676 647.498C286.929 648.171 287.379 648.645 287.951 648.831L287.464 650.159C287.375 650.402 287.433 650.643 287.594 650.694L288.178 650.88C288.338 650.932 288.543 650.774 288.632 650.531L289.12 649.197C289.98 649.443 291.058 648.931 291.786 647.8C292.802 646.221 292.784 644.263 291.899 643.458Z"
     fill="#225709"
     id="path2278" />
  <path
     d="M292.353 814.463L291.832 812.232L305.509 796.651L316.243 795.612L316.762 798.209L304.044 815.745L292.353 814.463Z"
     fill="#225709"
     id="path2280" />
  <path
     d="M291.538 812.314L304.695 794.502L316.386 795.784L303.229 813.596L291.538 812.314Z"
     fill="#4BB31B"
     id="path2282" />
  <path
     d="M294.04 811.009L304.95 796.238L313.868 797.216L302.958 811.987L294.04 811.009Z"
     stroke="#A2E782"
     id="path2284" />
  <path
     d="M305.73 803.602L304.191 802.799C304.012 802.707 304.013 802.473 304.192 802.231C304.415 801.929 304.837 801.71 305.135 801.743L306.345 801.876C306.568 801.9 306.737 801.993 306.826 802.139C306.881 802.228 307.045 802.225 307.21 802.141L308.311 801.58C308.535 801.466 308.675 801.251 308.614 801.122C308.43 800.716 308.018 800.457 307.446 800.392L308.104 799.501C308.224 799.338 308.191 799.19 308.031 799.172L307.446 799.108C307.286 799.09 307.055 799.209 306.935 799.373L306.277 800.264L306.231 800.259C305.068 800.131 303.383 801.043 302.601 802.26C302.046 803.124 302.175 803.89 302.808 804.22L304.268 804.982C304.446 805.076 304.446 805.309 304.267 805.55C304.044 805.852 303.622 806.071 303.324 806.038L302.114 805.905C301.891 805.881 301.722 805.788 301.633 805.642C301.578 805.554 301.414 805.556 301.249 805.64L300.148 806.201C299.924 806.315 299.784 806.531 299.845 806.66C300.029 807.065 300.441 807.325 301.013 807.39L300.355 808.28C300.235 808.444 300.268 808.592 300.428 808.609L301.013 808.673C301.173 808.691 301.404 808.572 301.524 808.409L302.185 807.514C303.048 807.591 304.226 807.164 305.112 806.377C306.349 805.277 306.556 804.032 305.73 803.602Z"
     fill="#225709"
     id="path2286" />
  <path
     d="M206.091 989.146L194.633 974.644L194.633 972.007L206.09 966.294L217.485 978.759L217.485 980.836L206.091 989.146Z"
     fill="#225709"
     id="path2288" />
  <path
     d="M206.036 986.784L194.378 972.035L205.836 963.685L217.494 978.434L206.036 986.784Z"
     fill="#4BB31B"
     id="path2290" />
  <path
     d="M206.549 984.602L196.783 972.248L205.473 965.915L215.238 978.269L206.549 984.602Z"
     stroke="#A2E782"
     id="path2292" />
  <path
     d="M206.853 973.794L204.536 974.717C204.268 974.825 203.971 974.758 203.813 974.559C203.615 974.308 203.691 973.933 203.982 973.721L205.169 972.856C205.387 972.697 205.647 972.597 205.909 972.571C206.068 972.554 206.202 972.432 206.233 972.286L206.443 971.31C206.487 971.111 206.329 970.947 206.113 970.957C205.442 970.981 204.764 971.216 204.201 971.624L203.618 970.886C203.511 970.751 203.295 970.734 203.137 970.849L202.565 971.267C202.407 971.381 202.366 971.586 202.473 971.721L203.056 972.459L203.011 972.491C201.871 973.322 201.619 974.831 202.513 975.751C203.148 976.404 204.233 976.521 205.186 976.142L207.384 975.266C207.653 975.16 207.95 975.225 208.108 975.424C208.306 975.675 208.23 976.05 207.938 976.262L206.751 977.127C206.533 977.286 206.273 977.386 206.012 977.412C205.853 977.429 205.718 977.551 205.687 977.697L205.477 978.673C205.434 978.872 205.591 979.036 205.807 979.026C206.479 979.002 207.156 978.767 207.719 978.359L208.302 979.097C208.409 979.232 208.626 979.249 208.783 979.134L209.356 978.716C209.513 978.602 209.555 978.397 209.448 978.262L208.862 977.521C209.685 976.9 210.131 975.904 209.871 975.025C209.508 973.798 208.094 973.298 206.853 973.794Z"
     fill="#225709"
     id="path2294" />
  <path
     d="M238.858 858.455L236.78 856.897L243.7 834.045L253.4 833.526L255.287 835.305L249.925 859.782L238.858 858.455Z"
     fill="#225709"
     id="path2296" />
  <path
     d="M236.749 856.868L242.111 832.391L253.697 833.651L248.336 858.128L236.749 856.868Z"
     fill="#4BB31B"
     id="path2298" />
  <path
     d="M238.579 855.128L243.075 834.603L251.905 835.563L247.409 856.089L238.579 855.128Z"
     stroke="#A2E782"
     id="path2300" />
  <path
     d="M246.72 844.589L244.942 843.571C244.736 843.454 244.644 843.139 244.716 842.807C244.807 842.391 245.12 842.081 245.415 842.113L246.615 842.243C246.836 842.267 247.032 842.385 247.175 842.578C247.263 842.695 247.417 842.686 247.54 842.566L248.359 841.767C248.526 841.605 248.572 841.31 248.464 841.139C248.127 840.601 247.633 840.268 247.066 840.204L247.334 838.98C247.383 838.755 247.293 838.558 247.133 838.54L246.554 838.477C246.395 838.46 246.225 838.629 246.175 838.854L245.907 840.078L245.862 840.073C244.709 839.947 243.477 841.242 243.221 842.908C243.04 844.092 243.467 845.118 244.198 845.537L245.886 846.503C246.091 846.622 246.184 846.935 246.111 847.267C246.02 847.682 245.708 847.993 245.413 847.961L244.213 847.83C243.992 847.806 243.795 847.688 243.652 847.495C243.565 847.379 243.411 847.388 243.288 847.508L242.469 848.306C242.301 848.468 242.255 848.764 242.364 848.935C242.7 849.473 243.194 849.806 243.762 849.87L243.494 851.094C243.445 851.318 243.535 851.516 243.694 851.534L244.273 851.597C244.433 851.614 244.603 851.444 244.652 851.22L244.922 849.991C245.77 850.06 246.716 849.439 247.241 848.345C247.974 846.817 247.674 845.134 246.72 844.589Z"
     fill="#225709"
     id="path2302" />
  <path
     d="M152.124 809.398L164.069 787.302L166.613 787.302L173.277 795.665L158.788 817.761L156.279 817.761L152.124 809.398Z"
     fill="#225709"
     id="path2304" />
  <path
     d="M149.319 809.341L163.808 787.245L170.473 795.609L155.984 817.705L149.319 809.341Z"
     fill="#4BB31B"
     id="path2306" />
  <path
     d="M151.271 808.658L163.409 790.147L168.465 796.493L156.327 815.004L151.271 808.658Z"
     stroke="#A2E782"
     id="path2308" />
  <path
     d="M161.136 802.691L160.488 800.553C160.413 800.307 160.499 799.924 160.695 799.624C160.941 799.249 161.278 799.118 161.447 799.331L162.137 800.197C162.264 800.356 162.334 800.598 162.335 800.885C162.337 801.059 162.437 801.144 162.568 801.094L163.444 800.766C163.622 800.7 163.785 800.422 163.795 800.179C163.83 799.416 163.673 798.77 163.347 798.358L164.072 797.253C164.205 797.05 164.238 796.79 164.147 796.676L163.814 796.257C163.722 796.142 163.538 796.214 163.405 796.417L162.681 797.522L162.655 797.489C161.992 796.657 160.633 797.247 159.715 798.818C159.063 799.934 158.863 801.258 159.129 802.137L159.743 804.167C159.817 804.415 159.733 804.796 159.537 805.095C159.291 805.47 158.954 805.602 158.784 805.389L158.094 804.523C157.967 804.363 157.898 804.121 157.897 803.834C157.895 803.66 157.794 803.576 157.663 803.625L156.788 803.953C156.61 804.02 156.447 804.297 156.437 804.541C156.402 805.303 156.559 805.949 156.884 806.362L156.16 807.467C156.027 807.669 155.993 807.929 156.085 808.044L156.418 808.462C156.51 808.577 156.693 808.505 156.826 808.303L157.554 807.193C158.052 807.781 158.925 807.714 159.751 806.9C160.905 805.763 161.483 803.837 161.136 802.691Z"
     fill="#225709"
     id="path2310" />
  <path
     d="M133.946 887.539L130.829 886.008L134.725 864.166L144.852 860.013L146.93 862.09L145.891 885.462L133.946 887.539Z"
     fill="#225709"
     id="path2312" />
  <path
     d="M130.812 885.765L132.111 861.848L144.901 859.772L143.602 883.69L130.812 885.765Z"
     fill="#4BB31B"
     id="path2314" />
  <path
     d="M132.462 883.67L133.552 863.602L143.324 862.016L142.234 882.084L132.462 883.67Z"
     stroke="#A2E782"
     id="path2316" />
  <path
     d="M139.355 871.737L137.24 871.3C136.995 871.25 136.837 870.987 136.855 870.663C136.877 870.257 137.159 869.885 137.484 869.832L138.809 869.617C139.053 869.578 139.287 869.631 139.478 869.768C139.594 869.851 139.76 869.799 139.87 869.655L140.612 868.695C140.763 868.5 140.758 868.217 140.609 868.09C140.145 867.691 139.548 867.524 138.921 867.623L138.986 866.427C138.998 866.208 138.864 866.052 138.688 866.08L138.049 866.184C137.873 866.213 137.719 866.415 137.708 866.635L137.643 867.831L137.593 867.839C136.32 868.045 135.223 869.575 135.253 871.173C135.274 872.308 135.927 873.128 136.796 873.308L138.804 873.723C139.049 873.775 139.207 874.036 139.189 874.36C139.167 874.766 138.885 875.137 138.56 875.19L137.235 875.405C136.991 875.445 136.757 875.392 136.566 875.255C136.45 875.172 136.284 875.224 136.174 875.368L135.432 876.328C135.281 876.523 135.286 876.806 135.435 876.932C135.899 877.331 136.496 877.499 137.123 877.399L137.058 878.595C137.046 878.815 137.18 878.971 137.356 878.942L137.995 878.838C138.171 878.81 138.325 878.607 138.336 878.388L138.402 877.187C139.334 877.013 140.245 876.181 140.612 875.033C141.125 873.428 140.489 871.97 139.355 871.737Z"
     fill="#225709"
     id="path2318" />
  <path
     d="M339.464 739.393L338.058 716.136L351.04 711.994L352.915 713.032L352.915 734.732L341.172 740.559L339.464 739.393Z"
     fill="#225709"
     id="path2320" />
  <path
     d="M341.04 740.7L339.633 717.443L353.084 712.782L354.491 736.039L341.04 740.7Z"
     fill="#4BB31B"
     id="path2322" />
  <path
     d="M342.546 738.355L341.365 718.827L351.671 715.255L352.852 734.783L342.546 738.355Z"
     stroke="#A2E782"
     id="path2324" />
  <path
     d="M348.546 725.437L346.231 725.458C345.963 725.462 345.763 725.242 345.744 724.927C345.72 724.532 345.978 724.116 346.32 723.997L347.713 723.514C347.97 723.425 348.227 723.428 348.447 723.52C348.582 723.575 348.752 723.491 348.854 723.329L349.536 722.252C349.675 722.033 349.637 721.762 349.462 721.671C348.919 721.385 348.26 721.348 347.6 721.574L347.53 720.411C347.517 720.198 347.355 720.076 347.171 720.14L346.498 720.373C346.313 720.437 346.173 720.664 346.185 720.877L346.256 722.04L346.203 722.059C344.865 722.522 343.869 724.221 344.088 725.75C344.244 726.837 345.039 727.489 345.991 727.481L348.188 727.461C348.456 727.46 348.656 727.677 348.675 727.992C348.699 728.387 348.441 728.803 348.098 728.922L346.705 729.405C346.449 729.494 346.192 729.491 345.972 729.399C345.837 729.344 345.667 729.428 345.565 729.59L344.883 730.667C344.744 730.886 344.782 731.157 344.957 731.248C345.5 731.534 346.159 731.571 346.819 731.345L346.889 732.508C346.902 732.721 347.064 732.843 347.248 732.779L347.921 732.546C348.106 732.482 348.246 732.255 348.234 732.042L348.163 730.874C349.141 730.513 350.018 729.523 350.277 728.343C350.639 726.694 349.788 725.425 348.546 725.437Z"
     fill="#225709"
     id="path2326" />
  <path
     d="M337.492 675.137L327.669 658.219L339.701 650.189L342.211 651.228L349.524 667.107L340.133 675.638L337.492 675.137Z"
     fill="#225709"
     id="path2328" />
  <path
     d="M339.997 675.867L330.174 658.95L342.206 650.92L352.03 667.837L339.997 675.867Z"
     fill="#4BB31B"
     id="path2330" />
  <path
     d="M340.71 673.572L332.476 659.39L341.631 653.28L349.866 667.461L340.71 673.572Z"
     stroke="#A2E782"
     id="path2332" />
  <path
     d="M342.143 661.917L339.79 662.715C339.518 662.808 339.235 662.711 339.102 662.482C338.935 662.195 339.048 661.796 339.354 661.592L340.601 660.76C340.83 660.607 341.093 660.522 341.351 660.516C341.507 660.512 341.651 660.392 341.697 660.236L342.003 659.201C342.066 658.99 341.929 658.8 341.718 658.791C341.061 658.76 340.377 658.956 339.786 659.348L339.294 658.502C339.204 658.347 338.995 658.31 338.83 658.42L338.228 658.822C338.063 658.932 338.001 659.149 338.091 659.305L338.583 660.151L338.536 660.182C337.338 660.981 336.936 662.587 337.711 663.657C338.262 664.417 339.307 664.636 340.275 664.309L342.508 663.552C342.781 663.46 343.063 663.555 343.196 663.784C343.363 664.072 343.25 664.47 342.944 664.674L341.698 665.506C341.468 665.659 341.205 665.744 340.947 665.75C340.791 665.754 340.647 665.875 340.601 666.03L340.295 667.066C340.232 667.276 340.369 667.466 340.58 667.475C341.237 667.506 341.921 667.311 342.513 666.919L343.004 667.765C343.094 667.92 343.303 667.956 343.468 667.846L344.07 667.445C344.235 667.334 344.297 667.117 344.207 666.962L343.713 666.112C344.58 665.512 345.118 664.475 344.956 663.505C344.73 662.15 343.404 661.489 342.143 661.917Z"
     fill="#225709"
     id="path2334" />
  <path
     d="M275.732 781.114L274.174 778.992L282.799 760.033L293.91 754.063L295.802 756.14L288.735 777.221L275.732 781.114Z"
     fill="#225709"
     id="path2336" />
  <path
     d="M274.141 779.091L281.208 758.01L294.211 754.117L287.144 775.198L274.141 779.091Z"
     fill="#4BB31B"
     id="path2338" />
  <path
     d="M276.286 776.915L282.163 759.386L292.097 756.411L286.22 773.941L276.286 776.915Z"
     stroke="#A2E782"
     id="path2340" />
  <path
     d="M285.89 765.46L283.929 765.422C283.702 765.419 283.611 765.215 283.707 764.93C283.827 764.572 284.192 764.201 284.523 764.102L285.87 763.699C286.118 763.625 286.334 763.633 286.487 763.722C286.581 763.775 286.755 763.703 286.898 763.559L287.855 762.601C288.05 762.406 288.115 762.16 287.999 762.074C287.643 761.801 287.1 761.752 286.463 761.941L286.817 760.887C286.881 760.693 286.788 760.579 286.609 760.633L285.959 760.827C285.781 760.881 285.581 761.083 285.517 761.276L285.163 762.33L285.112 762.345C283.819 762.733 282.376 764.245 282.018 765.635C281.764 766.622 282.203 767.231 283.009 767.247L284.87 767.282C285.096 767.288 285.188 767.49 285.092 767.775C284.972 768.133 284.607 768.503 284.276 768.602L282.929 769.006C282.681 769.08 282.465 769.071 282.312 768.983C282.218 768.93 282.044 769.002 281.901 769.145L280.944 770.104C280.749 770.298 280.684 770.545 280.8 770.631C281.156 770.904 281.699 770.953 282.336 770.764L281.982 771.818C281.917 772.011 282.011 772.126 282.189 772.072L282.839 771.878C283.018 771.824 283.217 771.622 283.282 771.429L283.637 770.37C284.59 770.067 285.682 769.193 286.319 768.131C287.21 766.647 286.942 765.479 285.89 765.46Z"
     fill="#225709"
     id="path2342" />
  <path
     d="M146.929 963.367L144.332 961.305L151.435 939.319L163.549 934.802L165.1 936.88L159.556 961.305L146.929 963.367Z"
     fill="#225709"
     id="path2344" />
  <path
     d="M144.548 961.578L150.092 937.152L163.757 934.712L158.213 959.138L144.548 961.578Z"
     fill="#4BB31B"
     id="path2346" />
  <path
     d="M146.601 959.397L151.249 938.917L161.75 937.043L157.101 957.523L146.601 959.397Z"
     stroke="#A2E782"
     id="path2348" />
  <path
     d="M155.891 947.055L153.768 946.662C153.522 946.618 153.404 946.353 153.479 946.023C153.573 945.608 153.931 945.222 154.279 945.159L155.695 944.907C155.955 944.86 156.19 944.909 156.364 945.044C156.47 945.125 156.651 945.068 156.792 944.919L157.731 943.921C157.922 943.718 157.967 943.429 157.834 943.304C157.422 942.909 156.831 942.753 156.161 942.87L156.438 941.649C156.489 941.425 156.377 941.269 156.189 941.303L155.506 941.425C155.318 941.458 155.123 941.669 155.072 941.893L154.795 943.114L154.741 943.124C153.382 943.366 151.973 944.953 151.724 946.583C151.547 947.74 152.082 948.56 152.955 948.721L154.969 949.094C155.215 949.141 155.334 949.403 155.259 949.734C155.164 950.148 154.806 950.535 154.458 950.597L153.043 950.849C152.783 950.896 152.548 950.847 152.374 950.713C152.267 950.631 152.086 950.688 151.946 950.838L151.007 951.836C150.815 952.038 150.77 952.327 150.904 952.452C151.316 952.847 151.907 953.003 152.577 952.886L152.3 954.107C152.249 954.331 152.361 954.487 152.549 954.454L153.232 954.332C153.42 954.298 153.615 954.088 153.666 953.864L153.944 952.637C154.944 952.437 156.037 951.565 156.62 950.384C157.435 948.735 157.029 947.264 155.891 947.055Z"
     fill="#225709"
     id="path2350" />
  <path
     d="M357.792 620.477L358.606 595.7L372.857 590.981L374.932 592.019L372.043 615.758L359.871 621.624L357.792 620.477Z"
     fill="#225709"
     id="path2352" />
  <path
     d="M359.825 621.714L360.639 596.937L374.889 592.218L374.076 616.994L359.825 621.714Z"
     fill="#4BB31B"
     id="path2354" />
  <path
     d="M361.568 619.268L362.252 598.436L373.228 594.801L372.544 615.633L361.568 619.268Z"
     stroke="#A2E782"
     id="path2356" />
  <path
     d="M369.005 605.604L366.628 605.585C366.353 605.584 366.169 605.346 366.18 605.011C366.194 604.59 366.499 604.152 366.862 604.032L368.337 603.543C368.609 603.453 368.873 603.46 369.09 603.562C369.222 603.623 369.406 603.536 369.526 603.366L370.329 602.232C370.493 602.002 370.481 601.712 370.31 601.613C369.781 601.298 369.109 601.248 368.41 601.476L368.45 600.237C368.458 600.01 368.304 599.877 368.108 599.942L367.395 600.178C367.2 600.243 367.033 600.482 367.026 600.709L366.985 601.948L366.929 601.967C365.511 602.436 364.325 604.226 364.402 605.857C364.456 607.017 365.208 607.725 366.185 607.733L368.442 607.752C368.717 607.755 368.9 607.991 368.889 608.326C368.876 608.747 368.571 609.185 368.208 609.305L366.732 609.794C366.46 609.884 366.196 609.877 365.979 609.775C365.847 609.714 365.664 609.8 365.544 609.97L364.74 611.105C364.576 611.335 364.589 611.625 364.76 611.724C365.289 612.039 365.961 612.089 366.66 611.861L366.619 613.1C366.612 613.327 366.766 613.459 366.962 613.395L367.674 613.159C367.87 613.094 368.036 612.855 368.044 612.628L368.085 611.384C369.123 611.017 370.119 609.98 370.499 608.728C371.03 606.979 370.28 605.614 369.005 605.604Z"
     fill="#225709"
     id="path2358" />
  <path
     d="M309.525 893.367L298.451 878.849L308.641 865.526L310.397 865.526L319.715 880.045L311.436 893.572L309.525 893.367Z"
     fill="#225709"
     id="path2360" />
  <path
     d="M311.192 893.573L300.118 879.054L310.308 865.732L321.382 880.251L311.192 893.573Z"
     fill="#4BB31B"
     id="path2362" />
  <path
     d="M311.541 890.84L302.28 878.698L310.094 868.482L319.355 880.623L311.541 890.84Z"
     stroke="#A2E782"
     id="path2364" />
  <path
     d="M311.541 877.654L309.457 879.423C309.217 879.629 308.943 879.633 308.793 879.437C308.605 879.19 308.663 878.716 308.922 878.376L309.978 876.997C310.172 876.743 310.405 876.549 310.643 876.444C310.787 876.379 310.906 876.193 310.93 876.008L311.092 874.769C311.125 874.517 310.977 874.364 310.781 874.436C310.169 874.656 309.559 875.131 309.058 875.783L308.504 875.056C308.402 874.923 308.205 874.964 308.065 875.147L307.555 875.813C307.415 875.996 307.384 876.255 307.485 876.388L308.039 877.114L307.999 877.166C306.985 878.492 306.802 880.385 307.644 881.244C308.243 881.854 309.236 881.688 310.093 880.961L312.07 879.282C312.312 879.078 312.584 879.072 312.734 879.269C312.922 879.515 312.864 879.99 312.605 880.329L311.55 881.708C311.355 881.962 311.122 882.156 310.884 882.261C310.74 882.326 310.621 882.512 310.597 882.697L310.435 883.936C310.402 884.188 310.55 884.341 310.747 884.269C311.358 884.05 311.969 883.575 312.469 882.923L313.023 883.649C313.125 883.782 313.322 883.741 313.463 883.558L313.972 882.892C314.112 882.709 314.143 882.45 314.042 882.317L313.486 881.588C314.217 880.604 314.593 879.276 314.329 878.289C313.961 876.909 312.657 876.705 311.541 877.654Z"
     fill="#225709"
     id="path2366" />
  <path
     d="M263.03 951.761L262.51 948.864L277.657 933.283L287.959 934.322L288.478 937.438L273.975 955.461L263.03 951.761Z"
     fill="#225709"
     id="path2368" />
  <path
     d="M262.342 949.022L276.969 930.544L287.914 934.244L273.287 952.722L262.342 949.022Z"
     fill="#4BB31B"
     id="path2370" />
  <path
     d="M264.839 947.984L277.017 932.601L285.385 935.429L273.207 950.813L264.839 947.984Z"
     stroke="#A2E782"
     id="path2372" />
  <path
     d="M276.859 941.439L275.494 940.207C275.335 940.065 275.365 939.79 275.563 939.539C275.811 939.225 276.238 939.048 276.517 939.142L277.65 939.525C277.859 939.595 278.008 939.736 278.075 939.925C278.117 940.039 278.272 940.067 278.439 939.999L279.552 939.546C279.779 939.454 279.937 939.227 279.895 939.063C279.768 938.552 279.408 938.169 278.873 937.986L279.604 937.062C279.739 936.893 279.725 936.712 279.575 936.661L279.028 936.477C278.877 936.426 278.644 936.523 278.51 936.692L277.779 937.616L277.736 937.602C276.647 937.234 274.938 937.991 274.05 939.274C273.419 940.186 273.449 941.111 274.01 941.618L275.306 942.788C275.463 942.932 275.435 943.205 275.237 943.455C274.988 943.769 274.562 943.947 274.283 943.853L273.149 943.47C272.941 943.399 272.792 943.259 272.725 943.07C272.683 942.956 272.527 942.928 272.361 942.996L271.248 943.449C271.021 943.541 270.863 943.768 270.905 943.931C271.031 944.442 271.392 944.825 271.927 945.009L271.195 945.933C271.061 946.102 271.075 946.282 271.225 946.333L271.772 946.518C271.923 946.569 272.155 946.472 272.29 946.303L273.024 945.375C273.834 945.627 275.004 945.346 275.939 944.586C277.245 943.524 277.591 942.099 276.859 941.439Z"
     fill="#225709"
     id="path2374" />
  <path
     d="M341.692 833.525L337.017 813.791L348.92 810.154L351.042 811.192L353.488 830.552L343.769 835.083L341.692 833.525Z"
     fill="#225709"
     id="path2376" />
  <path
     d="M343.862 834.997L339.294 814.599L351.196 810.962L355.765 831.36L343.862 834.997Z"
     fill="#4BB31B"
     id="path2378" />
  <path
     d="M344.988 832.954L341.163 815.873L350.177 813.118L354.002 830.2L344.988 832.954Z"
     stroke="#A2E782"
     id="path2380" />
  <path
     d="M348.732 821.887L346.574 821.829C346.324 821.823 346.107 821.624 346.045 821.348C345.967 821.001 346.15 820.646 346.453 820.553L347.686 820.177C347.912 820.107 348.153 820.118 348.371 820.205C348.504 820.258 348.652 820.19 348.724 820.052L349.21 819.132C349.309 818.945 349.235 818.706 349.06 818.621C348.513 818.353 347.893 818.299 347.309 818.475L347.08 817.455C347.038 817.268 346.87 817.156 346.706 817.206L346.112 817.388C345.948 817.438 345.848 817.632 345.89 817.819L346.119 818.839L346.072 818.853C344.888 819.215 344.196 820.668 344.615 822.014C344.912 822.97 345.745 823.567 346.633 823.591L348.681 823.646C348.931 823.654 349.148 823.851 349.21 824.127C349.288 824.473 349.105 824.829 348.802 824.921L347.569 825.298C347.342 825.367 347.102 825.357 346.883 825.269C346.75 825.217 346.603 825.285 346.53 825.423L346.045 826.343C345.946 826.53 346.019 826.769 346.195 826.853C346.742 827.122 347.362 827.176 347.946 826.999L348.175 828.019C348.217 828.206 348.385 828.319 348.548 828.269L349.143 828.087C349.307 828.037 349.407 827.843 349.365 827.656L349.135 826.632C349.997 826.348 350.678 825.511 350.754 824.486C350.861 823.055 349.889 821.917 348.732 821.887Z"
     fill="#225709"
     id="path2382" />
  <path
     d="M224.459 913.597L234.359 890.361L236.924 889.322L241.953 896.672L234.327 918.926L232.053 919.909L224.459 913.597Z"
     fill="#225709"
     id="path2384" />
  <path
     d="M226.889 912.479L236.789 889.243L244.382 895.554L234.482 918.79L226.889 912.479Z"
     fill="#4BB31B"
     id="path2386" />
  <path
     d="M228.622 911.456L236.905 892.015L242.63 896.773L234.347 916.214L228.622 911.456Z"
     stroke="#A2E782"
     id="path2388" />
  <path
     d="M236.83 903.962L235.874 902.132C235.763 901.922 235.781 901.553 235.915 901.238C236.083 900.844 236.376 900.654 236.569 900.815L237.355 901.468C237.5 901.589 237.604 901.797 237.653 902.06C237.683 902.219 237.791 902.276 237.905 902.204L238.668 901.724C238.824 901.627 238.93 901.338 238.9 901.113C238.807 900.406 238.554 899.846 238.183 899.534L238.678 898.372C238.769 898.159 238.758 897.913 238.653 897.827L238.274 897.511C238.169 897.425 238.01 897.528 237.919 897.741L237.424 898.903L237.394 898.878C236.639 898.25 235.467 899.07 234.868 900.699C234.442 901.856 234.473 903.111 234.865 903.864L235.772 905.6C235.882 905.813 235.865 906.18 235.731 906.494C235.563 906.889 235.27 907.078 235.077 906.918L234.291 906.264C234.146 906.144 234.042 905.936 233.993 905.673C233.963 905.513 233.856 905.457 233.741 905.529L232.978 906.009C232.822 906.106 232.716 906.394 232.747 906.62C232.839 907.326 233.092 907.887 233.463 908.199L232.968 909.361C232.877 909.574 232.888 909.819 232.993 909.906L233.372 910.221C233.477 910.308 233.636 910.205 233.727 909.992L234.224 908.825C234.786 909.262 235.59 909.023 236.228 908.107C237.118 906.828 237.342 904.942 236.83 903.962Z"
     fill="#225709"
     id="path2390" />
  <path
     d="M236.26 659.168L231.585 637.837L245.021 629.414L247.686 629.934L249.746 651.64L238.856 659.914L236.26 659.168Z"
     fill="#225709"
     id="path2392" />
  <path
     d="M238.756 660.195L234.031 637.97L247.986 629.696L252.711 651.921L238.756 660.195Z"
     fill="#4BB31B"
     id="path2394" />
  <path
     d="M240.041 657.525L236.068 638.838L246.816 632.465L250.789 651.152L240.041 657.525Z"
     stroke="#A2E782"
     id="path2396" />
  <path
     d="M244.8 643.265L242.29 643.929C242 644.007 241.753 643.849 241.689 643.548C241.609 643.17 241.832 642.694 242.187 642.483L243.632 641.626C243.898 641.469 244.178 641.399 244.429 641.428C244.582 641.444 244.756 641.315 244.845 641.129L245.436 639.892C245.557 639.641 245.478 639.387 245.276 639.348C244.647 639.22 243.928 639.368 243.243 639.771L243.006 638.66C242.963 638.456 242.771 638.383 242.579 638.496L241.881 638.91C241.689 639.024 241.568 639.283 241.611 639.487L241.848 640.599L241.793 640.631C240.404 641.454 239.558 643.382 240.006 644.809C240.324 645.822 241.276 646.236 242.308 645.963L244.69 645.333C244.981 645.257 245.228 645.413 245.292 645.714C245.372 646.091 245.149 646.568 244.794 646.778L243.348 647.635C243.083 647.793 242.803 647.862 242.551 647.834C242.398 647.818 242.224 647.947 242.136 648.132L241.545 649.369C241.424 649.621 241.502 649.874 241.705 649.913C242.333 650.041 243.053 649.894 243.738 649.49L243.974 650.602C244.018 650.805 244.21 650.879 244.402 650.765L245.099 650.352C245.291 650.238 245.413 649.978 245.369 649.774L245.132 648.658C246.143 648.035 246.96 646.829 247.078 645.609C247.244 643.905 246.146 642.908 244.8 643.265Z"
     fill="#225709"
     id="path2398" />
  <path
     d="M324.553 511.183L324.034 508.922L335.101 490.224L345.328 489.705L345.847 492.302L335.684 512.979L324.553 511.183Z"
     fill="#225709"
     id="path2400" />
  <path
     d="M323.771 509.044L334.319 488.085L345.451 489.881L334.902 510.84L323.771 509.044Z"
     fill="#4BB31B"
     id="path2402" />
  <path
     d="M325.985 507.582L334.769 490.13L343.235 491.495L334.451 508.948L325.985 507.582Z"
     stroke="#A2E782"
     id="path2404" />
  <path
     d="M336.228 498.969L334.698 497.976C334.52 497.863 334.497 497.583 334.64 497.299C334.819 496.943 335.194 496.692 335.477 496.738L336.63 496.924C336.842 496.958 337.01 497.072 337.109 497.249C337.17 497.355 337.324 497.357 337.47 497.26L338.449 496.615C338.648 496.484 338.757 496.23 338.687 496.075C338.472 495.587 338.058 495.268 337.513 495.177L338.04 494.129C338.137 493.937 338.091 493.76 337.938 493.735L337.381 493.645C337.228 493.621 337.024 493.758 336.927 493.95L336.4 494.998L336.356 494.991C335.249 494.812 333.757 495.863 333.147 497.297C332.713 498.315 332.913 499.233 333.542 499.641L334.995 500.584C335.171 500.699 335.195 500.977 335.052 501.261C334.873 501.617 334.499 501.868 334.215 501.822L333.062 501.636C332.85 501.602 332.682 501.488 332.583 501.311C332.522 501.205 332.368 501.203 332.222 501.3L331.243 501.945C331.044 502.076 330.935 502.33 331.005 502.485C331.22 502.973 331.635 503.292 332.18 503.383L331.652 504.431C331.555 504.623 331.601 504.8 331.754 504.825L332.311 504.915C332.464 504.939 332.668 504.802 332.765 504.61L333.295 503.558C334.115 503.669 335.179 503.187 335.932 502.267C336.982 500.982 337.049 499.501 336.228 498.969Z"
     fill="#225709"
     id="path2406" />
  <path
     d="M291.011 1005.8L290.493 1003.54L301.56 984.841L311.787 984.322L312.306 986.919L302.143 1007.6L291.011 1005.8Z"
     fill="#225709"
     id="path2408" />
  <path
     d="M290.229 1003.66L300.778 982.702L311.91 984.498L301.361 1005.46L290.229 1003.66Z"
     fill="#4BB31B"
     id="path2410" />
  <path
     d="M292.444 1002.2L301.228 984.746L309.694 986.112L300.91 1003.56L292.444 1002.2Z"
     stroke="#A2E782"
     id="path2412" />
  <path
     d="M302.687 993.586L301.157 992.593C300.979 992.479 300.956 992.199 301.099 991.916C301.278 991.56 301.653 991.308 301.936 991.354L303.089 991.54C303.301 991.574 303.469 991.689 303.568 991.865C303.629 991.972 303.783 991.973 303.929 991.876L304.908 991.232C305.107 991.101 305.216 990.847 305.146 990.692C304.931 990.204 304.517 989.884 303.972 989.794L304.499 988.746C304.596 988.554 304.55 988.376 304.397 988.352L303.84 988.262C303.687 988.237 303.483 988.374 303.386 988.566L302.859 989.614L302.815 989.607C301.708 989.429 300.216 990.479 299.605 991.913C299.172 992.932 299.372 993.849 300.001 994.258L301.454 995.2C301.63 995.316 301.654 995.594 301.511 995.878C301.332 996.233 300.958 996.485 300.674 996.439L299.521 996.253C299.309 996.219 299.141 996.104 299.042 995.928C298.981 995.821 298.827 995.82 298.681 995.917L297.702 996.561C297.503 996.692 297.394 996.946 297.464 997.101C297.679 997.589 298.094 997.909 298.639 997.999L298.111 999.047C298.014 999.239 298.06 999.417 298.213 999.442L298.77 999.531C298.923 999.556 299.127 999.419 299.224 999.227L299.754 998.174C300.574 998.285 301.638 997.803 302.391 996.883C303.441 995.599 303.508 994.117 302.687 993.586Z"
     fill="#225709"
     id="path2414" />
  <circle
     r="123.783"
     transform="matrix(0.938191 -0.346117 0 1 791.776 668.276)"
     fill="#9F94E2"
     id="circle2416" />
  <circle
     r="123.783"
     transform="matrix(0.938191 -0.346117 0 1 802.868 672.583)"
     fill="#4508BD"
     id="circle2418" />
  <circle
     r="104.238"
     transform="matrix(0.938191 -0.346117 0 1 803.338 672.911)"
     fill="#6455C1"
     id="circle2420" />
  <path
     d="M888.585 636.251C888.585 691.474 841.482 754.962 790.425 773.798C739.367 792.634 703.69 759.685 703.69 704.462C703.69 649.239 745.08 589.203 796.138 570.367C847.195 551.531 888.585 581.028 888.585 636.251Z"
     fill="#191847"
     id="path2422" />
  <g
     clip-path="url(#clip0)"
     id="g2436">
    <path
       d="m 785.931,727.678 v -41.03 l 22.205,-8.226 V 663.02 l -22.205,8.478 v -41.549 l 22.205,-8.001 0.24591,-15.30276 5.64309,-0.49924 -15.409,-6.356 -14.282,5.269 v 10.268 l -23.804,8.781 v 15.403 l 9.521,3.51 v 90.522 l -9.521,3.513 v 15.403 l 15.581,5.861 7.271,-3.116 15.234,-6.528 v -10.268 l 9.52,-3.512 v -15.403 z"
       fill="#9f94e2"
       id="path2424"
       sodipodi:nodetypes="ccccccccccccccccccccccccc" />
    <path
       d="m 760.53,737.056 v 15.403 l 15.581,5.861 -1.558,-15.062 z"
       fill="#6455c1"
       id="path2426"
       sodipodi:nodetypes="ccccc" />
    <path
       d="M760.53 624.112V639.543L776.111 645.618L776.111 630.231L760.53 624.112Z"
       fill="#6455C1"
       id="path2428" />
    <path
       d="M784.421 605.626V615.38L800.002 621.454V611.34L784.421 605.626Z"
       fill="#6455C1"
       id="path2430" />
    <path
       d="m 846.745,660.16 c 1.047,-1.259 5.297,-2.801 6.233,-4.155 20.448,-12.04 25.968,-42.588 -3.116,-51.937 -9.349,-2.702 -9.339,-2.223 -18.178,1.039 l 6.232,-7.79 -15.448,-6.22 -14.282,5.269 v 25.671 l 14.282,-5.27 c 10.517,-3.879 19.043,2.169 19.043,13.511 0,11.341 -8.50288,23.82985 -19.01988,27.70885 l -16.68577,5.83029 0.98624,15.56244 15.67641,-6.13858 c 10.43815,-4.08738 19.043,2.169 19.043,13.511 0,11.341 -8.526,23.68 -19.043,27.56 l -16.58552,6.00738 1.89591,24.75198 14.282,-5.269 v -10.267 c 18.397,-6.781 47.01761,-18.99636 33.73061,-48.02836 0.003,-11.03 -1.004,-17.501 -9.046,-21.347 z"
       fill="#9f94e2"
       id="path2432"
       sodipodi:nodetypes="cccccccccscccssscccccc" />
    <path
       d="M808.312 596.832V603.549L814.025 605.627L813.505 608.743L823.893 612.66V602.545L808.312 596.832Z"
       fill="#6455C1"
       id="path2434" />
  </g>
  <path
     d="M784.421 744.332V754.086L800.002 760.16V750.045L784.421 744.332Z"
     fill="#6455C1"
     id="path2438" />
  <path
     d="M808.312 736.022V745.776L823.893 751.348V740.662L808.312 736.022Z"
     fill="#6455C1"
     id="path2440" />
  <path
     d="m 799.914,734.412 v -41.071 l 23.803,-8.781 v -15.402 l -23.803,8.781 v -41.072 l 24.35929,-9.00171 -0.17505,-15.41194 -9.90224,3.74165 -0.171,-10.568 -14.111,5.57 v 10.267 l -23.803,8.782 v 15.403 l 9.521,-3.513 v 97.545 l -11.079,3.577 v 14.608 l 25.361,-8.051 v 10.267 l 14.282,-5.269 v -10.267 l 10.31751,-3.83131 -0.17745,-15.32232 z"
     fill="#ffffff"
     id="path2442"
     sodipodi:nodetypes="ccccccccccccccccccccccccc" />
  <path
     d="m 858.59,663.993 c 1.046,-1.258 2.04,-2.568 2.975,-3.921 13.015,-18.836 13.016,-41.591 0.002,-50.825 -6.25,-4.434 -14.727,-5.094 -23.566,-1.832 v -10.269 l -14.108,5.399 -0.18724,10.03139 -2.02854,0.85736 -0.39985,15.55717 16.72363,-6.17392 c 10.516,-3.88 19.042,2.168 19.042,13.51 0,11.341 -8.526,23.682 -19.042,27.562 l -14.99073,5.50313 -0.0323,15.46159 L 838.001,679.29 c 10.516,-3.879 19.042,2.169 19.042,13.511 0,11.341 -8.526,23.681 -19.042,27.56 l -14.283,5.269 v 25.671 l 14.283,-5.269 v -10.268 c 18.397,-6.781 33.316,-28.365 33.322,-48.208 0.003,-11.03 -4.692,-19.716 -12.733,-23.563 z"
     fill="#ffffff"
     id="path2444"
     sodipodi:nodetypes="ccccccccccsccccsccccccc" />
   </g>
  <defs
     id="defs2454">
	 <filter id="shadow-1" x="-50%" y="-50%" width="200%" height="200%" filterUnits="objectBoundingBox">
<feOffset dx="0" dy="4" in="SourceAlpha" result="shadowOffsetOuter1"/>
<feGaussianBlur stdDeviation="10" in="shadowOffsetOuter1" result="shadowBlurOuter1"/>
<feColorMatrix values="0 0 0 0 0 0 0 0 0 0 0 0 0 0 0 0 0 0 0.2 0" in="shadowBlurOuter1" type="matrix" result="shadowMatrixOuter1"/>
<feMerge>
<feMergeNode in="shadowMatrixOuter1"/>
<feMergeNode in="SourceGraphic"/>
</feMerge>
</filter>
    <linearGradient
       id="paint0_linear"
       x1="484.292"
       y1="574.822"
       x2="505.735"
       y2="632.947"
       gradientUnits="userSpaceOnUse">
      <stop
         stop-color="#8B2B1E"
         id="stop2446" />
      <stop
         offset="1"
         stop-color="#EB341B"
         id="stop2448" />
    </linearGradient>
    <clipPath
       id="clip0">
      <rect
         width="147.154"
         height="148.885"
         fill="white"
         transform="matrix(0.938191 -0.346117 0 1 739.007 622.178)"
         id="rect2451" />
    </clipPath>
  </defs>
</svg>
