<?xml version="1.0" encoding="UTF-8" standalone="no"?>
<svg
   xmlns="http://www.w3.org/2000/svg"
   width="850"
   height="1211"
   viewBox="0 0 850 1211"
   fill="none">
  <path
     d="M850 978.756C850 1145.25 719.999 1196.95 628.508 1208.92C508.063 1224.68 294.43 1146.55 211.305 1115.03C183.419 1104.45 0 1040.06 0 919.866C0 744.271 95.9436 598.229 344.797 514.923C662.61 408.532 850 803.161 850 978.756Z"
     fill="#262461"
     id="svg-sluzby-reaktivita-bg-shape" />
   <g id="svg-sluzby-reaktivita-content"
      class="svg-sluzby-content">
     <g
     id="g688">
    <rect
       width="571.619"
       height="761.439"
       rx="50"
       transform="matrix(0.938191 -0.346117 0 1 189.476 246.468)"
       fill="#B4A7FF"
       id="rect686" />
  </g>
  <rect
     width="571.619"
     height="761.439"
     rx="50"
     transform="matrix(0.938191 -0.346117 0 1 199.183 251.387)"
     fill="white"
     filter="url(#shadow-1)"
     id="rect690" />
  <path
     fill-rule="evenodd"
     clip-rule="evenodd"
     d="M199.183 878.136L221.444 860.597C243.705 841.194 288.227 806.117 333.76 765.071C378.282 722.533 422.804 676.265 467.326 659.84C511.848 643.415 564.596 653.94 610.505 637.003C650.474 622.258 674.409 590.128 700.561 549.615C733.292 498.911 735.47 413.898 735.47 413.898C735.47 413.898 735.47 751.385 735.47 764.551C735.47 770.131 734.627 773.66 732.435 779.715C728.997 789.207 725.379 795.017 717.763 803.56C713.333 808.528 710.486 811.225 705.114 815.248C698.086 820.511 693.561 823.021 685.889 825.852C654.015 837.61 318.076 961.545 249.776 986.742C243.377 989.103 239.653 990.048 233.586 990.521C226.453 991.076 222.602 990.482 216.89 988.341C210.799 986.059 207.769 983.914 204.242 978.964C200.492 973.701 199.183 969.798 199.183 962.398C199.183 936.944 199.183 878.136 199.183 878.136Z"
     fill="#B4A7FF"
     id="path692" />
  <path
     fill-rule="evenodd"
     clip-rule="evenodd"
     d="M199.183 885.555L221.444 868.016C243.705 848.613 288.227 813.536 333.76 772.49C378.282 729.952 422.804 683.684 467.326 667.259C511.848 650.834 564.596 661.359 610.505 644.422C650.474 629.677 674.409 597.547 700.561 557.034C733.292 506.33 735.47 421.317 735.47 421.317C735.47 421.317 735.47 758.804 735.47 771.97C735.47 777.55 734.627 781.079 732.435 787.134C728.997 796.626 725.379 802.436 717.763 810.979C713.333 815.947 710.486 818.644 705.114 822.667C698.086 827.93 693.561 830.44 685.889 833.271C654.015 845.029 318.076 968.964 249.776 994.161C243.377 996.522 239.653 997.467 233.586 997.94C226.453 998.495 222.602 997.901 216.89 995.761C210.799 993.478 207.769 991.333 204.242 986.383C200.492 981.12 199.183 977.217 199.183 969.817C199.183 944.363 199.183 885.555 199.183 885.555Z"
     fill="#3A00AD"
     id="path694" />
  <g
     id="g698">
    <path
       fill-rule="evenodd"
       clip-rule="evenodd"
       d="M 197.98199,966.42493 C 217.71299,953.08093 284.801,929.621 338.314,897.995 387.206,869.101 415.406,852.501 460.749,813.46 526.775,756.611 564.596,657.175 610.505,640.239 650.474,625.493 674.409,593.364 700.561,552.85 733.292,502.147 735.47,417.134 735.47,417.134 v 350.653 c 0,5.58 -0.843,9.109 -3.035,15.163 -3.438,9.492 -7.056,15.303 -14.672,23.846 -4.43,4.968 -7.277,7.665 -12.649,11.688 -7.028,5.263 -11.553,7.773 -19.225,10.603 -31.874,11.759 -367.813,135.693 -436.113,160.891 -6.399,2.361 -10.123,3.306 -16.19,3.778 -7.133,0.556 -10.984,-0.038 -16.696,-2.179 -6.091,-2.283 -9.121,-4.427 -12.648,-9.378 -3.75,-5.262 -6.26001,-15.77407 -6.26001,-15.77407 z"
       fill="#b4a7ff"
       id="path696"
       sodipodi:nodetypes="ccccccsccscscscc" />
  </g>
  <path
     fill-rule="evenodd"
     clip-rule="evenodd"
     d="m 198.98546,969.97403 c 19.731,-13.343 85.81554,-36.16903 139.32854,-67.79503 48.892,-28.895 77.092,-45.494 122.435,-84.535 66.026,-56.849 103.847,-156.285 149.756,-173.222 39.969,-14.745 63.904,-46.875 90.056,-87.388 32.731,-50.704 34.909,-135.717 34.909,-135.717 l 0.50958,350.653 c 0.008,5.57999 -1.35258,9.109 -3.54458,15.164 -3.438,9.492 -7.056,15.302 -14.672,23.845 -4.43,4.968 -2.34341,3.95824 -11.76792,12.50252 -11.67149,9.05872 -12.12579,9.73113 -19.79779,12.56213 -31.874,11.759 -366.51442,134.21435 -434.81442,159.41135 -6.399,2.361 -9.3957,3.52162 -15.4627,3.99462 -7.133,0.55498 -13.69862,-1.5799 -19.41062,-3.7199 -6.091,-2.283 -8.87879,-4.28248 -12.46509,-9.18969 -5.92362,-8.10544 -5.059,-16.566 -5.059,-16.566 z"
     fill="#4400ca"
     id="path700"
     sodipodi:nodetypes="csccccscccccccsc" />
  <ellipse
     rx="43.7067"
     ry="32.7199"
     transform="matrix(0.938191 -0.346117 0 1 251.294 378.345)"
     fill="#1E005A"
     id="ellipse702" />
  <ellipse
     rx="23.7068"
     ry="17.7475"
     transform="matrix(0.938191 -0.346117 0 1 286.233 346.998)"
     fill="#1E005A"
     id="ellipse704" />
  <ellipse
     rx="24.8275"
     ry="18.5864"
     transform="matrix(0.938191 -0.346117 0 1 386.44 361.207)"
     fill="#1E005A"
     id="ellipse706" />
  <ellipse
     rx="27.0688"
     ry="20.2644"
     transform="matrix(0.938191 -0.346117 0 1 212.715 423.62)"
     fill="#1E005A"
     id="ellipse708" />
  <ellipse
     rx="36.5516"
     ry="27.3634"
     transform="matrix(0.938191 -0.346117 0 1 357.163 341.934)"
     fill="#1E005A"
     id="ellipse710" />
  <ellipse
     rx="26.3792"
     ry="19.7481"
     transform="matrix(0.938191 -0.346117 0 1 322.871 325.157)"
     fill="#1E005A"
     id="ellipse712" />
  <path
     d="M212.715 388.77L302.49 337.064L385.632 324.977V380.091L212.715 443.884L219.67 410.599L212.715 388.77Z"
     fill="#1E005A"
     id="path714" />
  <ellipse
     rx="43.7067"
     ry="32.7199"
     transform="matrix(0.938191 -0.346117 0 1 253.332 381.907)"
     fill="#310686"
     id="ellipse716" />
  <ellipse
     rx="23.7068"
     ry="17.7475"
     transform="matrix(0.938191 -0.346117 0 1 288.272 350.56)"
     fill="#310686"
     id="ellipse718" />
  <ellipse
     rx="24.8275"
     ry="18.5864"
     transform="matrix(0.938191 -0.346117 0 1 388.479 364.769)"
     fill="#310686"
     id="ellipse720" />
  <ellipse
     rx="27.0688"
     ry="20.2644"
     transform="matrix(0.938191 -0.346117 0 1 214.753 427.182)"
     fill="#310686"
     id="ellipse722" />
  <ellipse
     rx="36.5516"
     ry="27.3634"
     transform="matrix(0.938191 -0.346117 0 1 359.202 345.496)"
     fill="#310686"
     id="ellipse724" />
  <ellipse
     rx="26.3792"
     ry="19.7481"
     transform="matrix(0.938191 -0.346117 0 1 324.909 328.719)"
     fill="#310686"
     id="ellipse726" />
  <path
     d="M214.753 392.332L304.528 340.626L387.671 328.539V383.653L214.753 447.446L221.709 414.161L214.753 392.332Z"
     fill="#310686"
     id="path728" />
  <ellipse
     rx="43.7067"
     ry="35.6064"
     transform="matrix(0.938191 -0.346117 0 1 191.975 435.624)"
     fill="#4508BD"
     id="ellipse730" />
  <ellipse
     rx="23.7068"
     ry="19.3131"
     transform="matrix(0.938191 -0.346117 0 1 226.914 402.649)"
     fill="#4508BD"
     id="ellipse732" />
  <ellipse
     rx="24.8275"
     ry="20.2261"
     transform="matrix(0.938191 -0.346117 0 1 327.122 421.373)"
     fill="#4508BD"
     id="ellipse734" />
  <ellipse
     rx="27.0688"
     ry="22.0521"
     transform="matrix(0.938191 -0.346117 0 1 153.396 483.638)"
     fill="#4508BD"
     id="ellipse736" />
  <ellipse
     rx="26.3792"
     ry="21.4903"
     transform="matrix(0.938191 -0.346117 0 1 264.054 380.967)"
     fill="#4508BD"
     id="ellipse738" />
  <path
     d="M153.396 445.713L243.171 392.367L326.314 381.921V441.897L153.396 505.689L160.352 469.694L153.396 445.713Z"
     fill="#4508BD"
     id="path740" />
  <ellipse
     rx="42.3148"
     ry="33.2099"
     transform="matrix(0.938191 -0.346117 0 1 197.021 437.904)"
     fill="#5C09FF"
     id="ellipse742" />
  <ellipse
     rx="22.9518"
     ry="18.0132"
     transform="matrix(0.938191 -0.346117 0 1 230.848 406.692)"
     fill="#5C09FF"
     id="ellipse744" />
  <ellipse
     rx="24.0368"
     ry="18.8648"
     transform="matrix(0.938191 -0.346117 0 1 327.864 422.844)"
     fill="#5C09FF"
     id="ellipse746" />
  <ellipse
     rx="26.2068"
     ry="20.5678"
     transform="matrix(0.938191 -0.346117 0 1 159.67 483.191)"
     fill="#5C09FF"
     id="ellipse748" />
  <ellipse
     rx="35.3875"
     ry="27.7731"
     transform="matrix(0.938191 -0.346117 0 1 299.519 402.777)"
     fill="#5C09FF"
     id="ellipse750" />
  <ellipse
     rx="25.5391"
     ry="20.0438"
     transform="matrix(0.938191 -0.346117 0 1 266.318 385.156)"
     fill="#5C09FF"
     id="ellipse752" />
  <path
     d="M159.67 447.819L246.586 396.889L327.081 386.058V441.997L159.67 503.758L166.404 470.095L159.67 447.819Z"
     fill="#5C09FF"
     id="path754" />
  <ellipse
     rx="36.2419"
     ry="29.5251"
     transform="matrix(0.938191 -0.346117 0 1 669.62 365.408)"
     fill="#4508BD"
     id="ellipse756" />
  <ellipse
     rx="19.6578"
     ry="16.0146"
     transform="matrix(0.938191 -0.346117 0 1 698.593 338.064)"
     fill="#4508BD"
     id="ellipse758" />
  <ellipse
     rx="20.5871"
     ry="16.7716"
     transform="matrix(0.938191 -0.346117 0 1 781.686 353.59)"
     fill="#4508BD"
     id="ellipse760" />
  <ellipse
     rx="22.4457"
     ry="18.2857"
     transform="matrix(0.938191 -0.346117 0 1 637.631 405.22)"
     fill="#4508BD"
     id="ellipse762" />
  <ellipse
     rx="21.8738"
     ry="17.8199"
     transform="matrix(0.938191 -0.346117 0 1 729.389 320.085)"
     fill="#4508BD"
     id="ellipse764" />
  <path
     d="M637.631 373.773L712.073 329.538L781.015 320.876V370.608L637.631 423.506L643.398 393.658L637.631 373.773Z"
     fill="#4508BD"
     id="path766" />
  <ellipse
     rx="35.0877"
     ry="27.5378"
     transform="matrix(0.938191 -0.346117 0 1 673.805 367.298)"
     fill="#5C09FF"
     id="ellipse768" />
  <ellipse
     rx="19.0318"
     ry="14.9367"
     transform="matrix(0.938191 -0.346117 0 1 701.854 341.417)"
     fill="#5C09FF"
     id="ellipse770" />
  <ellipse
     rx="19.9315"
     ry="15.6428"
     transform="matrix(0.938191 -0.346117 0 1 782.301 354.811)"
     fill="#5C09FF"
     id="ellipse772" />
  <ellipse
     rx="21.7309"
     ry="17.055"
     transform="matrix(0.938191 -0.346117 0 1 642.833 404.851)"
     fill="#5C09FF"
     id="ellipse774" />
  <ellipse
     rx="29.3436"
     ry="23.0297"
     transform="matrix(0.938191 -0.346117 0 1 758.796 338.171)"
     fill="#5C09FF"
     id="ellipse776" />
  <ellipse
     rx="21.1772"
     ry="16.6205"
     transform="matrix(0.938191 -0.346117 0 1 731.267 323.559)"
     fill="#5C09FF"
     id="ellipse778" />
  <path
     d="M642.833 375.52L714.905 333.289L781.652 324.307V370.692L642.833 421.905L648.417 393.991L642.833 375.52Z"
     fill="#5C09FF"
     id="path780" />
  <path
     d="M672.089 187.635C672.089 187.635 678.77 176.027 684.008 174.116C690.365 171.798 698.403 176.349 698.403 176.349C698.403 176.349 705.893 166.357 711.952 163.808C717.49 161.477 724.811 168.185 724.811 168.185L725.218 171.127C725.218 171.127 717.546 168.375 711.952 170.633C705.957 173.052 698.403 182.815 698.403 182.815C698.403 182.815 690.85 178.625 684.855 180.629C679.261 182.499 671.589 190.912 671.589 190.912L672.089 187.635Z"
     fill="#5C09FF"
     id="path782" />
  <path
     d="M717.623 188.093C717.623 188.093 724.303 176.485 729.541 174.574C735.898 172.256 743.936 176.807 743.936 176.807C743.936 176.807 751.427 166.815 757.485 164.266C763.023 161.935 770.344 168.643 770.344 168.643L770.751 171.585C770.751 171.585 763.079 168.833 757.485 171.091C751.49 173.51 743.936 183.273 743.936 183.273C743.936 183.273 736.383 179.083 730.388 181.087C724.794 182.957 717.122 191.37 717.122 191.37L717.623 188.093Z"
     fill="#5C09FF"
     id="path784" />
  <path
     d="M655.899 220.571C655.899 220.571 662.58 208.963 667.818 207.052C674.175 204.734 682.213 209.285 682.213 209.285C682.213 209.285 689.703 199.293 695.762 196.743C701.3 194.413 708.621 201.121 708.621 201.121L709.028 204.063C709.028 204.063 701.356 201.311 695.762 203.569C689.767 205.988 682.213 215.751 682.213 215.751C682.213 215.751 674.66 211.561 668.665 213.565C663.071 215.435 655.399 223.848 655.399 223.848L655.899 220.571Z"
     fill="#5C09FF"
     id="path786" />
  <path
     d="M698.397 224.306C698.397 224.306 705.078 212.698 710.316 210.787C716.673 208.469 724.711 213.02 724.711 213.02C724.711 213.02 732.202 203.028 738.26 200.478C743.798 198.148 751.119 204.856 751.119 204.856L751.526 207.798C751.526 207.798 743.854 205.046 738.26 207.304C732.265 209.723 724.711 219.486 724.711 219.486C724.711 219.486 717.158 215.296 711.163 217.3C705.569 219.17 697.897 227.582 697.897 227.582L698.397 224.306Z"
     fill="#5C09FF"
     id="path788" />
  <path
     fill-rule="evenodd"
     clip-rule="evenodd"
     d="M454.018 792.5C450.018 772.299 439.567 759.501 436.472 738.324C434.637 725.765 435.374 711.669 437.765 696.967C439.064 688.982 440.537 680.964 441.924 672.964C443.276 665.163 444.768 657.388 446.641 649.552C448.523 641.674 450.457 633.878 452.063 625.998C453.314 619.858 454.616 612.741 457.311 606.889C459.454 602.236 463.103 601.016 463.132 606.235C463.148 609.137 462.517 612.481 461.939 615.559C461.198 619.508 460.338 623.47 459.572 627.422C456.498 643.282 454.336 658.998 451.388 674.843C448.509 690.325 444.216 706.018 443.475 721.054C442.863 733.471 444.918 743.717 447.631 753.419C450.241 762.754 453.273 771.783 454.252 782.723C454.533 785.864 454.604 789.156 454.317 792.629C454.169 792.725 454.069 792.683 454.018 792.5Z"
     fill="#E08027"
     id="path790" />
  <path
     fill-rule="evenodd"
     clip-rule="evenodd"
     d="M463.266 749.878C461.974 748.832 461.449 747.082 460.743 745.385C459.865 743.276 458.725 741.427 457.848 739.316C456.018 734.915 454.56 730.166 452.997 725.531C450.03 716.734 448.273 707.132 448.419 696.377C448.57 685.231 450.089 673.507 451.306 662.024C452.596 649.852 453.895 637.592 455.882 625.263C456.773 619.738 457.515 613.907 459.007 608.324C459.937 604.848 461.737 601.722 464.676 601.275C470.919 600.324 472.468 608.035 472.557 614.55C472.687 624.143 471.268 634.584 469.269 644.739C466.858 656.983 463.033 669.278 460.2 681.546C457.201 694.532 455.525 707.084 457.213 718.582C458.066 724.393 459.247 730.009 460.186 735.766C460.586 738.218 460.822 740.764 461.546 742.99C462.352 745.466 463.504 747.646 464.001 750.372C463.756 750.207 463.511 750.042 463.266 749.878Z"
     fill="#A73612"
     id="path792" />
  <path
     fill-rule="evenodd"
     clip-rule="evenodd"
     d="M386.889 787.141C386.667 787.348 386.445 787.555 386.224 787.762C387.242 784.923 388.618 782.529 389.806 779.892C390.875 777.521 391.656 774.908 392.536 772.364C394.603 766.387 396.817 760.515 398.832 754.499C402.821 742.594 404.552 730.183 405.399 717.553C406.2 705.623 406.268 693.829 407.377 681.851C408.298 671.917 409.719 661.597 412.094 651.878C413.707 645.277 416.693 637.225 421.122 637.15C423.207 637.114 423.806 639.975 423.674 643.334C423.461 648.731 422.63 654.503 421.982 659.939C420.536 672.074 418.594 684.252 416.666 696.342C414.847 707.748 413.195 719.348 410.661 730.59C408.217 741.438 404.627 751.437 400.326 760.823C398.061 765.767 395.846 770.811 393.436 775.564C392.281 777.844 390.992 779.902 389.837 782.18C388.908 784.012 388.101 785.869 386.889 787.141Z"
     fill="#E08027"
     id="path794" />
  <path
     fill-rule="evenodd"
     clip-rule="evenodd"
     d="M467.338 714.769C466.233 716.544 465.33 711.427 465.168 710.791C465.228 711.111 465.288 711.43 465.35 711.748C464.255 708.788 463.323 705.673 463.016 702.126C462.712 698.614 462.552 695.007 462.31 691.46C461.856 684.805 460.897 678.422 460.606 671.68C460.323 665.111 461.094 658.483 462.634 651.391C464.235 644.021 465.714 636.561 466.531 629.321C466.921 625.863 466.513 622.766 466.424 619.512C466.336 616.255 466.395 612.93 466.179 609.734C465.927 610.196 466.15 608.753 466.169 608.643C466.314 607.812 466.53 607.1 466.889 606.277C467.813 604.159 469.19 602.265 470.938 601.44C474.095 599.949 476.325 602.712 476.713 605.947C477.27 610.589 477.121 615.842 476.913 620.848C476.722 625.44 476.065 630.133 475.08 634.915C473.139 644.346 470.135 653.828 468.159 663.262C466.007 673.532 466.093 682.841 465.842 692.541C465.721 697.214 465.577 701.848 466.147 706.19C466.377 707.948 466.81 709.462 467.264 711.047C467.522 711.949 468.084 713.541 467.338 714.769Z"
     fill="#E08027"
     id="path796" />
  <path
     fill-rule="evenodd"
     clip-rule="evenodd"
     d="M440.404 734.618C442.727 722.875 445.284 711.181 448.562 699.404C451.908 687.385 455.446 675.375 458.743 663.354C461.952 651.653 465.254 639.751 467.054 628.121C468.379 619.555 472.046 604.833 464.694 601.898C457.248 598.926 452.389 617.538 450.827 623.675C447.831 635.448 446.176 647.124 444.697 658.714C443.18 670.609 442.016 682.388 441.053 694.151C439.984 707.216 438.651 720.383 437.14 733.557C436.393 740.073 435.37 746.623 434.154 753.216C433.007 759.438 432.144 765.677 433.012 771.268C433.124 771.168 433.236 771.069 433.348 770.969"
     fill="#FFD62D"
     id="path798" />
  <path
     fill-rule="evenodd"
     clip-rule="evenodd"
     d="M404.484 704.403C406.383 701.635 408.289 698.89 410.132 695.986C413.429 690.789 416.579 685.092 418.416 678.125C422.263 663.546 423.755 648.228 425.988 633.482C426.444 630.468 427.265 627.485 426.744 624.771C426.272 622.31 424.9 620.598 423.269 620.872C419.778 621.459 418.6 631.464 417.842 635.906C416.512 643.693 415.918 651.438 414.536 659.225C413.167 666.941 411.461 674.732 409.275 682.203C407.063 689.764 404.456 697.103 401.481 704.04C401.068 705.002 398.02 712.418 399.968 710.91"
     fill="#A73612"
     id="path800" />
  <path
     fill-rule="evenodd"
     clip-rule="evenodd"
     d="M406.911 778.462C409.203 778.092 411.478 764.588 411.841 762.842C413.151 756.541 414.154 750.288 415.373 744.001C418.033 730.28 420.793 716.427 424.819 702.639C426.987 695.217 429.298 687.802 431.687 680.398C434.083 672.972 436.878 665.49 438.889 658.037C440.822 650.873 441.622 643.756 442.721 636.693C443.826 629.586 444.854 622.479 445.261 615.546C445.361 613.835 445.427 612.135 445.476 610.442C445.517 609.032 445.939 607.222 445.827 605.906C445.647 603.798 443.401 603.462 441.749 604.062C437.277 605.69 433.436 612.536 431.17 617.452C428.276 623.728 426.179 630.368 424.127 636.821C421.802 644.132 419.921 651.477 418.383 658.786C415.259 673.641 413.557 688.282 411.958 702.845C411.07 710.943 410.264 718.994 409.766 726.98C409.27 734.933 409.028 742.809 408.383 750.809C407.915 756.622 407.438 762.445 406.778 768.311C406.621 769.71 405.157 778.745 406.911 778.462Z"
     fill="#FFD62D"
     id="path802" />
  <path
     fill-rule="evenodd"
     clip-rule="evenodd"
     d="M426.419 679.821C424.39 693.941 418.657 755.449 416.848 772.42C416.395 776.668 416.009 794.112 415.527 798.922C416.689 797.397 420.238 776.002 421.061 771.085C421.875 766.221 423.197 761.354 424.279 756.472C425.384 751.491 442.37 686.719 443.975 681.845C447.17 672.148 449.879 662.289 452.338 652.504C454.734 642.968 457.663 632.842 458.192 623.558C458.315 621.421 458.287 619.342 457.991 617.445C457.67 615.395 457.538 613.473 457.37 611.301C457.101 607.802 456.038 604.864 453.827 603.759C449.295 601.492 445.398 608.909 442.993 615.207C439.151 625.266 436.069 635.355 433.681 645.653C431.039 657.045 428.044 668.517 426.419 679.821Z"
     fill="#A73612"
     id="path804" />
  <path
     d="M422.61 604.865L481.993 593.88C481.993 593.88 485.758 608.929 484.837 619.832C484.071 628.905 479.336 643.688 479.336 643.688L404.483 652.187C404.483 652.187 406.063 639.154 408.974 630.778C412.621 620.283 422.61 604.865 422.61 604.865Z"
     fill="#21045B"
     id="path806" />
  <g
     filter="url(#filter2_i)"
     id="g810">
    <path
       d="M475.859 598.671L523.115 538.906L556.607 585.861L517.434 700.83L482.399 649.383L494.738 624.997L475.859 598.671Z"
       fill="#310686"
       id="path808" />
  </g>
  <g
     filter="url(#filter3_i)"
     id="g814">
    <path
       d="M344.058 607.167L408.16 543.291L420.514 612.516L393.993 638.895L393.341 665.221L332.455 726.16L344.058 607.167Z"
       fill="#310686"
       id="path812" />
  </g>
  <g
     filter="url(#filter4_ii)"
     id="g818">
    <ellipse
       rx="77.5334"
       ry="163.938"
       transform="matrix(0.907052 -0.0791305 -0.237948 1.05509 485.063 453.966)"
       fill="#3D08A5"
       id="ellipse816" />
  </g>
  <g
     filter="url(#filter5_i)"
     id="g822">
    <path
       d="M469.718 522.21L469.718 553.35L464.323 629.227L438.895 716.388L441.92 625.319L469.718 522.21Z"
       fill="#310686"
       id="path820" />
  </g>
  <path
     d="M468.572 521.912C472.345 510.952 473.855 509.064 475.234 508.697C480.337 507.336 478.74 512.783 479.142 521.178C480.393 547.294 478.594 579.126 475.034 603.447C468.307 649.399 458.806 690.52 452.022 721.993C450.987 726.797 445.854 729.419 442.476 729.542C439.514 729.65 437.924 719.556 439.209 714.493C448.644 677.316 456.199 649.64 462.436 608.687C468.371 569.722 463.036 537.991 468.572 521.912Z"
     fill="#5C09FF"
     id="path824" />
  <path
     d="M524.119 540.111C523.315 538.876 518.865 532.296 518.339 525.898C519.192 519.133 522.442 506.067 527.2 507.491C529.826 508.277 524.017 520.97 530.256 526.74C538.366 534.239 566.242 571.84 563.487 585.057C554.28 629.221 536.13 667.205 525.732 697.227C524.145 701.808 518.983 703.552 515.791 703.114C512.991 702.729 512.785 692.476 514.64 687.679C528.26 652.452 540.129 635.296 547.994 596.017C552.488 573.572 546.007 573.714 524.119 540.111Z"
     fill="#5C09FF"
     id="path826" />
  <path
     d="M400.781 561.761C402.203 560.358 409.95 552.858 413.545 546.149C415.888 539.271 418.75 526.234 413.142 528.441C410.046 529.659 410.013 541.915 400.799 548.851C388.821 557.867 342.014 601.104 338.567 614.373C327.049 658.712 327.743 695.273 324.201 724.777C323.661 729.28 328.178 730.293 331.694 729.349C334.777 728.52 339.879 717.867 340.245 713.182C342.93 678.781 338.812 662.831 349.392 623.347C355.438 600.784 362.083 599.936 400.781 561.761Z"
     fill="#5C09FF"
     id="path828" />
  <ellipse
     rx="38.2918"
     ry="50.5028"
     transform="matrix(0.903628 -0.0644374 -0.250584 1.05612 484.235 410.692)"
     fill="#310686"
     id="ellipse830" />
  <ellipse
     rx="30.324"
     ry="39.9942"
     transform="matrix(0.903628 -0.0644374 -0.250584 1.05612 484.235 410.363)"
     fill="#DCDCDC"
     id="ellipse832" />
  <path
     d="M511.637 408.409C506.102 431.737 489.347 451.522 474.213 452.601C466.708 453.137 458.386 434.749 463.921 411.422C469.456 388.094 488.294 368.55 494.257 368.124C509.39 367.045 517.172 385.081 511.637 408.409Z"
     fill="white"
     id="path834" />
   </g>
  <defs
     id="defs948">
     <filter id="shadow-1" x="-50%" y="-50%" width="200%" height="200%" filterUnits="objectBoundingBox">
      <feOffset dx="0" dy="4" in="SourceAlpha" result="shadowOffsetOuter1"/>
      <feGaussianBlur stdDeviation="10" in="shadowOffsetOuter1" result="shadowBlurOuter1"/>
      <feColorMatrix values="0 0 0 0 0 0 0 0 0 0 0 0 0 0 0 0 0 0 0.2 0" in="shadowBlurOuter1" type="matrix" result="shadowMatrixOuter1"/>
      <feMerge>
         <feMergeNode in="shadowMatrixOuter1"/>
         <feMergeNode in="SourceGraphic"/>
      </feMerge>
   </filter>
    <filter
       id="filter2_i"
       x="465.859"
       y="538.906"
       width="90.7486"
       height="164.924"
       filterUnits="userSpaceOnUse"
       color-interpolation-filters="sRGB">
      <feFlood
         flood-opacity="0"
         result="BackgroundImageFix"
         id="feFlood868" />
      <feBlend
         mode="normal"
         in="SourceGraphic"
         in2="BackgroundImageFix"
         result="shape"
         id="feBlend870" />
      <feColorMatrix
         in="SourceAlpha"
         type="matrix"
         values="0 0 0 0 0 0 0 0 0 0 0 0 0 0 0 0 0 0 127 0"
         result="hardAlpha"
         id="feColorMatrix872" />
      <feOffset
         dx="-10"
         dy="3"
         id="feOffset874" />
      <feGaussianBlur
         stdDeviation="10"
         id="feGaussianBlur876" />
      <feComposite
         in2="hardAlpha"
         operator="arithmetic"
         k2="-1"
         k3="1"
         id="feComposite878" />
      <feColorMatrix
         type="matrix"
         values="0 0 0 0 0 0 0 0 0 0 0 0 0 0 0 0 0 0 0.25 0"
         id="feColorMatrix880" />
      <feBlend
         mode="normal"
         in2="shape"
         result="effect1_innerShadow"
         id="feBlend882" />
    </filter>
    <filter
       id="filter3_i"
       x="332.455"
       y="543.291"
       width="98.0587"
       height="192.869"
       filterUnits="userSpaceOnUse"
       color-interpolation-filters="sRGB">
      <feFlood
         flood-opacity="0"
         result="BackgroundImageFix"
         id="feFlood885" />
      <feBlend
         mode="normal"
         in="SourceGraphic"
         in2="BackgroundImageFix"
         result="shape"
         id="feBlend887" />
      <feColorMatrix
         in="SourceAlpha"
         type="matrix"
         values="0 0 0 0 0 0 0 0 0 0 0 0 0 0 0 0 0 0 127 0"
         result="hardAlpha"
         id="feColorMatrix889" />
      <feOffset
         dx="10"
         dy="10"
         id="feOffset891" />
      <feGaussianBlur
         stdDeviation="10"
         id="feGaussianBlur893" />
      <feComposite
         in2="hardAlpha"
         operator="arithmetic"
         k2="-1"
         k3="1"
         id="feComposite895" />
      <feColorMatrix
         type="matrix"
         values="0 0 0 0 0 0 0 0 0 0 0 0 0 0 0 0 0 0 0.25 0"
         id="feColorMatrix897" />
      <feBlend
         mode="normal"
         in2="shape"
         result="effect1_innerShadow"
         id="feBlend899" />
    </filter>
    <filter
       id="filter4_ii"
       x="389.627"
       y="280.886"
       width="180.871"
       height="346.159"
       filterUnits="userSpaceOnUse"
       color-interpolation-filters="sRGB">
      <feFlood
         flood-opacity="0"
         result="BackgroundImageFix"
         id="feFlood902" />
      <feBlend
         mode="normal"
         in="SourceGraphic"
         in2="BackgroundImageFix"
         result="shape"
         id="feBlend904" />
      <feColorMatrix
         in="SourceAlpha"
         type="matrix"
         values="0 0 0 0 0 0 0 0 0 0 0 0 0 0 0 0 0 0 127 0"
         result="hardAlpha"
         id="feColorMatrix906" />
      <feOffset
         dx="-15"
         id="feOffset908" />
      <feGaussianBlur
         stdDeviation="10"
         id="feGaussianBlur910" />
      <feComposite
         in2="hardAlpha"
         operator="arithmetic"
         k2="-1"
         k3="1"
         id="feComposite912" />
      <feColorMatrix
         type="matrix"
         values="0 0 0 0 0.535071 0 0 0 0 0.322031 0 0 0 0 0.954167 0 0 0 1 0"
         id="feColorMatrix914" />
      <feBlend
         mode="normal"
         in2="shape"
         result="effect1_innerShadow"
         id="feBlend916" />
      <feColorMatrix
         in="SourceAlpha"
         type="matrix"
         values="0 0 0 0 0 0 0 0 0 0 0 0 0 0 0 0 0 0 127 0"
         result="hardAlpha"
         id="feColorMatrix918" />
      <feOffset
         dx="5"
         id="feOffset920" />
      <feGaussianBlur
         stdDeviation="5"
         id="feGaussianBlur922" />
      <feComposite
         in2="hardAlpha"
         operator="arithmetic"
         k2="-1"
         k3="1"
         id="feComposite924" />
      <feColorMatrix
         type="matrix"
         values="0 0 0 0 0.146294 0 0 0 0 0.0469792 0 0 0 0 0.341667 0 0 0 1 0"
         id="feColorMatrix926" />
      <feBlend
         mode="normal"
         in2="effect1_innerShadow"
         result="effect2_innerShadow"
         id="feBlend928" />
    </filter>
    <filter
       id="filter5_i"
       x="434.895"
       y="522.21"
       width="34.823"
       height="196.178"
       filterUnits="userSpaceOnUse"
       color-interpolation-filters="sRGB">
      <feFlood
         flood-opacity="0"
         result="BackgroundImageFix"
         id="feFlood931" />
      <feBlend
         mode="normal"
         in="SourceGraphic"
         in2="BackgroundImageFix"
         result="shape"
         id="feBlend933" />
      <feColorMatrix
         in="SourceAlpha"
         type="matrix"
         values="0 0 0 0 0 0 0 0 0 0 0 0 0 0 0 0 0 0 127 0"
         result="hardAlpha"
         id="feColorMatrix935" />
      <feOffset
         dx="-6"
         dy="2"
         id="feOffset937" />
      <feGaussianBlur
         stdDeviation="2"
         id="feGaussianBlur939" />
      <feComposite
         in2="hardAlpha"
         operator="arithmetic"
         k2="-1"
         k3="1"
         id="feComposite941" />
      <feColorMatrix
         type="matrix"
         values="0 0 0 0 0 0 0 0 0 0 0 0 0 0 0 0 0 0 0.25 0"
         id="feColorMatrix943" />
      <feBlend
         mode="normal"
         in2="shape"
         result="effect1_innerShadow"
         id="feBlend945" />
    </filter>
  </defs>
</svg>
