<svg width="933" height="1111" fill="none" xmlns="http://www.w3.org/2000/svg"><path d="M481 .24c367.506-10.5 164.997 327.705 120.396 421.703C488.226 660.448 845.31 557.739 810 876.739c-21.873 197.611-615.592 234.701-750.79 35.204-135.2-199.5-6.04-289.999 63.185-469.5C158.876 347.848 113.494 10.739 481 .239z" fill="#5C09FF"/><g filter="url(#a)"><path d="M124.969 84.471c8.132-3.55 18.045-3.442 28.238.308l672.325 247.35c25.955 9.549 46.997 39.755 46.954 67.404l-.945 610.437c-.026 16.59-7.779 29.23-20.694 33.75L830 1051 153.044 793.513c-25.567-9.724-46.205-39.399-46.405-66.724L102 94.5l22.969-10.029z" fill="#A094E2"/></g><rect width="816" height="709" rx="50" transform="matrix(.9382 .34612 0 1 88 75)" fill="#fff"/><path fill="#A094E2" d="m282.206 606.646 7.506 2.769v24l-7.506-2.769z"/><path d="m468.577 617.402 2.105 8.455-186.372-10.709L277.5 609l4.705-2.308 186.372 10.71zM655.386 743.319l-7.285-2.688v25l7.285 2.688z" fill="#A094E2"/><path d="m471.796 619.59-1.952 6.985 183.662 123.994 1.631-7.341L471.796 619.59z" fill="#A094E2"/><path fill="#A094E2" d="m460.462 576.408 16.887 6.23v120l-16.887-6.23z"/><path d="M329.206 689.906c0 1.486-.667 3.024-2.599 4.326-1.944 1.311-4.952 2.212-8.973 2.503-8.024.58-19.369-1.322-32.095-6.017-12.725-4.695-24.071-11.163-32.095-17.664-4.021-3.257-7.028-6.378-8.973-9.123-1.932-2.728-2.598-4.758-2.598-6.243 0-1.486.666-3.024 2.598-4.326 1.945-1.311 4.952-2.212 8.973-2.503 8.024-.58 19.37 1.322 32.095 6.017 12.726 4.695 24.071 11.164 32.095 17.664 4.021 3.257 7.029 6.378 8.973 9.123 1.932 2.728 2.599 4.758 2.599 6.243z" fill="#fff" stroke="#A094E2" stroke-width="8"/><path d="m241.866 687.967.005-.102V661.394a1.98 1.98 0 0 1 .332-.021c.266.572.565 1.112.869 1.606.932 1.517 2.142 2.985 3.441 4.353 2.604 2.743 6.102 5.644 10.062 8.463 7.953 5.66 18.428 11.453 28.962 15.339 9.399 3.467 19.913 5.515 28.139 5.875 4.097.18 7.815-.05 10.591-.835 1.383-.392 2.688-.963 3.687-1.829.204-.177.406-.376.597-.598.213.14.429.291.652.456V719.457c0 1.474-.656 2.974-2.571 4.226-1.934 1.264-4.934 2.109-8.957 2.338-8.029.458-19.387-1.572-32.138-6.276-12.661-4.671-24.135-11.471-32.267-18.056-4.082-3.306-7.147-6.416-9.097-9.02-2.029-2.71-2.335-4.148-2.307-4.702zM241.873 746.003l.005-.103v-26.47c.097-.014.182-.021.259-.022l.073.001c.266.572.565 1.111.869 1.606.933 1.517 2.143 2.984 3.441 4.352 2.605 2.744 6.102 5.645 10.062 8.463 7.953 5.661 18.429 11.453 28.962 15.339 9.399 3.468 19.913 5.515 28.139 5.876 4.098.179 7.815-.05 10.591-.836 1.383-.391 2.688-.963 3.687-1.829.204-.177.406-.375.597-.597.213.139.429.291.653.456v25.253c0 1.475-.657 2.975-2.572 4.227-1.934 1.264-4.933 2.108-8.957 2.338-8.029.458-19.387-1.572-32.138-6.276-12.661-4.671-24.135-11.471-32.267-18.057-4.081-3.305-7.147-6.415-9.097-9.02-2.029-2.709-2.335-4.148-2.307-4.701z" stroke="#A094E2" stroke-width="8"/><path d="m238.118 654.786 7.181 5.474.114 87.125-7.295-1.907v-90.692zM332.957 689.721l-7.296 1.101v86.167l7.296 3.477v-90.745z" fill="#A094E2"/><path d="M512.153 757.399c0 1.486-.667 3.024-2.599 4.326-1.944 1.311-4.952 2.212-8.972 2.503-8.025.58-19.37-1.323-32.095-6.017-12.726-4.695-24.071-11.164-32.096-17.664-4.02-3.258-7.028-6.378-8.972-9.123-1.932-2.728-2.599-4.758-2.599-6.244 0-1.485.667-3.023 2.599-4.326 1.944-1.31 4.952-2.212 8.972-2.502 8.025-.58 19.37 1.322 32.096 6.017 12.725 4.695 24.07 11.163 32.095 17.664 4.02 3.257 7.028 6.377 8.972 9.123 1.932 2.728 2.599 4.758 2.599 6.243z" fill="#fff" stroke="#A094E2" stroke-width="8"/><path d="m424.813 755.46.005-.103v-26.47a1.995 1.995 0 0 1 .332-.021c.266.572.565 1.112.869 1.606.933 1.517 2.142 2.984 3.441 4.353 2.604 2.743 6.102 5.644 10.062 8.462 7.953 5.661 18.429 11.453 28.962 15.339 9.399 3.468 19.913 5.515 28.139 5.876 4.098.179 7.815-.05 10.591-.836 1.383-.391 2.688-.963 3.687-1.829.204-.177.406-.375.597-.597.213.139.429.291.653.456v25.253c0 1.475-.657 2.975-2.572 4.227-1.934 1.264-4.933 2.108-8.957 2.338-8.029.458-19.387-1.572-32.138-6.276-12.661-4.671-24.135-11.471-32.267-18.057-4.082-3.305-7.147-6.415-9.097-9.02-2.029-2.709-2.335-4.148-2.307-4.701zM424.82 813.496l.005-.103v-26.47a1.845 1.845 0 0 1 .332-.021c.266.572.565 1.111.869 1.606.933 1.517 2.143 2.984 3.442 4.352 2.604 2.743 6.101 5.644 10.061 8.463 7.953 5.661 18.429 11.453 28.963 15.339 9.399 3.467 19.912 5.515 28.138 5.875 4.098.18 7.816-.049 10.592-.835 1.383-.391 2.688-.963 3.686-1.829.205-.177.406-.376.597-.598.214.14.429.292.653.456V844.985c0 1.474-.657 2.975-2.572 4.227-1.934 1.264-4.933 2.108-8.957 2.337-8.029.458-19.386-1.571-32.137-6.275-12.661-4.671-24.135-11.472-32.267-18.057-4.082-3.306-7.147-6.416-9.098-9.02-2.029-2.71-2.335-4.148-2.307-4.701z" stroke="#A094E2" stroke-width="8"/><path d="m421.065 722.278 7.182 5.474.114 87.126-7.296-1.907v-90.693zM515.904 757.214l-7.295 1.1v86.168l7.295 3.476v-90.744z" fill="#A094E2"/><path d="M695.1 825.892c0 1.486-.666 3.024-2.598 4.326-1.945 1.311-4.952 2.212-8.973 2.503-8.024.58-19.37-1.322-32.095-6.017-12.726-4.695-24.071-11.164-32.095-17.664-4.021-3.257-7.029-6.378-8.973-9.123-1.932-2.728-2.599-4.758-2.599-6.243 0-1.486.667-3.024 2.599-4.326 1.944-1.311 4.952-2.212 8.973-2.503 8.024-.58 19.369 1.322 32.095 6.017 12.725 4.695 24.071 11.163 32.095 17.664 4.021 3.257 7.028 6.378 8.973 9.123 1.932 2.728 2.598 4.758 2.598 6.243z" fill="#fff" stroke="#A094E2" stroke-width="8"/><path d="m607.76 823.953.005-.102V797.38a2.01 2.01 0 0 1 .332-.021c.266.572.565 1.112.869 1.606.933 1.517 2.143 2.985 3.442 4.353 2.604 2.743 6.101 5.644 10.061 8.463 7.953 5.66 18.429 11.452 28.963 15.338 9.399 3.468 19.912 5.515 28.138 5.876 4.098.18 7.816-.05 10.592-.836 1.383-.391 2.688-.963 3.686-1.829.205-.177.406-.375.597-.597.213.14.429.291.653.456V855.443c0 1.474-.657 2.974-2.572 4.226-1.934 1.264-4.933 2.108-8.957 2.338-8.029.458-19.386-1.572-32.137-6.276-12.661-4.671-24.135-11.471-32.267-18.056-4.082-3.306-7.147-6.416-9.098-9.021-2.029-2.709-2.335-4.147-2.307-4.701zM607.767 881.989l.006-.103v-26.47a1.82 1.82 0 0 1 .331-.021c.267.572.565 1.111.869 1.606.933 1.517 2.143 2.984 3.442 4.352 2.604 2.743 6.101 5.644 10.062 8.463 7.953 5.661 18.428 11.453 28.962 15.339 9.399 3.468 19.912 5.515 28.138 5.876 4.098.179 7.816-.05 10.592-.836 1.383-.391 2.688-.963 3.687-1.829.204-.177.405-.376.596-.597.214.139.43.291.653.455V913.478c0 1.475-.656 2.975-2.572 4.227-1.933 1.264-4.933 2.108-8.956 2.337-8.029.458-19.387-1.571-32.138-6.275-12.661-4.671-24.135-11.472-32.267-18.057-4.082-3.305-7.147-6.416-9.097-9.02-2.029-2.71-2.335-4.148-2.308-4.701z" stroke="#A094E2" stroke-width="8"/><path d="m604.013 790.771 7.181 5.474.114 87.126-7.295-1.907v-90.693zM698.851 825.707l-7.295 1.101v86.167l7.295 3.477v-90.745zM637.78 763.825c0-8.285 6.301-12.676 14.073-9.809 7.772 2.868 14.073 11.908 14.073 20.192v37.619c0 .583-.092 1.132-.413 1.486-1.022 1.131-4.306 3.154-13.66-.297-9.354-3.45-12.638-7.897-13.66-9.782-.32-.591-.413-1.207-.413-1.79v-37.619zM271.886 629.839c0-8.284 6.3-12.675 14.073-9.808 7.772 2.867 14.072 11.908 14.072 20.192v37.619c0 .583-.092 1.131-.412 1.486-1.023 1.13-4.306 3.154-13.66-.297s-12.638-7.897-13.661-9.782c-.32-.591-.412-1.208-.412-1.791v-37.619zM454.833 696.332c0-8.284 6.301-12.676 14.073-9.808 7.772 2.867 14.073 11.907 14.073 20.192v37.619c0 .582-.093 1.131-.413 1.485-1.022 1.131-4.306 3.155-13.66-.296-9.354-3.451-12.638-7.898-13.66-9.783-.321-.59-.413-1.207-.413-1.79v-37.619z" fill="#A094E2"/><path d="M323.095 690.528c0 1.485-.667 3.023-2.599 4.326-1.944 1.31-4.952 2.212-8.972 2.502-8.025.58-19.37-1.322-32.096-6.017-12.725-4.695-24.07-11.163-32.095-17.664-4.02-3.257-7.028-6.377-8.973-9.123-1.931-2.728-2.598-4.758-2.598-6.243 0-1.486.667-3.024 2.598-4.326 1.945-1.311 4.953-2.212 8.973-2.503 8.025-.58 19.37 1.323 32.095 6.017 12.726 4.695 24.071 11.164 32.096 17.664 4.02 3.258 7.028 6.378 8.972 9.123 1.932 2.728 2.599 4.758 2.599 6.244z" fill="#fff" stroke="#4508BD" stroke-width="8"/><path d="m235.755 688.588.005-.102v-26.47a1.834 1.834 0 0 1 .332-.022c.266.572.565 1.112.869 1.606.933 1.517 2.142 2.985 3.441 4.353 2.604 2.743 6.102 5.644 10.062 8.463 7.953 5.66 18.429 11.453 28.962 15.339 9.399 3.467 19.913 5.515 28.139 5.875 4.097.18 7.815-.05 10.591-.835 1.383-.392 2.688-.963 3.687-1.829.204-.177.406-.376.597-.598.213.14.429.291.653.456V720.078c0 1.474-.657 2.974-2.572 4.226-1.934 1.265-4.933 2.109-8.957 2.338-8.029.458-19.387-1.572-32.138-6.276-12.661-4.671-24.135-11.471-32.267-18.056-4.082-3.306-7.147-6.416-9.097-9.02-2.029-2.71-2.335-4.148-2.307-4.702zM235.762 746.624l.005-.103v-26.47a2.01 2.01 0 0 1 .332-.021c.266.572.565 1.112.869 1.606.933 1.517 2.143 2.985 3.441 4.353 2.605 2.743 6.102 5.644 10.062 8.462 7.953 5.661 18.429 11.453 28.963 15.339 9.398 3.468 19.912 5.515 28.138 5.876 4.098.18 7.816-.05 10.592-.836 1.383-.391 2.688-.963 3.686-1.829.205-.177.406-.375.597-.597.213.139.429.291.653.456v25.253c0 1.475-.657 2.975-2.572 4.227-1.934 1.264-4.933 2.108-8.957 2.338-8.029.458-19.386-1.572-32.137-6.276-12.662-4.671-24.135-11.471-32.267-18.057-4.082-3.305-7.148-6.415-9.098-9.02-2.029-2.709-2.335-4.148-2.307-4.701z" stroke="#4508BD" stroke-width="8"/><path d="m232.007 655.407 7.182 5.474.114 87.125-7.296-1.907v-90.692zM326.846 690.342l-7.296 1.101v86.167l7.296 3.477v-90.745z" fill="#4508BD"/><ellipse rx="3.888" ry="4.184" transform="matrix(.9382 .34612 0 1 246.598 687.412)" fill="#4508BD"/><ellipse rx="3.888" ry="4.184" transform="matrix(.9382 .34612 0 1 246.598 716.439)" fill="#4508BD"/><ellipse rx="3.888" ry="4.184" transform="matrix(.9382 .34612 0 1 246.598 746.252)" fill="#4508BD"/><path d="M320.06 690.003c-1.518 6.619-25.594 4.204-43.03-2.969-15.599-6.417-36.45-18.759-37.969-27.408-1.519-8.65 25.594-4.204 43.031 2.968 15.599 6.417 37.968 18.108 37.968 27.409z" fill="#6455C1"/><path d="M320.121 689.194c-1.341 5.956-22.595 3.924-37.988-2.42-13.771-5.675-32.178-16.643-33.518-24.405-1.341-7.761 22.594-3.923 37.987 2.42 13.771 5.675 33.519 16.05 33.519 24.405z" fill="#fff"/><path d="M506.042 758.02c0 1.486-.666 3.024-2.598 4.326-1.945 1.311-4.952 2.212-8.973 2.503-8.025.58-19.37-1.322-32.095-6.017-12.726-4.695-24.071-11.164-32.095-17.664-4.021-3.257-7.029-6.378-8.973-9.123-1.932-2.728-2.599-4.758-2.599-6.244 0-1.485.667-3.023 2.599-4.325 1.944-1.311 4.952-2.212 8.973-2.503 8.024-.58 19.369 1.322 32.095 6.017 12.725 4.695 24.07 11.163 32.095 17.664 4.021 3.257 7.028 6.378 8.973 9.123 1.932 2.728 2.598 4.758 2.598 6.243z" fill="#fff" stroke="#4508BD" stroke-width="8"/><path d="M502.5 757c-1.5 6.5-25.278 4.08-42.5-3-15.407-6.334-36-18.5-37.5-27s25.278-4.08 42.5 3c15.406 6.334 37.5 17.863 37.5 27z" fill="#6455C1"/><path d="M502.561 756.226c-1.341 5.81-22.595 3.647-37.988-2.682-13.771-5.661-32.178-16.536-33.519-24.133-1.341-7.598 22.595-3.647 37.988 2.681 13.771 5.662 33.519 15.967 33.519 24.134z" fill="#fff"/><path d="m418.702 756.081.005-.103v-26.47a1.995 1.995 0 0 1 .332-.021c.266.572.565 1.112.869 1.606.933 1.517 2.143 2.985 3.441 4.353 2.605 2.743 6.102 5.644 10.062 8.462 7.953 5.661 18.429 11.453 28.962 15.339 9.399 3.468 19.913 5.515 28.139 5.876 4.098.18 7.816-.05 10.592-.836 1.382-.391 2.688-.963 3.686-1.829.205-.177.406-.375.597-.597.213.14.429.291.653.456v25.253c0 1.475-.657 2.975-2.572 4.227-1.934 1.264-4.933 2.108-8.957 2.338-8.029.458-19.386-1.572-32.138-6.276-12.661-4.671-24.135-11.471-32.267-18.057-4.081-3.305-7.147-6.415-9.097-9.02-2.029-2.709-2.335-4.148-2.307-4.701zM418.709 814.117l.005-.103v-26.47c.098-.015.182-.021.259-.022.025-.001.049 0 .073.001.267.572.565 1.111.869 1.606.933 1.517 2.143 2.984 3.442 4.352 2.604 2.743 6.101 5.644 10.062 8.463 7.952 5.661 18.428 11.453 28.962 15.339 9.399 3.467 19.912 5.515 28.138 5.876 4.098.179 7.816-.05 10.592-.836 1.383-.391 2.688-.963 3.687-1.829.204-.177.405-.376.596-.598.214.14.429.292.653.456V845.606c0 1.474-.656 2.975-2.572 4.227-1.934 1.264-4.933 2.108-8.956 2.337-8.029.458-19.387-1.571-32.138-6.275-12.661-4.671-24.135-11.472-32.267-18.057-4.082-3.305-7.147-6.416-9.097-9.02-2.029-2.71-2.335-4.148-2.308-4.701z" stroke="#4508BD" stroke-width="8"/><path d="m414.955 722.899 7.181 5.474.114 87.126-7.295-1.907v-90.693zM509.793 757.835l-7.295 1.101v86.167l7.295 3.476v-90.744z" fill="#4508BD"/><ellipse rx="3.888" ry="4.184" transform="matrix(.9382 .34612 0 1 429.545 754.904)" fill="#4508BD"/><ellipse rx="3.888" ry="4.184" transform="matrix(.9382 .34612 0 1 429.545 783.932)" fill="#4508BD"/><ellipse rx="3.888" ry="4.184" transform="matrix(.9382 .34612 0 1 429.545 813.745)" fill="#4508BD"/><path d="M688.989 826.513c0 1.486-.666 3.024-2.598 4.326-1.945 1.311-4.952 2.212-8.973 2.503-8.024.58-19.37-1.322-32.095-6.017-12.726-4.695-24.071-11.163-32.095-17.664-4.021-3.257-7.029-6.378-8.973-9.123-1.932-2.728-2.598-4.758-2.598-6.243 0-1.486.666-3.024 2.598-4.326 1.944-1.311 4.952-2.212 8.973-2.503 8.024-.58 19.369 1.322 32.095 6.017 12.725 4.695 24.071 11.164 32.095 17.664 4.021 3.257 7.028 6.378 8.973 9.123 1.932 2.728 2.598 4.758 2.598 6.243z" fill="#fff" stroke="#4508BD" stroke-width="8"/><path d="m601.649 824.574.005-.102V798.001a2.01 2.01 0 0 1 .332-.021c.267.572.565 1.112.869 1.606.933 1.517 2.143 2.985 3.442 4.353 2.604 2.743 6.101 5.644 10.061 8.463 7.953 5.66 18.429 11.453 28.963 15.339 9.399 3.467 19.912 5.514 28.138 5.875 4.098.18 7.816-.05 10.592-.835 1.383-.392 2.688-.963 3.687-1.829.204-.178.405-.376.596-.598.214.14.429.291.653.456V856.064c0 1.474-.657 2.974-2.572 4.226-1.934 1.264-4.933 2.108-8.956 2.338-8.03.458-19.387-1.572-32.138-6.276-12.661-4.671-24.135-11.471-32.267-18.056-4.082-3.306-7.147-6.416-9.097-9.021-2.03-2.709-2.335-4.147-2.308-4.701zM601.657 882.61l.005-.103v-26.47a1.98 1.98 0 0 1 .332-.021c.266.572.565 1.111.869 1.606.933 1.517 2.142 2.984 3.441 4.352 2.604 2.744 6.102 5.645 10.062 8.463 7.953 5.661 18.428 11.453 28.962 15.339 9.399 3.468 19.913 5.515 28.139 5.876 4.097.179 7.815-.05 10.591-.836 1.383-.391 2.688-.963 3.687-1.829.204-.177.406-.375.597-.597.213.139.429.291.652.456v25.253c0 1.475-.656 2.975-2.571 4.227-1.934 1.264-4.933 2.108-8.957 2.338-8.029.458-19.387-1.572-32.138-6.276-12.661-4.671-24.135-11.471-32.267-18.057-4.082-3.305-7.147-6.416-9.097-9.02-2.029-2.71-2.335-4.148-2.307-4.701z" stroke="#4508BD" stroke-width="8"/><path d="m597.902 791.393 7.181 5.474.114 87.125-7.295-1.907v-90.692zM692.74 826.328l-7.295 1.101v86.167l7.295 3.477v-90.745z" fill="#4508BD"/><ellipse rx="3.888" ry="4.184" transform="matrix(.9382 .34612 0 1 612.492 823.398)" fill="#4508BD"/><ellipse rx="3.888" ry="4.184" transform="matrix(.9382 .34612 0 1 612.492 852.425)" fill="#4508BD"/><ellipse rx="3.888" ry="4.184" transform="matrix(.9382 .34612 0 1 612.492 882.238)" fill="#4508BD"/><path d="M685.06 825.538c-1.499 6.626-25.278 4.321-42.5-2.773-15.406-6.345-35.999-18.593-37.5-27.235-1.5-8.643 25.279-4.321 42.5 2.773 15.407 6.345 37.5 17.934 37.5 27.235z" fill="#6455C1"/><path d="M685.121 824.729c-1.341 5.955-22.595 3.924-37.988-2.42-13.771-5.675-32.178-16.644-33.518-24.405-1.341-7.761 22.594-3.923 37.987 2.42 13.771 5.675 33.519 16.049 33.519 24.405z" fill="#fff"/><path d="M631.669 764.446c0-8.284 6.301-12.676 14.073-9.808 7.773 2.867 14.073 11.907 14.073 20.191v37.619c0 .583-.092 1.132-.412 1.486-1.023 1.131-4.307 3.154-13.661-.296-9.354-3.451-12.637-7.898-13.66-9.783-.32-.59-.413-1.207-.413-1.79v-37.619zM265.775 630.46c0-8.284 6.301-12.675 14.073-9.808 7.772 2.868 14.073 11.908 14.073 20.192v37.619c0 .583-.093 1.132-.413 1.486-1.023 1.13-4.306 3.154-13.66-.297s-12.638-7.897-13.66-9.782c-.321-.591-.413-1.208-.413-1.79v-37.62zM448.722 696.953c0-8.284 6.301-12.675 14.073-9.808 7.772 2.867 14.073 11.907 14.073 20.192v37.619c0 .583-.092 1.131-.413 1.485-1.022 1.131-4.306 3.155-13.66-.296-9.354-3.451-12.638-7.898-13.66-9.783-.32-.59-.413-1.207-.413-1.79v-37.619z" fill="#4508BD"/><path d="M575.015 810.572c-2.424-3.314-5.57-5.801-8.908-7.029-6.007-2.211-11.193.266-12.625 5.828C553.378 809.776 549 812 549 812c-.581-.215-1.889-4.786-1.781-5.355 1.678-8.879 9.501-13.178 18.9-9.711 5.153 1.901 9.833 5.788 13.286 10.579l2.769-1.93c1.173-.817 3.178.807 3.178 2.575v11.081c0 1.096-4.352 3.261-4.352 3.261l-7.906-5.799c-1.658-.612-2.489-3.055-1.316-3.872l3.237-2.257zm-26.268 3.76 10.397 3.836c1.658.611 2.488 3.054 1.316 3.872l-3.238 2.256c2.424 3.315 5.571 5.802 8.909 7.03 6.004 2.209 6.869.674 9.369-4.326 0 0 3.73-2.083 4.159-1.925l4.444 1.639c.581.215 1.023.941.915 1.51-1.678 8.879-9.501 13.178-18.899 9.71-5.154-1.901-9.833-5.788-13.286-10.579l-2.77 1.931c-1.172.817-3.177-.808-3.177-2.575L543.5 816.5s4.219-2.547 5.247-2.168zM391.13 742.734c-2.425-3.314-5.571-5.802-8.909-7.03-6.007-2.21-11.193.267-12.625 5.828-.104.405-4.096 2.468-4.096 2.468l-1.251-3.684c-.582-.215-1.023-.94-.916-1.51 1.678-8.879 9.502-13.178 18.9-9.71 5.153 1.901 9.833 5.788 13.286 10.579l2.77-1.931c1.172-.817 3.177.808 3.177 2.575v11.082c0 1.095-4.466 3.099-4.466 3.099l-7.792-5.638c-1.658-.611-2.489-3.055-1.316-3.872l3.238-2.256zm-26.269 3.759 10.397 3.836c1.658.612 2.488 3.055 1.316 3.872l-3.238 2.257c2.425 3.314 5.571 5.801 8.909 7.029 6.004 2.209 7.322 1.577 8.755-3.987.104-.405 4.344-2.422 4.773-2.264l4.444 1.64c.582.214 1.023.94.916 1.509-1.678 8.879-9.502 13.178-18.9 9.711-5.153-1.902-9.833-5.788-13.286-10.579l-2.77 1.93c-1.172.817-3.177-.808-3.177-2.575L359.5 749c0-1.096 4.333-2.886 5.361-2.507z" fill="#A094E2"/><path d="M571.153 812.601c-2.425-3.314-5.571-5.802-8.909-7.03-6.007-2.21-11.193.267-12.625 5.828-.104.405-.474.581-.903.423l-4.444-1.639c-.582-.215-1.023-.94-.916-1.51 1.678-8.879 9.502-13.178 18.9-9.71 5.153 1.901 9.833 5.788 13.286 10.579l2.769-1.931c1.173-.817 3.178.808 3.178 2.575v11.082c0 1.095-.834 1.676-1.861 1.297l-10.397-3.836c-1.658-.611-2.489-3.055-1.316-3.872l3.238-2.256zm-26.269 3.759 10.397 3.836c1.658.612 2.488 3.055 1.316 3.872l-3.238 2.257c2.425 3.314 5.571 5.801 8.909 7.029 6.004 2.209 11.192-.264 12.624-5.828.105-.405.475-.581.904-.423l4.444 1.64c.582.214 1.023.94.916 1.509-1.678 8.879-9.502 13.178-18.9 9.711-5.153-1.902-9.833-5.788-13.286-10.579l-2.77 1.93c-1.172.817-3.177-.808-3.177-2.575v-11.081c0-1.096.833-1.677 1.861-1.298zM387.267 744.762c-2.425-3.314-5.571-5.801-8.909-7.03-6.007-2.21-11.193.267-12.624 5.828-.105.405-.475.582-.904.423l-4.444-1.639c-.581-.215-1.023-.94-.916-1.51 1.678-8.878 9.502-13.177 18.9-9.71 5.153 1.901 9.833 5.788 13.286 10.579l2.77-1.931c1.172-.817 3.177.808 3.177 2.575v11.082c0 1.095-.833 1.676-1.861 1.297l-10.397-3.835c-1.658-.612-2.488-3.055-1.316-3.873l3.238-2.256zm-26.269 3.759 10.397 3.836c1.658.612 2.489 3.055 1.316 3.872l-3.238 2.257c2.425 3.314 5.571 5.801 8.909 7.029 6.004 2.21 11.192-.264 12.625-5.828.104-.405.474-.581.903-.423l4.444 1.64c.582.214 1.024.94.916 1.509-1.678 8.879-9.502 13.178-18.9 9.711-5.153-1.901-9.833-5.788-13.286-10.579l-2.769 1.93c-1.173.817-3.178-.807-3.178-2.575v-11.081c0-1.096.834-1.677 1.861-1.298zM277 609l7.506 2.769v24L277 633z" fill="#4508BD"/><path fill="#4508BD" d="m463.371 619.756 2.105 8.456-186.371-10.71-2.106-8.456zM650.18 745.673l-7.285-2.688v25l7.285 2.688z"/><path d="m466.59 621.944-1.952 6.985L648.3 752.923l1.631-7.341L466.59 621.944z" fill="#4508BD"/><path fill="#4508BD" d="m455.256 578.762 16.887 6.23v120l-16.887-6.23z"/><path d="M130.919 157.024c2.333-.85 5.096-.752 7.928.282l642.808 234.69c7.792 2.845 14.123 11.905 14.123 20.211v278.184c0 3.749-1.317 6.876-3.691 8.765L786 704 139.933 464.23c-7.753-2.878-14.032-11.892-14.044-20.16L125.5 159l5.419-1.976z" fill="#A094E2"/><rect width="714" height="309" rx="15" transform="matrix(.9382 .34612 0 1 120 154)" fill="#4508BD"/><rect width="685" height="282" rx="12" transform="matrix(.9382 .34612 0 1 132.196 172.5)" fill="#310686"/><path d="m149 194 4.691 1.731v47l-2.191.769-2.5-2.5-2-46 2-1z" fill="#A094E2"/><path fill="#fff" d="m147 195 4.691 1.73v47L147 242z"/><path d="m157.444 197.116 4.691 1.73v47L160 247l-2.556-2.884L155.5 198l1.944-.884z" fill="#A094E2"/><path fill="#fff" d="m155.444 198.115 4.691 1.73v47l-4.691-1.73z"/><path d="m165.887 200.23 4.691 1.731v47L168.5 250l-2.613-2.77L164 201.5l1.887-1.27z" fill="#A094E2"/><path fill="#fff" d="m163.887 201.229 4.691 1.73v47l-4.691-1.73z"/><path d="m174.331 203.345 4.691 1.731v47L177 253l-2.669-2.655L172.5 204.5l1.831-1.155z" fill="#A094E2"/><path fill="#fff" d="m172.331 204.345 4.691 1.73v47l-4.691-1.73z"/><path d="m524.279 421.687 89.286-11.503-.842 74.209-88.444-62.706z" fill="#5C09FF"/><path d="m613.565 410.633 70.335 80.715-71.177-6.956.842-73.759z" fill="#5C09FF" fill-opacity=".8"/><path d="m612.723 484.392 71.177 6.956 9.687 56.545-80.864-63.501z" fill="#5C09FF" fill-opacity=".6"/><path d="m612.723 484.393 80.864 63.5-62.333 20.998-18.531-84.498z" fill="#5C09FF" fill-opacity=".4"/><path d="m612.723 484.392 18.531 84.498-68.228-48.514 49.697-35.984z" fill="#5C09FF" fill-opacity=".2"/><circle r="3.142" transform="matrix(.9382 .34612 0 1 693.165 547.289)" fill="#fff"/><circle r="3.142" transform="matrix(.9382 .34612 0 1 693.165 547.289)" fill="#fff"/><circle r="3.142" transform="matrix(.9382 .34612 0 1 630.833 568.286)" fill="#fff"/><circle r="3.142" transform="matrix(.9382 .34612 0 1 630.833 568.286)" fill="#fff"/><circle r="3.142" transform="matrix(.9382 .34612 0 1 562.605 520.67)" fill="#fff"/><circle r="3.142" transform="matrix(.9382 .34612 0 1 562.605 520.67)" fill="#fff"/><circle r="3.142" transform="matrix(.9382 .34612 0 1 683.058 491.486)" fill="#fff"/><circle r="3.142" transform="matrix(.9382 .34612 0 1 683.058 491.486)" fill="#fff"/><path transform="matrix(.85017 -.10924 .39675 1.05255 525.122 421.998)" stroke="#fff" d="M0-.5h104.031"/><path transform="matrix(.75484 .87233 -.55715 .59903 612.723 410.322)" stroke="#fff" d="M0-.5h93.735"/><path transform="matrix(.18699 1.04892 -.91937 -.13986 683.479 491.192)" stroke="url(#b)" d="M0-.5h54.056"/><path transform="matrix(-.78062 .26671 -.52041 -1.02404 693.587 546.995)" stroke="url(#c)" d="M0-.5h80.928"/><path transform="matrix(-.8933 -.63518 .28674 -.84637 631.254 568.891)" stroke="url(#d)" d="M0-.5h76.378"/><circle r="3.142" transform="matrix(.9382 .34612 0 1 524.7 422.291)" fill="#fff"/><circle r="3.142" transform="matrix(.9382 .34612 0 1 524.7 422.291)" fill="#fff"/><circle r="3.142" transform="matrix(.9382 .34612 0 1 613.144 410.927)" fill="#fff"/><circle r="3.142" transform="matrix(.9382 .34612 0 1 613.144 410.927)" fill="#fff"/><text transform="matrix(.9382 .34612 0 1 541.968 518.892)" fill="#fff" xml:space="preserve" style="white-space:pre" font-family="Montserrat" font-size="13" letter-spacing="0em"><tspan x=".084" y="14.088">1500</tspan></text><text transform="matrix(.9382 .34612 0 1 617.777 566.612)" fill="#fff" xml:space="preserve" style="white-space:pre" font-family="Montserrat" font-size="13" letter-spacing="0em"><tspan x=".693" y="14.088">1250</tspan></text><text transform="matrix(.9382 .34612 0 1 490.586 400.278)" fill="#fff" xml:space="preserve" style="white-space:pre" font-family="Montserrat" font-size="13" letter-spacing="0em"><tspan x="3.042" y="14.088">250</tspan></text><text transform="matrix(.9382 .34612 0 1 690.217 483.802)" fill="#fff" xml:space="preserve" style="white-space:pre" font-family="Montserrat" font-size="13" letter-spacing="0em"><tspan x="3.029" y="14.088">750</tspan></text><text transform="matrix(.9382 .34612 0 1 700.325 540.503)" fill="#fff" xml:space="preserve" style="white-space:pre" font-family="Montserrat" font-size="13" letter-spacing="0em"><tspan x="3.765" y="6.088">100</tspan><tspan x="10.418" y="22.088">0</tspan></text><text transform="matrix(.9382 .34612 0 1 599.246 383.803)" fill="#fff" xml:space="preserve" style="white-space:pre" font-family="Montserrat" font-size="13" letter-spacing="0em"><tspan x="2.432" y="14.088">500</tspan></text><text transform="matrix(.9382 .34612 0 1 356.425 372.221)" fill="#fff" xml:space="preserve" style="white-space:pre" font-family="Montserrat" font-size="15" letter-spacing="0em"><tspan x="16.963" y="14.377">250 Kč</tspan></text><text transform="matrix(.9382 .34612 0 1 356.425 395.465)" fill="#fff" xml:space="preserve" style="white-space:pre" font-family="Montserrat" font-size="15" letter-spacing="0em"><tspan x="15.556" y="14.377">500 Kč</tspan></text><text transform="matrix(.9382 .34612 0 1 356.425 418.708)" fill="#fff" xml:space="preserve" style="white-space:pre" font-family="Montserrat" font-size="15" letter-spacing="0em"><tspan x="16.933" y="14.377">750 Kč</tspan></text><text transform="matrix(.9382 .34612 0 1 356.425 441.953)" fill="#fff" xml:space="preserve" style="white-space:pre" font-family="Montserrat" font-size="15" letter-spacing="0em"><tspan x="8.701" y="14.377">1000 Kč</tspan></text><text transform="matrix(.9382 .34612 0 1 356.425 465.221)" fill="#fff" xml:space="preserve" style="white-space:pre" font-family="Montserrat" font-size="15" letter-spacing="0em"><tspan x="11.543" y="14.377">1250 Kč</tspan></text><text opacity=".5" transform="matrix(.9382 .34612 0 1 311.03 354.792)" fill="#fff" xml:space="preserve" style="white-space:pre" font-family="Montserrat" font-size="15" letter-spacing="0em"><tspan x="0" y="14.377">100</tspan></text><text opacity=".5" transform="matrix(.9382 .34612 0 1 311.03 378.036)" fill="#fff" xml:space="preserve" style="white-space:pre" font-family="Montserrat" font-size="15" letter-spacing="0em"><tspan x="0" y="14.377">200</tspan></text><text opacity=".5" transform="matrix(.9382 .34612 0 1 311.03 401.28)" fill="#fff" xml:space="preserve" style="white-space:pre" font-family="Montserrat" font-size="15" letter-spacing="0em"><tspan x="0" y="14.377">300</tspan></text><text opacity=".5" transform="matrix(.9382 .34612 0 1 311.03 424.524)" fill="#fff" xml:space="preserve" style="white-space:pre" font-family="Montserrat" font-size="15" letter-spacing="0em"><tspan x="0" y="14.377">400</tspan></text><text transform="matrix(.9382 .34612 0 1 240.505 328.774)" fill="#fff" xml:space="preserve" style="white-space:pre" font-family="Montserrat" font-size="15" letter-spacing="0em"><tspan x="0" y="14.377">Item 1</tspan></text><text transform="matrix(.9382 .34612 0 1 240.505 352.018)" fill="#fff" xml:space="preserve" style="white-space:pre" font-family="Montserrat" font-size="15" letter-spacing="0em"><tspan x="0" y="14.377">Item 2</tspan></text><text transform="matrix(.9382 .34612 0 1 240.505 375.262)" fill="#fff" xml:space="preserve" style="white-space:pre" font-family="Montserrat" font-size="15" letter-spacing="0em"><tspan x="0" y="14.377">Item 3</tspan></text><text transform="matrix(.9382 .34612 0 1 240.505 398.506)" fill="#fff" xml:space="preserve" style="white-space:pre" font-family="Montserrat" font-size="15" letter-spacing="0em"><tspan x="0" y="14.377">Item 4</tspan></text><text transform="matrix(.9382 .34612 0 1 240.505 421.774)" fill="#fff" xml:space="preserve" style="white-space:pre" font-family="Montserrat" font-size="15" letter-spacing="0em"><tspan x="0" y="14.377">Item 5</tspan></text><text opacity=".5" transform="matrix(.9382 .34612 0 1 311.03 447.792)" fill="#fff" xml:space="preserve" style="white-space:pre" font-family="Montserrat" font-size="15" letter-spacing="0em"><tspan x="0" y="14.377">500</tspan></text><path d="M418.533 354.457c-38.08 27.015-66.366-45.478-113.867-58.572-34.28-9.45-37.969 16.676-62.301 9.845" stroke="#fff"/><path d="M418.662 354.33c-21.973 15.585-41.71-26.189-63.839-41.988-16.228-11.586-34.09 4.803-54.188-.737-34.283-9.451-33.935.957-58.27-5.874" stroke="#5C09FF"/><defs><linearGradient id="b" x1="1.059" y1="-.781" x2="49.657" y2="-.955" gradientUnits="userSpaceOnUse"><stop stop-color="#fff"/><stop offset="1" stop-color="#fff" stop-opacity=".87"/></linearGradient><linearGradient id="c" x1="1.245" y1="-.278" x2="78.813" y2="-.837" gradientUnits="userSpaceOnUse"><stop stop-color="#fff"/><stop offset="0" stop-color="#fff" stop-opacity=".78"/><stop offset="1" stop-color="#fff" stop-opacity=".42"/></linearGradient><linearGradient id="d" x1=".427" y1="-.153" x2="73.966" y2="-.181" gradientUnits="userSpaceOnUse"><stop stop-color="#fff" stop-opacity=".44"/><stop offset="1" stop-color="#fff" stop-opacity=".34"/></linearGradient><filter id="a" x="42" y="21.885" width="890.486" height="1089.11" filterUnits="userSpaceOnUse" color-interpolation-filters="sRGB"><feFlood flood-opacity="0" result="BackgroundImageFix"/><feColorMatrix in="SourceAlpha" values="0 0 0 0 0 0 0 0 0 0 0 0 0 0 0 0 0 0 127 0"/><feOffset/><feGaussianBlur stdDeviation="30"/><feColorMatrix values="0 0 0 0 0 0 0 0 0 0 0 0 0 0 0 0 0 0 0.25 0"/><feBlend in2="BackgroundImageFix" result="effect1_dropShadow"/><feBlend in="SourceGraphic" in2="effect1_dropShadow" result="shape"/></filter></defs></svg>