<svg width="895" height="969" viewBox="0 0 895 969" fill="none" xmlns="http://www.w3.org/2000/svg">
<path d="M752.105 479.858C890.636 602.317 759.006 877.835 584.015 896.989C403.006 916.803 -67.0593 837.332 8.05974 702.377C32.2793 658.865 132.553 606.512 132.553 606.512C132.553 606.512 613.574 357.399 752.105 479.858Z" fill="#5C09FF"/>
<g filter="url(#filter0_d)">
<path d="M73.9053 373.505C73.9053 345.794 95.0496 315.567 121.048 306.114L787.632 63.7251C796.996 60.3201 806.132 59.9853 813.863 62.7639L834 70.0005L834.93 550.39C834.982 577.353 814.939 606.907 789.639 617.172L132 884L94.0869 869.969C81.4462 865.291 73.9053 852.72 73.9053 836.325V373.505Z" fill="#A094E3"/>
</g>
<path d="M92.5928 384.236C92.5928 356.622 113.595 326.488 139.502 316.931L806.801 70.751C832.709 61.1933 853.711 75.831 853.711 103.445V559.738C853.711 587.353 832.709 617.486 806.801 627.044L139.502 873.224C113.595 882.782 92.5928 868.144 92.5928 840.53V384.236Z" fill="white" data-aos="fade-up"/>
<path d="M92.5933 745.212L853.711 464.421V560.253C853.711 587.664 833.006 617.603 807.29 627.376L132 884L113.14 877.3C100.288 872.734 92.5933 860.085 92.5933 843.523V745.212Z" fill="#6455C1"/>
<path d="M92.5933 745.212L853.711 464.421L873.297 474.273L860.961 559.59C856.912 587.594 833.937 614.434 808.927 620.378L169.789 772.269C161.295 774.287 153.249 773.685 146.523 770.527L92.5933 745.212Z" fill="#A094E3"/>
<path d="M112.167 755.064L873.285 474.272V569.586C873.285 597.2 852.283 627.334 826.375 636.892L159.077 883.072C133.169 892.629 112.167 877.992 112.167 850.377V755.064Z" fill="#4508BD"/>
<g filter="url(#filter1_d)">
<path d="M32 408.866C32 401.134 37.8806 392.697 45.1347 390.021L166.617 345.203C173.871 342.527 179.752 346.626 179.752 354.358V385.452V484.713C179.752 492.445 173.871 500.883 166.617 503.559L45.1347 548.376C37.8806 551.052 32 546.954 32 539.222V408.866Z" fill="#A094E3"/>
</g>
<path d="M33.8218 420.333C33.8218 406.526 44.3228 391.459 57.2766 386.68L164.324 347.189C177.278 342.41 187.779 349.729 187.779 363.536V385.418V478.173C187.779 491.98 177.278 507.047 164.324 511.825L57.2766 551.317C44.3229 556.096 33.8218 548.777 33.8218 534.97V420.333Z" fill="#A094E3"/>
<g filter="url(#filter2_d)">
<path d="M41.1099 414.766C41.1099 406.481 47.4105 397.441 55.1827 394.574L174.789 350.449C182.561 347.582 188.861 351.973 188.861 360.257V488.613C188.861 496.897 182.561 505.937 174.789 508.805L55.1828 552.929C47.4105 555.797 41.1099 551.406 41.1099 543.121V414.766Z" fill="white"/>
</g>
<path d="M41.1099 414.766C41.1099 406.481 47.4105 397.441 55.1827 394.574L174.789 350.449C182.561 347.582 188.861 351.973 188.861 360.257V371.89L41.1099 426.398V414.766Z" fill="#4508BD"/>
<line y1="-1" x2="86.7889" y2="-1" transform="matrix(-4.10096e-08 1 -0.938191 0.346117 70.8467 438.32)" stroke="#8A5BE8" stroke-width="2"/>
<line y1="-1" x2="86.7889" y2="-1" transform="matrix(-3.86118e-08 1 -0.938191 0.346117 92.9165 430.177)" stroke="#8A5BE8" stroke-width="2"/>
<line y1="-1" x2="86.7889" y2="-1" transform="matrix(-3.86118e-08 1 -0.938191 0.346117 115.567 421.821)" stroke="#8A5BE8" stroke-width="2"/>
<line y1="-1" x2="86.7889" y2="-1" transform="matrix(-3.86118e-08 1 -0.938191 0.346117 137.636 413.679)" stroke="#8A5BE8" stroke-width="2"/>
<line y1="-1" x2="86.7889" y2="-1" transform="matrix(-3.86118e-08 1 -0.938191 0.346117 158.545 405.965)" stroke="#8A5BE8" stroke-width="2"/>
<line y1="-1" x2="93.4761" y2="-1" transform="matrix(0.938191 -0.346117 0 1 70.8462 458.701)" stroke="#8A5BE8" stroke-width="2"/>
<line y1="-1" x2="95.0856" y2="-1" transform="matrix(0.938191 -0.346117 0 1 70.8467 438.32)" stroke="#8A5BE8" stroke-width="2"/>
<line y1="-1" x2="93.4761" y2="-1" transform="matrix(0.938191 -0.346117 0 1 71.4268 479.527)" stroke="#8A5BE8" stroke-width="2"/>
<line y1="-1" x2="93.4761" y2="-1" transform="matrix(0.938191 -0.346117 0 1 70.8462 502.096)" stroke="#8A5BE8" stroke-width="2"/>
<line y1="-1" x2="93.4761" y2="-1" transform="matrix(0.938191 -0.346117 0 1 70.8462 525.108)" stroke="#8A5BE8" stroke-width="2"/>
<rect width="262.991" height="184.54" rx="10" transform="matrix(0.938191 -0.346117 0 1 518.468 216.39)" fill="#6455C1"/>
<path d="M762.613 129.008L768.534 133.107L762.157 134.018L762.613 129.008Z" fill="#6455C1"/>
<rect x="2.34548" y="1.63471" width="257.991" height="179.54" rx="7.5" transform="matrix(0.938191 -0.346117 0 1 524.314 221.296)" fill="#6A5EFF" stroke="#3C1D79" stroke-width="5"/>
<circle r="28.7788" transform="matrix(0.938191 -0.346117 0 1 682 234.74)" fill="white"/>
<path fill-rule="evenodd" clip-rule="evenodd" d="M528.351 337.165C528.351 335.951 528.765 334.626 529.517 333.436L543.406 311.452C552.606 298.697 567.945 274.62 588.146 277.46C607.539 280.599 627.74 295.449 647.941 286.281C667.334 275.696 687.535 228.785 706.928 218.199C727.129 209.031 746.522 237.904 757.026 251.184L766.05 263.821C766.49 264.437 766.723 265.243 766.723 266.153V306.083C766.723 308.845 764.622 311.858 762.032 312.814L757.026 314.661C746.522 318.536 727.129 325.69 706.928 333.143C687.535 340.297 667.334 347.75 647.941 354.904C627.74 362.357 607.539 369.81 588.146 376.964C567.945 384.417 548.552 391.571 538.047 395.446L533.042 397.293C530.451 398.249 528.351 396.785 528.351 394.024V337.165Z" fill="#4508BD"/>
<path d="M761.246 301.64C767.059 304.83 767.395 310.841 761.872 312.853L608.062 368.88C605.945 369.651 603.045 368.876 601.592 367.152C600.165 365.457 600.664 363.472 602.716 362.682L761.246 301.64Z" fill="#A094E3"/>
<path d="M758.058 138.573C758.058 138.573 763.068 136.752 763.524 136.751C763.979 136.751 765.148 136.965 765.801 137.662C766.504 138.413 766.712 140.395 766.712 140.395V305.74C766.712 305.74 766.78 307.679 766.257 308.928C766.105 309.291 765.801 309.839 765.801 309.839L758.058 303.007V138.573Z" fill="#6455C1"/>
<path d="M639.629 182.306L648.283 179.112V184.128V349.473C648.283 349.473 648.351 351.411 647.828 352.661C647.676 353.024 647.372 353.572 647.372 353.572L639.629 346.74V182.306Z" fill="#6455C1"/>
<line y1="-2.5" x2="182.757" y2="-2.5" transform="matrix(-4.10096e-08 1 -0.938191 0.346117 647.955 178.383)" stroke="#3C1D79" stroke-width="5"/>
<g filter="url(#filter3_d)">
<path d="M238.794 478.816C238.794 456.725 255.596 432.618 276.322 424.972L683.029 274.929C703.755 267.283 720.557 278.993 720.557 301.085V390.411V500.069C720.557 510.984 712.345 522.913 702.106 526.873L264.251 696.192C259.869 697.887 255.599 697.902 252.183 696.236L245.803 693.123C241.371 690.962 238.794 686.18 238.794 680.12V478.816Z" fill="#A094E3"/>
</g>
<path d="M703 285.342L707.5 275.5L717.5 281.5L703 285.342Z" fill="#A094E3"/>
<path d="M248.775 484.638C248.775 462.547 265.577 438.44 286.303 430.793L693.01 280.751C713.736 273.105 730.537 284.815 730.537 306.906V507.019C730.537 518.065 722.137 530.118 711.774 533.941L267.539 697.828C257.176 701.651 248.775 695.796 248.775 684.751V484.638Z" fill="#1F0356"/>
<path d="M261.322 489.612C261.322 467.521 278.123 443.414 298.849 435.767L682.974 294.056C703.7 286.41 720.502 298.12 720.502 320.212V504.132C720.502 512.417 714.201 521.457 706.429 524.324L275.395 683.341C267.622 686.208 261.322 681.817 261.322 673.533V489.612Z" fill="#6455C1"/>
<path d="M261.322 489.612C261.322 467.521 278.123 443.414 298.849 435.767L683.451 293.88C698.996 288.146 711.597 296.928 711.597 313.497V500.25C711.597 508.535 705.296 517.575 697.524 520.442L266.013 679.635C263.422 680.591 261.322 679.127 261.322 676.366V489.612Z" fill="#310686"/>
<text transform="matrix(0.938191 -0.346117 0 1 244 493.022)" fill="white" xml:space="preserve" style="white-space: pre" font-family="Montserrat" font-size="170" font-weight="600" letter-spacing="0em"><tspan x="248.671" y="137.065">:</tspan></text>
<text transform="matrix(0.938191 -0.346117 0 1 244 493.022)" fill="white" xml:space="preserve" style="white-space: pre" font-family="Montserrat" font-size="130" font-weight="600" letter-spacing="0em"><tspan id="svg-sluzby-clock-1" x="45.3314" y="137.065" data-aos="fade-up">04</tspan><tspan id="svg-sluzby-clock-2" x="317.812" y="137.065">20</tspan></text>
<text transform="matrix(0.938191 -0.346117 0 1 244 493.022)" fill="white" xml:space="preserve" style="white-space: pre" font-family="Montserrat" font-size="100" font-weight="600" letter-spacing="0em"><tspan x="221.035" y="137.065"> </tspan><tspan x="290.175" y="137.065"> </tspan></text>
<defs>
<filter id="filter0_d" x="13.9053" y="0.900269" width="881.024" height="943.1" filterUnits="userSpaceOnUse" color-interpolation-filters="sRGB">
<feFlood flood-opacity="0" result="BackgroundImageFix"/>
<feColorMatrix in="SourceAlpha" type="matrix" values="0 0 0 0 0 0 0 0 0 0 0 0 0 0 0 0 0 0 127 0"/>
<feOffset/>
<feGaussianBlur stdDeviation="30"/>
<feColorMatrix type="matrix" values="0 0 0 0 0 0 0 0 0 0 0 0 0 0 0 0 0 0 0.25 0"/>
<feBlend mode="normal" in2="BackgroundImageFix" result="effect1_dropShadow"/>
<feBlend mode="normal" in="SourceGraphic" in2="effect1_dropShadow" result="shape"/>
</filter>
<filter id="filter1_d" x="17" y="329.385" width="177.752" height="234.811" filterUnits="userSpaceOnUse" color-interpolation-filters="sRGB">
<feFlood flood-opacity="0" result="BackgroundImageFix"/>
<feColorMatrix in="SourceAlpha" type="matrix" values="0 0 0 0 0 0 0 0 0 0 0 0 0 0 0 0 0 0 127 0"/>
<feOffset/>
<feGaussianBlur stdDeviation="7.5"/>
<feColorMatrix type="matrix" values="0 0 0 0 0 0 0 0 0 0 0 0 0 0 0 0 0 0 0.15 0"/>
<feBlend mode="normal" in2="BackgroundImageFix" result="effect1_dropShadow"/>
<feBlend mode="normal" in="SourceGraphic" in2="effect1_dropShadow" result="shape"/>
</filter>
<filter id="filter2_d" x="26.1099" y="338.572" width="177.752" height="234.235" filterUnits="userSpaceOnUse" color-interpolation-filters="sRGB">
<feFlood flood-opacity="0" result="BackgroundImageFix"/>
<feColorMatrix in="SourceAlpha" type="matrix" values="0 0 0 0 0 0 0 0 0 0 0 0 0 0 0 0 0 0 127 0"/>
<feOffset dy="4"/>
<feGaussianBlur stdDeviation="7.5"/>
<feColorMatrix type="matrix" values="0 0 0 0 0 0 0 0 0 0 0 0 0 0 0 0 0 0 0.15 0"/>
<feBlend mode="normal" in2="BackgroundImageFix" result="effect1_dropShadow"/>
<feBlend mode="normal" in="SourceGraphic" in2="effect1_dropShadow" result="shape"/>
</filter>
<filter id="filter3_d" x="213.794" y="257.59" width="531.763" height="474.885" filterUnits="userSpaceOnUse" color-interpolation-filters="sRGB">
<feFlood flood-opacity="0" result="BackgroundImageFix"/>
<feColorMatrix in="SourceAlpha" type="matrix" values="0 0 0 0 0 0 0 0 0 0 0 0 0 0 0 0 0 0 127 0"/>
<feOffset dy="10"/>
<feGaussianBlur stdDeviation="12.5"/>
<feColorMatrix type="matrix" values="0 0 0 0 0 0 0 0 0 0 0 0 0 0 0 0 0 0 0.25 0"/>
<feBlend mode="normal" in2="BackgroundImageFix" result="effect1_dropShadow"/>
<feBlend mode="normal" in="SourceGraphic" in2="effect1_dropShadow" result="shape"/>
</filter>
</defs>
</svg>
