<?xml version="1.0" encoding="UTF-8" standalone="no"?>
<svg
   width="678"
   height="690"
   viewBox="0 0 678 690"
   fill="none"
   xmlns="http://www.w3.org/2000/svg">
  <g
     id="svg-sluzby-rozcestnik-web-pres"
     transform="translate(7)">
    <g
       id="svg-sluzby-rozcestnik-web-pres-bg">
      <g
         id="g2222">
        <rect
           x="56"
           y="63"
           width="552"
           height="564"
           rx="50"
           fill="#4508bd"
           filter="url(#shadow-1)"
           id="rect2220" />
      </g>
      <rect
         x="53"
         y="135"
         width="558"
         height="500"
         rx="50"
         fill="#ffffff"
         id="rect2224" />
      <path
         d="m 168.742,84 -9.16,28 h -6.96 l -6.16,-18.96 -6.36,18.96 h -6.92 l -9.2,-28 h 6.72 l 6.32,19.68 6.6,-19.68 h 6 l 6.4,19.84 6.52,-19.84 z m 22.656,17.32 c 0,0.08 -0.04,0.64 -0.12,1.68 h -16.28 c 0.293,1.333 0.986,2.387 2.08,3.16 1.093,0.773 2.453,1.16 4.08,1.16 1.12,0 2.106,-0.16 2.96,-0.48 0.88,-0.347 1.693,-0.88 2.44,-1.6 l 3.32,3.6 c -2.027,2.32 -4.987,3.48 -8.88,3.48 -2.427,0 -4.574,-0.467 -6.44,-1.4 -1.867,-0.96 -3.307,-2.28 -4.32,-3.96 -1.014,-1.68 -1.52,-3.587 -1.52,-5.72 0,-2.1067 0.493,-4 1.48,-5.68 1.013,-1.7067 2.386,-3.0267 4.12,-3.96 1.76,-0.96 3.72,-1.44 5.88,-1.44 2.106,0 4.013,0.4533 5.72,1.36 1.706,0.9067 3.04,2.2133 4,3.92 0.986,1.68 1.48,3.64 1.48,5.88 z m -11.16,-6.44 c -1.414,0 -2.6,0.4 -3.56,1.2 -0.96,0.8 -1.547,1.8933 -1.76,3.28 h 10.6 c -0.214,-1.36 -0.8,-2.44 -1.76,-3.24 -0.96,-0.8267 -2.134,-1.24 -3.52,-1.24 z m 28.034,-4.72 c 2,0 3.813,0.4667 5.44,1.4 1.653,0.9067 2.947,2.2 3.88,3.88 0.933,1.6533 1.4,3.5867 1.4,5.8 0,2.213 -0.467,4.16 -1.4,5.84 -0.933,1.653 -2.227,2.947 -3.88,3.88 -1.627,0.907 -3.44,1.36 -5.44,1.36 -2.96,0 -5.213,-0.933 -6.76,-2.8 V 112 h -5.96 V 82.32 h 6.24 v 10.44 c 1.573,-1.7333 3.733,-2.6 6.48,-2.6 z m -1.08,17.04 c 1.6,0 2.907,-0.533 3.92,-1.6 1.04,-1.093 1.56,-2.547 1.56,-4.36 0,-1.8133 -0.52,-3.2533 -1.56,-4.32 -1.013,-1.0933 -2.32,-1.64 -3.92,-1.64 -1.6,0 -2.92,0.5467 -3.96,1.64 -1.013,1.0667 -1.52,2.5067 -1.52,4.32 0,1.813 0.507,3.267 1.52,4.36 1.04,1.067 2.36,1.6 3.96,1.6 z m 26.217,5.12 c -2.267,0 -4.307,-0.467 -6.12,-1.4 -1.787,-0.96 -3.187,-2.28 -4.2,-3.96 -1.013,-1.68 -1.52,-3.587 -1.52,-5.72 0,-2.1333 0.507,-4.04 1.52,-5.72 1.013,-1.68 2.413,-2.9867 4.2,-3.92 1.813,-0.96 3.853,-1.44 6.12,-1.44 2.267,0 4.293,0.48 6.08,1.44 1.787,0.9333 3.187,2.24 4.2,3.92 1.013,1.68 1.52,3.5867 1.52,5.72 0,2.133 -0.507,4.04 -1.52,5.72 -1.013,1.68 -2.413,3 -4.2,3.96 -1.787,0.933 -3.813,1.4 -6.08,1.4 z m 0,-5.12 c 1.6,0 2.907,-0.533 3.92,-1.6 1.04,-1.093 1.56,-2.547 1.56,-4.36 0,-1.8133 -0.52,-3.2533 -1.56,-4.32 -1.013,-1.0933 -2.32,-1.64 -3.92,-1.64 -1.6,0 -2.92,0.5467 -3.96,1.64 -1.04,1.0667 -1.56,2.5067 -1.56,4.32 0,1.813 0.52,3.267 1.56,4.36 1.04,1.067 2.36,1.6 3.96,1.6 z m 36.745,-16.72 -9.08,21.52 h -6.44 l -9.04,-21.52 h 6.44 l 5.96,14.64 6.16,-14.64 z m 10.523,-0.32 c 3.334,0 5.894,0.8 7.68,2.4 1.787,1.5733 2.68,3.96 2.68,7.16 V 112 h -5.84 v -2.68 c -1.173,2 -3.36,3 -6.56,3 -1.653,0 -3.093,-0.28 -4.32,-0.84 -1.2,-0.56 -2.12,-1.333 -2.76,-2.32 -0.64,-0.987 -0.96,-2.107 -0.96,-3.36 0,-2 0.747,-3.573 2.24,-4.72 1.52,-1.1467 3.854,-1.72 7,-1.72 h 4.96 c 0,-1.36 -0.413,-2.4 -1.24,-3.12 -0.826,-0.7467 -2.066,-1.12 -3.72,-1.12 -1.146,0 -2.28,0.1867 -3.4,0.56 -1.093,0.3467 -2.026,0.8267 -2.8,1.44 l -2.24,-4.36 c 1.174,-0.8267 2.574,-1.4667 4.2,-1.92 1.654,-0.4533 3.347,-0.68 5.08,-0.68 z m -0.48,17.96 c 1.067,0 2.014,-0.24 2.84,-0.72 0.827,-0.507 1.414,-1.24 1.76,-2.2 V 103 h -4.28 c -2.56,0 -3.84,0.84 -3.84,2.52 0,0.8 0.307,1.44 0.92,1.92 0.64,0.453 1.507,0.68 2.6,0.68 z m 2.88,-26.16 h 6.72 l -7.24,5.76 h -4.88 z m 37.656,8.2 c 2,0 3.813,0.4667 5.44,1.4 1.653,0.9067 2.946,2.2 3.88,3.88 0.933,1.6533 1.4,3.5867 1.4,5.8 0,2.213 -0.467,4.16 -1.4,5.84 -0.934,1.653 -2.227,2.947 -3.88,3.88 -1.627,0.907 -3.44,1.36 -5.44,1.36 -2.747,0 -4.907,-0.867 -6.48,-2.6 v 10.04 h -6.24 V 90.48 h 5.96 v 2.48 c 1.546,-1.8667 3.8,-2.8 6.76,-2.8 z m -1.08,17.04 c 1.6,0 2.906,-0.533 3.92,-1.6 1.04,-1.093 1.56,-2.547 1.56,-4.36 0,-1.8133 -0.52,-3.2533 -1.56,-4.32 -1.014,-1.0933 -2.32,-1.64 -3.92,-1.64 -1.6,0 -2.92,0.5467 -3.96,1.64 -1.014,1.0667 -1.52,2.5067 -1.52,4.32 0,1.813 0.506,3.267 1.52,4.36 1.04,1.067 2.36,1.6 3.96,1.6 z M 341.59,93.32 c 0.747,-1.04 1.747,-1.8267 3,-2.36 1.28,-0.5333 2.747,-0.8 4.4,-0.8 v 5.76 c -0.693,-0.0533 -1.16,-0.08 -1.4,-0.08 -1.787,0 -3.187,0.5067 -4.2,1.52 -1.013,0.9867 -1.52,2.48 -1.52,4.48 V 112 h -6.24 V 90.48 h 5.96 z m 31.995,8 c 0,0.08 -0.04,0.64 -0.12,1.68 h -16.28 c 0.293,1.333 0.987,2.387 2.08,3.16 1.093,0.773 2.453,1.16 4.08,1.16 1.12,0 2.107,-0.16 2.96,-0.48 0.88,-0.347 1.693,-0.88 2.44,-1.6 l 3.32,3.6 c -2.027,2.32 -4.987,3.48 -8.88,3.48 -2.427,0 -4.573,-0.467 -6.44,-1.4 -1.867,-0.96 -3.307,-2.28 -4.32,-3.96 -1.013,-1.68 -1.52,-3.587 -1.52,-5.72 0,-2.1067 0.493,-4 1.48,-5.68 1.013,-1.7067 2.387,-3.0267 4.12,-3.96 1.76,-0.96 3.72,-1.44 5.88,-1.44 2.107,0 4.013,0.4533 5.72,1.36 1.707,0.9067 3.04,2.2133 4,3.92 0.987,1.68 1.48,3.64 1.48,5.88 z m -11.16,-6.44 c -1.413,0 -2.6,0.4 -3.56,1.2 -0.96,0.8 -1.547,1.8933 -1.76,3.28 h 10.6 c -0.213,-1.36 -0.8,-2.44 -1.76,-3.24 -0.96,-0.8267 -2.133,-1.24 -3.52,-1.24 z m 32.839,12.32 v 4.8 h -19.2 v -3.76 l 10.96,-12.96 h -10.68 v -4.8 h 18.56 v 3.76 l -10.96,12.96 z m 24.805,-5.88 c 0,0.08 -0.04,0.64 -0.12,1.68 h -16.28 c 0.294,1.333 0.987,2.387 2.08,3.16 1.094,0.773 2.454,1.16 4.08,1.16 1.12,0 2.107,-0.16 2.96,-0.48 0.88,-0.347 1.694,-0.88 2.44,-1.6 l 3.32,3.6 c -2.026,2.32 -4.986,3.48 -8.88,3.48 -2.426,0 -4.573,-0.467 -6.44,-1.4 -1.866,-0.96 -3.306,-2.28 -4.32,-3.96 -1.013,-1.68 -1.52,-3.587 -1.52,-5.72 0,-2.1067 0.494,-4 1.48,-5.68 1.014,-1.7067 2.387,-3.0267 4.12,-3.96 1.76,-0.96 3.72,-1.44 5.88,-1.44 2.107,0 4.014,0.4533 5.72,1.36 1.707,0.9067 3.04,2.2133 4,3.92 0.987,1.68 1.48,3.64 1.48,5.88 z m -11.16,-6.44 c -1.413,0 -2.6,0.4 -3.56,1.2 -0.96,0.8 -1.546,1.8933 -1.76,3.28 h 10.6 c -0.213,-1.36 -0.8,-2.44 -1.76,-3.24 -0.96,-0.8267 -2.133,-1.24 -3.52,-1.24 z m 28.395,-4.72 c 2.666,0 4.813,0.8 6.44,2.4 1.653,1.6 2.48,3.9733 2.48,7.12 V 112 h -6.24 v -11.36 c 0,-1.7067 -0.374,-2.9733 -1.12,-3.8 -0.747,-0.8533 -1.827,-1.28 -3.24,-1.28 -1.574,0 -2.827,0.4933 -3.76,1.48 -0.934,0.96 -1.4,2.4 -1.4,4.32 V 112 h -6.24 V 90.48 h 5.96 V 93 c 0.826,-0.9067 1.853,-1.6 3.08,-2.08 1.226,-0.5067 2.573,-0.76 4.04,-0.76 z m 28.456,20.8 c -0.613,0.453 -1.373,0.8 -2.28,1.04 -0.88,0.213 -1.813,0.32 -2.8,0.32 -2.56,0 -4.547,-0.653 -5.96,-1.96 -1.387,-1.307 -2.08,-3.227 -2.08,-5.76 v -8.84 h -3.32 v -4.8 h 3.32 v -5.24 h 6.24 v 5.24 h 5.36 v 4.8 h -5.36 v 8.76 c 0,0.907 0.227,1.613 0.68,2.12 0.48,0.48 1.147,0.72 2,0.72 0.987,0 1.827,-0.267 2.52,-0.8 z m 12.183,-20.8 c 3.333,0 5.893,0.8 7.68,2.4 1.786,1.5733 2.68,3.96 2.68,7.16 V 112 h -5.84 v -2.68 c -1.174,2 -3.36,3 -6.56,3 -1.654,0 -3.094,-0.28 -4.32,-0.84 -1.2,-0.56 -2.12,-1.333 -2.76,-2.32 -0.64,-0.987 -0.96,-2.107 -0.96,-3.36 0,-2 0.746,-3.573 2.24,-4.72 1.52,-1.1467 3.853,-1.72 7,-1.72 h 4.96 c 0,-1.36 -0.414,-2.4 -1.24,-3.12 -0.827,-0.7467 -2.067,-1.12 -3.72,-1.12 -1.147,0 -2.28,0.1867 -3.4,0.56 -1.094,0.3467 -2.027,0.8267 -2.8,1.44 l -2.24,-4.36 c 1.173,-0.8267 2.573,-1.4667 4.2,-1.92 1.653,-0.4533 3.346,-0.68 5.08,-0.68 z m -0.48,17.96 c 1.066,0 2.013,-0.24 2.84,-0.72 0.826,-0.507 1.413,-1.24 1.76,-2.2 V 103 h -4.28 c -2.56,0 -3.84,0.84 -3.84,2.52 0,0.8 0.306,1.44 0.92,1.92 0.64,0.453 1.506,0.68 2.6,0.68 z m 27.122,4.2 c -2.294,0 -4.36,-0.467 -6.2,-1.4 -1.814,-0.96 -3.24,-2.28 -4.28,-3.96 -1.014,-1.68 -1.52,-3.587 -1.52,-5.72 0,-2.1333 0.506,-4.04 1.52,-5.72 1.04,-1.68 2.466,-2.9867 4.28,-3.92 1.84,-0.96 3.906,-1.44 6.2,-1.44 2.266,0 4.24,0.48 5.92,1.44 1.706,0.9333 2.946,2.28 3.72,4.04 l -4.84,2.6 c -1.12,-1.9733 -2.734,-2.96 -4.84,-2.96 -1.627,0 -2.974,0.5333 -4.04,1.6 -1.067,1.0667 -1.6,2.52 -1.6,4.36 0,1.84 0.533,3.293 1.6,4.36 1.066,1.067 2.413,1.6 4.04,1.6 2.133,0 3.746,-0.987 4.84,-2.96 l 4.84,2.64 c -0.774,1.707 -2.014,3.04 -3.72,4 -1.68,0.96 -3.654,1.44 -5.92,1.44 z m 34.039,-11 c 0,0.08 -0.04,0.64 -0.12,1.68 h -16.28 c 0.293,1.333 0.987,2.387 2.08,3.16 1.093,0.773 2.453,1.16 4.08,1.16 1.12,0 2.107,-0.16 2.96,-0.48 0.88,-0.347 1.693,-0.88 2.44,-1.6 l 3.32,3.6 c -2.027,2.32 -4.987,3.48 -8.88,3.48 -2.427,0 -4.573,-0.467 -6.44,-1.4 -1.867,-0.96 -3.307,-2.28 -4.32,-3.96 -1.013,-1.68 -1.52,-3.587 -1.52,-5.72 0,-2.1067 0.493,-4 1.48,-5.68 1.013,-1.7067 2.387,-3.0267 4.12,-3.96 1.76,-0.96 3.72,-1.44 5.88,-1.44 2.107,0 4.013,0.4533 5.72,1.36 1.707,0.9067 3.04,2.2133 4,3.92 0.987,1.68 1.48,3.64 1.48,5.88 z m -11.16,-6.44 c -1.413,0 -2.6,0.4 -3.56,1.2 -0.96,0.8 -1.547,1.8933 -1.76,3.28 h 10.6 c -0.213,-1.36 -0.8,-2.44 -1.76,-3.24 -0.96,-0.8267 -2.133,-1.24 -3.52,-1.24 z"
         fill="#ffffff"
         id="path2226" />
    </g>
    <g
       id="svg-sluzby-rozcestnik-web-pres-nav">
      <g
         filter="url(#shadow-1)"
         id="g2230">
        <rect
           x="103"
           y="201"
           width="457.14301"
           height="26.2857"
           rx="13.1429"
           fill="#ffffff"
           id="rect2228" />
      </g>
      <path
         d="m 130.752,219.072 c -1.088,0 -1.936,-0.312 -2.544,-0.936 -0.608,-0.624 -0.912,-1.532 -0.912,-2.724 V 210.6 h 0.888 v 4.776 c 0,0.976 0.22,1.704 0.66,2.184 0.44,0.48 1.076,0.72 1.908,0.72 0.84,0 1.48,-0.24 1.92,-0.72 0.44,-0.48 0.66,-1.208 0.66,-2.184 V 210.6 h 0.864 v 4.812 c 0,1.192 -0.304,2.1 -0.912,2.724 -0.6,0.624 -1.444,0.936 -2.532,0.936 z m 0.864,-10.644 h 1.14 l -1.944,1.488 h -0.84 z m 10.38,4.26 -2.808,6.312 h -0.876 l -2.796,-6.312 h 0.888 l 2.364,5.376 2.388,-5.376 z m 3.604,6.372 c -0.608,0 -1.156,-0.136 -1.644,-0.408 -0.488,-0.28 -0.872,-0.664 -1.152,-1.152 -0.28,-0.488 -0.42,-1.04 -0.42,-1.656 0,-0.616 0.14,-1.168 0.42,-1.656 0.28,-0.488 0.664,-0.868 1.152,-1.14 0.488,-0.272 1.036,-0.408 1.644,-0.408 0.608,0 1.156,0.136 1.644,0.408 0.488,0.272 0.868,0.652 1.14,1.14 0.28,0.488 0.42,1.04 0.42,1.656 0,0.616 -0.14,1.168 -0.42,1.656 -0.272,0.488 -0.652,0.872 -1.14,1.152 -0.488,0.272 -1.036,0.408 -1.644,0.408 z m 0,-0.756 c 0.448,0 0.848,-0.1 1.2,-0.3 0.36,-0.208 0.64,-0.5 0.84,-0.876 0.2,-0.376 0.3,-0.804 0.3,-1.284 0,-0.48 -0.1,-0.908 -0.3,-1.284 -0.2,-0.376 -0.48,-0.664 -0.84,-0.864 -0.352,-0.208 -0.752,-0.312 -1.2,-0.312 -0.448,0 -0.852,0.104 -1.212,0.312 -0.352,0.2 -0.632,0.488 -0.84,0.864 -0.2,0.376 -0.3,0.804 -0.3,1.284 0,0.48 0.1,0.908 0.3,1.284 0.208,0.376 0.488,0.668 0.84,0.876 0.36,0.2 0.764,0.3 1.212,0.3 z m 10.703,-8.208 V 219 h -0.816 v -1.248 c -0.256,0.424 -0.596,0.748 -1.02,0.972 -0.416,0.224 -0.888,0.336 -1.416,0.336 -0.592,0 -1.128,-0.136 -1.608,-0.408 -0.48,-0.272 -0.856,-0.652 -1.128,-1.14 -0.272,-0.488 -0.408,-1.044 -0.408,-1.668 0,-0.624 0.136,-1.18 0.408,-1.668 0.272,-0.488 0.648,-0.864 1.128,-1.128 0.48,-0.272 1.016,-0.408 1.608,-0.408 0.512,0 0.972,0.108 1.38,0.324 0.416,0.208 0.756,0.516 1.02,0.924 v -3.792 z m -3.18,8.208 c 0.44,0 0.836,-0.1 1.188,-0.3 0.36,-0.208 0.64,-0.5 0.84,-0.876 0.208,-0.376 0.312,-0.804 0.312,-1.284 0,-0.48 -0.104,-0.908 -0.312,-1.284 -0.2,-0.376 -0.48,-0.664 -0.84,-0.864 -0.352,-0.208 -0.748,-0.312 -1.188,-0.312 -0.448,0 -0.852,0.104 -1.212,0.312 -0.352,0.2 -0.632,0.488 -0.84,0.864 -0.2,0.376 -0.3,0.804 -0.3,1.284 0,0.48 0.1,0.908 0.3,1.284 0.208,0.376 0.488,0.668 0.84,0.876 0.36,0.2 0.764,0.3 1.212,0.3 z"
         fill="#310686"
         id="path2232" />
      <path
         d="m 180.828,211.368 v 3.3 h 4.344 v 0.768 h -4.344 V 219 h -0.888 v -8.4 h 5.76 v 0.768 z m 8.894,7.692 c -0.608,0 -1.156,-0.136 -1.644,-0.408 -0.488,-0.28 -0.872,-0.664 -1.152,-1.152 -0.28,-0.488 -0.42,-1.04 -0.42,-1.656 0,-0.616 0.14,-1.168 0.42,-1.656 0.28,-0.488 0.664,-0.868 1.152,-1.14 0.488,-0.272 1.036,-0.408 1.644,-0.408 0.608,0 1.156,0.136 1.644,0.408 0.488,0.272 0.868,0.652 1.14,1.14 0.28,0.488 0.42,1.04 0.42,1.656 0,0.616 -0.14,1.168 -0.42,1.656 -0.272,0.488 -0.652,0.872 -1.14,1.152 -0.488,0.272 -1.036,0.408 -1.644,0.408 z m 0,-0.756 c 0.448,0 0.848,-0.1 1.2,-0.3 0.36,-0.208 0.64,-0.5 0.84,-0.876 0.2,-0.376 0.3,-0.804 0.3,-1.284 0,-0.48 -0.1,-0.908 -0.3,-1.284 -0.2,-0.376 -0.48,-0.664 -0.84,-0.864 -0.352,-0.208 -0.752,-0.312 -1.2,-0.312 -0.448,0 -0.852,0.104 -1.212,0.312 -0.352,0.2 -0.632,0.488 -0.84,0.864 -0.2,0.376 -0.3,0.804 -0.3,1.284 0,0.48 0.1,0.908 0.3,1.284 0.208,0.376 0.488,0.668 0.84,0.876 0.36,0.2 0.764,0.3 1.212,0.3 z m 8.268,0.312 c -0.16,0.144 -0.36,0.256 -0.6,0.336 -0.232,0.072 -0.476,0.108 -0.732,0.108 -0.592,0 -1.048,-0.16 -1.368,-0.48 -0.32,-0.32 -0.48,-0.772 -0.48,-1.356 v -3.816 h -1.128 v -0.72 h 1.128 v -1.38 h 0.852 v 1.38 h 1.92 v 0.72 h -1.92 v 3.768 c 0,0.376 0.092,0.664 0.276,0.864 0.192,0.192 0.464,0.288 0.816,0.288 0.176,0 0.344,-0.028 0.504,-0.084 0.168,-0.056 0.312,-0.136 0.432,-0.24 z m 3.908,0.444 c -0.608,0 -1.156,-0.136 -1.644,-0.408 -0.488,-0.28 -0.872,-0.664 -1.152,-1.152 -0.28,-0.488 -0.42,-1.04 -0.42,-1.656 0,-0.616 0.14,-1.168 0.42,-1.656 0.28,-0.488 0.664,-0.868 1.152,-1.14 0.488,-0.272 1.036,-0.408 1.644,-0.408 0.608,0 1.156,0.136 1.644,0.408 0.488,0.272 0.868,0.652 1.14,1.14 0.28,0.488 0.42,1.04 0.42,1.656 0,0.616 -0.14,1.168 -0.42,1.656 -0.272,0.488 -0.652,0.872 -1.14,1.152 -0.488,0.272 -1.036,0.408 -1.644,0.408 z m 0,-0.756 c 0.448,0 0.848,-0.1 1.2,-0.3 0.36,-0.208 0.64,-0.5 0.84,-0.876 0.2,-0.376 0.3,-0.804 0.3,-1.284 0,-0.48 -0.1,-0.908 -0.3,-1.284 -0.2,-0.376 -0.48,-0.664 -0.84,-0.864 -0.352,-0.208 -0.752,-0.312 -1.2,-0.312 -0.448,0 -0.852,0.104 -1.212,0.312 -0.352,0.2 -0.632,0.488 -0.84,0.864 -0.2,0.376 -0.3,0.804 -0.3,1.284 0,0.48 0.1,0.908 0.3,1.284 0.208,0.376 0.488,0.668 0.84,0.876 0.36,0.2 0.764,0.3 1.212,0.3 z m 10.788,-5.616 v 5.544 c 0,1.072 -0.264,1.864 -0.792,2.376 -0.52,0.52 -1.308,0.78 -2.364,0.78 -0.584,0 -1.14,-0.088 -1.668,-0.264 -0.52,-0.168 -0.944,-0.404 -1.272,-0.708 l 0.432,-0.648 c 0.304,0.272 0.672,0.484 1.104,0.636 0.44,0.152 0.9,0.228 1.38,0.228 0.8,0 1.388,-0.188 1.764,-0.564 0.376,-0.368 0.564,-0.944 0.564,-1.728 v -0.804 c -0.264,0.4 -0.612,0.704 -1.044,0.912 -0.424,0.208 -0.896,0.312 -1.416,0.312 -0.592,0 -1.132,-0.128 -1.62,-0.384 -0.48,-0.264 -0.86,-0.628 -1.14,-1.092 -0.272,-0.472 -0.408,-1.004 -0.408,-1.596 0,-0.592 0.136,-1.12 0.408,-1.584 0.28,-0.464 0.66,-0.824 1.14,-1.08 0.48,-0.256 1.02,-0.384 1.62,-0.384 0.536,0 1.02,0.108 1.452,0.324 0.432,0.216 0.78,0.528 1.044,0.936 v -1.212 z m -3.228,5.316 c 0.456,0 0.868,-0.096 1.236,-0.288 0.368,-0.2 0.652,-0.476 0.852,-0.828 0.208,-0.352 0.312,-0.752 0.312,-1.2 0,-0.448 -0.104,-0.844 -0.312,-1.188 -0.2,-0.352 -0.484,-0.624 -0.852,-0.816 -0.36,-0.2 -0.772,-0.3 -1.236,-0.3 -0.456,0 -0.868,0.096 -1.236,0.288 -0.36,0.192 -0.644,0.464 -0.852,0.816 -0.2,0.352 -0.3,0.752 -0.3,1.2 0,0.448 0.1,0.848 0.3,1.2 0.208,0.352 0.492,0.628 0.852,0.828 0.368,0.192 0.78,0.288 1.236,0.288 z m 7.818,-5.364 c 0.824,0 1.456,0.208 1.896,0.624 0.44,0.408 0.66,1.016 0.66,1.824 V 219 h -0.816 v -0.984 c -0.192,0.328 -0.476,0.584 -0.852,0.768 -0.368,0.184 -0.808,0.276 -1.32,0.276 -0.704,0 -1.264,-0.168 -1.68,-0.504 -0.416,-0.336 -0.624,-0.78 -0.624,-1.332 0,-0.536 0.192,-0.968 0.576,-1.296 0.392,-0.328 1.012,-0.492 1.86,-0.492 h 2.004 v -0.384 c 0,-0.544 -0.152,-0.956 -0.456,-1.236 -0.304,-0.288 -0.748,-0.432 -1.332,-0.432 -0.4,0 -0.784,0.068 -1.152,0.204 -0.368,0.128 -0.684,0.308 -0.948,0.54 l -0.384,-0.636 c 0.32,-0.272 0.704,-0.48 1.152,-0.624 0.448,-0.152 0.92,-0.228 1.416,-0.228 z m -0.3,5.748 c 0.48,0 0.892,-0.108 1.236,-0.324 0.344,-0.224 0.6,-0.544 0.768,-0.96 v -1.032 H 217 c -1.08,0 -1.62,0.376 -1.62,1.128 0,0.368 0.14,0.66 0.42,0.876 0.28,0.208 0.672,0.312 1.176,0.312 z m 5.17,-8.292 h 0.852 V 219 h -0.852 z m 8.719,6.012 h -5.28 c 0.048,0.656 0.3,1.188 0.756,1.596 0.456,0.4 1.032,0.6 1.728,0.6 0.392,0 0.752,-0.068 1.08,-0.204 0.328,-0.144 0.612,-0.352 0.852,-0.624 l 0.48,0.552 c -0.28,0.336 -0.632,0.592 -1.056,0.768 -0.416,0.176 -0.876,0.264 -1.38,0.264 -0.648,0 -1.224,-0.136 -1.728,-0.408 -0.496,-0.28 -0.884,-0.664 -1.164,-1.152 -0.28,-0.488 -0.42,-1.04 -0.42,-1.656 0,-0.616 0.132,-1.168 0.396,-1.656 0.272,-0.488 0.64,-0.868 1.104,-1.14 0.472,-0.272 1,-0.408 1.584,-0.408 0.584,0 1.108,0.136 1.572,0.408 0.464,0.272 0.828,0.652 1.092,1.14 0.264,0.48 0.396,1.032 0.396,1.656 z m -3.048,-2.736 c -0.608,0 -1.12,0.196 -1.536,0.588 -0.408,0.384 -0.64,0.888 -0.696,1.512 h 4.476 c -0.056,-0.624 -0.292,-1.128 -0.708,-1.512 -0.408,-0.392 -0.92,-0.588 -1.536,-0.588 z m 5.61,0.552 c 0.2,-0.424 0.496,-0.744 0.888,-0.96 0.4,-0.216 0.892,-0.324 1.476,-0.324 v 0.828 l -0.204,-0.012 c -0.664,0 -1.184,0.204 -1.56,0.612 -0.376,0.408 -0.564,0.98 -0.564,1.716 V 219 h -0.852 v -6.312 h 0.816 z m 3.907,-1.236 h 0.852 V 219 h -0.852 z m 0.432,-1.38 c -0.176,0 -0.324,-0.06 -0.444,-0.18 -0.12,-0.12 -0.18,-0.264 -0.18,-0.432 0,-0.16 0.06,-0.3 0.18,-0.42 0.12,-0.12 0.268,-0.18 0.444,-0.18 0.176,0 0.324,0.06 0.444,0.18 0.12,0.112 0.18,0.248 0.18,0.408 0,0.176 -0.06,0.324 -0.18,0.444 -0.12,0.12 -0.268,0.18 -0.444,0.18 z m 8.286,4.8 h -5.28 c 0.048,0.656 0.3,1.188 0.756,1.596 0.456,0.4 1.032,0.6 1.728,0.6 0.392,0 0.752,-0.068 1.08,-0.204 0.328,-0.144 0.612,-0.352 0.852,-0.624 l 0.48,0.552 c -0.28,0.336 -0.632,0.592 -1.056,0.768 -0.416,0.176 -0.876,0.264 -1.38,0.264 -0.648,0 -1.224,-0.136 -1.728,-0.408 -0.496,-0.28 -0.884,-0.664 -1.164,-1.152 -0.28,-0.488 -0.42,-1.04 -0.42,-1.656 0,-0.616 0.132,-1.168 0.396,-1.656 0.272,-0.488 0.64,-0.868 1.104,-1.14 0.472,-0.272 1,-0.408 1.584,-0.408 0.584,0 1.108,0.136 1.572,0.408 0.464,0.272 0.828,0.652 1.092,1.14 0.264,0.48 0.396,1.032 0.396,1.656 z m -3.048,-2.736 c -0.608,0 -1.12,0.196 -1.536,0.588 -0.408,0.384 -0.64,0.888 -0.696,1.512 h 4.476 c -0.056,-0.624 -0.292,-1.128 -0.708,-1.512 -0.408,-0.392 -0.92,-0.588 -1.536,-0.588 z"
         fill="#310686"
         id="path2234" />
      <path
         d="m 286.468,219.072 c -0.832,0 -1.588,-0.184 -2.268,-0.552 -0.672,-0.376 -1.2,-0.888 -1.584,-1.536 -0.376,-0.648 -0.564,-1.376 -0.564,-2.184 0,-0.808 0.188,-1.536 0.564,-2.184 0.384,-0.648 0.912,-1.156 1.584,-1.524 0.68,-0.376 1.436,-0.564 2.268,-0.564 0.832,0 1.58,0.184 2.244,0.552 0.672,0.368 1.2,0.88 1.584,1.536 0.384,0.648 0.576,1.376 0.576,2.184 0,0.808 -0.192,1.54 -0.576,2.196 -0.384,0.648 -0.912,1.156 -1.584,1.524 -0.664,0.368 -1.412,0.552 -2.244,0.552 z m 0,-0.792 c 0.664,0 1.264,-0.148 1.8,-0.444 0.536,-0.304 0.956,-0.72 1.26,-1.248 0.304,-0.536 0.456,-1.132 0.456,-1.788 0,-0.656 -0.152,-1.248 -0.456,-1.776 -0.304,-0.536 -0.724,-0.952 -1.26,-1.248 -0.536,-0.304 -1.136,-0.456 -1.8,-0.456 -0.664,0 -1.268,0.152 -1.812,0.456 -0.536,0.296 -0.96,0.712 -1.272,1.248 -0.304,0.528 -0.456,1.12 -0.456,1.776 0,0.656 0.152,1.252 0.456,1.788 0.312,0.528 0.736,0.944 1.272,1.248 0.544,0.296 1.148,0.444 1.812,0.444 z m 12.571,-5.64 c 0.792,0 1.42,0.232 1.884,0.696 0.472,0.456 0.708,1.124 0.708,2.004 V 219 h -0.852 v -3.576 c 0,-0.656 -0.164,-1.156 -0.492,-1.5 -0.328,-0.344 -0.796,-0.516 -1.404,-0.516 -0.68,0 -1.22,0.204 -1.62,0.612 -0.392,0.4 -0.588,0.956 -0.588,1.668 V 219 h -0.852 v -6.312 h 0.816 v 1.164 c 0.232,-0.384 0.552,-0.68 0.96,-0.888 0.416,-0.216 0.896,-0.324 1.44,-0.324 z m 7.114,0 c 0.824,0 1.456,0.208 1.896,0.624 0.44,0.408 0.66,1.016 0.66,1.824 V 219 h -0.816 v -0.984 c -0.192,0.328 -0.476,0.584 -0.852,0.768 -0.368,0.184 -0.808,0.276 -1.32,0.276 -0.704,0 -1.264,-0.168 -1.68,-0.504 -0.416,-0.336 -0.624,-0.78 -0.624,-1.332 0,-0.536 0.192,-0.968 0.576,-1.296 0.392,-0.328 1.012,-0.492 1.86,-0.492 h 2.004 v -0.384 c 0,-0.544 -0.152,-0.956 -0.456,-1.236 -0.304,-0.288 -0.748,-0.432 -1.332,-0.432 -0.4,0 -0.784,0.068 -1.152,0.204 -0.368,0.128 -0.684,0.308 -0.948,0.54 l -0.384,-0.636 c 0.32,-0.272 0.704,-0.48 1.152,-0.624 0.448,-0.152 0.92,-0.228 1.416,-0.228 z m -0.3,5.748 c 0.48,0 0.892,-0.108 1.236,-0.324 0.344,-0.224 0.6,-0.544 0.768,-0.96 v -1.032 h -1.98 c -1.08,0 -1.62,0.376 -1.62,1.128 0,0.368 0.14,0.66 0.42,0.876 0.28,0.208 0.672,0.312 1.176,0.312 z m 1.188,-8.172 h 1.14 l -1.944,1.488 h -0.84 z m 5.674,8.844 c -0.512,0 -1.004,-0.072 -1.476,-0.216 -0.464,-0.152 -0.828,-0.34 -1.092,-0.564 l 0.384,-0.672 c 0.264,0.208 0.596,0.38 0.996,0.516 0.4,0.128 0.816,0.192 1.248,0.192 0.576,0 1,-0.088 1.272,-0.264 0.28,-0.184 0.42,-0.44 0.42,-0.768 0,-0.232 -0.076,-0.412 -0.228,-0.54 -0.152,-0.136 -0.344,-0.236 -0.576,-0.3 -0.232,-0.072 -0.54,-0.14 -0.924,-0.204 -0.512,-0.096 -0.924,-0.192 -1.236,-0.288 -0.312,-0.104 -0.58,-0.276 -0.804,-0.516 -0.216,-0.24 -0.324,-0.572 -0.324,-0.996 0,-0.528 0.22,-0.96 0.66,-1.296 0.44,-0.336 1.052,-0.504 1.836,-0.504 0.408,0 0.816,0.056 1.224,0.168 0.408,0.104 0.744,0.244 1.008,0.42 l -0.372,0.684 c -0.52,-0.36 -1.14,-0.54 -1.86,-0.54 -0.544,0 -0.956,0.096 -1.236,0.288 -0.272,0.192 -0.408,0.444 -0.408,0.756 0,0.24 0.076,0.432 0.228,0.576 0.16,0.144 0.356,0.252 0.588,0.324 0.232,0.064 0.552,0.132 0.96,0.204 0.504,0.096 0.908,0.192 1.212,0.288 0.304,0.096 0.564,0.26 0.78,0.492 0.216,0.232 0.324,0.552 0.324,0.96 0,0.552 -0.232,0.992 -0.696,1.32 -0.456,0.32 -1.092,0.48 -1.908,0.48 z"
         fill="#310686"
         id="path2236" />
      <rect
         x="477.85699"
         y="205.57201"
         width="76.571404"
         height="18.2857"
         rx="9.1428604"
         fill="#4508bd"
         id="rect2238" />
      <path
         d="m 497.679,215.381 -1.573,1.595 V 219 h -0.814 v -7.7 h 0.814 v 4.653 l 4.521,-4.653 h 0.935 l -3.333,3.487 3.564,4.213 h -0.968 z m 7.364,3.674 c -0.557,0 -1.059,-0.125 -1.507,-0.374 -0.447,-0.257 -0.799,-0.609 -1.056,-1.056 -0.256,-0.447 -0.385,-0.953 -0.385,-1.518 0,-0.565 0.129,-1.071 0.385,-1.518 0.257,-0.447 0.609,-0.796 1.056,-1.045 0.448,-0.249 0.95,-0.374 1.507,-0.374 0.558,0 1.06,0.125 1.507,0.374 0.448,0.249 0.796,0.598 1.045,1.045 0.257,0.447 0.385,0.953 0.385,1.518 0,0.565 -0.128,1.071 -0.385,1.518 -0.249,0.447 -0.597,0.799 -1.045,1.056 -0.447,0.249 -0.949,0.374 -1.507,0.374 z m 0,-0.693 c 0.411,0 0.778,-0.092 1.1,-0.275 0.33,-0.191 0.587,-0.458 0.77,-0.803 0.184,-0.345 0.275,-0.737 0.275,-1.177 0,-0.44 -0.091,-0.832 -0.275,-1.177 -0.183,-0.345 -0.44,-0.609 -0.77,-0.792 -0.322,-0.191 -0.689,-0.286 -1.1,-0.286 -0.41,0 -0.781,0.095 -1.111,0.286 -0.322,0.183 -0.579,0.447 -0.77,0.792 -0.183,0.345 -0.275,0.737 -0.275,1.177 0,0.44 0.092,0.832 0.275,1.177 0.191,0.345 0.448,0.612 0.77,0.803 0.33,0.183 0.701,0.275 1.111,0.275 z m 7.48,-5.192 c 0.726,0 1.302,0.213 1.727,0.638 0.433,0.418 0.649,1.03 0.649,1.837 V 219 h -0.781 v -3.278 c 0,-0.601 -0.15,-1.06 -0.451,-1.375 -0.301,-0.315 -0.73,-0.473 -1.287,-0.473 -0.623,0 -1.118,0.187 -1.485,0.561 -0.359,0.367 -0.539,0.876 -0.539,1.529 V 219 h -0.781 v -5.786 h 0.748 v 1.067 c 0.213,-0.352 0.506,-0.623 0.88,-0.814 0.381,-0.198 0.821,-0.297 1.32,-0.297 z m 7.543,5.478 c -0.146,0.132 -0.33,0.235 -0.55,0.308 -0.212,0.066 -0.436,0.099 -0.671,0.099 -0.542,0 -0.96,-0.147 -1.254,-0.44 -0.293,-0.293 -0.44,-0.708 -0.44,-1.243 v -3.498 h -1.034 v -0.66 h 1.034 v -1.265 h 0.781 v 1.265 h 1.76 v 0.66 h -1.76 v 3.454 c 0,0.345 0.085,0.609 0.253,0.792 0.176,0.176 0.426,0.264 0.748,0.264 0.162,0 0.316,-0.026 0.462,-0.077 0.154,-0.051 0.286,-0.125 0.396,-0.22 z m 3.446,-5.478 c 0.755,0 1.335,0.191 1.738,0.572 0.403,0.374 0.605,0.931 0.605,1.672 V 219 h -0.748 v -0.902 c -0.176,0.301 -0.436,0.535 -0.781,0.704 -0.337,0.169 -0.741,0.253 -1.21,0.253 -0.645,0 -1.159,-0.154 -1.54,-0.462 -0.381,-0.308 -0.572,-0.715 -0.572,-1.221 0,-0.491 0.176,-0.887 0.528,-1.188 0.359,-0.301 0.928,-0.451 1.705,-0.451 h 1.837 v -0.352 c 0,-0.499 -0.139,-0.876 -0.418,-1.133 -0.279,-0.264 -0.686,-0.396 -1.221,-0.396 -0.367,0 -0.719,0.062 -1.056,0.187 -0.337,0.117 -0.627,0.282 -0.869,0.495 l -0.352,-0.583 c 0.293,-0.249 0.645,-0.44 1.056,-0.572 0.411,-0.139 0.843,-0.209 1.298,-0.209 z m -0.275,5.269 c 0.44,0 0.818,-0.099 1.133,-0.297 0.315,-0.205 0.55,-0.499 0.704,-0.88 v -0.946 h -1.815 c -0.99,0 -1.485,0.345 -1.485,1.034 0,0.337 0.128,0.605 0.385,0.803 0.257,0.191 0.616,0.286 1.078,0.286 z m 6.884,-2.343 -1.364,1.254 V 219 h -0.781 v -8.162 h 0.781 v 5.533 l 3.454,-3.157 h 0.968 l -2.475,2.365 2.706,3.421 h -0.957 z m 7.509,2.552 c -0.147,0.132 -0.33,0.235 -0.55,0.308 -0.213,0.066 -0.437,0.099 -0.671,0.099 -0.543,0 -0.961,-0.147 -1.254,-0.44 -0.294,-0.293 -0.44,-0.708 -0.44,-1.243 v -3.498 h -1.034 v -0.66 h 1.034 v -1.265 h 0.781 v 1.265 h 1.76 v 0.66 h -1.76 v 3.454 c 0,0.345 0.084,0.609 0.253,0.792 0.176,0.176 0.425,0.264 0.748,0.264 0.161,0 0.315,-0.026 0.462,-0.077 0.154,-0.051 0.286,-0.125 0.396,-0.22 z"
         fill="#ffffff"
         id="path2240" />
    </g>
    <g
       id="svg-sluzby-rozcestnik-web-pres-left-column">
      <g
         filter="url(#shadow-1)"
         id="g2244">
        <rect
           x="103"
           y="251"
           width="138"
           height="317"
           rx="13"
           fill="#310686"
           id="rect2242" />
      </g>
      <rect
         x="137"
         y="250"
         width="105"
         height="319"
         rx="13"
         fill="#ffffff"
         id="rect2246" />
      <g
         id="g1362">
        <rect
           x="151"
           y="269"
           width="77.714302"
           height="21.7143"
           rx="8"
           fill="#4508bd"
           id="rect2248" />
        <path
           d="m 170.184,284.078 c -0.676,0 -1.326,-0.108 -1.95,-0.325 -0.615,-0.217 -1.092,-0.503 -1.43,-0.858 l 0.377,-0.741 c 0.33,0.329 0.767,0.598 1.313,0.806 0.546,0.199 1.11,0.299 1.69,0.299 0.815,0 1.426,-0.147 1.833,-0.442 0.408,-0.303 0.611,-0.693 0.611,-1.17 0,-0.364 -0.112,-0.654 -0.338,-0.871 -0.216,-0.217 -0.485,-0.381 -0.806,-0.494 -0.32,-0.121 -0.767,-0.251 -1.339,-0.39 -0.684,-0.173 -1.23,-0.338 -1.638,-0.494 -0.407,-0.165 -0.758,-0.412 -1.053,-0.741 -0.286,-0.329 -0.429,-0.776 -0.429,-1.339 0,-0.459 0.122,-0.875 0.364,-1.248 0.243,-0.381 0.616,-0.685 1.118,-0.91 0.503,-0.225 1.127,-0.338 1.872,-0.338 0.52,0 1.027,0.074 1.521,0.221 0.503,0.139 0.936,0.334 1.3,0.585 l -0.325,0.767 c -0.381,-0.251 -0.788,-0.438 -1.222,-0.559 -0.433,-0.13 -0.858,-0.195 -1.274,-0.195 -0.797,0 -1.399,0.156 -1.807,0.468 -0.398,0.303 -0.598,0.698 -0.598,1.183 0,0.364 0.109,0.659 0.325,0.884 0.226,0.217 0.503,0.386 0.832,0.507 0.338,0.113 0.789,0.238 1.352,0.377 0.668,0.165 1.205,0.329 1.612,0.494 0.416,0.156 0.767,0.399 1.053,0.728 0.286,0.321 0.429,0.758 0.429,1.313 0,0.459 -0.125,0.88 -0.377,1.261 -0.242,0.373 -0.619,0.672 -1.131,0.897 -0.511,0.217 -1.139,0.325 -1.885,0.325 z m 5.294,-9.724 h 0.923 V 284 h -0.923 z m 6.287,9.711 c -0.659,0 -1.253,-0.147 -1.781,-0.442 -0.529,-0.303 -0.945,-0.719 -1.248,-1.248 -0.304,-0.529 -0.455,-1.127 -0.455,-1.794 0,-0.667 0.151,-1.265 0.455,-1.794 0.303,-0.529 0.719,-0.94 1.248,-1.235 0.528,-0.295 1.122,-0.442 1.781,-0.442 0.658,0 1.252,0.147 1.781,0.442 0.528,0.295 0.94,0.706 1.235,1.235 0.303,0.529 0.455,1.127 0.455,1.794 0,0.667 -0.152,1.265 -0.455,1.794 -0.295,0.529 -0.707,0.945 -1.235,1.248 -0.529,0.295 -1.123,0.442 -1.781,0.442 z m 0,-0.819 c 0.485,0 0.918,-0.108 1.3,-0.325 0.39,-0.225 0.693,-0.542 0.91,-0.949 0.216,-0.407 0.325,-0.871 0.325,-1.391 0,-0.52 -0.109,-0.984 -0.325,-1.391 -0.217,-0.407 -0.52,-0.719 -0.91,-0.936 -0.382,-0.225 -0.815,-0.338 -1.3,-0.338 -0.486,0 -0.923,0.113 -1.313,0.338 -0.382,0.217 -0.685,0.529 -0.91,0.936 -0.217,0.407 -0.325,0.871 -0.325,1.391 0,0.52 0.108,0.984 0.325,1.391 0.225,0.407 0.528,0.724 0.91,0.949 0.39,0.217 0.827,0.325 1.313,0.325 z m 10.064,-0.013 V 284 h -5.564 v -0.611 l 4.303,-5.447 h -4.225 v -0.78 h 5.408 v 0.611 l -4.303,5.46 z m -0.637,-8.749 -1.677,1.612 h -0.936 l -1.677,-1.612 h 0.858 l 1.287,1.066 1.287,-1.066 z m 4.988,6.084 -1.612,1.482 V 284 h -0.923 v -9.646 h 0.923 v 6.539 l 4.082,-3.731 h 1.144 l -2.925,2.795 3.198,4.043 h -1.131 z m 7.538,-3.458 c 0.893,0 1.577,0.225 2.054,0.676 0.477,0.442 0.715,1.101 0.715,1.976 V 284 h -0.884 v -1.066 c -0.208,0.355 -0.516,0.633 -0.923,0.832 -0.399,0.199 -0.875,0.299 -1.43,0.299 -0.763,0 -1.369,-0.182 -1.82,-0.546 -0.451,-0.364 -0.676,-0.845 -0.676,-1.443 0,-0.581 0.208,-1.049 0.624,-1.404 0.425,-0.355 1.096,-0.533 2.015,-0.533 h 2.171 v -0.416 c 0,-0.589 -0.165,-1.036 -0.494,-1.339 -0.329,-0.312 -0.81,-0.468 -1.443,-0.468 -0.433,0 -0.849,0.074 -1.248,0.221 -0.399,0.139 -0.741,0.334 -1.027,0.585 l -0.416,-0.689 c 0.347,-0.295 0.763,-0.52 1.248,-0.676 0.485,-0.165 0.997,-0.247 1.534,-0.247 z m -0.325,6.227 c 0.52,0 0.966,-0.117 1.339,-0.351 0.373,-0.243 0.65,-0.589 0.832,-1.04 v -1.118 h -2.145 c -1.17,0 -1.755,0.407 -1.755,1.222 0,0.399 0.152,0.715 0.455,0.949 0.303,0.225 0.728,0.338 1.274,0.338 z m 10.914,-8.437 v 9.1 h -0.936 v -8.268 h -2.145 V 274.9 Z"
           fill="#ffffff"
           id="path2250" />
        <rect
           x="151"
           y="298"
           width="77.714302"
           height="21.7143"
           rx="8"
           fill="#4508bd"
           id="rect2252" />
        <path
           d="m 168.339,313.078 c -0.676,0 -1.326,-0.108 -1.95,-0.325 -0.616,-0.217 -1.092,-0.503 -1.43,-0.858 l 0.377,-0.741 c 0.329,0.329 0.767,0.598 1.313,0.806 0.546,0.199 1.109,0.299 1.69,0.299 0.814,0 1.425,-0.147 1.833,-0.442 0.407,-0.303 0.611,-0.693 0.611,-1.17 0,-0.364 -0.113,-0.654 -0.338,-0.871 -0.217,-0.217 -0.486,-0.381 -0.806,-0.494 -0.321,-0.121 -0.767,-0.251 -1.339,-0.39 -0.685,-0.173 -1.231,-0.338 -1.638,-0.494 -0.408,-0.165 -0.759,-0.412 -1.053,-0.741 -0.286,-0.329 -0.429,-0.776 -0.429,-1.339 0,-0.459 0.121,-0.875 0.364,-1.248 0.242,-0.381 0.615,-0.685 1.118,-0.91 0.502,-0.225 1.126,-0.338 1.872,-0.338 0.52,0 1.027,0.074 1.521,0.221 0.502,0.139 0.936,0.334 1.3,0.585 l -0.325,0.767 c -0.382,-0.251 -0.789,-0.438 -1.222,-0.559 -0.434,-0.13 -0.858,-0.195 -1.274,-0.195 -0.798,0 -1.4,0.156 -1.807,0.468 -0.399,0.303 -0.598,0.698 -0.598,1.183 0,0.364 0.108,0.659 0.325,0.884 0.225,0.217 0.502,0.386 0.832,0.507 0.338,0.113 0.788,0.238 1.352,0.377 0.667,0.165 1.204,0.329 1.612,0.494 0.416,0.156 0.767,0.399 1.053,0.728 0.286,0.321 0.429,0.758 0.429,1.313 0,0.459 -0.126,0.88 -0.377,1.261 -0.243,0.373 -0.62,0.672 -1.131,0.897 -0.512,0.217 -1.14,0.325 -1.885,0.325 z m 5.294,-9.724 h 0.923 V 313 h -0.923 z m 6.286,9.711 c -0.659,0 -1.252,-0.147 -1.781,-0.442 -0.529,-0.303 -0.945,-0.719 -1.248,-1.248 -0.303,-0.529 -0.455,-1.127 -0.455,-1.794 0,-0.667 0.152,-1.265 0.455,-1.794 0.303,-0.529 0.719,-0.94 1.248,-1.235 0.529,-0.295 1.122,-0.442 1.781,-0.442 0.659,0 1.252,0.147 1.781,0.442 0.529,0.295 0.94,0.706 1.235,1.235 0.303,0.529 0.455,1.127 0.455,1.794 0,0.667 -0.152,1.265 -0.455,1.794 -0.295,0.529 -0.706,0.945 -1.235,1.248 -0.529,0.295 -1.122,0.442 -1.781,0.442 z m 0,-0.819 c 0.485,0 0.919,-0.108 1.3,-0.325 0.39,-0.225 0.693,-0.542 0.91,-0.949 0.217,-0.407 0.325,-0.871 0.325,-1.391 0,-0.52 -0.108,-0.984 -0.325,-1.391 -0.217,-0.407 -0.52,-0.719 -0.91,-0.936 -0.381,-0.225 -0.815,-0.338 -1.3,-0.338 -0.485,0 -0.923,0.113 -1.313,0.338 -0.381,0.217 -0.685,0.529 -0.91,0.936 -0.217,0.407 -0.325,0.871 -0.325,1.391 0,0.52 0.108,0.984 0.325,1.391 0.225,0.407 0.529,0.724 0.91,0.949 0.39,0.217 0.828,0.325 1.313,0.325 z m 10.064,-0.013 V 313 h -5.564 v -0.611 l 4.303,-5.447 h -4.225 v -0.78 h 5.408 v 0.611 l -4.303,5.46 z m -0.637,-8.749 -1.677,1.612 h -0.936 l -1.677,-1.612 h 0.858 l 1.287,1.066 1.287,-1.066 z m 4.989,6.084 -1.612,1.482 V 313 H 191.8 v -9.646 h 0.923 v 6.539 l 4.082,-3.731 h 1.144 l -2.925,2.795 3.198,4.043 h -1.131 z m 7.537,-3.458 c 0.893,0 1.578,0.225 2.054,0.676 0.477,0.442 0.715,1.101 0.715,1.976 V 313 h -0.884 v -1.066 c -0.208,0.355 -0.515,0.633 -0.923,0.832 -0.398,0.199 -0.875,0.299 -1.43,0.299 -0.762,0 -1.369,-0.182 -1.82,-0.546 -0.45,-0.364 -0.676,-0.845 -0.676,-1.443 0,-0.581 0.208,-1.049 0.624,-1.404 0.425,-0.355 1.097,-0.533 2.015,-0.533 h 2.171 v -0.416 c 0,-0.589 -0.164,-1.036 -0.494,-1.339 -0.329,-0.312 -0.81,-0.468 -1.443,-0.468 -0.433,0 -0.849,0.074 -1.248,0.221 -0.398,0.139 -0.741,0.334 -1.027,0.585 l -0.416,-0.689 c 0.347,-0.295 0.763,-0.52 1.248,-0.676 0.486,-0.165 0.997,-0.247 1.534,-0.247 z m -0.325,6.227 c 0.52,0 0.967,-0.117 1.339,-0.351 0.373,-0.243 0.65,-0.589 0.832,-1.04 v -1.118 h -2.145 c -1.17,0 -1.755,0.407 -1.755,1.222 0,0.399 0.152,0.715 0.455,0.949 0.304,0.225 0.728,0.338 1.274,0.338 z m 14.607,-0.169 V 313 h -6.383 v -0.663 l 3.783,-3.705 c 0.476,-0.468 0.797,-0.871 0.962,-1.209 0.173,-0.347 0.26,-0.693 0.26,-1.04 0,-0.537 -0.187,-0.953 -0.559,-1.248 -0.364,-0.303 -0.889,-0.455 -1.573,-0.455 -1.066,0 -1.894,0.338 -2.483,1.014 l -0.663,-0.572 c 0.355,-0.416 0.806,-0.737 1.352,-0.962 0.554,-0.225 1.178,-0.338 1.872,-0.338 0.927,0 1.659,0.221 2.197,0.663 0.546,0.433 0.819,1.031 0.819,1.794 0,0.468 -0.104,0.919 -0.312,1.352 -0.208,0.433 -0.603,0.932 -1.183,1.495 l -3.094,3.042 z"
           fill="#ffffff"
           id="path2254" />
        <rect
           x="151"
           y="327"
           width="77.714302"
           height="21.7143"
           rx="8"
           fill="#4508bd"
           id="rect2256" />
        <path
           d="m 168.364,342.078 c -0.676,0 -1.326,-0.108 -1.95,-0.325 -0.615,-0.217 -1.092,-0.503 -1.43,-0.858 l 0.377,-0.741 c 0.329,0.329 0.767,0.598 1.313,0.806 0.546,0.199 1.109,0.299 1.69,0.299 0.815,0 1.426,-0.147 1.833,-0.442 0.407,-0.303 0.611,-0.693 0.611,-1.17 0,-0.364 -0.113,-0.654 -0.338,-0.871 -0.217,-0.217 -0.485,-0.381 -0.806,-0.494 -0.321,-0.121 -0.767,-0.251 -1.339,-0.39 -0.685,-0.173 -1.231,-0.338 -1.638,-0.494 -0.407,-0.165 -0.758,-0.412 -1.053,-0.741 -0.286,-0.329 -0.429,-0.776 -0.429,-1.339 0,-0.459 0.121,-0.875 0.364,-1.248 0.243,-0.381 0.615,-0.685 1.118,-0.91 0.503,-0.225 1.127,-0.338 1.872,-0.338 0.52,0 1.027,0.074 1.521,0.221 0.503,0.139 0.936,0.334 1.3,0.585 l -0.325,0.767 c -0.381,-0.251 -0.789,-0.438 -1.222,-0.559 -0.433,-0.13 -0.858,-0.195 -1.274,-0.195 -0.797,0 -1.4,0.156 -1.807,0.468 -0.399,0.303 -0.598,0.698 -0.598,1.183 0,0.364 0.108,0.659 0.325,0.884 0.225,0.217 0.503,0.386 0.832,0.507 0.338,0.113 0.789,0.238 1.352,0.377 0.667,0.165 1.205,0.329 1.612,0.494 0.416,0.156 0.767,0.399 1.053,0.728 0.286,0.321 0.429,0.758 0.429,1.313 0,0.459 -0.126,0.88 -0.377,1.261 -0.243,0.373 -0.62,0.672 -1.131,0.897 -0.511,0.217 -1.14,0.325 -1.885,0.325 z m 5.294,-9.724 h 0.923 V 342 h -0.923 z m 6.286,9.711 c -0.658,0 -1.252,-0.147 -1.781,-0.442 -0.528,-0.303 -0.944,-0.719 -1.248,-1.248 -0.303,-0.529 -0.455,-1.127 -0.455,-1.794 0,-0.667 0.152,-1.265 0.455,-1.794 0.304,-0.529 0.72,-0.94 1.248,-1.235 0.529,-0.295 1.123,-0.442 1.781,-0.442 0.659,0 1.253,0.147 1.781,0.442 0.529,0.295 0.941,0.706 1.235,1.235 0.304,0.529 0.455,1.127 0.455,1.794 0,0.667 -0.151,1.265 -0.455,1.794 -0.294,0.529 -0.706,0.945 -1.235,1.248 -0.528,0.295 -1.122,0.442 -1.781,0.442 z m 0,-0.819 c 0.486,0 0.919,-0.108 1.3,-0.325 0.39,-0.225 0.694,-0.542 0.91,-0.949 0.217,-0.407 0.325,-0.871 0.325,-1.391 0,-0.52 -0.108,-0.984 -0.325,-1.391 -0.216,-0.407 -0.52,-0.719 -0.91,-0.936 -0.381,-0.225 -0.814,-0.338 -1.3,-0.338 -0.485,0 -0.923,0.113 -1.313,0.338 -0.381,0.217 -0.684,0.529 -0.91,0.936 -0.216,0.407 -0.325,0.871 -0.325,1.391 0,0.52 0.109,0.984 0.325,1.391 0.226,0.407 0.529,0.724 0.91,0.949 0.39,0.217 0.828,0.325 1.313,0.325 z m 10.064,-0.013 V 342 h -5.564 v -0.611 l 4.303,-5.447 h -4.225 v -0.78 h 5.408 v 0.611 l -4.303,5.46 z m -0.637,-8.749 -1.677,1.612 h -0.936 l -1.677,-1.612 h 0.858 l 1.287,1.066 1.287,-1.066 z m 4.989,6.084 -1.612,1.482 V 342 h -0.923 v -9.646 h 0.923 v 6.539 l 4.082,-3.731 h 1.144 l -2.925,2.795 3.198,4.043 h -1.131 z m 7.538,-3.458 c 0.892,0 1.577,0.225 2.054,0.676 0.476,0.442 0.715,1.101 0.715,1.976 V 342 h -0.884 v -1.066 c -0.208,0.355 -0.516,0.633 -0.923,0.832 -0.399,0.199 -0.876,0.299 -1.43,0.299 -0.763,0 -1.37,-0.182 -1.82,-0.546 -0.451,-0.364 -0.676,-0.845 -0.676,-1.443 0,-0.581 0.208,-1.049 0.624,-1.404 0.424,-0.355 1.096,-0.533 2.015,-0.533 h 2.171 v -0.416 c 0,-0.589 -0.165,-1.036 -0.494,-1.339 -0.33,-0.312 -0.811,-0.468 -1.443,-0.468 -0.434,0 -0.85,0.074 -1.248,0.221 -0.399,0.139 -0.741,0.334 -1.027,0.585 l -0.416,-0.689 c 0.346,-0.295 0.762,-0.52 1.248,-0.676 0.485,-0.165 0.996,-0.247 1.534,-0.247 z m -0.325,6.227 c 0.52,0 0.966,-0.117 1.339,-0.351 0.372,-0.243 0.65,-0.589 0.832,-1.04 v -1.118 h -2.145 c -1.17,0 -1.755,0.407 -1.755,1.222 0,0.399 0.151,0.715 0.455,0.949 0.303,0.225 0.728,0.338 1.274,0.338 z m 11.486,-4.537 c 0.953,0.052 1.677,0.312 2.171,0.78 0.503,0.459 0.754,1.062 0.754,1.807 0,0.52 -0.126,0.984 -0.377,1.391 -0.251,0.399 -0.624,0.715 -1.118,0.949 -0.494,0.234 -1.096,0.351 -1.807,0.351 -0.659,0 -1.283,-0.104 -1.872,-0.312 -0.581,-0.217 -1.049,-0.503 -1.404,-0.858 l 0.455,-0.741 c 0.303,0.312 0.706,0.568 1.209,0.767 0.503,0.191 1.04,0.286 1.612,0.286 0.745,0 1.322,-0.16 1.729,-0.481 0.407,-0.329 0.611,-0.78 0.611,-1.352 0,-0.563 -0.204,-1.005 -0.611,-1.326 -0.407,-0.321 -1.023,-0.481 -1.846,-0.481 h -0.65 v -0.689 l 2.522,-3.159 h -4.654 V 332.9 h 5.85 v 0.663 z"
           fill="#ffffff"
           id="path2258" />
        <rect
           x="151"
           y="356"
           width="77.714302"
           height="21.7143"
           rx="8"
           fill="#4508bd"
           id="rect2260" />
        <path
           d="m 167.736,371.078 c -0.676,0 -1.326,-0.108 -1.95,-0.325 -0.616,-0.217 -1.092,-0.503 -1.43,-0.858 l 0.377,-0.741 c 0.329,0.329 0.767,0.598 1.313,0.806 0.546,0.199 1.109,0.299 1.69,0.299 0.814,0 1.425,-0.147 1.833,-0.442 0.407,-0.303 0.611,-0.693 0.611,-1.17 0,-0.364 -0.113,-0.654 -0.338,-0.871 -0.217,-0.217 -0.486,-0.381 -0.806,-0.494 -0.321,-0.121 -0.767,-0.251 -1.339,-0.39 -0.685,-0.173 -1.231,-0.338 -1.638,-0.494 -0.408,-0.165 -0.759,-0.412 -1.053,-0.741 -0.286,-0.329 -0.429,-0.776 -0.429,-1.339 0,-0.459 0.121,-0.875 0.364,-1.248 0.242,-0.381 0.615,-0.685 1.118,-0.91 0.502,-0.225 1.126,-0.338 1.872,-0.338 0.52,0 1.027,0.074 1.521,0.221 0.502,0.139 0.936,0.334 1.3,0.585 l -0.325,0.767 c -0.382,-0.251 -0.789,-0.438 -1.222,-0.559 -0.434,-0.13 -0.858,-0.195 -1.274,-0.195 -0.798,0 -1.4,0.156 -1.807,0.468 -0.399,0.303 -0.598,0.698 -0.598,1.183 0,0.364 0.108,0.659 0.325,0.884 0.225,0.217 0.502,0.386 0.832,0.507 0.338,0.113 0.788,0.238 1.352,0.377 0.667,0.165 1.204,0.329 1.612,0.494 0.416,0.156 0.767,0.399 1.053,0.728 0.286,0.321 0.429,0.758 0.429,1.313 0,0.459 -0.126,0.88 -0.377,1.261 -0.243,0.373 -0.62,0.672 -1.131,0.897 -0.512,0.217 -1.14,0.325 -1.885,0.325 z m 5.294,-9.724 h 0.923 V 371 h -0.923 z m 6.286,9.711 c -0.659,0 -1.252,-0.147 -1.781,-0.442 -0.529,-0.303 -0.945,-0.719 -1.248,-1.248 -0.303,-0.529 -0.455,-1.127 -0.455,-1.794 0,-0.667 0.152,-1.265 0.455,-1.794 0.303,-0.529 0.719,-0.94 1.248,-1.235 0.529,-0.295 1.122,-0.442 1.781,-0.442 0.659,0 1.252,0.147 1.781,0.442 0.529,0.295 0.94,0.706 1.235,1.235 0.303,0.529 0.455,1.127 0.455,1.794 0,0.667 -0.152,1.265 -0.455,1.794 -0.295,0.529 -0.706,0.945 -1.235,1.248 -0.529,0.295 -1.122,0.442 -1.781,0.442 z m 0,-0.819 c 0.485,0 0.919,-0.108 1.3,-0.325 0.39,-0.225 0.693,-0.542 0.91,-0.949 0.217,-0.407 0.325,-0.871 0.325,-1.391 0,-0.52 -0.108,-0.984 -0.325,-1.391 -0.217,-0.407 -0.52,-0.719 -0.91,-0.936 -0.381,-0.225 -0.815,-0.338 -1.3,-0.338 -0.485,0 -0.923,0.113 -1.313,0.338 -0.381,0.217 -0.685,0.529 -0.91,0.936 -0.217,0.407 -0.325,0.871 -0.325,1.391 0,0.52 0.108,0.984 0.325,1.391 0.225,0.407 0.529,0.724 0.91,0.949 0.39,0.217 0.828,0.325 1.313,0.325 z m 10.064,-0.013 V 371 h -5.564 v -0.611 l 4.303,-5.447 h -4.225 v -0.78 h 5.408 v 0.611 l -4.303,5.46 z m -0.637,-8.749 -1.677,1.612 h -0.936 l -1.677,-1.612 h 0.858 l 1.287,1.066 1.287,-1.066 z m 4.989,6.084 -1.612,1.482 V 371 h -0.923 v -9.646 h 0.923 v 6.539 l 4.082,-3.731 h 1.144 l -2.925,2.795 3.198,4.043 h -1.131 z m 7.537,-3.458 c 0.893,0 1.578,0.225 2.054,0.676 0.477,0.442 0.715,1.101 0.715,1.976 V 371 h -0.884 v -1.066 c -0.208,0.355 -0.515,0.633 -0.923,0.832 -0.398,0.199 -0.875,0.299 -1.43,0.299 -0.762,0 -1.369,-0.182 -1.82,-0.546 -0.45,-0.364 -0.676,-0.845 -0.676,-1.443 0,-0.581 0.208,-1.049 0.624,-1.404 0.425,-0.355 1.097,-0.533 2.015,-0.533 h 2.171 v -0.416 c 0,-0.589 -0.164,-1.036 -0.494,-1.339 -0.329,-0.312 -0.81,-0.468 -1.443,-0.468 -0.433,0 -0.849,0.074 -1.248,0.221 -0.398,0.139 -0.741,0.334 -1.027,0.585 l -0.416,-0.689 c 0.347,-0.295 0.763,-0.52 1.248,-0.676 0.486,-0.165 0.997,-0.247 1.534,-0.247 z m -0.325,6.227 c 0.52,0 0.967,-0.117 1.339,-0.351 0.373,-0.243 0.65,-0.589 0.832,-1.04 v -1.118 h -2.145 c -1.17,0 -1.755,0.407 -1.755,1.222 0,0.399 0.152,0.715 0.455,0.949 0.304,0.225 0.728,0.338 1.274,0.338 z m 16.128,-1.729 h -1.82 V 371 h -0.936 v -2.392 h -5.135 v -0.676 l 4.823,-6.032 h 1.04 l -4.654,5.876 h 3.952 v -2.106 h 0.91 v 2.106 h 1.82 z"
           fill="#ffffff"
           id="path2262" />
        <rect
           x="151"
           y="385"
           width="77.714302"
           height="21.7143"
           rx="8"
           fill="#4508bd"
           id="rect2264" />
        <path
           d="m 168.351,400.078 c -0.676,0 -1.326,-0.108 -1.95,-0.325 -0.615,-0.217 -1.092,-0.503 -1.43,-0.858 l 0.377,-0.741 c 0.33,0.329 0.767,0.598 1.313,0.806 0.546,0.199 1.11,0.299 1.69,0.299 0.815,0 1.426,-0.147 1.833,-0.442 0.408,-0.303 0.611,-0.693 0.611,-1.17 0,-0.364 -0.112,-0.654 -0.338,-0.871 -0.216,-0.217 -0.485,-0.381 -0.806,-0.494 -0.32,-0.121 -0.767,-0.251 -1.339,-0.39 -0.684,-0.173 -1.23,-0.338 -1.638,-0.494 -0.407,-0.165 -0.758,-0.412 -1.053,-0.741 -0.286,-0.329 -0.429,-0.776 -0.429,-1.339 0,-0.459 0.122,-0.875 0.364,-1.248 0.243,-0.381 0.616,-0.685 1.118,-0.91 0.503,-0.225 1.127,-0.338 1.872,-0.338 0.52,0 1.027,0.074 1.521,0.221 0.503,0.139 0.936,0.334 1.3,0.585 l -0.325,0.767 c -0.381,-0.251 -0.788,-0.438 -1.222,-0.559 -0.433,-0.13 -0.858,-0.195 -1.274,-0.195 -0.797,0 -1.399,0.156 -1.807,0.468 -0.398,0.303 -0.598,0.698 -0.598,1.183 0,0.364 0.109,0.659 0.325,0.884 0.226,0.217 0.503,0.386 0.832,0.507 0.338,0.113 0.789,0.238 1.352,0.377 0.668,0.165 1.205,0.329 1.612,0.494 0.416,0.156 0.767,0.399 1.053,0.728 0.286,0.321 0.429,0.758 0.429,1.313 0,0.459 -0.125,0.88 -0.377,1.261 -0.242,0.373 -0.619,0.672 -1.131,0.897 -0.511,0.217 -1.139,0.325 -1.885,0.325 z m 5.294,-9.724 h 0.923 V 400 h -0.923 z m 6.287,9.711 c -0.659,0 -1.253,-0.147 -1.781,-0.442 -0.529,-0.303 -0.945,-0.719 -1.248,-1.248 -0.304,-0.529 -0.455,-1.127 -0.455,-1.794 0,-0.667 0.151,-1.265 0.455,-1.794 0.303,-0.529 0.719,-0.94 1.248,-1.235 0.528,-0.295 1.122,-0.442 1.781,-0.442 0.658,0 1.252,0.147 1.781,0.442 0.528,0.295 0.94,0.706 1.235,1.235 0.303,0.529 0.455,1.127 0.455,1.794 0,0.667 -0.152,1.265 -0.455,1.794 -0.295,0.529 -0.707,0.945 -1.235,1.248 -0.529,0.295 -1.123,0.442 -1.781,0.442 z m 0,-0.819 c 0.485,0 0.918,-0.108 1.3,-0.325 0.39,-0.225 0.693,-0.542 0.91,-0.949 0.216,-0.407 0.325,-0.871 0.325,-1.391 0,-0.52 -0.109,-0.984 -0.325,-1.391 -0.217,-0.407 -0.52,-0.719 -0.91,-0.936 -0.382,-0.225 -0.815,-0.338 -1.3,-0.338 -0.486,0 -0.923,0.113 -1.313,0.338 -0.382,0.217 -0.685,0.529 -0.91,0.936 -0.217,0.407 -0.325,0.871 -0.325,1.391 0,0.52 0.108,0.984 0.325,1.391 0.225,0.407 0.528,0.724 0.91,0.949 0.39,0.217 0.827,0.325 1.313,0.325 z m 10.064,-0.013 V 400 h -5.564 v -0.611 l 4.303,-5.447 h -4.225 v -0.78 h 5.408 v 0.611 l -4.303,5.46 z m -0.637,-8.749 -1.677,1.612 h -0.936 l -1.677,-1.612 h 0.858 l 1.287,1.066 1.287,-1.066 z m 4.988,6.084 -1.612,1.482 V 400 h -0.923 v -9.646 h 0.923 v 6.539 l 4.082,-3.731 h 1.144 l -2.925,2.795 3.198,4.043 h -1.131 z m 7.538,-3.458 c 0.893,0 1.577,0.225 2.054,0.676 0.477,0.442 0.715,1.101 0.715,1.976 V 400 h -0.884 v -1.066 c -0.208,0.355 -0.516,0.633 -0.923,0.832 -0.399,0.199 -0.875,0.299 -1.43,0.299 -0.763,0 -1.369,-0.182 -1.82,-0.546 -0.451,-0.364 -0.676,-0.845 -0.676,-1.443 0,-0.581 0.208,-1.049 0.624,-1.404 0.425,-0.355 1.096,-0.533 2.015,-0.533 h 2.171 v -0.416 c 0,-0.589 -0.165,-1.036 -0.494,-1.339 -0.329,-0.312 -0.81,-0.468 -1.443,-0.468 -0.433,0 -0.849,0.074 -1.248,0.221 -0.399,0.139 -0.741,0.334 -1.027,0.585 l -0.416,-0.689 c 0.347,-0.295 0.763,-0.52 1.248,-0.676 0.485,-0.165 0.997,-0.247 1.534,-0.247 z m -0.325,6.227 c 0.52,0 0.966,-0.117 1.339,-0.351 0.373,-0.243 0.65,-0.589 0.832,-1.04 v -1.118 h -2.145 c -1.17,0 -1.755,0.407 -1.755,1.222 0,0.399 0.152,0.715 0.455,0.949 0.303,0.225 0.728,0.338 1.274,0.338 z m 10.784,-4.706 c 1.318,0 2.275,0.238 2.873,0.715 0.607,0.468 0.91,1.127 0.91,1.976 0,0.529 -0.125,1.001 -0.377,1.417 -0.242,0.416 -0.611,0.745 -1.105,0.988 -0.494,0.234 -1.1,0.351 -1.82,0.351 -0.65,0 -1.269,-0.104 -1.859,-0.312 -0.58,-0.217 -1.048,-0.503 -1.404,-0.858 l 0.455,-0.741 c 0.304,0.312 0.702,0.568 1.196,0.767 0.494,0.191 1.027,0.286 1.599,0.286 0.754,0 1.335,-0.169 1.742,-0.507 0.416,-0.338 0.624,-0.789 0.624,-1.352 0,-0.624 -0.234,-1.096 -0.702,-1.417 -0.459,-0.321 -1.239,-0.481 -2.34,-0.481 h -1.937 l 0.468,-4.563 h 4.979 v 0.832 h -4.16 l -0.312,2.899 z"
           fill="#ffffff"
           id="path2266" />
        <rect
           x="151"
           y="414"
           width="77.714302"
           height="21.7143"
           rx="8"
           fill="#4508bd"
           id="rect2268" />
        <path
           d="m 168.072,429.078 c -0.676,0 -1.326,-0.108 -1.95,-0.325 -0.615,-0.217 -1.092,-0.503 -1.43,-0.858 l 0.377,-0.741 c 0.329,0.329 0.767,0.598 1.313,0.806 0.546,0.199 1.109,0.299 1.69,0.299 0.815,0 1.426,-0.147 1.833,-0.442 0.407,-0.303 0.611,-0.693 0.611,-1.17 0,-0.364 -0.113,-0.654 -0.338,-0.871 -0.217,-0.217 -0.485,-0.381 -0.806,-0.494 -0.321,-0.121 -0.767,-0.251 -1.339,-0.39 -0.685,-0.173 -1.231,-0.338 -1.638,-0.494 -0.407,-0.165 -0.758,-0.412 -1.053,-0.741 -0.286,-0.329 -0.429,-0.776 -0.429,-1.339 0,-0.459 0.121,-0.875 0.364,-1.248 0.243,-0.381 0.615,-0.685 1.118,-0.91 0.503,-0.225 1.127,-0.338 1.872,-0.338 0.52,0 1.027,0.074 1.521,0.221 0.503,0.139 0.936,0.334 1.3,0.585 l -0.325,0.767 c -0.381,-0.251 -0.789,-0.438 -1.222,-0.559 -0.433,-0.13 -0.858,-0.195 -1.274,-0.195 -0.797,0 -1.4,0.156 -1.807,0.468 -0.399,0.303 -0.598,0.698 -0.598,1.183 0,0.364 0.108,0.659 0.325,0.884 0.225,0.217 0.503,0.386 0.832,0.507 0.338,0.113 0.789,0.238 1.352,0.377 0.667,0.165 1.205,0.329 1.612,0.494 0.416,0.156 0.767,0.399 1.053,0.728 0.286,0.321 0.429,0.758 0.429,1.313 0,0.459 -0.126,0.88 -0.377,1.261 -0.243,0.373 -0.62,0.672 -1.131,0.897 -0.511,0.217 -1.14,0.325 -1.885,0.325 z m 5.294,-9.724 h 0.923 V 429 h -0.923 z m 6.286,9.711 c -0.658,0 -1.252,-0.147 -1.781,-0.442 -0.528,-0.303 -0.944,-0.719 -1.248,-1.248 -0.303,-0.529 -0.455,-1.127 -0.455,-1.794 0,-0.667 0.152,-1.265 0.455,-1.794 0.304,-0.529 0.72,-0.94 1.248,-1.235 0.529,-0.295 1.123,-0.442 1.781,-0.442 0.659,0 1.253,0.147 1.781,0.442 0.529,0.295 0.941,0.706 1.235,1.235 0.304,0.529 0.455,1.127 0.455,1.794 0,0.667 -0.151,1.265 -0.455,1.794 -0.294,0.529 -0.706,0.945 -1.235,1.248 -0.528,0.295 -1.122,0.442 -1.781,0.442 z m 0,-0.819 c 0.486,0 0.919,-0.108 1.3,-0.325 0.39,-0.225 0.694,-0.542 0.91,-0.949 0.217,-0.407 0.325,-0.871 0.325,-1.391 0,-0.52 -0.108,-0.984 -0.325,-1.391 -0.216,-0.407 -0.52,-0.719 -0.91,-0.936 -0.381,-0.225 -0.814,-0.338 -1.3,-0.338 -0.485,0 -0.923,0.113 -1.313,0.338 -0.381,0.217 -0.684,0.529 -0.91,0.936 -0.216,0.407 -0.325,0.871 -0.325,1.391 0,0.52 0.109,0.984 0.325,1.391 0.226,0.407 0.529,0.724 0.91,0.949 0.39,0.217 0.828,0.325 1.313,0.325 z m 10.064,-0.013 V 429 h -5.564 v -0.611 l 4.303,-5.447 h -4.225 v -0.78 h 5.408 v 0.611 l -4.303,5.46 z m -0.637,-8.749 -1.677,1.612 h -0.936 l -1.677,-1.612 h 0.858 l 1.287,1.066 1.287,-1.066 z m 4.989,6.084 -1.612,1.482 V 429 h -0.923 v -9.646 h 0.923 v 6.539 l 4.082,-3.731 h 1.144 l -2.925,2.795 3.198,4.043 h -1.131 z m 7.538,-3.458 c 0.892,0 1.577,0.225 2.054,0.676 0.476,0.442 0.715,1.101 0.715,1.976 V 429 h -0.884 v -1.066 c -0.208,0.355 -0.516,0.633 -0.923,0.832 -0.399,0.199 -0.876,0.299 -1.43,0.299 -0.763,0 -1.37,-0.182 -1.82,-0.546 -0.451,-0.364 -0.676,-0.845 -0.676,-1.443 0,-0.581 0.208,-1.049 0.624,-1.404 0.424,-0.355 1.096,-0.533 2.015,-0.533 h 2.171 v -0.416 c 0,-0.589 -0.165,-1.036 -0.494,-1.339 -0.33,-0.312 -0.811,-0.468 -1.443,-0.468 -0.434,0 -0.85,0.074 -1.248,0.221 -0.399,0.139 -0.741,0.334 -1.027,0.585 l -0.416,-0.689 c 0.346,-0.295 0.762,-0.52 1.248,-0.676 0.485,-0.165 0.996,-0.247 1.534,-0.247 z m -0.325,6.227 c 0.52,0 0.966,-0.117 1.339,-0.351 0.372,-0.243 0.65,-0.589 0.832,-1.04 v -1.118 h -2.145 c -1.17,0 -1.755,0.407 -1.755,1.222 0,0.399 0.151,0.715 0.455,0.949 0.303,0.225 0.728,0.338 1.274,0.338 z m 12.162,-4.784 c 0.598,0 1.127,0.113 1.586,0.338 0.468,0.225 0.832,0.546 1.092,0.962 0.26,0.407 0.39,0.884 0.39,1.43 0,0.555 -0.134,1.044 -0.403,1.469 -0.269,0.425 -0.641,0.754 -1.118,0.988 -0.468,0.225 -0.997,0.338 -1.586,0.338 -1.205,0 -2.128,-0.394 -2.769,-1.183 -0.641,-0.797 -0.962,-1.92 -0.962,-3.367 0,-1.014 0.173,-1.872 0.52,-2.574 0.347,-0.702 0.832,-1.231 1.456,-1.586 0.624,-0.364 1.352,-0.546 2.184,-0.546 0.901,0 1.621,0.165 2.158,0.494 l -0.377,0.754 c -0.433,-0.286 -1.023,-0.429 -1.768,-0.429 -1.005,0 -1.794,0.321 -2.366,0.962 -0.572,0.633 -0.858,1.556 -0.858,2.769 0,0.217 0.013,0.464 0.039,0.741 0.225,-0.494 0.585,-0.875 1.079,-1.144 0.494,-0.277 1.062,-0.416 1.703,-0.416 z m -0.078,4.732 c 0.659,0 1.192,-0.178 1.599,-0.533 0.416,-0.364 0.624,-0.845 0.624,-1.443 0,-0.598 -0.208,-1.075 -0.624,-1.43 -0.407,-0.355 -0.962,-0.533 -1.664,-0.533 -0.459,0 -0.867,0.087 -1.222,0.26 -0.347,0.173 -0.62,0.412 -0.819,0.715 -0.199,0.303 -0.299,0.641 -0.299,1.014 0,0.347 0.091,0.667 0.273,0.962 0.191,0.295 0.468,0.533 0.832,0.715 0.364,0.182 0.797,0.273 1.3,0.273 z"
           fill="#ffffff"
           id="path2270" />
        <rect
           x="151"
           y="443"
           width="77.714302"
           height="21.7143"
           rx="8"
           fill="#4508bd"
           id="rect2272" />
        <path
           d="m 168.205,458.078 c -0.676,0 -1.326,-0.108 -1.95,-0.325 -0.615,-0.217 -1.092,-0.503 -1.43,-0.858 l 0.377,-0.741 c 0.33,0.329 0.767,0.598 1.313,0.806 0.546,0.199 1.11,0.299 1.69,0.299 0.815,0 1.426,-0.147 1.833,-0.442 0.408,-0.303 0.611,-0.693 0.611,-1.17 0,-0.364 -0.112,-0.654 -0.338,-0.871 -0.216,-0.217 -0.485,-0.381 -0.806,-0.494 -0.32,-0.121 -0.767,-0.251 -1.339,-0.39 -0.684,-0.173 -1.23,-0.338 -1.638,-0.494 -0.407,-0.165 -0.758,-0.412 -1.053,-0.741 -0.286,-0.329 -0.429,-0.776 -0.429,-1.339 0,-0.459 0.122,-0.875 0.364,-1.248 0.243,-0.381 0.616,-0.685 1.118,-0.91 0.503,-0.225 1.127,-0.338 1.872,-0.338 0.52,0 1.027,0.074 1.521,0.221 0.503,0.139 0.936,0.334 1.3,0.585 l -0.325,0.767 c -0.381,-0.251 -0.788,-0.438 -1.222,-0.559 -0.433,-0.13 -0.858,-0.195 -1.274,-0.195 -0.797,0 -1.399,0.156 -1.807,0.468 -0.398,0.303 -0.598,0.698 -0.598,1.183 0,0.364 0.109,0.659 0.325,0.884 0.226,0.217 0.503,0.386 0.832,0.507 0.338,0.113 0.789,0.238 1.352,0.377 0.668,0.165 1.205,0.329 1.612,0.494 0.416,0.156 0.767,0.399 1.053,0.728 0.286,0.321 0.429,0.758 0.429,1.313 0,0.459 -0.125,0.88 -0.377,1.261 -0.242,0.373 -0.619,0.672 -1.131,0.897 -0.511,0.217 -1.139,0.325 -1.885,0.325 z m 5.294,-9.724 h 0.923 V 458 h -0.923 z m 6.287,9.711 c -0.659,0 -1.253,-0.147 -1.781,-0.442 -0.529,-0.303 -0.945,-0.719 -1.248,-1.248 -0.304,-0.529 -0.455,-1.127 -0.455,-1.794 0,-0.667 0.151,-1.265 0.455,-1.794 0.303,-0.529 0.719,-0.94 1.248,-1.235 0.528,-0.295 1.122,-0.442 1.781,-0.442 0.658,0 1.252,0.147 1.781,0.442 0.528,0.295 0.94,0.706 1.235,1.235 0.303,0.529 0.455,1.127 0.455,1.794 0,0.667 -0.152,1.265 -0.455,1.794 -0.295,0.529 -0.707,0.945 -1.235,1.248 -0.529,0.295 -1.123,0.442 -1.781,0.442 z m 0,-0.819 c 0.485,0 0.918,-0.108 1.3,-0.325 0.39,-0.225 0.693,-0.542 0.91,-0.949 0.216,-0.407 0.325,-0.871 0.325,-1.391 0,-0.52 -0.109,-0.984 -0.325,-1.391 -0.217,-0.407 -0.52,-0.719 -0.91,-0.936 -0.382,-0.225 -0.815,-0.338 -1.3,-0.338 -0.486,0 -0.923,0.113 -1.313,0.338 -0.382,0.217 -0.685,0.529 -0.91,0.936 -0.217,0.407 -0.325,0.871 -0.325,1.391 0,0.52 0.108,0.984 0.325,1.391 0.225,0.407 0.528,0.724 0.91,0.949 0.39,0.217 0.827,0.325 1.313,0.325 z m 10.064,-0.013 V 458 h -5.564 v -0.611 l 4.303,-5.447 h -4.225 v -0.78 h 5.408 v 0.611 l -4.303,5.46 z m -0.637,-8.749 -1.677,1.612 H 186.6 l -1.677,-1.612 h 0.858 l 1.287,1.066 1.287,-1.066 z m 4.988,6.084 -1.612,1.482 V 458 h -0.923 v -9.646 h 0.923 v 6.539 l 4.082,-3.731 h 1.144 l -2.925,2.795 3.198,4.043 h -1.131 z m 7.538,-3.458 c 0.893,0 1.577,0.225 2.054,0.676 0.477,0.442 0.715,1.101 0.715,1.976 V 458 h -0.884 v -1.066 c -0.208,0.355 -0.516,0.633 -0.923,0.832 -0.399,0.199 -0.875,0.299 -1.43,0.299 -0.763,0 -1.369,-0.182 -1.82,-0.546 -0.451,-0.364 -0.676,-0.845 -0.676,-1.443 0,-0.581 0.208,-1.049 0.624,-1.404 0.425,-0.355 1.096,-0.533 2.015,-0.533 h 2.171 v -0.416 c 0,-0.589 -0.165,-1.036 -0.494,-1.339 -0.329,-0.312 -0.81,-0.468 -1.443,-0.468 -0.433,0 -0.849,0.074 -1.248,0.221 -0.399,0.139 -0.741,0.334 -1.027,0.585 l -0.416,-0.689 c 0.347,-0.295 0.763,-0.52 1.248,-0.676 0.485,-0.165 0.997,-0.247 1.534,-0.247 z m -0.325,6.227 c 0.52,0 0.966,-0.117 1.339,-0.351 0.373,-0.243 0.65,-0.589 0.832,-1.04 v -1.118 h -2.145 c -1.17,0 -1.755,0.407 -1.755,1.222 0,0.399 0.152,0.715 0.455,0.949 0.303,0.225 0.728,0.338 1.274,0.338 z m 14.814,-8.437 v 0.663 L 212.419,458 h -1.014 l 3.744,-8.268 h -4.68 v 1.703 h -0.923 V 448.9 Z"
           fill="#ffffff"
           id="path2274" />
        <rect
           x="151"
           y="472"
           width="77.714302"
           height="21.7143"
           rx="8"
           fill="#4508bd"
           id="rect2276" />
        <path
           d="m 168.388,487.078 c -0.676,0 -1.326,-0.108 -1.95,-0.325 -0.615,-0.217 -1.092,-0.503 -1.43,-0.858 l 0.377,-0.741 c 0.329,0.329 0.767,0.598 1.313,0.806 0.546,0.199 1.109,0.299 1.69,0.299 0.815,0 1.426,-0.147 1.833,-0.442 0.407,-0.303 0.611,-0.693 0.611,-1.17 0,-0.364 -0.113,-0.654 -0.338,-0.871 -0.217,-0.217 -0.485,-0.381 -0.806,-0.494 -0.321,-0.121 -0.767,-0.251 -1.339,-0.39 -0.685,-0.173 -1.231,-0.338 -1.638,-0.494 -0.407,-0.165 -0.758,-0.412 -1.053,-0.741 -0.286,-0.329 -0.429,-0.776 -0.429,-1.339 0,-0.459 0.121,-0.875 0.364,-1.248 0.243,-0.381 0.615,-0.685 1.118,-0.91 0.503,-0.225 1.127,-0.338 1.872,-0.338 0.52,0 1.027,0.074 1.521,0.221 0.503,0.139 0.936,0.334 1.3,0.585 l -0.325,0.767 c -0.381,-0.251 -0.789,-0.438 -1.222,-0.559 -0.433,-0.13 -0.858,-0.195 -1.274,-0.195 -0.797,0 -1.4,0.156 -1.807,0.468 -0.399,0.303 -0.598,0.698 -0.598,1.183 0,0.364 0.108,0.659 0.325,0.884 0.225,0.217 0.503,0.386 0.832,0.507 0.338,0.113 0.789,0.238 1.352,0.377 0.667,0.165 1.205,0.329 1.612,0.494 0.416,0.156 0.767,0.399 1.053,0.728 0.286,0.321 0.429,0.758 0.429,1.313 0,0.459 -0.126,0.88 -0.377,1.261 -0.243,0.373 -0.62,0.672 -1.131,0.897 -0.511,0.217 -1.14,0.325 -1.885,0.325 z m 5.294,-9.724 h 0.923 V 487 h -0.923 z m 6.286,9.711 c -0.658,0 -1.252,-0.147 -1.781,-0.442 -0.528,-0.303 -0.944,-0.719 -1.248,-1.248 -0.303,-0.529 -0.455,-1.127 -0.455,-1.794 0,-0.667 0.152,-1.265 0.455,-1.794 0.304,-0.529 0.72,-0.94 1.248,-1.235 0.529,-0.295 1.123,-0.442 1.781,-0.442 0.659,0 1.253,0.147 1.781,0.442 0.529,0.295 0.941,0.706 1.235,1.235 0.304,0.529 0.455,1.127 0.455,1.794 0,0.667 -0.151,1.265 -0.455,1.794 -0.294,0.529 -0.706,0.945 -1.235,1.248 -0.528,0.295 -1.122,0.442 -1.781,0.442 z m 0,-0.819 c 0.486,0 0.919,-0.108 1.3,-0.325 0.39,-0.225 0.694,-0.542 0.91,-0.949 0.217,-0.407 0.325,-0.871 0.325,-1.391 0,-0.52 -0.108,-0.984 -0.325,-1.391 -0.216,-0.407 -0.52,-0.719 -0.91,-0.936 -0.381,-0.225 -0.814,-0.338 -1.3,-0.338 -0.485,0 -0.923,0.113 -1.313,0.338 -0.381,0.217 -0.684,0.529 -0.91,0.936 -0.216,0.407 -0.325,0.871 -0.325,1.391 0,0.52 0.109,0.984 0.325,1.391 0.226,0.407 0.529,0.724 0.91,0.949 0.39,0.217 0.828,0.325 1.313,0.325 z m 10.064,-0.013 V 487 h -5.564 v -0.611 l 4.303,-5.447 h -4.225 v -0.78 h 5.408 v 0.611 l -4.303,5.46 z m -0.637,-8.749 -1.677,1.612 h -0.936 l -1.677,-1.612 h 0.858 l 1.287,1.066 1.287,-1.066 z m 4.989,6.084 -1.612,1.482 V 487 h -0.923 v -9.646 h 0.923 v 6.539 l 4.082,-3.731 h 1.144 l -2.925,2.795 3.198,4.043 h -1.131 z m 7.538,-3.458 c 0.892,0 1.577,0.225 2.054,0.676 0.476,0.442 0.715,1.101 0.715,1.976 V 487 h -0.884 v -1.066 c -0.208,0.355 -0.516,0.633 -0.923,0.832 -0.399,0.199 -0.876,0.299 -1.43,0.299 -0.763,0 -1.37,-0.182 -1.82,-0.546 -0.451,-0.364 -0.676,-0.845 -0.676,-1.443 0,-0.581 0.208,-1.049 0.624,-1.404 0.424,-0.355 1.096,-0.533 2.015,-0.533 h 2.171 v -0.416 c 0,-0.589 -0.165,-1.036 -0.494,-1.339 -0.33,-0.312 -0.811,-0.468 -1.443,-0.468 -0.434,0 -0.85,0.074 -1.248,0.221 -0.399,0.139 -0.741,0.334 -1.027,0.585 l -0.416,-0.689 c 0.346,-0.295 0.762,-0.52 1.248,-0.676 0.485,-0.165 0.996,-0.247 1.534,-0.247 z m -0.325,6.227 c 0.52,0 0.966,-0.117 1.339,-0.351 0.372,-0.243 0.65,-0.589 0.832,-1.04 v -1.118 h -2.145 c -1.17,0 -1.755,0.407 -1.755,1.222 0,0.399 0.151,0.715 0.455,0.949 0.303,0.225 0.728,0.338 1.274,0.338 z m 13.605,-4.108 c 0.572,0.191 1.01,0.477 1.313,0.858 0.312,0.381 0.468,0.841 0.468,1.378 0,0.529 -0.143,0.992 -0.429,1.391 -0.286,0.39 -0.698,0.693 -1.235,0.91 -0.529,0.208 -1.153,0.312 -1.872,0.312 -1.092,0 -1.95,-0.234 -2.574,-0.702 -0.624,-0.468 -0.936,-1.105 -0.936,-1.911 0,-0.546 0.147,-1.005 0.442,-1.378 0.303,-0.381 0.741,-0.667 1.313,-0.858 -0.468,-0.182 -0.823,-0.442 -1.066,-0.78 -0.243,-0.347 -0.364,-0.754 -0.364,-1.222 0,-0.737 0.286,-1.322 0.858,-1.755 0.581,-0.433 1.356,-0.65 2.327,-0.65 0.641,0 1.2,0.1 1.677,0.299 0.485,0.191 0.862,0.468 1.131,0.832 0.269,0.364 0.403,0.789 0.403,1.274 0,0.468 -0.126,0.875 -0.377,1.222 -0.251,0.338 -0.611,0.598 -1.079,0.78 z m -4.004,-1.976 c 0,0.503 0.199,0.901 0.598,1.196 0.399,0.295 0.949,0.442 1.651,0.442 0.702,0 1.252,-0.147 1.651,-0.442 0.407,-0.295 0.611,-0.689 0.611,-1.183 0,-0.511 -0.208,-0.914 -0.624,-1.209 -0.407,-0.295 -0.953,-0.442 -1.638,-0.442 -0.693,0 -1.244,0.147 -1.651,0.442 -0.399,0.295 -0.598,0.693 -0.598,1.196 z m 2.249,6.032 c 0.806,0 1.434,-0.165 1.885,-0.494 0.459,-0.329 0.689,-0.776 0.689,-1.339 0,-0.563 -0.23,-1.005 -0.689,-1.326 -0.451,-0.329 -1.079,-0.494 -1.885,-0.494 -0.797,0 -1.426,0.165 -1.885,0.494 -0.451,0.321 -0.676,0.763 -0.676,1.326 0,0.572 0.225,1.023 0.676,1.352 0.451,0.321 1.079,0.481 1.885,0.481 z"
           fill="#ffffff"
           id="path2278" />
        <rect
           x="151"
           y="501"
           width="77.714302"
           height="21.7143"
           rx="8"
           fill="#4508bd"
           id="rect2280" />
        <path
           d="m 168.072,516.078 c -0.676,0 -1.326,-0.108 -1.95,-0.325 -0.615,-0.217 -1.092,-0.503 -1.43,-0.858 l 0.377,-0.741 c 0.329,0.329 0.767,0.598 1.313,0.806 0.546,0.199 1.109,0.299 1.69,0.299 0.815,0 1.426,-0.147 1.833,-0.442 0.407,-0.303 0.611,-0.693 0.611,-1.17 0,-0.364 -0.113,-0.654 -0.338,-0.871 -0.217,-0.217 -0.485,-0.381 -0.806,-0.494 -0.321,-0.121 -0.767,-0.251 -1.339,-0.39 -0.685,-0.173 -1.231,-0.338 -1.638,-0.494 -0.407,-0.165 -0.758,-0.412 -1.053,-0.741 -0.286,-0.329 -0.429,-0.776 -0.429,-1.339 0,-0.459 0.121,-0.875 0.364,-1.248 0.243,-0.381 0.615,-0.685 1.118,-0.91 0.503,-0.225 1.127,-0.338 1.872,-0.338 0.52,0 1.027,0.074 1.521,0.221 0.503,0.139 0.936,0.334 1.3,0.585 l -0.325,0.767 c -0.381,-0.251 -0.789,-0.438 -1.222,-0.559 -0.433,-0.13 -0.858,-0.195 -1.274,-0.195 -0.797,0 -1.4,0.156 -1.807,0.468 -0.399,0.303 -0.598,0.698 -0.598,1.183 0,0.364 0.108,0.659 0.325,0.884 0.225,0.217 0.503,0.386 0.832,0.507 0.338,0.113 0.789,0.238 1.352,0.377 0.667,0.165 1.205,0.329 1.612,0.494 0.416,0.156 0.767,0.399 1.053,0.728 0.286,0.321 0.429,0.758 0.429,1.313 0,0.459 -0.126,0.88 -0.377,1.261 -0.243,0.373 -0.62,0.672 -1.131,0.897 -0.511,0.217 -1.14,0.325 -1.885,0.325 z m 5.294,-9.724 h 0.923 V 516 h -0.923 z m 6.286,9.711 c -0.658,0 -1.252,-0.147 -1.781,-0.442 -0.528,-0.303 -0.944,-0.719 -1.248,-1.248 -0.303,-0.529 -0.455,-1.127 -0.455,-1.794 0,-0.667 0.152,-1.265 0.455,-1.794 0.304,-0.529 0.72,-0.94 1.248,-1.235 0.529,-0.295 1.123,-0.442 1.781,-0.442 0.659,0 1.253,0.147 1.781,0.442 0.529,0.295 0.941,0.706 1.235,1.235 0.304,0.529 0.455,1.127 0.455,1.794 0,0.667 -0.151,1.265 -0.455,1.794 -0.294,0.529 -0.706,0.945 -1.235,1.248 -0.528,0.295 -1.122,0.442 -1.781,0.442 z m 0,-0.819 c 0.486,0 0.919,-0.108 1.3,-0.325 0.39,-0.225 0.694,-0.542 0.91,-0.949 0.217,-0.407 0.325,-0.871 0.325,-1.391 0,-0.52 -0.108,-0.984 -0.325,-1.391 -0.216,-0.407 -0.52,-0.719 -0.91,-0.936 -0.381,-0.225 -0.814,-0.338 -1.3,-0.338 -0.485,0 -0.923,0.113 -1.313,0.338 -0.381,0.217 -0.684,0.529 -0.91,0.936 -0.216,0.407 -0.325,0.871 -0.325,1.391 0,0.52 0.109,0.984 0.325,1.391 0.226,0.407 0.529,0.724 0.91,0.949 0.39,0.217 0.828,0.325 1.313,0.325 z m 10.064,-0.013 V 516 h -5.564 v -0.611 l 4.303,-5.447 h -4.225 v -0.78 h 5.408 v 0.611 l -4.303,5.46 z m -0.637,-8.749 -1.677,1.612 h -0.936 l -1.677,-1.612 h 0.858 l 1.287,1.066 1.287,-1.066 z m 4.989,6.084 -1.612,1.482 V 516 h -0.923 v -9.646 h 0.923 v 6.539 l 4.082,-3.731 h 1.144 l -2.925,2.795 3.198,4.043 h -1.131 z m 7.538,-3.458 c 0.892,0 1.577,0.225 2.054,0.676 0.476,0.442 0.715,1.101 0.715,1.976 V 516 h -0.884 v -1.066 c -0.208,0.355 -0.516,0.633 -0.923,0.832 -0.399,0.199 -0.876,0.299 -1.43,0.299 -0.763,0 -1.37,-0.182 -1.82,-0.546 -0.451,-0.364 -0.676,-0.845 -0.676,-1.443 0,-0.581 0.208,-1.049 0.624,-1.404 0.424,-0.355 1.096,-0.533 2.015,-0.533 h 2.171 v -0.416 c 0,-0.589 -0.165,-1.036 -0.494,-1.339 -0.33,-0.312 -0.811,-0.468 -1.443,-0.468 -0.434,0 -0.85,0.074 -1.248,0.221 -0.399,0.139 -0.741,0.334 -1.027,0.585 l -0.416,-0.689 c 0.346,-0.295 0.762,-0.52 1.248,-0.676 0.485,-0.165 0.996,-0.247 1.534,-0.247 z m -0.325,6.227 c 0.52,0 0.966,-0.117 1.339,-0.351 0.372,-0.243 0.65,-0.589 0.832,-1.04 v -1.118 h -2.145 c -1.17,0 -1.755,0.407 -1.755,1.222 0,0.399 0.151,0.715 0.455,0.949 0.303,0.225 0.728,0.338 1.274,0.338 z m 11.226,-8.515 c 1.205,0 2.128,0.399 2.769,1.196 0.641,0.789 0.962,1.907 0.962,3.354 0,1.014 -0.173,1.872 -0.52,2.574 -0.347,0.702 -0.832,1.235 -1.456,1.599 -0.624,0.355 -1.352,0.533 -2.184,0.533 -0.901,0 -1.621,-0.165 -2.158,-0.494 l 0.377,-0.754 c 0.433,0.286 1.023,0.429 1.768,0.429 1.005,0 1.794,-0.316 2.366,-0.949 0.572,-0.641 0.858,-1.569 0.858,-2.782 0,-0.225 -0.013,-0.472 -0.039,-0.741 -0.225,0.494 -0.585,0.88 -1.079,1.157 -0.494,0.269 -1.062,0.403 -1.703,0.403 -0.598,0 -1.131,-0.113 -1.599,-0.338 -0.459,-0.225 -0.819,-0.542 -1.079,-0.949 -0.26,-0.416 -0.39,-0.897 -0.39,-1.443 0,-0.555 0.134,-1.044 0.403,-1.469 0.269,-0.425 0.637,-0.75 1.105,-0.975 0.477,-0.234 1.01,-0.351 1.599,-0.351 z m 0.104,4.732 c 0.459,0 0.862,-0.087 1.209,-0.26 0.355,-0.173 0.633,-0.412 0.832,-0.715 0.199,-0.303 0.299,-0.641 0.299,-1.014 0,-0.347 -0.095,-0.667 -0.286,-0.962 -0.182,-0.295 -0.455,-0.533 -0.819,-0.715 -0.364,-0.182 -0.797,-0.273 -1.3,-0.273 -0.659,0 -1.196,0.182 -1.612,0.546 -0.407,0.355 -0.611,0.832 -0.611,1.43 0,0.598 0.204,1.075 0.611,1.43 0.416,0.355 0.975,0.533 1.677,0.533 z"
           fill="#ffffff"
           id="path2282" />
        <rect
           x="151"
           y="530"
           width="77.714302"
           height="21.7143"
           rx="8"
           fill="#4508bd"
           id="rect2284" />
        <path
           d="m 165.381,545.078 c -0.676,0 -1.326,-0.108 -1.95,-0.325 -0.616,-0.217 -1.092,-0.503 -1.43,-0.858 l 0.377,-0.741 c 0.329,0.329 0.767,0.598 1.313,0.806 0.546,0.199 1.109,0.299 1.69,0.299 0.814,0 1.425,-0.147 1.833,-0.442 0.407,-0.303 0.611,-0.693 0.611,-1.17 0,-0.364 -0.113,-0.654 -0.338,-0.871 -0.217,-0.217 -0.486,-0.381 -0.806,-0.494 -0.321,-0.121 -0.767,-0.251 -1.339,-0.39 -0.685,-0.173 -1.231,-0.338 -1.638,-0.494 -0.408,-0.165 -0.759,-0.412 -1.053,-0.741 -0.286,-0.329 -0.429,-0.776 -0.429,-1.339 0,-0.459 0.121,-0.875 0.364,-1.248 0.242,-0.381 0.615,-0.685 1.118,-0.91 0.502,-0.225 1.126,-0.338 1.872,-0.338 0.52,0 1.027,0.074 1.521,0.221 0.502,0.139 0.936,0.334 1.3,0.585 l -0.325,0.767 c -0.382,-0.251 -0.789,-0.438 -1.222,-0.559 -0.434,-0.13 -0.858,-0.195 -1.274,-0.195 -0.798,0 -1.4,0.156 -1.807,0.468 -0.399,0.303 -0.598,0.698 -0.598,1.183 0,0.364 0.108,0.659 0.325,0.884 0.225,0.217 0.502,0.386 0.832,0.507 0.338,0.113 0.788,0.238 1.352,0.377 0.667,0.165 1.204,0.329 1.612,0.494 0.416,0.156 0.767,0.399 1.053,0.728 0.286,0.321 0.429,0.758 0.429,1.313 0,0.459 -0.126,0.88 -0.377,1.261 -0.243,0.373 -0.62,0.672 -1.131,0.897 -0.512,0.217 -1.14,0.325 -1.885,0.325 z m 5.294,-9.724 h 0.923 V 545 h -0.923 z m 6.286,9.711 c -0.659,0 -1.252,-0.147 -1.781,-0.442 -0.529,-0.303 -0.945,-0.719 -1.248,-1.248 -0.303,-0.529 -0.455,-1.127 -0.455,-1.794 0,-0.667 0.152,-1.265 0.455,-1.794 0.303,-0.529 0.719,-0.94 1.248,-1.235 0.529,-0.295 1.122,-0.442 1.781,-0.442 0.659,0 1.252,0.147 1.781,0.442 0.529,0.295 0.94,0.706 1.235,1.235 0.303,0.529 0.455,1.127 0.455,1.794 0,0.667 -0.152,1.265 -0.455,1.794 -0.295,0.529 -0.706,0.945 -1.235,1.248 -0.529,0.295 -1.122,0.442 -1.781,0.442 z m 0,-0.819 c 0.485,0 0.919,-0.108 1.3,-0.325 0.39,-0.225 0.693,-0.542 0.91,-0.949 0.217,-0.407 0.325,-0.871 0.325,-1.391 0,-0.52 -0.108,-0.984 -0.325,-1.391 -0.217,-0.407 -0.52,-0.719 -0.91,-0.936 -0.381,-0.225 -0.815,-0.338 -1.3,-0.338 -0.485,0 -0.923,0.113 -1.313,0.338 -0.381,0.217 -0.685,0.529 -0.91,0.936 -0.217,0.407 -0.325,0.871 -0.325,1.391 0,0.52 0.108,0.984 0.325,1.391 0.225,0.407 0.529,0.724 0.91,0.949 0.39,0.217 0.828,0.325 1.313,0.325 z m 10.064,-0.013 V 545 h -5.564 v -0.611 l 4.303,-5.447 h -4.225 v -0.78 h 5.408 v 0.611 l -4.303,5.46 z m -0.637,-8.749 -1.677,1.612 h -0.936 l -1.677,-1.612 h 0.858 l 1.287,1.066 1.287,-1.066 z m 4.989,6.084 -1.612,1.482 V 545 h -0.923 v -9.646 h 0.923 v 6.539 l 4.082,-3.731 h 1.144 l -2.925,2.795 3.198,4.043 h -1.131 z m 7.537,-3.458 c 0.893,0 1.578,0.225 2.054,0.676 0.477,0.442 0.715,1.101 0.715,1.976 V 545 h -0.884 v -1.066 c -0.208,0.355 -0.515,0.633 -0.923,0.832 -0.398,0.199 -0.875,0.299 -1.43,0.299 -0.762,0 -1.369,-0.182 -1.82,-0.546 -0.45,-0.364 -0.676,-0.845 -0.676,-1.443 0,-0.581 0.208,-1.049 0.624,-1.404 0.425,-0.355 1.097,-0.533 2.015,-0.533 h 2.171 v -0.416 c 0,-0.589 -0.164,-1.036 -0.494,-1.339 -0.329,-0.312 -0.81,-0.468 -1.443,-0.468 -0.433,0 -0.849,0.074 -1.248,0.221 -0.398,0.139 -0.741,0.334 -1.027,0.585 l -0.416,-0.689 c 0.347,-0.295 0.763,-0.52 1.248,-0.676 0.486,-0.165 0.997,-0.247 1.534,-0.247 z m -0.325,6.227 c 0.52,0 0.967,-0.117 1.339,-0.351 0.373,-0.243 0.65,-0.589 0.832,-1.04 v -1.118 h -2.145 c -1.17,0 -1.755,0.407 -1.755,1.222 0,0.399 0.152,0.715 0.455,0.949 0.304,0.225 0.728,0.338 1.274,0.338 z m 10.915,-8.437 v 9.1 h -0.936 v -8.268 h -2.145 V 535.9 Z m 5.802,9.178 c -0.702,0 -1.33,-0.186 -1.885,-0.559 -0.546,-0.373 -0.975,-0.906 -1.287,-1.599 -0.303,-0.702 -0.455,-1.525 -0.455,-2.47 0,-0.945 0.152,-1.764 0.455,-2.457 0.312,-0.702 0.741,-1.239 1.287,-1.612 0.555,-0.373 1.183,-0.559 1.885,-0.559 0.702,0 1.326,0.186 1.872,0.559 0.555,0.373 0.988,0.91 1.3,1.612 0.312,0.693 0.468,1.512 0.468,2.457 0,0.945 -0.156,1.768 -0.468,2.47 -0.312,0.693 -0.745,1.226 -1.3,1.599 -0.546,0.373 -1.17,0.559 -1.872,0.559 z m 0,-0.858 c 0.529,0 0.992,-0.147 1.391,-0.442 0.407,-0.295 0.724,-0.724 0.949,-1.287 0.225,-0.563 0.338,-1.244 0.338,-2.041 0,-0.797 -0.113,-1.478 -0.338,-2.041 -0.225,-0.563 -0.542,-0.992 -0.949,-1.287 -0.399,-0.295 -0.862,-0.442 -1.391,-0.442 -0.529,0 -0.997,0.147 -1.404,0.442 -0.399,0.295 -0.711,0.724 -0.936,1.287 -0.225,0.563 -0.338,1.244 -0.338,2.041 0,0.797 0.113,1.478 0.338,2.041 0.225,0.563 0.537,0.992 0.936,1.287 0.407,0.295 0.875,0.442 1.404,0.442 z"
           fill="#ffffff"
           id="path2286" />
      </g>
      <g
         id="g1900">
        <rect
           x="124"
           y="267"
           width="2"
           height="281"
           fill="#ffffff"
           id="rect2288" />
        <circle
           cx="125"
           cy="548"
           r="3"
           fill="#ffffff"
           id="circle2292" />
        <circle
           cx="125"
           cy="503"
           r="3"
           fill="#ffffff"
           id="circle2296" />
        <circle
           cx="125"
           cy="458"
           r="3"
           fill="#ffffff"
           id="circle2300" />
        <circle
           cx="125"
           cy="413"
           r="3"
           fill="#ffffff"
           id="circle2304" />
        <circle
           cx="125"
           cy="368"
           r="3"
           fill="#ffffff"
           id="circle2308" />
        <circle
           cx="125"
           cy="327"
           r="3"
           fill="#ffffff"
           id="circle2312" />
        <circle
           cx="125"
           cy="298"
           r="3"
           fill="#ffffff"
           id="circle2316" />
        <circle
           cx="125"
           cy="268"
           r="3"
           fill="#ffffff"
           id="circle2320" />
        <path
           d="M 117.36,554.956 H 118 v 4.91 h -0.51 l -2.85,-2.91 c -0.36,-0.367 -0.67,-0.613 -0.93,-0.74 -0.267,-0.133 -0.533,-0.2 -0.8,-0.2 -0.413,0 -0.733,0.143 -0.96,0.43 -0.233,0.28 -0.35,0.683 -0.35,1.21 0,0.82 0.26,1.457 0.78,1.91 l -0.44,0.51 c -0.32,-0.273 -0.567,-0.62 -0.74,-1.04 -0.173,-0.427 -0.26,-0.907 -0.26,-1.44 0,-0.713 0.17,-1.277 0.51,-1.69 0.333,-0.42 0.793,-0.63 1.38,-0.63 0.36,0 0.707,0.08 1.04,0.24 0.333,0.16 0.717,0.463 1.15,0.91 l 2.34,2.38 z m 0.7,-3.655 c 0,0.54 -0.143,1.024 -0.43,1.45 -0.287,0.42 -0.697,0.75 -1.23,0.99 -0.54,0.234 -1.173,0.35 -1.9,0.35 -0.727,0 -1.357,-0.116 -1.89,-0.35 -0.54,-0.24 -0.953,-0.57 -1.24,-0.99 -0.287,-0.426 -0.43,-0.91 -0.43,-1.45 0,-0.54 0.143,-1.02 0.43,-1.44 0.287,-0.426 0.7,-0.76 1.24,-1 0.533,-0.24 1.163,-0.36 1.89,-0.36 0.727,0 1.36,0.12 1.9,0.36 0.533,0.24 0.943,0.574 1.23,1 0.287,0.42 0.43,0.9 0.43,1.44 z m -0.66,0 c 0,-0.406 -0.113,-0.763 -0.34,-1.07 -0.227,-0.313 -0.557,-0.556 -0.99,-0.73 -0.433,-0.173 -0.957,-0.26 -1.57,-0.26 -0.613,0 -1.137,0.087 -1.57,0.26 -0.433,0.174 -0.763,0.417 -0.99,0.73 -0.227,0.307 -0.34,0.664 -0.34,1.07 0,0.407 0.113,0.767 0.34,1.08 0.227,0.307 0.557,0.547 0.99,0.72 0.433,0.174 0.957,0.26 1.57,0.26 0.613,0 1.137,-0.086 1.57,-0.26 0.433,-0.173 0.763,-0.413 0.99,-0.72 0.227,-0.313 0.34,-0.673 0.34,-1.08 z m -0.04,-8.591 H 118 v 4.91 h -0.51 l -2.85,-2.91 c -0.36,-0.367 -0.67,-0.614 -0.93,-0.74 -0.267,-0.134 -0.533,-0.2 -0.8,-0.2 -0.413,0 -0.733,0.143 -0.96,0.43 -0.233,0.28 -0.35,0.683 -0.35,1.21 0,0.82 0.26,1.456 0.78,1.91 l -0.44,0.51 c -0.32,-0.274 -0.567,-0.62 -0.74,-1.04 -0.173,-0.427 -0.26,-0.907 -0.26,-1.44 0,-0.714 0.17,-1.277 0.51,-1.69 0.333,-0.42 0.793,-0.63 1.38,-0.63 0.36,0 0.707,0.08 1.04,0.24 0.333,0.16 0.717,0.463 1.15,0.91 l 2.34,2.38 z m 0.7,-3.655 c 0,0.54 -0.143,1.024 -0.43,1.45 -0.287,0.42 -0.697,0.75 -1.23,0.99 -0.54,0.234 -1.173,0.35 -1.9,0.35 -0.727,0 -1.357,-0.116 -1.89,-0.35 -0.54,-0.24 -0.953,-0.57 -1.24,-0.99 -0.287,-0.426 -0.43,-0.91 -0.43,-1.45 0,-0.54 0.143,-1.02 0.43,-1.44 0.287,-0.426 0.7,-0.76 1.24,-1 0.533,-0.24 1.163,-0.36 1.89,-0.36 0.727,0 1.36,0.12 1.9,0.36 0.533,0.24 0.943,0.574 1.23,1 0.287,0.42 0.43,0.9 0.43,1.44 z m -0.66,0 c 0,-0.406 -0.113,-0.763 -0.34,-1.07 -0.227,-0.313 -0.557,-0.556 -0.99,-0.73 -0.433,-0.173 -0.957,-0.26 -1.57,-0.26 -0.613,0 -1.137,0.087 -1.57,0.26 -0.433,0.174 -0.763,0.417 -0.99,0.73 -0.227,0.307 -0.34,0.664 -0.34,1.07 0,0.407 0.113,0.767 0.34,1.08 0.227,0.307 0.557,0.547 0.99,0.72 0.433,0.174 0.957,0.26 1.57,0.26 0.613,0 1.137,-0.086 1.57,-0.26 0.433,-0.173 0.763,-0.413 0.99,-0.72 0.227,-0.313 0.34,-0.673 0.34,-1.08 z"
           fill="#ffffff"
           id="path2322" />
        <path
           d="M 116.36,508.471 H 117 v 4.91 h -0.51 l -2.85,-2.91 c -0.36,-0.366 -0.67,-0.613 -0.93,-0.74 -0.267,-0.133 -0.533,-0.2 -0.8,-0.2 -0.413,0 -0.733,0.144 -0.96,0.43 -0.233,0.28 -0.35,0.684 -0.35,1.21 0,0.82 0.26,1.457 0.78,1.91 l -0.44,0.51 c -0.32,-0.273 -0.567,-0.62 -0.74,-1.04 -0.173,-0.426 -0.26,-0.906 -0.26,-1.44 0,-0.713 0.17,-1.276 0.51,-1.69 0.333,-0.42 0.793,-0.63 1.38,-0.63 0.36,0 0.707,0.08 1.04,0.24 0.333,0.16 0.717,0.464 1.15,0.91 l 2.34,2.38 z m 0.7,-3.654 c 0,0.54 -0.143,1.023 -0.43,1.45 -0.287,0.42 -0.697,0.75 -1.23,0.99 -0.54,0.233 -1.173,0.35 -1.9,0.35 -0.727,0 -1.357,-0.117 -1.89,-0.35 -0.54,-0.24 -0.953,-0.57 -1.24,-0.99 -0.287,-0.427 -0.43,-0.91 -0.43,-1.45 0,-0.54 0.143,-1.02 0.43,-1.44 0.287,-0.427 0.7,-0.76 1.24,-1 0.533,-0.24 1.163,-0.36 1.89,-0.36 0.727,0 1.36,0.12 1.9,0.36 0.533,0.24 0.943,0.573 1.23,1 0.287,0.42 0.43,0.9 0.43,1.44 z m -0.66,0 c 0,-0.407 -0.113,-0.763 -0.34,-1.07 -0.227,-0.313 -0.557,-0.557 -0.99,-0.73 -0.433,-0.173 -0.957,-0.26 -1.57,-0.26 -0.613,0 -1.137,0.087 -1.57,0.26 -0.433,0.173 -0.763,0.417 -0.99,0.73 -0.227,0.307 -0.34,0.663 -0.34,1.07 0,0.407 0.113,0.767 0.34,1.08 0.227,0.307 0.557,0.547 0.99,0.72 0.433,0.173 0.957,0.26 1.57,0.26 0.613,0 1.137,-0.087 1.57,-0.26 0.433,-0.173 0.763,-0.413 0.99,-0.72 0.227,-0.313 0.34,-0.673 0.34,-1.08 z m -0.04,-8.592 H 117 v 4.91 h -0.51 l -2.85,-2.91 c -0.36,-0.366 -0.67,-0.613 -0.93,-0.74 -0.267,-0.133 -0.533,-0.2 -0.8,-0.2 -0.413,0 -0.733,0.144 -0.96,0.43 -0.233,0.28 -0.35,0.684 -0.35,1.21 0,0.82 0.26,1.457 0.78,1.91 l -0.44,0.51 c -0.32,-0.273 -0.567,-0.62 -0.74,-1.04 -0.173,-0.426 -0.26,-0.906 -0.26,-1.44 0,-0.713 0.17,-1.276 0.51,-1.69 0.333,-0.42 0.793,-0.63 1.38,-0.63 0.36,0 0.707,0.08 1.04,0.24 0.333,0.16 0.717,0.464 1.15,0.91 l 2.34,2.38 z M 110,493.382 h 7 v 0.72 h -6.36 v 1.65 H 110 Z"
           fill="#ffffff"
           id="path2324" />
        <path
           d="M 116.36,464.507 H 117 v 4.91 h -0.51 l -2.85,-2.91 c -0.36,-0.367 -0.67,-0.614 -0.93,-0.74 -0.267,-0.134 -0.533,-0.2 -0.8,-0.2 -0.413,0 -0.733,0.143 -0.96,0.43 -0.233,0.28 -0.35,0.683 -0.35,1.21 0,0.82 0.26,1.456 0.78,1.91 l -0.44,0.51 c -0.32,-0.274 -0.567,-0.62 -0.74,-1.04 -0.173,-0.427 -0.26,-0.907 -0.26,-1.44 0,-0.714 0.17,-1.277 0.51,-1.69 0.333,-0.42 0.793,-0.63 1.38,-0.63 0.36,0 0.707,0.08 1.04,0.24 0.333,0.16 0.717,0.463 1.15,0.91 l 2.34,2.38 z m 0.7,-3.655 c 0,0.54 -0.143,1.023 -0.43,1.45 -0.287,0.42 -0.697,0.75 -1.23,0.99 -0.54,0.233 -1.173,0.35 -1.9,0.35 -0.727,0 -1.357,-0.117 -1.89,-0.35 -0.54,-0.24 -0.953,-0.57 -1.24,-0.99 -0.287,-0.427 -0.43,-0.91 -0.43,-1.45 0,-0.54 0.143,-1.02 0.43,-1.44 0.287,-0.427 0.7,-0.76 1.24,-1 0.533,-0.24 1.163,-0.36 1.89,-0.36 0.727,0 1.36,0.12 1.9,0.36 0.533,0.24 0.943,0.573 1.23,1 0.287,0.42 0.43,0.9 0.43,1.44 z m -0.66,0 c 0,-0.407 -0.113,-0.763 -0.34,-1.07 -0.227,-0.313 -0.557,-0.557 -0.99,-0.73 -0.433,-0.173 -0.957,-0.26 -1.57,-0.26 -0.613,0 -1.137,0.087 -1.57,0.26 -0.433,0.173 -0.763,0.417 -0.99,0.73 -0.227,0.307 -0.34,0.663 -0.34,1.07 0,0.407 0.113,0.767 0.34,1.08 0.227,0.307 0.557,0.547 0.99,0.72 0.433,0.173 0.957,0.26 1.57,0.26 0.613,0 1.137,-0.087 1.57,-0.26 0.433,-0.173 0.763,-0.413 0.99,-0.72 0.227,-0.313 0.34,-0.673 0.34,-1.08 z m -0.04,-8.591 H 117 v 4.91 h -0.51 l -2.85,-2.91 c -0.36,-0.367 -0.67,-0.614 -0.93,-0.74 -0.267,-0.134 -0.533,-0.2 -0.8,-0.2 -0.413,0 -0.733,0.143 -0.96,0.43 -0.233,0.28 -0.35,0.683 -0.35,1.21 0,0.82 0.26,1.456 0.78,1.91 l -0.44,0.51 c -0.32,-0.274 -0.567,-0.62 -0.74,-1.04 -0.173,-0.427 -0.26,-0.907 -0.26,-1.44 0,-0.714 0.17,-1.277 0.51,-1.69 0.333,-0.42 0.793,-0.63 1.38,-0.63 0.36,0 0.707,0.08 1.04,0.24 0.333,0.16 0.717,0.463 1.15,0.91 l 2.34,2.38 z m 0,-5.684 H 117 v 4.91 h -0.51 l -2.85,-2.91 c -0.36,-0.367 -0.67,-0.613 -0.93,-0.74 -0.267,-0.133 -0.533,-0.2 -0.8,-0.2 -0.413,0 -0.733,0.143 -0.96,0.43 -0.233,0.28 -0.35,0.683 -0.35,1.21 0,0.82 0.26,1.457 0.78,1.91 l -0.44,0.51 c -0.32,-0.273 -0.567,-0.62 -0.74,-1.04 -0.173,-0.427 -0.26,-0.907 -0.26,-1.44 0,-0.713 0.17,-1.277 0.51,-1.69 0.333,-0.42 0.793,-0.63 1.38,-0.63 0.36,0 0.707,0.08 1.04,0.24 0.333,0.16 0.717,0.463 1.15,0.91 l 2.34,2.38 z"
           fill="#ffffff"
           id="path2326" />
        <path
           d="M 116.36,419.487 H 117 v 4.91 h -0.51 l -2.85,-2.91 c -0.36,-0.367 -0.67,-0.613 -0.93,-0.74 -0.267,-0.133 -0.533,-0.2 -0.8,-0.2 -0.413,0 -0.733,0.143 -0.96,0.43 -0.233,0.28 -0.35,0.683 -0.35,1.21 0,0.82 0.26,1.457 0.78,1.91 l -0.44,0.51 c -0.32,-0.273 -0.567,-0.62 -0.74,-1.04 -0.173,-0.427 -0.26,-0.907 -0.26,-1.44 0,-0.713 0.17,-1.277 0.51,-1.69 0.333,-0.42 0.793,-0.63 1.38,-0.63 0.36,0 0.707,0.08 1.04,0.24 0.333,0.16 0.717,0.463 1.15,0.91 l 2.34,2.38 z m 0.7,-3.654 c 0,0.54 -0.143,1.023 -0.43,1.45 -0.287,0.42 -0.697,0.75 -1.23,0.99 -0.54,0.233 -1.173,0.35 -1.9,0.35 -0.727,0 -1.357,-0.117 -1.89,-0.35 -0.54,-0.24 -0.953,-0.57 -1.24,-0.99 -0.287,-0.427 -0.43,-0.91 -0.43,-1.45 0,-0.54 0.143,-1.02 0.43,-1.44 0.287,-0.427 0.7,-0.76 1.24,-1 0.533,-0.24 1.163,-0.36 1.89,-0.36 0.727,0 1.36,0.12 1.9,0.36 0.533,0.24 0.943,0.573 1.23,1 0.287,0.42 0.43,0.9 0.43,1.44 z m -0.66,0 c 0,-0.407 -0.113,-0.764 -0.34,-1.07 -0.227,-0.314 -0.557,-0.557 -0.99,-0.73 -0.433,-0.174 -0.957,-0.26 -1.57,-0.26 -0.613,0 -1.137,0.086 -1.57,0.26 -0.433,0.173 -0.763,0.416 -0.99,0.73 -0.227,0.306 -0.34,0.663 -0.34,1.07 0,0.406 0.113,0.766 0.34,1.08 0.227,0.306 0.557,0.546 0.99,0.72 0.433,0.173 0.957,0.26 1.57,0.26 0.613,0 1.137,-0.087 1.57,-0.26 0.433,-0.174 0.763,-0.414 0.99,-0.72 0.227,-0.314 0.34,-0.674 0.34,-1.08 z m -0.04,-8.592 H 117 v 4.91 h -0.51 l -2.85,-2.91 c -0.36,-0.367 -0.67,-0.613 -0.93,-0.74 -0.267,-0.133 -0.533,-0.2 -0.8,-0.2 -0.413,0 -0.733,0.143 -0.96,0.43 -0.233,0.28 -0.35,0.683 -0.35,1.21 0,0.82 0.26,1.457 0.78,1.91 l -0.44,0.51 c -0.32,-0.273 -0.567,-0.62 -0.74,-1.04 -0.173,-0.427 -0.26,-0.907 -0.26,-1.44 0,-0.713 0.17,-1.277 0.51,-1.69 0.333,-0.42 0.793,-0.63 1.38,-0.63 0.36,0 0.707,0.08 1.04,0.24 0.333,0.16 0.717,0.463 1.15,0.91 l 2.34,2.38 z M 113,403.957 c 0.04,-0.733 0.24,-1.29 0.6,-1.67 0.353,-0.386 0.817,-0.58 1.39,-0.58 0.4,0 0.757,0.097 1.07,0.29 0.307,0.194 0.55,0.48 0.73,0.86 0.18,0.38 0.27,0.844 0.27,1.39 0,0.507 -0.08,0.987 -0.24,1.44 -0.167,0.447 -0.387,0.807 -0.66,1.08 l -0.57,-0.35 c 0.24,-0.233 0.437,-0.543 0.59,-0.93 0.147,-0.386 0.22,-0.8 0.22,-1.24 0,-0.573 -0.123,-1.016 -0.37,-1.33 -0.253,-0.313 -0.6,-0.47 -1.04,-0.47 -0.433,0 -0.773,0.157 -1.02,0.47 -0.247,0.314 -0.37,0.787 -0.37,1.42 v 0.5 h -0.53 l -2.43,-1.94 v 3.58 H 110 v -4.5 h 0.51 z"
           fill="#ffffff"
           id="path2328" />
        <path
           d="M 116.36,374.853 H 117 v 4.91 h -0.51 l -2.85,-2.91 c -0.36,-0.366 -0.67,-0.613 -0.93,-0.74 -0.267,-0.133 -0.533,-0.2 -0.8,-0.2 -0.413,0 -0.733,0.144 -0.96,0.43 -0.233,0.28 -0.35,0.684 -0.35,1.21 0,0.82 0.26,1.457 0.78,1.91 l -0.44,0.51 c -0.32,-0.273 -0.567,-0.62 -0.74,-1.04 -0.173,-0.426 -0.26,-0.906 -0.26,-1.44 0,-0.713 0.17,-1.276 0.51,-1.69 0.333,-0.42 0.793,-0.63 1.38,-0.63 0.36,0 0.707,0.08 1.04,0.24 0.333,0.16 0.717,0.464 1.15,0.91 l 2.34,2.38 z m 0.7,-3.654 c 0,0.54 -0.143,1.023 -0.43,1.45 -0.287,0.42 -0.697,0.75 -1.23,0.99 -0.54,0.233 -1.173,0.35 -1.9,0.35 -0.727,0 -1.357,-0.117 -1.89,-0.35 -0.54,-0.24 -0.953,-0.57 -1.24,-0.99 -0.287,-0.427 -0.43,-0.91 -0.43,-1.45 0,-0.54 0.143,-1.02 0.43,-1.44 0.287,-0.427 0.7,-0.76 1.24,-1 0.533,-0.24 1.163,-0.36 1.89,-0.36 0.727,0 1.36,0.12 1.9,0.36 0.533,0.24 0.943,0.573 1.23,1 0.287,0.42 0.43,0.9 0.43,1.44 z m -0.66,0 c 0,-0.407 -0.113,-0.764 -0.34,-1.07 -0.227,-0.314 -0.557,-0.557 -0.99,-0.73 -0.433,-0.174 -0.957,-0.26 -1.57,-0.26 -0.613,0 -1.137,0.086 -1.57,0.26 -0.433,0.173 -0.763,0.416 -0.99,0.73 -0.227,0.306 -0.34,0.663 -0.34,1.07 0,0.406 0.113,0.766 0.34,1.08 0.227,0.306 0.557,0.546 0.99,0.72 0.433,0.173 0.957,0.26 1.57,0.26 0.613,0 1.137,-0.087 1.57,-0.26 0.433,-0.174 0.763,-0.414 0.99,-0.72 0.227,-0.314 0.34,-0.674 0.34,-1.08 z m -0.04,-8.592 H 117 v 4.91 h -0.51 l -2.85,-2.91 c -0.36,-0.366 -0.67,-0.613 -0.93,-0.74 -0.267,-0.133 -0.533,-0.2 -0.8,-0.2 -0.413,0 -0.733,0.144 -0.96,0.43 -0.233,0.28 -0.35,0.684 -0.35,1.21 0,0.82 0.26,1.457 0.78,1.91 l -0.44,0.51 c -0.32,-0.273 -0.567,-0.62 -0.74,-1.04 -0.173,-0.426 -0.26,-0.906 -0.26,-1.44 0,-0.713 0.17,-1.276 0.51,-1.69 0.333,-0.42 0.793,-0.63 1.38,-0.63 0.36,0 0.707,0.08 1.04,0.24 0.333,0.16 0.717,0.464 1.15,0.91 l 2.34,2.38 z m -1.2,-6.619 v 1.4 H 117 v 0.72 h -1.84 v 3.95 h -0.52 l -4.64,-3.71 v -0.8 l 4.52,3.58 v -3.04 h -1.62 v -0.7 h 1.62 v -1.4 z"
           fill="#ffffff"
           id="path2330" />
        <path
           d="M 116.36,333.497 H 117 v 4.91 h -0.51 l -2.85,-2.91 c -0.36,-0.367 -0.67,-0.613 -0.93,-0.74 -0.267,-0.133 -0.533,-0.2 -0.8,-0.2 -0.413,0 -0.733,0.143 -0.96,0.43 -0.233,0.28 -0.35,0.683 -0.35,1.21 0,0.82 0.26,1.457 0.78,1.91 l -0.44,0.51 c -0.32,-0.273 -0.567,-0.62 -0.74,-1.04 -0.173,-0.427 -0.26,-0.907 -0.26,-1.44 0,-0.713 0.17,-1.277 0.51,-1.69 0.333,-0.42 0.793,-0.63 1.38,-0.63 0.36,0 0.707,0.08 1.04,0.24 0.333,0.16 0.717,0.463 1.15,0.91 l 2.34,2.38 z m 0.7,-3.655 c 0,0.54 -0.143,1.024 -0.43,1.45 -0.287,0.42 -0.697,0.75 -1.23,0.99 -0.54,0.234 -1.173,0.35 -1.9,0.35 -0.727,0 -1.357,-0.116 -1.89,-0.35 -0.54,-0.24 -0.953,-0.57 -1.24,-0.99 -0.287,-0.426 -0.43,-0.91 -0.43,-1.45 0,-0.54 0.143,-1.02 0.43,-1.44 0.287,-0.426 0.7,-0.76 1.24,-1 0.533,-0.24 1.163,-0.36 1.89,-0.36 0.727,0 1.36,0.12 1.9,0.36 0.533,0.24 0.943,0.574 1.23,1 0.287,0.42 0.43,0.9 0.43,1.44 z m -0.66,0 c 0,-0.406 -0.113,-0.763 -0.34,-1.07 -0.227,-0.313 -0.557,-0.556 -0.99,-0.73 -0.433,-0.173 -0.957,-0.26 -1.57,-0.26 -0.613,0 -1.137,0.087 -1.57,0.26 -0.433,0.174 -0.763,0.417 -0.99,0.73 -0.227,0.307 -0.34,0.664 -0.34,1.07 0,0.407 0.113,0.767 0.34,1.08 0.227,0.307 0.557,0.547 0.99,0.72 0.433,0.174 0.957,0.26 1.57,0.26 0.613,0 1.137,-0.086 1.57,-0.26 0.433,-0.173 0.763,-0.413 0.99,-0.72 0.227,-0.313 0.34,-0.673 0.34,-1.08 z m -0.04,-8.591 H 117 v 4.91 h -0.51 l -2.85,-2.91 c -0.36,-0.367 -0.67,-0.614 -0.93,-0.74 -0.267,-0.134 -0.533,-0.2 -0.8,-0.2 -0.413,0 -0.733,0.143 -0.96,0.43 -0.233,0.28 -0.35,0.683 -0.35,1.21 0,0.82 0.26,1.456 0.78,1.91 l -0.44,0.51 c -0.32,-0.274 -0.567,-0.62 -0.74,-1.04 -0.173,-0.427 -0.26,-0.907 -0.26,-1.44 0,-0.714 0.17,-1.277 0.51,-1.69 0.333,-0.42 0.793,-0.63 1.38,-0.63 0.36,0 0.707,0.08 1.04,0.24 0.333,0.16 0.717,0.463 1.15,0.91 l 2.34,2.38 z m -3.49,-2.744 c 0,-1.013 0.183,-1.75 0.55,-2.21 0.36,-0.466 0.867,-0.7 1.52,-0.7 0.407,0 0.77,0.097 1.09,0.29 0.32,0.187 0.573,0.47 0.76,0.85 0.18,0.38 0.27,0.847 0.27,1.4 0,0.5 -0.08,0.977 -0.24,1.43 -0.167,0.447 -0.387,0.807 -0.66,1.08 l -0.57,-0.35 c 0.24,-0.233 0.437,-0.54 0.59,-0.92 0.147,-0.38 0.22,-0.79 0.22,-1.23 0,-0.58 -0.13,-1.026 -0.39,-1.34 -0.26,-0.32 -0.607,-0.48 -1.04,-0.48 -0.48,0 -0.843,0.18 -1.09,0.54 -0.247,0.354 -0.37,0.954 -0.37,1.8 v 1.49 l -3.51,-0.36 v -3.83 h 0.64 v 3.2 l 2.23,0.24 z"
           fill="#ffffff"
           id="path2332" />
        <path
           d="m 111.4,310.916 v -2.28 c 0,-0.592 0.12,-1.115 0.36,-1.568 0.235,-0.453 0.565,-0.805 0.992,-1.056 0.421,-0.251 0.904,-0.376 1.448,-0.376 0.544,0 1.029,0.125 1.456,0.376 0.421,0.251 0.752,0.603 0.992,1.056 0.235,0.453 0.352,0.976 0.352,1.568 v 2.28 z m 5.088,-2.248 c 0,-0.491 -0.096,-0.92 -0.288,-1.288 -0.197,-0.368 -0.467,-0.653 -0.808,-0.856 -0.347,-0.203 -0.744,-0.304 -1.192,-0.304 -0.448,0 -0.843,0.101 -1.184,0.304 -0.347,0.203 -0.616,0.488 -0.808,0.856 -0.197,0.368 -0.296,0.797 -0.296,1.288 v 1.656 h 4.576 z m -3.696,-8.033 H 117 v 0.544 h -0.768 c 0.256,0.149 0.456,0.354 0.6,0.616 0.139,0.261 0.208,0.56 0.208,0.896 0,0.549 -0.152,0.984 -0.456,1.304 -0.309,0.314 -0.76,0.472 -1.352,0.472 h -2.44 v -0.568 h 2.384 c 0.443,0 0.779,-0.11 1.008,-0.328 0.229,-0.219 0.344,-0.531 0.344,-0.936 0,-0.443 -0.133,-0.792 -0.4,-1.048 -0.272,-0.256 -0.648,-0.384 -1.128,-0.384 h -2.208 z m -0.032,-3.759 c 0,-0.395 0.091,-0.752 0.272,-1.072 0.176,-0.32 0.427,-0.571 0.752,-0.752 0.325,-0.181 0.696,-0.272 1.112,-0.272 0.416,0 0.787,0.091 1.112,0.272 0.325,0.181 0.579,0.432 0.76,0.752 0.181,0.32 0.272,0.677 0.272,1.072 0,0.352 -0.075,0.669 -0.224,0.952 -0.149,0.277 -0.365,0.501 -0.648,0.672 H 117 v 0.544 h -5.936 v -0.568 h 2.528 c -0.272,-0.176 -0.477,-0.4 -0.616,-0.672 -0.144,-0.277 -0.216,-0.587 -0.216,-0.928 z m 3.776,0.04 c 0,-0.293 -0.067,-0.56 -0.2,-0.8 -0.139,-0.24 -0.333,-0.427 -0.584,-0.56 -0.251,-0.139 -0.536,-0.208 -0.856,-0.208 -0.32,0 -0.605,0.069 -0.856,0.208 -0.251,0.133 -0.443,0.32 -0.576,0.56 -0.139,0.24 -0.208,0.507 -0.208,0.8 0,0.299 0.069,0.568 0.208,0.808 0.133,0.235 0.325,0.421 0.576,0.56 0.251,0.133 0.536,0.2 0.856,0.2 0.32,0 0.605,-0.067 0.856,-0.2 0.251,-0.139 0.445,-0.325 0.584,-0.56 0.133,-0.24 0.2,-0.509 0.2,-0.808 z m -1.464,-6.958 v 3.52 c 0.437,-0.032 0.792,-0.2 1.064,-0.504 0.267,-0.304 0.4,-0.688 0.4,-1.152 0,-0.261 -0.045,-0.501 -0.136,-0.72 -0.096,-0.219 -0.235,-0.408 -0.416,-0.568 l 0.368,-0.32 c 0.224,0.187 0.395,0.421 0.512,0.704 0.117,0.277 0.176,0.584 0.176,0.92 0,0.432 -0.091,0.816 -0.272,1.152 -0.187,0.331 -0.443,0.589 -0.768,0.776 -0.325,0.187 -0.693,0.28 -1.104,0.28 -0.411,0 -0.779,-0.088 -1.104,-0.264 -0.325,-0.181 -0.579,-0.427 -0.76,-0.736 -0.181,-0.315 -0.272,-0.667 -0.272,-1.056 0,-0.389 0.091,-0.739 0.272,-1.048 0.181,-0.309 0.435,-0.552 0.76,-0.728 0.32,-0.176 0.688,-0.264 1.104,-0.264 z m -1.824,2.032 c 0,0.405 0.131,0.747 0.392,1.024 0.256,0.272 0.592,0.427 1.008,0.464 v -2.984 c -0.416,0.037 -0.752,0.195 -1.008,0.472 -0.261,0.272 -0.392,0.613 -0.392,1.024 z m -0.488,-5.34 c 0,-0.528 0.155,-0.947 0.464,-1.256 0.304,-0.315 0.749,-0.472 1.336,-0.472 H 117 v 0.568 h -2.384 c -0.437,0 -0.771,0.109 -1,0.328 -0.229,0.219 -0.344,0.531 -0.344,0.936 0,0.453 0.136,0.813 0.408,1.08 0.267,0.261 0.637,0.392 1.112,0.392 H 117 v 0.568 h -4.208 v -0.544 h 0.776 c -0.256,-0.155 -0.453,-0.368 -0.592,-0.64 -0.144,-0.277 -0.216,-0.597 -0.216,-0.96 z"
           fill="#ffffff"
           id="path2334" />
        <path
           d="m 117.048,277.411 c 0,0.416 -0.067,0.816 -0.2,1.2 -0.133,0.379 -0.309,0.672 -0.528,0.88 l -0.456,-0.232 c 0.203,-0.202 0.368,-0.472 0.496,-0.808 0.123,-0.336 0.184,-0.682 0.184,-1.04 0,-0.501 -0.091,-0.877 -0.272,-1.128 -0.187,-0.25 -0.427,-0.376 -0.72,-0.376 -0.224,0 -0.403,0.07 -0.536,0.208 -0.133,0.134 -0.235,0.299 -0.304,0.496 -0.075,0.198 -0.155,0.472 -0.24,0.824 -0.107,0.422 -0.208,0.758 -0.304,1.008 -0.101,0.251 -0.253,0.467 -0.456,0.648 -0.203,0.176 -0.477,0.264 -0.824,0.264 -0.283,0 -0.539,-0.074 -0.768,-0.224 -0.235,-0.149 -0.421,-0.378 -0.56,-0.688 -0.139,-0.309 -0.208,-0.693 -0.208,-1.152 0,-0.32 0.045,-0.632 0.136,-0.936 0.085,-0.309 0.205,-0.576 0.36,-0.8 l 0.472,0.2 c -0.155,0.235 -0.269,0.486 -0.344,0.752 -0.08,0.267 -0.12,0.528 -0.12,0.784 0,0.491 0.096,0.862 0.288,1.112 0.187,0.246 0.429,0.368 0.728,0.368 0.224,0 0.405,-0.066 0.544,-0.2 0.133,-0.138 0.237,-0.309 0.312,-0.512 0.069,-0.208 0.147,-0.485 0.232,-0.832 0.101,-0.41 0.203,-0.741 0.304,-0.992 0.096,-0.256 0.245,-0.472 0.448,-0.648 0.197,-0.176 0.467,-0.264 0.808,-0.264 0.283,0 0.541,0.078 0.776,0.232 0.229,0.15 0.413,0.382 0.552,0.696 0.133,0.315 0.2,0.702 0.2,1.16 z m -3.432,-3.802 c -0.283,-0.133 -0.496,-0.33 -0.64,-0.592 -0.144,-0.266 -0.216,-0.594 -0.216,-0.984 h 0.552 l -0.008,0.136 c 0,0.443 0.136,0.79 0.408,1.04 0.272,0.251 0.653,0.376 1.144,0.376 H 117 v 0.568 h -4.208 v -0.544 z m -0.856,-4.772 c 0,-0.395 0.091,-0.752 0.272,-1.072 0.176,-0.32 0.427,-0.571 0.752,-0.752 0.325,-0.181 0.696,-0.272 1.112,-0.272 0.421,0 0.795,0.091 1.12,0.272 0.325,0.181 0.579,0.432 0.76,0.752 0.176,0.315 0.264,0.672 0.264,1.072 0,0.341 -0.069,0.651 -0.208,0.928 -0.144,0.272 -0.352,0.496 -0.624,0.672 h 2.344 v 0.568 h -5.76 v -0.544 h 0.832 c -0.277,-0.171 -0.491,-0.395 -0.64,-0.672 -0.149,-0.283 -0.224,-0.6 -0.224,-0.952 z m 3.776,0.04 c 0,-0.293 -0.067,-0.56 -0.2,-0.8 -0.139,-0.24 -0.333,-0.427 -0.584,-0.56 -0.251,-0.139 -0.536,-0.208 -0.856,-0.208 -0.32,0 -0.603,0.069 -0.848,0.208 -0.251,0.133 -0.445,0.32 -0.584,0.56 -0.139,0.24 -0.208,0.507 -0.208,0.8 0,0.299 0.069,0.568 0.208,0.808 0.139,0.235 0.333,0.421 0.584,0.56 0.245,0.133 0.528,0.2 0.848,0.2 0.32,0 0.605,-0.067 0.856,-0.2 0.251,-0.139 0.445,-0.325 0.584,-0.56 0.133,-0.24 0.2,-0.509 0.2,-0.808 z m -1.464,-6.958 v 3.52 c 0.437,-0.032 0.792,-0.2 1.064,-0.504 0.267,-0.304 0.4,-0.688 0.4,-1.152 0,-0.261 -0.045,-0.501 -0.136,-0.72 -0.096,-0.219 -0.235,-0.408 -0.416,-0.568 l 0.368,-0.32 c 0.224,0.187 0.395,0.421 0.512,0.704 0.117,0.277 0.176,0.584 0.176,0.92 0,0.432 -0.091,0.816 -0.272,1.152 -0.187,0.331 -0.443,0.589 -0.768,0.776 -0.325,0.187 -0.693,0.28 -1.104,0.28 -0.411,0 -0.779,-0.088 -1.104,-0.264 -0.325,-0.181 -0.579,-0.427 -0.76,-0.736 -0.181,-0.315 -0.272,-0.667 -0.272,-1.056 0,-0.389 0.091,-0.739 0.272,-1.048 0.181,-0.309 0.435,-0.552 0.76,-0.728 0.32,-0.176 0.688,-0.264 1.104,-0.264 z m -1.824,2.032 c 0,0.405 0.131,0.747 0.392,1.024 0.256,0.272 0.592,0.427 1.008,0.464 v -2.984 c -0.416,0.037 -0.752,0.195 -1.008,0.472 -0.261,0.272 -0.392,0.613 -0.392,1.024 z m -0.488,-5.34 c 0,-0.528 0.155,-0.947 0.464,-1.256 0.304,-0.315 0.749,-0.472 1.336,-0.472 H 117 v 0.568 h -2.384 c -0.437,0 -0.771,0.109 -1,0.328 -0.229,0.219 -0.344,0.531 -0.344,0.936 0,0.453 0.136,0.813 0.408,1.08 0.267,0.261 0.637,0.392 1.112,0.392 H 117 v 0.568 h -4.208 v -0.544 h 0.776 c -0.256,-0.155 -0.453,-0.368 -0.592,-0.64 -0.144,-0.277 -0.216,-0.597 -0.216,-0.96 z"
           fill="#ffffff"
           id="path2336" />
      </g>
    </g>
    <g
       id="svg-sluzby-rozcestnik-web-pres-card-bottom-left">
      <g
         filter="url(#shadow-1)"
         id="g2340">
        <rect
           x="255"
           y="465"
           width="143"
           height="103"
           rx="20"
           fill="#4508bd"
           id="rect2338" />
      </g>
      <rect
         x="255"
         y="528"
         width="143"
         height="41"
         rx="20.5"
         fill="#310686"
         id="rect2342" />
      <path
         fill-rule="evenodd"
         clip-rule="evenodd"
         d="m 254,508.138 c 16.301,2.712 31.312,4.53 47.613,-2.249 16.072,-6.779 32.143,-21.919 48.444,-22.823 16.072,-1.129 32.373,12.429 40.409,18.982 L 399,509 v 17 h -8.534 c -8.036,0 -24.337,0 -40.409,0 -16.301,0 -32.372,0 -48.444,0 -16.301,0 -31.312,0 -47.613,0 z"
         fill="#ffffff"
         id="path2344" />
      <path
         fill-rule="evenodd"
         clip-rule="evenodd"
         d="m 399,549 -10.149,-1.701 c -10.149,-1.913 -30.737,-5.527 -51.034,-8.291 -20.588,-2.551 -40.886,-4.465 -61.474,1.913 C 256.014,546.756 254,546.756 254,546.756 V 522 c 20.588,0 63.229,0 83.817,0 20.297,0 40.885,0 51.034,0 H 399 Z"
         fill="#ffffff"
         id="path2346" />
    </g>
    <g
       id="svg-sluzby-rozcestnik-web-pres-card-bottom-right">
      <g
         filter="url(#shadow-1)"
         id="g2350">
        <rect
           x="411.86499"
           y="366"
           width="145.134"
           height="203"
           rx="20"
           fill="#ffffff"
           id="rect2348" />
      </g>
      <path
         fill-rule="evenodd"
         clip-rule="evenodd"
         d="m 455.151,568.996 c 1.349,-25.374 2.577,-37.135 14.986,-60.829 10.34,-23.695 28.954,-47.389 37.227,-71.084 10.341,-23.694 10.341,-47.388 10.341,-59.236 V 366 c 0,0 18.048,0 19.735,0 1.686,0 6.12,0.806 9.442,2.781 3.55,2.111 5.374,3.988 7.42,7.647 2.041,3.652 2.698,8.342 2.698,10.428 0,2.086 0,26.533 0,50.227 0,23.695 0,47.389 0,71.084 0,23.694 0,16.279 0,39.974 0,0 0,4.866 -2.024,9.037 -2.023,4.171 -4.543,6.929 -8.094,9.037 -5.058,3.005 -10.117,2.781 -10.117,2.781 z"
         fill="#6a1eff"
         id="path2352" />
    </g>
    <g
       id="svg-sluzby-rozcestnik-web-pres-card-top-left">
      <g
         filter="url(#shadow-1)"
         id="g2356">
        <rect
           x="254.19501"
           y="250"
           width="145.134"
           height="204.963"
           rx="20"
           fill="#ffffff"
           id="rect2354" />
      </g>
      <path
         fill-rule="evenodd"
         clip-rule="evenodd"
         d="m 254,364.573 4.028,-1.344 c 4.028,-1.345 12.083,-4.033 20.139,-1.345 8.055,2.689 16.111,12.099 24.166,20.165 8.056,9.41 16.111,17.475 24.167,20.164 8.056,2.688 18.378,-0.233 26.852,-6.341 12.419,-8.953 17.454,-13.608 26.516,-23.994 8.417,-9.645 13.426,-22.56 15.104,-36.879 L 399.5,311 v 106 h -4.528 c -4.028,0 -12.083,0 -20.139,0 -8.055,0 -16.111,0 -24.166,0 -8.056,0 -16.111,0 -24.167,0 -8.056,0 -16.111,0 -24.167,0 -8.055,0 -16.111,0 -24.166,0 -8.056,0 -16.111,0 -20.139,0 H 254 Z"
         fill="#4508bd"
         id="path2358" />
      <path
         d="m 254,415.6 h 145.371 c 0,0 0,16.534 0,18.996 0,2.463 -0.78,6.385 -2.692,9.85 -2.043,3.703 -3.861,5.606 -7.403,7.74 -3.535,2.129 -7.403,2.814 -10.095,2.814 -2.692,0 -101.784,0 -103.644,0 -1.861,0 -7.909,-0.68 -11.442,-2.814 -4.025,-2.433 -6.053,-4.77 -8.076,-9.147 -1.414,-3.06 -2.019,-6.332 -2.019,-8.443 0,-2.111 0,-18.996 0,-18.996 z"
         fill="#4508bd"
         id="path2360" />
    </g>
    <g
       id="svg-sluzby-rozcestnik-web-pres-card-top-right">
      <g
         filter="url(#shadow-1)"
         id="g2364">
        <rect
           x="411.86499"
           y="250.14301"
           width="145.134"
           height="105.143"
           rx="18"
           fill="#ffffff"
           id="rect2362" />
      </g>
      <path
         fill-rule="evenodd"
         clip-rule="evenodd"
         d="m 557,267 c 0,3.5 0,14.549 0,14.549 v 50.879 c 0,0 -7.708,-31.123 -14.473,-44.925 -6.765,-13.802 -15.616,-19.756 -29.853,-28.552 l -14.237,-8.795 h 38.369 c 0,0 6.826,0 12.396,3.844 5.57,3.844 7.798,9.5 7.798,13 z"
         fill="#4508bd"
         id="path2366" />
      <path
         fill-rule="evenodd"
         clip-rule="evenodd"
         d="m 449.549,250.153 -3.14,4.38 c -3.14,4.381 -9.421,13.142 -1.57,21.903 7.851,8.761 23.385,17.522 21.815,26.283 -1.57,8.761 -20.245,17.523 -18.675,26.284 1.57,8.761 29.833,17.522 43.965,21.902 l 14.131,4.381 H 431.91 c 0,0 -4.009,0 -8.686,-1.813 -4.677,-1.812 -6.682,-4.229 -9.02,-7.855 -2.339,-3.625 -2.339,-7.854 -2.339,-7.854 0,-4.381 0,-0.605 0,-8.761 0,-8.157 0,-17.523 0,-26.284 0,-8.761 0,-18.126 0,-26.283 0,-8.157 0,-3.776 0,-8.157 0,0 0,-3.625 1.337,-6.646 1.336,-3.021 4.009,-6.344 8.686,-9.063 4.677,-2.719 10.913,-2.417 10.913,-2.417 z"
         fill="#5c09ff"
         id="path2368" />
    </g>
  </g>
  <defs
     id="defs3206">
     <filter id="shadow-1" x="-50%" y="-50%" width="200%" height="200%" filterUnits="objectBoundingBox">
         <feOffset dx="0" dy="4" in="SourceAlpha" result="shadowOffsetOuter1"/>
         <feGaussianBlur stdDeviation="10" in="shadowOffsetOuter1" result="shadowBlurOuter1"/>
         <feColorMatrix values="0 0 0 0 0 0 0 0 0 0 0 0 0 0 0 0 0 0 0.2 0" in="shadowBlurOuter1" type="matrix" result="shadowMatrixOuter1"/>
         <feMerge>
            <feMergeNode in="shadowMatrixOuter1"/>
            <feMergeNode in="SourceGraphic"/>
         </feMerge>
   </filter>
  </defs>
</svg>
