<svg width="817" height="933" viewBox="0 0 817 933" fill="none" xmlns="http://www.w3.org/2000/svg">
<path d="M817 392.247C817 675.249 686.922 763.124 595.378 783.47C474.861 810.256 261.103 677.455 177.929 623.868C150.027 605.891 0 511.67 0 307.368C0 8.90446 261 213.774 434 144.116C756.5 14.2645 817 93.7836 817 392.247Z" fill="#5C09FF"/>
<g filter="url(#filter0_d)">
<path d="M128.49 62.303C136.31 59.4998 145.598 59.9585 155.112 63.6177L631.354 246.788C657.121 256.699 678 287.094 678 314.694V837.729C678 865.344 657.101 879.707 631.321 869.811L166.989 691.57C141.43 681.76 120.625 651.757 120.313 624.263L114 67.4976L128.49 62.303Z" fill="#A094E3"/>
</g>
<rect width="612" height="623" rx="50" transform="matrix(0.93358 0.358368 0 1 94.5674 50.7339)" fill="white"/>
<path d="M359.784 521.534L345.551 503.146C348.844 495.817 350.563 487.305 350.624 478.04L355 484C362.5 481 371.711 478.291 371.5 476C369.901 460.769 365.114 444.062 357.768 428.917C356.636 426.595 354.378 424.842 352.372 424.763L334.584 423.971C328.97 414.433 322.088 405.54 314.27 397.731L317.818 380.171C318.223 378.168 317.111 375.537 315.131 373.87C301.93 362.676 287.77 354.354 274.09 349.287C271.937 348.478 262 353 257.5 354.5L266.157 368.951C257.243 366.779 248.641 366.398 240.771 367.817L226.576 349.452C224.937 347.348 222.579 346.296 220.847 346.943C209.635 350.931 198.751 354.231 192 364.5C190.971 366.049 192.87 372.602 194.51 374.707L208.742 393.094C205.45 400.424 203.73 408.935 203.67 418.2L185.882 417.408C183.5 418 176 421 170.5 423C172.099 438.231 189.179 452.178 196.526 467.323C197.658 469.645 199.915 471.398 201.922 471.478L219.709 472.27C225.324 481.807 232.206 490.7 240.023 498.51L236.468 516.106C236.064 518.108 237.175 520.739 239.156 522.406C287 548 249.5 559.5 281.5 547.5C283.5 546.5 284.169 546.923 284.574 544.92L288.129 527.325C297.043 529.497 305.645 529.879 313.516 528.459L323.5 550C325.139 552.104 331.745 550.002 333.477 549.356C344.689 545.367 354.119 538.106 360.87 527.837C361.831 526.208 361.423 523.638 359.784 521.534ZM271.351 476.702C254.777 466.774 243.879 445.854 247.066 430.082C250.252 414.31 266.338 409.553 282.912 419.48C299.486 429.408 310.384 450.329 307.198 466.1C304.011 481.872 287.925 486.63 271.351 476.702Z" fill="#A094E3"/>
<path d="M345.967 526.678L331.735 508.29C335.027 500.961 336.747 492.449 336.807 483.184L354.595 483.976C356.639 484.077 357.885 482.498 357.674 480.207C356.074 464.976 351.298 449.206 343.951 434.061C342.819 431.739 340.562 429.986 338.555 429.906L320.768 429.114C315.153 419.577 308.271 410.684 300.454 402.874L304.001 385.314C304.406 383.311 303.294 380.681 301.314 379.014C288.114 367.819 273.954 359.498 260.274 354.431C258.12 353.622 256.3 354.497 255.896 356.499L252.341 374.095C243.426 371.923 234.825 371.541 226.954 372.961L212.759 354.596C211.12 352.491 208.762 351.44 207.031 352.087C195.819 356.075 186.389 363.336 179.638 373.605C178.608 375.154 179.054 377.746 180.693 379.85L194.926 398.238C191.633 405.567 189.914 414.079 189.853 423.344L172.065 422.552C170.022 422.45 168.776 424.029 168.987 426.321C170.586 441.551 175.363 457.322 182.709 472.467C183.841 474.789 186.099 476.542 188.105 476.621L205.893 477.413C211.507 486.951 218.389 495.844 226.207 503.654L222.652 521.249C222.247 523.252 223.359 525.882 225.339 527.55C238.539 538.744 252.699 547.065 266.379 552.132C268.533 552.941 270.353 552.067 270.757 550.064L274.313 532.468C283.227 534.641 291.829 535.022 299.699 533.602L313.932 551.99C315.571 554.095 317.928 555.146 319.66 554.499C330.872 550.511 340.302 543.25 347.053 532.981C348.014 531.352 347.607 528.782 345.967 526.678ZM257.534 481.846C240.961 471.918 230.062 450.997 233.249 435.225C236.435 419.454 252.522 414.696 269.096 424.624C285.669 434.551 296.568 455.472 293.381 471.244C290.195 487.016 274.108 491.773 257.534 481.846Z" fill="#310686"/>
<circle r="33" transform="matrix(0.93358 0.358368 0 1 263.545 452.599)" fill="white"/>
<circle r="33" transform="matrix(0.93358 0.358368 0 1 263.545 452.599)" fill="white"/>
<circle r="33" transform="matrix(0.93358 0.358368 0 1 263.545 452.599)" fill="#A094E3"/>
<ellipse rx="26.4347" ry="27.9792" transform="matrix(0.93358 0.358368 0 1 268.679 451.453)" fill="white"/>
<ellipse rx="26.4347" ry="27.9792" transform="matrix(0.93358 0.358368 0 1 268.679 451.453)" fill="white"/>
<ellipse rx="26.4347" ry="27.9792" transform="matrix(0.93358 0.358368 0 1 268.679 451.453)" fill="#4508BD"/>
<path d="M573.18 607.52L560.846 572.646C571.515 566.579 580.249 557.694 586.606 546.44L610 568C618.5 564.5 623.709 564.018 624.888 561.037C632.386 541.053 634.724 517.635 632.173 492.735C631.772 488.912 629.03 484.8 625.596 482.951L595.208 466.444C591.883 449.9 585.92 433.034 577.601 416.674L595.617 398.344C597.672 396.254 597.515 392.073 595.197 388.308C579.804 363.114 560.803 340.589 540.441 322.453C537.243 319.585 533.5 319.5 530.5 321L520.5 324.5L513.381 339.519C499.35 329.081 484.654 321.1 470.014 315.956L457.73 281.143C456.301 277.143 452.912 273.8 449.465 273.076C427.282 268.148 405.99 268.771 387.324 275.404C384.49 276.395 383.515 279.947 384.945 283.947L397.279 318.821C386.61 324.889 377.877 333.774 371.52 345.028L341.132 328.521C337.647 326.611 328 331 324 332C321.5 338.32 323.401 373.832 325.952 398.733C326.353 402.555 329.095 406.667 332.53 408.517L362.917 425.024C366.242 441.568 372.205 458.433 380.524 474.793L362.471 493.16C360.416 495.251 360.574 499.432 362.891 503.197C378.285 528.39 397.285 550.916 417.647 569.051C420.846 571.92 424.599 572.443 426.654 570.352L444.708 551.985C458.738 562.424 473.434 570.405 488.074 575.548L500.408 610.422C501.838 614.423 505.227 617.765 508.674 618.489C530.856 623.417 552.149 622.794 570.814 616.161C573.585 615.013 574.61 611.521 573.18 607.52ZM449.7 475.55C427.587 448.955 422.759 413.903 438.941 397.44C455.124 380.977 486.298 389.225 508.411 415.82C530.524 442.415 535.352 477.467 519.17 493.93C502.988 510.393 471.814 502.145 449.7 475.55Z" fill="#A094E3"/>
<path d="M561.308 611.645L548.974 576.771C559.643 570.704 568.376 561.819 574.733 550.565L605.121 567.072C608.605 568.982 611.837 568.143 613.016 565.162C620.513 545.179 622.852 521.76 620.3 496.86C619.899 493.037 617.158 488.925 613.723 487.076L583.336 470.569C580.011 454.025 574.048 437.159 565.728 420.799L583.745 402.47C585.8 400.379 585.642 396.198 583.325 392.433C567.931 367.239 548.931 344.714 528.569 326.579C525.371 323.71 521.617 323.187 519.562 325.278L501.509 343.645C487.478 333.206 472.782 325.225 458.142 320.082L445.858 285.268C444.428 281.268 441.039 277.925 437.593 277.201C415.41 272.273 394.118 272.896 375.452 279.529C372.618 280.52 371.643 284.072 373.073 288.072L385.407 322.946C374.737 329.014 366.004 337.899 359.647 349.153L329.26 332.646C325.775 330.736 322.544 331.574 321.365 334.555C313.867 354.539 311.529 377.958 314.08 402.858C314.481 406.68 317.223 410.793 320.657 412.642L351.045 429.149C354.37 445.693 360.332 462.558 368.652 478.918L350.599 497.285C348.544 499.376 348.701 503.557 351.019 507.322C366.412 532.515 385.413 555.041 405.775 573.176C408.973 576.045 412.727 576.568 414.782 574.477L432.835 556.11C446.866 566.549 461.562 574.53 476.202 579.673L488.536 614.547C489.966 618.548 493.355 621.89 496.801 622.614C518.984 627.542 540.276 626.92 558.942 620.286C561.712 619.138 562.738 615.646 561.308 611.645ZM437.828 479.675C415.715 453.08 410.887 418.028 427.069 401.565C443.251 385.102 474.426 393.35 496.539 419.945C518.652 446.54 523.48 481.592 507.298 498.055C491.116 514.518 459.941 506.27 437.828 479.675Z" fill="#310686"/>
<circle r="57" transform="matrix(0.93358 0.358368 0 1 467.066 449.723)" fill="white"/>
<circle r="57" transform="matrix(0.93358 0.358368 0 1 467.066 449.723)" fill="white"/>
<circle r="57" transform="matrix(0.93358 0.358368 0 1 467.066 449.723)" fill="#A094E3"/>
<ellipse rx="48.9365" ry="52.4386" transform="matrix(0.93358 0.358368 0 1 474.686 448.976)" fill="white"/>
<ellipse rx="48.9365" ry="52.4386" transform="matrix(0.93358 0.358368 0 1 474.686 448.976)" fill="white"/>
<ellipse rx="48.9365" ry="52.4386" transform="matrix(0.93358 0.358368 0 1 474.686 448.976)" fill="#4508BD"/>
<circle r="28.5246" transform="matrix(0.758542 0.874126 -0.544229 0.603599 607.721 665.323)" stroke="#A094E3" stroke-width="7"/>
<path d="M621.671 646.062L625.022 649.924C625.022 649.924 616.007 659.922 612.401 663.921C610.899 665.588 613.111 668.817 611.909 670.15C610.701 671.49 607.9 668.913 606.692 670.253C602.184 675.253 595.573 682.585 595.573 682.585L592.223 678.723C592.223 678.723 599.435 670.725 603.341 666.392C604.61 664.984 602.263 661.905 603.532 660.497C604.734 659.164 607.682 661.578 609.05 660.06C613.257 655.394 621.671 646.062 621.671 646.062Z" fill="#A094E3"/>
<rect width="4.41718" height="54.1105" transform="matrix(0.544229 -0.603599 0.758542 0.874126 586.415 643.49)" fill="#A094E3"/>
<circle r="28.5246" transform="matrix(0.758542 0.874126 -0.544229 0.603599 605.841 666.642)" stroke="#310686" stroke-width="7"/>
<path d="M619.791 647.38L623.142 651.242C623.142 651.242 614.127 661.24 610.521 665.239C609.019 666.906 611.231 670.135 610.029 671.468C608.821 672.808 606.02 670.231 604.812 671.571C600.304 676.571 593.693 683.903 593.693 683.903L590.343 680.042C590.343 680.042 597.555 672.043 601.461 667.71C602.73 666.303 600.383 663.223 601.653 661.815C602.855 660.482 605.802 662.896 607.17 661.378C611.378 656.712 619.791 647.38 619.791 647.38Z" fill="#310686"/>
<rect width="4.41718" height="54.1105" transform="matrix(0.544229 -0.603599 0.758542 0.874126 584.535 644.808)" fill="#310686"/>
<circle r="2.20859" transform="matrix(0.918469 0.53176 -0.167291 0.919597 605.841 666.642)" fill="white"/>
<path fill-rule="evenodd" clip-rule="evenodd" d="M423.255 531.96C427.264 528.458 429.978 523.322 429.524 516.226C428.218 495.78 402.299 490.218 397.257 498.349C392.215 506.48 392.814 532.243 399.33 536.544C401.929 538.259 407.465 538.626 413.099 537.151L409.563 562.593L430.444 570.608L423.255 531.96Z" fill="#B28B67"/>
<path fill-rule="evenodd" clip-rule="evenodd" d="M438.628 513.082C439.303 512.625 439.671 511.744 439.989 510.896C440.319 510.015 440.641 509.12 440.86 508.155C441.298 506.227 441.303 503.818 439.907 501.654C438.787 499.919 437.107 498.689 435.557 497.967C434.524 497.485 433.463 497.233 432.472 497.202C431.49 497.17 430.643 497.535 429.691 497.597C429.654 495.324 429.293 492.822 428.223 490.482C427.194 488.231 425.552 486.56 423.683 485.567C421.764 484.547 419.87 484.301 418.152 484.637C417.722 484.721 417.296 484.818 416.888 484.957C416.547 485.074 416.192 485.235 415.791 485.182C415.345 485.123 415.123 484.762 414.833 484.301C414.493 483.762 414.11 483.254 413.704 482.779C411.91 480.678 409.556 479.194 407.478 479.243C406.521 479.265 405.59 479.57 404.94 480.234C404.361 480.825 403.948 481.957 403.149 482.217C402.81 482.328 402.57 481.917 402.261 481.563C401.797 481.031 401.355 480.47 400.886 479.945C400.226 479.208 399.512 478.572 398.748 478.09C397.629 477.383 396.082 476.854 395.762 478.301C395.642 478.845 395.734 479.511 395.773 480.12C395.826 480.957 395.881 481.794 395.948 482.634C395.998 483.272 396.061 483.894 396.17 484.543C396.228 484.889 396.41 485.563 396.281 485.837C396.119 486.18 395.371 485.663 395.052 485.554C394.421 485.34 393.787 485.215 393.204 485.28C392.751 485.33 392.276 485.477 392.085 485.959C391.968 486.255 391.999 486.617 392.054 486.989C392.121 487.436 392.045 487.63 391.995 488.036C391.148 487.263 388.211 485.143 387.842 486.628C387.719 487.122 387.999 487.842 388.212 488.381C388.587 489.326 389.079 490.247 389.581 491.138C390.629 492.997 391.88 494.734 393.227 496.326C391.649 496.471 391.238 498.529 392.603 500.373C393.206 501.187 394.017 501.628 394.777 501.882C395.056 501.976 395.457 502.015 395.676 502.151C395.794 502.224 395.92 502.38 396.083 502.454C397.157 502.945 398.368 503.133 399.418 503.281C401.287 503.544 403.057 503.275 404.503 502.384C404.873 502.156 405.18 502.06 405.679 502.257C406.116 502.43 406.545 502.723 406.982 502.903C408.138 503.378 409.18 503.173 410.254 503.182C410.32 504.761 410.733 506.63 411.326 508.255C411.81 509.581 412.82 510.134 413.813 510.615C416.987 512.153 420.173 513.019 423.351 514.244C420.274 513.808 417.095 512.895 414.045 512.601C412.667 512.468 413.72 513.867 414.309 514.783C415.279 516.291 416.001 517.976 416.502 519.651C418.007 518.127 420.667 517.764 423.024 519.314C425.628 521.027 427.462 525.503 425.797 527.576C424.83 528.779 423.084 528.717 421.631 528.836C422.765 530.533 423.039 532.502 423.721 534.334C424.057 535.237 424.529 536.294 425.282 536.853C425.56 537.06 425.887 537.193 426.106 537.521C426.378 537.926 426.443 538.287 426.79 538.679C428.177 540.244 430.342 540.996 431.571 540.12C432.682 539.328 432.393 537.289 431.465 535.698C432.942 535.605 435.633 535.79 435.046 533.1C438.247 534.101 446.018 531.523 441.722 525.811C444.08 525.289 446.246 522.632 444.732 518.976C443.566 516.161 440.854 514.061 438.628 513.082Z" fill="#191847"/>
<path fill-rule="evenodd" clip-rule="evenodd" d="M454.287 693.132L389.808 668.381L381.001 772.562L468 817L482 812L454.287 693.132Z" fill="#A094E3"/>
<path fill-rule="evenodd" clip-rule="evenodd" d="M441.287 699.151L376.808 674.399L368.001 778.581L468.057 816.989L441.287 699.151Z" fill="#191847"/>
<path fill-rule="evenodd" clip-rule="evenodd" d="M441.287 699.151L424.016 692.521L410.978 795.078L468.057 816.989L441.287 699.151Z" fill="#310686"/>
<path fill-rule="evenodd" clip-rule="evenodd" d="M324.338 626.574C317.172 619.214 305.148 620.52 305.156 627.116C305.181 646.85 321.986 746.261 322.864 752.474C323.741 758.688 333.14 763.848 333.688 756.649C334.558 745.193 336.177 705.001 334.558 685.488C333.889 677.434 333.17 669.731 332.461 662.834C341.279 683.276 354.917 712.934 373.375 751.805L383.395 750.748C375.526 719.959 369.074 697.879 364.039 684.507C355.417 661.61 347.332 641.734 343.929 634.519C338.577 623.171 329.261 622.838 324.338 626.574Z" fill="#B28B67"/>
<path fill-rule="evenodd" clip-rule="evenodd" d="M382.678 735.052L348.287 634.585C340.048 617.226 316.949 625.444 319.758 634.756C326.137 655.897 358.578 728.866 360.478 735.165L382.678 735.052Z" fill="#2C2F78"/>
<path fill-rule="evenodd" clip-rule="evenodd" d="M384.588 745.703C386.73 748.415 388.124 750.493 388.769 751.937C389.553 753.693 390.472 756.31 391.524 759.786C389.948 760.156 375.782 763.478 349.026 769.754C345.814 765.293 345.313 762.596 347.524 761.661C349.736 760.727 351.561 759.923 352.999 759.251L367.668 743.234C367.95 742.926 368.494 743.042 368.883 743.493C368.889 743.501 368.896 743.509 368.903 743.517L371.95 747.201C374.746 748.013 376.833 748.257 378.21 747.934C379.329 747.672 380.613 746.725 382.063 745.094L382.063 745.094C382.619 744.468 383.706 744.688 384.489 745.585C384.523 745.623 384.556 745.663 384.588 745.703Z" fill="black"/>
<path fill-rule="evenodd" clip-rule="evenodd" d="M335.888 752.763C336.861 755.92 337.348 758.19 337.348 759.571C337.348 761.252 337.087 763.604 336.564 766.628C334.744 765.929 318.386 759.65 287.491 747.79C286.216 742.785 286.952 740.63 289.7 741.324C292.447 742.019 294.73 742.57 296.547 742.977L319.355 740.841C319.794 740.8 320.309 741.209 320.504 741.754C320.508 741.763 320.511 741.773 320.514 741.782L321.98 746.154C324.524 748.402 326.59 749.831 328.181 750.441C329.473 750.937 331.257 751.063 333.533 750.819L333.533 750.819C334.407 750.725 335.44 751.533 335.84 752.622C335.858 752.669 335.874 752.716 335.888 752.763Z" fill="black"/>
<path fill-rule="evenodd" clip-rule="evenodd" d="M302.746 632.896C302.746 657.655 313.723 719.622 313.73 725.076L337.348 734.162C333.891 681.302 332.666 654.788 333.671 654.618C335.179 654.365 395.489 684.798 413.577 691.741C439.66 701.754 450.45 688.277 451.325 655.976L399.656 636.142C389.136 633.31 334.261 624.101 313.881 620.353C305.156 618.749 302.746 626.075 302.746 632.896Z" fill="#3E44B8"/>
<path fill-rule="evenodd" clip-rule="evenodd" d="M391.607 574.992L361.408 545.683C356.386 537.367 351.438 530.507 346.563 525.101C345.074 523.864 342.47 522.461 344.905 528.026C347.341 533.592 349.709 539.489 348.468 540.439C347.227 541.39 344.133 538.209 342.652 540.011C341.665 541.212 346.952 545.738 358.511 553.588L380.455 583.532L391.607 574.992ZM344.309 571.784L331.044 558.886C329.183 550.586 326.958 545.914 324.369 544.873C322.38 543.119 325.844 554.034 322.074 551.756C318.304 549.477 309.103 538.616 307.518 539.495C305.172 540.797 307.264 548.36 309.728 552.669C314.333 560.723 318.146 564.336 327.571 570.768C332.498 574.132 337.826 579.127 343.554 585.753L344.309 571.784Z" fill="#997659"/>
<path fill-rule="evenodd" clip-rule="evenodd" d="M406.314 576.691C395.737 572.511 381.631 564.703 366.581 548.692L360.67 560.543C371.051 575.564 385.649 590.234 398.413 594.75C408.471 598.308 413.612 587.249 406.314 576.691Z" fill="#212353"/>
<path fill-rule="evenodd" clip-rule="evenodd" d="M392.071 593.866C380.842 592.555 362.01 581.789 335.577 561.567C329.021 573.58 325.99 582.774 326.485 589.151C349.16 610.543 368.595 623.661 384.607 630.18C384.098 640.162 385.255 650.289 389.139 660.629C397.126 681.884 443.891 682.99 459.615 692.341C469.461 661.867 450.422 640.639 450.407 618.715C450.39 594.707 432.398 550.856 429.751 549.839L405.61 540.573C404.278 558.392 397.573 576.02 392.071 593.866Z" fill="#3E44B8"/>
<path d="M391.214 653.347C391.84 653.347 392.522 653.691 393.118 654.235L399.89 660.415C401.277 661.68 401.847 663.698 401.162 664.921L399.183 668.458C398.498 669.681 396.819 669.646 395.431 668.38L387.213 660.881C385.826 659.615 385.256 657.599 385.941 656.376C386.14 656.019 386.364 655.619 386.612 655.175C387.501 653.588 389.864 653.348 391.214 653.347Z" fill="#FFCD00"/>
<rect width="6.16667" height="16.1875" transform="matrix(0.837181 0.763917 -0.41316 0.738145 401.346 643.691)" fill="#1E005A"/>
<rect width="5.78125" height="8.47917" transform="matrix(0.837181 0.763917 -0.41316 0.738145 390.647 623.614)" fill="#1E005A"/>
<path d="M386.231 623.667L390.01 624.752L387.94 628.451L385.673 624.663L386.231 623.667Z" fill="white"/>
<path d="M395.806 627.462L416.251 646.118C416.251 646.118 417.747 647.483 416.951 648.905C416.155 650.328 415.199 652.034 414.403 653.457C413.607 654.88 412.111 653.514 412.111 653.514L391.666 634.858L395.806 627.462Z" fill="#310686"/>
<path d="M397.821 645.633C398.261 644.848 399.34 644.87 400.231 645.683L398.32 649.097C397.429 648.284 397.063 646.988 397.503 646.202L397.821 645.633Z" fill="#1E005A"/>
<path d="M413.436 672.849C414.652 674.611 415.287 675.532 416.005 676.573C414.575 677.444 415.587 680.666 414.922 681.865C414.107 683.335 412.398 683.679 410.658 682.912C410.471 682.83 413.335 679.987 410.825 677.865C408.315 675.744 407.678 680.326 407.508 680.051C406.368 678.202 406.058 676.023 406.873 674.554C407.961 672.591 411.209 673.918 413.436 672.849Z" fill="#310686"/>
<rect width="25.2103" height="3.92346" transform="matrix(0.658589 -0.455957 0.66169 0.959443 409.973 675.188)" fill="#310686"/>
<path d="M433.071 662.031C434.688 664.375 434.694 667.179 433.085 668.293C431.476 669.407 429.339 667.336 427.964 668.288C427.274 667.287 426.279 665.845 425.368 664.524C426.385 663.819 425.47 661.021 427.23 659.803C428.839 658.689 431.454 659.686 433.071 662.031Z" fill="#310686"/>
<path d="M428.252 661.462L430.711 661.712L432.534 664.355L431.898 666.748L429.439 666.498L427.616 663.855L428.252 661.462Z" fill="#3E44B8"/>
<path d="M374.175 631.065C374.175 631.065 427.856 680.171 439.993 691.33C440.459 691.759 444.194 686.943 444.194 686.943L384.445 633.007L374.175 631.065Z" fill="#3F1D0A"/>
<path d="M384.867 653.985C383.731 655.959 384.586 659.228 386.798 661.37L396.567 670.829C398.754 672.947 401.405 673.13 402.588 671.234C404.186 668.673 406.379 665.155 408.028 662.508C409.297 660.473 408.33 656.957 405.911 654.805L395.792 645.803C393.505 643.768 390.773 643.725 389.633 645.706L384.867 653.985Z" fill="#3F1D0A"/>
<defs>
<filter id="filter0_d" x="54" y="0.491455" width="684" height="932.448" filterUnits="userSpaceOnUse" color-interpolation-filters="sRGB">
<feFlood flood-opacity="0" result="BackgroundImageFix"/>
<feColorMatrix in="SourceAlpha" type="matrix" values="0 0 0 0 0 0 0 0 0 0 0 0 0 0 0 0 0 0 127 0"/>
<feOffset/>
<feGaussianBlur stdDeviation="30"/>
<feColorMatrix type="matrix" values="0 0 0 0 0 0 0 0 0 0 0 0 0 0 0 0 0 0 0.25 0"/>
<feBlend mode="normal" in2="BackgroundImageFix" result="effect1_dropShadow"/>
<feBlend mode="normal" in="SourceGraphic" in2="effect1_dropShadow" result="shape"/>
</filter>
</defs>
</svg>
