<?xml version="1.0" encoding="UTF-8" standalone="no"?>
<svg
   width="817"
   height="933"
   viewBox="0 0 817 933"
   fill="none"
   xmlns="http://www.w3.org/2000/svg">
  <path
     id="svg-sluzby-sprava-bg-shape"
     d="M817 392.247C817 675.249 686.922 763.124 595.378 783.47C474.861 810.256 261.103 677.455 177.929 623.868C150.027 605.891 0 511.67 0 307.368C0 8.90408 261 213.774 434 144.116C756.5 14.2641 817 93.7841 817 392.247Z"
     fill="#5C09FF" />
  <g
     id="svg-sluzby-sprava-content"
     class="svg-sluzby-content">
    <path
       d="M128.49 62.3031C136.31 59.5001 145.598 59.9591 155.112 63.6181L631.354 246.788C657.121 256.699 678 287.094 678 314.694V837.729C678 865.344 657.101 879.707 631.321 869.811L166.989 691.57C141.43 681.76 120.625 651.757 120.313 624.263L114 67.4981L128.49 62.3031Z"
       fill="#A094E3"
       id="path1449" />
    <path
       d="M619.672 252.404L141.679 68.9185C115.899 59.0224 95 73.3858 95 101V624C95 651.614 115.899 682.022 141.679 691.919L619.672 875.404C645.452 885.3 666.351 870.937 666.351 843.322V320.322C666.351 292.708 645.452 262.3 619.672 252.404Z"
       fill="white"
       filter="url(#shadow-1)"
       id="path1451" />
    <path
       d="M94.5668 423.734C94.5668 423.734 93.6337 423.375 92.6998 421.017C91.7667 418.659 91.7667 408.659 92.6998 407.017C93.6337 405.376 94.5668 405.734 94.5668 405.734V402.734L245.807 460.789V481.789L94.5668 423.734ZM265.413 468.315C265.413 479.913 256.635 485.946 245.807 481.789V303.789L265.413 311.315V468.315Z"
       fill="#191847"
       id="path1453" />
    <path
       d="M248.608 461.865C248.608 463.521 247.354 464.383 245.808 463.789L243.474 462.893V459.893L245.808 460.789L248.608 461.865Z"
       fill="white"
       id="path1455" />
    <path
       d="M245 303.5L248.5 304L248.608 461.865L245 457.5V303.5ZM94.5669 402L245 459.5L243.94 463.073L94.5669 405.734V402Z"
       fill="white"
       id="path1457" />
    <path
       d="M265.413 313L245.808 304.5V217.325L265.413 224.399V313Z"
       fill="#191847"
       id="path1459" />
    <path
       d="M245.808 196.789C256.636 200.946 265.413 213.717 265.413 225.315L182.324 193.42V172.42L245.808 196.789Z"
       fill="#191847"
       id="path1461" />
    <path
       d="M246.17 215.765C247.732 216.393 249 218.322 249 220.074V222.189L244.5 218.902L246.17 215.765ZM182 194V190L246.17 215.765V218.902L182 194ZM244 309.5L244.5 218.902L249 222.189L248.5 309.619L244 309.5Z"
       fill="white"
       id="path1463" />
    <path
       d="M246 283V265L249 266V284L246 283Z"
       fill="#35337A"
       id="path1465" />
    <path
       d="M152.448 73.2596C152.448 73.2596 152.914 72.4396 154.315 71.9766C155.715 71.5136 168.499 74.4128 169.499 80.4127C171.366 82.1297 171.999 81.4128 171.999 81.4128L171.738 166.413L152.448 158.913V73.2596Z"
       fill="#191847"
       id="path1467" />
    <path
       d="M165 67.7499C165 67.7499 165.467 66.9299 166.867 66.4669C168.268 66.0039 178.07 69.7669 179.937 71.4839C181.804 73.2009 181.804 74.2009 181.804 74.2009L165 67.7499Z"
       fill="#A094E3"
       id="path1469" />
    <path
       d="M172.055 186.479C161.227 182.322 152.45 169.551 152.45 157.953L235.538 189.848V210.848L172.055 186.479Z"
       fill="#191847"
       id="path1471" />
    <path
       d="M171.813 167.592C170.259 166.996 169 165.167 169 163.506V161L171.813 162.078V167.592ZM319 220.992V224L171.813 167.591V164.583L319 220.992Z"
       fill="white"
       stroke="white"
       stroke-width="0.4"
       id="path1473" />
    <path
       d="M173 80.489V161.95L169 162V79L173 80.489Z"
       fill="white"
       id="path1475" />
    <path
       d="M442.793 523.405L423.188 515.879V353.879L442.793 361.405V523.405Z"
       fill="#35337A"
       id="path1477" />
    <path
       d="M423.188 332.88C434.015 337.036 442.793 349.807 442.793 361.405L265 293.154V272L423.188 332.88Z"
       fill="#35337A"
       id="path1479" />
    <path
       d="M423.188 350.879C424.734 351.473 425.988 353.298 425.988 354.955V357.455L423.188 356.379V350.879ZM264.5 293.5L265 290L423.188 350.879V354.769L264.5 293.5Z"
       fill="white"
       id="path1481" />
    <path
       d="M423.188 515.88V355.88L425.988 356.955V516.955L423.188 515.88Z"
       fill="white"
       id="path1483" />
    <path
       d="M248.608 265.865V286.865L196.328 266.796V245.796L248.608 265.865ZM176.722 259.271C176.722 247.673 185.5 241.64 196.327 245.796V334.796L176.722 327.271V259.271Z"
       fill="#35337A"
       id="path1485" />
    <path
       d="M193.527 265.721C193.527 264.064 194.781 263.202 196.328 263.796L198.195 264.513L198.5 269.5H195L193.527 265.721Z"
       fill="white"
       id="path1487" />
    <path
       d="M197 336.5L193.528 333.721V265.721L197 267.5V336.5ZM248.608 287.5L197.5 268L197 264L248.608 283.865V287.5Z"
       fill="white"
       id="path1489" />
    <path
       d="M94.5668 327.734C94.5668 327.734 93.6337 327.375 92.6998 325.017C91.7667 322.659 91.7667 312.659 92.6998 311.017C93.6337 309.375 94.5668 309.734 94.5668 309.734V306.734L173.922 337.195V358.195L94.5668 327.734ZM193.527 344.721C193.527 356.319 184.749 362.352 173.922 358.195V269.195L193.527 276.721V344.721Z"
       fill="#35337A"
       id="path1491" />
    <path
       d="M176.722 338.27C176.722 339.927 175.468 340.789 173.921 340.195L171.587 339.299V336.299L173.921 337.195L176.722 338.27Z"
       fill="white"
       id="path1493" />
    <path
       d="M172.5 254L176.721 255.5V338.27L173.5 337.5L172.5 254ZM94.5669 306L173.488 336.5L173.5 337.5L172.055 339.479L94.5669 309.734V306Z"
       fill="white"
       id="path1495" />
    <path
       d="M613.638 872.987L594.033 865.461L594 274.5L613.638 281.5V872.987Z"
       fill="#191847"
       id="path1497" />
    <path
       d="M624.841 877.287C624.841 877.287 624.841 878.287 622.974 878.57C621.107 878.853 589.365 866.669 587.498 864.952C585.631 863.235 585.631 862.235 585.631 862.235C585.631 856.713 589.811 853.84 594.967 855.819L615.506 863.703C620.662 865.682 624.841 871.764 624.841 877.287ZM594.033 254.461C604.861 258.617 613.638 271.389 613.638 282.987L447.461 219.197V198.197L594.033 254.461Z"
       fill="#191847"
       id="path1499" />
    <path
       d="M594.033 272.461C595.58 273.055 596.834 274.879 596.834 276.536V279.036L592 278L594.033 272.461ZM447 219.5V216L594.033 272.461L594 277L447 219.5Z"
       fill="white"
       id="path1501" />
    <path
       d="M592.5 855L593 277L596.833 277.5V856.536L592.5 855Z"
       fill="white"
       id="path1503" />
    <path
       d="M447.461 198.197V219.197L367.173 188.377V167.377L447.461 198.197ZM347.568 180.852C347.568 169.254 356.345 163.221 367.173 167.377V256.377L347.568 248.852V180.852Z"
       fill="#191847"
       id="path1505" />
    <path
       d="M364.372 187.302C364.372 185.645 365.626 184.784 367.173 185.377L369.04 186.094L372.5 189L369 191L364.372 189.357V187.302Z"
       fill="white"
       id="path1507" />
    <path
       d="M369.041 257H364.373V186.798L368 188L369.041 257ZM449.5 222L368.038 190.5L368.5 186L449.5 217V222Z"
       fill="white"
       id="path1509" />
    <path
       d="M265 249V229L344.767 258.777V279.777L265 249ZM364.372 266.302C364.372 277.9 355.595 283.933 344.767 279.777V190.777L364.372 198.302V266.302Z"
       fill="#191847"
       id="path1511" />
    <path
       d="M347.568 259.852C347.568 261.509 346.314 262.37 344.767 261.777L342.433 260.881L340.5 257.5L347.5 256L347.568 259.852Z"
       fill="white"
       id="path1513" />
    <path
       d="M344 176.203L347.567 177.218V259.852L344 258.5V176.203ZM265.5 227L342.9 256.5V261.06L265.413 231.315L265.5 227Z"
       fill="white"
       id="path1515" />
    <path
       d="M370.907 529.811V508.811L522.147 566.867V587.867L370.907 529.811ZM541.752 574.392C541.752 585.99 532.975 592.023 522.147 587.867V409.867L541.752 417.392V574.392Z"
       fill="#191847"
       id="path1517" />
    <path
       d="M524.948 567.942C524.948 569.599 523.694 570.46 522.147 569.867L519.813 568.971V565.971L522.147 566.867L524.948 567.942Z"
       fill="white"
       id="path1519" />
    <path
       d="M522.147 409.867L524.947 410.942V567.942L522.147 566.867V409.867ZM370.907 508.811L520.28 566.15V569.15L370.907 511.81V508.811Z"
       fill="white"
       id="path1521" />
    <path
       d="M541.752 417.392L522.147 409.866V323.866L541.752 331.392V417.392Z"
       fill="#191847"
       id="path1523" />
    <path
       d="M522.147 302.867C532.975 307.023 541.752 319.794 541.752 331.392L458.664 299.498V278.498L522.147 302.867Z"
       fill="#191847"
       id="path1525" />
    <path
       d="M522.147 320.867C523.694 321.46 524.948 323.285 524.948 324.942V326.942L522.147 325.867V320.867ZM458.664 301V296.498L522.147 320.867V325.5L458.664 301ZM522.147 409.867V325.867L524.948 326.942L524.947 410.942L522.147 409.867Z"
       fill="white"
       id="path1527" />
    <path
       d="M428.789 179.03C428.789 179.03 428.789 178.03 430.656 177.747C432.523 177.463 441.859 181.047 443.726 182.764C445.594 184.481 445.594 185.481 445.594 185.481L448.394 186.556V272.345L428.789 265.135V179.03Z"
       fill="#191847"
       id="path1529" />
    <path
       d="M441 173.75C441 173.75 441 172.75 442.867 172.467C444.734 172.183 454.07 175.767 455.937 177.484C457.804 179.201 457.804 180.201 457.804 180.201L441 173.75Z"
       fill="#A094E3"
       id="path1531" />
    <path
       d="M448.394 292.556C437.567 288.399 428.789 275.628 428.789 264.03L511.878 295.925V316.925L448.394 292.556Z"
       fill="#191847"
       id="path1533" />
    <path
       d="M448.394 274.556C446.848 273.962 445.594 272.137 445.594 270.48V267.98L448.394 269.056V274.556ZM594.966 322V330.819L448.394 274.555V270.295L594.966 322Z"
       fill="white"
       id="path1535" />
    <path
       d="M451 217.5L449.5 270L445.593 269.5V215.481L451 217.5ZM449.5 187L452 200L445.593 197.481V185.481L449.5 187Z"
       fill="white"
       id="path1537" />
    <path
       d="M289.686 125.633C289.686 125.633 289.686 124.633 291.553 124.349C293.42 124.066 302.756 127.65 304.623 129.366C306.49 131.083 306.49 132.083 306.49 132.083L309.291 133.158V513.158L289.686 505.633V125.633Z"
       fill="#35337A"
       id="path1539" />
    <path
       d="M303 120.75C303 120.75 303 119.75 304.868 119.467C306.735 119.184 316.071 122.767 317.938 124.484C319.805 126.201 319.805 127.201 319.805 127.201L303 120.75Z"
       fill="#A094E3"
       id="path1541" />
    <path
       d="M309.291 534.158C298.463 530.002 289.686 517.231 289.686 505.633L455.863 569.422V590.422L309.291 534.158Z"
       fill="#35337A"
       id="path1543" />
    <path
       d="M309.291 516.158C307.744 515.565 306.49 513.74 306.49 512.083V509.583L309.291 510.658V516.158ZM455.863 568V572.422L309.291 516.158V512.216L455.863 568Z"
       fill="white"
       id="path1545" />
    <path
       d="M312 308L310.5 511.5L306.491 510.083V306.083L312 308ZM310.5 133.5L314 250L306.491 247.083V132.083L310.5 133.5ZM317 269L313 290.5L306.491 288.083V265.083L317 269Z"
       fill="white"
       id="path1547" />
    <path
       d="M309.291 248.158V266.158L306.491 265.083V247.083L309.291 248.158Z"
       fill="#191847"
       id="path1549" />
    <path
       d="M453.5 589.5V569L536.151 600.242V621.242L453.5 589.5ZM555.756 607.768C555.756 619.366 546.978 625.398 536.151 621.242V532.242L555.756 539.768V607.768Z"
       fill="#35337A"
       id="path1551" />
    <path
       d="M538.952 601.317C538.952 602.974 537.698 603.836 536.151 603.242L534.284 602.525V599.525L536.406 600.34L538.952 601.317Z"
       fill="white"
       id="path1553" />
    <path
       d="M534.283 531.5L538.951 533.317V601.317L533.5 599L534.283 531.5ZM454 566.5L534.283 597V602.525L445.5 568.5L454 566.5Z"
       fill="white"
       id="path1555" />
    <path
       d="M665.918 550.055C665.918 550.055 665.919 549.055 667.786 552.772C669.653 556.489 669.653 564.488 667.786 566.772C665.919 569.055 665.918 568.055 665.918 568.055V571.055L558.557 529.843V508.843L665.918 550.055Z"
       fill="#35337A"
       id="path1557" />
    <path
       d="M678 546.16C678 546.16 678.001 545.16 679.868 548.877C681.735 552.594 681.735 560.594 679.868 562.877C678.001 565.16 678 564.16 678 564.16V546.16Z"
       fill="#A094E3"
       id="path1559" />
    <path
       d="M538.951 522.317C538.951 510.719 547.729 504.686 558.556 508.843V597.843L538.951 590.317V522.317Z"
       fill="#35337A"
       id="path1561" />
    <path
       d="M555.756 528.768C555.756 527.111 557.01 526.249 558.557 526.843L560.891 527.739V530.739L558.557 529.843L555.756 528.768Z"
       fill="white"
       id="path1563" />
    <path
       d="M665.918 573L560.424 532.5V527.559L665.918 568.055V573Z"
       fill="white"
       id="path1565" />
    <path
       d="M263.545 485.599C280.56 492.13 294.353 482.651 294.353 464.425C294.353 446.2 280.56 426.13 263.545 419.599C246.53 413.067 232.737 422.547 232.737 440.773C232.737 458.998 246.53 479.067 263.545 485.599Z"
       fill="white"
       id="path1567" />
    <g
       id="svg-sluzby-sprava-cog-1">
      <path
         d="M359.784 521.534L345.551 503.146C348.844 495.817 350.563 487.305 350.624 478.04L355 484C362.5 481 371.711 478.291 371.5 476C369.901 460.769 365.114 444.062 357.768 428.917C356.636 426.595 354.378 424.842 352.372 424.763L334.584 423.971C328.947 414.402 322.122 405.585 314.27 397.731L317.818 380.171C318.223 378.168 317.111 375.537 315.131 373.87C301.93 362.676 287.77 354.354 274.09 349.287C271.937 348.478 262 353 257.5 354.5L266.157 368.951C257.243 366.779 248.641 366.398 240.771 367.817L226.576 349.452C224.937 347.348 222.579 346.296 220.847 346.943C209.635 350.931 198.751 354.231 192 364.5C190.971 366.049 192.87 372.602 194.51 374.707L208.742 393.094C205.45 400.424 203.73 408.935 203.67 418.2L185.882 417.408C183.5 418 176 421 170.5 423C172.099 438.231 189.179 452.178 196.526 467.323C197.658 469.645 199.915 471.398 201.922 471.478L219.709 472.27C225.347 481.838 232.172 490.655 240.023 498.51L236.468 516.106C236.064 518.108 237.175 520.739 239.156 522.406C287 548 249.5 559.5 281.5 547.5C283.5 546.5 284.169 546.923 284.574 544.92L288.129 527.325C297.043 529.497 305.645 529.879 313.516 528.459L323.5 550C325.139 552.104 331.745 550.002 333.477 549.356C344.689 545.367 354.119 538.106 360.87 527.837C361.831 526.208 361.423 523.638 359.784 521.534ZM271.351 476.702C254.777 466.774 243.879 445.854 247.066 430.082C250.252 414.31 266.338 409.553 282.912 419.48C299.486 429.408 310.384 450.329 307.198 466.1C304.011 481.872 287.925 486.63 271.351 476.702Z"
         fill="#A094E3"
         id="path1569" />
      <path
         d="M345.967 526.678L331.735 508.29C335.027 500.961 336.747 492.449 336.807 483.184L354.595 483.976C356.639 484.077 357.885 482.498 357.674 480.207C356.074 464.976 351.298 449.206 343.951 434.061C342.819 431.739 340.562 429.986 338.555 429.906L320.768 429.114C315.13 419.546 308.305 410.729 300.454 402.874L304.001 385.314C304.406 383.311 303.294 380.681 301.314 379.014C288.114 367.819 273.954 359.498 260.274 354.431C258.12 353.622 256.3 354.497 255.896 356.499L252.341 374.095C243.426 371.923 234.825 371.541 226.954 372.961L212.759 354.596C211.12 352.491 208.762 351.44 207.031 352.087C195.819 356.075 186.389 363.336 179.638 373.605C178.608 375.154 179.054 377.746 180.693 379.85L194.926 398.238C191.633 405.567 189.914 414.079 189.853 423.344L172.065 422.552C170.022 422.45 168.776 424.029 168.987 426.321C170.586 441.551 175.363 457.322 182.709 472.467C183.841 474.789 186.099 476.542 188.105 476.621L205.893 477.413C211.53 486.982 218.356 495.799 226.207 503.654L222.652 521.249C222.247 523.252 223.359 525.882 225.339 527.55C238.539 538.744 252.699 547.065 266.379 552.132C268.533 552.941 270.353 552.067 270.757 550.064L274.313 532.468C283.227 534.641 291.829 535.022 299.699 533.602L313.932 551.99C315.571 554.095 317.928 555.146 319.66 554.499C330.872 550.511 340.302 543.25 347.053 532.981C348.014 531.352 347.607 528.782 345.967 526.678ZM257.534 481.846C240.961 471.918 230.062 450.997 233.249 435.225C236.435 419.454 252.522 414.696 269.096 424.624C285.669 434.551 296.568 455.472 293.381 471.244C290.195 487.016 274.108 491.773 257.534 481.846Z"
         fill="#310686"
         id="path1571" />
      <path
         d="M263.545 485.599C280.56 492.13 294.353 482.651 294.353 464.425C294.353 446.2 280.56 426.13 263.545 419.599C246.53 413.067 232.737 422.547 232.737 440.773C232.737 458.998 246.53 479.067 263.545 485.599Z"
         fill="#A094E3"
         id="path1573" />
      <path
         d="M268.679 479.432C282.309 484.664 293.358 476.379 293.358 460.927C293.358 445.474 282.309 428.706 268.679 423.474C255.049 418.242 244 426.527 244 441.979C244 457.432 255.049 474.2 268.679 479.432Z"
         fill="#4508BD"
         id="path1575" />
    </g>
    <g
    id="svg-sluzby-sprava-cog-2">
      <path
         d="M573.18 607.52L560.846 572.646C571.515 566.579 580.249 557.694 586.606 546.44L610 568C618.5 564.5 623.709 564.018 624.888 561.037C632.386 541.053 634.724 517.635 632.173 492.735C631.772 488.912 629.03 484.8 625.596 482.951L595.208 466.444C591.883 449.9 585.92 433.034 577.601 416.674L595.617 398.344C597.672 396.254 597.515 392.073 595.197 388.308C579.804 363.114 560.803 340.589 540.441 322.453C537.243 319.585 533.5 319.5 530.5 321L520.5 324.5L513.381 339.519C499.35 329.081 484.654 321.1 470.014 315.956L457.73 281.143C456.301 277.143 452.912 273.8 449.465 273.076C427.282 268.148 405.99 268.771 387.324 275.404C384.49 276.395 383.515 279.947 384.945 283.947L397.279 318.821C386.61 324.889 377.877 333.774 371.52 345.028L341.132 328.521C337.647 326.611 328 331 324 332C321.5 338.32 323.401 373.832 325.952 398.733C326.353 402.555 329.095 406.667 332.53 408.517L362.917 425.024C366.242 441.568 372.205 458.433 380.524 474.793L362.471 493.16C360.416 495.251 360.574 499.432 362.891 503.197C378.285 528.39 397.285 550.916 417.647 569.051C420.846 571.92 424.599 572.443 426.654 570.352L444.708 551.985C458.738 562.424 473.434 570.405 488.074 575.548L500.408 610.422C501.838 614.423 505.227 617.765 508.674 618.489C530.856 623.417 552.149 622.794 570.814 616.161C573.585 615.013 574.61 611.521 573.18 607.52ZM449.7 475.55C427.587 448.955 422.759 413.903 438.941 397.44C455.124 380.977 486.298 389.225 508.411 415.82C530.524 442.415 535.352 477.467 519.17 493.93C502.988 510.393 471.814 502.145 449.7 475.55Z"
         fill="#A094E3"
         id="path1577" />
      <path
         d="M561.308 611.645L548.974 576.771C559.643 570.704 568.376 561.819 574.733 550.565L605.121 567.072C608.605 568.982 611.837 568.143 613.016 565.162C620.513 545.179 622.852 521.76 620.3 496.86C619.899 493.037 617.158 488.925 613.723 487.076L583.336 470.569C580.011 454.025 574.048 437.159 565.728 420.799L583.745 402.47C585.8 400.379 585.642 396.198 583.325 392.433C567.931 367.239 548.931 344.714 528.569 326.579C525.371 323.71 521.617 323.187 519.562 325.278L501.509 343.645C487.478 333.206 472.782 325.225 458.142 320.082L445.858 285.268C444.428 281.268 441.039 277.925 437.593 277.201C415.41 272.273 394.118 272.896 375.452 279.529C372.618 280.52 371.643 284.072 373.073 288.072L385.407 322.946C374.737 329.014 366.004 337.899 359.647 349.153L329.26 332.646C325.775 330.736 322.544 331.574 321.365 334.555C313.867 354.539 311.529 377.958 314.08 402.858C314.481 406.68 317.223 410.793 320.657 412.642L351.045 429.149C354.37 445.693 360.332 462.558 368.652 478.918L350.599 497.285C348.544 499.376 348.701 503.557 351.019 507.322C366.412 532.515 385.413 555.041 405.775 573.176C408.973 576.045 412.727 576.568 414.782 574.477L432.835 556.11C446.866 566.549 461.562 574.53 476.202 579.673L488.536 614.547C489.966 618.548 493.355 621.89 496.801 622.614C518.984 627.542 540.276 626.92 558.942 620.286C561.712 619.138 562.738 615.646 561.308 611.645ZM437.828 479.675C415.715 453.08 410.887 418.028 427.069 401.565C443.251 385.102 474.426 393.35 496.539 419.945C518.652 446.54 523.48 481.592 507.298 498.055C491.116 514.518 459.941 506.27 437.828 479.675Z"
         fill="#310686"
         id="path1579" />
      <path
         d="M467.066 506.723C496.455 518.005 520.28 501.63 520.28 470.15C520.28 438.67 496.455 404.005 467.066 392.723C437.677 381.441 413.852 397.816 413.852 429.296C413.852 460.776 437.677 495.441 467.066 506.723Z"
         fill="#A094E3"
         id="path1581" />
      <path
         d="M474.686 501.415C499.918 511.101 520.373 495.475 520.373 466.514C520.373 437.552 499.918 406.223 474.686 396.537C449.454 386.851 429 402.477 429 431.439C429 460.4 449.454 491.729 474.686 501.415Z"
         fill="#4508BD"
         id="path1585" />
    </g>
    <path
       d="M592.197 682.541C604.147 696.312 620.785 699.767 629.358 690.258C637.932 680.749 635.195 661.876 623.245 648.105C611.295 634.334 594.658 630.88 586.084 640.389C577.51 649.898 580.247 668.77 592.197 682.541Z"
       stroke="#A094E3"
       stroke-width="6.78897"
       id="path1587" />
    <path
       d="M621.671 646.062L625.022 649.924L612.401 663.921C610.899 665.588 613.111 668.817 611.909 670.15C610.701 671.49 607.9 668.913 606.692 670.253L595.573 682.585L592.223 678.723L603.341 666.392C604.61 664.984 602.263 661.905 603.532 660.497C604.734 659.164 607.682 661.578 609.05 660.06L621.671 646.062Z"
       fill="#A094E3"
       id="path1589" />
    <path
       d="M586.415 643.49L588.819 640.824L629.864 688.124L627.46 690.79L586.415 643.49Z"
       fill="#A094E3"
       id="path1591" />
    <path
       d="M590.317 683.86C602.267 697.631 618.904 701.086 627.478 691.577C636.052 682.067 633.315 663.195 621.365 649.424C609.415 635.653 592.777 632.198 584.203 641.707C575.63 651.217 578.367 670.089 590.317 683.86Z"
       stroke="#310686"
       stroke-width="6.78897"
       id="path1593" />
    <path
       d="M619.791 647.38L623.142 651.242L610.521 665.239C609.019 666.906 611.231 670.135 610.029 671.468C608.821 672.808 606.02 670.231 604.812 671.571L593.693 683.903L590.343 680.042L601.461 667.71C602.73 666.303 600.383 663.223 601.653 661.815C602.855 660.482 605.802 662.896 607.17 661.378L619.791 647.38Z"
       fill="#310686"
       id="path1595" />
    <path
       d="M584.535 644.808L586.939 642.142L627.984 689.442L625.58 692.108L584.535 644.808Z"
       fill="#310686"
       id="path1597" />
    <path
       d="M605.471 668.673C606.592 669.322 607.666 668.939 607.87 667.817C608.074 666.695 607.331 665.259 606.211 664.611C605.09 663.962 604.016 664.346 603.812 665.467C603.608 666.589 604.351 668.025 605.471 668.673Z"
       fill="white"
       id="path1599" />
    <path
       fill-rule="evenodd"
       clip-rule="evenodd"
       d="M423.255 531.96C427.264 528.458 429.978 523.322 429.524 516.226C428.218 495.78 402.299 490.218 397.257 498.349C392.215 506.48 392.814 532.243 399.33 536.544C401.929 538.259 407.465 538.626 413.099 537.151L409.563 562.593L430.444 570.608L423.255 531.96Z"
       fill="#B28B67"
       id="path1601" />
    <path
       fill-rule="evenodd"
       clip-rule="evenodd"
       d="M438.628 513.082C439.303 512.625 439.671 511.744 439.989 510.896C440.319 510.015 440.641 509.12 440.86 508.155C441.298 506.227 441.303 503.818 439.907 501.654C438.787 499.919 437.107 498.689 435.557 497.967C434.524 497.485 433.463 497.233 432.472 497.202C431.49 497.17 430.643 497.535 429.691 497.597C429.654 495.324 429.293 492.822 428.223 490.482C427.194 488.231 425.552 486.56 423.683 485.567C421.764 484.547 419.87 484.301 418.152 484.637C417.722 484.721 417.296 484.818 416.888 484.957C416.547 485.074 416.192 485.235 415.791 485.182C415.345 485.123 415.123 484.762 414.833 484.301C414.494 483.767 414.117 483.258 413.704 482.779C411.91 480.678 409.556 479.194 407.478 479.243C406.521 479.265 405.59 479.57 404.94 480.234C404.361 480.825 403.948 481.957 403.149 482.217C402.81 482.328 402.57 481.917 402.261 481.563C401.797 481.031 401.355 480.47 400.886 479.945C400.226 479.208 399.512 478.572 398.748 478.09C397.629 477.383 396.082 476.854 395.762 478.301C395.642 478.845 395.734 479.511 395.773 480.12C395.826 480.957 395.881 481.794 395.948 482.634C395.998 483.272 396.061 483.894 396.17 484.543C396.228 484.889 396.41 485.563 396.281 485.837C396.119 486.18 395.371 485.663 395.052 485.554C394.421 485.34 393.787 485.215 393.204 485.28C392.751 485.33 392.276 485.477 392.085 485.959C391.968 486.255 391.999 486.617 392.054 486.989C392.121 487.436 392.045 487.63 391.995 488.036C391.148 487.263 388.211 485.143 387.842 486.628C387.719 487.122 387.999 487.842 388.212 488.381C388.587 489.326 389.079 490.247 389.581 491.138C390.629 492.997 391.88 494.734 393.227 496.326C391.649 496.471 391.238 498.529 392.603 500.373C393.206 501.187 394.017 501.628 394.777 501.882C395.056 501.976 395.457 502.015 395.676 502.151C395.794 502.224 395.92 502.38 396.083 502.454C397.157 502.945 398.368 503.133 399.418 503.281C401.287 503.544 403.057 503.275 404.503 502.384C404.873 502.156 405.18 502.06 405.679 502.257C406.116 502.43 406.545 502.723 406.982 502.903C408.138 503.378 409.18 503.173 410.254 503.182C410.32 504.761 410.733 506.63 411.326 508.255C411.81 509.581 412.82 510.134 413.813 510.615C416.987 512.153 420.173 513.019 423.351 514.244C420.274 513.808 417.095 512.895 414.045 512.601C412.667 512.468 413.72 513.867 414.309 514.783C415.279 516.291 416.001 517.976 416.502 519.651C418.007 518.127 420.667 517.764 423.024 519.314C425.628 521.027 427.462 525.503 425.797 527.576C424.83 528.779 423.084 528.717 421.631 528.836C422.765 530.533 423.039 532.502 423.721 534.334C424.057 535.237 424.529 536.294 425.282 536.853C425.56 537.06 425.887 537.193 426.106 537.521C426.378 537.926 426.443 538.287 426.79 538.679C428.177 540.244 430.342 540.996 431.571 540.12C432.682 539.328 432.393 537.289 431.465 535.698C432.942 535.605 435.633 535.79 435.046 533.1C438.247 534.101 446.018 531.523 441.722 525.811C444.08 525.289 446.246 522.632 444.732 518.976C443.566 516.161 440.854 514.061 438.628 513.082Z"
       fill="#191847"
       id="path1603" />
    <path
       fill-rule="evenodd"
       clip-rule="evenodd"
       d="M454.287 693.132L389.808 668.381L381.001 772.562L468 817L482 812L454.287 693.132Z"
       fill="#A094E3"
       id="path1605" />
    <path
       fill-rule="evenodd"
       clip-rule="evenodd"
       d="M441.287 699.151L376.808 674.399L368.001 778.581L468.057 816.989L441.287 699.151Z"
       fill="#191847"
       id="path1607" />
    <path
       fill-rule="evenodd"
       clip-rule="evenodd"
       d="M441.287 699.151L424.016 692.521L410.978 795.078L468.057 816.989L441.287 699.151Z"
       fill="#310686"
       id="path1609" />
    <path
       fill-rule="evenodd"
       clip-rule="evenodd"
       d="M324.338 626.574C317.172 619.214 305.148 620.52 305.156 627.116C305.181 646.85 321.986 746.261 322.864 752.474C323.741 758.688 333.14 763.848 333.688 756.649C334.558 745.193 336.177 705.001 334.558 685.488C333.932 677.93 333.233 670.378 332.461 662.834C341.279 683.276 354.917 712.934 373.375 751.805L383.395 750.748C375.526 719.959 369.074 697.879 364.039 684.507C355.417 661.61 347.332 641.734 343.929 634.519C338.577 623.171 329.261 622.838 324.338 626.574Z"
       fill="#B28B67"
       id="path1611" />
    <path
       fill-rule="evenodd"
       clip-rule="evenodd"
       d="M382.678 735.052L348.287 634.585C340.048 617.226 316.949 625.444 319.758 634.756C326.137 655.897 358.578 728.866 360.478 735.165L382.678 735.052Z"
       fill="#2C2F78"
       id="path1613" />
    <path
       fill-rule="evenodd"
       clip-rule="evenodd"
       d="M384.588 745.703C386.73 748.415 388.124 750.493 388.769 751.937C389.553 753.693 390.472 756.31 391.524 759.786L349.026 769.754C345.814 765.293 345.313 762.596 347.524 761.661C349.364 760.891 351.189 760.088 352.999 759.251L367.668 743.234C367.95 742.926 368.494 743.042 368.883 743.493L368.903 743.517L371.95 747.201C374.746 748.013 376.833 748.257 378.21 747.934C379.329 747.672 380.613 746.725 382.063 745.094C382.619 744.468 383.706 744.688 384.489 745.585C384.523 745.623 384.556 745.663 384.588 745.703ZM335.888 752.763C336.861 755.92 337.348 758.19 337.348 759.571C337.348 761.252 337.087 763.604 336.564 766.628L287.491 747.79C286.216 742.785 286.952 740.63 289.7 741.324C291.975 741.905 294.257 742.456 296.547 742.977L319.355 740.841C319.794 740.8 320.309 741.209 320.504 741.754L320.514 741.782L321.98 746.154C324.524 748.402 326.59 749.831 328.181 750.441C329.473 750.937 331.257 751.063 333.533 750.819C334.407 750.725 335.44 751.533 335.84 752.622C335.858 752.669 335.874 752.716 335.888 752.763Z"
       fill="black"
       id="path1615" />
    <path
       fill-rule="evenodd"
       clip-rule="evenodd"
       d="M302.746 632.896C302.746 657.655 313.723 719.622 313.73 725.076L337.348 734.162C333.891 681.302 332.666 654.788 333.671 654.618C335.179 654.365 395.489 684.798 413.577 691.741C439.66 701.754 450.45 688.277 451.325 655.976L399.656 636.142C389.136 633.31 334.261 624.101 313.881 620.353C305.156 618.749 302.746 626.075 302.746 632.896Z"
       fill="#3E44B8"
       id="path1617" />
    <path
       fill-rule="evenodd"
       clip-rule="evenodd"
       d="M391.607 574.992L361.408 545.683C356.386 537.367 351.438 530.507 346.563 525.101C345.074 523.864 342.47 522.461 344.905 528.026C347.341 533.592 349.709 539.489 348.468 540.439C347.227 541.39 344.133 538.209 342.652 540.011C341.665 541.212 346.952 545.738 358.511 553.588L380.455 583.532L391.607 574.992ZM344.309 571.784L331.044 558.886C329.183 550.586 326.958 545.914 324.369 544.873C322.38 543.119 325.844 554.034 322.074 551.756C318.304 549.477 309.103 538.616 307.518 539.495C305.172 540.797 307.264 548.36 309.728 552.669C314.333 560.723 318.146 564.336 327.571 570.768C332.498 574.132 337.826 579.127 343.554 585.753L344.309 571.784Z"
       fill="#997659"
       id="path1619" />
    <path
       fill-rule="evenodd"
       clip-rule="evenodd"
       d="M406.314 576.691C395.737 572.511 381.631 564.703 366.581 548.692L360.67 560.543C371.051 575.564 385.649 590.234 398.413 594.75C408.471 598.308 413.612 587.249 406.314 576.691Z"
       fill="#212353"
       id="path1621" />
    <path
       fill-rule="evenodd"
       clip-rule="evenodd"
       d="M392.071 593.866C380.842 592.555 362.01 581.789 335.577 561.567C329.021 573.58 325.99 582.774 326.485 589.151C349.16 610.543 368.595 623.661 384.607 630.18C384.098 640.162 385.255 650.289 389.139 660.629C397.126 681.884 443.891 682.99 459.615 692.341C469.461 661.867 450.422 640.639 450.407 618.715C450.39 594.707 432.398 550.856 429.751 549.839L405.61 540.573C404.278 558.392 397.573 576.02 392.071 593.866Z"
       fill="#3E44B8"
       id="path1623" />
    <path
       d="M391.214 653.347C391.84 653.347 392.522 653.691 393.118 654.235L399.89 660.415C401.277 661.68 401.847 663.698 401.162 664.921L399.183 668.458C398.498 669.681 396.819 669.646 395.431 668.38L387.213 660.881C385.826 659.615 385.256 657.599 385.941 656.376L386.612 655.175C387.501 653.588 389.864 653.348 391.214 653.347Z"
       fill="#FFCD00"
       id="path1625" />
    <path
       d="M401.346 643.691L406.509 648.402L399.821 660.352L394.658 655.64L401.346 643.691ZM390.647 623.614L395.487 628.03L391.984 634.289L387.144 629.873L390.647 623.614Z"
       fill="#1E005A"
       id="path1627" />
    <path
       d="M386.231 623.667L390.01 624.752L387.94 628.451L385.673 624.663L386.231 623.667Z"
       fill="white"
       id="path1629" />
    <path
       d="M395.806 627.462L416.251 646.118C416.251 646.118 417.747 647.483 416.951 648.905L414.403 653.457C413.607 654.88 412.111 653.514 412.111 653.514L391.666 634.858L395.806 627.462Z"
       fill="#310686"
       id="path1631" />
    <path
       d="M397.821 645.633C398.261 644.848 399.34 644.87 400.231 645.683L398.32 649.097C397.429 648.284 397.063 646.988 397.503 646.202L397.821 645.633Z"
       fill="#1E005A"
       id="path1633" />
    <path
       d="M413.436 672.849L416.005 676.573C414.575 677.444 415.587 680.666 414.922 681.865C414.107 683.335 412.398 683.679 410.658 682.912C410.471 682.83 413.335 679.987 410.825 677.865C408.315 675.744 407.678 680.326 407.508 680.051C406.368 678.202 406.058 676.023 406.873 674.554C407.961 672.591 411.209 673.918 413.436 672.849Z"
       fill="#310686"
       id="path1635" />
    <path
       d="M409.973 675.188L426.576 663.693L429.172 667.457L412.569 678.952L409.973 675.188Z"
       fill="#310686"
       id="path1637" />
    <path
       d="M433.071 662.031C434.688 664.375 434.694 667.179 433.085 668.293C431.476 669.407 429.339 667.336 427.964 668.288L425.368 664.524C426.385 663.819 425.47 661.021 427.23 659.803C428.839 658.689 431.454 659.686 433.071 662.031Z"
       fill="#310686"
       id="path1639" />
    <path
       d="M428.252 661.462L430.711 661.712L432.534 664.355L431.898 666.748L429.439 666.498L427.616 663.855L428.252 661.462Z"
       fill="#3E44B8"
       id="path1641" />
    <path
       d="M374.175 631.065C374.175 631.065 427.856 680.171 439.993 691.33C440.459 691.759 444.194 686.943 444.194 686.943L384.445 633.007L374.175 631.065Z"
       fill="#3F1D0A"
       id="path1643" />
    <path
       d="M384.867 653.985C383.731 655.959 384.586 659.228 386.798 661.37L396.567 670.829C398.754 672.947 401.405 673.13 402.588 671.234C404.186 668.673 406.379 665.155 408.028 662.508C409.297 660.473 408.33 656.957 405.911 654.805L395.792 645.803C393.505 643.768 390.773 643.725 389.633 645.706L384.867 653.985Z"
       fill="#3F1D0A"
       id="path1645" />
  </g>
  <defs
     id="defs1661">
    <filter
       id="shadow-1"
       x="-0.042005702"
       y="-0.029529668"
       width="1.0840114"
       height="1.0639809"
       filterUnits="objectBoundingBox">
      <feOffset
         dx="0"
         dy="4"
         in="SourceAlpha"
         result="shadowOffsetOuter1"
         id="feOffset1648" />
      <feGaussianBlur
         stdDeviation="10"
         in="shadowOffsetOuter1"
         result="shadowBlurOuter1"
         id="feGaussianBlur1650" />
      <feColorMatrix
         values="0 0 0 0 0   0 0 0 0 0   0 0 0 0 0  0 0 0 0.2 0"
         in="shadowBlurOuter1"
         type="matrix"
         result="shadowMatrixOuter1"
         id="feColorMatrix1652" />
      <feMerge
         id="feMerge1658">
        <feMergeNode
           in="shadowMatrixOuter1"
           id="feMergeNode1654" />
        <feMergeNode
           in="SourceGraphic"
           id="feMergeNode1656" />
      </feMerge>
    </filter>
  </defs>
</svg>
