<svg width="808" height="1051" fill="none" xmlns="http://www.w3.org/2000/svg"><path d="M808 823.889c0 137.955-121.078 170.862-212.622 180.781-120.517 13.06-355.775-33.446-440.92-52.169C58.958 931.501 0 872.176 0 772.585c0-145.491 153-152.931 217.66-132.332C419 704.388 808 673.389 808 823.889z" fill="#4508BD"/><g filter="url(#a)"><path d="M114 305.437c0-27.736 21.181-57.985 47.202-67.412L643.817 63.181c10.213-3.7 20.126-3.738 28.234-.11L692 72l-4.487 666.798c-.184 27.319-20.808 57.002-46.373 66.745L154.5 991l-21.772-9.408C120.937 976.498 114 964.251 114 948.53V305.437z" fill="#A094E2"/></g><rect width="612" height="742" rx="50" transform="matrix(.9382 -.34612 0 1 133.666 265.067)" fill="#fff"/><path d="M296.911 357.843c0-36.451 27.723-76.228 61.921-88.844l56.291-20.767c34.198-12.616 61.921 6.706 61.921 43.156v65l-180.133 66.455v-65z" stroke="#310686" stroke-width="8"/><path d="m300.664 415.267 32.836-12.114-.938 12.192-31.898 11.768v-11.846z" fill="#fff"/><path d="M296.911 505.843c0 36.451-27.723 76.228-61.921 88.844l-97.572 35.996V470.807l159.493-58.84v93.876z" fill="#fff" stroke="#310686" stroke-width="8"/><path fill="#fff" d="m293.158 420.17-159.492 58.84v-11.994l159.492-58.84z"/><path fill="#fff" d="M133 627.971V476.778l10-3.69v151.194z"/><path d="M336.315 413.806c0-22.367 17.012-46.776 37.997-54.518 20.985-7.741 37.996 4.115 37.996 26.483v2.5l-75.993 28.035v-2.5z" stroke="#310686" stroke-width="8"/><path d="M476.924 364.433c-1.934 33.024-27.134 67.89-57.936 79.253l-39.517 14.579c-23.834 8.793-43.156-4.674-43.156-30.079v-11.88l140.609-51.873z" stroke="#310686" stroke-width="8"/><path d="m704.086 421.628-229.857 84.799c-34.198 12.616-61.921-6.705-61.921-43.156v-67l291.778-107.643v133z" stroke="#310686" stroke-width="8"/><path d="m341.237 400.038 66.149-24.404s.488 4.939.701 8.157c.351 5.33.469 13.853.469 13.853l-68.488 25.267s.192-7.775.469-12.797c.216-3.922.7-10.076.7-10.076zM415.21 372.542l58.081-21.427s0 8.77-.087 14.064c-.092 5.6-2.017 14.776-2.017 14.776l-55.126 20.337s.212-9.349 0-15.201c-.18-4.969-.851-12.549-.851-12.549zM699 419.504V285.878l8.839-3.26v133.625z" fill="#fff"/><path d="m480.346 366.382 219.987-81.158v10.256l-221.371 81.669s.624-3.334.896-5.459c.267-2.085.488-5.308.488-5.308z" fill="#fff"/><path d="m282.838 952.035 94.288-331.785-243.46 89.817v-12l574.173-211.823v12L383.224 618l58.637 275.368-159.023 58.667z" fill="#5913E2"/><path transform="matrix(0 -1 .9382 -.34612 146.8 679.222)" stroke="#5C09FF" stroke-width="3" d="M0-1.5h48M0-1.5h48"/><path transform="matrix(0 -1 .9382 -.34612 164.626 672.646)" stroke="#5C09FF" stroke-width="3" d="M0-1.5h48M0-1.5h48"/><path transform="matrix(0 -1 .9382 -.34612 182.452 666.069)" stroke="#5C09FF" stroke-width="3" d="M0-1.5h48M0-1.5h48"/><path transform="matrix(0 -1 .9382 -.34612 200.277 659.493)" stroke="#5C09FF" stroke-width="3" d="M0-1.5h48M0-1.5h48"/><path transform="matrix(0 -1 .9382 -.34612 218.103 652.917)" stroke="#5C09FF" stroke-width="3" d="M0-1.5h48M0-1.5h48"/><path transform="matrix(0 -1 .9382 -.34612 235.928 646.341)" stroke="#5C09FF" stroke-width="3" d="M0-1.5h48M0-1.5h48"/><path transform="matrix(0 -1 .9382 -.34612 253.754 639.764)" stroke="#5C09FF" stroke-width="3" d="M0-1.5h51M0-1.5h51"/><path transform="matrix(0 -1 .9382 -.34612 271.58 633.188)" stroke="#5C09FF" stroke-width="3" d="M0-1.5h60M0-1.5h60"/><path transform="matrix(0 -1 .9382 -.34612 289.405 626.612)" stroke="#5C09FF" stroke-width="3" d="M0-1.5h79M0-1.5h79"/><path transform="matrix(0 -1 .9382 -.34612 307.231 620.036)" stroke="#5C09FF" stroke-width="3" d="M0-1.5h295M0-1.5h295"/><path transform="matrix(0 -1 .9382 -.34612 325.057 613.459)" stroke="#5C09FF" stroke-width="3" d="M0-1.5h317M0-1.5h317"/><path transform="matrix(-.00863 -.99677 .93815 -.3553 342.882 606.883)" stroke="#5C09FF" stroke-width="3" d="M0-1.5h325.014M0-1.5h325.014"/><path transform="matrix(0 -1 .9382 -.34612 360.708 600.307)" stroke="#5C09FF" stroke-width="3" d="M0-1.5h328M0-1.5h328"/><path transform="matrix(0 -1 .9382 -.34612 378.533 593.731)" stroke="#5C09FF" stroke-width="3" d="M0-1.5h328M0-1.5h328"/><path transform="matrix(0 -1 .9382 -.34612 396.359 587.155)" stroke="#5C09FF" stroke-width="3" d="M0-1.5h328M0-1.5h328"/><path transform="matrix(0 -1 .9382 -.34612 414.185 580.578)" stroke="#5C09FF" stroke-width="3" d="M0-1.5h328M0-1.5h328"/><path transform="matrix(0 -1 .9382 -.34612 432.01 574.002)" stroke="#5C09FF" stroke-width="3" d="M0-1.5h327M0-1.5h327"/><path transform="matrix(0 -1 .9382 -.34612 449.836 567.426)" stroke="#5C09FF" stroke-width="3" d="M0-1.5h318M0-1.5h318"/><path transform="matrix(0 -1 .9382 -.34612 467.662 560.85)" stroke="#5C09FF" stroke-width="3" d="M0-1.5h299M0-1.5h299"/><path transform="matrix(0 -1 .9382 -.34612 485.487 554.273)" stroke="#5C09FF" stroke-width="3" d="M0-1.5h48M0-1.5h48"/><path transform="matrix(0 -1 .9382 -.34612 503.313 547.697)" stroke="#5C09FF" stroke-width="3" d="M0-1.5h48M0-1.5h48"/><path transform="matrix(0 -1 .9382 -.34612 521.139 541.121)" stroke="#5C09FF" stroke-width="3" d="M0-1.5h48M0-1.5h48"/><path transform="matrix(0 -1 .9382 -.34612 538.964 534.545)" stroke="#5C09FF" stroke-width="3" d="M0-1.5h48M0-1.5h48"/><path transform="matrix(0 -1 .9382 -.34612 556.79 527.969)" stroke="#5C09FF" stroke-width="3" d="M0-1.5h48M0-1.5h48"/><path transform="matrix(0 -1 .9382 -.34612 574.615 521.392)" stroke="#5C09FF" stroke-width="3" d="M0-1.5h48M0-1.5h48"/><path transform="matrix(0 -1 .9382 -.34612 592.441 514.816)" stroke="#5C09FF" stroke-width="3" d="M0-1.5h48M0-1.5h48"/><path transform="matrix(0 -1 .9382 -.34612 610.267 508.24)" stroke="#5C09FF" stroke-width="3" d="M0-1.5h48M0-1.5h48"/><path transform="matrix(0 -1 .9382 -.34612 628.093 501.664)" stroke="#5C09FF" stroke-width="3" d="M0-1.5h48M0-1.5h48"/><path transform="matrix(0 -1 .9382 -.34612 645.918 495.087)" stroke="#5C09FF" stroke-width="3" d="M0-1.5h48M0-1.5h48"/><path transform="matrix(0 -1 .9382 -.34612 628.093 500.664)" stroke="#5C09FF" stroke-width="3" d="M0-1.5h48M0-1.5h48"/><path transform="matrix(0 -1 .9382 -.34612 663.744 488.511)" stroke="#5C09FF" stroke-width="3" d="M0-1.5h48M0-1.5h48"/><path transform="matrix(0 -1 .9382 -.34612 681.569 481.935)" stroke="#5C09FF" stroke-width="3" d="M0-1.5h48M0-1.5h48"/><path transform="matrix(0 -1 .9382 -.34612 699.395 475.359)" stroke="#5C09FF" stroke-width="3" d="M0-1.5h48M0-1.5h48"/><path d="m447.021 362.464 2.815-1.038v56.658s-.285.315-.469.515a130.82 130.82 0 0 1-2.346 2.451v-58.586zM429.196 369.041l2.814-1.039v65.21s-.568.4-.938.636c-.722.463-1.876 1.065-1.876 1.065v-65.872zM357.893 373.802s.818-.775 1.408-1.355c.525-.518 1.407-1.14 1.407-1.14v84.822s-.867-.163-1.407-.303c-.561-.145-1.408-.43-1.408-.43v-81.594zM375.719 362.8s.572-.251.938-.377c.74-.254 1.877-.419 1.877-.419v92.598s.235-.101-.134.049c-.741.302-2.681.82-2.681.82V362.8zM393.545 362.193s.235.053.938.289c.755.254 1.876.747 1.876.747v84.805l-.469.173-2.345.866v-86.88zM340.068 405.899s.098-.906.469-1.585c.152-.279.469-1.238.469-1.238v32.5s-.874-3.917-.938-6.654c-.014-.58 0-1.5 0-1.5v-21.523zM464.847 355.888l2.815-1.038v34.703s-.512 1.619-.938 2.643c-.614 1.473-1.877 3.692-1.877 3.692v-40z" fill="#5C09FF"/><path stroke="#5C09FF" d="m253.422 639.546 221.425-317.701M253.422 639.546l221.425-317.701M295.913 463.858l150.11-215.379M295.913 463.858l150.11-215.379M146.468 678.281l45.972-65.96M146.468 678.281l45.972-65.96M271.248 632.973 473.912 342.19M271.248 632.973 473.912 342.19M289.073 626.397l186.7-267.878M289.073 626.397l186.7-267.878M306.899 619.805 474.835 378.85M306.899 619.805 474.835 378.85M324.725 613.228l141.667-203.263M324.725 613.228l141.667-203.263M342.55 606.652l122.903-176.341M342.55 606.652l122.903-176.341M360.376 600.076l105.077-150.765M360.376 600.076l105.077-150.765M378.202 593.5l88.19-126.535M378.202 593.5l88.19-126.535M396.027 586.923l70.365-100.958M396.027 586.923l70.365-100.958M413.853 580.347l50.662-72.69M413.853 580.347l50.662-72.69M431.679 573.771l50.662-72.69M431.679 573.771l50.662-72.69M449.504 567.195l50.662-72.69M449.504 567.195l50.662-72.69M467.33 560.619l50.662-72.691M467.33 560.619l50.662-72.691M485.155 554.042l50.663-72.69M485.155 554.042l50.663-72.69M502.981 547.466l50.662-72.69M502.981 547.466l50.662-72.69M520.807 540.89l50.662-72.69M520.807 540.89l50.662-72.69M538.632 534.314l50.663-72.691M538.632 534.314l50.663-72.691M556.458 527.738l50.662-72.691M556.458 527.738l50.662-72.691M574.284 521.161l50.662-72.69M574.284 521.161l50.662-72.69M592.109 514.585l50.663-72.69M592.109 514.585l50.663-72.69M609.935 508.009l50.662-72.691M609.935 508.009l50.662-72.691M627.761 501.433l50.662-72.691M627.761 501.433l50.662-72.691M645.586 494.856l50.662-72.69M645.586 494.856l50.662-72.69M164.294 672.169l48.786-69.998M164.294 672.169l48.786-69.998M296.349 482.697 456.78 252.511M296.349 482.697 456.78 252.511M295.74 502.523l167.936-240.955M295.74 502.523l167.936-240.955M182.451 665.321l48.786-69.998M182.451 665.321l48.786-69.998M293.529 524.737l178.257-255.762M293.529 524.737l178.257-255.762M299.9 381.386l84.438-121.15M299.9 381.386l84.438-121.15M297.517 365.266l68.488-98.267M297.517 365.266l68.488-98.267M298.455 343.92l46.91-67.306M298.455 343.92l46.91-67.306M300.337 400.226l103.201-148.073M300.337 400.226l103.201-148.073M299.727 420.052l121.965-174.995M299.727 420.052l121.965-174.995M297.517 442.266l137.914-197.879M297.517 442.266l137.914-197.879M199.945 659.011l49.724-71.344M199.945 659.011l49.724-71.344M217.771 651.999l257.358-369.257M217.771 651.999l257.358-369.257M235.597 645.937l240.014-344.373M235.597 645.937l240.014-344.373"/><path d="m662.805 488.313 45.033-64.569.009 1.358-44.378 63.674-.664-.463zM680.631 481.259l27.207-39.015-.004 1.398-26.54 38.08-.663-.463zM698.457 474.694l9.381-13.45.006 1.395-8.724 12.518-.663-.463zM173.069 621.53l.884-.325-40.288 57.862v-.999l39.404-56.538zM155.244 628.107l.853-.312-22.431 32.272-.205-.706 21.783-31.254zM138.356 634.337l.807-.293-5.498 8.023-.35-.497 5.041-7.233z" fill="#5C09FF"/><path d="m133.665 671.583 11.392 7.733-.664.951-10.733-7.481.005-1.203zM133.662 652.581l28.848 19.899-.663.952-28.182-19.349-.003-1.502zM136.148 635.168l44.46 30.779-.664.952-44.871-31.335 1.075-.396zM153.835 628.641l44.55 30.843-.663.952-44.964-31.399 1.077-.396zM171.658 622.063l44.375 30.72-.664.952-44.785-31.274 1.074-.398zM189.482 615.485l44.368 30.716-.663.952-44.78-31.27 1.075-.398zM207.312 608.912l44.577 30.861-.663.952-44.991-31.417 1.077-.396zM225.135 602.334l44.58 30.863-.664.952-44.993-31.419 1.077-.396zM242.466 595.413l45.074 31.208-.663.952-45.494-31.768 1.083-.392zM256.975 586.527l48.391 33.519-.664.952-48.85-34.108 1.123-.363zM269.234 576.069l53.764 37.265-.663.951-54.51-38.051 1.409-.165zM279.045 563.906l61.809 42.872-.664.952-62.685-43.75 1.54-.074zM288.361 551.322l70.433 48.851-.763 1.095-71.431-49.854 1.761-.092zM294.436 536.552l82.207 57.057-.763 1.095-83.395-58.193 1.951.041zM298.998 520.73l95.431 66.274-.764 1.095-96.834-67.559 2.167.19zM300.594 502.84l111.772 77.663-.763 1.095-113.44-79.133 2.431.375zM300.598 483.844l129.313 89.887-.763 1.096-131.266-91.557 2.716.574zM297.014 462.916 447.862 567.6l-.663.952-150.582-104.949.397-.687zM299.556 445.688l165.759 115.076-.663.952-166.343-115.642 1.247-.386zM300.258 426.677l183.155 127.552-.664.952-183.586-128.013 1.095-.491zM297.822 405.978l203.369 141.789-.664.952-202.071-140.897-.634-1.844zM297.311 387.122l221.527 153.945-.663.951-219.954-153.359-.91-1.537zM296.424 368.248 466.66 486.444l-.663.952-168.972-117.827-.601-1.321zM299.99 352.733l166.055 115.283-.664.951-164.815-114.93-.576-1.304zM302.053 334.171 467.142 448.78l-.663.952-163.856-114.261-.57-1.3zM306.323 317.192l159.378 110.629-.664.952-158.178-110.305-.536-1.276zM313.515 304.221l152.468 105.813-.663.952-151.311-105.518-.494-1.247zM324.256 291.745l141.901 98.448-.663.952-140.807-98.198-.431-1.202zM336.276 282.258l139.31 96.642-.664.952-138.232-96.403-.414-1.191zM350.445 272.178l123.7 85.763-.664.951-122.715-85.588-.321-1.126zM367.731 266.242l105.79 73.281-.663.952-104.915-73.182-.212-1.051zM386.735 259.525l87.866 60.788-.664.952-87.097-60.764-.105-.976zM403.067 252.809l72.519 50.092-.664.952-71.843-50.133-.012-.911zM422.968 246.724l51.177 35.217-.664.952-50.629-35.348.116-.821zM492.287 503.769l44.369 30.716-.664.952-44.779-31.271 1.074-.397zM510.117 497.196l44.577 30.861-.663.952-44.991-31.418 1.077-.395zM527.94 490.618l44.58 30.863-.664.952-44.993-31.42 1.077-.395zM545.272 483.697l45.074 31.207-.664.952-45.494-31.768 1.084-.391zM559.781 474.81l48.39 33.519-.664.952-48.85-34.107 1.124-.364zM578.544 468.886l47.259 32.731-.663.952-47.9-33.445 1.304-.238zM595.274 461.545l48.385 33.516-.663.952-49.044-34.242 1.322-.226zM613.648 455.274l47.952 33.182-.764 1.095-48.583-33.93 1.395-.347zM631.854 448.959l47.595 32.933-.763 1.096-48.222-33.679 1.39-.35zM648.686 441.689l48.548 33.598-.764 1.095-49.189-34.353 1.405-.34zM666.101 434.824l41.744 28.856-.007 1.064-43.032-29.503 1.295-.417zM685.273 429.187l22.569 15.492-.003 1.065-23.549-15.923.983-.634z" fill="#5C09FF"/><path transform="matrix(.9382 -.34612 0 1 648 564.883)" stroke="#310686" stroke-width="3" d="M0-1.5h69M0-1.5h69"/><path transform="matrix(0 -1 .9382 -.34612 697.724 730.539)" stroke="#310686" stroke-width="2" d="M0-1h186M0-1h186"/><path transform="matrix(0 -1 .9382 -.34612 685.528 735.038)" stroke="#310686" stroke-width="2" d="M0-1h185M0-1h185"/><path transform="matrix(0 -1 .9382 -.34612 673.331 739.538)" stroke="#310686" stroke-width="2" d="M0-1h186M0-1h186"/><path transform="matrix(0 -1 .9382 -.34612 661.135 744.037)" stroke="#310686" stroke-width="2" d="M0-1h186M0-1h186"/><path d="m133.665 628.067 102.263-37.727 8.913-3.288 16.418-10.557 21.11-25.287 7.974-21.942 4.691-18.231-1.876-2.808v-151l3.753-20.884 9.381-22.961 16.888-22.73 19.702-17.269 15.011-8.038 59.106-21.805 11.258-2.153 18.295.25 16.418 7.443 8.913 10.212 4.691 9.77 3.284 11.788.938 9.154v71l-3.753 20.385-7.505 19.768s-2.212 3.931-3.753 6.385c-2.552 4.065-4.075 6.321-7.036 10.096-1.592 2.029-2.515 3.144-4.222 5.057-2.285 2.561-3.631 3.937-6.099 6.25-2.314 2.17-3.668 3.3-6.098 5.25a108.575 108.575 0 0 1-3.753 2.884c-1.093.813-1.701 1.287-2.814 2.039-1.623 1.096-2.564 1.603-4.222 2.557-2.365 1.362-3.704 2.08-6.098 3.25-3.646 1.782-46.91 17.806-46.91 17.806s-2.865.81-4.691 1.23c-2.21.509-3.461.826-5.629 1.077-2.818.326-4.383.354-7.036.096-1.501-.146-2.313-.314-3.753-.616-1.878-.392-2.961-.571-4.691-1.269-2.205-.89-3.214-1.783-5.16-3.096-2.501-1.688-3.992-2.549-6.098-4.751-1.193-1.246-1.819-2.003-2.815-3.461-1.03-1.507-1.539-2.426-2.345-4.135-1.141-2.417-1.64-3.901-2.346-6.635-.455-1.763-.662-2.786-.938-4.653-.272-1.841-.469-4.827-.469-4.827v-18s.188-3.131.469-5.173c.548-3.994 1.082-6.308 2.345-10.366.921-2.957 1.476-4.64 2.815-7.538.675-1.46 1.11-2.263 1.876-3.692 1.362-2.539 2.147-3.97 3.753-6.385 1.688-2.537 2.757-3.888 4.691-6.23 1.755-2.126 2.757-3.321 4.691-5.231 1.417-1.399 2.261-2.112 3.753-3.384 1.797-1.532 2.81-2.4 4.691-3.731 2.499-1.769 3.972-2.56 6.567-3.923 1.822-.957 2.851-1.479 4.691-2.23 2.935-1.2 4.602-1.666 7.506-2.269 3.558-.74 5.542-.892 8.912-.789 2.456.076 3.834.176 6.099.751 1.931.49 2.936.939 4.691 1.769 1.933.916 3 1.482 4.691 2.77 2.06 1.57 3.077 2.663 4.691 4.769 1.232 1.609 1.846 2.6 2.814 4.462.832 1.599 1.288 2.517 1.876 4.307.89 2.706 1.039 4.463 1.408 7.481.318 2.602.469 4.087.469 6.827v77s.131 4.235.469 6.827c.269 2.065.497 3.185.938 5.154.326 1.452.517 2.263.938 3.654.987 3.257 1.775 4.934 3.284 7.788 1.154 2.182 1.852 3.371 3.284 5.289 1.183 1.585 1.907 2.418 3.283 3.789 2.314 2.304 3.804 3.38 6.568 5.077 2.587 1.588 4.111 2.397 7.036 3.404 2.115.728 3.368 1.012 5.629 1.423 2.843.517 4.489.709 7.506.731 2.515.019 3.965-.086 6.567-.423 4.146-.536 10.789-2.48 10.789-2.48l235.486-86.875v8l-235.486 86.875s-7.213 2.171-11.727 2.827c-2.783.404-4.336.551-7.036.595-2.81.047-4.352-.068-7.037-.404-2.826-.353-4.395-.62-7.036-1.404-2.891-.857-4.406-1.565-7.037-2.904-2.901-1.476-4.507-2.373-7.036-4.404-2.638-2.118-3.905-3.596-6.098-6.25-1.565-1.893-2.466-2.944-3.753-5.116-1.284-2.167-1.861-3.518-2.815-5.961-.851-2.182-1.223-3.486-1.876-5.808-.396-1.408-.619-2.198-.938-3.654-.471-2.148-.669-3.395-.939-5.654-.332-2.791-.469-7.327-.469-7.327v-74s-.162-4.827-.469-7.827c-.27-2.646-.238-4.253-.938-6.654-.644-2.206-1.264-3.272-2.345-5.134-.971-1.671-1.553-2.59-2.815-3.962-1.303-1.416-2.235-1.97-3.753-3.116-1.248-.942-1.86-1.615-3.283-2.288-2.123-1.004-3.628-.99-6.099-1.25-2.488-.263-3.923-.357-6.567-.078-2.339.248-3.693.511-6.098 1.25-1.463.45-2.29.758-3.753 1.385-3.158 1.351-4.954 2.33-7.975 4.442-2.275 1.59-3.507 2.64-5.629 4.576-1.903 1.737-2.97 2.746-4.691 4.731-1.36 1.569-2.061 2.518-3.283 4.211-1.785 2.471-2.771 3.899-4.222 6.558-1.258 2.304-1.844 3.652-2.815 6.038-1.082 2.661-1.801 4.193-2.345 6.865-.297 1.454-.312 2.245-.469 3.674-.246 2.231-.47 3.516-.47 5.673v18s-.008 4.31.47 6.827c.462 2.439.963 3.673 1.876 5.807 1.051 2.456 1.717 3.807 3.284 5.789 1.141 1.444 1.916 2.11 3.283 3.288 1.866 1.609 2.958 2.482 5.16 3.597 1.729.875 2.766 1.266 4.691 1.769 1.763.461 2.811.598 4.691.77 1.969.179 3.093.254 5.16.096 1.802-.138 2.844-.343 4.691-.731 1.821-.382 4.691-1.23 4.691-1.23s42.974-15.972 46.441-17.633c1.469-.704 2.296-1.083 3.752-1.884 1.666-.916 2.591-1.49 4.222-2.558 2.238-1.466 3.463-2.401 5.629-4.077.923-.713 1.442-1.111 2.346-1.865 1.502-1.253 3.753-3.384 3.753-3.384 1.878-1.779 2.923-2.801 4.691-4.731 1.516-1.655 2.33-2.63 3.752-4.384 2.116-2.609 3.274-4.115 5.16-6.904 2.894-4.279 4.274-6.855 6.568-11.423 1.173-2.336 1.871-3.647 2.814-6.038.872-2.209 1.194-3.468 1.877-5.693.802-2.613 1.246-4.083 1.876-6.692.411-1.701.634-2.656.938-4.346.669-3.71.939-9.346.939-9.346v-71s-.084-4.866-.47-7.827c-.268-2.065-.489-3.189-.938-5.154-.711-3.113-1.232-4.795-2.345-7.635-.957-2.44-1.522-3.802-2.815-5.961-.989-1.653-1.615-2.52-2.814-3.962-1.029-1.237-1.667-1.864-2.815-2.961-1.058-1.013-1.669-1.562-2.815-2.462-1.23-.966-1.967-1.444-3.283-2.289-1.601-1.027-2.484-1.635-4.222-2.442-2.081-.967-3.362-1.314-5.629-1.923-3.515-.946-5.557-1.388-9.382-1.539-3.901-.154-6.21.086-10.32.807-3.265.573-8.444 2.115-8.444 2.115l-59.106 21.805s-5.759 2.424-9.382 4.462c-2.973 1.671-4.624 2.736-7.505 4.769-2.045 1.442-3.187 2.28-5.16 3.903-2.262 1.86-3.492 2.996-5.63 5.077-2.077 2.022-3.223 3.199-5.16 5.403-2.529 2.88-3.834 4.627-6.098 7.75-2.539 3.504-3.961 5.507-6.098 9.25-1.614 2.825-2.386 4.47-3.753 7.384a97.355 97.355 0 0 0-1.876 4.193c-1.23 2.923-1.857 4.582-2.815 7.538-.846 2.612-1.272 4.085-1.876 6.692-.197.85-.469 2.173-.469 2.173l-.939.346-.469 12.174v150.999s-.251 6.842-.938 11.347c-.641 4.203-1.203 6.607-2.345 10.865-.947 3.53-1.499 5.525-2.815 9.038-2.18 5.819-3.824 9.073-7.036 14.596-2.49 4.28-4.131 6.566-7.037 10.596-3.29 4.564-5.172 7.146-8.913 11.288-4.446 4.924-3.283 4.211-12.196 11.5-3.204 2.619-5.075 3.961-8.444 6.115-2.89 1.847-4.546 2.785-7.505 4.269-2.915 1.46-7.506 3.268-7.506 3.268l-102.263 37.727v-8z" fill="#310686"/><path d="M435.763 637.619c0-2.762 2.101-5.776 4.692-6.731l197.585-72.849c.951-.351 1.879-.385 2.662-.099L660 565.001l-16.495 178.775c-.232 2.512-2.072 5.085-4.355 6.089l-180.542 79.428c-1.042.459-2.078.542-2.943.236l-17.842-6.301c-1.288-.455-2.06-1.721-2.06-3.379v-182.23z" fill="#A094E2"/><path d="M453 628.597c0-.551.419-1.153.937-1.345l29.25-10.844a.765.765 0 0 1 .564-.009l3.249 1.393-2.782 4.928c-.164.29-.413.525-.683.645l-26.688 11.774c-.224.099-.446.111-.625.034l-2.846-1.22c-.237-.101-.376-.347-.376-.662v-4.694z" fill="#6455C1"/><path d="M468.011 621.061c0-1.657 1.26-3.465 2.815-4.038l1.876-.693c1.555-.573 2.815.305 2.815 1.962v1l-7.506 2.769v-1z" fill="#6455C1"/><rect width="33" height="7" rx="1" transform="matrix(.9382 -.34612 0 1 456 628.599)" fill="#1E005A"/><path d="M471.011 622.061c0-1.657 1.26-3.465 2.815-4.038l1.876-.693c1.555-.573 2.815.305 2.815 1.962v1l-7.506 2.769v-1z" fill="#EB341B"/><path fill-rule="evenodd" clip-rule="evenodd" d="M570.708 476.98c3.609-5.846 6.051-12.28 5.643-18.33-1.176-17.43-24.506-4.893-29.044 5.797-4.538 10.691-3.999 33.362 1.866 32.81 2.339-.22 7.322-3.633 12.394-8.762l-3.184 25.178 18.796-6.934-6.471-29.759z" fill="#B28B67"/><path fill-rule="evenodd" clip-rule="evenodd" d="M584.546 449.681c.607-.866.938-1.903 1.225-2.878.297-1.012.586-2.031.784-3.044.394-2.023.398-4.183-.859-5.178-1.007-.797-2.52-.764-3.915-.363-.93.267-1.885.759-2.776 1.4-.884.636-1.647 1.534-2.504 2.234-.033-2.011-.358-4.008-1.321-5.381-.927-1.32-2.404-1.708-4.087-1.334-1.727.384-3.432 1.444-4.978 2.905-.387.366-.771.742-1.138 1.142-.307.335-.627.72-.987.943-.402.249-.601.075-.863-.142a3.96 3.96 0 0 0-1.016-.6c-1.615-.669-3.733-.408-5.604 1.04-.862.668-1.7 1.57-2.285 2.604-.521.921-.893 2.214-1.612 2.987-.305.328-.521.122-.799.014-.417-.163-.816-.366-1.238-.519a4.104 4.104 0 0 0-1.924-.217c-1.008.123-2.4.695-2.688 2.207-.108.568-.025 1.103.01 1.622.048.713.098 1.426.157 2.133.045.538.102 1.052.201 1.56.052.271.216.751.099 1.084-.146.417-.819.459-1.106.578a6.057 6.057 0 0 0-1.664 1.003c-.407.351-.835.804-1.006 1.364-.106.345-.078.648-.028.944.06.355-.009.58-.054.977-.762-.119-3.406-.033-3.738 1.547-.111.526.141.981.334 1.319.337.593.779 1.086 1.232 1.545.943.957 2.069 1.667 3.281 2.182-1.42 1.197-1.79 3.318-.561 4.046.543.322 1.272.169 1.957-.117.25-.104.612-.34.809-.366.106-.015.219.039.366-.004.967-.286 2.057-.937 3.002-1.513 1.682-1.028 3.276-2.466 4.577-4.24.333-.455.609-.748 1.058-.909.394-.141.78-.169 1.173-.303 1.041-.356 1.979-1.244 2.946-1.961.059 1.369.43 2.765.964 3.819.436.86 1.345.673 2.239.433 2.857-.767 5.725-2.145 8.586-3.196-2.77 1.689-5.632 3.019-8.377 4.817-1.24.813-.293 1.355.238 1.777.873.695 1.523 1.716 1.973 2.878 1.355-2.382 3.75-4.506 5.871-4.71 2.344-.226 3.995 2.544 2.496 5.526-.87 1.731-2.442 2.855-3.75 3.944 1.021.754 1.267 2.332 1.881 3.512.303.582.728 1.209 1.405 1.201.251-.003.545-.103.742.041.245.18.304.459.616.576 1.248.464 3.197-.326 4.303-1.941 1-1.46.74-3.091-.095-3.889 1.329-1.082 3.752-2.735 3.223-4.748 2.882-1.267 9.877-8.828 6.01-11.041 2.122-2.061 4.072-5.905 2.709-8.156-1.05-1.734-3.491-1.781-5.494-1.154z" fill="#191847"/><path fill-rule="evenodd" clip-rule="evenodd" d="M481.671 628.584c-6.451-1.749-17.273 7.548-17.266 13.45.022 17.659 15.149 95.343 15.939 100.315.79 4.972 9.25 3.241 9.743-3.577.784-10.849 2.24-47.943.783-64.326a851.188 851.188 0 0 0-1.887-18.875c7.937 12.35 20.213 29.696 36.827 52.038l9.019-7.719c-7.083-22.259-12.89-37.676-17.423-46.25-7.761-14.68-15.038-27.019-18.1-31.181-4.818-6.547-13.204-.549-17.635 6.125z" fill="#B28B67"/><path fill-rule="evenodd" clip-rule="evenodd" d="m534.184 686.315-30.956-66.743c-7.416-9.98-28.208 12.994-25.679 19.435 5.742 14.625 34.942 58.057 36.653 62.414l19.982-15.106z" fill="#1F28CF"/><path fill-rule="evenodd" clip-rule="evenodd" d="M535.904 694.564c1.928.981 3.182 1.9 3.763 2.758.706 1.043 1.533 2.765 2.48 5.168l-38.253 37.653c-2.892-1.825-3.342-3.903-1.352-6.234a439.913 439.913 0 0 0 4.928-5.859l13.203-24.261c.254-.467.744-.731 1.094-.589l.018.007 2.743 1.24c2.517-1.163 4.395-2.354 5.635-3.574 1.007-.992 2.163-2.707 3.468-5.148.501-.937 1.479-1.474 2.184-1.201.03.012.06.025.089.04zM492.3 733.718c.721 2.227 1.082 3.96 1.082 5.197 0 1.506-.194 3.774-.581 6.804l-36.352 13.411c-.944-3.696-.399-6.081 1.636-7.154a227.44 227.44 0 0 0 5.072-2.745l16.896-15.989c.325-.308.706-.259.851.109l.008.019 1.086 3.011c1.884.444 3.415.448 4.593.014.957-.354 2.279-1.342 3.965-2.965.647-.623 1.412-.537 1.709.191.013.032.024.064.035.097z" fill="#E4E4E4"/><path fill-rule="evenodd" clip-rule="evenodd" d="M462.236 648.84c0 22.177 9.881 70.261 9.887 75.142l21.259-7.826c-3.112-45.01-4.215-67.93-3.31-68.761 1.357-1.247 55.643-14.751 71.925-20.758 23.478-8.661 33.19-28.025 33.978-57.548l-46.509 17.158c-9.469 4.573-58.863 33.415-77.207 43.833-7.854 4.46-10.023 12.651-10.023 18.76z" fill="#2B44FF"/><path fill-rule="evenodd" clip-rule="evenodd" d="m511.211 587.408-30.706 15.812c-6.827.786-12.887 2.275-18.181 4.466-1.41.891-3.496 2.857.581 3.296 4.078.439 8.285 1.127 8.1 2.93-.184 1.804-3.419 3.329-3.305 5.838.076 1.673 5.148-1.419 15.218-9.275l26.635-6.859 1.658-16.208z" fill="#997659"/><path fill-rule="evenodd" clip-rule="evenodd" d="M542.639 553.507c-10.108 6.416-36.981 37.325-57.621 44.44-2.815 9.538-2.791 9.987-2.346 15.365 24.393 1.001 38.835-17.251 53.248-22.234-.458 9.285.583 17.574 4.08 24.209 7.188 13.641 49.283-16.977 63.436-19.229 8.863-33.95-8.274-40.097-8.288-59.723-.015-21.493-16.21-48.609-18.593-47.73l-21.73 8.016c-1.199 16.861-7.234 37.183-12.186 56.886z" fill="#1F28CF"/><rect width="221" height="192" rx="5" transform="matrix(.9382 -.34612 0 1 454 639.492)" fill="#4508BD"/><rect width="197" height="171" rx="3" transform="matrix(.9382 -.34612 0 1 466.197 645.993)" fill="#310686"/><path d="M387.319 660.099c2.653-2.332 6.369-1.794 7.631.533 1.223 2.256.848 6.874-1.723 9.137-17.248 15.182-105.593 93.268-105.593 93.268l-5.916-10.428s89.346-78.222 105.601-92.51z" fill="#A094E2"/><path d="M389.548 663.822c2.651-2.334 4.434-4.208 4.719-4.015 2.198 1.49 1.678 7.752-.892 10.017-17.242 15.192-105.602 93.253-105.602 93.253l-3.728-6.571s89.256-78.381 105.503-92.684z" fill="#310686"/><path d="M394.203 790.786c2.587.758 1.808 4.77.255 8.103-1.628 3.492-4.701 7.203-7.417 6.421-24.83-7.146-105.816-30.819-105.816-30.819l7.163-14.525s83.177 24.184 105.815 30.82z" fill="#310686"/><path d="M394.229 790.802c2.588.756 1.609 4.137 1.295 5.239-.35 1.227-1.045.542-3.758-.245-24.805-7.195-105.815-30.82-105.815-30.82l2.462-4.993s83.166 24.208 105.816 30.819z" fill="#A094E2"/><path d="M290.087 769.647v-15.971l99.447-36.691c3.311-1.221 5.416 2.526 5.416 5.99 0 3.465-2.105 8.503-5.416 9.724-17.969 6.627-99.447 36.948-99.447 36.948z" fill="#310686"/><path d="M290.021 756.756v-3.285l99.16-36.583c2.575-.949 3.83.559 4.144 1.1.314.541-.843.915-4.144 2.133-17.918 6.61-99.16 36.635-99.16 36.635zM177 717.522c0-2.765 2.106-5.751 4.7-6.663l91.88-32.316c.926-.326 1.831-.352 2.6-.075l18.82 6.769-16.189 193.594c-.196 2.346-1.814 4.763-3.932 5.872L197 925.5l-18.077-7.682c-1.208-.514-1.923-1.761-1.923-3.357V717.522z" fill="#A094E2"/><path d="M194.632 724.34c.009-2.758 2.106-5.729 4.691-6.643l92.112-32.593c2.591-.917 4.691.578 4.691 3.34v196.268c0 2.74-2.069 5.701-4.639 6.641l-92.729 33.907c-2.616.957-4.751-.545-4.742-3.338l.616-197.582z" fill="#310686"/><path d="m290.739 685.35.868-.307c2.59-.917 4.69.579 4.69 3.34v196.213c0 2.762-2.1 5.743-4.69 6.66l-.868.307V685.35z" fill="#4508BD"/><circle r="8.041" transform="matrix(.9382 -.34612 0 1 244.544 742.583)" fill="#5C09FF"/><path fill="#1E005A" d="m243.353 738.367 2.382-.879v9.311l-2.382.879z"/><path d="M133.5 749.259h.5l51.959-17.766" stroke="#310686" stroke-width="3"/><path d="M133.5 749.259h.5l51.959-17.766" stroke="#310686" stroke-width="3"/><path transform="matrix(0 -1 .9382 -.34612 175.135 927.912)" stroke="#310686" stroke-width="2" d="M0-1h193M0-1h193"/><path transform="matrix(0 -1 .9382 -.34612 162.939 932.411)" stroke="#310686" stroke-width="2" d="M0-1h193M0-1h193"/><path transform="matrix(0 -1 .9382 -.34612 150.742 936.911)" stroke="#310686" stroke-width="2" d="M0-1h193M0-1h193"/><path transform="matrix(0 -1 .9382 -.34612 138.546 941.411)" stroke="#310686" stroke-width="2" d="M0-1h193M0-1h193"/><path fill-rule="evenodd" clip-rule="evenodd" d="M172.082 846.159c4.019 8.161 11.048 12.366 14.638 21.054 2.129 5.153 2.935 11.277 2.856 17.861-.043 3.577-.182 7.189-.274 10.782-.089 3.504-.259 7.014-.64 10.597-.383 3.602-.802 7.175-1.028 10.743-.176 2.781-.296 5.986-1.315 8.82-.81 2.253-2.771 3.22-3.24.989-.261-1.24-.194-2.749-.133-4.137.077-1.78.22-3.581.311-5.367.365-7.163.227-14.154.522-21.296.288-6.978 1.358-14.219.473-20.746-.731-5.39-2.783-9.526-5.161-13.348-2.288-3.678-4.789-7.174-6.292-11.738a18.932 18.932 0 0 1-.897-4.232c.076-.06.136-.054.18.018z" fill="#C1DEE2"/><path fill-rule="evenodd" clip-rule="evenodd" d="M169.96 864.144c.823.29 1.272.976 1.819 1.616.681.796 1.487 1.448 2.167 2.245 1.418 1.661 2.656 3.517 3.943 5.31 2.444 3.404 4.272 7.301 5.122 11.922.881 4.79 1.038 9.994 1.345 15.058.325 5.367.653 10.774.597 16.294-.025 2.473.06 5.06-.301 7.632-.225 1.601-.973 3.158-2.599 3.708-3.453 1.168-4.999-1.945-5.615-4.723-.906-4.09-1.008-8.733-.757-13.323.304-5.536 1.404-11.265 1.944-16.861.572-5.925.432-11.502-1.521-16.219-.987-2.383-2.143-4.643-3.175-6.994-.439-1-.794-2.061-1.397-2.926-.671-.962-1.512-1.754-2.031-2.861l.459.122z" fill="#89C5CC"/><path fill-rule="evenodd" clip-rule="evenodd" d="m206.18 857.551.323-.347c-.33 1.339-.902 2.532-1.347 3.805-.399 1.145-.615 2.359-.892 3.555-.653 2.811-1.397 5.594-2.017 8.415-1.226 5.582-1.13 11.106-.514 16.615.581 5.205 1.566 10.262 1.976 15.525.341 4.364.431 8.955-.071 13.405-.341 3.022-1.333 6.833-3.835 7.405-1.178.269-1.766-.882-1.983-2.337-.347-2.336-.377-4.908-.482-7.314-.234-5.371-.19-10.82-.146-16.231.04-5.104-.03-10.271.429-15.392.444-4.942 1.61-9.659 3.232-14.201.854-2.393 1.671-4.822 2.623-7.15.457-1.117 1.008-2.154 1.465-3.27.367-.898.663-1.791 1.239-2.483zM172.385 882.172c.472-.894 1.427 1.186 1.574 1.438l-.186-.387c.877 1.134 1.675 2.353 2.157 3.835.476 1.466.88 2.99 1.325 4.479.834 2.794 1.931 5.409 2.68 8.26.731 2.778.869 5.709.612 8.932-.267 3.35-.458 6.724-.293 9.923.079 1.528.579 2.803.912 4.186.332 1.383.587 2.814.987 4.155.102-.228.102.417.1.466a3.62 3.62 0 0 1-.203 1.101c-.339 1.019-.955 1.998-1.873 2.564-1.659 1.023-3.161.111-3.662-1.226-.718-1.919-1.089-4.186-1.406-6.355-.29-1.988-.325-4.077-.182-6.244.282-4.274 1.16-8.699 1.461-12.978.328-4.659-.529-8.633-1.228-12.816-.337-2.015-.657-4.016-1.356-5.806-.283-.724-.66-1.32-1.054-1.943-.225-.354-.681-.967-.365-1.584z" fill="#C1DEE2"/><path fill-rule="evenodd" clip-rule="evenodd" d="M184.053 870.076c-.297 5.309-.73 10.627-1.566 16.068-.852 5.552-1.814 11.125-2.639 16.672-.802 5.4-1.64 10.897-1.65 16.095-.008 3.829-.808 10.577 3.611 10.938 4.475.365 5.613-8.194 5.965-11.012.676-5.404.6-10.604.432-15.746-.172-5.277-.535-10.461-1.01-15.613a407.487 407.487 0 0 1-1.202-17.346c-.142-2.88-.131-5.809-.014-8.779.11-2.804.057-5.579-.919-7.867l-.165.169" fill="#69A1AC"/><path fill-rule="evenodd" clip-rule="evenodd" d="M200.5 887.894c-.835 1.416-1.677 2.824-2.469 4.292-1.416 2.626-2.706 5.448-3.142 8.654-.914 6.71-.431 13.449-.416 20.034.003 1.345-.203 2.722.327 3.821.481.996 1.407 1.561 2.307 1.245 1.926-.676 1.725-5.102 1.769-7.097.078-3.495-.257-6.883-.15-10.385.106-3.469.397-7.012.986-10.477a73.054 73.054 0 0 1 2.52-10.297c.151-.463 1.234-4.008.261-3.125" fill="#89C5CC"/><path fill-rule="evenodd" clip-rule="evenodd" d="M198.165 848.559c-1.266.438-1.383 6.496-1.437 7.287-.196 2.857-.221 5.656-.366 8.496-.317 6.198-.678 12.464-1.762 18.857a305.959 305.959 0 0 1-1.961 10.357c-.713 3.471-1.647 7.014-2.139 10.45-.473 3.302-.309 6.446-.319 9.604-.01 3.176.025 6.344.396 9.362.091.744.202 1.48.321 2.211.099.608.017 1.434.194 1.984.285.881 1.586.751 2.47.292 2.392-1.241 3.973-4.64 4.831-7.02 1.094-3.039 1.706-6.137 2.308-9.15a80.728 80.728 0 0 0 1.348-10.102c.481-6.74.175-13.215-.183-19.643-.199-3.575-.441-7.12-.852-10.599-.409-3.465-.955-6.866-1.284-10.369-.239-2.546-.474-5.096-.609-7.688-.032-.618.013-4.664-.956-4.329z" fill="#69A1AC"/><path fill-rule="evenodd" clip-rule="evenodd" d="M196.103 892.779c-.075-6.291-2.164-33.32-2.612-40.805-.112-1.874-1.406-9.388-1.55-11.506-.526.795-.68 10.385-.72 12.591-.039 2.181-.365 4.426-.555 6.647-.194 2.267-4.195 32.064-4.682 34.346-.968 4.54-1.647 9.091-2.191 13.579-.53 4.374-1.311 9.066-.805 13.104.116.93.312 1.816.644 2.592.36.839.601 1.646.885 2.555.456 1.465 1.313 2.593 2.661 2.797 2.763.418 4.327-3.232 5.143-6.221 1.304-4.774 2.174-9.468 2.633-14.167.509-5.199 1.21-10.475 1.149-15.512z" fill="#89C5CC"/><path d="M379.472 252.385c0-.553.42-1.155.938-1.347l15.011-5.537c.518-.192.938.101.938.653v5l-16.887 6.231v-5z" fill="#5C09FF"/><path d="M379.472 252.385c0-.553.42-1.155.938-1.347l15.011-5.537c.518-.192.938.101.938.653v5l-16.887 6.231v-5zM398.235 245.462c0-.552.419-1.154.937-1.346l10.322-3.807c1.407-.519 2.84.083 4.222.942 1.154.718 2.345 2.635 2.345 2.635l-17.826 6.576v-5z" fill="#5C09FF"/><path d="M398.235 245.462c0-.552.419-1.154.937-1.346l10.322-3.807c1.407-.519 2.84.083 4.222.942 1.154.718 2.345 2.635 2.345 2.635l-17.826 6.576v-5zM360.708 259.307c0-.552.42-1.155.938-1.346l15.011-5.538c.518-.191.938.101.938.654v5l-16.887 6.23v-5z" fill="#5C09FF"/><path d="M360.708 259.307c0-.552.42-1.155.938-1.346l15.011-5.538c.518-.191.938.101.938.654v5l-16.887 6.23v-5z" fill="#5C09FF"/><path fill="#310686" d="m377.595 255.077 1.876-.692v1l-1.876.692z"/><path fill="#310686" d="m377.595 255.077 1.876-.692v1l-1.876.692zM396.359 248.155l1.876-.692v1l-1.876.692z"/><path fill="#310686" d="m396.359 248.155 1.876-.692v1l-1.876.692z"/><path d="M364.93 255.249c.328-.295.61-.399.938-.346.518.085.469 1.327.469 1.327l-1.876.693s-.049-1.206.469-1.674z" fill="#191847"/><path d="M364.93 255.249c.328-.295.61-.399.938-.346.518.085.469 1.327.469 1.327l-1.876.693s-.049-1.206.469-1.674z" fill="#191847"/><path d="M364.93 255.249c.328-.295.61-.399.938-.346.518.085.469 1.327.469 1.327l-1.876.693s-.049-1.206.469-1.674zM371.497 252.827c.328-.296.61-.4.938-.347.518.085.469 1.327.469 1.327l-1.876.693s-.049-1.206.469-1.673z" fill="#191847"/><path d="M371.497 252.827c.328-.296.61-.4.938-.347.518.085.469 1.327.469 1.327l-1.876.693s-.049-1.206.469-1.673z" fill="#191847"/><path d="M371.497 252.827c.328-.296.61-.4.938-.347.518.085.469 1.327.469 1.327l-1.876.693s-.049-1.206.469-1.673zM383.694 247.987c.327-.335.61-.439.937-.345.517.147.469 1.666.469 1.666l-1.874.692s-.049-1.483.468-2.013z" fill="#191847"/><path d="M383.694 247.987c.327-.335.61-.439.937-.345.517.147.469 1.666.469 1.666l-1.874.692s-.049-1.483.468-2.013z" fill="#191847"/><path d="M383.694 247.987c.327-.335.61-.439.937-.345.517.147.469 1.666.469 1.666l-1.874.692s-.049-1.483.468-2.013zM390.261 245.564c.328-.334.61-.439.937-.345.518.148.469 1.666.469 1.666l-1.874.692s-.049-1.483.468-2.013z" fill="#191847"/><path d="M390.261 245.564c.328-.334.61-.439.937-.345.518.148.469 1.666.469 1.666l-1.874.692s-.049-1.483.468-2.013z" fill="#191847"/><path d="M390.261 245.564c.328-.334.61-.439.937-.345.518.148.469 1.666.469 1.666l-1.874.692s-.049-1.483.468-2.013zM402.458 241.065c.327-.335.61-.439.937-.346.517.148.468 1.667.468 1.667l-1.873.691s-.049-1.483.468-2.012z" fill="#191847"/><path d="M402.458 241.065c.327-.335.61-.439.937-.346.517.148.468 1.667.468 1.667l-1.873.691s-.049-1.483.468-2.012z" fill="#191847"/><path d="M402.458 241.065c.327-.335.61-.439.937-.346.517.148.468 1.667.468 1.667l-1.873.691s-.049-1.483.468-2.012zM407.149 239.335c.327-.335.61-.44.937-.346.517.148.468 1.666.468 1.666l-1.874.692s-.049-1.483.469-2.012z" fill="#191847"/><path d="M407.149 239.335c.327-.335.61-.44.937-.346.517.148.468 1.666.468 1.666l-1.874.692s-.049-1.483.469-2.012z" fill="#191847"/><path d="M407.149 239.335c.327-.335.61-.44.937-.346.517.148.468 1.666.468 1.666l-1.874.692s-.049-1.483.469-2.012z" fill="#191847"/><ellipse rx="31.342" ry="29.198" transform="matrix(.9382 -.34612 0 1 533.663 249.038)" fill="#1B0051"/><ellipse rx="21.5" ry="16" transform="matrix(.9382 -.34612 0 1 549.76 214.901)" fill="#1B0051"/><ellipse rx="17.804" ry="16.586" transform="matrix(.9382 -.34612 0 1 635.789 230.294)" fill="#1B0051"/><ellipse rx="19.411" ry="18.083" transform="matrix(.9382 -.34612 0 1 511.211 274.756)" fill="#1B0051"/><ellipse rx="26.211" ry="24.418" transform="matrix(.9382 -.34612 0 1 614.794 211.202)" fill="#1B0051"/><ellipse rx="26" ry="17.5" transform="matrix(.9382 -.34612 0 1 584.004 203.768)" fill="#1B0051"/><path d="m511.211 243.657 64.377-40.336 59.621-5.409v49.181l-123.998 45.746 4.988-29.253-4.988-19.929z" fill="#1B0051"/><ellipse rx="31.342" ry="29.198" transform="matrix(.9382 -.34612 0 1 540.663 251.037)" fill="#310686"/><ellipse rx="21.5" ry="16" transform="matrix(.9382 -.34612 0 1 556.76 216.901)" fill="#310686"/><ellipse rx="17.804" ry="16.586" transform="matrix(.9382 -.34612 0 1 642.789 232.293)" fill="#310686"/><ellipse rx="19.411" ry="18.083" transform="matrix(.9382 -.34612 0 1 518.211 276.755)" fill="#310686"/><ellipse rx="26.211" ry="24.418" transform="matrix(.9382 -.34612 0 1 621.794 213.202)" fill="#310686"/><ellipse rx="26" ry="17.5" transform="matrix(.9382 -.34612 0 1 591.005 205.767)" fill="#310686"/><path d="m518.211 245.657 64.377-40.336 59.621-5.409v49.181l-123.998 45.745 4.988-29.252-4.988-19.929z" fill="#310686"/><ellipse rx="31.342" ry="26.66" transform="matrix(.9382 -.34612 0 1 639.876 242.829)" fill="#4208B5"/><ellipse rx="17" ry="14.46" transform="matrix(.9382 -.34612 0 1 664.931 218.547)" fill="#4208B5"/><ellipse rx="17.804" ry="15.144" transform="matrix(.9382 -.34612 0 1 736.79 233.735)" fill="#4208B5"/><ellipse rx="19.411" ry="16.511" transform="matrix(.9382 -.34612 0 1 612.211 278.327)" fill="#4208B5"/><ellipse rx="26.211" ry="22.295" transform="matrix(.9382 -.34612 0 1 715.794 216.977)" fill="#4208B5"/><ellipse rx="18.916" ry="16.09" transform="matrix(.9382 -.34612 0 1 691.203 202.071)" fill="#4208B5"/><path d="m612.211 249.932 64.377-38.894 59.621-6.851v44.906l-123.998 45.745 4.988-26.869-4.988-18.037z" fill="#4208B5"/><ellipse rx="31.342" ry="26.66" transform="matrix(.9382 -.34612 0 1 647.218 244.946)" fill="#5C09FF"/><ellipse rx="17" ry="14.46" transform="matrix(.9382 -.34612 0 1 672.273 220.664)" fill="#5C09FF"/><ellipse rx="17.804" ry="15.144" transform="matrix(.9382 -.34612 0 1 744.131 235.852)" fill="#5C09FF"/><ellipse rx="19.411" ry="16.511" transform="matrix(.9382 -.34612 0 1 619.553 280.445)" fill="#5C09FF"/><ellipse rx="26.211" ry="22.295" transform="matrix(.9382 -.34612 0 1 723.136 219.094)" fill="#5C09FF"/><ellipse rx="18.916" ry="16.09" transform="matrix(.9382 -.34612 0 1 698.546 204.188)" fill="#5C09FF"/><path d="m619.553 252.049 64.377-38.894 59.621-6.851v44.906l-123.998 45.745 4.988-26.869-4.988-18.037z" fill="#5C09FF"/><ellipse rx="30.434" ry="25.887" transform="matrix(.9382 -.34612 0 1 154.546 423.652)" fill="#1B0051"/><ellipse rx="16.507" ry="14.041" transform="matrix(.9382 -.34612 0 1 178.875 400.074)" fill="#1B0051"/><ellipse rx="17.288" ry="14.705" transform="matrix(.9382 -.34612 0 1 251.219 414.963)" fill="#1B0051"/><ellipse rx="18.848" ry="16.033" transform="matrix(.9382 -.34612 0 1 126.683 451.83)" fill="#1B0051"/><ellipse rx="25.451" ry="21.649" transform="matrix(.9382 -.34612 0 1 228.265 398.55)" fill="#1B0051"/><ellipse rx="18.368" ry="15.624" transform="matrix(.9382 -.34612 0 1 205.233 391.256)" fill="#1B0051"/><path d="m127.683 430.55 62.512-37.767 57.893-6.653v43.605l-120.405 44.42 4.844-26.091-4.844-17.514z" fill="#1B0051"/><ellipse rx="30.434" ry="25.887" transform="matrix(.9382 -.34612 0 1 161.676 425.708)" fill="#310686"/><ellipse rx="16.507" ry="14.041" transform="matrix(.9382 -.34612 0 1 186.004 402.13)" fill="#310686"/><ellipse rx="17.288" ry="14.705" transform="matrix(.9382 -.34612 0 1 255.781 416.878)" fill="#310686"/><ellipse rx="18.848" ry="16.033" transform="matrix(.9382 -.34612 0 1 134.813 460.178)" fill="#310686"/><ellipse rx="25.451" ry="21.649" transform="matrix(.9382 -.34612 0 1 235.394 400.605)" fill="#310686"/><ellipse rx="18.368" ry="15.624" transform="matrix(.9382 -.34612 0 1 209.233 395.256)" fill="#310686"/><path d="m134.812 432.606 62.512-37.767 57.893-6.653v43.605l-120.405 44.42 4.844-26.091-4.844-17.514z" fill="#310686"/><ellipse rx="24" ry="20.5" transform="matrix(.9382 -.34612 0 1 105.589 478.155)" fill="#4508BD"/><ellipse rx="14.7" ry="12.504" transform="matrix(.9382 -.34612 0 1 109.999 457.532)" fill="#4508BD"/><ellipse rx="26.5" ry="22.5" transform="matrix(.9382 -.34612 0 1 182.052 460.946)" fill="#4508BD"/><ellipse rx="16.785" ry="14.277" transform="matrix(.9382 -.34612 0 1 84.747 504.998)" fill="#4508BD"/><ellipse rx="22.665" ry="19.279" transform="matrix(.9382 -.34612 0 1 156.875 454.013)" fill="#4508BD"/><ellipse rx="16.357" ry="13.914" transform="matrix(.9382 -.34612 0 1 131.346 451.849)" fill="#4508BD"/><path d="m84.747 480.444 55.667-33.632 51.555-5.924-8.51 41.97-98.712 36.417 4.313-23.235-4.313-15.596z" fill="#4508BD"/><ellipse rx="24" ry="20.5" transform="matrix(.9382 -.34612 0 1 111.589 480.155)" fill="#5C09FF"/><ellipse rx="14.7" ry="12.504" transform="matrix(.9382 -.34612 0 1 115.999 459.532)" fill="#5C09FF"/><ellipse rx="26.5" ry="22.5" transform="matrix(.9382 -.34612 0 1 188.052 462.947)" fill="#5C09FF"/><ellipse rx="16.785" ry="14.277" transform="matrix(.9382 -.34612 0 1 90.747 506.998)" fill="#5C09FF"/><ellipse rx="22.665" ry="19.279" transform="matrix(.9382 -.34612 0 1 162.875 456.014)" fill="#5C09FF"/><ellipse rx="16.357" ry="13.914" transform="matrix(.9382 -.34612 0 1 137.256 455.1)" fill="#5C09FF"/><path d="m90.747 482.444 55.667-33.631 51.555-5.925-8.51 41.97-98.712 36.417 4.313-23.234-4.313-15.597z" fill="#5C09FF"/><defs><filter id="a" x="54" y=".378" width="698" height="1050.62" filterUnits="userSpaceOnUse" color-interpolation-filters="sRGB"><feFlood flood-opacity="0" result="BackgroundImageFix"/><feColorMatrix in="SourceAlpha" values="0 0 0 0 0 0 0 0 0 0 0 0 0 0 0 0 0 0 127 0"/><feOffset/><feGaussianBlur stdDeviation="30"/><feColorMatrix values="0 0 0 0 0 0 0 0 0 0 0 0 0 0 0 0 0 0 0.25 0"/><feBlend in2="BackgroundImageFix" result="effect1_dropShadow"/><feBlend in="SourceGraphic" in2="effect1_dropShadow" result="shape"/></filter></defs></svg>