<svg width="883" height="874" viewBox="0 0 883 874" fill="none" xmlns="http://www.w3.org/2000/svg">
<path d="M813 569.524C813 746.851 683.559 801.912 592.463 814.661C472.537 831.445 259.825 748.233 177.058 714.656C149.292 703.392 0 644.353 0 516.339C0 329.323 191.974 484.22 216.594 346.237C283.921 26.3182 813 382.508 813 569.524Z" fill="#4508BD"/>
<path d="M764 572.081C764 727.501 650.162 775.76 570.047 786.934C464.576 801.645 277.505 728.713 204.715 699.283C180.296 689.411 49 637.666 49 525.466C49 361.555 217.833 497.315 239.486 376.379C298.697 95.9825 764 408.169 764 572.081Z" fill="#5C09FF"/>
<path d="M525.189 572.344C526.013 572.033 527 572.081 528.004 572.481L570.826 589.504C573.367 590.514 575.391 593.477 575.391 596.186V619.398C575.391 621.041 574.633 622.3 573.364 622.766L557.041 628.751L517.766 609.333C515.898 608.409 514.342 606.434 513.813 604.315L507.496 579.01L525.189 572.344Z" fill="#A195E3"/>
<rect width="56.9957" height="34.1974" rx="5" transform="matrix(0.938191 0.346117 0 1 506 576.775)" fill="white"/>
<g filter="url(#filter0_d)">
<path d="M118 374.304C118 368.722 122.288 362.638 127.525 360.791L250.69 317.361C252.523 316.715 254.307 316.658 255.823 317.198L284.881 327.548C287.986 328.653 289.532 332.09 288.812 336.284L258.158 514.742C257.452 518.848 254.704 522.915 251.127 525.144L162.578 580.329C159.983 581.946 157.247 582.406 155.054 581.594L122.034 569.365C119.507 568.429 118 565.915 118 562.636V374.304Z" fill="#A094E3"/>
</g>
<rect width="148.157" height="208.614" rx="10" transform="matrix(0.938191 -0.346117 0 1 153 376.917)" fill="white"/>
<rect width="134.301" height="87.2036" transform="matrix(0.938191 -0.346117 0 1 160 388.354)" fill="#2B09FF"/>
<rect width="92.7316" height="56.8307" transform="matrix(0.938191 -0.346117 0 1 199 467.676)" fill="#2B09FF"/>
<rect x="0.469096" y="0.326941" width="114.352" height="5.80703" rx="2.90352" transform="matrix(0.938191 -0.346117 0 1 168.831 391.892)" stroke="white"/>
<rect x="0.469096" y="0.326941" width="40.0262" height="61.5511" rx="7.5" transform="matrix(0.938191 -0.346117 0 1 168.831 405.138)" stroke="white"/>
<rect x="1.68288" y="1.1729" width="37.4387" height="3.58749" transform="matrix(0.938191 -0.346117 0 1 168.906 453.944)" fill="white"/>
<rect x="1.68288" y="1.1729" width="37.4387" height="3.58749" transform="matrix(0.938191 -0.346117 0 1 168.906 453.944)" fill="white"/>
<rect x="1.68288" y="1.1729" width="37.4387" height="3.58749" transform="matrix(0.938191 -0.346117 0 1 168.906 453.944)" stroke="white" stroke-width="3.58749"/>
<rect x="1.68288" y="1.1729" width="37.4387" height="3.58749" transform="matrix(0.938191 -0.346117 0 1 168.906 440.146)" fill="white"/>
<rect x="1.68288" y="1.1729" width="37.4387" height="3.58749" transform="matrix(0.938191 -0.346117 0 1 168.906 440.146)" fill="white"/>
<rect x="1.68288" y="1.1729" width="37.4387" height="3.58749" transform="matrix(0.938191 -0.346117 0 1 168.906 440.146)" stroke="white" stroke-width="3.58749"/>
<rect x="1.68288" y="1.1729" width="37.4387" height="3.58749" transform="matrix(0.938191 -0.346117 0 1 168.906 426.347)" fill="white"/>
<rect x="1.68288" y="1.1729" width="37.4387" height="3.58749" transform="matrix(0.938191 -0.346117 0 1 168.906 426.347)" fill="white"/>
<rect x="1.68288" y="1.1729" width="37.4387" height="3.58749" transform="matrix(0.938191 -0.346117 0 1 168.906 426.347)" stroke="white" stroke-width="3.58749"/>
<rect x="1.68288" y="1.1729" width="37.4387" height="3.58749" transform="matrix(0.938191 -0.346117 0 1 168.906 412.55)" fill="white"/>
<rect x="1.68288" y="1.1729" width="37.4387" height="3.58749" transform="matrix(0.938191 -0.346117 0 1 168.906 412.55)" fill="white"/>
<rect x="1.68288" y="1.1729" width="37.4387" height="3.58749" transform="matrix(0.938191 -0.346117 0 1 168.906 412.55)" stroke="white" stroke-width="3.58749"/>
<rect x="0.469096" y="0.326941" width="29.9754" height="46.227" rx="5.5" transform="matrix(0.938191 -0.346117 0 1 203.029 471.482)" stroke="white"/>
<rect x="1.2706" y="0.885557" width="28.2668" height="2.70861" transform="matrix(0.938191 -0.346117 0 1 203.078 508.291)" fill="white"/>
<rect x="1.2706" y="0.885557" width="28.2668" height="2.70861" transform="matrix(0.938191 -0.346117 0 1 203.078 508.291)" fill="white"/>
<rect x="1.2706" y="0.885557" width="28.2668" height="2.70861" transform="matrix(0.938191 -0.346117 0 1 203.078 508.291)" stroke="white" stroke-width="2.70861"/>
<rect x="1.2706" y="0.885557" width="28.2668" height="2.70861" transform="matrix(0.938191 -0.346117 0 1 203.078 497.874)" fill="white"/>
<rect x="1.2706" y="0.885557" width="28.2668" height="2.70861" transform="matrix(0.938191 -0.346117 0 1 203.078 497.874)" fill="white"/>
<rect x="1.2706" y="0.885557" width="28.2668" height="2.70861" transform="matrix(0.938191 -0.346117 0 1 203.078 497.874)" stroke="white" stroke-width="2.70861"/>
<rect x="1.2706" y="0.885557" width="28.2668" height="2.70861" transform="matrix(0.938191 -0.346117 0 1 203.078 487.456)" fill="white"/>
<rect x="1.2706" y="0.885557" width="28.2668" height="2.70861" transform="matrix(0.938191 -0.346117 0 1 203.078 487.456)" fill="white"/>
<rect x="1.2706" y="0.885557" width="28.2668" height="2.70861" transform="matrix(0.938191 -0.346117 0 1 203.078 487.456)" stroke="white" stroke-width="2.70861"/>
<rect x="1.2706" y="0.885557" width="28.2668" height="2.70861" transform="matrix(0.938191 -0.346117 0 1 203.078 477.038)" fill="white"/>
<rect x="1.2706" y="0.885557" width="28.2668" height="2.70861" transform="matrix(0.938191 -0.346117 0 1 203.078 477.038)" fill="white"/>
<rect x="1.2706" y="0.885557" width="28.2668" height="2.70861" transform="matrix(0.938191 -0.346117 0 1 203.078 477.038)" stroke="white" stroke-width="2.70861"/>
<text transform="matrix(0.938191 -0.346117 0 1 176 389.665)" fill="white" xml:space="preserve" style="white-space: pre" font-family="Montserrat" font-size="3" font-weight="600" letter-spacing="0em"><tspan x="4.34542" y="4.47902">&#xda;vod</tspan></text>
<text transform="matrix(0.938191 -0.346117 0 1 192 383.665)" fill="white" xml:space="preserve" style="white-space: pre" font-family="Montserrat" font-size="3" font-weight="600" letter-spacing="0em"><tspan x="3.98361" y="4.47902">O n&#xe1;s</tspan></text>
<text transform="matrix(0.938191 -0.346117 0 1 208 377.665)" fill="white" xml:space="preserve" style="white-space: pre" font-family="Montserrat" font-size="3" font-weight="600" letter-spacing="0em"><tspan x="3.30099" y="4.47902">Slu&#x17e;by</tspan></text>
<text transform="matrix(0.938191 -0.346117 0 1 255 360.665)" fill="white" xml:space="preserve" style="white-space: pre" font-family="Montserrat" font-size="3" font-weight="600" letter-spacing="0em"><tspan x="2.18331" y="4.47902">Kontakt</tspan></text>
<rect x="0.469096" y="0.326941" width="65.9665" height="61.5511" rx="8.5" transform="matrix(0.938191 -0.346117 0 1 214.226 388.391)" stroke="white"/>
<path fill-rule="evenodd" clip-rule="evenodd" d="M214.755 432.484C224.929 430.194 234.314 430.321 244.488 422.909C254.519 415.55 266.505 402.903 276.679 398.661V419.508C276.679 419.508 276.726 421.137 276.295 422.308C275.831 423.566 275.339 424.515 274.357 425.7C273.678 426.519 272.321 427.954 271.449 428.607C270.241 429.513 269.494 429.903 268.274 430.404C267.053 430.905 265.104 431.599 265.104 431.599L225.083 446.395C225.083 446.395 223.049 447.366 221.878 447.578C219.601 447.99 219.293 447.887 218.147 447.505C216.694 447.021 216.491 446.699 215.724 445.567C215.048 444.569 214.755 441.691 214.755 441.691L214.755 432.484Z" stroke="white"/>
<rect x="0.469096" y="0.326941" width="49.3505" height="46.0307" rx="5.5" transform="matrix(0.938191 -0.346117 0 1 235.029 460.46)" stroke="white"/>
<path fill-rule="evenodd" clip-rule="evenodd" d="M235.419 493.572C243.069 491.85 250.125 491.945 257.775 486.373C265.316 480.84 274.329 471.33 281.978 468.141V483.816C281.978 483.816 282.014 485.04 281.69 485.921C281.341 486.867 280.971 487.58 280.232 488.471C279.722 489.087 278.702 490.166 278.046 490.657C277.138 491.338 276.576 491.631 275.659 492.008C274.741 492.384 273.275 492.907 273.275 492.907L243.185 504.031C243.185 504.031 241.655 504.761 240.774 504.921C239.063 505.23 238.831 505.153 237.97 504.866C236.877 504.502 236.725 504.26 236.148 503.409C235.64 502.658 235.419 500.494 235.419 500.494L235.419 493.572Z" stroke="white"/>
<rect width="34.1082" height="56.8307" transform="matrix(0.938191 -0.346117 0 1 160 482.354)" fill="#2B09FF"/>
<circle r="12.5" transform="matrix(0.938191 -0.346117 0 1 176.196 494.37)" stroke="white"/>
<circle r="8.52705" transform="matrix(0.938191 -0.346117 0 1 176 494.349)" fill="white"/>
<rect x="0.234548" y="0.163471" width="24.0153" height="17.1352" rx="3.75" transform="matrix(0.938191 -0.346117 0 1 165.014 515.953)" stroke="white" stroke-width="0.5"/>
<rect x="0.234548" y="0.163471" width="19.8334" height="12.0667" rx="2.75" transform="matrix(0.938191 -0.346117 0 1 167.014 517.99)" stroke="white" stroke-width="0.5"/>
<rect x="0.234548" y="0.163471" width="15.4882" height="7.86973" rx="1.75" transform="matrix(0.938191 -0.346117 0 1 169.014 519.486)" stroke="white" stroke-width="0.5"/>
<g filter="url(#filter1_d)">
<path d="M490.356 144.609C500.5 147.652 745.971 283.846 829.533 330.284C844.846 338.794 854.9 358.031 852.2 373.354L796.829 687.641C794.13 702.962 779.532 708.471 764.224 699.947L431.69 514.771C416.327 506.216 406.098 486.787 408.884 471.455L467.724 147.667C467.724 147.667 478.122 140.939 490.356 144.609Z" fill="#A195E3"/>
</g>
<g filter="url(#filter2_d)">
<rect width="421.768" height="395.713" rx="30" transform="matrix(0.923938 0.514507 -0.162915 0.924705 457.603 132.824)" fill="white"/>
</g>
<g filter="url(#filter3_d)">
<rect width="265.352" height="248.96" rx="30" transform="matrix(0.923938 0.514507 -0.162915 0.924705 620.831 345.91)" fill="#A195E0"/>
</g>
<rect width="265.352" height="248.96" rx="30" transform="matrix(0.923938 0.514507 -0.162915 0.924705 615.411 348.356)" fill="white"/>
<g filter="url(#filter4_d)">
<path d="M426.566 159.692C427.016 157.139 429.449 156.221 432 157.641L808.092 367.073C810.639 368.492 812.343 371.707 811.899 374.26L806.316 406.353C806.099 407.598 805.391 408.513 804.352 408.891L799.249 410.747L424.599 199.464C422.062 198.034 420.376 194.827 420.824 192.285L426.566 159.692Z" fill="#A195E3"/>
</g>
<rect width="417.043" height="45.2142" rx="5" transform="matrix(0.923938 0.514507 -0.162915 0.924705 422.93 157.001)" fill="white"/>
<text transform="matrix(0.923938 0.514507 -0.162915 0.924705 684.449 311.034)" fill="#4508BD" xml:space="preserve" style="white-space: pre" font-family="Montserrat" font-size="18" letter-spacing="0em"><tspan x="24.1889" y="17.453">Kontakt</tspan></text>
<path fill-rule="evenodd" clip-rule="evenodd" d="M589.554 487.292C628.667 517.157 663.418 557.528 707.072 561.626C750.156 565.407 804.656 550.321 845.5 570.37L826.5 678.37C826.5 678.37 825.821 683.262 825 687.37C824 692.37 823 698.87 811.999 702.87C808.712 704.065 806.5 704.37 802 703.37C796.529 702.154 793.893 700.317 789 697.87C784.106 695.423 772 688.5 772 688.5L614.999 600.87C614.999 600.87 608.5 597.5 602.5 594C596.58 590.546 592.999 587.87 585.999 577.87C580.427 569.91 578.739 559.033 578.999 554.87C579.499 546.87 581.32 537.592 581.32 537.592L589.554 487.292Z" fill="#4508BD"/>
<line y1="-3.5" x2="360.677" y2="-3.5" transform="matrix(0.233904 -0.802249 0.961054 0.647207 371.45 598.286)" stroke="#310686" stroke-width="7"/>
<line y1="-3.5" x2="360.677" y2="-3.5" transform="matrix(0.233904 -0.802249 0.961054 0.647207 426.526 636.064)" stroke="#310686" stroke-width="7"/>
<line y1="-3" x2="84.1401" y2="-3" transform="matrix(0.903395 0.726851 -0.338123 0.745361 368.173 552.448)" stroke="#310686" stroke-width="6"/>
<line y1="-3" x2="84.1401" y2="-3" transform="matrix(0.903395 0.726851 -0.338123 0.745361 399.355 458.096)" stroke="#310686" stroke-width="6"/>
<line y1="-3" x2="84.1401" y2="-3" transform="matrix(0.903395 0.726851 -0.338123 0.745361 430.256 349.723)" stroke="#310686" stroke-width="6"/>
<line y1="-3" x2="84.1401" y2="-3" transform="matrix(0.903395 0.726851 -0.338123 0.745361 411.578 400.043)" stroke="#310686" stroke-width="6"/>
<line y1="-3" x2="84.1401" y2="-3" transform="matrix(0.903395 0.726851 -0.338123 0.745361 380.827 496.193)" stroke="#310686" stroke-width="6"/>
<path fill-rule="evenodd" clip-rule="evenodd" d="M445.287 219.976C442.884 215.835 441.435 211.427 442.188 207.548C444.358 196.372 461.706 206.78 464.489 214.15C467.272 221.52 465.225 236.154 460.677 235.222C458.863 234.85 455.211 232.151 451.612 228.331L452.296 244.954L438.093 238.62L445.287 219.976Z" fill="#D4A181"/>
<path fill-rule="evenodd" clip-rule="evenodd" d="M450.293 221.354C448.19 223.658 445.497 224.898 443.063 223.813C438.441 221.751 435.779 214.639 436.451 208.567C436.475 208.354 436.503 208.144 436.535 207.938C431.306 208.823 426.869 213.186 420.399 210.301C411.596 206.376 409.896 188.594 422.194 194.078C430.558 197.808 434.548 200.757 437.912 203.985C438.81 202.496 440.044 201.457 441.465 200.981C441.815 200.798 442.33 200.704 442.982 200.694C443.382 200.674 443.792 200.694 444.208 200.758C446.426 200.994 449.579 201.868 453.05 203.301C453.699 203.568 454.334 203.845 454.952 204.129C455.292 201.154 458.204 199.923 461.467 201.377C464.735 202.835 467.117 206.438 466.786 209.424C466.467 212.312 463.727 213.567 460.591 212.328C458.751 212.035 456.417 211.382 453.858 210.404C454.011 211.362 454.038 212.386 453.917 213.475C453.811 214.436 453.582 215.404 453.254 216.344C452.768 215.499 452.074 214.78 451.326 214.446C449.232 213.512 447.601 214.436 447.416 216.107C447.181 218.228 448.351 220.359 450.293 221.354Z" fill="#191847"/>
<path fill-rule="evenodd" clip-rule="evenodd" d="M477 366.554L480.723 390.514L490.821 388.036L487.063 367.095L477 366.554Z" fill="#BA8B72"/>
<path fill-rule="evenodd" clip-rule="evenodd" d="M419.496 285.541C427.25 324.566 430.069 345.575 430.301 349.028C430.533 352.481 432.432 375.674 426.099 414.383L436.659 416.45C447.477 380.245 449.679 357.854 450.814 353.044C451.949 348.234 454.367 328.25 456.894 292.864L419.496 285.541Z" fill="#D4A181"/>
<path fill-rule="evenodd" clip-rule="evenodd" d="M428.701 287.343C433.374 300.183 447.804 320.307 462 339.554C468.679 351.486 474.538 357.34 475 376.554L491.5 375.554C491.63 366.549 491 344.054 485 330.054C477.846 313.362 464.113 307.212 457.977 293.076L428.701 287.343Z" fill="#69A1AC"/>
<path fill-rule="evenodd" clip-rule="evenodd" d="M419.422 285.526C427.145 324.545 429.496 361.956 425.216 406.214L441.061 409.317C452.006 373.708 458.232 338.159 459.168 293.309L419.422 285.526Z" fill="#89C5CC"/>
<path fill-rule="evenodd" clip-rule="evenodd" d="M425.833 421.766L424.89 412.43C428.464 414.102 432.673 414.545 437.519 413.759C443.675 418.774 451.058 422.821 459.67 425.9C460.327 426.135 460.855 426.829 460.85 427.451C460.85 427.491 460.847 427.531 460.842 427.569L460.498 430.269L439.521 426.162L427.285 423.766L425.833 421.766Z" fill="#191847"/>
<path fill-rule="evenodd" clip-rule="evenodd" d="M478.225 390.11L477.166 381.926C481.195 383.046 485.941 383.011 491.406 381.822C498.345 385.645 506.669 388.485 516.378 390.341C517.119 390.483 517.714 391.045 517.708 391.597C517.708 391.633 517.705 391.668 517.699 391.703L517.31 394.132L493.657 392.619L479.86 391.736L478.225 390.11Z" fill="#191847"/>
<line y1="-3.5" x2="360.677" y2="-3.5" transform="matrix(0.233904 -0.802249 0.961054 0.647207 426.528 636.064)" stroke="#310686" stroke-width="7"/>
<path fill-rule="evenodd" clip-rule="evenodd" d="M465.812 262.456L486.609 259.267C490.098 256.663 493.523 254.9 496.885 253.978C497.909 253.946 499.693 254.349 497.988 256.536C496.283 258.723 494.622 261.143 495.458 262.31C496.294 263.478 498.426 263.044 499.418 264.84C500.079 266.037 496.443 266.231 488.511 265.42L473.325 272.949L465.812 262.456ZM498.016 283.196L507.152 281.781C508.49 277.67 510.044 275.921 511.814 276.535C513.182 276.431 510.731 281.349 513.316 281.783C515.9 282.217 522.253 280.081 523.324 281.371C524.908 283.28 523.42 286.836 521.707 288.252C518.504 290.898 515.879 291.248 509.412 290.607C506.031 290.272 502.363 290.729 498.409 291.977L498.016 283.196Z" fill="#D4A181"/>
<path fill-rule="evenodd" clip-rule="evenodd" d="M455.792 256.43C463.024 258.981 472.688 261.037 483.065 258.602L486.983 268.577C479.791 272.654 469.734 274.499 461.012 271.102C454.138 268.425 450.737 259.295 455.792 256.43Z" fill="#2026A2"/>
<path fill-rule="evenodd" clip-rule="evenodd" d="M465.333 273.609C472.983 278.202 485.887 280.74 504.044 281.223C508.401 291.607 510.383 298.601 509.992 302.208C494.381 304.231 481.046 302.82 470.097 299.074C470.357 305.334 469.483 310.884 466.751 315.253C461.134 324.236 429.31 302.485 418.533 300.583C412.097 277.496 425.233 273.828 425.432 260.622C425.651 246.159 438.269 228.354 440.079 229.011L456.582 234.998C457.335 246.377 461.743 260.215 465.333 273.609Z" fill="#1F28CF"/>
<g filter="url(#filter5_d)">
<rect width="62.9381" height="27.5354" rx="5" transform="matrix(0.622582 0.977772 -0.701851 0.404671 503.326 231.184)" fill="white"/>
</g>
<text transform="matrix(0.628952 0.974044 -0.696148 0.413565 500.021 231.188)" fill="#4508BD" xml:space="preserve" style="white-space: pre" font-family="Montserrat" font-size="13" letter-spacing="0em"><tspan x="15.0792" y="12.6605">&#xda;vod</tspan></text>
<defs>
<filter id="filter0_d" x="101" y="299.831" width="200.987" height="295.156" filterUnits="userSpaceOnUse" color-interpolation-filters="sRGB">
<feFlood flood-opacity="0" result="BackgroundImageFix"/>
<feColorMatrix in="SourceAlpha" type="matrix" values="0 0 0 0 0 0 0 0 0 0 0 0 0 0 0 0 0 0 127 0"/>
<feOffset dx="-2" dy="-2"/>
<feGaussianBlur stdDeviation="7.5"/>
<feColorMatrix type="matrix" values="0 0 0 0 0 0 0 0 0 0 0 0 0 0 0 0 0 0 0.15 0"/>
<feBlend mode="normal" in2="BackgroundImageFix" result="effect1_dropShadow"/>
<feBlend mode="normal" in="SourceGraphic" in2="effect1_dropShadow" result="shape"/>
</filter>
<filter id="filter1_d" x="388.427" y="125.513" width="474.212" height="590.444" filterUnits="userSpaceOnUse" color-interpolation-filters="sRGB">
<feFlood flood-opacity="0" result="BackgroundImageFix"/>
<feColorMatrix in="SourceAlpha" type="matrix" values="0 0 0 0 0 0 0 0 0 0 0 0 0 0 0 0 0 0 127 0"/>
<feOffset dx="-5" dy="-3"/>
<feGaussianBlur stdDeviation="7.5"/>
<feColorMatrix type="matrix" values="0 0 0 0 0 0 0 0 0 0 0 0 0 0 0 0 0 0 0.15 0"/>
<feBlend mode="normal" in2="BackgroundImageFix" result="effect1_dropShadow"/>
<feBlend mode="normal" in="SourceGraphic" in2="effect1_dropShadow" result="shape"/>
</filter>
<filter id="filter2_d" x="379.59" y="131.249" width="475.245" height="590.072" filterUnits="userSpaceOnUse" color-interpolation-filters="sRGB">
<feFlood flood-opacity="0" result="BackgroundImageFix"/>
<feColorMatrix in="SourceAlpha" type="matrix" values="0 0 0 0 0 0 0 0 0 0 0 0 0 0 0 0 0 0 127 0"/>
<feOffset dx="-3" dy="2"/>
<feGaussianBlur stdDeviation="7.5"/>
<feColorMatrix type="matrix" values="0 0 0 0 0 0 0 0 0 0 0 0 0 0 0 0 0 0 0.15 0"/>
<feBlend mode="normal" in2="BackgroundImageFix" result="effect1_dropShadow"/>
<feBlend mode="normal" in="SourceGraphic" in2="effect1_dropShadow" result="shape"/>
</filter>
<filter id="filter3_d" x="563.727" y="336.334" width="318.818" height="385.891" filterUnits="userSpaceOnUse" color-interpolation-filters="sRGB">
<feFlood flood-opacity="0" result="BackgroundImageFix"/>
<feColorMatrix in="SourceAlpha" type="matrix" values="0 0 0 0 0 0 0 0 0 0 0 0 0 0 0 0 0 0 127 0"/>
<feMorphology radius="1" operator="dilate" in="SourceAlpha" result="effect1_dropShadow"/>
<feOffset/>
<feGaussianBlur stdDeviation="10"/>
<feColorMatrix type="matrix" values="0 0 0 0 0.6 0 0 0 0 0.6 0 0 0 0 0.6 0 0 0 0.25 0"/>
<feBlend mode="normal" in2="BackgroundImageFix" result="effect1_dropShadow"/>
<feBlend mode="normal" in="SourceGraphic" in2="effect1_dropShadow" result="shape"/>
</filter>
<filter id="filter4_d" x="405.751" y="139.973" width="421.217" height="283.774" filterUnits="userSpaceOnUse" color-interpolation-filters="sRGB">
<feFlood flood-opacity="0" result="BackgroundImageFix"/>
<feColorMatrix in="SourceAlpha" type="matrix" values="0 0 0 0 0 0 0 0 0 0 0 0 0 0 0 0 0 0 127 0"/>
<feOffset dy="-2"/>
<feGaussianBlur stdDeviation="7.5"/>
<feColorMatrix type="matrix" values="0 0 0 0 0 0 0 0 0 0 0 0 0 0 0 0 0 0 0.15 0"/>
<feBlend mode="normal" in2="BackgroundImageFix" result="effect1_dropShadow"/>
<feBlend mode="normal" in="SourceGraphic" in2="effect1_dropShadow" result="shape"/>
</filter>
<filter id="filter5_d" x="475.431" y="222.303" width="75.6476" height="90.4423" filterUnits="userSpaceOnUse" color-interpolation-filters="sRGB">
<feFlood flood-opacity="0" result="BackgroundImageFix"/>
<feColorMatrix in="SourceAlpha" type="matrix" values="0 0 0 0 0 0 0 0 0 0 0 0 0 0 0 0 0 0 127 0"/>
<feMorphology radius="0.5" operator="dilate" in="SourceAlpha" result="effect1_dropShadow"/>
<feOffset/>
<feGaussianBlur stdDeviation="5"/>
<feColorMatrix type="matrix" values="0 0 0 0 0 0 0 0 0 0 0 0 0 0 0 0 0 0 0.25 0"/>
<feBlend mode="normal" in2="BackgroundImageFix" result="effect1_dropShadow"/>
<feBlend mode="normal" in="SourceGraphic" in2="effect1_dropShadow" result="shape"/>
</filter>
</defs>
</svg>
