<?xml version="1.0" encoding="UTF-8" standalone="no"?>
<svg
   width="882.54498"
   height="691.35901"
   viewBox="0 0 882.54497 691.35902"
   fill="none"
   version="1.1"
   id="svg1764"
   sodipodi:docname="svg-grafika-na-miru.svg"
   inkscape:version="1.1-alpha (6227981bf1, 2021-04-03, custom)"
   xmlns:inkscape="http://www.inkscape.org/namespaces/inkscape"
   xmlns:sodipodi="http://sodipodi.sourceforge.net/DTD/sodipodi-0.dtd"
   xmlns="http://www.w3.org/2000/svg"
   xmlns:svg="http://www.w3.org/2000/svg">
  <sodipodi:namedview
     id="namedview1766"
     pagecolor="#ffffff"
     bordercolor="#666666"
     borderopacity="1.0"
     objecttolerance="10.0"
     gridtolerance="10.0"
     guidetolerance="10.0"
     inkscape:pageshadow="2"
     inkscape:pageopacity="0.0"
     inkscape:pagecheckerboard="0"
     showgrid="false"
     height="182.922px"
     inkscape:zoom="0.65775494"
     inkscape:cx="554.15776"
     inkscape:cy="292.66219"
     inkscape:window-width="1900"
     inkscape:window-height="1025"
     inkscape:window-x="10"
     inkscape:window-y="45"
     inkscape:window-maximized="1"
     inkscape:current-layer="svg1764" />
  <path
     d="M 813,444.011 C 813,621.338 683.559,676.399 592.463,689.148 472.537,705.932 259.825,622.72 177.058,589.143 149.292,577.879 0,518.84 0,390.826 0,203.81 191.974,358.707 216.594,220.724 283.921,-99.1948 813,256.995 813,444.011 Z"
     fill="#4508bd"
     id="path1488" />
  <path
     d="M 764,446.568 C 764,601.988 650.162,650.247 570.047,661.421 464.576,676.132 277.505,603.2 204.715,573.77 180.296,563.898 49,512.153 49,399.953 49,236.042 217.833,371.802 239.486,250.866 298.697,-29.530503 764,282.656 764,446.568 Z"
     fill="#5c09ff"
     id="path1490" />
  <path
     d="m 525.189,446.831 c 0.824,-0.311 1.811,-0.263 2.815,0.137 l 42.822,17.023 c 2.541,1.01 4.565,3.973 4.565,6.682 v 23.212 c 0,1.643 -0.758,2.902 -2.027,3.368 l -16.323,5.985 -39.275,-19.418 c -1.868,-0.924 -3.424,-2.899 -3.953,-5.018 l -6.317,-25.305 z"
     fill="#a195e3"
     id="path1492" />
  <rect
     width="56.995682"
     height="34.197399"
     rx="4.9999981"
     transform="matrix(0.93819131,0.34611712,0,1,0,0)"
     fill="#ffffff"
     id="rect1494"
     x="539.33563"
     y="264.58871" />
  <g
     filter="url(#filter0_d)"
     id="g1498"
     transform="translate(0,-125.513)">
    <path
       d="m 118,374.304 c 0,-5.582 4.288,-11.666 9.525,-13.513 l 123.165,-43.43 c 1.833,-0.646 3.617,-0.703 5.133,-0.163 l 29.058,10.35 c 3.105,1.105 4.651,4.542 3.931,8.736 l -30.654,178.458 c -0.706,4.106 -3.454,8.173 -7.031,10.402 l -88.549,55.185 c -2.595,1.617 -5.331,2.077 -7.524,1.265 l -33.02,-12.229 C 119.507,568.429 118,565.915 118,562.636 Z"
       fill="#a094e3"
       id="path1496" />
  </g>
  <rect
     width="148.15695"
     height="208.614"
     rx="9.9999962"
     transform="matrix(0.93819131,-0.34611712,0,1,0,0)"
     fill="#ffffff"
     id="rect1500"
     x="163.07974"
     y="307.84869" />
  <rect
     width="134.30095"
     height="87.203598"
     transform="matrix(0.93819131,-0.34611712,0,1,0,0)"
     fill="#2b09ff"
     id="rect1502"
     x="170.54091"
     y="321.86813" />
  <rect
     width="92.731567"
     height="56.8307"
     transform="matrix(0.93819131,-0.34611712,0,1,0,0)"
     fill="#2b09ff"
     id="rect1504"
     x="212.11026"
     y="415.578" />
  <rect
     x="180.42281"
     y="328.991"
     width="114.35196"
     height="5.8070302"
     rx="2.9035192"
     transform="matrix(0.93819131,-0.34611712,0,1,0,0)"
     stroke="#ffffff"
     id="rect1506" />
  <rect
     x="180.42281"
     y="342.237"
     width="40.026184"
     height="61.551102"
     rx="7.4999976"
     transform="matrix(0.93819131,-0.34611712,0,1,0,0)"
     stroke="#ffffff"
     id="rect1508" />
  <rect
     x="181.71652"
     y="391.91663"
     width="37.43869"
     height="3.5874901"
     transform="matrix(0.93819131,-0.34611712,0,1,0,0)"
     fill="#ffffff"
     id="rect1510" />
  <rect
     x="181.71652"
     y="391.91663"
     width="37.43869"
     height="3.5874901"
     transform="matrix(0.93819131,-0.34611712,0,1,0,0)"
     fill="#ffffff"
     id="rect1512" />
  <rect
     x="181.71652"
     y="391.91663"
     width="37.43869"
     height="3.5874901"
     transform="matrix(0.93819131,-0.34611712,0,1,0,0)"
     stroke="#ffffff"
     stroke-width="3.58749"
     id="rect1514" />
  <rect
     x="181.71652"
     y="378.11862"
     width="37.43869"
     height="3.5874901"
     transform="matrix(0.93819131,-0.34611712,0,1,0,0)"
     fill="#ffffff"
     id="rect1516" />
  <rect
     x="181.71652"
     y="378.11862"
     width="37.43869"
     height="3.5874901"
     transform="matrix(0.93819131,-0.34611712,0,1,0,0)"
     fill="#ffffff"
     id="rect1518" />
  <rect
     x="181.71652"
     y="378.11862"
     width="37.43869"
     height="3.5874901"
     transform="matrix(0.93819131,-0.34611712,0,1,0,0)"
     stroke="#ffffff"
     stroke-width="3.58749"
     id="rect1520" />
  <rect
     x="181.71652"
     y="364.31964"
     width="37.43869"
     height="3.5874901"
     transform="matrix(0.93819131,-0.34611712,0,1,0,0)"
     fill="#ffffff"
     id="rect1522" />
  <rect
     x="181.71652"
     y="364.31964"
     width="37.43869"
     height="3.5874901"
     transform="matrix(0.93819131,-0.34611712,0,1,0,0)"
     fill="#ffffff"
     id="rect1524" />
  <rect
     x="181.71652"
     y="364.31964"
     width="37.43869"
     height="3.5874901"
     transform="matrix(0.93819131,-0.34611712,0,1,0,0)"
     stroke="#ffffff"
     stroke-width="3.58749"
     id="rect1526" />
  <rect
     x="181.71652"
     y="350.52264"
     width="37.43869"
     height="3.5874901"
     transform="matrix(0.93819131,-0.34611712,0,1,0,0)"
     fill="#ffffff"
     id="rect1528" />
  <rect
     x="181.71652"
     y="350.52264"
     width="37.43869"
     height="3.5874901"
     transform="matrix(0.93819131,-0.34611712,0,1,0,0)"
     fill="#ffffff"
     id="rect1530" />
  <rect
     x="181.71652"
     y="350.52264"
     width="37.43869"
     height="3.5874901"
     transform="matrix(0.93819131,-0.34611712,0,1,0,0)"
     stroke="#ffffff"
     stroke-width="3.58749"
     id="rect1532" />
  <rect
     x="216.87379"
     y="421.19733"
     width="29.975391"
     height="46.227001"
     rx="5.4999981"
     transform="matrix(0.93819131,-0.34611712,0,1,0,0)"
     stroke="#ffffff"
     id="rect1534" />
  <rect
     x="217.72752"
     y="458.58301"
     width="28.26679"
     height="2.7086101"
     transform="matrix(0.93819131,-0.34611712,0,1,0,0)"
     fill="#ffffff"
     id="rect1536" />
  <rect
     x="217.72752"
     y="458.58301"
     width="28.26679"
     height="2.7086101"
     transform="matrix(0.93819131,-0.34611712,0,1,0,0)"
     fill="#ffffff"
     id="rect1538" />
  <rect
     x="217.72752"
     y="458.58301"
     width="28.26679"
     height="2.7086101"
     transform="matrix(0.93819131,-0.34611712,0,1,0,0)"
     stroke="#ffffff"
     stroke-width="2.70861"
     id="rect1540" />
  <rect
     x="217.72752"
     y="448.16602"
     width="28.26679"
     height="2.7086101"
     transform="matrix(0.93819131,-0.34611712,0,1,0,0)"
     fill="#ffffff"
     id="rect1542" />
  <rect
     x="217.72752"
     y="448.16602"
     width="28.26679"
     height="2.7086101"
     transform="matrix(0.93819131,-0.34611712,0,1,0,0)"
     fill="#ffffff"
     id="rect1544" />
  <rect
     x="217.72752"
     y="448.16602"
     width="28.26679"
     height="2.7086101"
     transform="matrix(0.93819131,-0.34611712,0,1,0,0)"
     stroke="#ffffff"
     stroke-width="2.70861"
     id="rect1546" />
  <rect
     x="217.72752"
     y="437.74802"
     width="28.26679"
     height="2.7086101"
     transform="matrix(0.93819131,-0.34611712,0,1,0,0)"
     fill="#ffffff"
     id="rect1548" />
  <rect
     x="217.72752"
     y="437.74802"
     width="28.26679"
     height="2.7086101"
     transform="matrix(0.93819131,-0.34611712,0,1,0,0)"
     fill="#ffffff"
     id="rect1550" />
  <rect
     x="217.72752"
     y="437.74802"
     width="28.26679"
     height="2.7086101"
     transform="matrix(0.93819131,-0.34611712,0,1,0,0)"
     stroke="#ffffff"
     stroke-width="2.70861"
     id="rect1552" />
  <rect
     x="217.72752"
     y="427.33002"
     width="28.26679"
     height="2.7086101"
     transform="matrix(0.93819131,-0.34611712,0,1,0,0)"
     fill="#ffffff"
     id="rect1554" />
  <rect
     x="217.72752"
     y="427.33002"
     width="28.26679"
     height="2.7086101"
     transform="matrix(0.93819131,-0.34611712,0,1,0,0)"
     fill="#ffffff"
     id="rect1556" />
  <rect
     x="217.72752"
     y="427.33002"
     width="28.26679"
     height="2.7086101"
     transform="matrix(0.93819131,-0.34611712,0,1,0,0)"
     stroke="#ffffff"
     stroke-width="2.70861"
     id="rect1558" />
  <text
     transform="matrix(0.96860263,-0.35733645,0,1.0324151,0,0)"
     fill="#ffffff"
     xml:space="preserve"
     style="white-space:pre;stroke-width:0.968603"
     font-family="Montserrat"
     font-size="2.90581px"
     font-weight="600"
     letter-spacing="0em"
     id="text1562"
     x="181.70506"
     y="318.74951"><tspan
       x="185.91405"
       y="323.08792"
       id="tspan1560"
       style="stroke-width:0.968603">Úvod</tspan></text>
  <text
     transform="matrix(0.96860263,-0.35733645,0,1.0324151,0,0)"
     fill="#ffffff"
     xml:space="preserve"
     style="white-space:pre;stroke-width:0.968603"
     font-family="Montserrat"
     font-size="2.90581px"
     font-weight="600"
     letter-spacing="0em"
     id="text1566"
     x="198.22369"
     y="318.6553"><tspan
       x="202.08223"
       y="322.99368"
       id="tspan1564"
       style="stroke-width:0.968603">O nás</tspan></text>
  <text
     transform="matrix(0.96860263,-0.35733645,0,1.0324151,0,0)"
     fill="#ffffff"
     xml:space="preserve"
     style="white-space:pre;stroke-width:0.968603"
     font-family="Montserrat"
     font-size="2.90581px"
     font-weight="600"
     letter-spacing="0em"
     id="text1570"
     x="214.74234"
     y="318.56107"><tspan
       x="217.93968"
       y="322.89944"
       id="tspan1568"
       style="stroke-width:0.968603">Služby</tspan></text>
  <text
     transform="matrix(0.96860263,-0.35733645,0,1.0324151,0,0)"
     fill="#ffffff"
     xml:space="preserve"
     style="white-space:pre;stroke-width:0.968603"
     font-family="Montserrat"
     font-size="2.90581px"
     font-weight="600"
     letter-spacing="0em"
     id="text1574"
     x="263.26584"
     y="318.88962"><tspan
       x="265.38062"
       y="323.22803"
       id="tspan1572"
       style="stroke-width:0.968603">Kontakt</tspan></text>
  <rect
     x="228.80846"
     y="342.23712"
     width="65.966476"
     height="61.551102"
     rx="8.4999971"
     transform="matrix(0.93819131,-0.34611712,0,1,0,0)"
     stroke="#ffffff"
     id="rect1576" />
  <path
     fill-rule="evenodd"
     clip-rule="evenodd"
     d="m 214.755,306.971 c 10.174,-2.29 19.559,-2.163 29.733,-9.575 10.031,-7.359 22.017,-20.006 32.191,-24.248 v 20.847 c 0,0 0.047,1.629 -0.384,2.8 -0.464,1.258 -0.956,2.207 -1.938,3.392 -0.679,0.819 -2.036,2.254 -2.908,2.907 -1.208,0.906 -1.955,1.296 -3.175,1.797 -1.221,0.501 -3.17,1.195 -3.17,1.195 l -40.021,14.796 c 0,0 -2.034,0.971 -3.205,1.183 -2.277,0.412 -2.585,0.309 -3.731,-0.073 -1.453,-0.484 -1.656,-0.806 -2.423,-1.938 -0.676,-0.998 -0.969,-3.876 -0.969,-3.876 z"
     stroke="#ffffff"
     id="path1578" />
  <rect
     x="250.98196"
     y="421.98074"
     width="49.350483"
     height="46.030701"
     rx="5.4999981"
     transform="matrix(0.93819131,-0.34611712,0,1,0,0)"
     stroke="#ffffff"
     id="rect1580" />
  <path
     fill-rule="evenodd"
     clip-rule="evenodd"
     d="m 235.419,368.059 c 7.65,-1.722 14.706,-1.627 22.356,-7.199 7.541,-5.533 16.554,-15.043 24.203,-18.232 v 15.675 c 0,0 0.036,1.224 -0.288,2.105 -0.349,0.946 -0.719,1.659 -1.458,2.55 -0.51,0.616 -1.53,1.695 -2.186,2.186 -0.908,0.681 -1.47,0.974 -2.387,1.351 -0.918,0.376 -2.384,0.899 -2.384,0.899 l -30.09,11.124 c 0,0 -1.53,0.73 -2.411,0.89 -1.711,0.309 -1.943,0.232 -2.804,-0.055 -1.093,-0.364 -1.245,-0.606 -1.822,-1.457 -0.508,-0.751 -0.729,-2.915 -0.729,-2.915 z"
     stroke="#ffffff"
     id="path1582" />
  <rect
     width="34.108189"
     height="56.8307"
     transform="matrix(0.93819131,-0.34611712,0,1,0,0)"
     fill="#2b09ff"
     id="rect1584"
     x="170.54091"
     y="415.86813" />
  <ellipse
     transform="matrix(0.93819131,-0.34611712,0,1,0,0)"
     stroke="#ffffff"
     id="circle1586"
     cx="187.80392"
     cy="433.85916"
     rx="12.499996"
     ry="12.5" />
  <ellipse
     transform="matrix(0.93819131,-0.34611712,0,1,0,0)"
     fill="#ffffff"
     id="circle1588"
     cx="187.595"
     cy="433.76584"
     rx="8.5270472"
     ry="8.52705" />
  <rect
     x="176.11978"
     y="451.48038"
     width="24.015293"
     height="17.135201"
     rx="3.7499988"
     transform="matrix(0.93819131,-0.34611712,0,1,0,0)"
     stroke="#ffffff"
     stroke-width="0.5"
     id="rect1590" />
  <rect
     x="178.25156"
     y="454.25522"
     width="19.833395"
     height="12.0667"
     rx="2.749999"
     transform="matrix(0.93819131,-0.34611712,0,1,0,0)"
     stroke="#ffffff"
     stroke-width="0.5"
     id="rect1592" />
  <rect
     x="180.38332"
     y="456.48904"
     width="15.488195"
     height="7.86973"
     rx="1.7499994"
     transform="matrix(0.93819131,-0.34611712,0,1,0,0)"
     stroke="#ffffff"
     stroke-width="0.5"
     id="rect1594" />
  <g
     filter="url(#filter1_d)"
     id="g1598"
     transform="translate(0,-125.513)">
    <path
       d="m 490.356,144.609 c 10.144,3.043 255.615,139.237 339.177,185.675 15.313,8.51 25.367,27.747 22.667,43.07 l -55.371,314.287 c -2.699,15.321 -17.297,20.83 -32.605,12.306 L 431.69,514.771 c -15.363,-8.555 -25.592,-27.984 -22.806,-43.316 l 58.84,-323.788 c 0,0 10.398,-6.728 22.632,-3.058 z"
       fill="#a195e3"
       id="path1596" />
  </g>
  <g
     filter="url(#filter2_d)"
     id="g1602"
     transform="translate(0,-125.513)">
    <rect
       width="421.76801"
       height="395.71301"
       rx="30"
       transform="matrix(0.923938,0.514507,-0.162915,0.924705,457.603,132.824)"
       fill="#ffffff"
       id="rect1600"
       x="0"
       y="0" />
  </g>
  <g
     filter="url(#filter3_d)"
     id="g1606"
     transform="translate(0,-125.513)">
    <rect
       width="265.35199"
       height="248.96001"
       rx="30"
       transform="matrix(0.923938,0.514507,-0.162915,0.924705,620.831,345.91)"
       fill="#a195e0"
       id="rect1604"
       x="0"
       y="0" />
  </g>
  <rect
     width="280.61884"
     height="233.76015"
     rx="31.72603"
     transform="matrix(0.87367187,0.48651564,-0.17350828,0.98483241,0,0)"
     fill="#ffffff"
     id="rect1608"
     x="682.38574"
     y="-110.82933"
     style="stroke-width:0.996478" />
  <g
     filter="url(#filter4_d)"
     id="g1612"
     transform="translate(0,-125.513)">
    <path
       d="m 426.566,159.692 c 0.45,-2.553 2.883,-3.471 5.434,-2.051 l 376.092,209.432 c 2.547,1.419 4.251,4.634 3.807,7.187 l -5.583,32.093 c -0.217,1.245 -0.925,2.16 -1.964,2.538 l -5.103,1.856 -374.65,-211.283 c -2.537,-1.43 -4.223,-4.637 -3.775,-7.179 z"
       fill="#a195e3"
       id="path1610" />
  </g>
  <rect
     width="441.03729"
     height="42.453716"
     rx="5.2876716"
     transform="matrix(0.87367187,0.48651564,-0.17350828,0.98483241,0,0)"
     fill="#ffffff"
     id="rect1614"
     x="446.61627"
     y="-188.6593"
     style="stroke-width:0.996478" />
  <text
     transform="matrix(0.95388759,0.53118482,-0.16819591,0.95467945,0,0)"
     fill="#4508bd"
     xml:space="preserve"
     style="white-space:pre;stroke-width:0.968603"
     font-family="Montserrat"
     font-size="17.4348px"
     letter-spacing="0em"
     id="text1618"
     x="684.63324"
     y="-186.60274"><tspan
       x="708.06268"
       y="-169.69772"
       id="tspan1616"
       style="stroke-width:0.968603">Kontakt</tspan></text>
  <path
     fill-rule="evenodd"
     clip-rule="evenodd"
     d="m 589.554,361.779 c 39.113,29.865 73.864,70.236 117.518,74.334 43.084,3.781 97.584,-11.305 138.428,8.744 l -19,108 c 0,0 -0.679,4.892 -1.5,9 -1,5 -2,11.5 -13.001,15.5 -3.287,1.195 -5.499,1.5 -9.999,0.5 -5.471,-1.216 -8.107,-3.053 -13,-5.5 -4.894,-2.447 -17,-9.37 -17,-9.37 l -157.001,-87.63 c 0,0 -6.499,-3.37 -12.499,-6.87 -5.92,-3.454 -9.501,-6.13 -16.501,-16.13 -5.572,-7.96 -7.26,-18.837 -7,-23 0.5,-8 2.321,-17.278 2.321,-17.278 z"
     fill="#4508bd"
     id="path1620" />
  <line
     y1="470.50778"
     x2="452.4501"
     y2="181.15501"
     stroke="#310686"
     stroke-width="6.72288"
     id="line1622"
     x1="368.08633" />
  <line
     y1="508.2858"
     x2="507.52612"
     y2="218.93301"
     stroke="#310686"
     stroke-width="6.72288"
     id="line1624"
     x1="423.16232" />
  <line
     y1="424.69891"
     x2="445.19913"
     y2="485.85623"
     stroke="#310686"
     stroke-width="5.75225"
     id="line1626"
     x1="369.18738" />
  <line
     y1="330.34692"
     x2="476.38113"
     y2="391.50424"
     stroke="#310686"
     stroke-width="5.75225"
     id="line1628"
     x1="400.36938" />
  <line
     y1="221.97391"
     x2="507.28214"
     y2="283.13126"
     stroke="#310686"
     stroke-width="5.75225"
     id="line1630"
     x1="431.27039" />
  <line
     y1="272.29391"
     x2="488.60413"
     y2="333.45123"
     stroke="#310686"
     stroke-width="5.75225"
     id="line1632"
     x1="412.59238" />
  <line
     y1="368.44394"
     x2="457.85312"
     y2="429.60126"
     stroke="#310686"
     stroke-width="5.75225"
     id="line1634"
     x1="381.84137" />
  <path
     fill-rule="evenodd"
     clip-rule="evenodd"
     d="m 445.287,94.462997 c -2.403,-4.141 -3.852,-8.549 -3.099,-12.428 2.17,-11.176 19.518,-0.768 22.301,6.602 2.783,7.37 0.736,22.004003 -3.812,21.072003 -1.814,-0.372 -5.466,-3.071 -9.065,-6.891 l 0.684,16.623 -14.203,-6.334 z"
     fill="#d4a181"
     id="path1636" />
  <path
     fill-rule="evenodd"
     clip-rule="evenodd"
     d="m 450.293,95.840997 c -2.103,2.304 -4.796,3.544 -7.23,2.459 -4.622,-2.062 -7.284,-9.174 -6.612,-15.246 0.024,-0.213 0.052,-0.423 0.084,-0.629 -5.229,0.885 -9.666,5.248 -16.136,2.363 -8.803,-3.925 -10.503,-21.707 1.795,-16.223 8.364,3.73 12.354,6.679 15.718,9.907 0.898,-1.489 2.132,-2.528 3.553,-3.004 0.35,-0.183 0.865,-0.277 1.517,-0.287 0.4,-0.02 0.81,0 1.226,0.064 2.218,0.236 5.371,1.11 8.842,2.543 0.649,0.267 1.284,0.544 1.902,0.828 0.34,-2.975 3.252,-4.206 6.515,-2.752 3.268,1.458 5.65,5.061 5.319,8.047 -0.319,2.888 -3.059,4.143 -6.195,2.904 -1.84,-0.293 -4.174,-0.946 -6.733,-1.924 0.153,0.958 0.18,1.982 0.059,3.071 -0.106,0.961 -0.335,1.929 -0.663,2.869 -0.486,-0.845 -1.18,-1.564 -1.928,-1.898 -2.094,-0.934 -3.725,-0.01 -3.91,1.661 -0.235,2.121 0.935,4.252 2.877,5.247 z"
     fill="#191847"
     id="path1638" />
  <path
     fill-rule="evenodd"
     clip-rule="evenodd"
     d="m 477,241.041 3.723,23.96 10.098,-2.478 -3.758,-20.941 z"
     fill="#ba8b72"
     id="path1640" />
  <path
     fill-rule="evenodd"
     clip-rule="evenodd"
     d="m 419.496,160.028 c 7.754,39.025 10.573,60.034 10.805,63.487 0.232,3.453 2.131,26.646 -4.202,65.355 l 10.56,2.067 c 10.818,-36.205 13.02,-58.596 14.155,-63.406 1.135,-4.81 3.553,-24.794 6.08,-60.18 z"
     fill="#d4a181"
     id="path1642" />
  <path
     fill-rule="evenodd"
     clip-rule="evenodd"
     d="m 428.701,161.83 c 4.673,12.84 19.103,32.964 33.299,52.211 6.679,11.932 12.538,17.786 13,37 l 16.5,-1 c 0.13,-9.005 -0.5,-31.5 -6.5,-45.5 -7.154,-16.692 -20.887,-22.842 -27.023,-36.978 z"
     fill="#69a1ac"
     id="path1644" />
  <path
     fill-rule="evenodd"
     clip-rule="evenodd"
     d="m 419.422,160.013 c 7.723,39.019 10.074,76.43 5.794,120.688 l 15.845,3.103 c 10.945,-35.609 17.171,-71.158 18.107,-116.008 z"
     fill="#89c5cc"
     id="path1646" />
  <path
     fill-rule="evenodd"
     clip-rule="evenodd"
     d="m 425.833,296.253 -0.943,-9.336 c 3.574,1.672 7.783,2.115 12.629,1.329 6.156,5.015 13.539,9.062 22.151,12.141 0.657,0.235 1.185,0.929 1.18,1.551 0,0.04 -0.003,0.08 -0.008,0.118 l -0.344,2.7 -20.977,-4.107 -12.236,-2.396 z"
     fill="#191847"
     id="path1648" />
  <path
     fill-rule="evenodd"
     clip-rule="evenodd"
     d="m 478.225,264.597 -1.059,-8.184 c 4.029,1.12 8.775,1.085 14.24,-0.104 6.939,3.823 15.263,6.663 24.972,8.519 0.741,0.142 1.336,0.704 1.33,1.256 0,0.036 -0.003,0.071 -0.009,0.106 l -0.389,2.429 -23.653,-1.513 -13.797,-0.883 z"
     fill="#191847"
     id="path1650" />
  <line
     y1="508.2858"
     x2="507.52811"
     y2="218.93301"
     stroke="#310686"
     stroke-width="6.72288"
     id="line1652"
     x1="423.16434" />
  <path
     fill-rule="evenodd"
     clip-rule="evenodd"
     d="m 465.812,136.943 20.797,-3.189 c 3.489,-2.604 6.914,-4.367 10.276,-5.289 1.024,-0.032 2.808,0.371 1.103,2.558 -1.705,2.187 -3.366,4.607 -2.53,5.774 0.836,1.168 2.968,0.734 3.96,2.53 0.661,1.197 -2.975,1.391 -10.907,0.58 l -15.186,7.529 z m 32.204,20.74 9.136,-1.415 c 1.338,-4.111 2.892,-5.86 4.662,-5.246 1.368,-0.104 -1.083,4.814 1.502,5.248 2.584,0.434 8.937,-1.702 10.008,-0.412 1.584,1.909 0.096,5.465 -1.617,6.881 -3.203,2.646 -5.828,2.996 -12.295,2.355 -3.381,-0.335 -7.049,0.122 -11.003,1.37 z"
     fill="#d4a181"
     id="path1654" />
  <path
     fill-rule="evenodd"
     clip-rule="evenodd"
     d="m 455.792,130.917 c 7.232,2.551 16.896,4.607 27.273,2.172 l 3.918,9.975 c -7.192,4.077 -17.249,5.922 -25.971,2.525 -6.874,-2.677 -10.275,-11.807 -5.22,-14.672 z"
     fill="#2026a2"
     id="path1656" />
  <path
     fill-rule="evenodd"
     clip-rule="evenodd"
     d="m 465.333,148.096 c 7.65,4.593 20.554,7.131 38.711,7.614 4.357,10.384 6.339,17.378 5.948,20.985 -15.611,2.023 -28.946,0.612 -39.895,-3.134 0.26,6.26 -0.614,11.81 -3.346,16.179 -5.617,8.983 -37.441,-12.768 -48.218,-14.67 -6.436,-23.087 6.7,-26.755 6.899,-39.961 0.219,-14.463 12.837,-32.268 14.647,-31.611 l 16.503,5.987 c 0.753,11.379 5.161,25.217 8.751,38.611 z"
     fill="#1f28cf"
     id="path1658" />
  <g
     filter="url(#filter5_d)"
     id="g1662"
     transform="translate(0,-125.513)">
    <rect
       width="62.938099"
       height="27.5354"
       rx="5"
       transform="matrix(0.622582,0.977772,-0.701851,0.404671,503.326,231.184)"
       fill="#ffffff"
       id="rect1660"
       x="0"
       y="0" />
  </g>
  <text
     transform="matrix(0.64933946,1.0056176,-0.71871362,0.4269707,0,0)"
     fill="#4508bd"
     xml:space="preserve"
     style="white-space:pre;stroke-width:0.968603"
     font-family="Montserrat"
     font-size="12.5918px"
     letter-spacing="0em"
     id="text1666"
     x="289.4444"
     y="-434.21097"><tspan
       x="304.05014"
       y="-421.94797"
       id="tspan1664"
       style="stroke-width:0.968603">Úvod</tspan></text>
  <defs
     id="defs1762">
    <filter
       id="filter0_d"
       x="101"
       y="299.83099"
       width="200.987"
       height="295.15601"
       filterUnits="userSpaceOnUse"
       color-interpolation-filters="sRGB">
      <feFlood
         flood-opacity="0"
         result="BackgroundImageFix"
         id="feFlood1668" />
      <feColorMatrix
         in="SourceAlpha"
         type="matrix"
         values="0 0 0 0 0 0 0 0 0 0 0 0 0 0 0 0 0 0 127 0"
         id="feColorMatrix1670" />
      <feOffset
         dx="-2"
         dy="-2"
         id="feOffset1672" />
      <feGaussianBlur
         stdDeviation="7.5"
         id="feGaussianBlur1674" />
      <feColorMatrix
         type="matrix"
         values="0 0 0 0 0 0 0 0 0 0 0 0 0 0 0 0 0 0 0.15 0"
         id="feColorMatrix1676" />
      <feBlend
         mode="normal"
         in2="BackgroundImageFix"
         result="effect1_dropShadow"
         id="feBlend1678" />
      <feBlend
         mode="normal"
         in="SourceGraphic"
         in2="effect1_dropShadow"
         result="shape"
         id="feBlend1680" />
    </filter>
    <filter
       id="filter1_d"
       x="388.427"
       y="125.513"
       width="474.21201"
       height="590.44397"
       filterUnits="userSpaceOnUse"
       color-interpolation-filters="sRGB">
      <feFlood
         flood-opacity="0"
         result="BackgroundImageFix"
         id="feFlood1683" />
      <feColorMatrix
         in="SourceAlpha"
         type="matrix"
         values="0 0 0 0 0 0 0 0 0 0 0 0 0 0 0 0 0 0 127 0"
         id="feColorMatrix1685" />
      <feOffset
         dx="-5"
         dy="-3"
         id="feOffset1687" />
      <feGaussianBlur
         stdDeviation="7.5"
         id="feGaussianBlur1689" />
      <feColorMatrix
         type="matrix"
         values="0 0 0 0 0 0 0 0 0 0 0 0 0 0 0 0 0 0 0.15 0"
         id="feColorMatrix1691" />
      <feBlend
         mode="normal"
         in2="BackgroundImageFix"
         result="effect1_dropShadow"
         id="feBlend1693" />
      <feBlend
         mode="normal"
         in="SourceGraphic"
         in2="effect1_dropShadow"
         result="shape"
         id="feBlend1695" />
    </filter>
    <filter
       id="filter2_d"
       x="379.59"
       y="131.24899"
       width="475.245"
       height="590.07202"
       filterUnits="userSpaceOnUse"
       color-interpolation-filters="sRGB">
      <feFlood
         flood-opacity="0"
         result="BackgroundImageFix"
         id="feFlood1698" />
      <feColorMatrix
         in="SourceAlpha"
         type="matrix"
         values="0 0 0 0 0 0 0 0 0 0 0 0 0 0 0 0 0 0 127 0"
         id="feColorMatrix1700" />
      <feOffset
         dx="-3"
         dy="2"
         id="feOffset1702" />
      <feGaussianBlur
         stdDeviation="7.5"
         id="feGaussianBlur1704" />
      <feColorMatrix
         type="matrix"
         values="0 0 0 0 0 0 0 0 0 0 0 0 0 0 0 0 0 0 0.15 0"
         id="feColorMatrix1706" />
      <feBlend
         mode="normal"
         in2="BackgroundImageFix"
         result="effect1_dropShadow"
         id="feBlend1708" />
      <feBlend
         mode="normal"
         in="SourceGraphic"
         in2="effect1_dropShadow"
         result="shape"
         id="feBlend1710" />
    </filter>
    <filter
       id="filter3_d"
       x="563.72699"
       y="336.33401"
       width="318.81799"
       height="385.89099"
       filterUnits="userSpaceOnUse"
       color-interpolation-filters="sRGB">
      <feFlood
         flood-opacity="0"
         result="BackgroundImageFix"
         id="feFlood1713" />
      <feColorMatrix
         in="SourceAlpha"
         type="matrix"
         values="0 0 0 0 0 0 0 0 0 0 0 0 0 0 0 0 0 0 127 0"
         id="feColorMatrix1715" />
      <feMorphology
         radius="1"
         operator="dilate"
         in="SourceAlpha"
         result="effect1_dropShadow"
         id="feMorphology1717" />
      <feOffset
         id="feOffset1719" />
      <feGaussianBlur
         stdDeviation="10"
         id="feGaussianBlur1721" />
      <feColorMatrix
         type="matrix"
         values="0 0 0 0 0.6 0 0 0 0 0.6 0 0 0 0 0.6 0 0 0 0.25 0"
         id="feColorMatrix1723" />
      <feBlend
         mode="normal"
         in2="BackgroundImageFix"
         result="effect1_dropShadow"
         id="feBlend1725" />
      <feBlend
         mode="normal"
         in="SourceGraphic"
         in2="effect1_dropShadow"
         result="shape"
         id="feBlend1727" />
    </filter>
    <filter
       id="filter4_d"
       x="405.75101"
       y="139.97301"
       width="421.21701"
       height="283.77399"
       filterUnits="userSpaceOnUse"
       color-interpolation-filters="sRGB">
      <feFlood
         flood-opacity="0"
         result="BackgroundImageFix"
         id="feFlood1730" />
      <feColorMatrix
         in="SourceAlpha"
         type="matrix"
         values="0 0 0 0 0 0 0 0 0 0 0 0 0 0 0 0 0 0 127 0"
         id="feColorMatrix1732" />
      <feOffset
         dy="-2"
         id="feOffset1734" />
      <feGaussianBlur
         stdDeviation="7.5"
         id="feGaussianBlur1736" />
      <feColorMatrix
         type="matrix"
         values="0 0 0 0 0 0 0 0 0 0 0 0 0 0 0 0 0 0 0.15 0"
         id="feColorMatrix1738" />
      <feBlend
         mode="normal"
         in2="BackgroundImageFix"
         result="effect1_dropShadow"
         id="feBlend1740" />
      <feBlend
         mode="normal"
         in="SourceGraphic"
         in2="effect1_dropShadow"
         result="shape"
         id="feBlend1742" />
    </filter>
    <filter
       id="filter5_d"
       x="475.431"
       y="222.30299"
       width="75.647598"
       height="90.442299"
       filterUnits="userSpaceOnUse"
       color-interpolation-filters="sRGB">
      <feFlood
         flood-opacity="0"
         result="BackgroundImageFix"
         id="feFlood1745" />
      <feColorMatrix
         in="SourceAlpha"
         type="matrix"
         values="0 0 0 0 0 0 0 0 0 0 0 0 0 0 0 0 0 0 127 0"
         id="feColorMatrix1747" />
      <feMorphology
         radius="0.5"
         operator="dilate"
         in="SourceAlpha"
         result="effect1_dropShadow"
         id="feMorphology1749" />
      <feOffset
         id="feOffset1751" />
      <feGaussianBlur
         stdDeviation="5"
         id="feGaussianBlur1753" />
      <feColorMatrix
         type="matrix"
         values="0 0 0 0 0 0 0 0 0 0 0 0 0 0 0 0 0 0 0.25 0"
         id="feColorMatrix1755" />
      <feBlend
         mode="normal"
         in2="BackgroundImageFix"
         result="effect1_dropShadow"
         id="feBlend1757" />
      <feBlend
         mode="normal"
         in="SourceGraphic"
         in2="effect1_dropShadow"
         result="shape"
         id="feBlend1759" />
    </filter>
  </defs>
</svg>
