<?xml version="1.0" encoding="UTF-8" standalone="no"?>
<svg
   xmlns="http://www.w3.org/2000/svg"
   width="895"
   height="967"
   viewBox="0 0 895 967"
   fill="none">
  <path
     d="M752.105 479.861C890.636 602.32 759.006 877.837 584.015 896.992C403.006 916.806 -67.0593 837.335 8.05974 702.38C32.2793 658.868 132.553 606.515 132.553 606.515C132.553 606.515 613.574 357.401 752.105 479.861Z"
     fill="#5C09FF"
     id="svg-sluzby-fast-bg-shape" />

<g id="svg-sluzby-fast-content"
   class="svg-sluzby-content">
   <g>
     <g
     id="g3384">
    <path
       d="M73.9053 373.508C73.9053 345.797 95.0496 315.57 121.048 306.117L787.632 63.7284C796.996 60.3234 806.132 59.9886 813.863 62.7672L834 70.0038L834.93 550.393C834.982 577.356 814.939 606.91 789.639 617.175L132 884.004L94.0869 869.973C81.4462 865.295 73.9053 852.723 73.9053 836.328V373.508Z"
       fill="#A094E3"
       id="path3382" />
  </g>
  <path
     d="M92.5928 384.24C92.5928 356.626 113.595 326.492 139.502 316.934L806.801 70.7546C832.709 61.1968 853.711 75.8345 853.711 103.449V559.742C853.711 587.356 832.709 617.49 806.801 627.048L139.502 873.227C113.595 882.785 92.5928 868.147 92.5928 840.533V384.24Z"
     fill="white"
	 filter="url(#shadow-1)"
     id="path3386" />
  <path
     d="M 92.54165,745.23182 853.711,464.424 v 95.832 c 0,27.411 -20.705,57.35 -46.421,67.123 L 132,884.003 l -18.86,-6.7 C 100.288,872.737 92.408236,860.25329 92.427446,843.6913 Z"
     fill="#6455c1"
     id="path3388"
     sodipodi:nodetypes="ccscccsc" />
  <path
     d="M92.5933 745.215L853.711 464.424L873.297 474.275L860.961 559.593C856.912 587.597 833.937 614.437 808.927 620.38L169.789 772.271C161.295 774.29 153.249 773.688 146.523 770.53L92.5933 745.215Z"
     fill="#A094E3"
     id="path3390" />
  <path
     d="M112.167 755.066L873.285 474.275V569.589C873.285 597.203 852.283 627.337 826.375 636.895L159.077 883.074C133.169 892.632 112.167 877.994 112.167 850.38V755.066Z"
     fill="#4508BD"
     id="path3392" />

  <rect
     width="262.991"
     height="184.54"
     rx="10"
     transform="matrix(0.938191 -0.346117 0 1 518.468 216.392)"
     fill="#6455C1"
     id="rect3426" />
  <path
     d="M762.613 129.011L768.534 133.11L762.157 134.021L762.613 129.011Z"
     fill="#6455C1"
     id="path3428" />
  <rect
     x="2.34548"
     y="1.63471"
     width="257.991"
     height="179.54"
     rx="7.5"
     transform="matrix(0.938191 -0.346117 0 1 524.314 221.299)"
     fill="#6A5EFF"
     stroke="#3C1D79"
     stroke-width="5"
     id="rect3430" />
  <circle
     r="28.7788"
     transform="matrix(0.938191 -0.346117 0 1 682 234.743)"
     fill="white"
     id="circle3432" />
  <path
     fill-rule="evenodd"
     clip-rule="evenodd"
     d="M528.351 337.168C528.351 335.954 528.765 334.628 529.517 333.439L543.406 311.455C552.606 298.7 567.945 274.622 588.146 277.463C607.539 280.602 627.74 295.452 647.941 286.284C667.334 275.699 687.535 228.788 706.928 218.202C727.129 209.034 746.522 237.907 757.026 251.187L766.05 263.823C766.49 264.44 766.723 265.246 766.723 266.155V306.086C766.723 308.848 764.622 311.861 762.032 312.817L757.026 314.663C746.522 318.539 727.129 325.693 706.928 333.146C687.535 340.3 667.334 347.753 647.941 354.907C627.74 362.36 607.539 369.812 588.146 376.967C567.945 384.419 548.552 391.574 538.047 395.449L533.042 397.296C530.451 398.252 528.351 396.788 528.351 394.026V337.168Z"
     fill="#4508BD"
     id="path3434" />
  <path
     d="M761.246 301.643C767.059 304.833 767.395 310.844 761.872 312.856L608.062 368.882C605.945 369.653 603.045 368.879 601.592 367.154C600.165 365.46 600.664 363.474 602.716 362.684L761.246 301.643Z"
     fill="#A094E3"
     id="path3436" />
  <path
     d="M758.058 138.576C758.058 138.576 763.068 136.754 763.524 136.754C763.979 136.754 765.148 136.967 765.801 137.665C766.504 138.416 766.712 140.398 766.712 140.398V305.743C766.712 305.743 766.78 307.682 766.257 308.931C766.105 309.294 765.801 309.842 765.801 309.842L758.058 303.01V138.576Z"
     fill="#6455C1"
     id="path3438" />
  <path
     d="M639.629 182.309L648.283 179.115V184.131V349.475C648.283 349.475 648.351 351.414 647.828 352.664C647.676 353.026 647.372 353.575 647.372 353.575L639.629 346.742V182.309Z"
     fill="#6455C1"
     id="path3440" />
  <line
     y1="-2.5"
     x2="182.757"
     y2="-2.5"
     transform="matrix(-4.10096e-08 1 -0.938191 0.346117 647.955 178.386)"
     stroke="#3C1D79"
     stroke-width="5"
     id="line3442" />
  <g
     
     id="g3446">
    <path
       d="M238.794 478.821C238.794 456.73 255.596 432.622 276.322 424.976L683.029 274.934C703.755 267.288 720.557 278.998 720.557 301.089V390.416V500.073C720.557 510.989 712.345 522.918 702.106 526.877L264.251 696.197C259.869 697.891 255.599 697.907 252.183 696.24L245.803 693.128C241.371 690.967 238.794 686.185 238.794 680.125V478.821Z"
       fill="#A094E3"
       id="path3444" />
  </g>
  <path
     d="M703 285.347L707.5 275.505L717.5 281.505L703 285.347Z"
     fill="#A094E3"
     id="path3448" />
  <path
     d="M248.775 484.643C248.775 462.552 265.577 438.445 286.303 430.798L693.01 280.756C713.736 273.11 730.537 284.82 730.537 306.911V507.024C730.537 518.07 722.137 530.123 711.774 533.946L267.539 697.833C257.176 701.656 248.775 695.801 248.775 684.756V484.643Z"
     fill="#1F0356"
     id="path3450" />
  <path
     y="50"
     d="M261.322 489.617C261.322 467.526 278.123 443.418 298.849 435.772L682.974 294.061C703.7 286.415 720.502 298.125 720.502 320.217V504.137C720.502 512.422 714.201 521.462 706.429 524.329L275.395 683.346C267.622 686.213 261.322 681.822 261.322 673.538V489.617Z"
     fill="#6455C1"
     id="path3452" />
  <path
     d="M261.322 489.617C261.322 467.526 278.123 443.418 298.849 435.772L683.451 293.885C698.996 288.151 711.597 296.933 711.597 313.502V500.255C711.597 508.54 705.296 517.58 697.524 520.447L266.013 679.64C263.422 680.596 261.322 679.132 261.322 676.37V489.617Z"
     fill="#310686"
     id="path3454" />
  <text
     id="svg-sluzby-clock-1"
     transform="matrix(0.938191 -0.346117 0 1 288 483.413)"
     fill="white"
     xml:space="preserve"
     style="white-space: pre"
     font-family="B612 Mono"
     font-size="130"
     letter-spacing="0em">
		<tspan
   x="3.91731"
   y="122.595"
   id="tspan3456">00</tspan>
	</text>
  <text
     id="svg-sluzby-colon"
     transform="matrix(0.938191 -0.346117 0 1 439 412.737)"
     fill="white"
     xml:space="preserve"
     style="white-space: pre"
     font-family="Montserrat"
     font-size="180"
     font-weight="500"
     letter-spacing="0em">
		<tspan
   x="35.5681"
   y="140.65"
   id="tspan3459">:</tspan>
	</text>
  <text
     id="svg-sluzby-clock-2"
     transform="matrix(0.938191 -0.346117 0 1 528 400.765)"
     fill="white"
     xml:space="preserve"
     style="white-space: pre"
     font-family="B612 Mono"
     font-size="130"
     letter-spacing="0em">
		<tspan
   x="1.78555"
   y="122.595"
   id="tspan3462">00</tspan>
	</text>
   </g>
</g>
   <g id="svg-sluzby-fast-calendar"
      class="svg-sluzby-content">
         <path
         d="M32 408.869C32 401.137 37.8806 392.7 45.1347 390.024L166.617 345.206C173.871 342.53 179.752 346.629 179.752 354.361V385.455V484.716C179.752 492.448 173.871 500.886 166.617 503.562L45.1347 548.379C37.8806 551.055 32 546.957 32 539.225V408.869Z"
         fill="#A094E3"
         id="path3394" />
       <path
     d="M33.8218 420.336C33.8218 406.529 44.3228 391.462 57.2766 386.683L164.324 347.192C177.278 342.413 187.779 349.732 187.779 363.539V385.421V478.176C187.779 491.983 177.278 507.05 164.324 511.829L57.2766 551.32C44.3229 556.099 33.8218 548.78 33.8218 534.973V420.336Z"
     fill="#A094E3"
     id="path3398" />
    <path
       d="M41.1099 414.769C41.1099 406.484 47.4105 397.444 55.1827 394.577L174.789 350.452C182.561 347.585 188.861 351.976 188.861 360.26V488.616C188.861 496.9 182.561 505.94 174.789 508.808L55.1828 552.933C47.4105 555.8 41.1099 551.409 41.1099 543.124V414.769Z"
       fill="white"
	   filter="url(#shadow-1)"
       id="path3400" />
     <path
     d="M41.1099 414.769C41.1099 406.484 47.4105 397.444 55.1827 394.577L174.789 350.452C182.561 347.585 188.861 351.976 188.861 360.26V371.893L41.1099 426.401V414.769Z"
     fill="#4508BD"
     id="path3404" />
  <line
     y1="-1"
     x2="86.7889"
     y2="-1"
     transform="matrix(-4.10096e-08 1 -0.938191 0.346117 70.8467 438.323)"
     stroke="#8A5BE8"
     stroke-width="2"
     id="line3406" />
  <line
     y1="-1"
     x2="86.7889"
     y2="-1"
     transform="matrix(-3.86118e-08 1 -0.938191 0.346117 92.9165 430.18)"
     stroke="#8A5BE8"
     stroke-width="2"
     id="line3408" />
  <line
     y1="-1"
     x2="86.7889"
     y2="-1"
     transform="matrix(-3.86118e-08 1 -0.938191 0.346117 115.567 421.824)"
     stroke="#8A5BE8"
     stroke-width="2"
     id="line3410" />
  <line
     y1="-1"
     x2="86.7889"
     y2="-1"
     transform="matrix(-3.86118e-08 1 -0.938191 0.346117 137.636 413.682)"
     stroke="#8A5BE8"
     stroke-width="2"
     id="line3412" />
  <line
     y1="-1"
     x2="86.7889"
     y2="-1"
     transform="matrix(-3.86118e-08 1 -0.938191 0.346117 158.545 405.968)"
     stroke="#8A5BE8"
     stroke-width="2"
     id="line3414" />
  <line
     y1="-1"
     x2="93.4761"
     y2="-1"
     transform="matrix(0.938191 -0.346117 0 1 70.8462 458.704)"
     stroke="#8A5BE8"
     stroke-width="2"
     id="line3416" />
  <line
     y1="-1"
     x2="95.0856"
     y2="-1"
     transform="matrix(0.938191 -0.346117 0 1 70.8467 438.323)"
     stroke="#8A5BE8"
     stroke-width="2"
     id="line3418" />
  <line
     y1="-1"
     x2="93.4761"
     y2="-1"
     transform="matrix(0.938191 -0.346117 0 1 71.4268 479.53)"
     stroke="#8A5BE8"
     stroke-width="2"
     id="line3420" />
  <line
     y1="-1"
     x2="93.4761"
     y2="-1"
     transform="matrix(0.938191 -0.346117 0 1 70.8462 502.099)"
     stroke="#8A5BE8"
     stroke-width="2"
     id="line3422" />
  <line
     y1="-1"
     x2="93.4761"
     y2="-1"
     transform="matrix(0.938191 -0.346117 0 1 70.8462 525.111)"
     stroke="#8A5BE8"
     stroke-width="2"
     id="line3424" />
   </g>
  <defs
     id="defs3525">
	<filter id="shadow-1" x="-50%" y="-50%" width="200%" height="200%" filterUnits="objectBoundingBox">
		<feOffset dx="0" dy="4" in="SourceAlpha" result="shadowOffsetOuter1"/>
		<feGaussianBlur stdDeviation="10" in="shadowOffsetOuter1" result="shadowBlurOuter1"/>
		<feColorMatrix values="0 0 0 0 0 0 0 0 0 0 0 0 0 0 0 0 0 0 0.2 0" in="shadowBlurOuter1" type="matrix" result="shadowMatrixOuter1"/>
		<feMerge>
		<feMergeNode in="shadowMatrixOuter1"/>
		<feMergeNode in="SourceGraphic"/>
		</feMerge>
	</filter>
  </defs>
</svg>
