<svg width="1920" height="749" fill="none" xmlns="http://www.w3.org/2000/svg"><path d="M0 115s580.342 104.802 957 105.056C1335.98 220.311 1920 115 1920 115v326.548s-581.44 144.8-963 144.451C577.754 585.653 0 441.548 0 441.548V115z" fill="#310686"/><g filter="url(#a)"><rect x="56" y="63" width="552" height="564" rx="50" fill="#4508BD"/></g><rect x="53" y="135" width="558" height="500" rx="50" fill="#fff"/><text fill="#fff" xml:space="preserve" style="white-space:pre" font-family="Montserrat" font-size="40" font-weight="bold" letter-spacing="0em"><tspan x="123.102" y="111.84">Webová prezentace</tspan></text><g filter="url(#b)"><rect x="103" y="201" width="457.143" height="26.286" rx="13.143" fill="#fff"/></g><text fill="#310686" xml:space="preserve" style="white-space:pre" font-family="Montserrat" font-size="12" letter-spacing="0em"><tspan x="126" y="218.802">Úvod</tspan></text><text fill="#310686" xml:space="preserve" style="white-space:pre" font-family="Montserrat" font-size="12" letter-spacing="0em"><tspan x="178.572" y="218.802">Fotogalerie</tspan></text><text fill="#310686" xml:space="preserve" style="white-space:pre" font-family="Montserrat" font-size="12" letter-spacing="0em"><tspan x="281.428" y="218.802">O nás</tspan></text><rect x="477.857" y="205.572" width="76.571" height="18.286" rx="9.143" fill="#4508BD"/><text fill="#fff" xml:space="preserve" style="white-space:pre" font-family="Montserrat" font-size="11" letter-spacing="0em"><tspan x="494.038" y="218.943">Kontakt</tspan></text><g filter="url(#c)"><rect x="103" y="251" width="138" height="317" rx="13" fill="#310686"/></g><rect x="137" y="250" width="105" height="319" rx="13" fill="#fff"/><rect x="151" y="269" width="77.714" height="21.714" rx="8" fill="#4508BD"/><text fill="#fff" xml:space="preserve" style="white-space:pre" font-family="Montserrat" font-size="13" letter-spacing="0em"><tspan x="166.193" y="283.66">Složka 1</tspan></text><rect x="151" y="298" width="77.714" height="21.714" rx="8" fill="#4508BD"/><text fill="#fff" xml:space="preserve" style="white-space:pre" font-family="Montserrat" font-size="13" letter-spacing="0em"><tspan x="164.348" y="312.66">Složka 2</tspan></text><rect x="151" y="327" width="77.714" height="21.714" rx="8" fill="#4508BD"/><text fill="#fff" xml:space="preserve" style="white-space:pre" font-family="Montserrat" font-size="13" letter-spacing="0em"><tspan x="164.373" y="341.66">Složka 3</tspan></text><rect x="151" y="356" width="77.714" height="21.714" rx="8" fill="#4508BD"/><text fill="#fff" xml:space="preserve" style="white-space:pre" font-family="Montserrat" font-size="13" letter-spacing="0em"><tspan x="163.745" y="370.66">Složka 4</tspan></text><rect x="151" y="385" width="77.714" height="21.714" rx="8" fill="#4508BD"/><text fill="#fff" xml:space="preserve" style="white-space:pre" font-family="Montserrat" font-size="13" letter-spacing="0em"><tspan x="164.36" y="399.66">Složka 5</tspan></text><rect x="151" y="414" width="77.714" height="21.714" rx="8" fill="#4508BD"/><text fill="#fff" xml:space="preserve" style="white-space:pre" font-family="Montserrat" font-size="13" letter-spacing="0em"><tspan x="164.081" y="428.66">Složka 6</tspan></text><rect x="151" y="443" width="77.714" height="21.714" rx="8" fill="#4508BD"/><text fill="#fff" xml:space="preserve" style="white-space:pre" font-family="Montserrat" font-size="13" letter-spacing="0em"><tspan x="164.214" y="457.66">Složka 7</tspan></text><rect x="151" y="472" width="77.714" height="21.714" rx="8" fill="#4508BD"/><text fill="#fff" xml:space="preserve" style="white-space:pre" font-family="Montserrat" font-size="13" letter-spacing="0em"><tspan x="164.397" y="486.66">Složka 8</tspan></text><rect x="151" y="501" width="77.714" height="21.714" rx="8" fill="#4508BD"/><text fill="#fff" xml:space="preserve" style="white-space:pre" font-family="Montserrat" font-size="13" letter-spacing="0em"><tspan x="164.081" y="515.66">Složka 9</tspan></text><rect x="151" y="530" width="77.714" height="21.714" rx="8" fill="#4508BD"/><text fill="#fff" xml:space="preserve" style="white-space:pre" font-family="Montserrat" font-size="13" letter-spacing="0em"><tspan x="161.39" y="544.66">Složka 10</tspan></text><path fill="#fff" d="M124 267h2v281h-2z"/><circle cx="125" cy="548" r="3" fill="#fff"/><circle cx="125" cy="548" r="3" fill="#fff"/><circle cx="125" cy="503" r="3" fill="#fff"/><circle cx="125" cy="503" r="3" fill="#fff"/><circle cx="125" cy="458" r="3" fill="#fff"/><circle cx="125" cy="458" r="3" fill="#fff"/><circle cx="125" cy="413" r="3" fill="#fff"/><circle cx="125" cy="413" r="3" fill="#fff"/><circle cx="125" cy="368" r="3" fill="#fff"/><circle cx="125" cy="368" r="3" fill="#fff"/><circle cx="125" cy="327" r="3" fill="#fff"/><circle cx="125" cy="327" r="3" fill="#fff"/><circle cx="125" cy="298" r="3" fill="#fff"/><circle cx="125" cy="298" r="3" fill="#fff"/><circle cx="125" cy="268" r="3" fill="#fff"/><circle cx="125" cy="268" r="3" fill="#fff"/><text transform="rotate(-90 334.5 226.5)" fill="#fff" xml:space="preserve" style="white-space:pre" font-family="Montserrat" font-size="10" letter-spacing="0em"><tspan x=".744" y="9.585">2020</tspan></text><text transform="rotate(-90 311.5 204.5)" fill="#fff" xml:space="preserve" style="white-space:pre" font-family="Montserrat" font-size="10" letter-spacing="0em"><tspan x="2.229" y="9.585">2021</tspan></text><text transform="rotate(-90 289 182)" fill="#fff" xml:space="preserve" style="white-space:pre" font-family="Montserrat" font-size="10" letter-spacing="0em"><tspan x="1.193" y="9.585">2022</tspan></text><text transform="rotate(-90 266.5 159.5)" fill="#fff" xml:space="preserve" style="white-space:pre" font-family="Montserrat" font-size="10" letter-spacing="0em"><tspan x="1.213" y="9.585">2023</tspan></text><text transform="rotate(-90 244 137)" fill="#fff" xml:space="preserve" style="white-space:pre" font-family="Montserrat" font-size="10" letter-spacing="0em"><tspan x=".847" y="9.585">2024</tspan></text><text transform="rotate(-90 223.5 116.5)" fill="#fff" xml:space="preserve" style="white-space:pre" font-family="Montserrat" font-size="10" letter-spacing="0em"><tspan x="1.203" y="9.585">2025</tspan></text><text transform="rotate(-90 211.5 100.5)" fill="#fff" xml:space="preserve" style="white-space:pre" font-family="Montserrat" font-size="8" letter-spacing="0em"><tspan x=".172" y="5.868">Duben</tspan></text><text transform="rotate(-90 195.5 84.5)" fill="#fff" xml:space="preserve" style="white-space:pre" font-family="Montserrat" font-size="8" letter-spacing="0em"><tspan x=".133" y="5.868">Srpen</tspan></text><g filter="url(#d)"><rect x="255" y="465" width="143" height="103" rx="20" fill="#4508BD"/></g><rect x="255" y="528" width="143" height="41" rx="20.5" fill="#310686"/><path fill-rule="evenodd" clip-rule="evenodd" d="M254 508.138c16.301 2.712 31.312 4.53 47.613-2.249 16.072-6.779 32.143-21.919 48.444-22.823 16.072-1.129 32.373 12.429 40.409 18.982L399 509v17H254v-17.862z" fill="#fff"/><path fill-rule="evenodd" clip-rule="evenodd" d="m399 549-10.149-1.701c-10.149-1.913-30.737-5.527-51.034-8.291-20.588-2.551-40.886-4.465-61.474 1.913-20.329 5.835-22.343 5.835-22.343 5.835V522h145v27z" fill="#fff"/><g filter="url(#e)"><rect x="411.865" y="366" width="145.134" height="203" rx="20" fill="#fff"/></g><path fill-rule="evenodd" clip-rule="evenodd" d="M455.151 568.996c1.349-25.374 2.577-37.135 14.986-60.829 10.34-23.695 28.954-47.389 37.227-71.084 10.341-23.694 10.341-47.388 10.341-59.236V366h19.735c1.686 0 6.12.806 9.442 2.781 3.55 2.111 5.374 3.988 7.42 7.647 2.041 3.652 2.698 8.342 2.698 10.428v161.285s0 4.866-2.024 9.037c-2.023 4.171-4.543 6.929-8.094 9.037-5.058 3.005-10.117 2.781-10.117 2.781h-81.614z" fill="#6A1EFF"/><g filter="url(#f)"><rect x="254.195" y="250" width="145.134" height="204.963" rx="20" fill="#fff"/></g><path fill-rule="evenodd" clip-rule="evenodd" d="m254 364.573 4.028-1.344c4.028-1.345 12.083-4.033 20.139-1.345 8.055 2.689 16.111 12.099 24.166 20.165 8.056 9.41 16.111 17.475 24.167 20.164 8.056 2.688 18.378-.233 26.852-6.341 12.419-8.953 17.454-13.608 26.516-23.994 8.417-9.645 13.426-22.56 15.104-36.879L399.5 311v106H254v-52.427z" fill="#4508BD"/><path d="M254 415.6h145.371v18.996c0 2.463-.78 6.385-2.692 9.85-2.043 3.703-3.861 5.606-7.403 7.74-3.535 2.129-7.403 2.814-10.095 2.814H275.537c-1.861 0-7.909-.68-11.442-2.814-4.025-2.433-6.053-4.77-8.076-9.147-1.414-3.06-2.019-6.332-2.019-8.443V415.6z" fill="#4508BD"/><g filter="url(#g)"><rect x="411.865" y="250.143" width="145.134" height="105.143" rx="18" fill="#fff"/></g><path fill-rule="evenodd" clip-rule="evenodd" d="M557 267v65.428s-7.708-31.123-14.473-44.925c-6.765-13.802-15.616-19.756-29.853-28.552l-14.237-8.795h38.369s6.826 0 12.396 3.844c5.57 3.844 7.798 9.5 7.798 13z" fill="#4508BD"/><path fill-rule="evenodd" clip-rule="evenodd" d="m449.549 250.153-3.14 4.38c-3.14 4.381-9.421 13.142-1.57 21.903 7.851 8.761 23.385 17.522 21.815 26.283-1.57 8.761-20.245 17.523-18.675 26.284 1.57 8.761 29.833 17.522 43.965 21.902l14.131 4.381H431.91s-4.009 0-8.686-1.813c-4.677-1.812-6.682-4.229-9.02-7.855-2.339-3.625-2.339-7.854-2.339-7.854v-69.485s0-3.625 1.337-6.646c1.336-3.021 4.009-6.344 8.686-9.063 4.677-2.719 10.913-2.417 10.913-2.417h16.748z" fill="#5C09FF"/><g filter="url(#h)"><rect x="682" y="118" width="556" height="568" rx="50" fill="#4508BD"/></g><rect x="681" y="190" width="558" height="500" rx="50" fill="#fff"/><text fill="#fff" xml:space="preserve" style="white-space:pre" font-family="Montserrat" font-size="40" font-weight="bold" letter-spacing="0em"><tspan x="780.535" y="166.84">Webová aplikace</tspan></text><g filter="url(#i)"><rect x="984.487" y="502.646" width="221.881" height="122.616" rx="20" fill="#fff"/><path fill="url(#j)" d="M1005.6 571.241h20.64v38.157h-20.64z"/><path fill="url(#k)" d="M1045.6 559.682h20.64v49.89h-20.64z"/><path fill="url(#l)" d="M1085.36 548.116H1106v61.736h-20.64z"/><path fill="url(#m)" d="M1125.36 536.332H1146v73.741h-20.64z"/><path fill="url(#n)" d="M1164.86 524.389h20.64v85.745h-20.64z"/></g><g filter="url(#o)"><rect x="816.194" y="254.731" width="389.274" height="106.163" rx="20" fill="#fff"/></g><path fill-rule="evenodd" clip-rule="evenodd" d="m816.194 322.312 7.136-16.076c7.137-16.076 28.006-36.533 42.279-33.318 14.598 3.215 21.204 24.126 35.801 33.772 14.274 9.645 20.772 1.886 35.045-14.19 14.274-16.076 38.368-34.492 52.641-24.846 14.594 9.645 28.874 41.797 43.474 54.658 14.27 12.861 28.87 6.43 43.14 6.43s28.87 6.431 43.14 6.431c14.6 0 28.88-6.431 43.47-16.076 14.28-9.646 28.87-22.507 36.01-28.937l7.14-6.43v59.068s0 4.223-1.52 7.842c-1.52 3.619-2.79 5.429-6.08 7.842-3.29 2.412-7.08 2.412-7.08 2.412H830.368c-1.519 0-5.813-.872-9.59-5.144s-4.586-9.13-4.586-13.654l.002-19.784z" fill="url(#p)" fill-opacity=".85"/><path fill-rule="evenodd" clip-rule="evenodd" d="m1205.47 315.224-6.6 3.177c-6.6 2.78-17.41 15.091-30.61 21.048-12.69 5.957-24.01 8.713-36.7 11.493-13.19 3.177-30.14.818-42.82-.77-13.2-1.589-25.89-4.369-39.08-10.723-12.69-5.957-30.48-10.524-47.69-20.176-11.268-6.32-23.029-21.111-37.203-30.762-10.227-6.963-31.912-10.874-47.077 8.444-7.34 9.35-5.316 12.969-23.845 16.68-12.582 2.52-25.884-4.368-39.08-2.78-12.688 1.192-25.883 7.546-31.974 10.326l-6.598 3.177-.001 18.642c0 3.318.81 8.477 4.586 12.749 3.777 4.273 8.094 5.148 10.095 5.146 2.002-.003 11.204 0 23.892 0H1190.28c2.33 0 4.94-.588 7.59-2.413 2.36-1.615 4.05-3.619 5.57-6.635 1.58-3.136 2.03-6.636 2.03-9.048-.01-6.334 0-27.575 0-27.575z" fill="url(#q)" fill-opacity=".85"/><path fill-rule="evenodd" clip-rule="evenodd" d="m816.194 310.698 6.526 4.086c6.526 4.377 19.578 12.549 32.631 21.012 12.644 8.464 25.696 16.635 38.749 14.009 13.052-2.919 24.279-16.063 37.331-24.234 12.645-8.464 21.14-13.1 34.192-8.722 13.052 4.086 32.487 16.029 45.537 10.484 12.65-5.545 25.7-27.725 38.75-30.643 13.05-2.919 26.11 14.008 39.16 15.467 12.64 1.168 25.69-12.549 38.75-8.463 13.05 4.086 26.1 26.557 39.15 37.647 12.65 11.09 35.97 11.192 35.97 11.41 0 0-1.77 3.619-5.07 5.731-3.29 2.111-5.06 2.412-7.34 2.412H830.884s-5.25.176-10.106-5.144-4.586-12.429-4.586-13.955l.002-31.097z" fill="url(#r)" fill-opacity=".85"/><g filter="url(#s)"><rect x="816.195" y="372" width="156.831" height="253.095" rx="20" fill="#fff"/></g><text fill="#310686" xml:space="preserve" style="white-space:pre" font-family="Montserrat" font-size="11" letter-spacing="0em"><tspan x="905.798" y="422.178">750 Kč</tspan></text><text fill="#310686" xml:space="preserve" style="white-space:pre" font-family="Montserrat" font-size="11" letter-spacing="0em"><tspan x="900.814" y="440.727">1500 Kč</tspan></text><text fill="#310686" xml:space="preserve" style="white-space:pre" font-family="Montserrat" font-size="11" letter-spacing="0em"><tspan x="904.81" y="459.873">200 Kč</tspan></text><text fill="#310686" xml:space="preserve" style="white-space:pre" font-family="Montserrat" font-size="11" letter-spacing="0em"><tspan x="897.738" y="479.232">7000 Kč</tspan></text><text fill="#310686" xml:space="preserve" style="white-space:pre" font-family="Montserrat" font-size="11" letter-spacing="0em"><tspan x="897.792" y="497.941">3000 Kč</tspan></text><text fill="#310686" xml:space="preserve" style="white-space:pre" font-family="Montserrat" font-size="11" letter-spacing="0em"><tspan x="908.362" y="516.49">150 Kč</tspan></text><text fill="#310686" xml:space="preserve" style="white-space:pre" font-family="Montserrat" font-size="11" letter-spacing="0em"><tspan x="907.31" y="535.038">100 Kč</tspan></text><text fill="#310686" xml:space="preserve" style="white-space:pre" font-family="Montserrat" font-size="11" letter-spacing="0em"><tspan x="897.792" y="553.586">2000 Kč</tspan></text><text fill="#310686" xml:space="preserve" style="white-space:pre" font-family="Montserrat" font-size="11" letter-spacing="0em"><tspan x="904.269" y="572.135">800 Kč</tspan></text><text fill="#310686" xml:space="preserve" style="white-space:pre" font-family="Montserrat" font-size="11" letter-spacing="0em"><tspan x="897.298" y="590.683">6000 Kč</tspan></text><text fill="#310686" xml:space="preserve" style="white-space:pre" font-family="Montserrat" font-size="15" font-weight="500" letter-spacing="0em"><tspan x="902.453" y="401.934">Cena</tspan></text><text fill="#310686" xml:space="preserve" style="white-space:pre" font-family="Montserrat" font-size="11" letter-spacing="0em"><tspan x="839.117" y="423.728">Item 1</tspan></text><text fill="#310686" xml:space="preserve" style="white-space:pre" font-family="Montserrat" font-size="15" font-weight="500" letter-spacing="0em"><tspan x="839.118" y="401.934">Název</tspan></text><text fill="#310686" xml:space="preserve" style="white-space:pre" font-family="Montserrat" font-size="11" letter-spacing="0em"><tspan x="839.117" y="442.423">Item 2</tspan></text><text fill="#310686" xml:space="preserve" style="white-space:pre" font-family="Montserrat" font-size="11" letter-spacing="0em"><tspan x="839.117" y="461.117">Item 3</tspan></text><text fill="#310686" xml:space="preserve" style="white-space:pre" font-family="Montserrat" font-size="11" letter-spacing="0em"><tspan x="839.117" y="479.811">Item 4</tspan></text><text fill="#310686" xml:space="preserve" style="white-space:pre" font-family="Montserrat" font-size="11" letter-spacing="0em"><tspan x="839.117" y="498.52">Item 5</tspan></text><text fill="#310686" xml:space="preserve" style="white-space:pre" font-family="Montserrat" font-size="11" letter-spacing="0em"><tspan x="839.117" y="517.068">Item 6</tspan></text><text fill="#310686" xml:space="preserve" style="white-space:pre" font-family="Montserrat" font-size="11" letter-spacing="0em"><tspan x="839.117" y="535.617">Item 7</tspan></text><text fill="#310686" xml:space="preserve" style="white-space:pre" font-family="Montserrat" font-size="11" letter-spacing="0em"><tspan x="839.117" y="554.165">Item 8</tspan></text><text fill="#310686" xml:space="preserve" style="white-space:pre" font-family="Montserrat" font-size="11" letter-spacing="0em"><tspan x="839.117" y="572.713">Item 9</tspan></text><text fill="#310686" xml:space="preserve" style="white-space:pre" font-family="Montserrat" font-size="11" letter-spacing="0em"><tspan x="839.117" y="591.262">Item 10</tspan></text><g filter="url(#t)"><path d="M704 276.731c0-12.15 9.85-22 22-22h67.94c6.628 0 12 5.373 12 12v336.364c0 12.15-9.849 22-22 22H726c-12.15 0-22-9.85-22-22V276.731z" fill="#4508BD"/><text fill="#fff" xml:space="preserve" style="white-space:pre" font-family="Montserrat" font-size="15" letter-spacing="0em"><tspan x="718" y="335.377">Správa</tspan></text><path d="M704.129 347.525h101.805v30.234H704.129v-30.234z" fill="#5C09FF"/><text fill="#fff" xml:space="preserve" style="white-space:pre" font-family="Montserrat" font-size="15" letter-spacing="0em"><tspan x="718" y="367.78">Databáze</tspan></text><text fill="#fff" xml:space="preserve" style="white-space:pre" font-family="Montserrat" font-size="15" letter-spacing="0em"><tspan x="718" y="397.097">Role </tspan></text><text fill="#fff" xml:space="preserve" style="white-space:pre" font-family="Montserrat" font-size="9" letter-spacing="0em"><tspan x="725.716" y="584.691">Configurations</tspan></text><text fill="#fff" xml:space="preserve" style="white-space:pre" font-family="Montserrat" font-size="9" letter-spacing="0em"><tspan x="725.716" y="570.204">Documentation</tspan></text><text fill="#fff" xml:space="preserve" style="white-space:pre" font-family="Montserrat" font-size="9" letter-spacing="0em"><tspan x="725.716" y="599.178">Help</tspan></text><path d="m720.171 582.215-.812-.5a4.164 4.164 0 0 0 0-1.426l.812-.5a.254.254 0 0 0 .105-.285 5.17 5.17 0 0 0-1.042-1.922.22.22 0 0 0-.282-.047l-.812.5a3.556 3.556 0 0 0-1.159-.713v-.998a.24.24 0 0 0-.179-.237 4.488 4.488 0 0 0-2.081 0 .24.24 0 0 0-.179.237v1a3.665 3.665 0 0 0-1.158.713l-.81-.5a.218.218 0 0 0-.282.047 5.127 5.127 0 0 0-1.043 1.922.252.252 0 0 0 .105.285l.812.5a4.164 4.164 0 0 0 0 1.426l-.812.5a.254.254 0 0 0-.105.284 5.143 5.143 0 0 0 1.043 1.922c.072.084.19.104.282.047l.811-.5a3.55 3.55 0 0 0 1.159.713v1a.24.24 0 0 0 .179.238c.7.166 1.416.158 2.081 0a.24.24 0 0 0 .179-.238v-1c.423-.16.816-.402 1.159-.713l.812.5a.216.216 0 0 0 .282-.047c.47-.542.83-1.196 1.042-1.922a.258.258 0 0 0-.107-.286zm-4.409.412c-.841 0-1.525-.729-1.525-1.625s.684-1.626 1.525-1.626c.84 0 1.524.73 1.524 1.626 0 .896-.684 1.625-1.524 1.625zM720.89 596.121c0 2.783-2.161 5.039-4.826 5.039-2.665 0-4.825-2.256-4.825-5.039 0-2.782 2.16-5.039 4.825-5.039s4.826 2.257 4.826 5.039zm-4.696-3.373c-1.061 0-1.737.466-2.268 1.295a.252.252 0 0 0 .053.331l.675.534c.101.08.246.061.324-.043.348-.46.586-.727 1.115-.727.398 0 .889.267.889.669 0 .305-.24.461-.633.691-.457.268-1.063.601-1.063 1.435v.082c0 .134.105.243.234.243h1.089a.239.239 0 0 0 .234-.243v-.027c0-.579 1.618-.603 1.618-2.168 0-1.178-1.17-2.072-2.267-2.072zm-.13 5.039c-.493 0-.895.419-.895.934 0 .516.402.935.895.935.494 0 .895-.419.895-.935 0-.515-.401-.934-.895-.934zM716.416 564.784v-2.676h-4.084a.48.48 0 0 0-.49.472v9.133a.48.48 0 0 0 .49.472h6.861a.48.48 0 0 0 .49-.472v-6.456h-2.777a.483.483 0 0 1-.49-.473zm1.307 4.646c0 .13-.111.236-.245.236h-3.431a.241.241 0 0 1-.245-.236v-.158c0-.13.11-.236.245-.236h3.431c.134 0 .245.106.245.236v.158zm0-1.26c0 .13-.111.236-.245.236h-3.431a.241.241 0 0 1-.245-.236v-.157c0-.13.11-.237.245-.237h3.431c.134 0 .245.107.245.237v.157zm0-1.417v.157c0 .13-.111.237-.245.237h-3.431a.242.242 0 0 1-.245-.237v-.157c0-.13.11-.236.245-.236h3.431c.134 0 .245.106.245.236zm1.96-2.246v.12h-2.614v-2.519h.125a.5.5 0 0 1 .347.137l1.999 1.929a.464.464 0 0 1 .143.333z" fill="#fff"/><path d="M704 276.446c0-11.993 9.722-21.715 21.715-21.715h68.225c6.628 0 12 5.373 12 12v9.715H704z" fill="#310686"/><g filter="url(#u)"><path d="M781.813 266.795c0-6.662 5.401-12.064 12.064-12.064s12.064 5.402 12.064 12.064v9.651h-24.128v-9.651z" fill="#5C09FF"/></g><text fill="#fff" xml:space="preserve" style="white-space:pre" font-family="Montserrat" font-size="14" letter-spacing="0em"><tspan x="724.406" y="271.478">Admin</tspan></text><path d="M793.576 258.35a8.144 8.144 0 1 0 0 16.289 8.144 8.144 0 0 0 0-16.289zm0 2.435a2.694 2.694 0 1 1 0 5.389 2.694 2.694 0 0 1 0-5.389zm-.002 11.723a5.98 5.98 0 0 1-3.892-1.435 1.151 1.151 0 0 1-.403-.873 2.717 2.717 0 0 1 2.73-2.716h3.134a2.713 2.713 0 0 1 2.725 2.716c0 .336-.146.654-.402.872a5.975 5.975 0 0 1-3.892 1.436z" fill="#fff"/></g><g filter="url(#v)"><rect x="984.179" y="372.213" width="221.977" height="121.846" rx="20" fill="#fff"/><circle cx="1138.6" cy="433.136" r="48.256" fill="#310686"/><path d="m1149.46 480.185-10.86-47.049h48.25c0 26.651-20.2 43.43-37.39 47.049z" fill="#1E005A"/><path d="M1138.6 384.88v48.256l-36.19-31.97c1.81-1.508 12.97-15.984 36.19-16.286zM1010.12 393.928h71.781v4.125h-71.781zM1010.12 402.177h63.336v4.125h-63.336zM1010.12 410.426h68.161v4.125h-68.161zM1010.12 418.676h57.907v4.125h-57.907zM1010.12 426.925h50.669v4.125h-50.669zM1010.12 435.175h41.017v4.125h-41.017zM1010.12 443.41l45.66.026-.002 4.125-45.66-.026zM1010.12 451.673l59.364.034-.002 4.125-59.364-.034zM1010.12 459.937l51.387.03-.002 4.125-51.387-.03zM1010.12 468.202l30.906.018-.002 4.125-30.906-.018z" fill="#5C09FF"/></g><g filter="url(#w)"><rect x="1310" y="63" width="555" height="567" rx="50" fill="#4508BD"/></g><rect x="1309" y="135" width="558" height="500" rx="50" fill="#fff"/><text fill="#fff" xml:space="preserve" style="white-space:pre" font-family="Montserrat" font-size="40" font-weight="bold" letter-spacing="0em"><tspan x="1461.95" y="111.84">Ecommerce</tspan></text><g filter="url(#x)"><rect x="1710.01" y="460.52" width="98.547" height="128.54" rx="15" fill="#fff"/><path d="M1710.01 475.52c0-8.284 6.71-15 15-15h68.55c8.28 0 15 6.716 15 15v68.551h-98.55V475.52z" fill="#4508BD"/><text fill="#4508BD" xml:space="preserve" style="white-space:pre" font-family="Montserrat" font-size="17" letter-spacing="0em"><tspan x="1722.15" y="562.808">Item 6</tspan></text><text fill="#4508BD" xml:space="preserve" style="white-space:pre" font-family="Montserrat" font-size="10" letter-spacing="0em"><tspan x="1723.58" y="575.794">3000 Kč</tspan></text><path d="M1780.37 482.297h-42.49c-2.35 0-4.25 2.141-4.25 4.779v31.864c0 2.639 1.9 4.78 4.25 4.78h16.99l-1.41 4.78h-6.37c-1.18 0-2.13 1.065-2.13 2.389 0 1.325.95 2.39 2.13 2.39h24.07c1.18 0 2.12-1.065 2.12-2.39 0-1.324-.94-2.389-2.12-2.389h-6.37l-1.42-4.78h17c2.34 0 4.24-2.141 4.24-4.78v-31.864c0-2.638-1.9-4.779-4.24-4.779zm-1.42 35.05h-39.65V488.67h39.65v28.677z" fill="#fff"/></g><g filter="url(#y)"><rect x="1581.47" y="460.52" width="98.547" height="128.54" rx="15" fill="#fff"/><path d="M1581.47 475.52c0-8.284 6.71-15 15-15h68.55c8.28 0 15 6.716 15 15v68.551h-98.55V475.52z" fill="#5C09FF"/><text fill="#4508BD" xml:space="preserve" style="white-space:pre" font-family="Montserrat" font-size="17" letter-spacing="0em"><tspan x="1593.61" y="562.808">Item 5</tspan></text><text fill="#4508BD" xml:space="preserve" style="white-space:pre" font-family="Montserrat" font-size="10" letter-spacing="0em"><tspan x="1595.04" y="575.793">1200 Kč</tspan></text><path d="M1617.43 486.046c0-4.358 4.55-2.795 4.55 1.563v11.45a2.73 2.73 0 1 0 5.46 0v-20.123a2.73 2.73 0 1 1 5.46 0v20.123a2.736 2.736 0 0 0 5.47 0v-11.45c0-4.358 4.55-5.921 4.55-1.563v13.013a2.73 2.73 0 1 0 5.46 0v-13.013c0-8.697-6.52-15.745-14.57-15.745h-7.28c-8.05 0-14.57 7.048-14.57 15.745v13.013a2.736 2.736 0 0 0 5.47 0v-13.013zm38.04 26.31-1.22-3.936c-.5-1.611-1.89-2.694-3.46-2.694h-41.25c-1.57 0-2.96 1.083-3.46 2.694l-1.22 3.936c-1.16 3.812 3.46 8.408 3.46 12.392v6.563c0 1.083.82 1.968 1.82 1.968h3.64c1.01 0 1.82-.885 1.82-1.968 0-7.608 6.17-13.776 13.78-13.776h1.58c7.61 0 13.78 6.168 13.78 13.776 0 1.083.82 1.968 1.82 1.968h3.64c1 0 1.82-.885 1.82-1.968v-6.564c0-3.983 4.62-8.585 3.45-12.391z" fill="#fff"/></g><g filter="url(#z)"><rect x="1452.93" y="460.52" width="98.547" height="128.54" rx="15" fill="#fff"/><path d="M1452.93 475.52c0-8.284 6.71-15 15-15h68.55c8.28 0 15 6.716 15 15v68.551h-98.55V475.52z" fill="#310686"/><text fill="#4508BD" xml:space="preserve" style="white-space:pre" font-family="Montserrat" font-size="17" letter-spacing="0em"><tspan x="1465.07" y="562.808">Item 4</tspan></text><text fill="#4508BD" xml:space="preserve" style="white-space:pre" font-family="Montserrat" font-size="10" letter-spacing="0em"><tspan x="1466.5" y="575.793">1500 Kč</tspan></text><path d="M1490.74 483.991c-1.13-1.773-3.71-2.27-5.38-.936-5.52 4.411-9.04 10.993-9.04 18.361h25.49l-11.07-17.425zm34.97 7.866h-4.78a6.373 6.373 0 0 0-6.37 6.373v6.372h-38.24c0 5.039 2.29 9.599 6 13.014-3.44.887-6 3.983-6 7.697a7.968 7.968 0 0 0 7.97 7.966 7.96 7.96 0 0 0 7.96-7.966c0-.886-.18-1.712-.44-2.509a25.822 25.822 0 0 0 13.63 0c-.27.797-.44 1.623-.44 2.509a7.96 7.96 0 0 0 7.96 7.966c4.41 0 7.97-3.565 7.97-7.966 0-3.714-2.56-6.81-6-7.697 3.71-3.415 6-7.975 6-13.014v-6.372h4.78c.88 0 1.59-.717 1.59-1.594v-3.186c0-.876-.71-1.593-1.59-1.593zm-41.42 36.643a3.194 3.194 0 0 1-3.19-3.187 3.194 3.194 0 0 1 3.19-3.186c1.75 0 3.18 1.434 3.18 3.186a3.192 3.192 0 0 1-3.18 3.187zm31.86-3.187a3.194 3.194 0 0 1-3.19 3.187 3.192 3.192 0 0 1-3.18-3.187 3.192 3.192 0 0 1 3.18-3.186c1.76 0 3.19 1.434 3.19 3.186z" fill="#fff"/></g><g filter="url(#A)"><rect x="1710.01" y="300.56" width="98.547" height="128.54" rx="15" fill="#fff"/><path d="M1710.01 315.56c0-8.284 6.71-15 15-15h68.55c8.28 0 15 6.716 15 15v68.551h-98.55V315.56z" fill="#5C09FF"/><text fill="#4508BD" xml:space="preserve" style="white-space:pre" font-family="Montserrat" font-size="17" letter-spacing="0em"><tspan x="1722.15" y="402.847">Item 3</tspan></text><text fill="#4508BD" xml:space="preserve" style="white-space:pre" font-family="Montserrat" font-size="10" letter-spacing="0em"><tspan x="1723.58" y="415.833">2000 Kč</tspan></text><path d="M1738.41 323.952c-2.64 0-4.78 2.112-4.78 4.715v34.576c0 2.603 2.14 4.714 4.78 4.714h41.42c2.64 0 4.78-2.111 4.78-4.714v-34.576c0-2.603-2.14-4.715-4.78-4.715h-41.42zm0 3.143h10.56c.32 0 .59.265.59.589v1.965c0 .324-.27.589-.59.589h-11.55c-.33 0-.6-.265-.6-.589v-.982c0-.865.72-1.572 1.59-1.572zm42.42 9.43h-43.41c-.33 0-.6-.265-.6-.59v-3.536c0-.324.27-.589.6-.589h13.74l3-4.45c.11-.167.3-.265.5-.265h25.17c.88 0 1.6.707 1.6 1.572v7.268c0 .325-.27.59-.6.59zm-21.71 25.932c-6.59 0-11.95-5.285-11.95-11.788 0-6.502 5.36-11.787 11.95-11.787 6.59 0 11.95 5.285 11.95 11.787 0 6.503-5.36 11.788-11.95 11.788zm0-20.432c-4.83 0-8.76 3.88-8.76 8.644 0 4.765 3.93 8.644 8.76 8.644s8.77-3.879 8.77-8.644c0-4.764-3.94-8.644-8.77-8.644zm-4.78 10.216c-.87 0-1.59-.707-1.59-1.572 0-3.467 2.86-6.286 6.37-6.286.88 0 1.6.707 1.6 1.572 0 .864-.72 1.571-1.6 1.571-1.75 0-3.18 1.415-3.18 3.143 0 .865-.72 1.572-1.6 1.572z" fill="#fff"/></g><g filter="url(#B)"><rect x="1581.47" y="300.56" width="98.547" height="128.54" rx="15" fill="#fff"/><path d="M1581.47 315.56c0-8.284 6.71-15 15-15h68.55c8.28 0 15 6.716 15 15v68.551h-98.55V315.56z" fill="#310686"/><text fill="#4508BD" xml:space="preserve" style="white-space:pre" font-family="Montserrat" font-size="17" letter-spacing="0em"><tspan x="1593.61" y="402.847">Item 2</tspan></text><text fill="#4508BD" xml:space="preserve" style="white-space:pre" font-family="Montserrat" font-size="10" letter-spacing="0em"><tspan x="1595.04" y="415.833">150 Kč</tspan></text><path d="M1642.92 332.349h-25.5c-2.1-.001-4.17.553-6.02 1.61a13.06 13.06 0 0 0-4.59 4.452 14.107 14.107 0 0 0-2.08 6.236c-.19 2.229.13 4.475.94 6.54a13.429 13.429 0 0 0 3.73 5.291 12.357 12.357 0 0 0 5.63 2.788c2.06.421 4.19.291 6.2-.378 2-.669 3.82-1.855 5.29-3.454h7.29a12.622 12.622 0 0 0 5.3 3.454c2 .668 4.13.799 6.2.378 2.06-.42 3.99-1.377 5.63-2.786a13.507 13.507 0 0 0 3.72-5.291c.82-2.064 1.14-4.31.94-6.539-.2-2.228-.91-4.371-2.07-6.235a13.063 13.063 0 0 0-4.59-4.453 12.118 12.118 0 0 0-6.02-1.613zm-18.49 14.598c0 .27-.1.529-.28.72a.921.921 0 0 1-.67.298h-4.15v4.413c0 .271-.1.53-.28.721a.905.905 0 0 1-.67.298h-1.91c-.26 0-.5-.107-.68-.298a1.05 1.05 0 0 1-.28-.721v-4.413h-4.14c-.25 0-.5-.107-.68-.298a1.05 1.05 0 0 1-.28-.72v-2.037c0-.27.1-.529.28-.72a.944.944 0 0 1 .68-.299h4.14v-4.413c0-.27.1-.529.28-.72a.926.926 0 0 1 .68-.298h1.91c.25 0 .5.107.67.298.18.191.28.45.28.72v4.413h4.15c.25 0 .49.108.67.299.18.191.28.45.28.72v2.037zm17.21 6.45a3.04 3.04 0 0 1-1.77-.572 3.388 3.388 0 0 1-1.18-1.524c-.24-.62-.3-1.303-.18-1.961.13-.659.43-1.264.88-1.738a3.098 3.098 0 0 1 1.63-.93 3.006 3.006 0 0 1 1.84.194c.58.257 1.08.692 1.43 1.25.35.558.53 1.215.53 1.886 0 .9-.33 1.764-.93 2.401-.6.636-1.41.994-2.25.994zm5.1-8.148a3.04 3.04 0 0 1-1.77-.572 3.323 3.323 0 0 1-1.18-1.523 3.643 3.643 0 0 1-.18-1.962 3.49 3.49 0 0 1 .87-1.738 3.174 3.174 0 0 1 1.63-.929 3.037 3.037 0 0 1 1.85.193c.58.257 1.08.692 1.43 1.25.35.559.53 1.215.53 1.886 0 .901-.33 1.764-.93 2.401-.6.637-1.41.994-2.25.994z" fill="#fff"/></g><g filter="url(#C)"><rect x="1452.93" y="300.56" width="98.547" height="128.54" rx="15" fill="#fff"/><path d="M1452.93 315.56c0-8.285 6.71-15 15-15h68.55c8.28 0 15 6.715 15 15v68.55h-98.55v-68.55z" fill="#4508BD"/></g><text fill="#4508BD" xml:space="preserve" style="white-space:pre" font-family="Montserrat" font-size="17" letter-spacing="0em"><tspan x="1465.07" y="402.847">Item 1</tspan></text><text fill="#4508BD" xml:space="preserve" style="white-space:pre" font-family="Montserrat" font-size="10" letter-spacing="0em"><tspan x="1466.5" y="415.833">200 Kč</tspan></text><path d="M1525.81 322.13a5.415 5.415 0 0 0-3.83-3.844 46.09 46.09 0 0 0-10.77-1.532l16.09 16.117a45.934 45.934 0 0 0-1.49-10.741zm-48 40.231a5.43 5.43 0 0 0 3.84 3.844c2.45.658 6.29 1.439 10.77 1.532l-16.1-16.117c.08 4.471.84 8.284 1.49 10.741zm-1.06-17.299 22.23 22.263c13.61-1.994 25.57-12.2 27.9-27.896l-22.23-22.264c-13.62 1.994-25.57 12.201-27.9 27.897zm32.62-12.705a.824.824 0 0 1 1.16 0l1.16 1.162c.32.318.32.843 0 1.161l-2.91 2.909 2.91 2.909c.32.319.32.843 0 1.162l-1.16 1.161a.823.823 0 0 1-1.16 0l-2.91-2.909-2.32 2.333 2.9 2.909c.32.319.32.843 0 1.162l-1.16 1.161a.823.823 0 0 1-1.16 0l-2.91-2.909-2.32 2.323 2.91 2.909c.32.319.32.843 0 1.162l-1.16 1.161a.823.823 0 0 1-1.16 0l-2.91-2.909-2.91 2.909a.823.823 0 0 1-1.16 0l-1.17-1.161a.842.842 0 0 1 0-1.162l2.91-2.909-2.91-2.898a.842.842 0 0 1 0-1.162l1.17-1.161a.823.823 0 0 1 1.16 0l2.91 2.909 2.32-2.323-2.91-2.909a.823.823 0 0 1 0-1.162l1.16-1.161a.823.823 0 0 1 1.16 0l2.91 2.909 2.33-2.323-2.91-2.909a.823.823 0 0 1 0-1.162l1.16-1.161a.823.823 0 0 1 1.16 0l2.91 2.909 2.91-2.93z" fill="#fff"/><g filter="url(#D)"><rect x="1449" y="246" width="361.675" height="25.791" rx="12.896" fill="#fff"/></g><rect x="1685.76" y="251.998" width="116.927" height="13.795" rx="6.898" fill="#4508BD"/><path d="m1786.82 262.24 2.14-1.947c.1-.088.23-.137.37-.137h.35c-.59-.689-.95-1.556-.95-2.499 0-2.244 2-4.063 4.47-4.063 2.47 0 4.47 1.819 4.47 4.063 0 2.243-2 4.062-4.47 4.062-1.04 0-1.99-.321-2.75-.86v.319c0 .125-.05.244-.15.332l-2.14 1.947a.554.554 0 0 1-.73 0l-.61-.553a.442.442 0 0 1 0-.664zm6.38-2.084c1.52 0 2.75-1.117 2.75-2.499 0-1.381-1.23-2.5-2.75-2.5s-2.75 1.117-2.75 2.5c0 1.38 1.23 2.499 2.75 2.499z" fill="#fff"/><path stroke="#fff" stroke-width=".5" d="M1698.11 263.144h85.69"/><text fill="#4508BD" xml:space="preserve" style="white-space:pre" font-family="Montserrat" font-size="15" letter-spacing="0em"><tspan x="1466.43" y="265.176">Filtry</tspan></text><path d="m1519.54 257.705 1.84-2.097c.36-.374.1-1.014-.41-1.014h-8.72c-.51 0-.77.64-.41 1.014l3.32 3.785v2.922c0 .236.11.458.29.6l1.45 1.125c.38.293.88.13 1.08-.255a3.608 3.608 0 0 1-1.08-2.593c0-1.683 1.13-3.096 2.64-3.487zm.85.488c-1.61 0-2.91 1.343-2.91 2.999 0 1.657 1.3 2.999 2.91 2.999 1.6 0 2.9-1.342 2.9-2.999 0-1.656-1.3-2.999-2.9-2.999zm.29 4.496v.303c0 .082-.07.149-.15.149h-.29c-.08 0-.14-.067-.14-.149v-.306a.995.995 0 0 1-.57-.213.149.149 0 0 1-.01-.227l.21-.21c.05-.05.12-.052.18-.014.07.045.15.07.24.07h.51c.11 0 .21-.111.21-.247 0-.112-.06-.21-.16-.239l-.82-.253c-.33-.105-.57-.439-.57-.813 0-.46.35-.833.78-.845v-.302c0-.083.06-.15.14-.15h.29c.08 0 .15.067.15.15v.305c.2.011.4.085.57.213.07.055.07.164.01.227l-.22.211c-.05.049-.12.051-.18.013a.428.428 0 0 0-.23-.07h-.51c-.12 0-.22.111-.22.248 0 .111.07.209.16.238l.82.253c.34.105.57.439.57.814 0 .459-.34.833-.77.844z" fill="#4508BD"/><g filter="url(#E)"><rect x="1346" y="246" width="89" height="343" rx="15" fill="#fff"/><rect x="1352.99" y="253.487" width="74.374" height="27.59" rx="7" fill="#4508BD"/><text fill="#fff" xml:space="preserve" style="white-space:pre" font-family="Montserrat" font-size="9" letter-spacing="0em"><tspan x="1361.99" y="265.812">Cena</tspan></text><path stroke="#fff" stroke-width="2" d="M1364.99 272.28h50.38"/><circle cx="1364.99" cy="272.68" r="2.999" fill="#fff"/><circle cx="1364.99" cy="272.68" r="2.999" fill="#fff"/><circle cx="1414.77" cy="272.68" r="2.999" fill="#fff"/><circle cx="1414.77" cy="272.68" r="2.999" fill="#fff"/><rect x="1352.99" y="286.475" width="74.374" height="41.986" rx="7" fill="#4508BD"/><text fill="#fff" xml:space="preserve" style="white-space:pre" font-family="Montserrat" font-size="9" letter-spacing="0em"><tspan x="1360.79" y="297.001">Dostupnost</tspan></text><text fill="#fff" xml:space="preserve" style="white-space:pre" font-family="Montserrat" font-size="6" letter-spacing="0em"><tspan x="1371.58" y="305.322">Skladem</tspan></text><text fill="#fff" xml:space="preserve" style="white-space:pre" font-family="Montserrat" font-size="6" letter-spacing="0em"><tspan x="1370.98" y="313.119">Rychlé dodání</tspan></text><text fill="#fff" xml:space="preserve" style="white-space:pre" font-family="Montserrat" font-size="6" letter-spacing="0em"><tspan x="1371.58" y="321.516">Výdejna</tspan></text><rect x="1361.99" y="300.271" width="5.998" height="5.998" rx="2" fill="#fff"/><rect x="1361.99" y="300.271" width="5.998" height="5.998" rx="2" fill="#fff"/><rect x="1361.99" y="300.271" width="5.998" height="5.998" rx="2" fill="#fff"/><rect x="1361.99" y="308.668" width="5.998" height="5.998" rx="2" fill="#fff"/><rect x="1361.99" y="308.668" width="5.998" height="5.998" rx="2" fill="#fff"/><rect x="1361.99" y="308.668" width="5.998" height="5.998" rx="2" fill="#fff"/><rect x="1361.99" y="316.465" width="5.998" height="5.998" rx="2" fill="#fff"/><rect x="1361.99" y="316.465" width="5.998" height="5.998" rx="2" fill="#fff"/><rect x="1361.99" y="316.465" width="5.998" height="5.998" rx="2" fill="#fff"/><rect x="1352.99" y="335.658" width="74.374" height="41.986" rx="7" fill="#4508BD"/><text fill="#fff" xml:space="preserve" style="white-space:pre" font-family="Montserrat" font-size="9" letter-spacing="0em"><tspan x="1361.99" y="346.184">Výrobce</tspan></text><text fill="#fff" xml:space="preserve" style="white-space:pre" font-family="Montserrat" font-size="6" letter-spacing="0em"><tspan x="1371.58" y="354.505">Výrobce 1</tspan></text><text fill="#fff" xml:space="preserve" style="white-space:pre" font-family="Montserrat" font-size="6" letter-spacing="0em"><tspan x="1370.98" y="362.302">Výrobce 2</tspan></text><text fill="#fff" xml:space="preserve" style="white-space:pre" font-family="Montserrat" font-size="6" letter-spacing="0em"><tspan x="1371.58" y="370.699">Výrobce 3</tspan></text><rect x="1361.99" y="349.454" width="5.998" height="5.998" rx="2" fill="#fff"/><rect x="1361.99" y="349.454" width="5.998" height="5.998" rx="2" fill="#fff"/><rect x="1361.99" y="349.454" width="5.998" height="5.998" rx="2" fill="#fff"/><rect x="1361.99" y="357.851" width="5.998" height="5.998" rx="2" fill="#fff"/><rect x="1361.99" y="357.851" width="5.998" height="5.998" rx="2" fill="#fff"/><rect x="1361.99" y="357.851" width="5.998" height="5.998" rx="2" fill="#fff"/><rect x="1361.99" y="365.648" width="5.998" height="5.998" rx="2" fill="#fff"/><rect x="1361.99" y="365.648" width="5.998" height="5.998" rx="2" fill="#fff"/><rect x="1361.99" y="365.648" width="5.998" height="5.998" rx="2" fill="#fff"/><rect x="1352.99" y="384.841" width="74.374" height="57.58" rx="7" fill="#4508BD"/><text fill="#fff" xml:space="preserve" style="white-space:pre" font-family="Montserrat" font-size="9" letter-spacing="0em"><tspan x="1360.79" y="395.967">Hodnocení</tspan></text><rect x="1361.99" y="398.637" width="5.998" height="5.998" rx="2" fill="#fff"/><rect x="1361.99" y="398.637" width="5.998" height="5.998" rx="2" fill="#fff"/><rect x="1361.99" y="398.637" width="5.998" height="5.998" rx="2" fill="#fff"/><rect x="1361.99" y="407.034" width="5.998" height="5.998" rx="2" fill="#fff"/><rect x="1361.99" y="407.034" width="5.998" height="5.998" rx="2" fill="#fff"/><rect x="1361.99" y="407.034" width="5.998" height="5.998" rx="2" fill="#fff"/><rect x="1361.99" y="414.831" width="5.998" height="5.998" rx="2" fill="#fff"/><rect x="1361.99" y="414.831" width="5.998" height="5.998" rx="2" fill="#fff"/><rect x="1361.99" y="414.831" width="5.998" height="5.998" rx="2" fill="#fff"/><rect x="1361.99" y="423.228" width="5.998" height="5.998" rx="2" fill="#fff"/><rect x="1361.99" y="423.228" width="5.998" height="5.998" rx="2" fill="#fff"/><rect x="1361.99" y="423.228" width="5.998" height="5.998" rx="2" fill="#fff"/><rect x="1361.99" y="431.625" width="5.998" height="5.998" rx="2" fill="#fff"/><rect x="1361.99" y="431.625" width="5.998" height="5.998" rx="2" fill="#fff"/><rect x="1361.99" y="431.625" width="5.998" height="5.998" rx="2" fill="#fff"/><path d="m1374.93 423.395-.59 1.241-1.31.199c-.23.036-.33.339-.16.512l.95.965-.22 1.364c-.04.246.2.431.41.315l1.17-.643 1.18.643c.2.115.45-.069.41-.315l-.22-1.364.95-.965c.17-.173.07-.476-.16-.512l-1.31-.199-.59-1.241a.278.278 0 0 0-.51 0zM1380.92 423.395l-.58 1.241-1.31.199c-.24.036-.33.339-.16.512l.95.965-.23 1.364c-.04.246.21.431.42.315l1.17-.643 1.17.643c.21.115.46-.069.42-.315l-.22-1.364.94-.965c.17-.173.08-.476-.16-.512l-1.31-.199-.58-1.241a.286.286 0 0 0-.52 0z" fill="#FFCD00"/><path d="m1386.92 423.395-.58 1.241-1.31.199c-.24.036-.33.339-.16.512l.95.965-.23 1.364c-.04.246.21.431.42.315l1.17-.643 1.17.643c.21.115.46-.069.42-.315l-.23-1.364.95-.965c.17-.173.08-.476-.16-.512l-1.31-.199-.58-1.241a.286.286 0 0 0-.52 0zM1392.92 423.395l-.59 1.241-1.31.199c-.23.036-.33.338-.16.512l.95.965-.22 1.363c-.04.247.21.431.41.316l1.18-.644 1.17.644c.21.114.46-.069.42-.316l-.23-1.363.95-.965c.17-.174.08-.476-.16-.512l-1.31-.199-.59-1.241c-.1-.221-.4-.224-.51 0zM1398.92 423.395l-.59 1.241-1.31.199c-.23.036-.33.338-.16.512l.95.965-.22 1.363c-.04.247.2.431.41.316l1.18-.644 1.17.644c.21.114.45-.069.41-.316l-.22-1.363.95-.965c.17-.174.07-.476-.16-.512l-1.31-.199-.59-1.241a.278.278 0 0 0-.51 0z" fill="#fff"/><path d="m1374.93 414.998-.59 1.241-1.31.199c-.23.036-.33.338-.16.512l.95.965-.22 1.363c-.04.247.2.431.41.316l1.17-.644 1.18.644c.2.115.45-.069.41-.316l-.22-1.363.95-.965c.17-.174.07-.476-.16-.512l-1.31-.199-.59-1.241a.278.278 0 0 0-.51 0zM1380.92 414.998l-.58 1.241-1.31.199c-.24.036-.33.338-.16.512l.95.965-.23 1.363c-.04.247.21.431.42.316l1.17-.644 1.17.644c.21.115.46-.069.42-.316l-.22-1.363.94-.965c.17-.174.08-.476-.16-.512l-1.31-.199-.58-1.241a.286.286 0 0 0-.52 0zM1386.92 414.998l-.58 1.241-1.31.199c-.24.036-.33.339-.16.512l.95.965-.23 1.363c-.04.247.21.432.42.316l1.17-.643 1.17.643c.21.115.46-.069.42-.316l-.23-1.363.95-.965c.17-.173.08-.476-.16-.512l-1.31-.199-.58-1.241a.286.286 0 0 0-.52 0z" fill="#FFCD00"/><path d="m1392.92 414.998-.59 1.24-1.31.2c-.23.036-.33.338-.16.512l.95.965-.22 1.363c-.04.247.21.431.41.316l1.18-.644 1.17.644c.21.114.46-.069.42-.316l-.23-1.363.95-.965c.17-.174.08-.476-.16-.512l-1.31-.2-.59-1.24c-.1-.221-.4-.224-.51 0zM1398.92 414.998l-.59 1.24-1.31.2c-.23.036-.33.338-.16.512l.95.965-.22 1.363c-.04.247.2.431.41.316l1.18-.644 1.17.644c.21.114.45-.069.41-.316l-.22-1.363.95-.965c.17-.174.07-.476-.16-.512l-1.31-.2-.59-1.24a.278.278 0 0 0-.51 0z" fill="#fff"/><path d="m1374.93 398.804-.59 1.24-1.31.2c-.24.036-.33.338-.16.512l.95.965-.23 1.363c-.04.247.21.431.42.316l1.17-.644 1.18.644c.2.114.45-.069.41-.316l-.22-1.363.95-.965c.17-.174.07-.476-.16-.512l-1.31-.2-.59-1.24a.278.278 0 0 0-.51 0zM1380.92 398.804l-.58 1.24-1.31.2c-.24.035-.33.338-.16.511l.95.966-.23 1.363c-.04.246.21.431.42.316l1.17-.644 1.17.644c.21.114.46-.07.42-.316l-.22-1.363.94-.966c.17-.173.08-.476-.16-.511l-1.31-.2-.58-1.24a.286.286 0 0 0-.52 0zM1386.92 398.804l-.58 1.24-1.31.2c-.24.035-.33.338-.16.511l.95.966-.23 1.363c-.04.247.21.431.42.316l1.17-.644 1.17.644c.21.114.46-.069.42-.316l-.23-1.363.95-.966c.17-.173.08-.476-.16-.511l-1.31-.2-.58-1.24a.286.286 0 0 0-.52 0zM1374.93 431.792l-.59 1.241-1.31.199c-.23.036-.33.339-.16.512l.95.965-.22 1.364c-.04.246.2.431.41.315l1.17-.643 1.18.643c.2.115.45-.069.41-.315l-.22-1.364.95-.965c.17-.173.07-.476-.16-.512l-1.31-.199-.59-1.241a.278.278 0 0 0-.51 0z" fill="#FFCD00"/><path d="m1380.92 431.792-.58 1.241-1.31.199c-.24.036-.33.339-.16.512l.95.965-.23 1.364c-.04.246.21.431.42.315l1.17-.643 1.17.643c.21.115.46-.069.42-.315l-.22-1.364.94-.965c.17-.173.08-.476-.16-.512l-1.31-.199-.58-1.241a.286.286 0 0 0-.52 0zM1386.92 431.792l-.58 1.241-1.31.199c-.24.036-.33.339-.16.512l.95.965-.23 1.364c-.04.246.21.431.42.315l1.17-.643 1.17.643c.21.115.46-.069.42-.315l-.23-1.364.95-.965c.17-.173.08-.476-.16-.512l-1.31-.199-.58-1.241a.286.286 0 0 0-.52 0zM1392.92 431.792l-.59 1.241-1.31.199c-.23.036-.33.338-.16.512l.95.965-.22 1.363c-.04.247.21.431.41.316l1.18-.644 1.17.644c.21.115.46-.069.42-.316l-.23-1.363.95-.965c.17-.174.08-.476-.16-.512l-1.31-.199-.59-1.241c-.1-.221-.4-.224-.51 0zM1398.92 431.792l-.59 1.241-1.31.199c-.23.036-.33.339-.16.512l.95.965-.22 1.363c-.04.247.2.432.41.316l1.18-.644 1.17.644c.21.115.45-.069.41-.316l-.22-1.363.95-.965c.17-.173.07-.476-.16-.512l-1.31-.199-.59-1.241a.278.278 0 0 0-.51 0z" fill="#fff"/><path d="m1392.92 398.803-.59 1.241-1.31.2c-.23.035-.33.338-.16.511l.95.965-.22 1.364c-.04.246.21.431.41.316l1.18-.644 1.17.644c.21.114.46-.07.42-.316l-.23-1.364.95-.965c.17-.173.08-.476-.16-.511l-1.31-.2-.59-1.241c-.1-.221-.4-.224-.51 0zM1398.92 398.803l-.59 1.241-1.31.2c-.23.035-.33.338-.16.511l.95.965-.22 1.364c-.04.246.2.431.41.316l1.18-.644 1.17.644c.21.114.45-.07.41-.316l-.22-1.364.95-.965c.17-.173.07-.476-.16-.511l-1.31-.2-.59-1.241a.278.278 0 0 0-.51 0zM1374.93 407.201l-.59 1.24-1.31.2c-.23.036-.33.338-.16.512l.95.965-.22 1.363c-.04.247.2.431.41.316l1.17-.644 1.18.644c.2.114.45-.069.41-.316l-.22-1.363.95-.965c.17-.174.07-.476-.16-.512l-1.31-.2-.59-1.24a.278.278 0 0 0-.51 0zM1380.92 407.201l-.58 1.24-1.31.2c-.24.036-.33.338-.16.512l.95.965-.23 1.363c-.04.247.21.431.42.316l1.17-.644 1.17.644c.21.114.46-.069.42-.316l-.22-1.363.94-.965c.17-.174.08-.476-.16-.512l-1.31-.2-.58-1.24a.286.286 0 0 0-.52 0zM1386.92 407.201l-.58 1.24-1.31.2c-.24.036-.33.338-.16.512l.95.965-.23 1.363c-.04.247.21.431.42.316l1.17-.644 1.17.644c.21.114.46-.069.42-.316l-.23-1.363.95-.965c.17-.174.08-.476-.16-.512l-1.31-.2-.58-1.24a.286.286 0 0 0-.52 0zM1392.92 407.2l-.59 1.241-1.31.2c-.23.035-.33.338-.16.511l.95.966-.22 1.363c-.04.246.21.431.41.316l1.18-.644 1.17.644c.21.114.46-.07.42-.316l-.23-1.363.95-.966c.17-.173.08-.476-.16-.511l-1.31-.2-.59-1.241c-.1-.221-.4-.224-.51 0z" fill="#FFCD00"/><path d="m1398.92 407.2-.59 1.241-1.31.2c-.23.035-.33.338-.16.511l.95.966-.22 1.363c-.04.246.2.431.41.316l1.18-.644 1.17.644c.21.114.45-.07.41-.316l-.22-1.363.95-.966c.17-.173.07-.476-.16-.511l-1.31-.2-.59-1.241a.279.279 0 0 0-.51 0z" fill="#fff"/></g><g filter="url(#F)"><rect x="1346" y="203" width="465" height="25.069" rx="12.534" fill="#fff"/><text fill="#310686" xml:space="preserve" style="white-space:pre" font-family="Montserrat" font-size="14" letter-spacing="0em"><tspan x="1360.13" y="221.184">Úvod</tspan></text><text fill="#310686" xml:space="preserve" style="white-space:pre" font-family="Montserrat" font-size="14" letter-spacing="0em"><tspan x="1414.18" y="221.183">Nabídka</tspan></text><text fill="#310686" xml:space="preserve" style="white-space:pre" font-family="Montserrat" font-size="14" letter-spacing="0em"><tspan x="1487.34" y="221.255">O nás</tspan></text></g><ellipse cx="1704.11" cy="215.534" rx="9.479" ry="8.997" fill="#4508BD"/><path d="m1708.27 216.877.88-3.412c.07-.246-.15-.481-.43-.481h-7.33l-.17-.734c-.04-.184-.23-.315-.44-.315h-1.91c-.25 0-.45.176-.45.393v.263c0 .217.2.393.45.393h1.3l1.31 5.633c-.31.159-.52.456-.52.797 0 .507.46.918 1.04.918.58 0 1.05-.411 1.05-.918 0-.258-.12-.49-.32-.657h3.91a.875.875 0 0 0-.31.657c0 .507.47.918 1.04.918.58 0 1.05-.411 1.05-.918 0-.364-.24-.678-.59-.827l.1-.398c.06-.247-.15-.481-.44-.481h-5l-.12-.525h5.46c.21 0 .39-.127.44-.306z" fill="#fff"/><rect x="1718.64" y="206.537" width="87.211" height="17.994" rx="8.997" fill="#4508BD"/><text fill="#fff" xml:space="preserve" style="white-space:pre" font-family="Montserrat" font-size="11" letter-spacing="0em"><tspan x="1740.51" y="219.379">Přihlášení</tspan></text><path d="M1734.76 214.596h-.48v-1.434c0-1.668-1.34-3.027-3-3.027-1.65 0-3 1.359-3 3.027v1.434h-.48c-.52 0-.94.429-.94.956v3.824c0 .528.42.956.94.956h6.96c.52 0 .94-.428.94-.956v-3.824a.948.948 0 0 0-.94-.956zm-2.06 0h-2.84v-1.434c0-.79.64-1.433 1.42-1.433.78 0 1.42.643 1.42 1.433v1.434z" fill="#fff"/><defs><filter id="a" x="-7" y="0" width="678" height="690" filterUnits="userSpaceOnUse" color-interpolation-filters="sRGB"><feFlood flood-opacity="0" result="BackgroundImageFix"/><feColorMatrix in="SourceAlpha" values="0 0 0 0 0 0 0 0 0 0 0 0 0 0 0 0 0 0 127 0"/><feMorphology radius="3" operator="dilate" in="SourceAlpha" result="effect1_dropShadow"/><feOffset/><feGaussianBlur stdDeviation="30"/><feColorMatrix values="0 0 0 0 0 0 0 0 0 0 0 0 0 0 0 0 0 0 0.25 0"/><feBlend in2="BackgroundImageFix" result="effect1_dropShadow"/><feBlend in="SourceGraphic" in2="effect1_dropShadow" result="shape"/></filter><filter id="b" x="77" y="175" width="509.143" height="78.286" filterUnits="userSpaceOnUse" color-interpolation-filters="sRGB"><feFlood flood-opacity="0" result="BackgroundImageFix"/><feColorMatrix in="SourceAlpha" values="0 0 0 0 0 0 0 0 0 0 0 0 0 0 0 0 0 0 127 0"/><feMorphology radius="1" operator="dilate" in="SourceAlpha" result="effect1_dropShadow"/><feOffset/><feGaussianBlur stdDeviation="12.5"/><feColorMatrix values="0 0 0 0 0.599986 0 0 0 0 0.599986 0 0 0 0 0.599986 0 0 0 0.25 0"/><feBlend in2="BackgroundImageFix" result="effect1_dropShadow"/><feBlend in="SourceGraphic" in2="effect1_dropShadow" result="shape"/></filter><filter id="c" x="77" y="225" width="190" height="369" filterUnits="userSpaceOnUse" color-interpolation-filters="sRGB"><feFlood flood-opacity="0" result="BackgroundImageFix"/><feColorMatrix in="SourceAlpha" values="0 0 0 0 0 0 0 0 0 0 0 0 0 0 0 0 0 0 127 0"/><feMorphology radius="1" operator="dilate" in="SourceAlpha" result="effect1_dropShadow"/><feOffset/><feGaussianBlur stdDeviation="12.5"/><feColorMatrix values="0 0 0 0 0.599986 0 0 0 0 0.599986 0 0 0 0 0.599986 0 0 0 0.25 0"/><feBlend in2="BackgroundImageFix" result="effect1_dropShadow"/><feBlend in="SourceGraphic" in2="effect1_dropShadow" result="shape"/></filter><filter id="d" x="229" y="439" width="195" height="155" filterUnits="userSpaceOnUse" color-interpolation-filters="sRGB"><feFlood flood-opacity="0" result="BackgroundImageFix"/><feColorMatrix in="SourceAlpha" values="0 0 0 0 0 0 0 0 0 0 0 0 0 0 0 0 0 0 127 0"/><feMorphology radius="1" operator="dilate" in="SourceAlpha" result="effect1_dropShadow"/><feOffset/><feGaussianBlur stdDeviation="12.5"/><feColorMatrix values="0 0 0 0 0.599986 0 0 0 0 0.599986 0 0 0 0 0.599986 0 0 0 0.25 0"/><feBlend in2="BackgroundImageFix" result="effect1_dropShadow"/><feBlend in="SourceGraphic" in2="effect1_dropShadow" result="shape"/></filter><filter id="e" x="385.865" y="340" width="197.134" height="255" filterUnits="userSpaceOnUse" color-interpolation-filters="sRGB"><feFlood flood-opacity="0" result="BackgroundImageFix"/><feColorMatrix in="SourceAlpha" values="0 0 0 0 0 0 0 0 0 0 0 0 0 0 0 0 0 0 127 0"/><feMorphology radius="1" operator="dilate" in="SourceAlpha" result="effect1_dropShadow"/><feOffset/><feGaussianBlur stdDeviation="12.5"/><feColorMatrix values="0 0 0 0 0.599986 0 0 0 0 0.599986 0 0 0 0 0.599986 0 0 0 0.25 0"/><feBlend in2="BackgroundImageFix" result="effect1_dropShadow"/><feBlend in="SourceGraphic" in2="effect1_dropShadow" result="shape"/></filter><filter id="f" x="228.195" y="224" width="197.134" height="256.963" filterUnits="userSpaceOnUse" color-interpolation-filters="sRGB"><feFlood flood-opacity="0" result="BackgroundImageFix"/><feColorMatrix in="SourceAlpha" values="0 0 0 0 0 0 0 0 0 0 0 0 0 0 0 0 0 0 127 0"/><feMorphology radius="1" operator="dilate" in="SourceAlpha" result="effect1_dropShadow"/><feOffset/><feGaussianBlur stdDeviation="12.5"/><feColorMatrix values="0 0 0 0 0.599986 0 0 0 0 0.599986 0 0 0 0 0.599986 0 0 0 0.25 0"/><feBlend in2="BackgroundImageFix" result="effect1_dropShadow"/><feBlend in="SourceGraphic" in2="effect1_dropShadow" result="shape"/></filter><filter id="g" x="385.865" y="224.143" width="197.134" height="157.143" filterUnits="userSpaceOnUse" color-interpolation-filters="sRGB"><feFlood flood-opacity="0" result="BackgroundImageFix"/><feColorMatrix in="SourceAlpha" values="0 0 0 0 0 0 0 0 0 0 0 0 0 0 0 0 0 0 127 0"/><feMorphology radius="1" operator="dilate" in="SourceAlpha" result="effect1_dropShadow"/><feOffset/><feGaussianBlur stdDeviation="12.5"/><feColorMatrix values="0 0 0 0 0.599986 0 0 0 0 0.599986 0 0 0 0 0.599986 0 0 0 0.25 0"/><feBlend in2="BackgroundImageFix" result="effect1_dropShadow"/><feBlend in="SourceGraphic" in2="effect1_dropShadow" result="shape"/></filter><filter id="h" x="619" y="55" width="682" height="694" filterUnits="userSpaceOnUse" color-interpolation-filters="sRGB"><feFlood flood-opacity="0" result="BackgroundImageFix"/><feColorMatrix in="SourceAlpha" values="0 0 0 0 0 0 0 0 0 0 0 0 0 0 0 0 0 0 127 0"/><feMorphology radius="3" operator="dilate" in="SourceAlpha" result="effect1_dropShadow"/><feOffset/><feGaussianBlur stdDeviation="30"/><feColorMatrix values="0 0 0 0 0 0 0 0 0 0 0 0 0 0 0 0 0 0 0.25 0"/><feBlend in2="BackgroundImageFix" result="effect1_dropShadow"/><feBlend in="SourceGraphic" in2="effect1_dropShadow" result="shape"/></filter><filter id="i" x="969.487" y="487.646" width="251.881" height="152.616" filterUnits="userSpaceOnUse" color-interpolation-filters="sRGB"><feFlood flood-opacity="0" result="BackgroundImageFix"/><feColorMatrix in="SourceAlpha" values="0 0 0 0 0 0 0 0 0 0 0 0 0 0 0 0 0 0 127 0"/><feOffset/><feGaussianBlur stdDeviation="7.5"/><feColorMatrix values="0 0 0 0 0 0 0 0 0 0 0 0 0 0 0 0 0 0 0.15 0"/><feBlend in2="BackgroundImageFix" result="effect1_dropShadow"/><feBlend in="SourceGraphic" in2="effect1_dropShadow" result="shape"/></filter><filter id="o" x="801.194" y="239.731" width="419.274" height="136.163" filterUnits="userSpaceOnUse" color-interpolation-filters="sRGB"><feFlood flood-opacity="0" result="BackgroundImageFix"/><feColorMatrix in="SourceAlpha" values="0 0 0 0 0 0 0 0 0 0 0 0 0 0 0 0 0 0 127 0"/><feOffset/><feGaussianBlur stdDeviation="7.5"/><feColorMatrix values="0 0 0 0 0 0 0 0 0 0 0 0 0 0 0 0 0 0 0.15 0"/><feBlend in2="BackgroundImageFix" result="effect1_dropShadow"/><feBlend in="SourceGraphic" in2="effect1_dropShadow" result="shape"/></filter><filter id="s" x="801.195" y="357" width="186.831" height="283.095" filterUnits="userSpaceOnUse" color-interpolation-filters="sRGB"><feFlood flood-opacity="0" result="BackgroundImageFix"/><feColorMatrix in="SourceAlpha" values="0 0 0 0 0 0 0 0 0 0 0 0 0 0 0 0 0 0 127 0"/><feOffset/><feGaussianBlur stdDeviation="7.5"/><feColorMatrix values="0 0 0 0 0 0 0 0 0 0 0 0 0 0 0 0 0 0 0.15 0"/><feBlend in2="BackgroundImageFix" result="effect1_dropShadow"/><feBlend in="SourceGraphic" in2="effect1_dropShadow" result="shape"/></filter><filter id="t" x="689" y="239.731" width="131.941" height="400.363" filterUnits="userSpaceOnUse" color-interpolation-filters="sRGB"><feFlood flood-opacity="0" result="BackgroundImageFix"/><feColorMatrix in="SourceAlpha" values="0 0 0 0 0 0 0 0 0 0 0 0 0 0 0 0 0 0 127 0"/><feOffset/><feGaussianBlur stdDeviation="7.5"/><feColorMatrix values="0 0 0 0 0 0 0 0 0 0 0 0 0 0 0 0 0 0 0.15 0"/><feBlend in2="BackgroundImageFix" result="effect1_dropShadow"/><feBlend in="SourceGraphic" in2="effect1_dropShadow" result="shape"/></filter><filter id="u" x="755.813" y="228.731" width="76.128" height="73.715" filterUnits="userSpaceOnUse" color-interpolation-filters="sRGB"><feFlood flood-opacity="0" result="BackgroundImageFix"/><feColorMatrix in="SourceAlpha" values="0 0 0 0 0 0 0 0 0 0 0 0 0 0 0 0 0 0 127 0"/><feMorphology radius="1" operator="dilate" in="SourceAlpha" result="effect1_dropShadow"/><feOffset/><feGaussianBlur stdDeviation="12.5"/><feColorMatrix values="0 0 0 0 0.599986 0 0 0 0 0.599986 0 0 0 0 0.599986 0 0 0 0.25 0"/><feBlend in2="BackgroundImageFix" result="effect1_dropShadow"/><feBlend in="SourceGraphic" in2="effect1_dropShadow" result="shape"/></filter><filter id="v" x="969.179" y="357.213" width="251.977" height="151.846" filterUnits="userSpaceOnUse" color-interpolation-filters="sRGB"><feFlood flood-opacity="0" result="BackgroundImageFix"/><feColorMatrix in="SourceAlpha" values="0 0 0 0 0 0 0 0 0 0 0 0 0 0 0 0 0 0 127 0"/><feOffset/><feGaussianBlur stdDeviation="7.5"/><feColorMatrix values="0 0 0 0 0 0 0 0 0 0 0 0 0 0 0 0 0 0 0.15 0"/><feBlend in2="BackgroundImageFix" result="effect1_dropShadow"/><feBlend in="SourceGraphic" in2="effect1_dropShadow" result="shape"/></filter><filter id="w" x="1247" y="0" width="681" height="693" filterUnits="userSpaceOnUse" color-interpolation-filters="sRGB"><feFlood flood-opacity="0" result="BackgroundImageFix"/><feColorMatrix in="SourceAlpha" values="0 0 0 0 0 0 0 0 0 0 0 0 0 0 0 0 0 0 127 0"/><feMorphology radius="3" operator="dilate" in="SourceAlpha" result="effect1_dropShadow"/><feOffset/><feGaussianBlur stdDeviation="30"/><feColorMatrix values="0 0 0 0 0 0 0 0 0 0 0 0 0 0 0 0 0 0 0.25 0"/><feBlend in2="BackgroundImageFix" result="effect1_dropShadow"/><feBlend in="SourceGraphic" in2="effect1_dropShadow" result="shape"/></filter><filter id="x" x="1690.01" y="440.52" width="138.547" height="168.54" filterUnits="userSpaceOnUse" color-interpolation-filters="sRGB"><feFlood flood-opacity="0" result="BackgroundImageFix"/><feColorMatrix in="SourceAlpha" values="0 0 0 0 0 0 0 0 0 0 0 0 0 0 0 0 0 0 127 0"/><feOffset/><feGaussianBlur stdDeviation="10"/><feColorMatrix values="0 0 0 0 0 0 0 0 0 0 0 0 0 0 0 0 0 0 0.25 0"/><feBlend in2="BackgroundImageFix" result="effect1_dropShadow"/><feBlend in="SourceGraphic" in2="effect1_dropShadow" result="shape"/></filter><filter id="y" x="1561.47" y="440.52" width="138.547" height="168.54" filterUnits="userSpaceOnUse" color-interpolation-filters="sRGB"><feFlood flood-opacity="0" result="BackgroundImageFix"/><feColorMatrix in="SourceAlpha" values="0 0 0 0 0 0 0 0 0 0 0 0 0 0 0 0 0 0 127 0"/><feOffset/><feGaussianBlur stdDeviation="10"/><feColorMatrix values="0 0 0 0 0 0 0 0 0 0 0 0 0 0 0 0 0 0 0.25 0"/><feBlend in2="BackgroundImageFix" result="effect1_dropShadow"/><feBlend in="SourceGraphic" in2="effect1_dropShadow" result="shape"/></filter><filter id="z" x="1432.93" y="440.52" width="138.547" height="168.54" filterUnits="userSpaceOnUse" color-interpolation-filters="sRGB"><feFlood flood-opacity="0" result="BackgroundImageFix"/><feColorMatrix in="SourceAlpha" values="0 0 0 0 0 0 0 0 0 0 0 0 0 0 0 0 0 0 127 0"/><feOffset/><feGaussianBlur stdDeviation="10"/><feColorMatrix values="0 0 0 0 0 0 0 0 0 0 0 0 0 0 0 0 0 0 0.25 0"/><feBlend in2="BackgroundImageFix" result="effect1_dropShadow"/><feBlend in="SourceGraphic" in2="effect1_dropShadow" result="shape"/></filter><filter id="A" x="1690.01" y="280.56" width="138.547" height="168.54" filterUnits="userSpaceOnUse" color-interpolation-filters="sRGB"><feFlood flood-opacity="0" result="BackgroundImageFix"/><feColorMatrix in="SourceAlpha" values="0 0 0 0 0 0 0 0 0 0 0 0 0 0 0 0 0 0 127 0"/><feOffset/><feGaussianBlur stdDeviation="10"/><feColorMatrix values="0 0 0 0 0 0 0 0 0 0 0 0 0 0 0 0 0 0 0.25 0"/><feBlend in2="BackgroundImageFix" result="effect1_dropShadow"/><feBlend in="SourceGraphic" in2="effect1_dropShadow" result="shape"/></filter><filter id="B" x="1561.47" y="280.56" width="138.547" height="168.54" filterUnits="userSpaceOnUse" color-interpolation-filters="sRGB"><feFlood flood-opacity="0" result="BackgroundImageFix"/><feColorMatrix in="SourceAlpha" values="0 0 0 0 0 0 0 0 0 0 0 0 0 0 0 0 0 0 127 0"/><feOffset/><feGaussianBlur stdDeviation="10"/><feColorMatrix values="0 0 0 0 0 0 0 0 0 0 0 0 0 0 0 0 0 0 0.25 0"/><feBlend in2="BackgroundImageFix" result="effect1_dropShadow"/><feBlend in="SourceGraphic" in2="effect1_dropShadow" result="shape"/></filter><filter id="C" x="1432.93" y="280.56" width="138.547" height="168.54" filterUnits="userSpaceOnUse" color-interpolation-filters="sRGB"><feFlood flood-opacity="0" result="BackgroundImageFix"/><feColorMatrix in="SourceAlpha" values="0 0 0 0 0 0 0 0 0 0 0 0 0 0 0 0 0 0 127 0"/><feOffset/><feGaussianBlur stdDeviation="10"/><feColorMatrix values="0 0 0 0 0 0 0 0 0 0 0 0 0 0 0 0 0 0 0.25 0"/><feBlend in2="BackgroundImageFix" result="effect1_dropShadow"/><feBlend in="SourceGraphic" in2="effect1_dropShadow" result="shape"/></filter><filter id="D" x="1434" y="231" width="391.675" height="55.791" filterUnits="userSpaceOnUse" color-interpolation-filters="sRGB"><feFlood flood-opacity="0" result="BackgroundImageFix"/><feColorMatrix in="SourceAlpha" values="0 0 0 0 0 0 0 0 0 0 0 0 0 0 0 0 0 0 127 0"/><feOffset/><feGaussianBlur stdDeviation="7.5"/><feColorMatrix values="0 0 0 0 0 0 0 0 0 0 0 0 0 0 0 0 0 0 0.15 0"/><feBlend in2="BackgroundImageFix" result="effect1_dropShadow"/><feBlend in="SourceGraphic" in2="effect1_dropShadow" result="shape"/></filter><filter id="E" x="1326" y="226" width="129" height="383" filterUnits="userSpaceOnUse" color-interpolation-filters="sRGB"><feFlood flood-opacity="0" result="BackgroundImageFix"/><feColorMatrix in="SourceAlpha" values="0 0 0 0 0 0 0 0 0 0 0 0 0 0 0 0 0 0 127 0"/><feOffset/><feGaussianBlur stdDeviation="10"/><feColorMatrix values="0 0 0 0 0 0 0 0 0 0 0 0 0 0 0 0 0 0 0.25 0"/><feBlend in2="BackgroundImageFix" result="effect1_dropShadow"/><feBlend in="SourceGraphic" in2="effect1_dropShadow" result="shape"/></filter><filter id="F" x="1331" y="188" width="495" height="55.069" filterUnits="userSpaceOnUse" color-interpolation-filters="sRGB"><feFlood flood-opacity="0" result="BackgroundImageFix"/><feColorMatrix in="SourceAlpha" values="0 0 0 0 0 0 0 0 0 0 0 0 0 0 0 0 0 0 127 0"/><feOffset/><feGaussianBlur stdDeviation="7.5"/><feColorMatrix values="0 0 0 0 0 0 0 0 0 0 0 0 0 0 0 0 0 0 0.15 0"/><feBlend in2="BackgroundImageFix" result="effect1_dropShadow"/><feBlend in="SourceGraphic" in2="effect1_dropShadow" result="shape"/></filter><linearGradient id="j" x1="1015.92" y1="571.241" x2="1015.92" y2="609.398" gradientUnits="userSpaceOnUse"><stop stop-color="#5C09FF"/><stop offset="1" stop-color="#4508BD"/></linearGradient><linearGradient id="k" x1="1055.92" y1="559.682" x2="1055.92" y2="609.572" gradientUnits="userSpaceOnUse"><stop stop-color="#5C09FF"/><stop offset="1" stop-color="#4508BD"/></linearGradient><linearGradient id="l" x1="1095.68" y1="548.116" x2="1095.68" y2="609.852" gradientUnits="userSpaceOnUse"><stop stop-color="#5C09FF"/><stop offset="1" stop-color="#4508BD"/></linearGradient><linearGradient id="m" x1="1135.68" y1="536.332" x2="1135.68" y2="610.073" gradientUnits="userSpaceOnUse"><stop stop-color="#5C09FF"/><stop offset="1" stop-color="#4508BD"/></linearGradient><linearGradient id="n" x1="1175.18" y1="524.389" x2="1175.18" y2="610.134" gradientUnits="userSpaceOnUse"><stop stop-color="#5C09FF"/><stop offset="1" stop-color="#4508BD"/></linearGradient><linearGradient id="p" x1="1010.83" y1="264.985" x2="1010.83" y2="360.894" gradientUnits="userSpaceOnUse"><stop stop-color="#4508BD"/><stop offset=".76" stop-color="#895CE1"/></linearGradient><linearGradient id="q" x1="1010.83" y1="282.802" x2="1010.83" y2="360.895" gradientUnits="userSpaceOnUse"><stop offset=".474" stop-color="#4509BD"/><stop offset="1" stop-color="#2400FF"/></linearGradient><linearGradient id="r" x1="1010.32" y1="296.352" x2="1010.32" y2="360.894" gradientUnits="userSpaceOnUse"><stop offset=".391" stop-color="#5C09FF"/><stop offset="1" stop-color="#874EF9"/></linearGradient></defs></svg>