<svg width="400" height="400" viewBox="0 0 400 400" fill="none" xmlns="http://www.w3.org/2000/svg">
<rect width="400" height="400" fill="white"/>
<path d="M33.8179 188.422L190.068 146.458C190.068 146.458 191.748 146.033 192.747 145.565C194.769 144.618 195.256 143.073 197.211 141.994C198.997 141.007 200.154 140.748 202.122 140.208C203.836 139.737 204.816 139.488 206.586 139.315C208.321 139.145 209.317 139.125 211.05 139.315C213.194 139.551 215.961 140.208 216.407 140.654C216.853 141.101 220.386 142.569 222.657 144.226C224.95 145.898 226.089 147.052 228.014 149.136C230.38 151.698 231.489 153.344 233.372 156.279C236.107 160.545 237.278 163.187 239.175 167.886C241.488 173.616 242.492 176.994 243.639 183.065C244.519 187.719 244.623 190.396 244.979 195.119C245.254 198.774 245.369 200.829 245.425 204.494C245.508 209.9 245.517 212.952 244.979 218.333C244.38 224.322 243.798 227.682 242.3 233.511C240.928 238.851 240.077 241.867 237.836 246.904C236.314 250.324 235.417 252.252 233.372 255.386C231.942 257.577 231.071 258.772 229.354 260.744C227.734 262.603 226.687 263.521 224.889 265.208C223.359 266.645 222.629 267.63 220.872 268.779C218.514 270.321 216.891 270.712 214.175 271.458C212.461 271.929 211.48 272.177 209.711 272.351C207.976 272.521 206.976 272.567 205.247 272.351C202.511 272.009 201.082 271.209 198.55 270.119C195.035 268.604 190.068 265.208 190.068 265.208L108.372 243.333C108.372 243.333 108.326 245.292 107.925 246.458C107.082 248.909 105.41 249.66 103.461 251.369C102.15 252.518 101.443 253.256 99.8894 254.047C98.2676 254.874 97.2261 255.123 95.4251 255.386C92.8317 255.765 91.3022 255.436 88.7286 254.94C85.6425 254.345 83.9474 253.673 81.1394 252.261C78.115 250.741 76.3035 249.828 73.9965 247.351C72.2829 245.511 71.5099 244.262 70.4251 241.994C69.4736 240.004 69.0443 238.804 68.6394 236.636C68.0951 233.723 68.6394 229.047 68.6394 229.047H74.8894C74.8894 229.047 73.9698 234.347 74.8894 237.529C75.6698 240.23 76.6382 241.639 78.4608 243.779C79.8219 245.378 80.7135 246.214 82.4786 247.351C85.1213 249.052 86.9324 249.812 90.0679 250.029C92.5276 250.199 94.033 250.063 96.3179 249.136C98.7415 248.154 100.244 247.307 101.675 245.119C102.402 244.007 103.014 241.994 103.014 241.994L33.8179 223.244C33.8179 223.244 31.8986 223.74 30.6929 224.136C27.8006 225.088 26.5939 227.335 23.5501 227.261C20.6651 227.192 19.0349 226.026 16.8536 224.136C12.9357 220.743 13.1416 216.765 12.3894 211.636C11.8328 207.842 11.9091 205.62 12.3894 201.815C13.1005 196.181 12.5341 191.662 16.8536 187.976C19.0488 186.102 20.6651 184.921 23.5501 184.851C26.5939 184.777 27.7213 187.313 30.6929 187.976C31.8961 188.244 33.8179 188.422 33.8179 188.422Z" fill="#310686"/>
<path d="M315.509 268.89C316.574 268.233 317.285 267.34 317.631 266.2C316.592 266.754 315.556 267.129 314.52 267.34C313.592 266.34 312.413 265.831 311.003 265.831C309.622 265.831 308.458 266.316 307.506 267.257C306.562 268.203 306.083 269.358 306.083 270.703C306.083 271.111 306.134 271.477 306.238 271.786C302.166 271.643 298.8 269.959 296.145 266.709C295.696 267.504 295.47 268.313 295.47 269.149C295.47 270.87 296.196 272.233 297.642 273.236C296.818 273.167 296.092 272.956 295.47 272.614C295.47 273.843 295.83 274.87 296.556 275.774C297.279 276.667 298.214 277.239 299.351 277.48C298.937 277.587 298.503 277.637 298.056 277.637C297.639 277.637 297.351 277.602 297.175 277.527C297.485 278.53 298.056 279.34 298.884 279.962C299.708 280.587 300.66 280.914 301.732 280.944C299.973 282.328 297.955 283.009 295.675 283.009C295.116 283.009 294.723 283.004 294.485 282.959C296.729 284.414 299.229 285.14 301.988 285.14C304.818 285.14 307.321 284.423 309.494 282.989C311.666 281.563 313.276 279.804 314.306 277.73C315.342 275.661 315.857 273.507 315.857 271.259V270.637C316.857 269.884 317.669 269.036 318.291 268.096C317.404 268.492 316.473 268.757 315.509 268.89V268.89ZM305.75 300.786C298.339 300.786 291.955 298.137 286.773 292.911C281.592 287.7 278.964 281.337 278.964 274.001C278.964 266.596 281.595 260.209 286.782 255.027C291.961 249.846 298.342 247.215 305.75 247.215C313.089 247.215 319.452 249.843 324.66 255.024C329.886 260.209 332.535 266.596 332.535 274.001C332.535 281.337 329.889 287.703 324.666 292.92C319.455 298.137 313.092 300.786 305.75 300.786V300.786ZM305.75 253.167C299.898 253.167 295.071 255.152 290.994 259.239C286.901 263.322 284.916 268.149 284.916 274.001C284.916 279.786 286.904 284.602 290.997 288.718C295.08 292.834 299.904 294.834 305.75 294.834C311.532 294.834 316.345 292.831 320.458 288.712C324.58 284.593 326.583 279.777 326.583 274.001C326.583 268.158 324.583 263.331 320.467 259.248C316.351 255.155 311.538 253.167 305.75 253.167V253.167Z" fill="#55ACEE"/>
<path d="M360.214 163.286C345.333 163.286 333.429 175.191 333.429 190.072C333.429 204.953 345.333 216.858 360.214 216.858C375.095 216.858 387 204.953 387 190.072C387 175.191 375.095 163.286 360.214 163.286ZM360.214 184.119C363.488 184.119 366.167 186.798 366.167 190.072C366.167 193.346 363.488 196.024 360.214 196.024C356.941 196.024 354.262 193.346 354.262 190.072C354.262 186.798 356.941 184.119 360.214 184.119ZM368.548 178.167C368.548 176.084 370.333 174.596 372.119 174.596C373.905 174.596 375.691 176.381 375.691 178.167C375.691 179.953 374.203 181.739 372.119 181.739C370.036 181.739 368.548 180.25 368.548 178.167ZM360.214 210.905C348.607 210.905 339.381 201.679 339.381 190.072H348.31C348.31 196.619 353.667 201.977 360.214 201.977C366.762 201.977 372.119 196.619 372.119 190.072H381.048C381.048 201.679 371.822 210.905 360.214 210.905Z" fill="#E4405F"/>
<path d="M305.018 106.81C299.809 101.628 293.446 99 286.107 99C278.699 99 272.318 101.631 267.14 106.813C261.952 111.994 259.321 118.381 259.321 125.786C259.321 133.122 261.949 139.485 267.131 144.696C272.312 149.923 278.696 152.571 286.107 152.571C293.449 152.571 299.812 149.923 305.024 144.705C310.247 139.488 312.893 133.122 312.893 125.786C312.893 118.381 310.244 111.994 305.018 106.81ZM300.815 140.497C297.431 143.887 293.565 145.818 289.083 146.405V131.738H295.036V125.786H289.083V121.619C289.083 120.634 289.884 119.833 290.872 119.833H295.036V113.881H290.878C288.67 113.881 286.827 114.693 285.351 116.327C283.875 117.955 283.131 119.943 283.131 122.304V125.786H277.178V131.738H283.131V146.411C278.601 145.83 274.72 143.896 271.354 140.506C267.262 136.387 265.274 131.571 265.274 125.786C265.274 119.935 267.259 115.107 271.351 111.024C275.428 106.938 280.256 104.952 286.107 104.952C291.896 104.952 296.708 106.94 300.824 111.033C304.94 115.116 306.94 119.943 306.94 125.786C306.94 131.563 304.937 136.378 300.815 140.497V140.497Z" fill="#4267B2"/>
</svg>
