<svg width="400" height="400" viewBox="0 0 400 400" fill="none" xmlns="http://www.w3.org/2000/svg">
<rect width="400" height="400" fill="white"/>
<path d="M165.639 136C165.639 124.954 174.593 116 185.639 116H365.821C376.867 116 385.821 124.954 385.821 136V263.035C385.821 274.081 376.867 283.035 365.821 283.035H185.639C174.593 283.035 165.639 274.081 165.639 263.035V136Z" fill="#310686"/>
<rect x="192.971" y="131.184" width="173.109" height="9.111" rx="3" fill="white"/>
<rect x="192.971" y="131.184" width="173.109" height="9.111" rx="3" fill="white"/>
<circle cx="177.875" cy="135.828" r="6.074" transform="rotate(-18.3876 177.875 135.828)" fill="white"/>
<rect x="200.564" y="217.742" width="34.9255" height="5.31475" rx="2.65738" fill="white"/>
<rect x="200.564" y="217.742" width="34.9255" height="5.31475" rx="2.65738" fill="white"/>
<rect x="257.508" y="228.372" width="34.9255" height="5.31475" rx="2.65738" fill="white"/>
<rect x="257.508" y="228.372" width="34.9255" height="5.31475" rx="2.65738" fill="white"/>
<rect x="257.508" y="249.631" width="34.9255" height="5.31475" rx="2.65738" fill="white"/>
<rect x="257.508" y="249.631" width="34.9255" height="5.31475" rx="2.65738" fill="#5C09FF"/>
<rect x="314.452" y="239.002" width="36.444" height="5.31475" rx="2.65738" fill="white"/>
<rect x="314.452" y="239.002" width="36.444" height="5.31475" rx="2.65738" fill="#5C09FF"/>
<rect x="243.841" y="217.742" width="49.3513" height="5.31475" rx="2.65738" fill="white"/>
<rect x="243.841" y="217.742" width="49.3513" height="5.31475" rx="2.65738" fill="#5C09FF"/>
<rect x="200.564" y="228.372" width="49.3513" height="5.31475" rx="2.65738" fill="white"/>
<rect x="200.564" y="228.372" width="49.3513" height="5.31475" rx="2.65738" fill="#5C09FF"/>
<rect x="200.564" y="249.631" width="49.3513" height="5.31475" rx="2.65738" fill="white"/>
<rect x="200.564" y="249.631" width="49.3513" height="5.31475" rx="2.65738" fill="#5C09FF"/>
<rect x="200.564" y="239.002" width="49.3513" height="5.31475" rx="2.65738" fill="white"/>
<rect x="200.564" y="239.002" width="49.3513" height="5.31475" rx="2.65738" fill="white"/>
<rect x="257.508" y="239.002" width="49.3513" height="5.31475" rx="2.65738" fill="white"/>
<rect x="257.508" y="239.002" width="49.3513" height="5.31475" rx="2.65738" fill="white"/>
<rect x="301.545" y="228.372" width="49.3513" height="5.31475" rx="2.65738" fill="white"/>
<rect x="301.545" y="228.372" width="49.3513" height="5.31475" rx="2.65738" fill="white"/>
<rect x="301.545" y="249.631" width="49.3513" height="5.31475" rx="2.65738" fill="white"/>
<rect x="301.545" y="249.631" width="49.3513" height="5.31475" rx="2.65738" fill="white"/>
<rect x="301.545" y="217.742" width="49.3513" height="5.31475" rx="2.65738" fill="white"/>
<rect x="301.545" y="217.742" width="49.3513" height="5.31475" rx="2.65738" fill="white"/>
<rect x="185.379" y="153.963" width="64.5363" height="48.592" rx="3" fill="white"/>
<rect x="185.379" y="153.963" width="64.5363" height="48.592" rx="3" fill="white"/>
<rect x="265.859" y="153.963" width="100.221" height="48.592" rx="3" fill="#5C09FF"/>
<rect x="265.859" y="153.963" width="100.221" height="48.592" rx="3" fill="#5C09FF"/>
<rect x="325.081" y="188.887" width="34.1663" height="3.037" rx="1.5185" fill="white"/>
<rect x="325.081" y="188.887" width="34.1663" height="3.037" rx="1.5185" fill="white"/>
<rect x="325.081" y="182.814" width="34.1663" height="3.037" rx="1.5185" fill="white"/>
<rect x="325.081" y="182.814" width="34.1663" height="3.037" rx="1.5185" fill="white"/>
<rect x="325.081" y="176.74" width="34.1663" height="3.037" rx="1.5185" fill="white"/>
<rect x="325.081" y="176.74" width="34.1663" height="3.037" rx="1.5185" fill="white"/>
<rect x="325.081" y="170.665" width="34.1663" height="3.037" rx="1.5185" fill="white"/>
<rect x="325.081" y="170.665" width="34.1663" height="3.037" rx="1.5185" fill="white"/>
<rect x="274.971" y="164.593" width="34.1663" height="27.333" rx="3" fill="white"/>
<rect x="274.971" y="164.593" width="34.1663" height="27.333" rx="3" fill="white"/>
<rect x="325.081" y="164.593" width="34.1663" height="3.037" rx="1.5185" fill="white"/>
<rect x="325.081" y="164.593" width="34.1663" height="3.037" rx="1.5185" fill="white"/>
<path d="M198.471 179.019L200.09 184.003H205.331L201.091 187.083L202.71 192.067L198.471 188.987L194.231 192.067L195.85 187.083L191.611 184.003H196.851L198.471 179.019Z" fill="#FFCD00"/>
<path d="M198.471 162.314L200.09 167.298H205.331L201.091 170.379L202.71 175.363L198.471 172.282L194.231 175.363L195.85 170.379L191.611 167.298H196.851L198.471 162.314Z" fill="#FFCD00"/>
<path d="M217.451 179.019L219.071 184.003H224.311L220.071 187.083L221.691 192.067L217.451 188.987L213.212 192.067L214.831 187.083L210.591 184.003H215.832L217.451 179.019Z" fill="#FFCD00"/>
<path d="M217.451 162.314L219.071 167.298H224.311L220.071 170.379L221.691 175.363L217.451 172.282L213.212 175.363L214.831 170.379L210.591 167.298H215.832L217.451 162.314Z" fill="#FFCD00"/>
<path d="M236.434 179.019L238.053 184.003H243.293L239.054 187.083L240.673 192.067L236.434 188.987L232.194 192.067L233.813 187.083L229.574 184.003H234.814L236.434 179.019Z" fill="#FFCD00"/>
<path d="M236.434 162.314L238.053 167.298H243.293L239.054 170.379L240.673 175.363L236.434 172.282L232.194 175.363L233.813 170.379L229.574 167.298H234.814L236.434 162.314Z" fill="#FFCD00"/>
<path d="M20.623 235.443L111.94 205.088L132.713 211.604L140.246 234.264L127.508 251.92L36.1906 282.275L20.623 235.443Z" fill="#4508BD"/>
<path d="M49.041 238.86L56.7694 262.11L53.4813 263.203L46.7134 242.843L41.4658 244.587L40.5053 241.698L49.041 238.86ZM63.8494 244.228C67.1707 243.124 69.8161 242.946 71.7856 243.693C73.7699 244.41 75.1226 245.854 75.844 248.023C76.3003 249.396 76.3803 250.747 76.0841 252.075C75.8026 253.373 75.1044 254.564 73.9893 255.648C72.889 256.702 71.3757 257.549 69.4493 258.19C67.8108 258.734 66.1467 259.017 64.457 259.038C62.7599 259.036 61.2659 258.758 59.9751 258.204L60.6307 255.072C61.6781 255.56 62.899 255.83 64.2936 255.883C65.6807 255.914 67.0607 255.701 68.4335 255.245C70.1827 254.663 71.412 253.849 72.1212 252.802C72.8452 251.725 72.9937 250.545 72.5668 249.26C72.1031 247.865 71.2221 246.99 69.9237 246.635C68.618 246.258 66.6809 246.496 64.1125 247.35L58.8316 249.105L56.0196 236.541L69.1388 232.18L70.0993 235.069L59.7701 238.503L61.2588 245.089L63.8494 244.228ZM82.0733 241.748C80.457 242.285 78.9555 242.133 77.569 241.291C76.1825 240.448 75.1765 239.086 74.5509 237.204C73.9252 235.322 73.9156 233.628 74.5219 232.124C75.1281 230.619 76.2395 229.598 77.8558 229.061C79.4722 228.523 80.9626 228.68 82.3269 229.529C83.7061 230.349 84.7121 231.712 85.3451 233.616C85.9781 235.52 85.9914 237.224 85.3851 238.729C84.7936 240.204 83.6897 241.211 82.0733 241.748ZM91.938 224.601L94.4954 223.751L86.3479 252.277L83.7905 253.127L91.938 224.601ZM81.444 239.855C82.4625 239.516 83.1309 238.864 83.4489 237.898C83.7597 236.909 83.6832 235.717 83.2195 234.322C82.7558 232.927 82.1073 231.938 81.274 231.355C80.4333 230.749 79.5037 230.615 78.4852 230.954C77.4888 231.285 76.8241 231.949 76.4913 232.944C76.1806 233.933 76.2534 235.114 76.7097 236.486C77.166 237.859 77.8146 238.848 78.6552 239.454C79.518 240.053 80.4476 240.186 81.444 239.855ZM100.43 247.817C98.8137 248.355 97.316 248.213 95.9368 247.393C94.5725 246.543 93.5738 245.166 92.9408 243.262C92.3078 241.358 92.2871 239.668 92.8786 238.193C93.4849 236.688 94.5962 235.667 96.2126 235.13C97.829 234.593 99.3304 234.745 100.717 235.588C102.103 236.43 103.109 237.792 103.735 239.674C104.361 241.556 104.37 243.25 103.764 244.754C103.158 246.259 102.046 247.28 100.43 247.817ZM99.8008 245.924C100.797 245.593 101.451 244.933 101.761 243.945C102.094 242.949 102.033 241.765 101.576 240.392C101.12 239.019 100.46 238.033 99.5975 237.435C98.7568 236.829 97.8383 236.692 96.8419 237.023C95.8234 237.362 95.1588 238.025 94.848 239.014C94.5299 239.98 94.6028 241.161 95.0665 242.556C95.5302 243.951 96.1823 244.951 97.023 245.557C97.8563 246.14 98.7822 246.263 99.8008 245.924Z" fill="white"/>
<circle cx="119.787" cy="228.08" r="6.074" transform="rotate(-18.3876 119.787 228.08)" fill="white"/>
<path d="M119.123 228.517C119.123 228.517 142.714 214.469 150.834 199.897C157.52 187.898 153.79 178.362 159.185 165.731C164.465 153.371 177.585 136.648 177.585 136.648" stroke="#5C09FF" stroke-width="3"/>
<path d="M120.084 228.749C120.084 229.378 119.574 229.888 118.946 229.888C118.317 229.888 117.807 229.378 117.807 228.749C117.807 228.12 119.076 226.851 119.705 226.851C120.334 226.851 120.084 228.12 120.084 228.749Z" fill="#5C09FF"/>
<path d="M179.304 136.119C179.304 136.748 178.925 136.879 177.786 138.017C177.157 138.017 175.888 137.887 175.888 137.258C176.267 136.119 177.536 134.98 178.165 134.98C178.794 134.98 179.304 135.49 179.304 136.119Z" fill="#5C09FF"/>
</svg>
