<svg width="400" height="400" viewBox="0 0 400 400" fill="none" xmlns="http://www.w3.org/2000/svg">
<rect width="400" height="400" fill="white"/>
<path d="M99.3319 280.156C100.088 276.402 100.299 274.202 101.71 270.642C102.629 268.326 103.45 267.163 104.564 264.934C105.679 262.705 106.081 261.329 107.419 259.226C108.416 257.659 109.13 256.885 110.273 255.42C111.004 254.483 111.389 253.934 112.176 253.042C113.218 251.859 113.845 251.227 115.03 250.188C116.426 248.962 117.302 248.382 118.835 247.334C120.282 246.344 121.143 245.866 122.641 244.955C124.846 243.614 126.081 242.858 128.349 241.625C130.904 240.237 132.391 239.562 135.009 238.296C137.777 236.957 139.319 236.18 142.144 234.966C145.98 233.318 148.19 232.53 152.133 231.16C153.798 230.582 154.812 230.465 156.415 229.733C157.777 229.111 158.551 228.735 159.744 227.83C161 226.878 161.462 226.068 162.599 224.976C164.401 223.245 165.485 222.352 167.356 220.695C168.834 219.385 169.675 218.666 171.161 217.365C172.647 216.065 173.538 215.399 174.967 214.035C175.727 213.31 176.869 212.133 176.869 212.133L184.48 212.608C184.48 212.608 185.896 213.812 186.859 214.511C188.277 215.54 189.089 216.121 190.664 216.889C192.091 217.585 192.944 217.879 194.47 218.317C196.642 218.939 197.926 219.075 200.178 219.268C202.584 219.474 203.958 219.501 206.362 219.268C208.429 219.067 209.615 218.943 211.595 218.317C213.339 217.764 214.339 217.407 215.876 216.414C216.875 215.768 217.326 215.254 218.254 214.511C219.741 215.626 222.06 217.365 222.06 217.365C222.06 217.365 221.514 217.982 221.109 218.317C220.148 219.11 219.394 219.238 218.254 219.744C216.804 220.387 215.935 220.613 214.449 221.171C212.963 221.728 212.186 222.223 210.643 222.598C209.009 222.995 208.041 222.964 206.362 223.073C203.952 223.231 202.588 223.231 200.178 223.073C198.5 222.964 197.552 222.9 195.897 222.598C194.39 222.322 193.56 222.082 192.091 221.646C190.965 221.312 190.324 221.142 189.237 220.695C188.085 220.22 187.462 219.891 186.383 219.268C185.223 218.598 184.608 218.159 183.529 217.365C182.571 216.661 182.326 215.647 181.151 215.462C180.783 215.405 180.199 215.462 180.199 215.462C179.248 215.462 178.75 216.912 177.821 217.841C176.706 218.955 176.081 219.58 174.967 220.695C173.666 221.995 173.047 222.844 171.637 224.025C170.411 225.051 169.565 225.418 168.307 226.403C166.339 227.944 165.421 229.027 163.55 230.684C162.072 231.994 161.134 232.612 159.744 234.014C157.886 235.89 157.056 237.141 155.463 239.247C153.691 241.589 152.79 242.973 151.182 245.431C148.81 249.057 145.474 253.993 145.474 254.945C145.474 255.897 145.95 255.896 145.95 255.896C145.95 255.896 156.89 254.945 162.123 255.896C167.356 256.847 200.178 288.719 200.178 288.719C200.178 288.719 233.952 256.847 238.233 255.42C242.515 253.994 253.931 255.42 253.931 255.42C253.931 255.42 252.617 252.164 251.553 250.188C250.404 248.055 249.527 246.996 248.223 244.955C246.558 242.35 245.822 240.75 243.942 238.296C241.783 235.478 240.307 234.105 237.758 231.636C235.109 229.071 233.369 227.913 230.622 225.452C228.175 223.259 226.514 222.292 224.438 219.744C223.852 219.023 223.775 218.37 223.011 217.841C222.67 217.604 222.06 217.365 222.06 217.365C222.06 217.365 219.741 215.626 218.254 214.511C219.618 213.677 220.353 213.152 221.584 212.133C223.203 210.792 225.39 208.327 225.39 208.327C225.39 208.327 227.773 206.069 229.195 204.522C230.354 203.26 230.976 202.526 232.049 201.192C233.214 199.744 233.789 198.872 234.904 197.386C236.018 195.9 236.875 195.215 237.758 193.581C239.043 191.201 239.338 189.606 239.661 186.921C239.904 184.892 239.661 183.732 239.661 181.688C239.661 178.345 240.204 176.425 239.661 173.126C239.316 171.036 238.94 169.89 238.233 167.893C237.347 165.386 236.787 163.966 235.379 161.709C233.843 159.248 232.788 157.933 230.622 156.001C228.316 153.943 223.963 151.72 223.963 151.72C223.963 151.72 226.034 154.004 227.293 155.525C228.642 157.158 229.593 157.955 230.622 159.807C231.31 161.043 231.552 161.812 232.049 163.136C232.463 164.236 232.855 164.825 233.001 165.991C233.093 166.728 233.665 167.561 233.001 167.893C232.669 168.06 232.402 168.011 232.049 167.893C231.551 167.727 231.47 167.314 231.098 166.942C229.983 165.827 229.391 165.169 228.244 164.088C226.807 162.733 225.913 162.072 224.438 160.758C222.181 158.746 221.035 157.484 218.73 155.525C216.917 153.985 215.801 153.242 213.973 151.72C212.657 150.624 212.164 149.655 210.643 148.866C209.601 148.325 208.87 148.375 207.789 147.914C205.324 146.865 204.195 145.755 202.081 144.109C199.902 142.412 198.791 141.314 196.848 139.352C195.09 137.576 194.166 136.516 192.567 134.595C191.212 132.967 190.339 132.123 189.237 130.314C188.069 128.397 187.836 127.102 186.859 125.081C186.316 123.959 185.989 123.528 185.432 122.227C184.874 120.926 184.562 120.197 184.005 118.897C184.005 118.897 183.865 120.389 183.529 121.275C182.69 123.486 180.813 123.784 179.248 125.556C176.96 128.146 175.854 129.766 174.015 132.692C172.114 135.717 171.311 137.572 169.734 140.778C167.936 144.435 166.657 146.4 165.453 150.292C164.008 154.961 163.941 157.789 163.55 162.66C163.119 168.03 162.961 171.1 163.55 176.455C163.901 179.643 164.329 181.401 164.977 184.542C165.323 186.219 165.557 187.151 165.928 188.823C166.3 190.495 166.188 191.538 166.88 193.104C167.736 195.042 168.706 195.893 170.21 197.386C172.003 199.166 173.266 199.907 175.442 201.191C177.733 202.543 179.192 202.974 181.626 204.045C182.921 204.615 184.956 205.472 184.956 205.472L185.907 205.948C185.907 205.948 186.729 204.75 187.335 204.045C188.02 203.248 188.373 202.741 189.237 202.142C189.92 201.67 190.346 201.435 191.14 201.191C192.56 200.754 193.46 200.716 194.946 200.716C196.803 200.716 197.854 200.535 199.703 200.716C201.588 200.901 202.913 201.048 204.459 202.142C205.103 202.598 205.435 202.923 205.886 203.569C206.867 204.974 207.166 205.669 207.314 207.376C207.41 208.486 207.082 209.617 206.838 210.705C206.51 212.166 206.362 213.558 204.935 214.035C203.508 214.511 202.912 214.373 201.605 214.511C197.91 214.9 195.775 214.996 192.091 214.511C190.213 214.264 189.158 214.072 187.335 213.559C186.204 213.241 184.48 212.608 184.48 212.608L176.869 212.133C176.869 212.133 174.447 209.572 172.588 208.326C170.863 207.17 169.567 207.088 167.831 205.948C165.523 204.432 164.675 203.012 162.599 201.191C161.311 200.062 160.801 199.103 159.269 198.337C156.444 196.925 154.279 198.956 151.182 198.337C150.431 198.187 149.926 198.272 149.279 197.861C148.228 197.192 148.739 195.883 147.852 195.007C146.846 194.013 145.765 194.257 144.522 193.58C143.346 192.939 142.723 192.504 141.668 191.677C140.014 190.381 139.15 189.533 137.863 187.872C136.183 185.703 135.673 184.182 134.533 181.688C133.457 179.334 132.895 177.983 132.154 175.504C131.393 172.955 131.004 171.489 130.727 168.844C130.457 166.258 130.328 164.754 130.727 162.184C130.963 160.671 130.977 159.74 131.679 158.379C132.344 157.089 132.757 156.169 134.057 155.525C134.744 155.185 135.96 155.049 135.96 155.049C135.96 155.049 134.867 140.777 135.96 131.74C136.253 129.315 136.368 127.938 136.911 125.556C137.474 123.093 137.915 121.734 138.814 119.372C139.76 116.887 140.412 115.533 141.668 113.188C142.692 111.279 143.291 110.214 144.522 108.431C145.874 106.474 146.793 105.492 148.328 103.675C149.772 101.966 150.552 100.975 152.133 99.3934C153.715 97.8116 154.676 96.9956 156.415 95.5878C158.378 93.9977 159.532 93.1648 161.647 91.7823C163.807 90.3702 165.085 89.6791 167.356 88.4525C169.548 87.2679 170.77 86.5742 173.064 85.5983C175.065 84.747 176.226 84.3607 178.296 83.6956C181.042 82.8134 182.585 82.2556 185.432 81.7928C188.005 81.3744 189.487 81.4463 192.091 81.3171C198.029 81.0226 201.393 80.7827 207.314 81.3171C210.113 81.5699 211.686 81.7477 214.449 82.2685C217.46 82.8361 219.136 83.2572 222.06 84.1713C225.484 85.2417 227.382 85.9618 230.622 87.5011C233.703 88.9643 235.396 89.8904 238.233 91.7823C240.768 93.4726 242.12 94.5374 244.417 96.5392C246.992 98.7831 248.401 100.111 250.601 102.723C252.661 105.168 253.682 106.662 255.358 109.383C256.797 111.718 257.478 113.105 258.688 115.567C259.678 117.581 260.352 118.671 261.067 120.799C262.029 123.666 262.028 125.422 262.494 128.41C262.955 131.37 263.164 133.04 263.445 136.022C260.101 135.279 258.226 134.862 254.883 134.119C254.511 131.518 254.548 130.013 253.931 127.459C253.38 125.175 252.929 123.921 252.028 121.751C250.818 118.834 249.799 117.352 248.223 114.615C246.808 112.158 246.182 110.651 244.417 108.431C242.208 105.654 240.496 104.506 237.758 102.247C235.608 100.475 234.388 99.4815 232.049 97.9663C229.051 96.0233 227.259 95.0642 223.963 93.6851C221.253 92.5514 219.663 92.0722 216.827 91.3066C214.259 90.6134 212.792 90.3131 210.168 89.8796C206.119 89.2106 203.801 88.7139 199.702 88.9282C198.023 89.016 197.09 89.1935 195.421 89.4039C191.876 89.8506 189.866 90.0306 186.383 90.8309C183.747 91.4367 182.295 91.8949 179.723 92.7337C176.706 93.7181 174.956 94.1767 172.112 95.5878C169.572 96.8484 168.272 97.797 165.928 99.3934C163.625 100.962 162.328 101.852 160.22 103.675C158.035 105.565 156.853 106.7 154.988 108.907C153.356 110.837 152.565 112.025 151.182 114.14C149.77 116.3 148.948 117.512 147.852 119.848C146.679 122.348 146.136 123.827 145.474 126.508C144.888 128.88 144.781 130.262 144.522 132.692C143.932 138.233 144.522 146.962 144.522 146.962C144.522 146.962 145.137 146.114 145.474 145.535C147.107 142.732 146.386 140.538 147.377 137.449C148.873 132.778 150.276 130.346 152.609 126.032C154.473 122.585 155.542 120.643 157.842 117.47C159.238 115.543 160.06 114.485 161.647 112.713C163.224 110.951 164.167 110.009 165.928 108.431C167.701 106.845 168.728 105.978 170.685 104.626C172.468 103.395 173.498 102.728 175.442 101.772C177.237 100.888 178.319 100.554 180.199 99.869C181.855 99.266 182.772 98.8761 184.48 98.442C187.562 97.6587 189.397 97.7428 192.567 97.4906C199.234 96.9602 203.012 97.1766 209.692 97.4906C212.482 97.6217 214.124 97.2646 216.827 97.9663C219.402 98.6346 220.667 99.5641 223.011 100.82C224.921 101.844 225.987 102.441 227.768 103.675C229.939 105.178 231.059 106.167 233.001 107.956C234.353 109.202 235.06 109.957 236.331 111.286C238.058 113.092 239.094 114.057 240.612 116.043C241.832 117.639 242.377 118.636 243.466 120.324C245.003 122.707 245.945 124.002 247.272 126.508C248.789 129.376 249.413 131.1 250.601 134.119C251.613 136.689 252.157 138.143 252.98 140.779C253.84 143.532 254.883 147.914 254.883 147.914C254.883 147.914 254.883 139.507 254.883 134.119C258.226 134.862 260.101 135.279 263.445 136.022C263.445 142.524 263.921 150.293 263.445 152.671C262.969 155.05 263.253 154.629 262.494 155.525C261.689 156.477 260.879 156.822 259.64 156.952C259.27 156.991 259.056 157.003 258.688 156.952C257.615 156.806 256.31 155.525 256.31 155.525C256.31 155.525 256.658 158.42 256.785 160.282C257.065 164.36 256.947 166.664 256.785 170.748C256.675 173.538 256.701 175.118 256.31 177.883C255.937 180.516 255.502 181.956 254.883 184.543C254.212 187.347 253.828 188.922 252.98 191.678C252.461 193.362 252.421 194.425 251.553 195.959C251.223 196.542 251.091 196.929 250.601 197.386C249.994 197.953 249.471 198.032 248.699 198.338C245.417 199.637 242.014 195.707 239.661 198.338C238.83 199.266 238.943 200.167 238.233 201.192C237.336 202.488 236.421 202.863 235.379 204.046C234.593 204.938 234.22 205.495 233.477 206.424C232.733 207.353 232.36 207.91 231.574 208.803C230.532 209.985 229.834 210.542 228.72 211.657C227.605 212.771 225.866 214.511 225.866 214.511C225.866 214.511 229.575 218.056 232.049 220.219C234.234 222.129 235.52 223.129 237.758 224.976C239.794 226.657 240.674 227.99 242.99 229.257C244.898 230.301 246.192 230.384 248.223 231.16C251.413 232.379 253.169 233.148 256.31 234.49C259.674 235.928 261.577 236.704 264.872 238.296C268.464 240.03 270.45 241.068 273.91 243.052C275.789 244.13 276.837 244.746 278.667 245.907C280.364 246.983 281.309 247.598 282.948 248.761C284.464 249.835 285.375 250.37 286.754 251.615C288.414 253.114 289.233 254.094 290.559 255.896C292.677 258.774 293.345 260.738 294.841 263.983C295.852 266.176 296.344 267.44 297.219 269.691C298.219 272.265 298.79 273.71 299.597 276.351C300.493 279.281 300.951 280.948 301.5 283.962C302.136 287.453 302.092 289.469 302.452 293C302.641 294.857 303.198 295.909 302.927 297.757C302.816 298.515 302.452 299.66 302.452 299.66C302.452 299.66 302.291 300.591 301.976 301.087C301.394 302 300.633 302.196 299.597 302.514C222.06 326.298 184.005 325.346 100.283 302.514C99.1357 302.201 98.5964 301.579 97.9048 300.611C96.6043 298.791 96.9534 297.282 97.4291 294.903C97.9049 292.524 98.1861 285.849 99.3319 280.156Z" fill="#310686"/>
<path d="M189.714 259.226C191.032 254.773 191.874 252.304 193.043 247.809C193.429 246.327 193.519 244.955 193.995 244.004C194.47 243.053 194.47 243.053 194.47 243.053C194.47 243.053 194.18 242.763 193.995 242.577C192.694 241.277 191.657 240.795 190.665 239.247C189.901 238.056 189.463 237.314 189.238 235.917C189.09 235 189.013 234.44 189.238 233.539C189.439 232.733 189.716 232.319 190.189 231.636C190.787 230.772 191.212 230.307 192.092 229.733C192.93 229.187 193.511 229.064 194.47 228.782C196.439 228.203 197.651 228.322 199.703 228.306C201.94 228.289 203.509 228.306 205.411 228.782C206.217 228.983 206.631 229.26 207.314 229.733C208.178 230.331 208.619 230.772 209.217 231.636C209.69 232.319 209.967 232.733 210.168 233.539C210.393 234.44 210.259 234.993 210.168 235.917C210.076 236.86 210.025 237.409 209.693 238.296C209.222 239.55 208.781 240.249 207.79 241.15C206.988 241.878 206.039 241.694 205.411 242.577C205.171 242.915 204.936 243.528 204.936 243.528C204.936 243.528 204.936 243.053 205.411 244.004C205.887 244.955 206.31 246.313 206.838 247.809C208.386 252.188 208.849 254.773 210.168 259.226C211.27 262.945 213.022 268.74 213.022 268.74C213.022 268.74 212.179 269.92 211.595 270.643C208.022 275.066 200.179 279.681 200.179 279.681C200.179 279.681 193.164 274.863 189.238 271.118C188.287 270.212 186.859 268.74 186.859 268.74C186.859 268.74 188.612 262.945 189.714 259.226Z" fill="#310686"/>
</svg>
