<?xml version="1.0" encoding="UTF-8" standalone="no"?>
<svg
   xmlns="http://www.w3.org/2000/svg"
   width="1441"
   height="1142"
   viewBox="0 0 1441 1142"
   fill="none"
   id="svg939">
  <defs
     id="defs943"/>
  <path
     d="M164.998 181.755C164.998 181.755 254.652 106.939 282.047 93.2228C309.441 79.5066 334.345 85.7413 334.345 85.7413C334.345 85.7413 369.21 62.0496 380.417 58.3088C391.624 54.568 416.528 58.3088 416.528 58.3088C416.528 58.3088 426.489 35.864 452.638 33.3701C478.787 30.8763 507.427 30.8763 507.427 30.8763C507.427 30.8763 540.509 22.0672 562.215 19.6539C583.003 17.3427 615.759 18.407 615.759 18.407C615.759 18.407 675.528 0.95189 706.658 5.93766C737.788 10.9234 747.749 19.6539 747.749 19.6539C747.749 19.6539 780.763 13.0676 801.293 17.16C813.965 19.6861 832.422 28.3824 832.422 28.3824C832.422 28.3824 859.817 24.6436 899.663 30.8763C939.509 37.109 948.225 49.5802 948.225 49.5802C948.225 49.5802 968.163 47.3035 980.601 49.5802C996.24 52.4432 1017.96 65.7903 1017.96 65.7903C1017.96 65.7903 1039.12 59.5576 1064.03 68.2842C1088.93 77.0108 1177.34 123.151 1194.77 135.618C1212.21 148.086 1223.41 168.039 1223.41 168.039C1223.41 168.039 1244.07 180.603 1254.54 191.73C1263.15 200.876 1273.22 217.916 1273.22 217.916C1273.22 217.916 1294.26 230.981 1304.35 242.855C1310.05 249.562 1312.48 256.174 1314.91 262.782C1317.35 269.413 1319.78 276.04 1325.52 282.756C1328.06 285.73 1331.11 287.746 1333.97 289.64C1337.91 292.251 1341.51 294.63 1342.95 298.966C1345.44 306.45 1342.95 313.93 1342.95 313.93C1342.95 313.93 1354.61 326.892 1360.38 336.374C1366.5 346.424 1372.84 363.807 1372.84 363.807C1372.84 363.807 1381.55 368.797 1387.78 382.511C1394 396.225 1397.74 427.4 1397.74 427.4C1397.74 427.4 1408.21 445.671 1411.44 458.574C1414.75 471.834 1413.93 493.488 1413.93 493.488C1413.93 493.488 1421.03 511.433 1423.89 523.414C1427.65 539.157 1428.87 564.563 1428.87 564.563C1428.87 564.563 1437.59 601.969 1433.85 616.934C1430.12 631.899 1421.4 638.132 1421.4 638.132C1421.4 638.132 1421.4 691.752 1403.97 716.688C1386.53 741.625 1357.89 749.109 1357.89 749.109C1357.89 749.109 1355.4 759.086 1347.93 761.578C1340.46 764.07 1321.78 762.825 1321.78 762.825C1321.78 762.825 1334.26 799.572 1334.24 823.924C1334.21 849.33 1329.69 863.823 1320.54 887.518C1309.59 915.873 1298.12 936.15 1279.45 953.605C1271.61 960.931 1259.38 974.406 1247.1 987.947C1230.11 1006.67 1213.01 1025.53 1207.23 1028.42C1197.26 1033.41 1186.06 1024.68 1186.06 1024.68C1186.06 1024.68 1176.75 1035.4 1168.62 1038.4C1161.17 1041.15 1155.71 1040.27 1148.7 1039.15C1147.13 1038.9 1145.49 1038.63 1143.72 1038.4C1132.13 1036.83 1115.08 1029.67 1115.08 1029.67C1115.08 1029.67 1100.92 1026.75 1092.67 1029.67C1084.84 1032.44 1082.18 1038.59 1079.34 1045.18C1077.19 1050.17 1074.94 1055.4 1070.25 1059.59C1068.93 1060.78 1067.73 1061.92 1066.58 1063C1061.61 1067.68 1057.74 1071.33 1050.33 1073.31C1043.28 1075.2 1031.65 1073.31 1031.65 1073.31L1042.86 1131.92H917.096C917.096 1131.92 874.716 1087.82 852.345 1055.85C851.732 1054.98 851.13 1054.12 850.538 1053.27C837.222 1034.26 829.12 1022.69 818.725 1000.99C817.742 998.935 816.819 997.14 815.952 995.453C813.583 990.842 811.633 987.048 810.009 981.038C807.708 972.525 807.519 958.593 807.519 958.593C807.519 958.593 793.385 964.094 783.86 964.828C762.237 966.494 749.395 958.482 731.562 946.124C708.041 929.823 689.225 886.271 689.225 886.271C689.225 886.271 660.587 892.718 641.908 893.752C640.609 893.824 639.332 893.896 638.076 893.967C611.483 895.465 594.035 896.448 568.441 886.271C544.484 876.744 514.898 847.616 514.898 847.616C514.898 847.616 495.798 848.191 483.768 846.369C469.767 844.249 462.109 841.51 448.903 836.394C429.212 828.765 418.823 822.415 401.585 810.208C398.066 807.716 394.733 805.644 391.584 803.688C382.633 798.125 375.177 793.491 369.21 782.776C363.098 771.8 362.614 763.699 361.899 751.745C361.847 750.887 361.795 750.009 361.739 749.109C360.983 736.919 361.803 729.904 364.229 717.935C366.677 705.862 379.406 690.746 379.406 690.746C379.406 690.746 267.104 717.935 233.484 715.441C199.864 712.948 179.941 691.75 179.941 691.75C179.941 691.75 116.436 690.505 71.6088 664.317C26.7818 638.13 31.7626 598.23 31.7626 598.23C31.7626 598.23 18.5567 568.551 14.3299 548.353C7.64736 516.42 14.3299 464.808 14.3299 464.808C14.3299 464.808 4.25822 435.319 9.3491 417.425C13.9336 401.31 34.253 382.511 34.253 382.511C34.253 382.511 25.5366 337.621 46.7049 303.954C67.8732 270.287 105.229 244.101 105.229 244.101C105.229 244.101 110.21 222.904 130.133 202.953C150.056 183.002 164.998 181.755 164.998 181.755Z"
     fill="#310686"
     id="path907" />
  <path
     d="M164.998 181.755C164.998 181.755 254.652 106.939 282.047 93.2228C309.441 79.5066 334.345 85.7413 334.345 85.7413C334.345 85.7413 369.21 62.0496 380.417 58.3088C391.624 54.568 416.528 58.3088 416.528 58.3088C416.528 58.3088 426.489 35.864 452.638 33.3701C478.787 30.8763 507.427 30.8763 507.427 30.8763C507.427 30.8763 540.509 22.0672 562.215 19.6539C583.003 17.3427 615.759 18.407 615.759 18.407C615.759 18.407 675.528 0.95189 706.658 5.93766C737.788 10.9234 747.749 19.6539 747.749 19.6539C747.749 19.6539 780.763 13.0676 801.293 17.16C813.965 19.6861 832.422 28.3824 832.422 28.3824C832.422 28.3824 859.817 24.6436 899.663 30.8763C939.509 37.109 948.225 49.5802 948.225 49.5802C948.225 49.5802 968.163 47.3035 980.601 49.5802C996.24 52.4432 1017.96 65.7903 1017.96 65.7903C1017.96 65.7903 1039.12 59.5576 1064.03 68.2842C1088.93 77.0108 1177.34 123.151 1194.77 135.618C1212.21 148.086 1223.41 168.039 1223.41 168.039C1223.41 168.039 1244.07 180.603 1254.54 191.73C1263.15 200.876 1273.22 217.916 1273.22 217.916C1273.22 217.916 1294.26 230.981 1304.35 242.855C1310.05 249.562 1312.48 256.174 1314.91 262.782C1317.35 269.413 1319.78 276.04 1325.52 282.756C1328.06 285.73 1331.11 287.746 1333.97 289.64C1337.91 292.251 1341.51 294.63 1342.95 298.966C1345.44 306.45 1342.95 313.93 1342.95 313.93C1342.95 313.93 1354.61 326.892 1360.38 336.374C1366.5 346.424 1372.84 363.807 1372.84 363.807C1372.84 363.807 1381.55 368.797 1387.78 382.511C1394 396.225 1397.74 427.4 1397.74 427.4C1397.74 427.4 1408.21 445.671 1411.44 458.574C1414.75 471.834 1413.93 493.488 1413.93 493.488C1413.93 493.488 1421.03 511.433 1423.89 523.414C1427.65 539.157 1428.87 564.563 1428.87 564.563C1428.87 564.563 1437.59 601.969 1433.85 616.934C1430.12 631.899 1421.4 638.132 1421.4 638.132C1421.4 638.132 1421.4 691.752 1403.97 716.688C1386.53 741.625 1357.89 749.109 1357.89 749.109C1357.89 749.109 1355.4 759.086 1347.93 761.578C1340.46 764.07 1321.78 762.825 1321.78 762.825C1321.78 762.825 1334.26 799.572 1334.24 823.924C1334.21 849.33 1329.69 863.823 1320.54 887.518C1309.59 915.873 1298.12 936.15 1279.45 953.605C1271.61 960.931 1259.38 974.406 1247.1 987.947C1230.11 1006.67 1213.01 1025.53 1207.23 1028.42C1197.26 1033.41 1186.06 1024.68 1186.06 1024.68C1186.06 1024.68 1176.75 1035.4 1168.62 1038.4C1161.17 1041.15 1155.71 1040.27 1148.7 1039.15C1147.13 1038.9 1145.49 1038.63 1143.72 1038.4C1132.13 1036.83 1115.08 1029.67 1115.08 1029.67C1115.08 1029.67 1100.92 1026.75 1092.67 1029.67C1084.84 1032.44 1082.18 1038.59 1079.34 1045.18C1077.19 1050.17 1074.94 1055.4 1070.25 1059.59C1068.93 1060.78 1067.73 1061.92 1066.58 1063C1061.61 1067.68 1057.74 1071.33 1050.33 1073.31C1043.28 1075.2 1031.65 1073.31 1031.65 1073.31L1042.86 1131.92H917.096C917.096 1131.92 874.716 1087.82 852.345 1055.85C851.732 1054.98 851.13 1054.12 850.538 1053.27C837.222 1034.26 829.12 1022.69 818.725 1000.99C817.742 998.935 816.819 997.14 815.952 995.453C813.583 990.842 811.633 987.048 810.009 981.038C807.708 972.525 807.519 958.593 807.519 958.593C807.519 958.593 793.385 964.094 783.86 964.828C762.237 966.494 749.395 958.482 731.562 946.124C708.041 929.823 689.225 886.271 689.225 886.271C689.225 886.271 660.587 892.718 641.908 893.752C640.609 893.824 639.332 893.896 638.076 893.967C611.483 895.465 594.035 896.448 568.441 886.271C544.484 876.744 514.898 847.616 514.898 847.616C514.898 847.616 495.798 848.191 483.768 846.369C469.767 844.249 462.109 841.51 448.903 836.394C429.212 828.765 418.823 822.415 401.585 810.208C398.066 807.716 394.733 805.644 391.584 803.688C382.633 798.125 375.177 793.491 369.21 782.776C363.098 771.8 362.614 763.699 361.899 751.745C361.847 750.887 361.795 750.009 361.739 749.109C360.983 736.919 361.803 729.904 364.229 717.935C366.677 705.862 379.406 690.746 379.406 690.746C379.406 690.746 267.104 717.935 233.484 715.441C199.864 712.948 179.941 691.75 179.941 691.75C179.941 691.75 116.436 690.505 71.6088 664.317C26.7818 638.13 31.7626 598.23 31.7626 598.23C31.7626 598.23 18.5567 568.551 14.3299 548.353C7.64736 516.42 14.3299 464.808 14.3299 464.808C14.3299 464.808 4.25822 435.319 9.3491 417.425C13.9336 401.31 34.253 382.511 34.253 382.511C34.253 382.511 25.5366 337.621 46.7049 303.954C67.8732 270.287 105.229 244.101 105.229 244.101C105.229 244.101 110.21 222.904 130.133 202.953C150.056 183.002 164.998 181.755 164.998 181.755Z"
     stroke="black"
     id="path909" />
  <path
     d="M979.747 1018.47L963.361 992.003L955.798 963.012L933.109 926.458L929.328 857.131L935.63 802.93L916.723 762.595L909.16 720.999L912.942 690.747L930.588 666.798L935.63 651.672L950.756 652.932C950.756 652.932 952.997 633.777 959.58 623.941C964.81 616.126 968.382 610.751 977.226 607.555C983.262 605.374 993.613 606.295 993.613 606.295C993.613 606.295 987.031 585.172 992.352 573.522C996.838 563.702 1002.39 558.336 1012.52 554.615C1019.93 551.894 1032.69 553.354 1032.69 553.354C1032.69 553.354 1046.4 539.196 1057.9 535.707C1072.1 531.399 1082.08 533.621 1095.71 539.489C1103.86 542.997 1114.62 552.094 1114.62 552.094C1114.62 552.094 1134.93 550.454 1144.87 557.136C1149.49 560.242 1154.95 567.219 1154.95 567.219C1154.95 567.219 1167.09 566.614 1172.6 571.001C1177.43 574.84 1179.03 578.804 1180.16 584.866C1181.17 590.21 1178.9 598.732 1178.9 598.732C1178.9 598.732 1196 625.605 1212.94 635.286C1219.45 639.007 1224.05 639.179 1230.58 642.849C1246.07 651.538 1251.77 660.908 1263.36 674.361C1272.54 685.028 1284.78 703.352 1284.78 703.352C1284.78 703.352 1293.61 703.353 1296.13 707.133C1298.65 710.914 1308.42 724 1313.78 736.125C1318.2 746.143 1322.27 762.851 1322.27 762.851C1322.27 762.851 1334.75 799.598 1334.73 823.95C1334.7 849.356 1330.18 863.849 1321.03 887.544C1310.07 915.899 1298.61 936.176 1279.94 953.631C1261.26 971.086 1217.68 1023.46 1207.71 1028.45C1197.75 1033.44 1186.55 1024.71 1186.55 1024.71C1186.55 1024.71 1177.24 1035.42 1169.11 1038.42C1159.99 1041.79 1153.85 1039.72 1144.21 1038.42C1132.62 1036.86 1115.57 1029.69 1115.57 1029.69C1115.57 1029.69 1101.41 1026.78 1093.16 1029.69C1079.4 1034.56 1081.62 1049.88 1070.74 1059.62C1063.71 1065.92 1059.94 1070.89 1050.82 1073.34C1043.77 1075.22 1032.69 1075.2 1032.69 1075.2L993.613 1062.59L979.747 1018.47Z"
     fill="#4508BD"
     id="path911" />
  <path
     d="M688.607 885.234C688.388 884.258 688.388 884.258 688.388 884.258L688.387 884.259L688.383 884.259L688.368 884.263L688.307 884.276L688.065 884.33C687.852 884.377 687.536 884.447 687.128 884.536C686.311 884.714 685.122 884.969 683.637 885.278C680.666 885.898 676.511 886.734 671.773 887.603C662.286 889.343 650.508 891.203 641.235 891.717C639.948 891.788 638.684 891.859 637.44 891.93C610.829 893.428 593.578 894.399 568.193 884.305C556.365 879.601 543.078 870.021 532.7 861.559C527.522 857.337 523.09 853.411 519.952 850.541C518.384 849.107 517.139 847.936 516.288 847.125C515.862 846.72 515.535 846.404 515.314 846.19C515.204 846.083 515.12 846.002 515.065 845.948L515.002 845.886L514.987 845.871L514.983 845.867L514.982 845.867C514.982 845.866 514.982 845.866 514.28 846.579L514.982 845.866L514.677 845.567L514.25 845.579L514.25 845.58L514.247 845.58L514.237 845.58L514.197 845.581L514.036 845.585L513.892 845.589C513.765 845.592 513.604 845.596 513.414 845.6C512.871 845.612 512.081 845.628 511.095 845.64C509.123 845.666 506.369 845.681 503.24 845.639C496.969 845.555 489.244 845.243 483.3 844.343C469.406 842.24 461.828 839.531 448.646 834.424C429.056 826.834 418.741 820.532 401.545 808.355C398.138 805.942 394.905 803.921 391.866 802.033L391.505 801.808C388.595 799.999 385.876 798.309 383.315 796.482C378.01 792.696 373.411 788.336 369.466 781.252C363.468 770.48 362.995 762.589 362.278 750.619C362.227 749.77 362.175 748.902 362.119 748.01C361.37 735.93 362.178 729.005 364.592 717.097C365.8 711.138 368.268 703.715 370.449 697.752C371.538 694.776 372.55 692.176 373.29 690.321C373.66 689.393 373.962 688.652 374.171 688.143C374.217 688.03 374.259 687.928 374.296 687.838L374.42 687.811C374.836 687.721 375.451 687.586 376.246 687.412C377.836 687.064 380.148 686.556 383.031 685.918C388.798 684.643 396.856 682.846 406.016 680.763C424.334 676.598 447.073 671.286 464.732 666.7C468.884 665.622 472.527 664.846 475.984 664.11C483.062 662.604 489.357 661.263 497.636 657.832C513.871 651.104 522.995 645.846 535.757 633.683C536.516 632.961 537.257 632.258 537.983 631.57C547.456 622.591 554.147 616.25 558.702 603.033C561.534 594.813 561.414 588.602 561.276 581.421C561.223 578.646 561.166 575.727 561.277 572.49C561.546 564.593 561.546 556.063 561.32 548.715C561.096 541.393 560.646 535.169 559.997 531.925C559.883 531.352 559.778 530.803 559.677 530.276C559.241 527.997 558.885 526.137 558.194 524.617C557.286 522.62 555.825 521.214 553.161 519.882C550.561 518.582 548.249 517.597 543.393 516.949C538.594 516.31 531.287 515.995 518.681 515.995C511.921 515.995 505.127 516.258 498.195 516.526C479.113 517.263 458.989 518.04 435.681 513.493C431.848 512.745 428.363 512.192 425.094 511.673C414.516 509.994 406.201 508.674 395.673 502.275C386.745 496.849 381.411 493.499 375.823 484.937C368.449 473.636 364.021 462.342 364.021 449.993C364.021 443.674 364.022 440.576 364.332 437.325C364.642 434.069 365.262 430.651 366.526 423.702C369.013 410.023 373.525 402.142 379.607 392.751C385.783 383.213 391.522 378.519 399.393 372.08C401.035 370.737 402.769 369.318 404.62 367.763C419.806 355.007 429.635 349.321 447.294 340.154C470.457 328.131 487.059 323.902 509.036 318.304C514.47 316.92 520.233 315.452 526.504 313.762C527.228 313.567 527.941 313.375 528.644 313.185C548.773 307.758 560.722 304.537 581.862 301.179C601.858 298.004 613.195 296.695 633.412 296.149C654.543 295.579 666.468 296.202 687.47 298.664C698.874 300.001 707.639 301.879 716.412 303.902C717.642 304.186 718.872 304.472 720.111 304.761C727.704 306.529 735.588 308.365 745.404 310.002C755.849 311.743 764.575 312.414 772.899 313.055C774.768 313.199 776.617 313.341 778.461 313.493C788.518 314.325 798.468 315.463 810.853 318.804C827.843 323.387 837.243 327.481 852.927 334.312C853.552 334.584 854.186 334.861 854.832 335.142C878.799 345.574 891.571 353.001 913.955 366.592C917.376 368.669 920.512 370.526 923.464 372.274C934.955 379.079 943.647 384.226 955.422 394.23C968.385 405.243 975.364 411.992 985.52 425.579C986.854 427.363 988.11 428.99 989.297 430.528C994.635 437.446 998.56 442.531 1001.76 451.777C1004.22 458.86 1005.49 462.996 1005.49 470.357C1005.49 477.877 1005.43 482.479 1001.84 488.768C1000.28 491.498 999.392 492.964 997.993 494.384C996.575 495.825 994.603 497.247 990.809 499.777C987.148 502.218 981.875 504.264 975.702 506.412C974.143 506.955 972.529 507.503 970.875 508.065C966.027 509.711 960.838 511.474 955.696 513.547C951.177 515.368 946.39 517.163 941.776 518.893C939.079 519.904 936.441 520.893 933.951 521.852C930.587 523.147 927.498 524.386 924.929 525.542C922.378 526.689 920.271 527.784 918.916 528.8C916.413 530.677 914.65 532.065 913.414 533.628C912.141 535.239 911.464 536.982 910.971 539.491C910.112 543.871 911.447 546.796 913.063 550.338C913.227 550.697 913.393 551.063 913.561 551.437C915.746 556.312 920.185 558.164 924.143 559.816C924.285 559.875 924.426 559.934 924.567 559.992C928.745 561.741 932.298 563.377 933.689 567.72C934.681 570.816 934.607 573.346 934.162 575.971C933.976 577.07 933.727 578.173 933.461 579.355C933.404 579.607 933.346 579.863 933.288 580.123C932.96 581.591 932.627 583.173 932.39 584.928C931.743 589.721 929.978 593.545 928.229 597.333C927.842 598.171 927.456 599.007 927.083 599.851C925.035 604.49 923.452 609.276 924.842 615.53C926.016 620.814 928.042 623.952 930.515 627.782C931.158 628.778 931.831 629.821 932.528 630.96C935.61 636.005 938.088 639.026 941.267 642.902C942.104 643.922 942.989 645.001 943.946 646.191C945.158 647.698 946.739 649.596 948.014 651.113C948.385 651.554 948.731 651.964 949.034 652.323C949.012 652.326 948.99 652.329 948.968 652.331C947.763 652.487 946.118 652.756 944.369 653.206C942.624 653.655 940.743 654.293 939.083 655.2C937.429 656.104 935.92 657.316 935.025 658.95C933.658 661.444 934.01 663.71 934.453 665.764C934.5 665.98 934.547 666.193 934.594 666.404C935.001 668.236 935.37 669.898 934.928 671.809C933.941 676.078 931.414 678.497 928.443 680.984C928.161 681.22 927.875 681.456 927.586 681.695C924.848 683.959 921.84 686.445 919.876 690.506C915.202 700.167 915.047 707.31 914.838 716.949C914.809 718.3 914.779 719.701 914.735 721.163C914.383 732.837 914.826 742.452 916.896 751.669C918.967 760.894 922.657 769.673 928.745 779.695C931.607 784.408 936.069 789.82 939.784 794.026C941.647 796.136 943.333 797.955 944.554 799.246C944.708 799.409 944.854 799.563 944.992 799.709C945.404 800.141 945.745 800.495 946 800.759C946.06 800.82 946.115 800.877 946.165 800.928C946.158 800.962 946.151 800.998 946.144 801.035C946.066 801.444 945.951 802.048 945.805 802.828C945.515 804.389 945.102 806.656 944.613 809.486C943.635 815.145 942.35 823.057 941.125 832.067C938.679 850.068 936.461 872.52 937.424 890.153C937.673 894.708 937.662 898.871 937.636 902.829L937.631 903.577C937.607 907.255 937.583 910.774 937.767 914.24C938.161 921.674 939.511 928.893 943.838 937.199C946.568 942.438 951.372 948.191 955.443 952.596C957.487 954.807 959.363 956.697 960.728 958.033C961.411 958.702 961.966 959.233 962.352 959.597C962.492 959.729 962.609 959.839 962.702 959.926C962.719 960.027 962.74 960.149 962.765 960.291C962.843 960.745 962.958 961.401 963.109 962.218C963.409 963.852 963.849 966.13 964.406 968.703C965.516 973.836 967.106 980.205 969.005 985.003C971.613 991.59 976.394 999.231 980.488 1005.18C982.54 1008.17 984.432 1010.75 985.81 1012.58C986.499 1013.5 987.061 1014.23 987.45 1014.73C987.622 1014.95 987.761 1015.13 987.862 1015.26C987.864 1015.29 987.866 1015.32 987.868 1015.36C987.875 1015.46 987.884 1015.59 987.894 1015.74C987.909 1015.96 987.929 1016.23 987.953 1016.53C988.033 1017.54 988.166 1019 988.374 1020.79C988.792 1024.36 989.515 1029.26 990.74 1034.54C991.963 1039.81 993.693 1045.5 996.132 1050.64C998.568 1055.78 1001.74 1060.43 1005.88 1063.58C1010.12 1066.8 1016.4 1069.22 1021.53 1070.82C1024.11 1071.62 1026.44 1072.23 1028.11 1072.64C1028.95 1072.84 1029.63 1072.99 1030.1 1073.1C1030.13 1073.1 1030.15 1073.11 1030.18 1073.11L1041.03 1129.88H916.905C916.85 1129.82 916.788 1129.76 916.72 1129.68C916.404 1129.35 915.939 1128.87 915.339 1128.23C914.138 1126.97 912.397 1125.12 910.238 1122.81C905.919 1118.18 899.927 1111.67 893.238 1104.17C879.852 1089.15 863.697 1070.17 852.547 1054.24C851.935 1053.37 851.333 1052.51 850.742 1051.66C837.428 1032.65 829.367 1021.14 819.009 999.519C818.001 997.414 817.065 995.592 816.192 993.894C813.841 989.317 811.952 985.641 810.357 979.739C809.232 975.58 808.615 970.048 808.281 965.512C808.114 963.253 808.019 961.258 807.966 959.828C807.939 959.113 807.923 958.54 807.913 958.146C807.908 957.95 807.905 957.798 807.903 957.695L807.901 957.58L807.901 957.551L807.901 957.544V957.542L806.901 957.556L807.901 957.542L807.881 956.101L806.538 956.624L806.536 956.624L806.529 956.627L806.5 956.638L806.383 956.683C806.332 956.703 806.27 956.726 806.197 956.754C806.118 956.784 806.027 956.818 805.924 956.857C805.523 957.007 804.939 957.223 804.207 957.485C802.743 958.008 800.693 958.714 798.347 959.443C793.636 960.906 787.81 962.435 783.165 962.793C761.916 964.43 749.328 956.61 731.514 944.264C719.943 936.246 709.45 921.447 701.816 908.538C698.01 902.103 694.936 896.173 692.812 891.853C691.751 889.693 690.928 887.936 690.371 886.72C690.092 886.113 689.88 885.64 689.738 885.321C689.667 885.161 689.614 885.039 689.578 884.958L689.538 884.867L689.528 884.844L689.526 884.839L689.525 884.838C689.525 884.837 689.525 884.837 688.607 885.234ZM688.607 885.234L688.388 884.258L689.197 884.076L689.525 884.837L688.607 885.234Z"
     fill="#E0F4FF"
     stroke="#4508BD"
     stroke-width="2"
     id="path913" />
  <circle
     cx="733.952"
     cy="547.572"
     r="25.2097"
     fill="#5C09FF"
     id="circle915" />
     <path
     id="svg-brain-animate-path"
     style="color:#000000;font-style:normal;font-variant:normal;font-weight:normal;font-stretch:normal;font-size:medium;line-height:normal;font-family:sans-serif;font-variant-ligatures:normal;font-variant-position:normal;font-variant-caps:normal;font-variant-numeric:normal;font-variant-alternates:normal;font-variant-east-asian:normal;font-feature-settings:normal;font-variation-settings:normal;text-indent:0;text-align:start;text-decoration:none;text-decoration-line:none;text-decoration-style:solid;text-decoration-color:#000000;letter-spacing:normal;word-spacing:normal;text-transform:none;writing-mode:lr-tb;direction:ltr;text-orientation:mixed;dominant-baseline:auto;baseline-shift:baseline;text-anchor:start;white-space:normal;shape-padding:0;shape-margin:0;inline-size:0;clip-rule:nonzero;display:inline;overflow:visible;visibility:visible;isolation:auto;mix-blend-mode:normal;color-interpolation:sRGB;color-interpolation-filters:linearRGB;solid-color:#000000;solid-opacity:1;vector-effect:none;fill:#5c09ff;fill-opacity:1;fill-rule:nonzero;stroke:none;stroke-linecap:butt;stroke-linejoin:miter;stroke-miterlimit:4;stroke-dasharray:none;stroke-dashoffset:0;stroke-opacity:1;color-rendering:auto;image-rendering:auto;shape-rendering:auto;text-rendering:auto;enable-background:accumulate;stop-color:#000000;stop-opacity:1;opacity:1"
     d="M 553.70312 142.43555 C 553.70312 142.43555 550.55511 150.08706 548.66211 155.03906 C 545.49311 163.32906 543.91961 168.05475 541.09961 176.46875 C 537.98261 185.76775 537.01216 191.24697 533.53516 200.41797 C 530.09816 209.48397 528.01417 214.54947 523.45117 223.10547 C 519.08017 231.30047 516.44366 235.86144 510.84766 243.27344 C 505.17406 250.78927 493.78953 262.55069 486.35938 270.01953 C 468.35246 274.57223 451.61833 280.34996 430.52148 290.44727 C 430.28751 290.55925 430.10013 290.65296 429.86914 290.76367 C 428.84857 288.0191 427.77816 284.669 427.65625 282.34766 C 427.42225 277.89666 428.54297 275.44491 428.91797 271.00391 C 430.49497 252.35791 429.53325 241.72347 427.65625 223.10547 C 426.60825 212.71647 428.825 205.82877 423.875 196.63477 C 420.407 190.19077 411.26953 182.76953 411.26953 182.76953 C 411.26953 182.76953 416.20527 204.90222 417.57227 219.32422 C 419.66327 241.38122 420.7075 254.32892 416.3125 276.04492 C 414.7965 283.53492 411.82253 287.33113 411.26953 294.95312 C 411.1834 296.14435 411.11231 298.20108 411.05273 300.22461 C 400.37109 306.03315 391.25089 312.10092 375.52344 323.69141 C 361.18634 334.25621 348.49303 347.19258 338.88867 359.67969 C 337.03111 359.3957 335.28813 358.88579 334.37891 357.97656 C 330.59691 354.19556 331.85866 354.19605 330.59766 345.37305 C 329.33766 336.54905 325.9212 328.55311 323.0332 320.16211 C 319.4882 309.85811 318.16094 303.84836 314.21094 293.69336 C 311.49294 286.70536 310.69444 282.35888 306.64844 276.04688 C 301.38844 267.84188 296.63995 264.45244 289.00195 258.39844 C 285.68395 255.76844 280.17773 252.09766 280.17773 252.09766 C 280.17773 252.09766 283.62347 262.24942 286.48047 268.48242 C 290.24647 276.69742 297.82422 288.65039 297.82422 288.65039 C 297.82422 288.65039 304.6922 299.83359 307.9082 307.55859 C 312.2232 317.92159 312.9127 324.35906 315.4707 335.28906 C 317.7587 345.06506 319.05167 350.56605 320.51367 360.49805 C 321.46407 366.95345 322.3357 378.12064 322.91602 386.38086 C 316.33409 402.39878 312.65019 415.71339 312.98828 434.94531 C 313.34429 455.27606 316.96241 468.26507 326.13672 486.28516 C 340.77092 515.02908 360.08851 525.49867 385.83008 542.39844 C 418.07795 563.56868 440.87979 570.71137 478.32227 578.41016 C 524.08251 587.81917 560.35981 581.82675 605.74219 577.23633 C 651.10157 572.64884 718.85936 554.40039 718.85938 554.40039 L 716.26953 544.74219 C 716.26953 544.74219 648.42495 562.8686 604.73633 567.28711 C 559.02565 571.91067 524.25702 577.64608 480.33594 568.61523 C 443.28042 560.99602 422.64849 554.60682 391.31836 534.03906 C 365.23793 516.91683 348.53868 508.24812 335.04688 481.74805 C 326.23718 464.44414 323.32431 454.07079 322.98633 434.76953 C 322.66199 416.32 325.95917 405.0135 332.68555 388.88281 C 338.90862 373.96 358.29313 348.81134 381.45703 331.74219 C 405.29739 314.17283 412.60189 310.10929 434.83789 299.4668 C 470.08671 282.59612 491.84134 278.32472 530.67969 270.87695 C 572.11094 262.93099 595.73165 262.04476 638.12891 262.14258 C 669.15606 262.21547 686.29974 262.67193 716.82812 267.13086 C 751.59431 272.20999 770.30247 278.36981 804.37109 288.4082 C 862.93109 305.66122 902.08628 320.95574 949.76953 344.79688 C 949.77323 344.79872 949.77169 344.79893 949.77539 344.80078 L 949.77344 344.80469 C 949.77344 344.80469 956.536 348.18423 961.94336 350.88672 C 962.29116 351.16497 962.64014 351.43802 962.98633 351.7207 C 972.59633 359.5677 980.82283 369.52723 986.04883 374.36523 C 1001.8898 389.02523 1009.8591 398.17945 1025.1191 413.43945 C 1030.0491 418.36145 1037.7305 426.04492 1037.7305 426.04492 C 1037.7305 426.04492 1035.5395 415.7152 1032.6895 409.6582 C 1029.3695 402.6182 1026.1198 399.41848 1021.3398 393.27148 C 1012.5898 381.99748 1006.1098 377.00773 996.13281 366.80273 C 992.32736 362.9122 987.55062 358.13278 983.43555 354.03516 C 994.50071 355.14731 1020.4849 357.26173 1038.5098 354.70898 C 1055.6498 352.28198 1064.8891 348.68023 1081.3691 343.36523 C 1089.8091 340.64123 1093.9691 339.58373 1102.7891 335.80273 C 1111.6191 332.02173 1114.1406 326.97852 1114.1406 326.97852 C 1114.1406 326.97852 1100.1892 327.734 1091.4492 329.5 C 1082.8992 331.227 1078.5295 333.88873 1070.0195 335.80273 C 1050.9995 340.08073 1038.2593 342.51623 1018.7793 343.36523 C 1007.5793 343.85323 985.26941 344.3898 964.44141 339.5918 C 961.70278 338.69469 959.0135 337.79536 956.33398 336.89844 C 955.2194 336.34116 955.48086 336.47184 954.24023 335.85156 C 913.3604 315.41207 878.30584 301.06658 832.55078 286.56445 C 840.17656 285.38776 849.92891 283.78997 856.21875 282.34961 C 868.20775 279.60461 875.3907 278.93175 886.4707 273.59375 C 897.3107 268.37175 902.06464 263.11091 911.68164 255.87891 C 922.31064 247.88391 927.20139 242.00022 938.15039 234.44922 C 943.43439 230.80622 946.41863 228.76695 952.01562 225.62695 C 956.81563 222.93395 960.00809 222.32622 964.62109 219.32422 C 971.33809 214.95522 974.63109 211.62798 979.74609 205.45898 C 982.44909 202.19898 986.04883 196.63672 986.04883 196.63672 C 986.04883 196.63672 977.31259 199.05173 972.18359 201.67773 C 967.44459 204.10373 960.83984 209.24023 960.83984 209.24023 C 960.83984 209.24023 951.93884 216.61294 945.71484 220.58594 C 939.58884 224.49694 935.52612 225.6132 929.32812 229.4082 C 918.83312 235.8352 914.45619 241.64241 904.11719 248.31641 C 892.82819 255.60241 886.33723 259.70317 873.86523 264.70117 C 861.74523 269.55817 854.45877 271.13575 841.63477 273.59375 C 831.82008 275.4755 814.0972 276.47909 801.04102 276.99805 C 770.98932 268.09104 751.33642 262.06663 718.27344 257.23633 C 702.48822 254.93076 690.0589 253.6789 677.54883 252.98828 C 681.19163 249.06572 686.12416 243.91295 689.83594 240.75195 C 696.74694 234.86795 700.85442 231.82695 707.48242 225.62695 C 712.56642 220.87095 715.66889 218.40048 720.08789 213.02148 C 724.59389 207.53548 726.65687 204.06448 730.17188 197.89648 C 732.89687 193.11448 733.90066 190.15702 736.47266 185.29102 C 738.84166 180.81102 740.24539 178.33827 742.77539 173.94727 C 745.64139 168.97327 747.85484 166.5168 750.33984 161.3418 C 753.70884 154.3258 756.64062 142.43555 756.64062 142.43555 C 756.64063 142.43555 750.41064 149.2763 746.55664 153.7793 C 742.00764 159.0943 738.63989 161.54553 735.21289 167.64453 C 732.61589 172.26653 732.33988 175.41005 730.17188 180.24805 C 727.92088 185.27005 726.96619 188.30452 723.86719 192.85352 C 719.55619 199.18252 715.67991 201.57875 710.00391 206.71875 C 702.99491 213.06675 698.3377 215.7657 691.0957 221.8457 C 681.4837 229.9157 678.09148 237.13344 667.14648 243.27344 C 662.08023 246.11574 653.07741 249.55779 645.7168 252.17969 C 643.24117 252.16509 640.80161 252.1488 638.15234 252.14258 C 595.6016 252.0444 570.79162 253.00065 528.79688 261.05469 C 524.52143 261.87456 520.50095 262.65308 516.56445 263.42578 C 517.42924 259.12797 518.91422 253.02854 520.93164 249.57617 C 524.85764 242.85617 528.02239 239.70745 532.27539 233.18945 C 536.38139 226.89645 539.01937 223.53373 542.35938 216.80273 C 546.09937 209.26773 547.67887 204.74177 549.92188 196.63477 C 552.05887 188.91177 552.77813 184.42775 553.70312 176.46875 C 555.23713 163.26675 553.70312 142.43555 553.70312 142.43555 z "/>
  <path
     d="M665.405 90.3529C667.438 90.9196 669.038 91.9529 670.205 93.4529C671.371 94.9196 671.955 96.7863 671.955 99.0529C671.955 102.086 670.805 104.42 668.505 106.053C666.238 107.686 662.921 108.503 658.555 108.503H641.855V73.5029H657.555C661.555 73.5029 664.638 74.3029 666.805 75.9029C669.005 77.5029 670.105 79.7196 670.105 82.5529C670.105 84.3863 669.671 85.9696 668.805 87.3029C667.971 88.6363 666.838 89.6529 665.405 90.3529ZM646.855 77.5529V88.7529H657.105C659.671 88.7529 661.638 88.2863 663.005 87.3529C664.405 86.3863 665.105 84.9863 665.105 83.1529C665.105 81.3196 664.405 79.9363 663.005 79.0029C661.638 78.0363 659.671 77.5529 657.105 77.5529H646.855ZM658.355 104.453C661.188 104.453 663.321 103.986 664.755 103.053C666.188 102.12 666.905 100.653 666.905 98.6529C666.905 94.7529 664.055 92.8029 658.355 92.8029H646.855V104.453H658.355ZM703.996 71.4029V108.503H699.396V104.303C698.33 105.77 696.98 106.886 695.346 107.653C693.713 108.42 691.913 108.803 689.946 108.803C687.38 108.803 685.08 108.236 683.046 107.103C681.013 105.97 679.413 104.386 678.246 102.353C677.113 100.286 676.546 97.9196 676.546 95.2529C676.546 92.5863 677.113 90.2363 678.246 88.2029C679.413 86.1696 681.013 84.5863 683.046 83.4529C685.08 82.3196 687.38 81.7529 689.946 81.7529C691.846 81.7529 693.596 82.1196 695.196 82.8529C696.796 83.5529 698.13 84.6029 699.196 86.0029V71.4029H703.996ZM690.346 104.603C692.013 104.603 693.53 104.22 694.896 103.453C696.263 102.653 697.33 101.553 698.096 100.153C698.863 98.7196 699.246 97.0863 699.246 95.2529C699.246 93.4196 698.863 91.8029 698.096 90.4029C697.33 88.9696 696.263 87.8696 694.896 87.1029C693.53 86.3363 692.013 85.9529 690.346 85.9529C688.646 85.9529 687.113 86.3363 685.746 87.1029C684.413 87.8696 683.346 88.9696 682.546 90.4029C681.78 91.8029 681.396 93.4196 681.396 95.2529C681.396 97.0863 681.78 98.7196 682.546 100.153C683.346 101.553 684.413 102.653 685.746 103.453C687.113 104.22 688.646 104.603 690.346 104.603ZM737.028 95.4029C737.028 95.7696 736.995 96.2529 736.928 96.8529H715.428C715.728 99.1863 716.745 101.07 718.478 102.503C720.245 103.903 722.428 104.603 725.028 104.603C728.195 104.603 730.745 103.536 732.678 101.403L735.328 104.503C734.128 105.903 732.628 106.97 730.828 107.703C729.062 108.436 727.078 108.803 724.878 108.803C722.078 108.803 719.595 108.236 717.428 107.103C715.262 105.936 713.578 104.32 712.378 102.253C711.212 100.186 710.628 97.8529 710.628 95.2529C710.628 92.6863 711.195 90.3696 712.328 88.3029C713.495 86.2363 715.078 84.6363 717.078 83.5029C719.112 82.3363 721.395 81.7529 723.928 81.7529C726.462 81.7529 728.712 82.3363 730.678 83.5029C732.678 84.6363 734.228 86.2363 735.328 88.3029C736.462 90.3696 737.028 92.7363 737.028 95.4029ZM723.928 85.8029C721.628 85.8029 719.695 86.5029 718.128 87.9029C716.595 89.3029 715.695 91.1363 715.428 93.4029H732.428C732.162 91.1696 731.245 89.3529 729.678 87.9529C728.145 86.5196 726.228 85.8029 723.928 85.8029ZM732.828 71.6529L726.178 78.1529H721.578L714.928 71.6529H719.278L723.878 75.4529L728.478 71.6529H732.828ZM743.694 71.4029H748.494V108.503H743.694V71.4029ZM769.009 108.803C766.375 108.803 764.009 108.22 761.909 107.053C759.809 105.886 758.159 104.286 756.959 102.253C755.792 100.186 755.209 97.8529 755.209 95.2529C755.209 92.6529 755.792 90.3363 756.959 88.3029C758.159 86.2363 759.809 84.6363 761.909 83.5029C764.009 82.3363 766.375 81.7529 769.009 81.7529C771.642 81.7529 773.992 82.3363 776.059 83.5029C778.159 84.6363 779.792 86.2363 780.959 88.3029C782.159 90.3363 782.759 92.6529 782.759 95.2529C782.759 97.8529 782.159 100.186 780.959 102.253C779.792 104.286 778.159 105.886 776.059 107.053C773.992 108.22 771.642 108.803 769.009 108.803ZM769.009 104.603C770.709 104.603 772.225 104.22 773.559 103.453C774.925 102.653 775.992 101.553 776.759 100.153C777.525 98.7196 777.909 97.0863 777.909 95.2529C777.909 93.4196 777.525 91.8029 776.759 90.4029C775.992 88.9696 774.925 87.8696 773.559 87.1029C772.225 86.3363 770.709 85.9529 769.009 85.9529C767.309 85.9529 765.775 86.3363 764.409 87.1029C763.075 87.8696 762.009 88.9696 761.209 90.4029C760.442 91.8029 760.059 93.4196 760.059 95.2529C760.059 97.0863 760.442 98.7196 761.209 100.153C762.009 101.553 763.075 102.653 764.409 103.453C765.775 104.22 767.309 104.603 769.009 104.603ZM796.997 108.803C794.83 108.803 792.747 108.52 790.747 107.953C788.747 107.353 787.18 106.603 786.047 105.703L788.047 101.903C789.213 102.736 790.63 103.403 792.297 103.903C793.963 104.403 795.647 104.653 797.347 104.653C801.547 104.653 803.647 103.453 803.647 101.053C803.647 100.253 803.363 99.6196 802.797 99.1529C802.23 98.6863 801.513 98.3529 800.647 98.1529C799.813 97.9196 798.613 97.6696 797.047 97.4029C794.913 97.0696 793.163 96.6863 791.797 96.2529C790.463 95.8196 789.313 95.0863 788.347 94.0529C787.38 93.0196 786.897 91.5696 786.897 89.7029C786.897 87.3029 787.897 85.3863 789.897 83.9529C791.897 82.4863 794.58 81.7529 797.947 81.7529C799.714 81.7529 801.48 81.9696 803.247 82.4029C805.014 82.8363 806.464 83.4196 807.597 84.1529L805.547 87.9529C803.38 86.5529 800.83 85.8529 797.897 85.8529C795.863 85.8529 794.313 86.1863 793.247 86.8529C792.18 87.5196 791.647 88.4029 791.647 89.5029C791.647 90.3696 791.947 91.0529 792.547 91.5529C793.147 92.0529 793.88 92.4196 794.747 92.6529C795.647 92.8863 796.897 93.1529 798.497 93.4529C800.63 93.8196 802.347 94.2196 803.647 94.6529C804.98 95.0529 806.113 95.7529 807.047 96.7529C807.98 97.7529 808.447 99.1529 808.447 100.953C808.447 103.353 807.414 105.27 805.347 106.703C803.313 108.103 800.53 108.803 796.997 108.803ZM829.346 106.953C828.646 107.553 827.779 108.02 826.746 108.353C825.712 108.653 824.646 108.803 823.546 108.803C820.879 108.803 818.812 108.086 817.346 106.653C815.879 105.22 815.146 103.17 815.146 100.503V85.9529H810.646V82.0029H815.146V76.2029H819.946V82.0029H827.546V85.9529H819.946V100.303C819.946 101.736 820.296 102.836 820.996 103.603C821.729 104.37 822.762 104.753 824.096 104.753C825.562 104.753 826.812 104.336 827.846 103.503L829.346 106.953Z"
     fill="white"
     id="path933" />
  <path
     d="M655.157 499.26C650.917 499.26 647.097 498.34 643.697 496.5C640.297 494.62 637.617 492.04 635.657 488.76C633.737 485.48 632.777 481.82 632.777 477.78C632.777 473.74 633.737 470.08 635.657 466.8C637.617 463.52 640.297 460.96 643.697 459.12C647.097 457.24 650.917 456.3 655.157 456.3C659.357 456.3 663.157 457.24 666.557 459.12C669.957 460.96 672.617 463.52 674.537 466.8C676.457 470.04 677.417 473.7 677.417 477.78C677.417 481.86 676.457 485.54 674.537 488.82C672.617 492.06 669.957 494.62 666.557 496.5C663.157 498.34 659.357 499.26 655.157 499.26ZM655.157 493.92C658.237 493.92 660.997 493.22 663.437 491.82C665.917 490.42 667.857 488.5 669.257 486.06C670.697 483.58 671.417 480.82 671.417 477.78C671.417 474.74 670.697 472 669.257 469.56C667.857 467.08 665.917 465.14 663.437 463.74C660.997 462.34 658.237 461.64 655.157 461.64C652.077 461.64 649.277 462.34 646.757 463.74C644.277 465.14 642.317 467.08 640.877 469.56C639.477 472 638.777 474.74 638.777 477.78C638.777 480.82 639.477 483.58 640.877 486.06C642.317 488.5 644.277 490.42 646.757 491.82C649.277 493.22 652.077 493.92 655.157 493.92ZM691.267 472.32C692.267 470.48 693.747 469.08 695.707 468.12C697.667 467.16 700.047 466.68 702.847 466.68V472.26C702.527 472.22 702.087 472.2 701.527 472.2C698.407 472.2 695.947 473.14 694.147 475.02C692.387 476.86 691.507 479.5 691.507 482.94V498.78H685.747V466.98H691.267V472.32ZM738.394 483.06C738.394 483.5 738.354 484.08 738.274 484.8H712.474C712.834 487.6 714.054 489.86 716.134 491.58C718.254 493.26 720.874 494.1 723.994 494.1C727.794 494.1 730.854 492.82 733.174 490.26L736.354 493.98C734.914 495.66 733.114 496.94 730.954 497.82C728.834 498.7 726.454 499.14 723.814 499.14C720.454 499.14 717.474 498.46 714.874 497.1C712.274 495.7 710.254 493.76 708.814 491.28C707.414 488.8 706.714 486 706.714 482.88C706.714 479.8 707.394 477.02 708.754 474.54C710.154 472.06 712.054 470.14 714.454 468.78C716.894 467.38 719.634 466.68 722.674 466.68C725.714 466.68 728.414 467.38 730.774 468.78C733.174 470.14 735.034 472.06 736.354 474.54C737.714 477.02 738.394 479.86 738.394 483.06ZM722.674 471.54C719.914 471.54 717.594 472.38 715.714 474.06C713.874 475.74 712.794 477.94 712.474 480.66H732.874C732.554 477.98 731.454 475.8 729.574 474.12C727.734 472.4 725.434 471.54 722.674 471.54ZM765.793 498.78L756.613 486.6L747.313 498.78H740.893L753.433 482.52L741.493 466.98H747.913L756.673 478.44L765.373 466.98H771.673L759.673 482.52L772.333 498.78H765.793ZM778.618 466.98H784.378V498.78H778.618V466.98ZM781.498 460.86C780.378 460.86 779.438 460.5 778.678 459.78C777.958 459.06 777.598 458.18 777.598 457.14C777.598 456.1 777.958 455.22 778.678 454.5C779.438 453.74 780.378 453.36 781.498 453.36C782.618 453.36 783.538 453.72 784.258 454.44C785.018 455.12 785.398 455.98 785.398 457.02C785.398 458.1 785.018 459.02 784.258 459.78C783.538 460.5 782.618 460.86 781.498 460.86ZM812.356 466.68C816.396 466.68 819.596 467.86 821.956 470.22C824.356 472.54 825.556 475.96 825.556 480.48V498.78H819.796V481.14C819.796 478.06 819.056 475.74 817.576 474.18C816.096 472.62 813.976 471.84 811.216 471.84C808.096 471.84 805.636 472.76 803.836 474.6C802.036 476.4 801.136 479 801.136 482.4V498.78H795.376V466.98H800.896V471.78C802.056 470.14 803.616 468.88 805.576 468C807.576 467.12 809.836 466.68 812.356 466.68Z"
     fill="#1E005A"
     id="path935" />
  <path
     d="M649.064 614.533V639.033H645.564V628.113H631.494V639.033H627.994V614.533H631.494V625.068H645.564V614.533H649.064ZM672.322 620.483L663.327 640.888C662.534 642.778 661.601 644.108 660.527 644.878C659.477 645.648 658.206 646.033 656.712 646.033C655.802 646.033 654.916 645.882 654.052 645.578C653.212 645.298 652.512 644.878 651.952 644.318L653.387 641.798C654.344 642.708 655.452 643.163 656.712 643.163C657.529 643.163 658.206 642.942 658.742 642.498C659.302 642.078 659.804 641.343 660.247 640.293L660.842 638.998L652.652 620.483H656.152L662.627 635.323L669.032 620.483H672.322ZM685.293 620.308C687.09 620.308 688.7 620.705 690.123 621.498C691.546 622.292 692.655 623.4 693.448 624.823C694.265 626.247 694.673 627.892 694.673 629.758C694.673 631.625 694.265 633.282 693.448 634.728C692.655 636.152 691.546 637.26 690.123 638.053C688.7 638.847 687.09 639.243 685.293 639.243C683.963 639.243 682.738 638.987 681.618 638.473C680.521 637.96 679.588 637.213 678.818 636.233V645.823H675.458V620.483H678.678V623.423C679.425 622.397 680.37 621.627 681.513 621.113C682.656 620.577 683.916 620.308 685.293 620.308ZM685.013 636.303C686.203 636.303 687.265 636.035 688.198 635.498C689.155 634.938 689.901 634.168 690.438 633.188C690.998 632.185 691.278 631.042 691.278 629.758C691.278 628.475 690.998 627.343 690.438 626.363C689.901 625.36 689.155 624.59 688.198 624.053C687.265 623.517 686.203 623.248 685.013 623.248C683.846 623.248 682.785 623.528 681.828 624.088C680.895 624.625 680.148 625.383 679.588 626.363C679.051 627.343 678.783 628.475 678.783 629.758C678.783 631.042 679.051 632.185 679.588 633.188C680.125 634.168 680.871 634.938 681.828 635.498C682.785 636.035 683.846 636.303 685.013 636.303ZM707.261 639.243C705.417 639.243 703.761 638.835 702.291 638.018C700.821 637.202 699.666 636.082 698.826 634.658C698.009 633.212 697.601 631.578 697.601 629.758C697.601 627.938 698.009 626.317 698.826 624.893C699.666 623.447 700.821 622.327 702.291 621.533C703.761 620.717 705.417 620.308 707.261 620.308C709.104 620.308 710.749 620.717 712.196 621.533C713.666 622.327 714.809 623.447 715.626 624.893C716.466 626.317 716.886 627.938 716.886 629.758C716.886 631.578 716.466 633.212 715.626 634.658C714.809 636.082 713.666 637.202 712.196 638.018C710.749 638.835 709.104 639.243 707.261 639.243ZM707.261 636.303C708.451 636.303 709.512 636.035 710.446 635.498C711.402 634.938 712.149 634.168 712.686 633.188C713.222 632.185 713.491 631.042 713.491 629.758C713.491 628.475 713.222 627.343 712.686 626.363C712.149 625.36 711.402 624.59 710.446 624.053C709.512 623.517 708.451 623.248 707.261 623.248C706.071 623.248 704.997 623.517 704.041 624.053C703.107 624.59 702.361 625.36 701.801 626.363C701.264 627.343 700.996 628.475 700.996 629.758C700.996 631.042 701.264 632.185 701.801 633.188C702.361 634.168 703.107 634.938 704.041 635.498C704.997 636.035 706.071 636.303 707.261 636.303ZM731.962 637.948C731.472 638.368 730.866 638.695 730.142 638.928C729.419 639.138 728.672 639.243 727.902 639.243C726.036 639.243 724.589 638.742 723.562 637.738C722.536 636.735 722.022 635.3 722.022 633.433V623.248H718.872V620.483H722.022V616.423H725.382V620.483H730.702V623.248H725.382V633.293C725.382 634.297 725.627 635.067 726.117 635.603C726.631 636.14 727.354 636.408 728.287 636.408C729.314 636.408 730.189 636.117 730.912 635.533L731.962 637.948ZM742.78 620.308C745.346 620.308 747.306 620.938 748.66 622.198C750.036 623.458 750.725 625.337 750.725 627.833V639.033H747.54V636.583C746.98 637.447 746.175 638.112 745.125 638.578C744.098 639.022 742.873 639.243 741.45 639.243C739.373 639.243 737.705 638.742 736.445 637.738C735.208 636.735 734.59 635.417 734.59 633.783C734.59 632.15 735.185 630.843 736.375 629.863C737.565 628.86 739.455 628.358 742.045 628.358H747.365V627.693C747.365 626.247 746.945 625.138 746.105 624.368C745.265 623.598 744.028 623.213 742.395 623.213C741.298 623.213 740.225 623.4 739.175 623.773C738.125 624.123 737.238 624.602 736.515 625.208L735.115 622.688C736.071 621.918 737.215 621.335 738.545 620.938C739.875 620.518 741.286 620.308 742.78 620.308ZM742.01 636.653C743.293 636.653 744.401 636.373 745.335 635.813C746.268 635.23 746.945 634.413 747.365 633.363V630.773H742.185C739.338 630.773 737.915 631.73 737.915 633.643C737.915 634.577 738.276 635.312 739 635.848C739.723 636.385 740.726 636.653 742.01 636.653ZM756.942 613.063H760.302V639.033H756.942V613.063ZM773.473 620.308C776.04 620.308 778 620.938 779.353 622.198C780.73 623.458 781.418 625.337 781.418 627.833V639.033H778.233V636.583C777.673 637.447 776.868 638.112 775.818 638.578C774.791 639.022 773.566 639.243 772.143 639.243C770.066 639.243 768.398 638.742 767.138 637.738C765.901 636.735 765.283 635.417 765.283 633.783C765.283 632.15 765.878 630.843 767.068 629.863C768.258 628.86 770.148 628.358 772.738 628.358H778.058V627.693C778.058 626.247 777.638 625.138 776.798 624.368C775.958 623.598 774.721 623.213 773.088 623.213C771.991 623.213 770.918 623.4 769.868 623.773C768.818 624.123 767.931 624.602 767.208 625.208L765.808 622.688C766.765 621.918 767.908 621.335 769.238 620.938C770.568 620.518 771.98 620.308 773.473 620.308ZM772.703 636.653C773.986 636.653 775.095 636.373 776.028 635.813C776.961 635.23 777.638 634.413 778.058 633.363V630.773H772.878C770.031 630.773 768.608 631.73 768.608 633.643C768.608 634.577 768.97 635.312 769.693 635.848C770.416 636.385 771.42 636.653 772.703 636.653ZM810.841 620.308C813.174 620.308 815.018 620.985 816.371 622.338C817.748 623.692 818.436 625.698 818.436 628.358V639.033H815.076V628.743C815.076 626.947 814.656 625.593 813.816 624.683C812.999 623.773 811.821 623.318 810.281 623.318C808.578 623.318 807.224 623.855 806.221 624.928C805.218 625.978 804.716 627.495 804.716 629.478V639.033H801.356V628.743C801.356 626.947 800.936 625.593 800.096 624.683C799.279 623.773 798.101 623.318 796.561 623.318C794.858 623.318 793.504 623.855 792.501 624.928C791.498 625.978 790.996 627.495 790.996 629.478V639.033H787.636V620.483H790.856V623.248C791.533 622.292 792.419 621.568 793.516 621.078C794.613 620.565 795.861 620.308 797.261 620.308C798.708 620.308 799.991 620.6 801.111 621.183C802.231 621.767 803.094 622.618 803.701 623.738C804.401 622.665 805.369 621.825 806.606 621.218C807.866 620.612 809.278 620.308 810.841 620.308ZM841.908 620.483V639.033H838.723V636.233C838.047 637.19 837.148 637.937 836.028 638.473C834.932 638.987 833.73 639.243 832.423 639.243C829.95 639.243 828.002 638.567 826.578 637.213C825.155 635.837 824.443 633.818 824.443 631.158V620.483H827.803V630.773C827.803 632.57 828.235 633.935 829.098 634.868C829.962 635.778 831.198 636.233 832.808 636.233C834.582 636.233 835.982 635.697 837.008 634.623C838.035 633.55 838.548 632.033 838.548 630.073V620.483H841.908ZM853.625 639.243C852.108 639.243 850.65 639.045 849.25 638.648C847.85 638.228 846.753 637.703 845.96 637.073L847.36 634.413C848.176 634.997 849.168 635.463 850.335 635.813C851.501 636.163 852.68 636.338 853.87 636.338C856.81 636.338 858.28 635.498 858.28 633.818C858.28 633.258 858.081 632.815 857.685 632.488C857.288 632.162 856.786 631.928 856.18 631.788C855.596 631.625 854.756 631.45 853.66 631.263C852.166 631.03 850.941 630.762 849.985 630.458C849.051 630.155 848.246 629.642 847.57 628.918C846.893 628.195 846.555 627.18 846.555 625.873C846.555 624.193 847.255 622.852 848.655 621.848C850.055 620.822 851.933 620.308 854.29 620.308C855.526 620.308 856.763 620.46 858 620.763C859.236 621.067 860.251 621.475 861.045 621.988L859.61 624.648C858.093 623.668 856.308 623.178 854.255 623.178C852.831 623.178 851.746 623.412 851 623.878C850.253 624.345 849.88 624.963 849.88 625.733C849.88 626.34 850.09 626.818 850.51 627.168C850.93 627.518 851.443 627.775 852.05 627.938C852.68 628.102 853.555 628.288 854.675 628.498C856.168 628.755 857.37 629.035 858.28 629.338C859.213 629.618 860.006 630.108 860.66 630.808C861.313 631.508 861.64 632.488 861.64 633.748C861.64 635.428 860.916 636.77 859.47 637.773C858.046 638.753 856.098 639.243 853.625 639.243Z"
     fill="#1E005A"
     id="path937" />
</svg>
