<svg width="347" height="455" viewBox="0 0 347 455" fill="none" xmlns="http://www.w3.org/2000/svg">
<ellipse cx="176.5" cy="102" rx="170.5" ry="102" fill="#1E005A"/>
<path fill-rule="evenodd" clip-rule="evenodd" d="M96.1397 347.868C94.4048 337.824 89.7354 330.22 88.4121 319.863C87.6275 313.721 88.0081 307.266 89.1369 300.788C89.75 297.269 90.442 293.763 91.0947 290.251C91.7311 286.827 92.4307 283.437 93.3021 280.078C94.178 276.701 95.0769 273.37 95.8281 269.949C96.4133 267.283 97.025 264.17 98.2603 261.865C99.2428 260.032 100.893 260.035 100.888 262.473C100.885 263.828 100.589 265.288 100.318 266.632C99.9703 268.356 99.5689 270.068 99.2099 271.791C97.7692 278.701 96.7401 285.688 95.3566 292.612C94.005 299.376 92.0152 306.018 91.6295 312.911C91.311 318.603 92.2026 323.701 93.3928 328.649C94.5379 333.41 95.8744 338.094 96.2784 343.347C96.3944 344.855 96.4151 346.401 96.2738 347.975C96.2067 347.996 96.1619 347.961 96.1397 347.868Z" fill="#E08027"/>
<path fill-rule="evenodd" clip-rule="evenodd" d="M100.457 329.45C99.8772 328.76 99.6465 327.862 99.3339 326.96C98.9451 325.839 98.4376 324.799 98.049 323.677C97.2388 321.339 96.5975 318.896 95.9087 316.491C94.6007 311.925 93.8411 307.173 93.9439 302.183C94.0503 297.012 94.7753 291.785 95.3636 286.623C95.9869 281.152 96.6149 275.641 97.5533 270.205C97.9738 267.77 98.3285 265.168 99.0208 262.799C99.4519 261.325 100.274 260.15 101.601 260.402C104.42 260.938 105.092 264.775 105.11 267.826C105.136 272.318 104.46 276.963 103.524 281.383C102.394 286.712 100.627 291.844 99.3079 297.117C97.911 302.7 97.112 308.288 97.834 313.913C98.1986 316.756 98.712 319.558 99.1158 322.389C99.2878 323.595 99.3856 324.819 99.7046 325.97C100.059 327.25 100.571 328.447 100.786 329.796C100.676 329.681 100.567 329.565 100.457 329.45Z" fill="#A73612"/>
<path fill-rule="evenodd" clip-rule="evenodd" d="M65.8837 334.842C65.783 334.904 65.6823 334.965 65.5816 335.027C66.0506 333.864 66.6794 332.963 67.2244 331.921C67.7143 330.983 68.0754 329.887 68.4811 328.839C69.4339 326.378 70.4524 323.988 71.3819 321.499C73.2217 316.576 74.0446 311.062 74.4701 305.308C74.8721 299.872 74.943 294.385 75.4845 288.976C75.9338 284.49 76.61 279.902 77.7143 275.744C78.4644 272.92 79.8384 269.635 81.8361 270.295C82.7766 270.605 83.0372 272.033 82.966 273.578C82.8516 276.06 82.4569 278.62 82.1462 281.053C81.4525 286.482 80.5349 291.854 79.6238 297.187C78.7643 302.219 77.9797 307.367 76.7986 312.21C75.659 316.883 74.0057 320.981 72.0339 324.682C70.9953 326.631 69.9791 328.635 68.8763 330.472C68.3473 331.354 67.7593 332.111 67.2303 332.992C66.8049 333.7 66.4347 334.439 65.8837 334.842Z" fill="#E08027"/>
<path fill-rule="evenodd" clip-rule="evenodd" d="M102.413 313.724C101.909 314.378 101.519 311.851 101.448 311.529C101.474 311.688 101.5 311.846 101.527 312.004C101.043 310.452 100.633 308.854 100.507 307.152C100.382 305.468 100.322 303.761 100.225 302.07C100.043 298.897 99.6327 295.771 99.5247 292.583C99.4195 289.476 99.79 286.507 100.509 283.443C101.256 280.259 101.949 277.013 102.342 273.767C102.53 272.216 102.356 270.709 102.327 269.178C102.299 267.646 102.337 266.105 102.25 264.581C102.135 264.757 102.24 264.119 102.249 264.071C102.318 263.707 102.418 263.409 102.582 263.081C103.006 262.239 103.634 261.572 104.425 261.462C105.854 261.262 106.85 262.899 107.014 264.468C107.249 266.719 107.164 269.144 107.053 271.446C106.951 273.556 106.639 275.641 106.178 277.715C105.27 281.807 103.883 285.756 102.96 289.843C101.954 294.293 101.961 298.646 101.815 303.128C101.744 305.287 101.663 307.424 101.905 309.538C102.003 310.393 102.193 311.167 102.392 311.977C102.506 312.438 102.754 313.268 102.413 313.724Z" fill="#E08027"/>
<path fill-rule="evenodd" clip-rule="evenodd" d="M90.1983 318.751C91.2864 313.642 92.4793 308.592 93.9982 303.616C95.5482 298.538 97.1853 293.495 98.7132 288.409C100.2 283.457 101.73 278.427 102.582 273.289C103.209 269.503 104.913 263.216 101.608 260.695C98.2597 258.142 96.0043 266.056 95.2788 268.671C93.8875 273.689 93.1012 278.872 92.3946 284.043C91.6695 289.35 91.1041 294.657 90.6298 299.99C90.1029 305.912 89.4567 311.841 88.73 317.745C88.3706 320.665 87.8871 323.558 87.3162 326.44C86.7774 329.161 86.3667 331.933 86.7393 334.676C86.7901 334.647 86.8407 334.618 86.8916 334.589" fill="#FFD62D"/>
<path fill-rule="evenodd" clip-rule="evenodd" d="M74.1023 299.034C74.9681 298.041 75.8373 297.061 76.6782 295.996C78.1827 294.09 79.6228 291.929 80.4756 288.97C82.2601 282.777 82.9857 275.871 84.0432 269.347C84.2593 268.014 84.6394 266.752 84.4139 265.405C84.2095 264.184 83.5967 263.171 82.8603 263.043C81.2839 262.769 80.7183 267.248 80.361 269.2C79.7346 272.621 79.4402 276.138 78.7904 279.551C78.1464 282.933 77.3503 286.297 76.339 289.437C75.3154 292.614 74.1145 295.627 72.7492 298.393C72.5597 298.777 71.1596 301.756 72.0434 301.359" fill="#A73612"/>
<path fill-rule="evenodd" clip-rule="evenodd" d="M74.943 333.936C75.9782 334.123 77.0504 328.185 77.2201 327.428C77.8325 324.697 78.3062 321.939 78.8774 319.2C80.1243 313.221 81.4164 307.197 83.2793 301.401C84.2823 298.281 85.3499 295.188 86.4528 292.111C87.5588 289.025 88.8448 285.976 89.7775 282.817C90.6737 279.781 91.0589 276.589 91.5785 273.469C92.1016 270.33 92.5893 267.178 92.7965 264.01C92.8478 263.228 92.8833 262.446 92.9112 261.665C92.9345 261.014 93.1311 260.236 93.085 259.605C93.0111 258.594 91.9994 258.085 91.252 258.106C89.2297 258.164 87.4741 260.753 86.4351 262.688C85.1084 265.16 84.1402 267.926 83.1926 270.612C82.119 273.656 81.2454 276.785 80.5271 279.951C79.0671 286.385 78.2492 292.943 77.4785 299.48C77.05 303.116 76.6592 306.742 76.4071 310.387C76.1561 314.016 76.0199 317.649 75.7019 321.277C75.4708 323.914 75.2355 326.553 74.9181 329.184C74.8425 329.811 74.1514 333.793 74.943 333.936Z" fill="#FFD62D"/>
<path fill-rule="evenodd" clip-rule="evenodd" d="M84.0791 291.015C83.1154 297.279 80.3193 325.051 79.4455 332.678C79.2266 334.587 78.9925 342.657 78.7587 344.824C79.2881 344.295 80.9618 334.879 81.35 332.716C81.7336 330.576 82.3463 328.515 82.8514 326.409C83.3666 324.26 91.2488 296.732 91.9896 294.712C93.4636 290.693 94.7191 286.522 95.8616 282.347C96.9749 278.277 98.3305 274.016 98.601 269.772C98.6635 268.795 98.6583 267.822 98.5311 266.891C98.3936 265.885 98.3406 264.968 98.2723 263.929C98.1627 262.256 97.6935 260.72 96.7003 259.858C94.6642 258.091 92.8813 260.937 91.7748 263.496C90.0077 267.582 88.5833 271.801 87.471 276.227C86.2403 281.123 84.8505 286.001 84.0791 291.015Z" fill="#A73612"/>
<path d="M82.618 255.48L109.437 259.672C109.437 259.672 111.083 267.277 110.631 272.215C110.254 276.324 108.068 282.473 108.068 282.473L74.2812 274.695C74.2812 274.695 75.0381 268.868 76.3796 265.42C78.0604 261.1 82.618 255.48 82.618 255.48Z" fill="#BDBDBD"/>
<path d="M106.654 260.944L128.171 240.496L143.114 267.636L125.054 315.084L109.43 285.608L115.078 276.176L106.654 260.944Z" fill="#E5E4E7"/>
<path d="M47.1845 244.234L76.3126 224.512L81.6468 258.718L69.596 266.855L69.2115 279.024L41.5441 297.882L47.1845 244.234Z" fill="#E5E4E7"/>
<ellipse rx="37.1489" ry="76.8944" transform="matrix(0.854331 0.219904 -0.236492 0.968978 111.301 194.935)" fill="white"/>
<path d="M104.146 224.34L104.04 238.855L101.347 273.378L89.5805 310.019L91.2565 268.043L104.146 224.34Z" fill="#D4D4D4"/>
<path d="M103.63 224.021C105.37 219.504 106.057 218.861 106.68 218.906C108.986 219.072 108.247 221.36 108.4 225.336C108.875 237.706 107.954 252.262 106.265 263.041C103.074 283.405 98.6485 301.083 95.4814 314.69C94.9981 316.767 92.674 317.184 91.1503 316.712C89.814 316.298 89.1314 311.343 89.7283 309.185C94.1109 293.335 97.6129 281.619 100.566 263.508C103.376 246.275 101.079 230.648 103.63 224.021Z" fill="#5C09FF"/>
<path d="M128.619 241.214C128.261 240.513 126.277 236.748 126.061 233.683C126.469 230.663 127.98 225.082 130.12 226.492C131.302 227.271 128.639 232.276 131.433 235.944C135.064 240.712 147.507 262.61 146.219 268.339C141.916 287.482 133.6 302.341 128.808 314.704C128.077 316.591 125.743 316.594 124.305 315.889C123.044 315.271 122.986 310.459 123.839 308.514C130.102 294.23 135.514 288.094 139.195 271.018C141.298 261.26 138.375 260.311 128.619 241.214Z" fill="#5C09FF"/>
<path d="M72.9213 231.964C73.5675 231.533 77.0868 229.252 78.7312 226.688C79.8112 223.85 81.1466 218.222 78.6101 218.371C77.2096 218.453 77.1525 224.161 72.9733 225.949C67.5408 228.273 46.2832 241.087 44.6832 246.731C39.3368 265.593 39.5246 282.744 37.8263 295.942C37.5671 297.956 39.6007 299.136 41.1895 299.248C42.583 299.345 44.9206 295.179 45.1015 293.053C46.4301 277.438 44.6278 269.358 49.5344 252.612C52.3383 243.043 55.3383 243.69 72.9213 231.964Z" fill="#5C09FF"/>
<ellipse rx="18.3533" ry="23.6796" transform="matrix(0.850708 0.232997 -0.248739 0.966124 111.075 174.632)" fill="#5C09FF"/>
<ellipse rx="14.5343" ry="18.7524" transform="matrix(0.850708 0.232997 -0.248739 0.966124 111.076 174.48)" fill="#5732A2"/>
<path d="M123.441 177.866C120.865 187.871 113.241 194.467 106.412 192.596C103.025 191.669 99.3352 181.793 101.911 171.787C104.487 161.781 113.05 155.625 115.741 156.362C122.57 158.232 126.017 167.86 123.441 177.866Z" fill="#310686"/>
<path d="M114.5 34L115.149 37.8204L117.733 35.1459L116.2 38.6529L119.731 38.1459L116.601 40L119.731 41.8541L116.2 41.3471L117.733 44.8541L115.149 42.1796L114.5 46L113.851 42.1796L111.267 44.8541L112.8 41.3471L109.269 41.8541L112.399 40L109.269 38.1459L112.8 38.6529L111.267 35.1459L113.851 37.8204L114.5 34Z" fill="white"/>
<path d="M114.5 34L115.149 37.8204L117.733 35.1459L116.2 38.6529L119.731 38.1459L116.601 40L119.731 41.8541L116.2 41.3471L117.733 44.8541L115.149 42.1796L114.5 46L113.851 42.1796L111.267 44.8541L112.8 41.3471L109.269 41.8541L112.399 40L109.269 38.1459L112.8 38.6529L111.267 35.1459L113.851 37.8204L114.5 34Z" fill="white"/>
<path d="M114.5 34L115.149 37.8204L117.733 35.1459L116.2 38.6529L119.731 38.1459L116.601 40L119.731 41.8541L116.2 41.3471L117.733 44.8541L115.149 42.1796L114.5 46L113.851 42.1796L111.267 44.8541L112.8 41.3471L109.269 41.8541L112.399 40L109.269 38.1459L112.8 38.6529L111.267 35.1459L113.851 37.8204L114.5 34Z" fill="white"/>
<path d="M91 64L91.7082 67.8204L94.5267 65.1459L92.8541 68.6529L96.7063 68.1459L93.2918 70L96.7063 71.8541L92.8541 71.3471L94.5267 74.8541L91.7082 72.1796L91 76L90.2918 72.1796L87.4733 74.8541L89.1459 71.3471L85.2937 71.8541L88.7082 70L85.2937 68.1459L89.1459 68.6529L87.4733 65.1459L90.2918 67.8204L91 64Z" fill="white"/>
<path d="M210 105L210.708 108.82L213.527 106.146L211.854 109.653L215.706 109.146L212.292 111L215.706 112.854L211.854 112.347L213.527 115.854L210.708 113.18L210 117L209.292 113.18L206.473 115.854L208.146 112.347L204.294 112.854L207.708 111L204.294 109.146L208.146 109.653L206.473 106.146L209.292 108.82L210 105Z" fill="white"/>
<path d="M240.5 80L241.149 83.8204L243.733 81.1459L242.2 84.6529L245.731 84.1459L242.601 86L245.731 87.8541L242.2 87.3471L243.733 90.8541L241.149 88.1796L240.5 92L239.851 88.1796L237.267 90.8541L238.8 87.3471L235.269 87.8541L238.399 86L235.269 84.1459L238.8 84.6529L237.267 81.1459L239.851 83.8204L240.5 80Z" fill="white"/>
<path d="M277 59L277.59 62.8204L279.939 60.1459L278.545 63.6529L281.755 63.1459L278.91 65L281.755 66.8541L278.545 66.3471L279.939 69.8541L277.59 67.1796L277 71L276.41 67.1796L274.061 69.8541L275.455 66.3471L272.245 66.8541L275.09 65L272.245 63.1459L275.455 63.6529L274.061 60.1459L276.41 62.8204L277 59Z" fill="white"/>
<path d="M257 117L257.708 121.139L260.527 118.241L258.854 122.041L262.706 121.491L259.292 123.5L262.706 125.509L258.854 124.959L260.527 128.759L257.708 125.861L257 130L256.292 125.861L253.473 128.759L255.146 124.959L251.294 125.509L254.708 123.5L251.294 121.491L255.146 122.041L253.473 118.241L256.292 121.139L257 117Z" fill="white"/>
<path d="M301.5 83L302.149 86.8204L304.733 84.1459L303.2 87.6529L306.731 87.1459L303.601 89L306.731 90.8541L303.2 90.3471L304.733 93.8541L302.149 91.1796L301.5 95L300.851 91.1796L298.267 93.8541L299.8 90.3471L296.269 90.8541L299.399 89L296.269 87.1459L299.8 87.6529L298.267 84.1459L300.851 86.8204L301.5 83Z" fill="white"/>
<path d="M298.5 126L299.149 129.82L301.733 127.146L300.2 130.653L303.731 130.146L300.601 132L303.731 133.854L300.2 133.347L301.733 136.854L299.149 134.18L298.5 138L297.851 134.18L295.267 136.854L296.8 133.347L293.269 133.854L296.399 132L293.269 130.146L296.8 130.653L295.267 127.146L297.851 129.82L298.5 126Z" fill="white"/>
<path d="M238 176L238.708 179.82L241.527 177.146L239.854 180.653L243.706 180.146L240.292 182L243.706 183.854L239.854 183.347L241.527 186.854L238.708 184.18L238 188L237.292 184.18L234.473 186.854L236.146 183.347L232.294 183.854L235.708 182L232.294 180.146L236.146 180.653L234.473 177.146L237.292 179.82L238 176Z" fill="white"/>
<path d="M128.5 68L129.149 71.8204L131.733 69.1459L130.2 72.6529L133.731 72.1459L130.601 74L133.731 75.8541L130.2 75.3471L131.733 78.8541L129.149 76.1796L128.5 80L127.851 76.1796L125.267 78.8541L126.8 75.3471L123.269 75.8541L126.399 74L123.269 72.1459L126.8 72.6529L125.267 69.1459L127.851 71.8204L128.5 68Z" fill="white"/>
<path d="M187.5 174L188.149 177.82L190.733 175.146L189.2 178.653L192.731 178.146L189.601 180L192.731 181.854L189.2 181.347L190.733 184.854L188.149 182.18L187.5 186L186.851 182.18L184.267 184.854L185.8 181.347L182.269 181.854L185.399 180L182.269 178.146L185.8 178.653L184.267 175.146L186.851 177.82L187.5 174Z" fill="white"/>
<path d="M268.5 159L269.149 162.82L271.733 160.146L270.2 163.653L273.731 163.146L270.601 165L273.731 166.854L270.2 166.347L271.733 169.854L269.149 167.18L268.5 171L267.851 167.18L265.267 169.854L266.8 166.347L263.269 166.854L266.399 165L263.269 163.146L266.8 163.653L265.267 160.146L267.851 162.82L268.5 159Z" fill="white"/>
<path d="M226 147L226.708 150.82L229.527 148.146L227.854 151.653L231.706 151.146L228.292 153L231.706 154.854L227.854 154.347L229.527 157.854L226.708 155.18L226 159L225.292 155.18L222.473 157.854L224.146 154.347L220.294 154.854L223.708 153L220.294 151.146L224.146 151.653L222.473 148.146L225.292 150.82L226 147Z" fill="white"/>
<path d="M234 40L234.708 43.8204L237.527 41.1459L235.854 44.6529L239.706 44.1459L236.292 46L239.706 47.8541L235.854 47.3471L237.527 50.8541L234.708 48.1796L234 52L233.292 48.1796L230.473 50.8541L232.146 47.3471L228.294 47.8541L231.708 46L228.294 44.1459L232.146 44.6529L230.473 41.1459L233.292 43.8204L234 40Z" fill="white"/>
<path d="M179 135L179.708 138.82L182.527 136.146L180.854 139.653L184.706 139.146L181.292 141L184.706 142.854L180.854 142.347L182.527 145.854L179.708 143.18L179 147L178.292 143.18L175.473 145.854L177.146 142.347L173.294 142.854L176.708 141L173.294 139.146L177.146 139.653L175.473 136.146L178.292 138.82L179 135Z" fill="white"/>
<path d="M58 136L58.7082 139.82L61.5267 137.146L59.8541 140.653L63.7063 140.146L60.2918 142L63.7063 143.854L59.8541 143.347L61.5267 146.854L58.7082 144.18L58 148L57.2918 144.18L54.4733 146.854L56.1459 143.347L52.2937 143.854L55.7082 142L52.2937 140.146L56.1459 140.653L54.4733 137.146L57.2918 139.82L58 136Z" fill="white"/>
<path d="M31 93L31.7082 96.8204L34.5267 94.1459L32.8541 97.6529L36.7063 97.1459L33.2918 99L36.7063 100.854L32.8541 100.347L34.5267 103.854L31.7082 101.18L31 105L30.2918 101.18L27.4733 103.854L29.1459 100.347L25.2937 100.854L28.7082 99L25.2937 97.1459L29.1459 97.6529L27.4733 94.1459L30.2918 96.8204L31 93Z" fill="white"/>
<path d="M85 99L85.7082 102.82L88.5267 100.146L86.8541 103.653L90.7063 103.146L87.2918 105L90.7063 106.854L86.8541 106.347L88.5267 109.854L85.7082 107.18L85 111L84.2918 107.18L81.4733 109.854L83.1459 106.347L79.2937 106.854L82.7082 105L79.2937 103.146L83.1459 103.653L81.4733 100.146L84.2918 102.82L85 99Z" fill="white"/>
<path d="M52.5 50L53.1492 53.8204L55.7328 51.1459L54.1996 54.6529L57.7308 54.1459L54.6008 56L57.7308 57.8541L54.1996 57.3471L55.7328 60.8541L53.1492 58.1796L52.5 62L51.8508 58.1796L49.2672 60.8541L50.8004 57.3471L47.2692 57.8541L50.3992 56L47.2692 54.1459L50.8004 54.6529L49.2672 51.1459L51.8508 53.8204L52.5 50Z" fill="white"/>
<circle cx="181" cy="54" r="26" fill="white"/>
<circle cx="181" cy="54" r="26" fill="white"/>
<g filter="url(#filter0_i)">
<ellipse rx="5.94227" ry="6.37668" transform="matrix(-0.577482 0.816403 0.782479 0.622677 170.421 66.8219)" fill="#E9E7E7"/>
</g>
<g filter="url(#filter1_i)">
<ellipse rx="6.73379" ry="7.68405" transform="matrix(-0.495654 -0.86852 -0.837883 0.54585 172.776 42.0432)" fill="#E9E7E7"/>
</g>
<g filter="url(#filter2_i)">
<ellipse rx="7.76098" ry="10.2451" transform="matrix(-0.99738 -0.0723404 -0.0736651 0.997283 191.495 57.7789)" fill="#E9E7E7"/>
</g>
<circle cx="109" cy="411" r="43" fill="#78CEFF"/>
<path d="M133.502 446.501C127.002 450.501 120.999 454.267 109.002 454C86.5001 453.5 76.0001 439 73 434.5C95 430.5 92 431.5 105.5 431C115 431 121.502 433.501 133.502 446.501Z" fill="#4BB21B"/>
<path d="M152 410C149.501 419.5 132 420.449 118.501 411C103.5 400.5 102.001 391 102 388C101.997 383.5 103.499 377 109 367.999C132.749 367.999 152.5 387 152 410Z" fill="#4BB31B"/>
<defs>
<filter id="filter0_i" x="164.365" y="60.5527" width="12.1126" height="12.5384" filterUnits="userSpaceOnUse" color-interpolation-filters="sRGB">
<feFlood flood-opacity="0" result="BackgroundImageFix"/>
<feBlend mode="normal" in="SourceGraphic" in2="BackgroundImageFix" result="shape"/>
<feColorMatrix in="SourceAlpha" type="matrix" values="0 0 0 0 0 0 0 0 0 0 0 0 0 0 0 0 0 0 127 0" result="hardAlpha"/>
<feOffset/>
<feGaussianBlur stdDeviation="0.5"/>
<feComposite in2="hardAlpha" operator="arithmetic" k2="-1" k3="1"/>
<feColorMatrix type="matrix" values="0 0 0 0 0 0 0 0 0 0 0 0 0 0 0 0 0 0 0.25 0"/>
<feBlend mode="normal" in2="shape" result="effect1_innerShadow"/>
</filter>
<filter id="filter1_i" x="165.522" y="34.8457" width="14.5071" height="14.3951" filterUnits="userSpaceOnUse" color-interpolation-filters="sRGB">
<feFlood flood-opacity="0" result="BackgroundImageFix"/>
<feBlend mode="normal" in="SourceGraphic" in2="BackgroundImageFix" result="shape"/>
<feColorMatrix in="SourceAlpha" type="matrix" values="0 0 0 0 0 0 0 0 0 0 0 0 0 0 0 0 0 0 127 0" result="hardAlpha"/>
<feOffset/>
<feGaussianBlur stdDeviation="1"/>
<feComposite in2="hardAlpha" operator="arithmetic" k2="-1" k3="1"/>
<feColorMatrix type="matrix" values="0 0 0 0 0 0 0 0 0 0 0 0 0 0 0 0 0 0 0.25 0"/>
<feBlend mode="normal" in2="shape" result="effect1_innerShadow"/>
</filter>
<filter id="filter2_i" x="183.717" y="47.5459" width="15.5558" height="20.4659" filterUnits="userSpaceOnUse" color-interpolation-filters="sRGB">
<feFlood flood-opacity="0" result="BackgroundImageFix"/>
<feBlend mode="normal" in="SourceGraphic" in2="BackgroundImageFix" result="shape"/>
<feColorMatrix in="SourceAlpha" type="matrix" values="0 0 0 0 0 0 0 0 0 0 0 0 0 0 0 0 0 0 127 0" result="hardAlpha"/>
<feOffset/>
<feGaussianBlur stdDeviation="1"/>
<feComposite in2="hardAlpha" operator="arithmetic" k2="-1" k3="1"/>
<feColorMatrix type="matrix" values="0 0 0 0 0 0 0 0 0 0 0 0 0 0 0 0 0 0 0.25 0"/>
<feBlend mode="normal" in2="shape" result="effect1_innerShadow"/>
</filter>
</defs>
</svg>
