<svg
   width="374"
   height="454"
   viewBox="0 0 374 454"
   fill="none"
   xmlns="http://www.w3.org/2000/svg">
  <path
     d="M114 453V301.414L129.414 286H373V437.586L357.586 453H114Z"
     fill="#47238D"
     stroke="#78CEFF"
     stroke-width="2"
     id="path6036" />
  <path
     d="M373 84L1 84V16.4142L16.4142 1L357.586 1L373 16.4142V84Z"
     fill="#47238D"
     stroke="#78CEFF"
     stroke-width="2"
     id="path6038" />
  <path
     d="M89 301.414L73.5858 286H1V437.586L16.4142 453H89V301.414Z"
     fill="#47238D"
     stroke="#78CEFF"
     stroke-width="2"
     id="path6040" />
  <rect
     x="136"
     y="303"
     width="147"
     height="6"
     fill="#280A64"
     id="rect6042" />
  <rect
     x="136"
     y="294"
     width="161"
     height="6"
     fill="#280A64"
     id="rect6044" />
  <rect
     x="136"
     y="312"
     width="116"
     height="6"
     fill="#280A64"
     id="rect6046" />
  <rect
     x="141"
     y="321"
     width="99"
     height="6"
     fill="#280A64"
     id="rect6048" />
  <rect
     x="20"
     y="303"
     width="61"
     height="6"
     fill="#280A64"
     id="rect6050" />
  <rect
     x="20"
     y="312"
     width="61"
     height="6"
     fill="#280A64"
     id="rect6052" />
  <rect
     x="20"
     y="321"
     width="61"
     height="6"
     fill="#280A64"
     id="rect6054" />
  <rect
     x="20"
     y="330"
     width="61"
     height="6"
     fill="#280A64"
     id="rect6056" />
  <rect
     x="20"
     y="339"
     width="61"
     height="6"
     fill="#280A64"
     id="rect6058" />
  <rect
     x="20"
     y="348"
     width="61"
     height="6"
     fill="#280A64"
     id="rect6060" />
  <rect
     x="20"
     y="357"
     width="61"
     height="6"
     fill="#280A64"
     id="rect6062" />
  <rect
     x="20"
     y="366"
     width="61"
     height="6"
     fill="#280A64"
     id="rect6064" />
  <rect
     x="20"
     y="375"
     width="61"
     height="6"
     fill="#280A64"
     id="rect6066" />
  <rect
     x="20"
     y="384"
     width="61"
     height="6"
     fill="#280A64"
     id="rect6068" />
  <rect
     x="20"
     y="393"
     width="61"
     height="6"
     fill="#280A64"
     id="rect6070" />
  <rect
     x="20"
     y="402"
     width="61"
     height="6"
     fill="#280A64"
     id="rect6072" />
  <rect
     x="20"
     y="411"
     width="61"
     height="6"
     fill="#280A64"
     id="rect6074" />
  <rect
     x="20"
     y="420"
     width="61"
     height="6"
     fill="#280A64"
     id="rect6076" />
  <rect
     x="20"
     y="429"
     width="61"
     height="6"
     fill="#280A64"
     id="rect6078" />
  <rect
     x="9"
     y="303"
     width="6"
     height="6"
     fill="#280A64"
     id="rect6080" />
  <rect
     x="9"
     y="312"
     width="6"
     height="6"
     fill="#280A64"
     id="rect6082" />
  <rect
     x="9"
     y="321"
     width="6"
     height="6"
     fill="#280A64"
     id="rect6084" />
  <rect
     x="9"
     y="330"
     width="6"
     height="6"
     fill="#280A64"
     id="rect6086" />
  <rect
     x="9"
     y="339"
     width="6"
     height="6"
     fill="#280A64"
     id="rect6088" />
  <rect
     x="9"
     y="348"
     width="6"
     height="6"
     fill="#280A64"
     id="rect6090" />
  <rect
     x="9"
     y="357"
     width="6"
     height="6"
     fill="#280A64"
     id="rect6092" />
  <rect
     x="9"
     y="366"
     width="6"
     height="6"
     fill="#280A64"
     id="rect6094" />
  <rect
     x="9"
     y="375"
     width="6"
     height="6"
     fill="#280A64"
     id="rect6096" />
  <rect
     x="9"
     y="384"
     width="6"
     height="6"
     fill="#280A64"
     id="rect6098" />
  <rect
     x="9"
     y="393"
     width="6"
     height="6"
     fill="#280A64"
     id="rect6100" />
  <rect
     x="9"
     y="402"
     width="6"
     height="6"
     fill="#280A64"
     id="rect6102" />
  <rect
     x="9"
     y="411"
     width="6"
     height="6"
     fill="#280A64"
     id="rect6104" />
  <rect
     x="9"
     y="420"
     width="6"
     height="6"
     fill="#280A64"
     id="rect6106" />
  <rect
     x="9"
     y="429"
     width="6"
     height="6"
     fill="#280A64"
     id="rect6108" />
  <rect
     x="136"
     y="330"
     width="135"
     height="6"
     fill="#280A64"
     id="rect6110" />
  <rect
     x="136"
     y="339"
     width="152"
     height="6"
     fill="#280A64"
     id="rect6112" />
  <rect
     x="141"
     y="348"
     width="121"
     height="6"
     fill="#280A64"
     id="rect6114" />
  <rect
     x="146"
     y="357"
     width="132"
     height="6"
     fill="#280A64"
     id="rect6116" />
  <rect
     x="141"
     y="366"
     width="121"
     height="6"
     fill="#280A64"
     id="rect6118" />
  <rect
     x="136"
     y="375"
     width="132"
     height="6"
     fill="#280A64"
     id="rect6120" />
  <rect
     x="136"
     y="384"
     width="119"
     height="6"
     fill="#280A64"
     id="rect6122" />
  <rect
     x="141"
     y="393"
     width="127"
     height="6"
     fill="#280A64"
     id="rect6124" />
  <rect
     x="146"
     y="402"
     width="128"
     height="6"
     fill="#280A64"
     id="rect6126" />
  <rect
     x="146"
     y="411"
     width="149"
     height="6"
     fill="#280A64"
     id="rect6128" />
  <rect
     x="140"
     y="420"
     width="128"
     height="6"
     fill="#280A64"
     id="rect6130" />
  <rect
     x="136"
     y="429"
     width="119"
     height="6"
     fill="#280A64"
     id="rect6132" />
  <rect
     x="136"
     y="438"
     width="94"
     height="6"
     fill="#280A64"
     id="rect6134" />
  <circle
     cx="342.5"
     cy="294.5"
     r="2.5"
     fill="#3300FF"
     id="circle6136" />
  <circle
     cx="351.5"
     cy="294.5"
     r="2.5"
     fill="#FFCD00"
     id="circle6138" />
  <circle
     cx="360.5"
     cy="294.5"
     r="2.5"
     fill="#FE3D3D"
     id="circle6140" />
  <circle
     cx="11.5"
     cy="294.5"
     r="2.5"
     fill="#3300FF"
     id="circle6142" />
  <circle
     cx="20.5"
     cy="294.5"
     r="2.5"
     fill="#FFCD00"
     id="circle6144" />
  <circle
     cx="29.5"
     cy="294.5"
     r="2.5"
     fill="#FE3D3D"
     id="circle6146" />
  <circle
     cx="334.5"
     cy="8.5"
     r="2.5"
     fill="#3300FF"
     id="circle6148" />
  <circle
     cx="343.5"
     cy="8.5"
     r="2.5"
     fill="#FFCD00"
     id="circle6150" />
  <circle
     cx="352.5"
     cy="8.5"
     r="2.5"
     fill="#FE3D3D"
     id="circle6152" />
  <rect
     x="39"
     y="265"
     width="5"
     height="20"
     fill="#78CEFF"
     id="rect6154" />
  <rect
     x="333"
     y="187"
     width="5"
     height="98"
     fill="#78CEFF"
     id="rect6156" />
  <rect
     x="239"
     y="203"
     width="74"
     height="5"
     fill="#78CEFF"
     id="rect6158" />
  <rect
     x="34"
     y="178"
     width="88"
     height="5"
     fill="#78CEFF"
     id="rect6160" />
  <rect
     x="24"
     y="168"
     width="31"
     height="5"
     fill="#78CEFF"
     id="rect6162" />
  <rect
     x="14"
     y="158"
     width="31"
     height="5"
     fill="#78CEFF"
     id="rect6164" />
  <rect
     x="247"
     y="193"
     width="76"
     height="5"
     fill="#78CEFF"
     id="rect6166" />
  <rect
     x="302"
     y="183"
     width="31"
     height="5"
     fill="#78CEFF"
     id="rect6168" />
  <rect
     x="312"
     y="173"
     width="31"
     height="5"
     fill="#78CEFF"
     id="rect6170" />
  <rect
     x="322"
     y="163"
     width="31"
     height="5"
     fill="#78CEFF"
     id="rect6172" />
  <rect
     x="343"
     y="178"
     width="5"
     height="107"
     fill="#78CEFF"
     id="rect6174" />
  <rect
     x="353"
     y="168"
     width="5"
     height="117"
     fill="#78CEFF"
     id="rect6176" />
  <rect
     x="317"
     y="85"
     width="5"
     height="78"
     fill="#78CEFF"
     id="rect6178" />
  <rect
     x="29"
     y="183"
     width="5"
     height="102"
     fill="#78CEFF"
     id="rect6180" />
  <rect
     x="323"
     y="198"
     width="5"
     height="87"
     fill="#78CEFF"
     id="rect6182" />
  <rect
     x="19"
     y="173"
     width="5"
     height="112"
     fill="#78CEFF"
     id="rect6184" />
  <rect
     x="55"
     y="85"
     width="5"
     height="83"
     fill="#78CEFF"
     id="rect6186" />
  <rect
     x="307"
     y="85"
     width="5"
     height="88"
     fill="#78CEFF"
     id="rect6188" />
  <rect
     x="313"
     y="208"
     width="5"
     height="77"
     fill="#78CEFF"
     id="rect6190" />
  <rect
     x="9"
     y="163"
     width="5"
     height="122"
     fill="#78CEFF"
     id="rect6192" />
  <rect
     x="45"
     y="85"
     width="5"
     height="73"
     fill="#78CEFF"
     id="rect6194" />
  <rect
     x="297"
     y="85"
     width="5"
     height="98"
     fill="#78CEFF"
     id="rect6196" />
  <rect
     x="303"
     y="265"
     width="5"
     height="20"
     fill="#78CEFF"
     id="rect6198" />
  <rect
     x="44"
     y="260"
     width="259"
     height="5"
     fill="#78CEFF"
     id="rect6200" />
  <path
     d="M39 265V264L43 260H44L46 265L44 267L39 265Z"
     fill="#78CEFF"
     id="path6202" />
  <path
     d="M60 168V169L56 173H55L53 168L55 166L60 168Z"
     fill="#78CEFF"
     id="path6204" />
  <path
     d="M50 158V159L46 163H45L43 158L45 156L50 158Z"
     fill="#78CEFF"
     id="path6206" />
  <path
     d="M29 183V182L33 178H34L36 183L34 185L29 183Z"
     fill="#78CEFF"
     id="path6208" />
  <path
     d="M9 163V162L13 158H14L16 163L14 165L9 163Z"
     fill="#78CEFF"
     id="path6210" />
  <path
     d="M19 173V172L23 168H24L26 173L24 175L19 173Z"
     fill="#78CEFF"
     id="path6212" />
  <path
     d="M313 203H314L318 207V208L313 210L311 208L313 203Z"
     fill="#78CEFF"
     id="path6214" />
  <path
     d="M323 193H324L328 197V198L323 200L321 198L323 193Z"
     fill="#78CEFF"
     id="path6216" />
  <path
     d="M333 183H334L338 187V188L333 190L331 188L333 183Z"
     fill="#78CEFF"
     id="path6218" />
  <path
     d="M343 173H344L348 177V178L343 180L341 178L343 173Z"
     fill="#78CEFF"
     id="path6220" />
  <path
     d="M353 163H354L358 167V168L353 170L351 168L353 163Z"
     fill="#78CEFF"
     id="path6222" />
  <path
     d="M302 188H301L297 184V183L302 181L304 183L302 188Z"
     fill="#78CEFF"
     id="path6224" />
  <path
     d="M312 178H311L307 174V173L312 171L314 173L312 178Z"
     fill="#78CEFF"
     id="path6226" />
  <path
     d="M322 168H321L317 164V163L322 161L324 163L322 168Z"
     fill="#78CEFF"
     id="path6228" />
  <path
     d="M303 260H304L308 264V265L303 267L301 265L303 260Z"
     fill="#78CEFF"
     id="path6230" />
  <path
     d="M67.1172 43.6992C67.1172 46.4857 66.6484 48.9206 65.7109 51.0039C64.7734 53.0742 63.4453 54.6562 61.7266 55.75C60.0078 56.8438 58.0026 57.3906 55.7109 57.3906C53.4714 57.3906 51.4857 56.8438 49.7539 55.75C48.0221 54.6432 46.6745 53.0742 45.7109 51.043C44.7604 48.9987 44.2721 46.6354 44.2461 43.9531V41.9023C44.2461 39.168 44.7214 36.7526 45.6719 34.6562C46.6224 32.5599 47.9635 30.9583 49.6953 29.8516C51.4401 28.7318 53.4323 28.1719 55.6719 28.1719C57.9505 28.1719 59.9557 28.7253 61.6875 29.832C63.4323 30.9258 64.7734 32.5208 65.7109 34.6172C66.6484 36.7005 67.1172 39.1289 67.1172 41.9023V43.6992ZM63.3867 41.8633C63.3867 38.4909 62.7096 35.9062 61.3555 34.1094C60.0013 32.2995 58.1068 31.3945 55.6719 31.3945C53.3021 31.3945 51.4336 32.2995 50.0664 34.1094C48.7122 35.9062 48.0156 38.4062 47.9766 41.6094V43.6992C47.9766 46.9674 48.6602 49.5391 50.0273 51.4141C51.4076 53.276 53.3021 54.207 55.7109 54.207C58.1328 54.207 60.0078 53.3281 61.3359 51.5703C62.6641 49.7995 63.3477 47.2669 63.3867 43.9727V41.8633ZM82.3906 39.1094C81.8438 39.0182 81.2513 38.9727 80.6133 38.9727C78.2435 38.9727 76.6354 39.9818 75.7891 42V57H72.1758V35.8672H75.6914L75.75 38.3086C76.9349 36.4206 78.6146 35.4766 80.7891 35.4766C81.4922 35.4766 82.026 35.5677 82.3906 35.75V39.1094ZM94.1094 57.3906C91.2448 57.3906 88.9141 56.4531 87.1172 54.5781C85.3203 52.6901 84.4219 50.1706 84.4219 47.0195V46.3555C84.4219 44.2591 84.819 42.3906 85.6133 40.75C86.4206 39.0964 87.5404 37.8073 88.9727 36.8828C90.418 35.9453 91.9805 35.4766 93.6602 35.4766C96.4076 35.4766 98.543 36.3815 100.066 38.1914C101.59 40.0013 102.352 42.5924 102.352 45.9648V47.4688H88.0352C88.0872 49.5521 88.6927 51.2383 89.8516 52.5273C91.0234 53.8034 92.5078 54.4414 94.3047 54.4414C95.5807 54.4414 96.6615 54.181 97.5469 53.6602C98.4323 53.1393 99.207 52.4492 99.8711 51.5898L102.078 53.3086C100.307 56.0299 97.651 57.3906 94.1094 57.3906ZM93.6602 38.4453C92.2018 38.4453 90.9779 38.9792 89.9883 40.0469C88.9987 41.1016 88.3867 42.5859 88.1523 44.5H98.7383V44.2266C98.6341 42.3906 98.1393 40.9714 97.2539 39.9688C96.3685 38.9531 95.1706 38.4453 93.6602 38.4453ZM113.641 43.582L118.328 35.8672H122.547L115.633 46.3164L122.762 57H118.582L113.699 49.0898L108.816 57H104.617L111.746 46.3164L104.832 35.8672H109.012L113.641 43.582ZM130.32 57H126.707V35.8672H130.32V57ZM126.414 30.2617C126.414 29.6758 126.59 29.181 126.941 28.7773C127.306 28.3737 127.84 28.1719 128.543 28.1719C129.246 28.1719 129.78 28.3737 130.145 28.7773C130.509 29.181 130.691 29.6758 130.691 30.2617C130.691 30.8477 130.509 31.3359 130.145 31.7266C129.78 32.1172 129.246 32.3125 128.543 32.3125C127.84 32.3125 127.306 32.1172 126.941 31.7266C126.59 31.3359 126.414 30.8477 126.414 30.2617ZM139.539 35.8672L139.656 38.5234C141.271 36.4922 143.38 35.4766 145.984 35.4766C150.451 35.4766 152.703 37.9961 152.742 43.0352V57H149.129V43.0156C149.116 41.4922 148.764 40.3659 148.074 39.6367C147.397 38.9076 146.336 38.543 144.891 38.543C143.719 38.543 142.69 38.8555 141.805 39.4805C140.919 40.1055 140.229 40.9258 139.734 41.9414V57H136.121V35.8672H139.539ZM177.059 44.3242C173.842 43.3997 171.499 42.2669 170.027 40.9258C168.569 39.5716 167.84 37.9049 167.84 35.9258C167.84 33.6862 168.732 31.8372 170.516 30.3789C172.312 28.9076 174.643 28.1719 177.508 28.1719C179.461 28.1719 181.199 28.5495 182.723 29.3047C184.259 30.0599 185.444 31.1016 186.277 32.4297C187.124 33.7578 187.547 35.2096 187.547 36.7852H183.777C183.777 35.0664 183.23 33.7188 182.137 32.7422C181.043 31.7526 179.5 31.2578 177.508 31.2578C175.659 31.2578 174.214 31.668 173.172 32.4883C172.143 33.2956 171.629 34.4219 171.629 35.8672C171.629 37.026 172.117 38.0091 173.094 38.8164C174.083 39.6107 175.757 40.3398 178.113 41.0039C180.483 41.668 182.332 42.4036 183.66 43.2109C185.001 44.0052 185.991 44.9362 186.629 46.0039C187.28 47.0716 187.605 48.3281 187.605 49.7734C187.605 52.0781 186.707 53.9271 184.91 55.3203C183.113 56.7005 180.711 57.3906 177.703 57.3906C175.75 57.3906 173.927 57.0195 172.234 56.2773C170.542 55.5221 169.233 54.4935 168.309 53.1914C167.397 51.8893 166.941 50.4115 166.941 48.7578H170.711C170.711 50.4766 171.342 51.8372 172.605 52.8398C173.882 53.8294 175.581 54.3242 177.703 54.3242C179.682 54.3242 181.199 53.9206 182.254 53.1133C183.309 52.306 183.836 51.2057 183.836 49.8125C183.836 48.4193 183.348 47.3451 182.371 46.5898C181.395 45.8216 179.624 45.0664 177.059 44.3242ZM190.906 46.2383C190.906 44.168 191.31 42.306 192.117 40.6523C192.938 38.9987 194.07 37.7227 195.516 36.8242C196.974 35.9258 198.634 35.4766 200.496 35.4766C203.374 35.4766 205.698 36.4727 207.469 38.4648C209.253 40.457 210.145 43.1068 210.145 46.4141V46.668C210.145 48.7253 209.747 50.5742 208.953 52.2148C208.172 53.8424 207.046 55.112 205.574 56.0234C204.116 56.9349 202.436 57.3906 200.535 57.3906C197.671 57.3906 195.346 56.3945 193.562 54.4023C191.792 52.4102 190.906 49.7734 190.906 46.4922V46.2383ZM194.539 46.668C194.539 49.0117 195.079 50.8932 196.16 52.3125C197.254 53.7318 198.712 54.4414 200.535 54.4414C202.371 54.4414 203.829 53.7253 204.91 52.293C205.991 50.8477 206.531 48.8294 206.531 46.2383C206.531 43.9206 205.978 42.0456 204.871 40.6133C203.777 39.168 202.319 38.4453 200.496 38.4453C198.712 38.4453 197.273 39.1549 196.18 40.5742C195.086 41.9935 194.539 44.0247 194.539 46.668ZM218.602 57H214.988V27H218.602V57ZM237.449 54.9102C236.043 56.5638 233.979 57.3906 231.258 57.3906C229.005 57.3906 227.286 56.7396 226.102 55.4375C224.93 54.1224 224.337 52.1823 224.324 49.6172V35.8672H227.938V49.5195C227.938 52.7227 229.24 54.3242 231.844 54.3242C234.604 54.3242 236.44 53.2956 237.352 51.2383V35.8672H240.965V57H237.527L237.449 54.9102ZM251.375 30.75V35.8672H255.32V38.6602H251.375V51.7656C251.375 52.612 251.551 53.25 251.902 53.6797C252.254 54.0964 252.853 54.3047 253.699 54.3047C254.116 54.3047 254.689 54.2266 255.418 54.0703V57C254.467 57.2604 253.543 57.3906 252.645 57.3906C251.03 57.3906 249.812 56.9023 248.992 55.9258C248.172 54.9492 247.762 53.5625 247.762 51.7656V38.6602H243.914V35.8672H247.762V30.75H251.375ZM263.484 57H259.871V35.8672H263.484V57ZM259.578 30.2617C259.578 29.6758 259.754 29.181 260.105 28.7773C260.47 28.3737 261.004 28.1719 261.707 28.1719C262.41 28.1719 262.944 28.3737 263.309 28.7773C263.673 29.181 263.855 29.6758 263.855 30.2617C263.855 30.8477 263.673 31.3359 263.309 31.7266C262.944 32.1172 262.41 32.3125 261.707 32.3125C261.004 32.3125 260.47 32.1172 260.105 31.7266C259.754 31.3359 259.578 30.8477 259.578 30.2617ZM268.328 46.2383C268.328 44.168 268.732 42.306 269.539 40.6523C270.359 38.9987 271.492 37.7227 272.938 36.8242C274.396 35.9258 276.056 35.4766 277.918 35.4766C280.796 35.4766 283.12 36.4727 284.891 38.4648C286.674 40.457 287.566 43.1068 287.566 46.4141V46.668C287.566 48.7253 287.169 50.5742 286.375 52.2148C285.594 53.8424 284.467 55.112 282.996 56.0234C281.538 56.9349 279.858 57.3906 277.957 57.3906C275.092 57.3906 272.768 56.3945 270.984 54.4023C269.214 52.4102 268.328 49.7734 268.328 46.4922V46.2383ZM271.961 46.668C271.961 49.0117 272.501 50.8932 273.582 52.3125C274.676 53.7318 276.134 54.4414 277.957 54.4414C279.793 54.4414 281.251 53.7253 282.332 52.293C283.413 50.8477 283.953 48.8294 283.953 46.2383C283.953 43.9206 283.4 42.0456 282.293 40.6133C281.199 39.168 279.741 38.4453 277.918 38.4453C276.134 38.4453 274.695 39.1549 273.602 40.5742C272.508 41.9935 271.961 44.0247 271.961 46.668ZM295.516 35.8672L295.633 38.5234C297.247 36.4922 299.357 35.4766 301.961 35.4766C306.427 35.4766 308.68 37.9961 308.719 43.0352V57H305.105V43.0156C305.092 41.4922 304.741 40.3659 304.051 39.6367C303.374 38.9076 302.312 38.543 300.867 38.543C299.695 38.543 298.667 38.8555 297.781 39.4805C296.896 40.1055 296.206 40.9258 295.711 41.9414V57H292.098V35.8672H295.516ZM326.473 51.3945C326.473 50.418 326.102 49.6628 325.359 49.1289C324.63 48.582 323.348 48.1133 321.512 47.7227C319.689 47.332 318.237 46.8633 317.156 46.3164C316.089 45.7695 315.294 45.1185 314.773 44.3633C314.266 43.6081 314.012 42.7096 314.012 41.668C314.012 39.9362 314.741 38.4714 316.199 37.2734C317.671 36.0755 319.546 35.4766 321.824 35.4766C324.22 35.4766 326.16 36.0951 327.645 37.332C329.142 38.569 329.891 40.151 329.891 42.0781H326.258C326.258 41.0885 325.835 40.2357 324.988 39.5195C324.155 38.8034 323.1 38.4453 321.824 38.4453C320.509 38.4453 319.48 38.7318 318.738 39.3047C317.996 39.8776 317.625 40.6263 317.625 41.5508C317.625 42.4232 317.97 43.0807 318.66 43.5234C319.35 43.9661 320.594 44.3893 322.391 44.793C324.201 45.1966 325.665 45.6784 326.785 46.2383C327.905 46.7982 328.732 47.4753 329.266 48.2695C329.812 49.0508 330.086 50.0078 330.086 51.1406C330.086 53.0286 329.331 54.5456 327.82 55.6914C326.31 56.8242 324.35 57.3906 321.941 57.3906C320.249 57.3906 318.751 57.0911 317.449 56.4922C316.147 55.8932 315.125 55.0599 314.383 53.9922C313.654 52.9115 313.289 51.7461 313.289 50.4961H316.902C316.967 51.707 317.449 52.6706 318.348 53.3867C319.259 54.0898 320.457 54.4414 321.941 54.4414C323.309 54.4414 324.402 54.168 325.223 53.6211C326.056 53.0612 326.473 52.319 326.473 51.3945Z"
     fill="#78CEFF"
     id="path6232" />
  <g
     clip-path="url(#clip3)">
    <path
       d="M226.195 121.767C225.24 121.768 224.297 121.971 223.427 122.363C222.556 122.756 221.779 123.328 221.147 124.043C220.559 124.707 220.108 125.48 219.82 126.318C219.531 127.156 219.41 128.043 219.464 128.928C219.518 129.812 219.746 130.678 220.134 131.475C220.523 132.271 221.065 132.984 221.728 133.571C221.855 133.684 221.982 133.795 222.11 133.904C222.181 133.965 222.252 134.023 222.325 134.081C222.405 134.16 222.486 134.237 222.57 134.312C225.532 136.973 228.193 139.952 230.505 143.194C230.537 143.239 230.57 143.283 230.602 143.327C230.636 143.377 230.671 143.428 230.706 143.478C230.773 143.573 230.841 143.67 230.908 143.767C231.929 145.238 233.491 146.244 235.253 146.563C237.015 146.881 238.831 146.487 240.302 145.467C241.773 144.447 242.778 142.884 243.097 141.122C243.416 139.361 243.022 137.545 242.001 136.074C241.914 135.948 241.827 135.824 241.74 135.7C241.701 135.645 241.662 135.591 241.622 135.538C241.581 135.477 241.54 135.416 241.497 135.357C238.611 131.309 235.289 127.591 231.591 124.269C231.484 124.173 231.375 124.081 231.262 123.992C231.147 123.878 231.027 123.767 230.903 123.661C230.828 123.596 230.751 123.529 230.675 123.462C229.439 122.368 227.845 121.765 226.195 121.767Z"
       fill="#280A64" />
    <path
       d="M186.498 107C178.149 107 170.125 108.523 162.726 111.308C159.716 112.441 156.809 113.784 154.023 115.316C153.469 115.562 152.725 115.978 151.641 116.676C149.338 118.007 148.234 122.135 150.1 125.363C151.965 128.59 156.094 129.694 159.497 127.728C159.636 127.647 159.772 127.562 159.903 127.475C160.034 127.413 160.163 127.347 160.29 127.276C162.59 125.996 164.993 124.88 167.482 123.943C173.392 121.718 179.788 120.5 186.5 120.5H186.503H186.506C191.416 120.5 196.302 121.162 201.029 122.477C201.445 122.593 201.864 122.702 202.273 122.84C202.359 122.869 202.446 122.895 202.533 122.921C202.67 122.973 202.809 123.022 202.951 123.067C206.698 124.253 210.327 122.214 211.452 118.66C212.576 115.106 210.607 111.313 207.053 110.188L206.527 110.032C206.421 109.994 206.313 109.958 206.204 109.925C199.816 107.981 193.175 106.995 186.498 107Z"
       fill="#280A64" />
    <path
       d="M200.11 226.969C199.612 226.969 199.116 227.025 198.63 227.134L198.235 227.223C196.489 227.617 194.971 228.689 194.014 230.202C193.058 231.716 192.742 233.547 193.136 235.293C193.53 237.04 194.602 238.558 196.116 239.514C197.629 240.47 199.46 240.786 201.207 240.392L201.601 240.303C203.348 239.909 204.866 238.837 205.822 237.324C206.778 235.811 207.094 233.979 206.7 232.233C206.363 230.738 205.526 229.402 204.328 228.445C203.131 227.488 201.643 226.967 200.11 226.969Z"
       fill="#280A64" />
    <path
       d="M131.995 140.896C130.735 140.896 129.5 141.248 128.43 141.913C127.359 142.579 126.497 143.53 125.939 144.66C121.361 153.942 118.986 164.156 119 174.506C119.003 211.702 149.301 242 186.498 242.001C191.135 242.003 195.76 241.53 200.3 240.587C202.053 240.224 203.589 239.178 204.571 237.682C205.554 236.185 205.901 234.36 205.537 232.607C205.357 231.739 205.008 230.915 204.509 230.182C204.011 229.449 203.373 228.821 202.632 228.335C201.891 227.849 201.061 227.513 200.19 227.347C199.32 227.182 198.425 227.189 197.557 227.369C193.921 228.124 190.217 228.503 186.504 228.501H186.502H186.5C156.596 228.501 132.5 204.404 132.5 174.501V174.496V174.491C132.488 166.217 134.386 158.053 138.046 150.632C138.838 149.027 138.96 147.173 138.384 145.477C137.809 143.782 136.584 142.385 134.979 141.593C134.051 141.135 133.03 140.897 131.995 140.896Z"
       fill="#280A64" />
    <path
       d="M132.335 140.172C131.096 140.176 129.881 140.521 128.825 141.17C127.768 141.818 126.911 142.745 126.346 143.849C126.271 143.996 126.206 144.126 126.15 144.237C125.342 145.835 125.202 147.688 125.76 149.389C126.319 151.089 127.53 152.499 129.128 153.307C130.725 154.114 132.578 154.254 134.279 153.696C135.98 153.137 137.389 151.926 138.197 150.329C138.262 150.199 138.319 150.088 138.367 149.994C138.77 149.205 139.014 148.344 139.085 147.46C139.156 146.577 139.052 145.688 138.779 144.845C138.506 144.001 138.07 143.22 137.495 142.545C136.92 141.87 136.218 141.315 135.429 140.912C134.471 140.422 133.411 140.169 132.335 140.172Z"
       fill="#280A64" />
    <path
       d="M245.678 153.937C245.167 153.936 244.657 153.994 244.159 154.109C243.295 154.307 242.479 154.674 241.757 155.189C241.035 155.703 240.421 156.354 239.951 157.106C239.481 157.857 239.163 158.694 239.016 159.568C238.869 160.442 238.896 161.337 239.095 162.2C239.124 162.328 239.154 162.457 239.183 162.586C239.583 164.331 240.659 165.846 242.175 166.798C243.691 167.749 245.523 168.06 247.268 167.661C248.133 167.463 248.949 167.097 249.672 166.584C250.395 166.07 251.009 165.42 251.48 164.669C251.952 163.918 252.27 163.082 252.418 162.208C252.567 161.334 252.541 160.44 252.343 159.575C252.313 159.441 252.282 159.306 252.251 159.172C251.909 157.685 251.072 156.358 249.879 155.407C248.685 154.456 247.204 153.938 245.678 153.937Z"
       fill="#280A64" />
    <path
       d="M245.946 155.128C245.475 155.127 245.005 155.176 244.544 155.273C242.793 155.643 241.26 156.693 240.282 158.193C239.305 159.693 238.963 161.519 239.333 163.271C240.111 166.962 240.503 170.724 240.5 174.496V174.498V174.5C240.5 193.013 231.234 209.263 217.096 219.004C216.366 219.507 215.742 220.149 215.26 220.893C214.778 221.637 214.448 222.468 214.287 223.34C214.126 224.212 214.139 225.107 214.325 225.973C214.51 226.84 214.864 227.662 215.367 228.392C216.383 229.866 217.942 230.877 219.703 231.201C221.463 231.525 223.281 231.137 224.755 230.121C242.417 217.952 253.999 197.532 254 174.504V174.503C254.003 169.792 253.514 165.094 252.542 160.485C252.223 158.971 251.393 157.613 250.193 156.638C248.992 155.663 247.493 155.13 245.946 155.128Z"
       fill="#280A64" />
    <path
       d="M220.584 218.044C219.247 218.045 217.941 218.442 216.831 219.186L216.493 219.412C215.006 220.409 213.975 221.955 213.628 223.711C213.281 225.468 213.646 227.29 214.643 228.777C215.136 229.514 215.77 230.146 216.507 230.637C217.245 231.129 218.072 231.47 218.942 231.642C219.811 231.814 220.706 231.813 221.575 231.639C222.445 231.465 223.271 231.121 224.007 230.628L224.345 230.402C225.081 229.908 225.713 229.275 226.205 228.537C226.696 227.799 227.038 226.972 227.21 226.102C227.381 225.233 227.38 224.338 227.206 223.469C227.032 222.6 226.689 221.773 226.195 221.037C225.578 220.115 224.743 219.36 223.764 218.838C222.785 218.316 221.693 218.043 220.584 218.044Z"
       fill="#280A64" />
    <path
       d="M156.602 152.041C155.376 152.045 154.174 152.382 153.125 153.017C152.076 153.652 151.22 154.561 150.649 155.646C147.587 161.46 145.991 167.934 146 174.506C146.003 196.791 164.215 215 186.5 215C208.787 215 226.998 196.789 227 174.503C227.003 170.621 226.448 166.758 225.352 163.033C225.102 162.182 224.687 161.39 224.13 160.7C223.573 160.01 222.886 159.436 222.108 159.012C221.33 158.588 220.476 158.321 219.594 158.226C218.713 158.132 217.822 158.213 216.971 158.463C215.254 158.968 213.808 160.135 212.951 161.707C212.094 163.278 211.896 165.126 212.401 166.844C213.132 169.328 213.503 171.905 213.5 174.495V174.497V174.5C213.5 189.492 201.492 201.5 186.5 201.5C171.509 201.5 159.5 189.492 159.5 174.5V174.495V174.49C159.494 170.116 160.555 165.807 162.594 161.936C163.428 160.352 163.599 158.502 163.068 156.792C162.538 155.082 161.351 153.653 159.767 152.819C158.791 152.305 157.705 152.038 156.602 152.041Z"
       fill="#280A64" />
    <path
       d="M186.41 134.001C182.767 134.007 179.106 134.503 175.528 135.506C174.675 135.745 173.877 136.15 173.18 136.698C172.483 137.246 171.9 137.925 171.466 138.698C171.032 139.471 170.754 140.321 170.648 141.202C170.543 142.082 170.611 142.974 170.851 143.827C171.09 144.681 171.495 145.479 172.042 146.176C172.59 146.873 173.27 147.455 174.042 147.89C174.815 148.324 175.666 148.602 176.546 148.708C177.426 148.813 178.318 148.744 179.172 148.505C186.82 146.361 195.012 147.679 201.601 152.114C203.087 153.113 204.908 153.482 206.665 153.139C208.422 152.795 209.97 151.768 210.97 150.283C211.465 149.547 211.81 148.721 211.986 147.853C212.162 146.984 212.165 146.089 211.994 145.219C211.824 144.349 211.485 143.521 210.995 142.782C210.505 142.044 209.874 141.409 209.138 140.914C202.356 136.35 194.425 133.988 186.41 134.001Z"
       fill="#280A64" />
    <path
       d="M186.5 161C179.124 161 173 167.124 173 174.5C173 181.876 179.124 188 186.5 188C193.876 188 200 181.876 200 174.5C200 167.124 193.876 161 186.5 161ZM186.5 174.5C186.5 174.5 186.5 174.5 186.5 174.5C186.5 174.5 186.5 174.5 186.5 174.5C186.5 174.5 186.5 174.5 186.5 174.5C186.5 174.5 186.5 174.5 186.5 174.5C186.5 174.5 186.5 174.5 186.5 174.5C186.5 174.5 186.5 174.5 186.5 174.5C186.5 174.5 186.5 174.5 186.5 174.5C186.5 174.5 186.5 174.5 186.5 174.5Z"
       fill="#280A64" />
  </g>
  <defs
     id="defs6261">
    <clipPath
       id="clip3">
      <rect
         width="135"
         height="135"
         fill="white"
         transform="translate(119 107)"
         id="rect6258" />
    </clipPath>
  </defs>
</svg>
