<svg width="359" height="454" viewBox="0 0 359 454" fill="none" xmlns="http://www.w3.org/2000/svg">
<rect width="224" height="126" rx="10" fill="white"/>
<g filter="url(#filter0_d)">
<rect x="9" y="8" width="206" height="15" rx="5" fill="white"/>
</g>
<rect x="195" y="13" width="15" height="5" rx="2" fill="#310686"/>
<rect x="14" y="13" width="22" height="5" rx="2" fill="#310686"/>
<rect x="41" y="13" width="16" height="5" rx="2" fill="#310686"/>
<rect x="62" y="13" width="34" height="5" rx="2" fill="#310686"/>
<rect x="135" y="164" width="224" height="126" rx="10" fill="white"/>
<rect x="66" y="328" width="224" height="126" rx="10" fill="white"/>
<g filter="url(#filter1_d)">
<rect x="144" y="172" width="51" height="110" rx="5" fill="white"/>
</g>
<g filter="url(#filter2_d)">
<rect x="75" y="362" width="41" height="83" rx="5" fill="white"/>
</g>
<g filter="url(#filter3_d)">
<rect x="75" y="336" width="206" height="19" rx="5" fill="white"/>
</g>
<rect x="151" y="186" width="23" height="5" rx="2" fill="#310686"/>
<rect x="151" y="197" width="29" height="5" rx="2" fill="#310686"/>
<rect x="151" y="208" width="9" height="5" rx="2" fill="#310686"/>
<rect x="163" y="208" width="13" height="5" rx="2" fill="#310686"/>
<rect x="151" y="219" width="29" height="5" rx="2" fill="#310686"/>
<rect x="151" y="230" width="25" height="5" rx="2" fill="#310686"/>
<rect x="151" y="252" width="18" height="5" rx="2" fill="#310686"/>
<rect x="151" y="263" width="18" height="5" rx="2" fill="#310686"/>
<rect x="81" y="366" width="29" height="3" rx="1.5" fill="#310686"/>
<rect x="83" y="339" width="29" height="3" rx="1.5" fill="#310686"/>
<rect x="83" y="345" width="22" height="6" rx="2" fill="#310686"/>
<rect x="110" y="345" width="26" height="6" rx="2" fill="#310686"/>
<rect x="141" y="345" width="18" height="6" rx="2" fill="#310686"/>
<rect x="256" y="342" width="18" height="7" rx="2" fill="#310686"/>
<rect x="116" y="339" width="29" height="3" rx="1.5" fill="#310686"/>
<rect x="149" y="339" width="29" height="3" rx="1.5" fill="#310686"/>
<rect x="84" y="372" width="24" height="3" rx="1.5" fill="#310686"/>
<rect x="84" y="378" width="22" height="3" rx="1.5" fill="#310686"/>
<rect x="81" y="384" width="29" height="3" rx="1.5" fill="#310686"/>
<rect x="84" y="390" width="18" height="3" rx="1.5" fill="#310686"/>
<rect x="84" y="396" width="20" height="3" rx="1.5" fill="#310686"/>
<rect x="84" y="402" width="16" height="3" rx="1.5" fill="#310686"/>
<rect x="81" y="408" width="29" height="3" rx="1.5" fill="#310686"/>
<rect x="84" y="414" width="23" height="3" rx="1.5" fill="#310686"/>
<rect x="84" y="420" width="23" height="3" rx="1.5" fill="#310686"/>
<rect x="81" y="426" width="29" height="3" rx="1.5" fill="#310686"/>
<rect x="84" y="432" width="15" height="3" rx="1.5" fill="#310686"/>
<rect x="84" y="438" width="20" height="3" rx="1.5" fill="#310686"/>
<rect x="151" y="241" width="9" height="5" rx="2" fill="#310686"/>
<rect x="164" y="241" width="9" height="5" rx="2" fill="#310686"/>
<path d="M85.0938 42C81.7295 42 79 44.7295 79 48.0938V92.7812C79 96.1455 81.7295 98.875 85.0938 98.875H137.906C141.271 98.875 144 96.1455 144 92.7812V48.0938C144 44.7295 141.271 42 137.906 42H85.0938ZM85.0938 46.0625H98.5508C98.9697 46.0625 99.3125 46.4053 99.3125 46.8242V49.3633C99.3125 49.7822 98.9697 50.125 98.5508 50.125H83.8242C83.4053 50.125 83.0625 49.7822 83.0625 49.3633V48.0938C83.0625 46.9766 83.9766 46.0625 85.0938 46.0625ZM139.176 58.25H83.8242C83.4053 58.25 83.0625 57.9072 83.0625 57.4883V52.918C83.0625 52.499 83.4053 52.1562 83.8242 52.1562H101.344L105.178 46.4053C105.317 46.1895 105.559 46.0625 105.812 46.0625H137.906C139.023 46.0625 139.938 46.9766 139.938 48.0938V57.4883C139.938 57.9072 139.595 58.25 139.176 58.25ZM111.5 91.7656C103.096 91.7656 96.2656 84.9355 96.2656 76.5312C96.2656 68.127 103.096 61.2969 111.5 61.2969C119.904 61.2969 126.734 68.127 126.734 76.5312C126.734 84.9355 119.904 91.7656 111.5 91.7656ZM111.5 65.3594C105.343 65.3594 100.328 70.374 100.328 76.5312C100.328 82.6885 105.343 87.7031 111.5 87.7031C117.657 87.7031 122.672 82.6885 122.672 76.5312C122.672 70.374 117.657 65.3594 111.5 65.3594ZM105.406 78.5625C104.289 78.5625 103.375 77.6484 103.375 76.5312C103.375 72.0498 107.019 68.4062 111.5 68.4062C112.617 68.4062 113.531 69.3203 113.531 70.4375C113.531 71.5547 112.617 72.4688 111.5 72.4688C109.266 72.4688 107.438 74.2969 107.438 76.5312C107.438 77.6484 106.523 78.5625 105.406 78.5625Z" fill="#310686"/>
<path d="M296.817 220.323L295.907 221.92C295.574 222.512 294.864 222.758 294.232 222.524C292.923 222.032 291.724 221.328 290.67 220.446C290.16 220.021 290.027 219.273 290.36 218.692L291.269 217.095C290.504 216.201 289.905 215.162 289.505 214.034H287.675C287.009 214.034 286.432 213.554 286.321 212.883C286.099 211.543 286.088 210.136 286.321 208.739C286.432 208.069 287.009 207.578 287.675 207.578H289.505C289.905 206.449 290.504 205.41 291.269 204.517L290.36 202.919C290.027 202.339 290.149 201.59 290.67 201.166C291.724 200.283 292.934 199.579 294.232 199.088C294.864 198.853 295.574 199.099 295.907 199.691L296.817 201.289C297.982 201.076 299.169 201.076 300.334 201.289L301.244 199.691C301.576 199.099 302.286 198.853 302.919 199.088C304.228 199.579 305.426 200.283 306.48 201.166C306.991 201.59 307.124 202.339 306.791 202.919L305.881 204.517C306.647 205.41 307.246 206.449 307.645 207.578H309.476C310.142 207.578 310.718 208.058 310.829 208.728C311.051 210.069 311.062 211.476 310.829 212.872C310.718 213.543 310.142 214.034 309.476 214.034H307.645C307.246 215.162 306.647 216.201 305.881 217.095L306.791 218.692C307.124 219.273 307.002 220.021 306.48 220.446C305.426 221.328 304.217 222.032 302.919 222.524C302.286 222.758 301.576 222.512 301.244 221.92L300.334 220.323C299.18 220.535 297.982 220.535 296.817 220.323ZM295.652 213.755C299.923 217.061 304.794 212.157 301.51 207.857C297.238 204.539 292.368 209.454 295.652 213.755ZM282.86 230.946L286.599 232.823C287.719 233.471 288.207 234.845 287.764 236.073C286.776 238.777 284.835 241.256 283.037 243.423C282.216 244.418 280.796 244.663 279.676 244.015L276.447 242.139C274.672 243.669 272.608 244.887 270.356 245.68V249.433C270.356 250.729 269.435 251.846 268.17 252.069C265.441 252.539 262.579 252.561 259.75 252.069C258.474 251.846 257.531 250.74 257.531 249.433V245.68C255.278 244.876 253.215 243.669 251.44 242.139L248.211 244.004C247.102 244.652 245.67 244.406 244.849 243.412C243.052 241.245 241.155 238.765 240.167 236.073C239.724 234.856 240.212 233.482 241.332 232.823L245.027 230.946C244.594 228.611 244.594 226.21 245.027 223.864L241.332 221.976C240.212 221.328 239.713 219.954 240.167 218.737C241.155 216.034 243.052 213.554 244.849 211.387C245.67 210.392 247.091 210.147 248.211 210.795L251.44 212.671C253.215 211.141 255.278 209.923 257.531 209.13V205.366C257.531 204.081 258.44 202.964 259.705 202.741C262.434 202.272 265.308 202.249 268.137 202.73C269.413 202.953 270.356 204.059 270.356 205.366V209.119C272.608 209.923 274.672 211.13 276.447 212.66L279.676 210.783C280.785 210.136 282.216 210.381 283.037 211.375C284.835 213.543 286.721 216.022 287.708 218.726C288.152 219.943 287.719 221.317 286.599 221.976L282.86 223.853C283.292 226.199 283.292 228.6 282.86 230.946ZM269.812 233.303C276.38 224.702 266.628 214.883 258.085 221.496C251.517 230.097 261.27 239.916 269.812 233.303ZM296.817 253.711L295.907 255.309C295.574 255.901 294.864 256.147 294.232 255.912C292.923 255.421 291.724 254.717 290.67 253.834C290.16 253.41 290.027 252.661 290.36 252.081L291.269 250.483C290.504 249.59 289.905 248.551 289.505 247.422H287.675C287.009 247.422 286.432 246.942 286.321 246.272C286.099 244.931 286.088 243.524 286.321 242.128C286.432 241.457 287.009 240.966 287.675 240.966H289.505C289.905 239.838 290.504 238.799 291.269 237.905L290.36 236.308C290.027 235.727 290.149 234.979 290.67 234.554C291.724 233.672 292.934 232.968 294.232 232.476C294.864 232.242 295.574 232.488 295.907 233.08L296.817 234.677C297.982 234.465 299.169 234.465 300.334 234.677L301.244 233.08C301.576 232.488 302.286 232.242 302.919 232.476C304.228 232.968 305.426 233.672 306.48 234.554C306.991 234.979 307.124 235.727 306.791 236.308L305.881 237.905C306.647 238.799 307.246 239.838 307.645 240.966H309.476C310.142 240.966 310.718 241.446 310.829 242.117C311.051 243.457 311.062 244.864 310.829 246.261C310.718 246.931 310.142 247.422 309.476 247.422H307.645C307.246 248.551 306.647 249.59 305.881 250.483L306.791 252.081C307.124 252.661 307.002 253.41 306.48 253.834C305.426 254.717 304.217 255.421 302.919 255.912C302.286 256.147 301.576 255.901 301.244 255.309L300.334 253.711C299.18 253.924 297.982 253.924 296.817 253.711ZM295.652 247.132C299.923 250.439 304.794 245.535 301.51 241.234C297.238 237.928 292.368 242.831 295.652 247.132Z" fill="#310686"/>
<path d="M222.514 407.368L227.93 385.025C228.322 383.411 227.014 381.875 225.249 381.875H180.243L179.192 377.061C178.931 375.862 177.804 375 176.498 375H164.75C163.231 375 162 376.154 162 377.578V379.297C162 380.721 163.231 381.875 164.75 381.875H172.757L180.807 418.767C178.881 419.806 177.583 421.752 177.583 423.984C177.583 427.307 180.456 430 184 430C187.544 430 190.417 427.307 190.417 423.984C190.417 422.301 189.678 420.779 188.489 419.688H212.511C211.322 420.779 210.583 422.301 210.583 423.984C210.583 427.307 213.456 430 217 430C220.544 430 223.417 427.307 223.417 423.984C223.417 421.603 221.94 419.544 219.798 418.57L220.43 415.962C220.821 414.349 219.514 412.812 217.749 412.812H186.993L186.243 409.375H219.832C221.116 409.375 222.229 408.542 222.514 407.368Z" fill="#310686"/>
<defs>
<filter id="filter0_d" x="1" y="0" width="222" height="31" filterUnits="userSpaceOnUse" color-interpolation-filters="sRGB">
<feFlood flood-opacity="0" result="BackgroundImageFix"/>
<feColorMatrix in="SourceAlpha" type="matrix" values="0 0 0 0 0 0 0 0 0 0 0 0 0 0 0 0 0 0 127 0"/>
<feMorphology radius="1" operator="dilate" in="SourceAlpha" result="effect1_dropShadow"/>
<feOffset/>
<feGaussianBlur stdDeviation="3.5"/>
<feColorMatrix type="matrix" values="0 0 0 0 0 0 0 0 0 0 0 0 0 0 0 0 0 0 0.15 0"/>
<feBlend mode="normal" in2="BackgroundImageFix" result="effect1_dropShadow"/>
<feBlend mode="normal" in="SourceGraphic" in2="effect1_dropShadow" result="shape"/>
</filter>
<filter id="filter1_d" x="136" y="164" width="67" height="126" filterUnits="userSpaceOnUse" color-interpolation-filters="sRGB">
<feFlood flood-opacity="0" result="BackgroundImageFix"/>
<feColorMatrix in="SourceAlpha" type="matrix" values="0 0 0 0 0 0 0 0 0 0 0 0 0 0 0 0 0 0 127 0"/>
<feMorphology radius="1" operator="dilate" in="SourceAlpha" result="effect1_dropShadow"/>
<feOffset/>
<feGaussianBlur stdDeviation="3.5"/>
<feColorMatrix type="matrix" values="0 0 0 0 0 0 0 0 0 0 0 0 0 0 0 0 0 0 0.15 0"/>
<feBlend mode="normal" in2="BackgroundImageFix" result="effect1_dropShadow"/>
<feBlend mode="normal" in="SourceGraphic" in2="effect1_dropShadow" result="shape"/>
</filter>
<filter id="filter2_d" x="67" y="354" width="57" height="99" filterUnits="userSpaceOnUse" color-interpolation-filters="sRGB">
<feFlood flood-opacity="0" result="BackgroundImageFix"/>
<feColorMatrix in="SourceAlpha" type="matrix" values="0 0 0 0 0 0 0 0 0 0 0 0 0 0 0 0 0 0 127 0"/>
<feMorphology radius="1" operator="dilate" in="SourceAlpha" result="effect1_dropShadow"/>
<feOffset/>
<feGaussianBlur stdDeviation="3.5"/>
<feColorMatrix type="matrix" values="0 0 0 0 0 0 0 0 0 0 0 0 0 0 0 0 0 0 0.15 0"/>
<feBlend mode="normal" in2="BackgroundImageFix" result="effect1_dropShadow"/>
<feBlend mode="normal" in="SourceGraphic" in2="effect1_dropShadow" result="shape"/>
</filter>
<filter id="filter3_d" x="67" y="328" width="222" height="35" filterUnits="userSpaceOnUse" color-interpolation-filters="sRGB">
<feFlood flood-opacity="0" result="BackgroundImageFix"/>
<feColorMatrix in="SourceAlpha" type="matrix" values="0 0 0 0 0 0 0 0 0 0 0 0 0 0 0 0 0 0 127 0"/>
<feMorphology radius="1" operator="dilate" in="SourceAlpha" result="effect1_dropShadow"/>
<feOffset/>
<feGaussianBlur stdDeviation="3.5"/>
<feColorMatrix type="matrix" values="0 0 0 0 0 0 0 0 0 0 0 0 0 0 0 0 0 0 0.15 0"/>
<feBlend mode="normal" in2="BackgroundImageFix" result="effect1_dropShadow"/>
<feBlend mode="normal" in="SourceGraphic" in2="effect1_dropShadow" result="shape"/>
</filter>
</defs>
</svg>
