<svg width="88" height="135" viewBox="0 0 88 135" fill="none" xmlns="http://www.w3.org/2000/svg">
<g id="complementing-object-v1">
<g id="circle-13">
<circle cx="32.32" cy="126.578" r="8.42196" transform="rotate(90 32.32 126.578)" fill="#310686"/>
<circle cx="32.32" cy="126.578" r="8.42196" transform="rotate(90 32.32 126.578)" fill="#310686"/>
<circle cx="32.32" cy="126.578" r="8.42196" transform="rotate(90 32.32 126.578)" fill="#310686"/>
</g>
<circle id="circle-12" cx="55.9013" cy="102.997" r="8.42196" transform="rotate(90 55.9013 102.997)" fill="#310686"/>
<g id="circle-11">
<circle cx="32.32" cy="102.997" r="8.42196" transform="rotate(90 32.32 102.997)" fill="#310686"/>
<circle cx="32.32" cy="102.997" r="8.42196" transform="rotate(90 32.32 102.997)" fill="#310686"/>
<circle cx="32.32" cy="102.997" r="8.42196" transform="rotate(90 32.32 102.997)" fill="#5C09FF"/>
</g>
<g id="circle-10">
<circle cx="79.4828" cy="79.5509" r="8.42196" transform="rotate(90 79.4828 79.5509)" fill="#310686"/>
<circle cx="79.4828" cy="79.5509" r="8.42196" transform="rotate(90 79.4828 79.5509)" fill="#310686"/>
<circle cx="79.4828" cy="79.5509" r="8.42196" transform="rotate(90 79.4828 79.5509)" fill="#5C09FF"/>
</g>
<g id="circle-9">
<circle cx="55.9013" cy="79.4151" r="8.42196" transform="rotate(90 55.9013 79.4151)" fill="#310686"/>
<circle cx="55.9013" cy="79.4151" r="8.42196" transform="rotate(90 55.9013 79.4151)" fill="#310686"/>
<circle cx="55.9013" cy="79.4151" r="8.42196" transform="rotate(90 55.9013 79.4151)" fill="#4508BD"/>
</g>
<g id="circle-8">
<circle cx="32.32" cy="79.4151" r="8.42196" transform="rotate(90 32.32 79.4151)" fill="#310686"/>
<circle cx="32.32" cy="79.4151" r="8.42196" transform="rotate(90 32.32 79.4151)" fill="#310686"/>
<circle cx="32.32" cy="79.4151" r="8.42196" transform="rotate(90 32.32 79.4151)" fill="#310686"/>
</g>
<g id="circle-7">
<circle cx="8.42179" cy="79.5509" r="8.42196" transform="rotate(90 8.42179 79.5509)" fill="#310686"/>
<circle cx="8.42179" cy="79.5509" r="8.42196" transform="rotate(90 8.42179 79.5509)" fill="#310686"/>
<circle cx="8.42179" cy="79.5509" r="8.42196" transform="rotate(90 8.42179 79.5509)" fill="#5C09FF"/>
</g>
<g id="circle-6">
<circle cx="55.9013" cy="55.8336" r="8.42196" transform="rotate(90 55.9013 55.8336)" fill="#310686"/>
<circle cx="55.9013" cy="55.8336" r="8.42196" transform="rotate(90 55.9013 55.8336)" fill="#310686"/>
<circle cx="55.9013" cy="55.8336" r="8.42196" transform="rotate(90 55.9013 55.8336)" fill="#310686"/>
</g>
<g id="circle-5">
<circle cx="32.32" cy="55.8336" r="8.42196" transform="rotate(90 32.32 55.8336)" fill="#310686"/>
<circle cx="32.32" cy="55.8336" r="8.42196" transform="rotate(90 32.32 55.8336)" fill="#310686"/>
<circle cx="32.32" cy="55.8336" r="8.42196" transform="rotate(90 32.32 55.8336)" fill="#4508BD"/>
</g>
<g id="circle-4">
<circle cx="8.42179" cy="56.0372" r="8.42196" transform="rotate(90 8.42179 56.0372)" fill="#310686"/>
<circle cx="8.42179" cy="56.0372" r="8.42196" transform="rotate(90 8.42179 56.0372)" fill="#310686"/>
<circle cx="8.42179" cy="56.0372" r="8.42196" transform="rotate(90 8.42179 56.0372)" fill="#310686"/>
</g>
<g id="circle-3">
<circle cx="56.037" cy="31.9356" r="8.42196" transform="rotate(90 56.037 31.9356)" fill="#310686"/>
<circle cx="56.037" cy="31.9356" r="8.42196" transform="rotate(90 56.037 31.9356)" fill="#310686"/>
<circle cx="56.037" cy="31.9356" r="8.42196" transform="rotate(90 56.037 31.9356)" fill="#5C09FF"/>
</g>
<g id="circle-2">
<circle cx="31.9355" cy="31.9356" r="8.42196" transform="rotate(90 31.9355 31.9356)" fill="#310686"/>
<circle cx="31.9355" cy="31.9356" r="8.42196" transform="rotate(90 31.9355 31.9356)" fill="#310686"/>
<circle cx="31.9355" cy="31.9356" r="8.42196" transform="rotate(90 31.9355 31.9356)" fill="#310686"/>
</g>
<g id="circle-1">
<circle cx="32.5234" cy="8.42196" r="8.42196" transform="rotate(90 32.5234 8.42196)" fill="#310686"/>
<circle cx="32.5234" cy="8.42196" r="8.42196" transform="rotate(90 32.5234 8.42196)" fill="#310686"/>
<circle cx="32.5234" cy="8.42196" r="8.42196" transform="rotate(90 32.5234 8.42196)" fill="#4508BD"/>
</g>
</g>
</svg>
