<svg width="93" height="136" viewBox="0 0 93 136" fill="none" xmlns="http://www.w3.org/2000/svg">
<g id="complementing-object-v2">
<g id="circle-13">
<ellipse cx="57.2904" cy="127.232" rx="8.42196" ry="8.71228" transform="rotate(-90 57.2904 127.232)" fill="#310686"/>
<ellipse cx="57.2904" cy="127.232" rx="8.42196" ry="8.71228" transform="rotate(-90 57.2904 127.232)" fill="#310686"/>
<ellipse cx="57.2904" cy="127.232" rx="8.42196" ry="8.71228" transform="rotate(-90 57.2904 127.232)" fill="#4508BD"/>
</g>
<g id="circle-12">
<ellipse cx="57.8986" cy="103.718" rx="8.42196" ry="8.71228" transform="rotate(-90 57.8986 103.718)" fill="#310686"/>
<ellipse cx="57.8986" cy="103.718" rx="8.42196" ry="8.71228" transform="rotate(-90 57.8986 103.718)" fill="#310686"/>
<ellipse cx="57.8986" cy="103.718" rx="8.42196" ry="8.71228" transform="rotate(-90 57.8986 103.718)" fill="#310686"/>
</g>
<g id="circle-11">
<ellipse cx="32.9662" cy="103.718" rx="8.42196" ry="8.71228" transform="rotate(-90 32.9662 103.718)" fill="#310686"/>
<ellipse cx="32.9662" cy="103.718" rx="8.42196" ry="8.71228" transform="rotate(-90 32.9662 103.718)" fill="#310686"/>
<ellipse cx="32.9662" cy="103.718" rx="8.42196" ry="8.71228" transform="rotate(-90 32.9662 103.718)" fill="#5C09FF"/>
</g>
<g id="circle-10">
<ellipse cx="57.5011" cy="79.8202" rx="8.42196" ry="8.71228" transform="rotate(-90 57.5011 79.8202)" fill="#310686"/>
<ellipse cx="57.5011" cy="79.8202" rx="8.42196" ry="8.71228" transform="rotate(-90 57.5011 79.8202)" fill="#310686"/>
<ellipse cx="57.5011" cy="79.8202" rx="8.42196" ry="8.71228" transform="rotate(-90 57.5011 79.8202)" fill="#4508BD"/>
</g>
<g id="circle-9">
<ellipse cx="33.1066" cy="79.8202" rx="8.42196" ry="8.71228" transform="rotate(-90 33.1066 79.8202)" fill="#310686"/>
<ellipse cx="33.1066" cy="79.8202" rx="8.42196" ry="8.71228" transform="rotate(-90 33.1066 79.8202)" fill="#310686"/>
<ellipse cx="33.1066" cy="79.8202" rx="8.42196" ry="8.71228" transform="rotate(-90 33.1066 79.8202)" fill="#310686"/>
</g>
<g id="circle-8">
<ellipse cx="8.71228" cy="79.8202" rx="8.42196" ry="8.71228" transform="rotate(-90 8.71228 79.8202)" fill="#310686"/>
<ellipse cx="8.71228" cy="79.8202" rx="8.42196" ry="8.71228" transform="rotate(-90 8.71228 79.8202)" fill="#310686"/>
<ellipse cx="8.71228" cy="79.8202" rx="8.42196" ry="8.71228" transform="rotate(-90 8.71228 79.8202)" fill="#4508BD"/>
</g>
<g id="circle-7">
<ellipse cx="57.5011" cy="56.2387" rx="8.42196" ry="8.71228" transform="rotate(-90 57.5011 56.2387)" fill="#310686"/>
<ellipse cx="57.5011" cy="56.2387" rx="8.42196" ry="8.71228" transform="rotate(-90 57.5011 56.2387)" fill="#310686"/>
<ellipse cx="57.5011" cy="56.2387" rx="8.42196" ry="8.71228" transform="rotate(-90 57.5011 56.2387)" fill="#310686"/>
</g>
<g id="circle-6">
<ellipse cx="33.1066" cy="56.2387" rx="8.42196" ry="8.71228" transform="rotate(-90 33.1066 56.2387)" fill="#310686"/>
<ellipse cx="33.1066" cy="56.2387" rx="8.42196" ry="8.71228" transform="rotate(-90 33.1066 56.2387)" fill="#310686"/>
<ellipse cx="33.1066" cy="56.2387" rx="8.42196" ry="8.71228" transform="rotate(-90 33.1066 56.2387)" fill="#4508BD"/>
</g>
<g id="circle-5">
<ellipse cx="8.71228" cy="56.1034" rx="8.42196" ry="8.71228" transform="rotate(-90 8.71228 56.1034)" fill="#310686"/>
<ellipse cx="8.71228" cy="56.1034" rx="8.42196" ry="8.71228" transform="rotate(-90 8.71228 56.1034)" fill="#310686"/>
<ellipse cx="8.71228" cy="56.1034" rx="8.42196" ry="8.71228" transform="rotate(-90 8.71228 56.1034)" fill="#5C09FF"/>
</g>
<g id="circle-4">
<ellipse cx="57.5011" cy="32.6571" rx="8.42196" ry="8.71228" transform="rotate(-90 57.5011 32.6571)" fill="#310686"/>
<ellipse cx="57.5011" cy="32.6571" rx="8.42196" ry="8.71228" transform="rotate(-90 57.5011 32.6571)" fill="#310686"/>
<ellipse cx="57.5011" cy="32.6571" rx="8.42196" ry="8.71228" transform="rotate(-90 57.5011 32.6571)" fill="#5C09FF"/>
</g>
<ellipse id="circle-3" cx="33.1066" cy="32.6571" rx="8.42196" ry="8.71228" transform="rotate(-90 33.1066 32.6571)" fill="#310686"/>
<g id="circle-2">
<ellipse cx="84.1173" cy="9.07609" rx="8.42196" ry="8.71228" transform="rotate(-90 84.1173 9.07609)" fill="#310686"/>
<ellipse cx="84.1173" cy="9.07609" rx="8.42196" ry="8.71228" transform="rotate(-90 84.1173 9.07609)" fill="#310686"/>
<ellipse cx="84.1173" cy="9.07609" rx="8.42196" ry="8.71228" transform="rotate(-90 84.1173 9.07609)" fill="#5C09FF"/>
</g>
<g id="circle-1">
<ellipse cx="57.5011" cy="9.07609" rx="8.42196" ry="8.71228" transform="rotate(-90 57.5011 9.07609)" fill="#310686"/>
<ellipse cx="57.5011" cy="9.07609" rx="8.42196" ry="8.71228" transform="rotate(-90 57.5011 9.07609)" fill="#310686"/>
<ellipse cx="57.5011" cy="9.07609" rx="8.42196" ry="8.71228" transform="rotate(-90 57.5011 9.07609)" fill="#310686"/>
</g>
</g>
</svg>
