<svg width="63" height="88" viewBox="0 0 63 88" fill="none" xmlns="http://www.w3.org/2000/svg">
<g id="complementing-object-v5">
<g id="circle-7">
<circle cx="54.6349" cy="79.5408" r="8.29828" transform="rotate(-90 54.6349 79.5408)" fill="white"/>
<circle cx="54.6349" cy="79.5408" r="8.29828" transform="rotate(-90 54.6349 79.5408)" fill="white"/>
<circle cx="54.6349" cy="79.5408" r="8.29828" transform="rotate(-90 54.6349 79.5408)" fill="white"/>
</g>
<g id="circle-6">
<circle cx="54.6349" cy="55.7933" r="8.29828" transform="rotate(-90 54.6349 55.7933)" fill="white"/>
<circle cx="54.6349" cy="55.7933" r="8.29828" transform="rotate(-90 54.6349 55.7933)" fill="white"/>
<circle cx="54.6349" cy="55.7933" r="8.29828" transform="rotate(-90 54.6349 55.7933)" fill="white"/>
</g>
<g id="circle-5">
<circle cx="54.7017" cy="32.1126" r="8.29828" transform="rotate(-90 54.7017 32.1126)" fill="white"/>
<circle cx="54.7017" cy="32.1126" r="8.29828" transform="rotate(-90 54.7017 32.1126)" fill="white"/>
<circle cx="54.7017" cy="32.1126" r="8.29828" transform="rotate(-90 54.7017 32.1126)" fill="white"/>
</g>
<g id="circle-4">
<circle cx="31.4666" cy="31.9791" r="8.29828" transform="rotate(-90 31.4666 31.9791)" fill="white"/>
<circle cx="31.4666" cy="31.9791" r="8.29828" transform="rotate(-90 31.4666 31.9791)" fill="white"/>
<circle cx="31.4666" cy="31.9791" r="8.29828" transform="rotate(-90 31.4666 31.9791)" fill="white"/>
</g>
<g id="circle-3">
<circle cx="54.6349" cy="8.2984" r="8.29828" transform="rotate(-90 54.6349 8.2984)" fill="white"/>
<circle cx="54.6349" cy="8.2984" r="8.29828" transform="rotate(-90 54.6349 8.2984)" fill="white"/>
<circle cx="54.6349" cy="8.2984" r="8.29828" transform="rotate(-90 54.6349 8.2984)" fill="white"/>
</g>
<g id="circle-2">
<circle cx="31.4666" cy="8.2984" r="8.29828" transform="rotate(-90 31.4666 8.2984)" fill="white"/>
<circle cx="31.4666" cy="8.2984" r="8.29828" transform="rotate(-90 31.4666 8.2984)" fill="white"/>
<circle cx="31.4666" cy="8.2984" r="8.29828" transform="rotate(-90 31.4666 8.2984)" fill="white"/>
</g>
<g id="circle-1">
<circle cx="8.29828" cy="8.2984" r="8.29828" transform="rotate(-90 8.29828 8.2984)" fill="white"/>
<circle cx="8.29828" cy="8.2984" r="8.29828" transform="rotate(-90 8.29828 8.2984)" fill="white"/>
<circle cx="8.29828" cy="8.2984" r="8.29828" transform="rotate(-90 8.29828 8.2984)" fill="white"/>
</g>
</g>
</svg>
