<svg width="65" height="135" viewBox="0 0 65 135" fill="none" xmlns="http://www.w3.org/2000/svg">
<g id="complementing-object-v1">
<g id="circle-11">
<circle cx="8.95353" cy="126.578" r="8.42196" transform="rotate(90 8.95353 126.578)" fill="#310686"/>
<circle cx="8.95353" cy="126.578" r="8.42196" transform="rotate(90 8.95353 126.578)" fill="#310686"/>
<circle cx="8.95353" cy="126.578" r="8.42196" transform="rotate(90 8.95353 126.578)" fill="#310686"/>
</g>
<circle id="circle-10" cx="32.5351" cy="102.997" r="8.42196" transform="rotate(90 32.5351 102.997)" fill="#310686"/>
<g id="circle-9">
<circle cx="8.95353" cy="102.997" r="8.42196" transform="rotate(90 8.95353 102.997)" fill="#310686"/>
<circle cx="8.95353" cy="102.997" r="8.42196" transform="rotate(90 8.95353 102.997)" fill="#310686"/>
<circle cx="8.95353" cy="102.997" r="8.42196" transform="rotate(90 8.95353 102.997)" fill="#5C09FF"/>
</g>
<g id="circle-8">
<circle cx="56.1164" cy="79.5509" r="8.42196" transform="rotate(90 56.1164 79.5509)" fill="#310686"/>
<circle cx="56.1164" cy="79.5509" r="8.42196" transform="rotate(90 56.1164 79.5509)" fill="#310686"/>
<circle cx="56.1164" cy="79.5509" r="8.42196" transform="rotate(90 56.1164 79.5509)" fill="#5C09FF"/>
</g>
<g id="circle-7">
<circle cx="32.5351" cy="79.4151" r="8.42196" transform="rotate(90 32.5351 79.4151)" fill="#310686"/>
<circle cx="32.5351" cy="79.4151" r="8.42196" transform="rotate(90 32.5351 79.4151)" fill="#310686"/>
<circle cx="32.5351" cy="79.4151" r="8.42196" transform="rotate(90 32.5351 79.4151)" fill="#4508BD"/>
</g>
<g id="circle-6">
<circle cx="8.95353" cy="79.4151" r="8.42196" transform="rotate(90 8.95353 79.4151)" fill="#310686"/>
<circle cx="8.95353" cy="79.4151" r="8.42196" transform="rotate(90 8.95353 79.4151)" fill="#310686"/>
<circle cx="8.95353" cy="79.4151" r="8.42196" transform="rotate(90 8.95353 79.4151)" fill="#310686"/>
</g>
<g id="circle-5">
<circle cx="32.5351" cy="55.8336" r="8.42196" transform="rotate(90 32.5351 55.8336)" fill="#310686"/>
<circle cx="32.5351" cy="55.8336" r="8.42196" transform="rotate(90 32.5351 55.8336)" fill="#310686"/>
<circle cx="32.5351" cy="55.8336" r="8.42196" transform="rotate(90 32.5351 55.8336)" fill="#310686"/>
</g>
<g id="circle-4">
<circle cx="8.95353" cy="55.8336" r="8.42196" transform="rotate(90 8.95353 55.8336)" fill="#310686"/>
<circle cx="8.95353" cy="55.8336" r="8.42196" transform="rotate(90 8.95353 55.8336)" fill="#310686"/>
<circle cx="8.95353" cy="55.8336" r="8.42196" transform="rotate(90 8.95353 55.8336)" fill="#4508BD"/>
</g>
<g id="circle-3">
<circle cx="32.6706" cy="31.9356" r="8.42196" transform="rotate(90 32.6706 31.9356)" fill="#310686"/>
<circle cx="32.6706" cy="31.9356" r="8.42196" transform="rotate(90 32.6706 31.9356)" fill="#310686"/>
<circle cx="32.6706" cy="31.9356" r="8.42196" transform="rotate(90 32.6706 31.9356)" fill="#5C09FF"/>
</g>
<g id="circle-2">
<circle cx="8.56901" cy="31.9356" r="8.42196" transform="rotate(90 8.56901 31.9356)" fill="#310686"/>
<circle cx="8.56901" cy="31.9356" r="8.42196" transform="rotate(90 8.56901 31.9356)" fill="#310686"/>
<circle cx="8.56901" cy="31.9356" r="8.42196" transform="rotate(90 8.56901 31.9356)" fill="#310686"/>
</g>
<g id="circle-1">
<circle cx="9.1569" cy="8.42196" r="8.42196" transform="rotate(90 9.1569 8.42196)" fill="#310686"/>
<circle cx="9.1569" cy="8.42196" r="8.42196" transform="rotate(90 9.1569 8.42196)" fill="#310686"/>
<circle cx="9.1569" cy="8.42196" r="8.42196" transform="rotate(90 9.1569 8.42196)" fill="#4508BD"/>
</g>
</g>
</svg>
