<?xml version="1.0" encoding="UTF-8" standalone="no"?>
<svg
   xmlns:dc="http://purl.org/dc/elements/1.1/"
   xmlns:cc="http://creativecommons.org/ns#"
   xmlns:rdf="http://www.w3.org/1999/02/22-rdf-syntax-ns#"
   xmlns:svg="http://www.w3.org/2000/svg"
   xmlns="http://www.w3.org/2000/svg"
   xmlns:sodipodi="http://sodipodi.sourceforge.net/DTD/sodipodi-0.dtd"
   xmlns:inkscape="http://www.inkscape.org/namespaces/inkscape"
   width="379"
   height="379"
   viewBox="0 0 379 379"
   fill="none"
   version="1.1"
   id="svg37"
   sodipodi:docname="ecommerce-violet.svg"
   inkscape:version="1.0.2 (e86c870879, 2021-01-15)">
  <metadata
     id="metadata43">
    <rdf:RDF>
      <cc:Work
         rdf:about="">
        <dc:format>image/svg+xml</dc:format>
        <dc:type
           rdf:resource="http://purl.org/dc/dcmitype/StillImage" />
        <dc:title></dc:title>
      </cc:Work>
    </rdf:RDF>
  </metadata>
  <defs
     id="defs41" />
  <sodipodi:namedview
     pagecolor="#3dd461"
     bordercolor="#666666"
     borderopacity="1"
     objecttolerance="10"
     gridtolerance="10"
     guidetolerance="10"
     inkscape:pageopacity="0"
     inkscape:pageshadow="2"
     inkscape:window-width="1874"
     inkscape:window-height="1045"
     id="namedview39"
     showgrid="false"
     inkscape:zoom="1.4142136"
     inkscape:cx="15.530847"
     inkscape:cy="223.4227"
     inkscape:window-x="46"
     inkscape:window-y="0"
     inkscape:window-maximized="1"
     inkscape:current-layer="ecommerce"
     inkscape:document-rotation="0" />
  <g
     id="ecommerce">
    <g
       id="ecommerce-tile"
       inkscape:export-xdpi="271.677"
       inkscape:export-ydpi="271.677">
      <ellipse
         id="ecommerce-circle-1"
         cx="282.5"
         cy="33.5"
         rx="11.5"
         ry="10.5"
         fill="white"
         style="fill:#4508bd;fill-opacity:1" />
      <ellipse
         id="ecommerce-circle-2"
         cx="310.5"
         cy="33.5"
         rx="11.5"
         ry="10.5"
         fill="white"
         style="fill:#4508bd;fill-opacity:1" />
      <ellipse
         id="ecommerce-circle-3"
         cx="338.5"
         cy="33.5"
         rx="11.5"
         ry="10.5"
         fill="white"
         style="fill:#4508bd;fill-opacity:1" />
      <rect
         id="ecommerce-frame"
         x="5"
         y="5"
         width="369"
         height="369"
         rx="40"
         stroke="#ffffff"
         stroke-width="10"
         style="stroke:#4508bd;stroke-opacity:1" />
    </g>
    <g
       id="ecommerce-cart"
       inkscape:export-xdpi="271.677"
       inkscape:export-ydpi="271.677">
      <line
         id="Line 37"
         x1="87.4388"
         y1="185.698"
         x2="129.439"
         y2="266.698"
         stroke="white"
         stroke-width="10"
         style="stroke:#4508bd;stroke-opacity:1"
         inkscape:export-xdpi="271.677"
         inkscape:export-ydpi="271.677" />
      <line
         id="Line 44"
         x1="118.5"
         y1="188"
         x2="118.5"
         y2="240"
         stroke="white"
         stroke-width="5"
         style="stroke:#4508bd;stroke-opacity:1"
         inkscape:export-xdpi="271.677"
         inkscape:export-ydpi="271.677" />
      <line
         id="Line 45"
         x1="141.5"
         y1="188"
         x2="141.5"
         y2="259"
         stroke="white"
         stroke-width="5"
         style="stroke:#4508bd;stroke-opacity:1"
         inkscape:export-xdpi="271.677"
         inkscape:export-ydpi="271.677" />
      <line
         id="Line 50"
         x1="256"
         y1="210.5"
         x2="103"
         y2="210.5"
         stroke="white"
         stroke-width="5"
         style="stroke:#4508bd;stroke-opacity:1"
         inkscape:export-xdpi="271.677"
         inkscape:export-ydpi="271.677" />
      <line
         id="Line 51"
         x1="253"
         y1="235.5"
         x2="116"
         y2="235.5"
         stroke="white"
         stroke-width="5"
         style="stroke:#4508bd;stroke-opacity:1"
         inkscape:export-xdpi="271.677"
         inkscape:export-ydpi="271.677" />
      <line
         id="Line 46"
         x1="164.5"
         y1="188"
         x2="164.5"
         y2="259"
         stroke="white"
         stroke-width="5"
         style="stroke:#4508bd;stroke-opacity:1"
         inkscape:export-xdpi="271.677"
         inkscape:export-ydpi="271.677" />
      <line
         id="Line 47"
         x1="187.5"
         y1="188"
         x2="187.5"
         y2="259"
         stroke="white"
         stroke-width="5"
         style="stroke:#4508bd;stroke-opacity:1"
         inkscape:export-xdpi="271.677"
         inkscape:export-ydpi="271.677" />
      <line
         id="Line 41"
         x1="251"
         y1="262"
         x2="272"
         y2="290"
         stroke="white"
         stroke-width="10"
         style="stroke:#4508bd;stroke-opacity:1"
         inkscape:export-xdpi="271.677"
         inkscape:export-ydpi="271.677" />
      <line
         id="Line 42"
         x1="297"
         y1="155"
         x2="263"
         y2="155"
         stroke="white"
         stroke-width="10"
         style="stroke:#4508bd;stroke-opacity:1"
         inkscape:export-xdpi="271.677"
         inkscape:export-ydpi="271.677" />
      <line
         id="Line 40"
         x1="267.954"
         y1="150.677"
         x2="251.954"
         y2="267.677"
         stroke="white"
         stroke-width="10"
         style="stroke:#4508bd;stroke-opacity:1"
         inkscape:export-xdpi="271.677"
         inkscape:export-ydpi="271.677" />
      <line
         id="Line 38"
         x1="83"
         y1="183"
         x2="268"
         y2="183"
         stroke="white"
         stroke-width="10"
         style="stroke:#4508bd;stroke-opacity:1"
         inkscape:export-xdpi="271.677"
         inkscape:export-ydpi="271.677" />
      <line
         id="Line 39"
         x1="125"
         y1="264"
         x2="257"
         y2="264"
         stroke="white"
         stroke-width="10"
         style="stroke:#4508bd;stroke-opacity:1"
         inkscape:export-xdpi="271.677"
         inkscape:export-ydpi="271.677" />
      <line
         id="Line 43"
         x1="103"
         y1="292"
         x2="276"
         y2="292"
         stroke="white"
         stroke-width="10"
         style="stroke:#4508bd;stroke-opacity:1"
         inkscape:export-xdpi="271.677"
         inkscape:export-ydpi="271.677" />
      <circle
         id="Ellipse 3"
         cx="129.5"
         cy="307.5"
         r="14.5"
         stroke="white"
         stroke-width="10"
         style="stroke:#4508bd;stroke-opacity:1"
         inkscape:export-xdpi="271.677"
         inkscape:export-ydpi="271.677" />
      <circle
         id="Ellipse 4"
         cx="243.5"
         cy="307.5"
         r="14.5"
         stroke="white"
         stroke-width="10"
         style="stroke:#4508bd;stroke-opacity:1"
         inkscape:export-xdpi="271.677"
         inkscape:export-ydpi="271.677" />
      <line
         id="Line 48"
         x1="210.5"
         y1="188"
         x2="210.5"
         y2="259"
         stroke="white"
         stroke-width="5"
         style="stroke:#4508bd;stroke-opacity:1"
         inkscape:export-xdpi="271.677"
         inkscape:export-ydpi="271.677" />
      <line
         id="Line 49"
         x1="234.5"
         y1="188"
         x2="234.5"
         y2="259"
         stroke="white"
         stroke-width="5"
         style="stroke:#4508bd;stroke-opacity:1"
         inkscape:export-xdpi="271.677"
         inkscape:export-ydpi="271.677" />
    </g>
    <g
       id="ecommerce-nav"
       inkscape:export-xdpi="271.677"
       inkscape:export-ydpi="271.677">
      <path
         id="Rectangle 22"
         style="fill:#4508bd;fill-opacity:1"
         d="M 10 55 L 10 95 L 369 95 L 369 55 L 10 55 z M 32 61 L 50 61 C 52.77 61 55 63.23 55 66 L 55 84 C 55 86.77 52.77 89 50 89 L 32 89 C 29.23 89 27 86.77 27 84 L 27 66 C 27 63.23 29.23 61 32 61 z M 80 61 L 98 61 C 100.77 61 103 63.23 103 66 L 103 84 C 103 86.77 100.77 89 98 89 L 80 89 C 77.23 89 75 86.77 75 84 L 75 66 C 75 63.23 77.23 61 80 61 z M 128 61 L 146 61 C 148.77 61 151 63.23 151 66 L 151 84 C 151 86.77 148.77 89 146 89 L 128 89 C 125.23 89 123 86.77 123 84 L 123 66 C 123 63.23 125.23 61 128 61 z M 171 61 L 189 61 C 191.77 61 194 63.23 194 66 L 194 84 C 194 86.77 191.77 89 189 89 L 171 89 C 168.23 89 166 86.77 166 84 L 166 66 C 166 63.23 168.23 61 171 61 z M 351.5 61 C 356.74671 61 361 65.253295 361 70.5 C 361 75.746705 356.74671 80 351.5 80 C 349.71154 79.9998 347.95947 79.494758 346.44531 78.542969 L 336.46875 89.177734 L 333.42188 86.189453 L 343.43359 75.517578 C 342.49673 74.01166 342.00013 72.273555 342 70.5 C 342 65.253295 346.25329 61 351.5 61 z M 225 63.5 L 317 63.5 C 323.371 63.5 328.5 68.629 328.5 75 C 328.5 81.371 323.371 86.5 317 86.5 L 225 86.5 C 218.629 86.5 213.5 81.371 213.5 75 C 213.5 68.629 218.629 63.5 225 63.5 z " />
      <rect
         id="Rectangle 27"
         x="217.48027"
         y="67.148346"
         width="107.03947"
         height="15.703305"
         rx="8.7577744"
         fill="#ffffff"
         style="stroke-width:0.921372;fill:#4508bd;fill-opacity:1" />
      <ellipse
         id="Ellipse 6"
         cx="351.5"
         cy="70.5"
         fill="white"
         style="fill:#4508bd;fill-opacity:1"
         r="5.5" />
    </g>
  </g>
</svg>
