<?xml version="1.0" encoding="UTF-8" standalone="no"?>
<svg
   xmlns:dc="http://purl.org/dc/elements/1.1/"
   xmlns:cc="http://creativecommons.org/ns#"
   xmlns:rdf="http://www.w3.org/1999/02/22-rdf-syntax-ns#"
   xmlns:svg="http://www.w3.org/2000/svg"
   xmlns="http://www.w3.org/2000/svg"
   xmlns:sodipodi="http://sodipodi.sourceforge.net/DTD/sodipodi-0.dtd"
   xmlns:inkscape="http://www.inkscape.org/namespaces/inkscape"
   id="Layer_2"
   data-name="Layer 2"
   viewBox="0 0 2000 2000"
   version="1.1"
   sodipodi:docname="logo (1).svg"
   inkscape:version="1.0.2 (e86c870879, 2021-01-15)"
   width="2000"
   height="2000">
  <metadata
     id="metadata23">
    <rdf:RDF>
      <cc:Work
         rdf:about="">
        <dc:format>image/svg+xml</dc:format>
        <dc:type
           rdf:resource="http://purl.org/dc/dcmitype/StillImage" />
        <dc:title>Filda Logo2</dc:title>
      </cc:Work>
    </rdf:RDF>
  </metadata>
  <defs
     id="defs21" />
  <sodipodi:namedview
     pagecolor="#ff6bff"
     bordercolor="#666666"
     borderopacity="1"
     objecttolerance="10"
     gridtolerance="10"
     guidetolerance="10"
     inkscape:pageopacity="0"
     inkscape:pageshadow="2"
     inkscape:window-width="1326"
     inkscape:window-height="742"
     id="namedview19"
     showgrid="false"
     inkscape:zoom="0.15043813"
     inkscape:cx="144.70193"
     inkscape:cy="723.97766"
     inkscape:window-x="40"
     inkscape:window-y="0"
     inkscape:window-maximized="1"
     inkscape:current-layer="Layer_2" />
  <title
     id="title2">Filda Logo2</title>
  <path
     d="m 815.38961,1114.1846 a 203.5399,210.45019 0 0 0 106.99995,110.6326 203.3299,210.23306 0 0 0 155.19994,0 203.5399,210.45019 0 0 0 106.9999,-110.6326 203.3599,210.26408 0 0 0 0,-160.4794 203.4799,210.38815 0 0 0 -106.9999,-110.63265 203.3299,210.23306 0 0 0 -155.19994,0 203.5399,210.45019 0 0 0 -106.99995,110.63265 203.3299,210.23306 0 0 0 0,160.469 z"
     id="path4"
     style="fill:#ffffff;fill-opacity:1;stroke-width:1.01683" />
  <path
     d="m 1817.9991,663.66154 v 0 a 99.999952,103.395 0 0 0 48,-147.13109 1004.3195,1038.4167 0 0 0 -163.7999,-218.75281 c -42.83,-43.67405 -113.09,-38.31819 -149.5399,11.15632 v 0.0517 a 99.879952,103.27093 0 0 0 9.1699,136.06782 q 2,1.98519 3.89,3.98071 a 800.15961,827.32546 0 0 1 127.06,170.74651 100.10995,103.50874 0 0 0 125.2199,43.88084 z"
     id="path6"
     style="fill:#ffffff;fill-opacity:1;stroke-width:1.01683" />
  <path
     d="m 380.24982,373.25599 a 96.859953,100.1484 0 0 0 128.11994,8.08549 795.34962,822.35216 0 0 1 180.29991,-109.5987 c 98.48995,-43.11572 203.2399,-64.95274 311.32985,-64.95274 108.08998,0 212.83988,21.83702 311.32988,64.92172 l 0.8,0.3412 a 95.999954,99.259203 0 0 0 120.7699,-41.55445 l 3.6,-6.46219 c 29,-51.94565 7.72,-118.62509 -45.67,-142.085411 A 996.76952,1030.6104 0 0 0 999.99952,2.9134975e-5 C 767.81963,2.9134975e-5 554.11973,81.816495 384.39981,219.0837 c -45.71997,36.98439 -49.65997,107.08621 -8.60999,149.51952 z"
     id="path8"
     style="fill:#ffffff;fill-opacity:1;stroke-width:1.01683" />
  <path
     d="m 1865.9991,808.62133 a 99.999952,103.395 0 0 0 -73.2,113.7345 809.32961,836.80678 0 0 1 7.18,111.66657 c 0,111.7597 -21.12,220.066 -62.7899,321.8997 a 803.36961,830.64444 0 0 1 -425.8798,440.3386 c -2.72,1.1994 -5.45,2.3678 -8.19,3.5361 a 100.04995,103.4467 0 0 0 -58.83,122.4714 v 0 c 15.56,60.0415 78.55,92.5799 134.1799,69.0369 364.6499,-154.3171 621.5297,-524.8124 621.5297,-957.355 a 1009.1095,1043.3693 0 0 0 -9,-139.49024 c -8,-61.68546 -66.7999,-101.94747 -124.9499,-85.81785 z"
     id="path10"
     style="fill:#ffffff;fill-opacity:1;stroke-width:1.01683" />
  <path
     d="m 756.40964,1919.4352 a 96.779953,100.06568 0 0 0 -56.99998,-118.6354 q -5.37999,-2.2644 -10.74999,-4.6114 a 803.36961,830.64444 0 0 1 -425.8798,-440.3387 c -41.65998,-101.8337 -62.77997,-210.14 -62.77997,-321.8996 0,-111.7597 21.11999,-220.06596 62.78997,-321.8997 l 0.33,-0.82716 A 95.999954,99.259203 0 0 0 222.92989,586.35309 l -6.24999,-3.72222 C 166.43992,552.64632 101.94995,574.64878 79.259962,629.86171 A 996.67952,1030.5173 0 0 0 0,1033.9501 c 0,433.8351 258.42988,805.2609 624.7997,958.6991 a 96.879953,100.16908 0 0 0 129.99994,-66.8759 z"
     id="path12"
     style="fill:#ffffff;fill-opacity:1;stroke-width:1.01683" />
  <path
     d="m 880.15958,544.29201 a 100.10995,103.50874 0 0 0 101.36995,76.5123 q 9.17999,-0.43426 18.46999,-0.43426 c 154.60988,0 288.71988,90.68776 355.30978,223.42626 a 100.14995,103.5501 0 0 0 114.81,52.6384 v 0 c 61.85,-17.13256 92.2299,-89.0231 62.73,-147.79282 -99.89,-199.03538 -300.9999,-334.99981 -532.88978,-334.99981 q -14.04999,0 -27.99999,0.66173 c -63.74997,3.02947 -108.39995,66.31755 -91.88995,130.05023 z"
     id="path14"
     style="fill:#ffffff;fill-opacity:1;stroke-width:1.01683" />
  <path
     d="m 1390.9993,1121.5256 c -37.72,180.9413 -189.9299,317.8363 -374.3398,325.6943 -121.51993,5.1697 -231.92988,-46.4657 -308.50984,-131.1049 -71.51997,-79.0351 -113.54995,-186.8554 -107.59995,-304.126 A 398.54981,412.08079 0 0 1 618.7297,908.53192 c 14.22,-46.23824 -4.19,-96.48821 -44.82998,-120.75502 l -1.13,-0.67207 c -54.88997,-32.76588 -124.99994,-4.75617 -144.34993,57.65305 -28.38998,91.74239 -36.69998,192.76962 -19.54999,297.56052 a 594.58971,614.77635 0 0 0 493.99977,504.154 c 329.32983,53.3932 618.71973,-170.4984 683.57963,-480.7868 13.4,-64.1049 -33.7099,-124.6116 -97.1099,-124.6116 h -1.34 c -46.57,-0.072 -87.17,33.3449 -97,80.4516 z"
     id="path16"
     style="fill:#ffffff;fill-opacity:1;stroke-width:1.01683" />
</svg>
