<svg width="400" height="400" viewBox="0 0 400 400" fill="none" xmlns="http://www.w3.org/2000/svg">
<rect width="400" height="400" fill="white"/>
<path fill-rule="evenodd" clip-rule="evenodd" d="M381.484 263.646L267.891 247.383C238.383 250.665 209.511 251.926 190.497 243.245C187.531 242.12 167.771 229.29 177.133 226.537C186.028 223.922 195.893 236.406 211.538 235.103C231.586 233.432 240.645 226.801 240.614 219.864C240.584 212.927 213.975 213.157 215.555 203.158C216.607 196.492 240.925 194.97 281.563 216.529L381.483 226.537L381.484 263.646Z" fill="#310686"/>
<path d="M296.126 210.351L382.313 218.261V274.054L283.635 259.065L296.126 210.351Z" fill="#4508BD"/>
<circle cx="304.452" cy="222.425" r="3.74726" fill="white"/>
<path fill-rule="evenodd" clip-rule="evenodd" d="M15.9198 137.071L119.852 143.96C149.053 138.597 177.763 135.294 197.345 142.606C200.382 143.518 221.002 154.917 211.858 158.326C203.171 161.564 192.446 149.81 176.933 152.218C157.054 155.305 148.487 162.56 149.009 169.478C149.53 176.395 176.056 174.282 175.189 184.368C174.611 191.092 150.462 194.331 108.4 175.705L18.4168 171.63L15.9198 137.071Z" fill="#310686"/>
<circle cx="194.536" cy="171.629" r="34.558" fill="#5C09FF"/>
<circle cx="194.535" cy="171.628" r="32.8926" fill="#4508BD"/>
<path d="M196.902 142.899V170.899H192.942V146.379H186.622V142.899H196.902Z" fill="white"/>
<path d="M175.382 174.959C175.382 174.959 174.155 174.4 174.133 173.71C174.114 173.124 174.416 172.664 174.966 172.461C175.648 172.209 176.349 172.624 176.631 173.294C176.892 173.912 176.215 174.959 176.215 174.959C176.215 174.959 176.478 175.325 176.632 175.376C177.881 175.792 178.714 175.792 179.546 177.041C180.184 177.998 180.081 178.812 179.962 179.956C179.893 180.623 179.546 181.621 179.546 181.621C179.546 181.621 180.757 180.878 181.628 180.788C182.805 180.668 183.715 180.774 184.542 181.621C185.05 182.142 185.231 182.574 185.375 183.287C185.57 184.256 185.306 184.859 184.959 185.785C184.547 186.883 184.271 187.636 183.293 188.283C182.99 188.484 182.46 188.699 182.46 188.699C182.46 188.699 182.654 189.245 182.877 189.532C183.237 189.995 183.71 189.949 184.126 190.365C184.288 190.527 183.915 190.884 183.71 190.781C182.877 190.365 182.875 190.363 182.46 189.948C182.046 189.534 181.749 189.273 181.628 188.699C181.561 188.381 181.557 188.184 181.628 187.867C181.707 187.512 181.821 187.321 182.044 187.034C182.185 186.852 182.388 186.836 182.46 186.618C182.512 186.463 182.46 186.201 182.46 186.201C182.46 186.201 181.936 186.098 181.628 186.201C181.191 186.347 181.042 186.646 180.795 187.034C180.519 187.468 180.459 187.775 180.379 188.283C180.303 188.765 180.289 189.053 180.379 189.532C180.513 190.247 180.715 190.666 181.211 191.198C181.612 191.626 181.927 191.787 182.46 192.03C183.07 192.309 183.464 192.339 184.126 192.447C185.41 192.656 186.173 192.656 187.457 192.447C188.118 192.339 188.511 192.307 189.122 192.03C189.863 191.695 190.585 191.568 190.788 190.781C190.869 190.466 190.788 189.948 190.788 189.948C190.788 189.948 189.315 190.703 188.29 190.781C187.966 190.806 187.457 190.781 187.457 190.781C187.457 190.781 187.874 189.786 187.874 189.116C187.874 188.446 187.457 187.451 187.457 187.451C187.457 187.451 186.986 186.166 186.625 185.369C186.324 184.707 185.95 184.413 185.792 183.703C185.651 183.068 185.651 182.673 185.792 182.038C185.95 181.328 186.128 180.904 186.625 180.372C187.025 179.944 187.332 179.763 187.874 179.54C188.926 179.106 190.788 179.54 190.788 179.54C190.788 179.54 190.508 179.044 190.372 178.707C190.062 177.938 189.853 177.448 189.956 176.625C190.101 175.462 190.726 174.884 191.621 174.127C192.567 173.327 193.61 173.701 194.536 172.878C194.707 172.725 194.952 172.462 194.952 172.462C194.952 172.462 195.197 172.725 195.368 172.878C196.181 173.605 197.042 173.413 197.866 174.127C198.753 174.894 199.386 175.462 199.532 176.625C199.635 177.448 199.425 177.938 199.115 178.707C198.98 179.044 198.862 179.214 198.699 179.54C198.537 179.865 198.283 180.372 198.283 180.372C198.283 180.372 198.966 179.694 199.532 179.54C200.332 179.322 200.888 179.555 201.614 179.956C202.525 180.46 202.977 181.041 203.279 182.038C203.515 182.816 203.388 183.314 203.279 184.12C203.189 184.784 203.191 185.2 202.863 185.785C202.525 186.387 201.951 186.433 201.614 187.034C201.286 187.619 201.146 188.031 201.197 188.7C201.237 189.212 201.411 189.476 201.614 189.949C201.757 190.283 202.03 190.781 202.03 190.781C202.03 190.781 201.52 190.825 201.197 190.781C200.258 190.653 199.625 190.332 199.115 189.532C198.839 189.099 198.862 188.771 198.699 188.283C198.537 187.795 198.283 187.034 198.283 187.034C198.283 187.034 197.707 187.193 197.45 187.451C197.086 187.814 197.034 188.185 197.034 188.7C197.034 189.427 197.497 189.739 197.866 190.365C198.164 190.87 198.285 191.2 198.699 191.614C199.114 192.029 199.417 192.198 199.948 192.447C200.989 192.935 201.715 192.927 202.863 192.863C203.691 192.817 204.163 192.723 204.945 192.447C205.63 192.205 206.022 192.042 206.61 191.614C207.168 191.208 207.426 190.902 207.859 190.365C208.227 189.909 208.513 189.674 208.692 189.116C208.89 188.497 209.053 187.992 208.692 187.451C208.564 187.259 208.494 187.107 208.275 187.034C208.121 186.983 207.859 187.034 207.859 187.034C207.859 187.034 207.93 187.549 207.859 187.867C207.78 188.222 207.621 188.383 207.443 188.7C207.156 189.211 206.897 189.437 206.61 189.949C206.432 190.266 206.539 190.666 206.194 190.781C206.039 190.833 205.777 190.781 205.777 190.781C205.777 190.781 205.918 189.751 205.777 189.116C205.62 188.406 205.314 188.077 204.945 187.451C204.647 186.945 204.355 186.735 204.112 186.201C203.834 185.592 203.695 185.206 203.695 184.536C203.695 183.866 203.836 183.481 204.112 182.871C204.447 182.13 204.675 181.641 205.361 181.205C206.061 180.76 206.615 180.749 207.443 180.789C208.112 180.821 209.108 181.205 209.108 181.205C209.108 181.205 208.772 180.205 208.692 179.54C208.614 178.894 208.486 178.491 208.692 177.874C208.983 177.002 209.587 176.711 210.357 176.209C211.091 175.73 211.647 175.748 212.439 175.376C212.768 175.221 213.272 174.96 213.272 174.96C213.272 174.96 212.907 174.487 212.855 174.127C212.783 173.618 212.908 173.241 213.272 172.878C213.635 172.514 214.025 172.326 214.521 172.462C214.965 172.583 215.107 172.906 215.354 173.294C215.63 173.728 215.905 174.047 215.77 174.543C215.649 174.987 215.333 175.141 214.937 175.376C214.64 175.553 214.105 175.679 214.105 175.679C214.105 175.679 214.498 176.745 214.521 177.458C214.548 178.287 214.244 178.722 214.105 179.54C213.884 180.832 213.688 182.871 213.688 182.871C213.688 182.871 213.898 183.404 214.105 183.703C214.366 184.081 214.792 184.1 214.937 184.536C215.04 184.845 215.04 185.06 214.937 185.369C214.792 185.805 214.43 185.876 214.105 186.201C213.779 186.527 213.272 187.034 213.272 187.034V190.365C213.272 190.365 213.95 191.049 214.105 191.614C214.233 192.085 214.297 192.415 214.105 192.863C213.923 193.286 213.272 193.696 213.272 193.696C213.272 193.696 212.723 194.432 212.439 194.945C212.015 195.711 211.606 197.027 211.606 197.027H178.297C178.297 197.027 177.738 195.974 177.465 195.361C176.903 194.101 175.383 194.529 175.383 192.863C175.383 191.691 176.793 191.509 177.048 190.365C177.298 189.243 176.631 187.45 176.631 187.45C176.631 187.45 174.008 186.326 174.133 184.952C174.237 183.807 175.799 182.871 175.799 182.871C175.799 182.871 174.55 178.707 174.967 176.209C175.042 175.755 175.382 174.959 175.382 174.959Z" fill="white"/>
<circle cx="186.206" cy="194.944" r="1.24909" fill="#4508BD"/>
<circle cx="204.529" cy="194.944" r="1.24909" fill="#4508BD"/>
<ellipse cx="194.95" cy="194.112" rx="2.49817" ry="2.08181" fill="#4508BD"/>
<circle cx="194.95" cy="183.702" r="2.49817" fill="#4508BD"/>
<path fill-rule="evenodd" clip-rule="evenodd" d="M15.9192 137.071L119.851 143.96C149.052 138.596 131.665 160.388 131.665 160.388C131.665 160.388 148.487 162.56 149.008 169.478C149.529 176.395 176.055 174.281 175.188 184.367C174.61 191.091 150.462 194.331 108.399 175.705L18.4162 171.629L15.9192 137.071Z" fill="#310686"/>
<path d="M100.653 181.94L14.2505 186.979L14.2505 131.907L105.735 131.907L100.653 181.94Z" fill="#4508BD"/>
<circle cx="91.2785" cy="142.486" r="3.74726" fill="white"/>
</svg>
