<svg width="215" height="208" viewBox="0 0 215 208" fill="none" xmlns="http://www.w3.org/2000/svg">
<g id="logo">
<path id="inner-circle" d="M87.6545 115.6C89.8679 120.76 93.9871 124.87 99.157 127.079C104.5 129.28 110.498 129.28 115.841 127.079C121.011 124.87 125.13 120.76 127.344 115.6C129.549 110.269 129.549 104.282 127.344 98.9502C125.131 93.7907 121.011 89.68 115.841 87.4717C110.498 85.2703 104.5 85.2703 99.157 87.4717C93.9871 89.6806 89.8679 93.7911 87.6545 98.9502C85.4485 104.282 85.4485 110.268 87.6545 115.599V115.6Z" fill="white"/>
<g id="emblem-path-2">
<path id="Vector" d="M195.435 68.8572C196.844 68.2691 198.112 67.388 199.153 66.2726C200.195 65.1573 200.986 63.8333 201.474 62.3888C201.962 60.9444 202.136 59.4127 201.985 57.8958C201.833 56.3789 201.359 54.9116 200.595 53.5918C195.766 45.2765 189.844 37.6434 182.986 30.8955C178.382 26.3642 170.829 26.9199 166.911 32.053V32.0584C165.328 34.1291 164.555 36.7043 164.736 39.3026C164.917 41.9009 166.041 44.3443 167.897 46.1759C168.04 46.3132 168.179 46.4508 168.315 46.5889C173.622 51.8747 178.214 57.8304 181.974 64.3044C183.28 66.5662 185.367 68.2759 187.844 69.1139C190.322 69.9518 193.02 69.8605 195.435 68.8572Z" fill="white"/>
<path id="Vector_2" d="M40.8771 38.7266C42.6746 40.5199 45.0673 41.595 47.6043 41.7496C50.1413 41.9041 52.6473 41.1273 54.65 39.5655C60.581 34.9402 67.0981 31.1168 74.0323 28.1943C84.6199 23.7209 95.8806 21.4552 107.5 21.4552C119.12 21.4552 130.381 23.7209 140.968 28.1911L141.054 28.2265C143.373 29.2141 145.973 29.3208 148.365 28.5265C150.756 27.7323 152.774 26.0919 154.037 23.9151L154.424 23.2446C157.542 17.8551 155.254 10.9369 149.515 8.50277C136.227 2.87329 121.936 -0.0188112 107.5 9.20703e-05C82.5409 9.20703e-05 59.5681 8.48882 41.3232 22.7308C36.4083 26.568 35.9848 33.8413 40.3976 38.2439L40.8771 38.7266Z" fill="white"/>
<path id="Vector_3" d="M200.595 83.8972C198.07 84.5729 195.878 86.1437 194.429 88.3158C192.981 90.4878 192.375 93.1121 192.726 95.6976C193.242 99.538 193.5 103.409 193.498 107.283C193.498 118.879 191.227 130.116 186.748 140.681C178.001 161.259 161.586 177.64 140.966 186.368C140.673 186.492 140.38 186.614 140.085 186.735C137.662 187.722 135.683 189.558 134.519 191.897C133.355 194.236 133.085 196.918 133.761 199.442C135.434 205.671 142.205 209.047 148.185 206.605C187.385 190.594 215 152.154 215 107.276C215.002 102.435 214.679 97.6004 214.032 92.8033C213.172 86.4032 206.851 82.2259 200.6 83.8994L200.595 83.8972Z" fill="white"/>
<path id="Vector_4" d="M81.3142 199.148C81.9718 196.703 81.712 194.103 80.5836 191.837C79.4553 189.57 77.536 187.793 75.1867 186.839C74.8011 186.682 74.4159 186.523 74.0311 186.361C53.4109 177.632 36.9953 161.251 28.249 140.674C23.7705 130.108 21.5001 118.871 21.5001 107.276C21.5001 95.6804 23.7705 84.4432 28.25 73.8777L28.2855 73.7918C29.2751 71.4784 29.3821 68.8835 28.5862 66.4968C27.7903 64.11 26.1465 62.0965 23.9651 60.8362L23.2932 60.45C17.8924 57.339 10.9597 59.6218 8.52055 65.3503C2.87918 78.61 -0.0189706 92.8706 9.34441e-05 107.276C9.34441e-05 152.288 27.7813 190.824 67.1661 206.744C68.5338 207.298 70.0038 207.555 71.4786 207.499C72.9535 207.443 74.3996 207.075 75.7211 206.419C77.0425 205.762 78.2091 204.834 79.1435 203.693C80.0779 202.553 80.7589 201.228 81.1411 199.805L81.3142 199.148Z" fill="white"/>
</g>
<g id="emblem-path-1">
<path id="Vector_5" d="M94.6173 56.4722C95.2546 58.8369 96.6826 60.9133 98.6646 62.3571C100.647 63.8009 103.063 64.5254 105.515 64.4106C106.173 64.3805 106.834 64.3655 107.5 64.3655C124.121 64.3655 138.538 73.7747 145.696 87.5467C146.821 89.7252 148.658 91.4545 150.903 92.4479C153.147 93.4413 155.665 93.6389 158.038 93.0081C164.687 91.2306 167.953 83.7717 164.782 77.6741C154.043 57.0236 132.424 42.9168 107.496 42.9168C106.489 42.9168 105.486 42.9397 104.486 42.9855C97.6327 43.2998 92.8328 49.8661 94.6076 56.4786L94.6173 56.4722Z" fill="white"/>
<path id="Vector_6" d="M149.533 116.362C145.478 135.135 129.115 149.339 109.291 150.154C96.2279 150.69 84.3588 145.333 76.1264 136.551C68.438 128.351 63.9198 117.164 64.5594 104.997C64.7489 101.351 65.4057 97.7433 66.5138 94.2633C68.0424 89.4659 66.0633 84.2523 61.6945 81.7345L61.5731 81.6648C55.6724 78.2652 48.1356 81.1713 46.0554 87.6465C43.0035 97.1651 42.1102 107.647 43.9538 118.519C46.201 131.69 52.5356 143.824 62.0638 153.209C71.592 162.594 83.8327 168.756 97.0588 170.827C132.462 176.367 163.571 153.137 170.544 120.944C171.984 114.293 166.92 108.015 160.104 108.015H159.96C154.954 108.007 150.59 111.475 149.533 116.362Z" fill="white"/>
</g>
</g>
</svg>
