<?xml version="1.0" encoding="UTF-8" standalone="no"?>
<svg
   xmlns:dc="http://purl.org/dc/elements/1.1/"
   xmlns:cc="http://creativecommons.org/ns#"
   xmlns:rdf="http://www.w3.org/1999/02/22-rdf-syntax-ns#"
   xmlns:svg="http://www.w3.org/2000/svg"
   xmlns="http://www.w3.org/2000/svg"
   xmlns:sodipodi="http://sodipodi.sourceforge.net/DTD/sodipodi-0.dtd"
   xmlns:inkscape="http://www.inkscape.org/namespaces/inkscape"
   id="Layer_2"
   data-name="Layer 2"
   viewBox="0 0 215 207.34998"
   version="1.1"
   sodipodi:docname="logo-white-updated.svg"
   inkscape:version="1.0.2 (e86c870879, 2021-01-15)"
   width="215"
   height="207.34998">
  <metadata
     id="metadata23">
    <rdf:RDF>
      <cc:Work
         rdf:about="">
        <dc:format>image/svg+xml</dc:format>
        <dc:type
           rdf:resource="http://purl.org/dc/dcmitype/StillImage" />
        <dc:title>Filda Logo2</dc:title>
      </cc:Work>
    </rdf:RDF>
  </metadata>
  <defs
     id="defs21" />
  <sodipodi:namedview
     pagecolor="#ff8aff"
     bordercolor="#666666"
     borderopacity="1"
     objecttolerance="10"
     gridtolerance="10"
     guidetolerance="10"
     inkscape:pageopacity="0"
     inkscape:pageshadow="2"
     inkscape:window-width="1326"
     inkscape:window-height="742"
     id="namedview19"
     showgrid="false"
     inkscape:zoom="0.5"
     inkscape:cx="-171.94705"
     inkscape:cy="-73.960712"
     inkscape:window-x="40"
     inkscape:window-y="0"
     inkscape:window-maximized="1"
     inkscape:current-layer="Layer_2"
     inkscape:document-rotation="0" />
  <title
     id="title2">Filda Logo2</title>
  <path
     d="m 87.776077,115.52661 a 21.736293,21.736293 0 0 0 11.426679,11.42666 21.713866,21.713866 0 0 0 16.573994,0 21.736293,21.736293 0 0 0 11.42667,-11.42666 21.717071,21.717071 0 0 0 0,-16.575097 21.729885,21.729885 0 0 0 -11.42667,-11.426659 21.713866,21.713866 0 0 0 -16.573994,0 21.736293,21.736293 0 0 0 -11.426679,11.426659 21.713866,21.713866 0 0 0 0,16.574027 z"
     id="path4"
     style="fill:#ffffff;fill-opacity:1;stroke-width:0.106791" />
  <path
     d="m 194.84607,68.994426 v 0 a 10.679126,10.679126 0 0 0 5.12599,-15.196384 107.2526,107.2526 0 0 0 -17.49242,-22.593833 c -4.57385,-4.510865 -12.07705,-3.957686 -15.96952,1.152284 v 0.005 a 10.666311,10.666311 0 0 0 0.9792,14.053726 q 0.21358,0.20504 0.41544,0.411142 a 85.450095,85.450095 0 0 1 13.56896,17.635507 10.690873,10.690873 0 0 0 13.37235,4.532223 z"
     id="path6"
     style="fill:#ffffff;fill-opacity:1;stroke:none;stroke-width:0.106791;stroke-opacity:1" />
  <path
     d="m 41.306936,38.999975 a 10.343801,10.343801 0 0 0 13.682093,0.835108 84.936428,84.936428 0 0 1 19.254463,-11.319879 c 10.517871,-4.453188 21.704258,-6.70862 33.247328,-6.70862 11.54306,0 22.72945,2.255432 33.24733,6.705421 l 0.0854,0.03527 a 10.251961,10.251961 0 0 0 12.89721,-4.291938 l 0.38445,-0.66745 c 3.09695,-5.365196 0.82443,-12.252162 -4.87724,-14.6752513 A 106.44632,106.44632 0 0 0 107.49082,0.44835189 c -24.794801,0 -47.616094,8.45039201 -65.740705,22.62800511 -4.882499,3.819921 -5.303257,11.060372 -0.919469,15.443077 z"
     id="path8"
     style="fill:#ffffff;fill-opacity:1;stroke-width:0.106791" />
  <path
     d="m 199.97206,83.966568 a 10.679126,10.679126 0 0 0 -7.81713,11.747033 86.42937,86.42937 0 0 1 0.76671,11.533479 c 0,11.54306 -2.25533,22.72945 -6.7054,33.24733 a 85.792894,85.792894 0 0 1 -45.48018,45.48026 c -0.29047,0.12388 -0.58204,0.24455 -0.8747,0.36523 a 10.684466,10.684466 0 0 0 -6.2825,12.64941 v 0 c 1.66167,6.20137 8.38843,9.5621 14.3292,7.13046 38.94148,-15.93861 66.37403,-54.20511 66.37403,-98.88016 a 107.76413,107.76413 0 0 0 -0.96112,-14.407239 c -0.85433,-6.371158 -7.13366,-10.529612 -13.34355,-8.863668 z"
     id="path10"
     style="fill:#ffffff;fill-opacity:1;stroke-width:0.106791" />
  <path
     d="m 81.477536,198.6967 a 10.335258,10.335258 0 0 0 -6.087105,-12.25322 q -0.574537,-0.23388 -1.148012,-0.4763 A 85.792894,85.792894 0 0 1 28.762165,140.48693 c -4.448926,-10.51789 -6.704358,-21.70426 -6.704358,-33.24732 0,-11.543096 2.255432,-22.72948 6.705421,-33.247351 l 0.03527,-0.08543 A 10.251961,10.251961 0 0 0 24.506547,61.009654 L 23.839106,60.625206 C 18.47391,57.528258 11.586944,59.800777 9.1638535,65.503423 A 106.43671,106.43671 0 0 0 0.6995748,107.23961 c 0,44.80853 27.5980632,83.17116 66.7231812,99.01898 a 10.345937,10.345937 0 0 0 13.88286,-6.90725 z"
     id="path12"
     style="fill:#ffffff;fill-opacity:1;stroke-width:0.106791" />
  <path
     d="m 94.692947,56.665384 a 10.690873,10.690873 0 0 0 10.825433,7.902547 q 0.98034,-0.0449 1.97244,-0.0449 c 16.511,0 30.83275,9.366661 37.94406,23.076529 a 10.695145,10.695145 0 0 0 12.26063,5.43674 v 0 c 6.60507,-1.769538 9.84934,-9.194733 6.69905,-15.264741 C 153.72715,57.214291 132.25037,43.171244 107.48655,43.171244 q -1.50042,0 -2.99016,0.06835 c -6.807941,0.312894 -11.576168,6.849585 -9.813049,13.432201 z"
     id="path14"
     style="fill:#ffffff;fill-opacity:1;stroke-width:0.106791" />
  <path
     d="m 149.24618,116.28483 c -4.02816,18.68845 -20.28284,32.82762 -39.97622,33.63924 -12.977279,0.53395 -24.768104,-4.7992 -32.946173,-13.54113 -7.637715,-8.16312 -12.126149,-19.29933 -11.490745,-31.41159 A 42.561656,42.561656 0 0 1 66.774508,94.285806 C 68.29308,89.5101 66.327057,84.320042 61.987058,81.813655 l -0.120669,-0.06944 c -5.86178,-3.384212 -13.348914,-0.49124 -15.415321,5.954683 -3.0318,9.475587 -3.919241,19.910182 -2.087775,30.733482 a 63.497015,63.497015 0 0 0 52.75489,52.07141 c 35.169537,5.5147 66.073857,-17.60988 73.000387,-49.65793 1.431,-6.62106 -3.59991,-12.87048 -10.37048,-12.87048 h -0.14315 c -4.97329,-0.008 -9.30892,3.44401 -10.35876,8.30943 z"
     id="path16"
     style="fill:#ffffff;fill-opacity:1;stroke-width:0.106791" />
</svg>
