<?xml version="1.0" encoding="UTF-8" standalone="no"?>
<svg
   xmlns:dc="http://purl.org/dc/elements/1.1/"
   xmlns:cc="http://creativecommons.org/ns#"
   xmlns:rdf="http://www.w3.org/1999/02/22-rdf-syntax-ns#"
   xmlns:svg="http://www.w3.org/2000/svg"
   xmlns="http://www.w3.org/2000/svg"
   xmlns:sodipodi="http://sodipodi.sourceforge.net/DTD/sodipodi-0.dtd"
   xmlns:inkscape="http://www.inkscape.org/namespaces/inkscape"
   width="379"
   height="379"
   viewBox="0 0 379 379"
   fill="none"
   version="1.1"
   id="svg23"
   sodipodi:docname="web-pres-violet.svg"
   inkscape:version="1.0.2 (e86c870879, 2021-01-15)"
   inkscape:export-filename="/home/turnix/WORK/Orexin/SVGs/web-pres.png"
   inkscape:export-xdpi="271.677"
   inkscape:export-ydpi="271.677">
  <metadata
     id="metadata29">
    <rdf:RDF>
      <cc:Work
         rdf:about="">
        <dc:format>image/svg+xml</dc:format>
        <dc:type
           rdf:resource="http://purl.org/dc/dcmitype/StillImage" />
        <dc:title />
      </cc:Work>
    </rdf:RDF>
  </metadata>
  <defs
     id="defs27" />
  <sodipodi:namedview
     pagecolor="#bfbfbf"
     bordercolor="#666666"
     borderopacity="1"
     objecttolerance="10"
     gridtolerance="10"
     guidetolerance="10"
     inkscape:pageopacity="0"
     inkscape:pageshadow="2"
     inkscape:window-width="1874"
     inkscape:window-height="1045"
     id="namedview25"
     showgrid="false"
     inkscape:zoom="0.7071068"
     inkscape:cx="361.66784"
     inkscape:cy="248.82344"
     inkscape:window-x="46"
     inkscape:window-y="0"
     inkscape:window-maximized="1"
     inkscape:current-layer="web-pres"
     inkscape:document-rotation="0" />
  <g
     id="web-pres"
     inkscape:export-xdpi="271.677"
     inkscape:export-ydpi="271.677"
     style="opacity:1">
    <g
       id="web-pres-tile"
       inkscape:export-filename="/home/turnix/WORK/Orexin/SVGs/web-pres-violet.png"
       inkscape:export-xdpi="271.677"
       inkscape:export-ydpi="271.677">
      <path
         id="Line 24"
         style="stroke:#4508bd;stroke-width:10;stroke-opacity:1"
         d="M 2,60 H 379" />
      <path
         id="blog-circle-1"
         style="fill:#4508bd;fill-opacity:1"
         d="M 294,33.5 A 11.5,10.5 0 0 1 282.5,44 11.5,10.5 0 0 1 271,33.5 11.5,10.5 0 0 1 282.5,23 11.5,10.5 0 0 1 294,33.5 Z" />
      <path
         id="blog-circle-2"
         style="fill:#4508bd;fill-opacity:1"
         d="M 322,33.5 A 11.5,10.5 0 0 1 310.5,44 11.5,10.5 0 0 1 299,33.5 11.5,10.5 0 0 1 310.5,23 11.5,10.5 0 0 1 322,33.5 Z" />
      <path
         id="blog-circle-3"
         style="fill:#4508bd;fill-opacity:1"
         d="M 350,33.5 A 11.5,10.5 0 0 1 338.5,44 11.5,10.5 0 0 1 327,33.5 11.5,10.5 0 0 1 338.5,23 11.5,10.5 0 0 1 350,33.5 Z" />
      <path
         id="blog-frame"
         style="stroke:#4508bd;stroke-width:10;stroke-opacity:1"
         d="m 45,5 h 289 c 22.16,0 40,17.84 40,40 v 289 c 0,22.16 -17.84,40 -40,40 H 45 C 22.84,374 5,356.16 5,334 V 45 C 5,22.84 22.84,5 45,5 Z" />
    </g>
    <g
       id="ecommerce-person"
       inkscape:export-filename="/home/turnix/WORK/Orexin/SVGs/web-pres-violet.png"
       inkscape:export-xdpi="271.677"
       inkscape:export-ydpi="271.677">
      <path
         id="blog-head"
         style="fill:#4508bd;fill-opacity:1"
         d="M 135.2168,156.791 A 41.791,41.791 0 0 1 93.425797,198.582 41.791,41.791 0 0 1 51.634796,156.791 41.791,41.791 0 0 1 93.425797,115 41.791,41.791 0 0 1 135.2168,156.791 Z"
         inkscape:export-filename="/home/turnix/WORK/Orexin/SVGs/web-pres-violet.png"
         inkscape:export-xdpi="271.677"
         inkscape:export-ydpi="271.677" />
      <g
         id="g951"
         inkscape:export-filename="/home/turnix/WORK/Orexin/SVGs/web-pres-violet.png"
         inkscape:export-xdpi="271.677"
         inkscape:export-ydpi="271.677">
        <path
           id="blog-body"
           style="fill:#4508bd;fill-opacity:1"
           d="M 110.84766 208.92383 C 108.32968 214.8945 102.96835 226.9537 102.85352 227.22461 C 102.6995 227.58771 93.914427 249.3448 93.603516 249.35352 C 93.297908 249.36196 84.486331 228.09878 84.332031 227.74414 C 84.210467 227.46489 78.460575 214.84883 75.917969 208.94922 C 45.492614 218.27236 23 251.32891 23 290.67773 C 23 337.26673 54.530781 327.05078 93.425781 327.05078 C 132.32118 327.05078 163.85156 337.26673 163.85156 290.67773 C 163.85156 251.29271 141.3157 218.21183 110.84766 208.92383 z " />
        <path
           id="Polygon 4"
           d="M93.5001 212L106 256H81.0001L93.5001 212Z"
           fill="white"
           style="fill:#4508bd;fill-opacity:1" />
        <path
           id="Ellipse 6"
           d="m 100.05433,210.5021 c 0,3.59 -2.899396,6.5 -6.476096,6.5 -3.5767,0 -6.4762,-2.91 -6.4762,-6.5 0.0214,-3.5 -0.4765,-3.5 6.4762,-3.5 7.494596,0 6.476096,-0.09 6.476096,3.5 z"
           fill="#ffffff"
           style="fill:#4508bd;fill-opacity:1" />
      </g>
    </g>
    <path
       id="Rectangle 27"
       style="fill:#4508bd;fill-opacity:1"
       d="M 182 115 C 173.69 115 167 121.69 167 130 L 167 223 C 167 231.31 173.69 238 182 238 L 342 238 C 350.31 238 357 231.31 357 223 L 357 130 C 357 121.69 350.31 115 342 115 L 182 115 z M 297 137 L 321 137 L 321 217 L 297 217 L 297 137 z M 250 161 L 274 161 L 274 217 L 250 217 L 250 161 z M 203 183 L 227 183 L 227 217 L 203 217 L 203 183 z "
       inkscape:export-filename="/home/turnix/WORK/Orexin/SVGs/web-pres-violet.png"
       inkscape:export-xdpi="271.677"
       inkscape:export-ydpi="271.677" />
    <path
       id="Line 53"
       style="stroke:#4508bd;stroke-width:10;stroke-opacity:1"
       d="m 263,100 v 15"
       inkscape:export-filename="/home/turnix/WORK/Orexin/SVGs/web-pres-violet.png"
       inkscape:export-xdpi="271.677"
       inkscape:export-ydpi="271.677" />
    <path
       id="Rectangle 31"
       transform="rotate(-35 225 321.542)"
       style="fill:#4508bd;fill-opacity:1"
       d="m 230.14426,321.54199 h 34.24258 c 2.84992,0 5.14426,2.29434 5.14426,5.14425 0,2.84992 -2.29434,5.14425 -5.14426,5.14425 h -34.24258 c -2.84992,0 -5.14426,-2.29433 -5.14426,-5.14425 0,-2.84991 2.29434,-5.14425 5.14426,-5.14425 z"
       inkscape:export-filename="/home/turnix/WORK/Orexin/SVGs/web-pres-violet.png"
       inkscape:export-xdpi="271.677"
       inkscape:export-ydpi="271.677" />
    <path
       id="Rectangle 32"
       transform="rotate(35 263.901 296)"
       style="fill:#4508bd;fill-opacity:1"
       d="m 269.04526,296 h 34.24258 c 2.84992,0 5.14426,2.29434 5.14426,5.14425 0,2.84991 -2.29434,5.14425 -5.14426,5.14425 h -34.24258 c -2.84992,0 -5.14426,-2.29434 -5.14426,-5.14425 0,-2.84991 2.29434,-5.14425 5.14426,-5.14425 z"
       inkscape:export-filename="/home/turnix/WORK/Orexin/SVGs/web-pres-violet.png"
       inkscape:export-xdpi="271.677"
       inkscape:export-ydpi="271.677" />
    <path
       id="Rectangle 33"
       transform="rotate(-90 258 328)"
       style="fill:#4508bd;fill-opacity:1"
       d="m 263,328 h 85 c 2.77,0 5,2.23 5,5 0,2.77 -2.23,5 -5,5 h -85 c -2.77,0 -5,-2.23 -5,-5 0,-2.77 2.23,-5 5,-5 z"
       inkscape:export-filename="/home/turnix/WORK/Orexin/SVGs/web-pres-violet.png"
       inkscape:export-xdpi="271.677"
       inkscape:export-ydpi="271.677" />
  </g>
</svg>
