<?xml version="1.0" encoding="UTF-8" standalone="no"?>
<svg
   xmlns:dc="http://purl.org/dc/elements/1.1/"
   xmlns:cc="http://creativecommons.org/ns#"
   xmlns:rdf="http://www.w3.org/1999/02/22-rdf-syntax-ns#"
   xmlns:svg="http://www.w3.org/2000/svg"
   xmlns="http://www.w3.org/2000/svg"
   xmlns:sodipodi="http://sodipodi.sourceforge.net/DTD/sodipodi-0.dtd"
   xmlns:inkscape="http://www.inkscape.org/namespaces/inkscape"
   id="Layer_1"
   data-name="Layer 1"
   viewBox="0 0 1805.06 1766.9"
   version="1.1"
   sodipodi:docname="Emblem_middark.svg"
   inkscape:version="1.0.1 (3bc2e813f5, 2020-09-07)">
  <metadata
     id="metadata25">
    <rdf:RDF>
      <cc:Work
         rdf:about="">
        <dc:format>image/svg+xml</dc:format>
        <dc:type
           rdf:resource="http://purl.org/dc/dcmitype/StillImage" />
        <dc:title>Filda Logo2</dc:title>
      </cc:Work>
    </rdf:RDF>
  </metadata>
  <sodipodi:namedview
     pagecolor="#ffffff"
     bordercolor="#666666"
     borderopacity="1"
     objecttolerance="10"
     gridtolerance="10"
     guidetolerance="10"
     inkscape:pageopacity="0"
     inkscape:pageshadow="2"
     inkscape:window-width="1600"
     inkscape:window-height="847"
     id="namedview23"
     showgrid="false"
     inkscape:zoom="0.27213346"
     inkscape:cx="509.21693"
     inkscape:cy="1076.3237"
     inkscape:window-x="1592"
     inkscape:window-y="292"
     inkscape:window-maximized="1"
     inkscape:current-layer="Layer_1"
     inkscape:document-rotation="0" />
  <defs
     id="defs4">
    <style
       id="style2">.cls-1{fill:#231f20;stroke:#231f20;stroke-miterlimit:10;stroke-width:5px;}</style>
  </defs>
  <title
     id="title6">Filda Logo2</title>
  <circle
     class="cls-1"
     cx="902.7"
     cy="902.61"
     r="180"
     id="circle8"
     style="stroke:none;fill:#4508bd;fill-opacity:1"
     inkscape:export-filename="C:\Users\jiriv\OneDrive\Plocha\projects\OREXIN\Graphics\Logo\Emblem\OrexinPurple\png\Emblem_middark.png"
     inkscape:export-xdpi="299"
     inkscape:export-ydpi="299" />
  <path
     class="cls-1"
     d="M1160.53,1787.84l.51,2.57a88.71,88.71,0,0,0,114.38,67c128.7-41.84,358-148.19,499.33-399.13,136.66-242.73,134.35-466.37,116.45-591.9-8-56-65-90.74-118.47-72.34h0A90.14,90.14,0,0,0,1713,892.56C1727.39,990,1732.14,1173,1620.76,1365c-118.26,203.82-300,288.42-400.74,321.19A88.68,88.68,0,0,0,1160.53,1787.84Z"
     transform="translate(-97.3 -97.39)"
     id="path10"
     style="stroke:none;stroke-opacity:1;fill:#4508bd;fill-opacity:1"
     inkscape:export-filename="C:\Users\jiriv\OneDrive\Plocha\projects\OREXIN\Graphics\Logo\Emblem\OrexinPurple\png\Emblem_middark.png"
     inkscape:export-xdpi="299"
     inkscape:export-ydpi="299" />
  <path
     class="cls-1"
     d="M1414.33,311.26l.17-.27c29.29-46.11,11.16-107.52-38.53-130.22a905.05,905.05,0,0,0-413.95-80A920.41,920.41,0,0,0,558.48,214.65c-48.42,26.93-61.59,90.58-27.71,134.41h0A90.46,90.46,0,0,0,646.2,372.82C714,335.24,830.67,285,975.65,280c142.21-4.87,256.9,33.73,325.06,64.82A90.19,90.19,0,0,0,1414.33,311.26Z"
     transform="translate(-97.3 -97.39)"
     id="path12"
     style="stroke:none;stroke-opacity:1;fill:#4508bd;fill-opacity:1"
     inkscape:export-filename="C:\Users\jiriv\OneDrive\Plocha\projects\OREXIN\Graphics\Logo\Emblem\OrexinPurple\png\Emblem_middark.png"
     inkscape:export-xdpi="299"
     inkscape:export-ydpi="299" />
  <path
     class="cls-1"
     d="M301.12,597.29h0A89.32,89.32,0,0,1,338.6,711.18c-46.27,104.44-106.71,314.2-4,564.39,103.84,252.85,310.59,360.81,424.15,402.63a89.28,89.28,0,0,1,55.08,108.26l-.77,2.71a89.23,89.23,0,0,1-115.91,59.56c-135-48.42-386.26-176.91-522.29-488.73-135.3-310.15-57.66-584.82,0-720A89.29,89.29,0,0,1,301.12,597.29Z"
     transform="translate(-97.3 -97.39)"
     id="path14"
     style="stroke:none;stroke-opacity:1;fill:#4508bd;fill-opacity:1"
     inkscape:export-filename="C:\Users\jiriv\OneDrive\Plocha\projects\OREXIN\Graphics\Logo\Emblem\OrexinPurple\png\Emblem_middark.png"
     inkscape:export-xdpi="299"
     inkscape:export-ydpi="299" />
  <path
     class="cls-1"
     d="M647.79,723.6h0A89.09,89.09,0,0,1,680,837.1c-64,118.43-71.9,348.46,147.42,478.89,209.85,109.64,405-.6,486.45-140.36a89.2,89.2,0,0,1,109.12-38.3l1.83.7c51.52,19.84,72.74,81.17,44.72,128.72-118.91,201.76-405.91,370-720.23,211.63-243.92-119.23-370.92-436-229.57-719.72C543.37,711.15,603.16,694.85,647.79,723.6Z"
     transform="translate(-97.3 -97.39)"
     id="path16"
     style="stroke:none;stroke-opacity:1;fill:#4508bd;fill-opacity:1"
     inkscape:export-filename="C:\Users\jiriv\OneDrive\Plocha\projects\OREXIN\Graphics\Logo\Emblem\OrexinPurple\png\Emblem_middark.png"
     inkscape:export-xdpi="299"
     inkscape:export-ydpi="299" />
  <path
     class="cls-1"
     d="M1504.66,372.17h0a90,90,0,0,1,132.86-7.07c26.29,25.94,54.92,56.86,77.14,87.78A884,884,0,0,1,1785,559.18a89.93,89.93,0,0,1-41,126l-.77.35a90,90,0,0,1-115.82-37.91c-14-25-31.49-53.23-51.44-79.69a752.3,752.3,0,0,0-65.66-75.67A89.88,89.88,0,0,1,1504.66,372.17Z"
     transform="translate(-97.3 -97.39)"
     id="path18"
     style="stroke:none;stroke-opacity:1;fill:#4508bd;fill-opacity:1"
     inkscape:export-filename="C:\Users\jiriv\OneDrive\Plocha\projects\OREXIN\Graphics\Logo\Emblem\OrexinPurple\png\Emblem_middark.png"
     inkscape:export-xdpi="299"
     inkscape:export-ydpi="299" />
  <path
     class="cls-1"
     d="M1114.64,575.4h0c14.37-54.95,75.64-83,126.48-57.69,51.53,25.66,114.78,67.14,170.18,132.38a547.48,547.48,0,0,1,101.24,178.53C1531,883,1494,940.48,1436.87,946.44l-.51,0a89.61,89.61,0,0,1-94.16-60.21,371.32,371.32,0,0,0-66.69-118c-36.91-44.26-79.6-72.52-114.26-90A89.76,89.76,0,0,1,1114.64,575.4Z"
     transform="translate(-97.3 -97.39)"
     id="path20"
     style="stroke:none;stroke-opacity:1;fill:#4508bd;fill-opacity:1"
     inkscape:export-filename="C:\Users\jiriv\OneDrive\Plocha\projects\OREXIN\Graphics\Logo\Emblem\OrexinPurple\png\Emblem_middark.png"
     inkscape:export-xdpi="299"
     inkscape:export-ydpi="299" />
</svg>
