<svg width="883" height="874" viewBox="0 0 883 874" fill="none" xmlns="http://www.w3.org/2000/svg"><path d="M813 569.524c0 177.327-129.441 232.388-220.537 245.137-119.926 16.784-332.638-66.428-415.405-100.005C149.292 703.392 0 644.353 0 516.339c0-187.016 191.974-32.119 216.594-170.102C283.921 26.3182 813 382.508 813 569.524z" fill="#4508BD"/><path d="M764 572.081c0 155.42-113.838 203.679-193.953 214.853-105.471 14.711-292.542-58.221-365.332-87.651C180.296 689.411 49 637.666 49 525.466c0-163.911 168.833-28.151 190.486-149.087C298.697 95.9825 764 408.169 764 572.081z" fill="#5C09FF"/><path d="M525.189 572.344c.824-.311 1.811-.263 2.815.137l42.822 17.023c2.541 1.01 4.565 3.973 4.565 6.682v23.212c0 1.643-.758 2.902-2.027 3.368l-16.323 5.985-39.275-19.418c-1.868-.924-3.424-2.899-3.953-5.018l-6.317-25.305 17.693-6.666z" fill="#A195E3"/><rect width="56.9957" height="34.1974" rx="5" transform="matrix(.9382 .34612 0 1 506 576.775)" fill="#fff"/><g filter="url(#filter0_d)"><path d="M118 374.304c0-5.582 4.288-11.666 9.525-13.513l123.165-43.43c1.833-.646 3.617-.703 5.133-.163l29.058 10.35c3.105 1.105 4.651 4.542 3.931 8.736l-30.654 178.458c-.706 4.106-3.454 8.173-7.031 10.402l-88.549 55.185c-2.595 1.617-5.331 2.077-7.524 1.265l-33.02-12.229c-2.527-.936-4.034-3.45-4.034-6.729V374.304z" fill="#A094E3"/></g><rect width="148.157" height="208.614" rx="10" transform="matrix(.9382 -.34612 0 1 153 376.917)" fill="#fff"/><path fill="#2B09FF" d="M160 388.354l125.99999-46.48386v87.2036L160 475.5576zM199 467.676l86.999953-32.095983v56.8307L199 524.5067z"/><rect x=".469096" y=".326941" width="114.352" height="5.80703" rx="2.90352" transform="matrix(.9382 -.34612 0 1 168.831 391.892)" stroke="#fff"/><rect x=".469096" y=".326941" width="40.0262" height="61.5511" rx="7.5" transform="matrix(.9382 -.34612 0 1 168.831 405.138)" stroke="#fff"/><path fill="#fff" d="M170.484863 454.534427l35.124651-12.95817v3.58749l-35.124651 12.95817z"/><path fill="#fff" d="M170.484863 454.534427l35.124651-12.95817v3.58749l-35.124651 12.95817z"/><path transform="matrix(.9382 -.34612 0 1 168.906 453.944)" stroke="#fff" stroke-width="3.58749" d="M1.68288 1.1729h37.4387v3.58749H1.68288z"/><path fill="#fff" d="M170.484863 440.736427l35.124651-12.95817v3.58749l-35.124651 12.95817z"/><path fill="#fff" d="M170.484863 440.736427l35.124651-12.95817v3.58749l-35.124651 12.95817z"/><path transform="matrix(.9382 -.34612 0 1 168.906 440.146)" stroke="#fff" stroke-width="3.58749" d="M1.68288 1.1729h37.4387v3.58749H1.68288z"/><path fill="#fff" d="M170.484863 426.937427l35.124651-12.95817v3.58749l-35.124651 12.95817z"/><path fill="#fff" d="M170.484863 426.937427l35.124651-12.95817v3.58749l-35.124651 12.95817z"/><path transform="matrix(.9382 -.34612 0 1 168.906 426.347)" stroke="#fff" stroke-width="3.58749" d="M1.68288 1.1729h37.4387v3.58749H1.68288z"/><path fill="#fff" d="M170.484863 413.140427l35.124651-12.95817v3.58749l-35.124651 12.95817z"/><path fill="#fff" d="M170.484863 413.140427l35.124651-12.95817v3.58749l-35.124651 12.95817z"/><path transform="matrix(.9382 -.34612 0 1 168.906 412.55)" stroke="#fff" stroke-width="3.58749" d="M1.68288 1.1729h37.4387v3.58749H1.68288z"/><rect x=".469096" y=".326941" width="29.9754" height="46.227" rx="5.5" transform="matrix(.9382 -.34612 0 1 203.029 471.482)" stroke="#fff"/><path fill="#fff" d="M204.270065 508.73678l26.519658-9.78362v2.70861l-26.519658 9.78362z"/><path fill="#fff" d="M204.270065 508.73678l26.519658-9.78362v2.70861l-26.519658 9.78362z"/><path transform="matrix(.9382 -.34612 0 1 203.078 508.291)" stroke="#fff" stroke-width="2.70861" d="M1.2706.885557h28.2668v2.70861H1.2706z"/><path fill="#fff" d="M204.270065 498.31978l26.519658-9.78362v2.70861l-26.519658 9.78362z"/><path fill="#fff" d="M204.270065 498.31978l26.519658-9.78362v2.70861l-26.519658 9.78362z"/><path transform="matrix(.9382 -.34612 0 1 203.078 497.874)" stroke="#fff" stroke-width="2.70861" d="M1.2706.885557h28.2668v2.70861H1.2706z"/><path fill="#fff" d="M204.270065 487.90178l26.519658-9.78362v2.70861l-26.519658 9.78362z"/><path fill="#fff" d="M204.270065 487.90178l26.519658-9.78362v2.70861l-26.519658 9.78362z"/><path transform="matrix(.9382 -.34612 0 1 203.078 487.456)" stroke="#fff" stroke-width="2.70861" d="M1.2706.885557h28.2668v2.70861H1.2706z"/><path fill="#fff" d="M204.270065 477.48378l26.519658-9.78362v2.70861l-26.519658 9.78362z"/><path fill="#fff" d="M204.270065 477.48378l26.519658-9.78362v2.70861l-26.519658 9.78362z"/><path transform="matrix(.9382 -.34612 0 1 203.078 477.038)" stroke="#fff" stroke-width="2.70861" d="M1.2706.885557h28.2668v2.70861H1.2706z"/><path d="M181.188 391.781c-.272.1-.484.097-.636-.008-.152-.108-.228-.314-.228-.618v-1.185l.366-.135v1.17c0 .412.167.556.501.433.332-.123.498-.39.498-.802v-1.17l.36-.133v1.185c0 .304-.076.566-.228.786-.15.218-.361.376-.633.477zm.146-2.766l.414-.153-.49.592-.304.112.38-.551zm2.601.12l-.644 1.84-.363.134-.645-1.364.366-.135.467 1.016.482-1.366.337-.125zm.854 1.308c-.152.056-.288.072-.41.047-.122-.025-.218-.087-.288-.185-.067-.101-.101-.231-.101-.389s.034-.311.101-.46c.07-.15.166-.282.288-.397.122-.115.258-.201.41-.257.154-.057.292-.072.414-.047.122.025.217.087.284.186.07.098.105.226.105.384s-.035.313-.105.465c-.067.149-.162.281-.284.396-.122.115-.26.2-.414.257zm0-.321c.13-.048.237-.133.321-.256.085-.123.127-.26.127-.41 0-.15-.042-.255-.127-.316-.084-.061-.191-.068-.321-.02-.129.048-.236.133-.32.257-.083.122-.124.258-.124.408 0 .15.041.256.124.318.084.06.191.067.32.019zm2.611-2.889v2.226l-.338.125v-.207c-.058.097-.13.181-.216.251-.085.069-.179.122-.282.161-.144.053-.275.067-.391.042-.115-.026-.205-.089-.27-.188-.066-.102-.099-.234-.099-.396s.033-.317.099-.465c.065-.149.155-.278.27-.388.116-.111.247-.193.391-.246.1-.037.191-.053.273-.047.083.005.153.033.211.084v-.822l.352-.13zm-.794 2.219c.085-.031.161-.079.228-.144.068-.067.121-.146.161-.236.039-.091.059-.186.059-.286 0-.1-.02-.181-.059-.242-.04-.062-.093-.1-.161-.115-.067-.017-.143-.01-.228.021-.084.031-.16.08-.228.147-.067.065-.121.143-.16.233-.039.091-.059.186-.059.286 0 .1.02.181.059.242.039.062.093.101.16.118.068.015.144.007.228-.024zM196.922 385.879c-.201.074-.382.095-.543.063-.162-.035-.288-.117-.38-.247-.092-.132-.138-.3-.138-.504 0-.204.046-.405.138-.603.092-.2.218-.376.38-.527.161-.154.342-.268.543-.342.201-.074.382-.094.543-.059.161.032.288.113.38.244.092.13.138.298.138.504 0 .206-.046.408-.138.606-.092.197-.219.373-.38.527-.161.151-.342.264-.543.338zm0-.342c.131-.048.249-.123.354-.224.106-.102.188-.221.248-.355.06-.136.09-.274.09-.414 0-.14-.03-.255-.09-.345-.06-.092-.142-.149-.248-.173-.105-.025-.223-.013-.354.035-.132.049-.25.124-.355.227-.105.101-.187.219-.247.355-.061.134-.091.272-.091.412 0 .14.03.255.091.347.06.09.142.148.247.173.105.023.223.011.355-.038zm3.046-2.432c.189-.069.341-.067.456.009.114.076.171.23.171.462v.918l-.352.13v-.87c0-.14-.03-.234-.092-.281-.062-.049-.15-.053-.265-.01-.129.047-.232.127-.307.239-.075.109-.112.242-.112.398v.81l-.352.13v-1.602l.335-.124v.207c.058-.095.131-.178.219-.249.089-.07.188-.126.299-.167zm1.648-.608c.221-.081.39-.087.506-.015.119.068.178.216.178.444v.939l-.332.123v-.195c-.044.086-.105.162-.186.23-.079.065-.175.119-.287.16-.113.042-.211.058-.296.049-.084-.011-.15-.044-.197-.098-.045-.058-.067-.132-.067-.224 0-.144.049-.278.149-.4.101-.126.26-.228.476-.308l.388-.143v-.024c0-.112-.032-.186-.096-.223-.062-.037-.155-.033-.278.013-.085.031-.168.076-.251.134-.081.058-.149.122-.205.193l-.138-.222c.079-.093.173-.177.284-.252.111-.075.228-.135.352-.181zm-.048 1.386c.088-.032.166-.082.234-.149.069-.07.118-.15.146-.24v-.186l-.363.134c-.203.075-.304.183-.304.325 0 .068.025.113.076.134.051.021.121.015.211-.018zm.222-2.062l.414-.153-.49.592-.304.112.38-.551zm1.426 1.727c-.122.045-.241.072-.358.081-.116.009-.209 0-.278-.026l.135-.335c.067.023.148.032.242.028.095-.008.189-.028.281-.062.21-.078.315-.175.315-.293 0-.056-.027-.085-.081-.087-.053-.003-.138.008-.256.031-.124.026-.226.04-.304.043-.077.003-.145-.017-.203-.06-.056-.045-.084-.126-.084-.242 0-.152.059-.295.177-.428.12-.136.281-.242.484-.317.103-.038.206-.063.31-.075.103-.014.187-.012.253.006l-.135.334c-.128-.033-.271-.02-.431.039-.103.038-.182.084-.236.138-.053.052-.079.105-.079.159 0 .06.028.092.084.097.059.003.148-.007.268-.029.12-.025.218-.038.295-.04.077-.003.143.017.197.059.057.041.085.119.085.233 0 .15-.061.292-.183.427s-.288.242-.498.319zM211.972 380.23c-.152.056-.299.087-.442.094-.141.006-.252-.014-.335-.06l.127-.35c.08.039.179.058.295.059.118-.001.237-.024.355-.067.146-.054.255-.12.326-.196.073-.077.11-.156.11-.238 0-.06-.021-.102-.062-.125-.039-.025-.09-.037-.152-.036-.062 0-.146.007-.253.018-.15.017-.272.024-.366.021-.092-.004-.172-.034-.239-.089-.066-.058-.099-.155-.099-.293 0-.116.029-.232.087-.348.06-.118.15-.227.268-.326.12-.101.266-.183.439-.246.12-.045.238-.072.355-.083.116-.011.216-.002.301.027l-.116.345c-.086-.022-.176-.03-.27-.023-.094.007-.185.026-.273.059-.144.053-.252.119-.324.197-.069.078-.104.16-.104.246 0 .06.02.101.059.125.042.023.093.034.155.033.062-.001.147-.007.253-.019.147-.018.267-.024.361-.019.094.004.173.033.239.089.068.055.101.151.101.287 0 .116-.03.232-.09.348-.058.115-.147.223-.267.324-.12.1-.267.182-.439.246zm1.125-2.672l.352-.129v2.226l-.352.129v-2.226zm2.269-.213v1.602l-.335.124v-.204c-.056.093-.126.175-.211.246-.084.069-.175.122-.273.158-.201.074-.359.073-.476-.002-.114-.078-.171-.234-.171-.468v-.915l.352-.129v.864c0 .144.03.24.09.29.062.047.149.05.261.009.126-.047.226-.124.299-.233.075-.112.112-.246.112-.402v-.81l.352-.13zm1.634.699v.3l-1.297.479v-.237l.825-1.369-.808.298v-.3l1.258-.464v.237l-.828 1.37.85-.314zm-.112-1.89l-.377.55-.321.118-.377-.271.29-.107.247.13.248-.313.29-.107zm1.27.143c.146-.054.277-.068.391-.042.116.025.207.088.273.187.066.1.099.231.099.393s-.033.318-.099.468c-.066.149-.157.278-.273.389-.114.11-.245.192-.391.246-.103.039-.198.054-.284.048-.085-.007-.156-.037-.214-.092v.207l-.335.124v-2.226l.352-.13v.819c.06-.092.13-.171.211-.237.082-.066.172-.118.27-.154zm-.04 1.335c.13-.048.236-.133.318-.255.085-.124.127-.26.127-.41 0-.15-.042-.256-.127-.316-.082-.062-.188-.069-.318-.021-.084.031-.16.08-.228.147-.067.065-.121.143-.16.233-.039.091-.059.186-.059.286 0 .1.02.181.059.242.039.062.093.101.16.118.068.015.144.007.228-.024zm2.502-2.225l-.703 1.991c-.066.198-.146.349-.24.454-.093.106-.207.184-.34.233-.075.028-.149.043-.222.043-.074.001-.134-.012-.181-.041l.141-.328c.034.022.073.034.118.037.047.003.094-.004.141-.021.062-.023.113-.059.152-.108.041-.049.079-.12.113-.212l.025-.072-.656-1.367.366-.134.473 1.01.476-1.36.337-.125zM257.991 362.683l-.313.457v.537l-.366.135v-2.1l.366-.135v1.077l.974-1.437.411-.151-.827 1.244.878.837-.428.158-.695-.622zm1.948.181c-.152.056-.289.071-.411.046-.122-.025-.218-.086-.287-.185-.068-.101-.102-.23-.102-.388s.034-.312.102-.461c.069-.149.165-.282.287-.397.122-.115.259-.2.411-.256.154-.057.291-.073.413-.048.122.025.217.087.285.186.069.099.104.227.104.385s-.035.313-.104.464c-.068.149-.163.281-.285.396-.122.115-.259.201-.413.258zm0-.321c.129-.048.236-.133.321-.256.084-.124.126-.26.126-.41 0-.15-.042-.256-.126-.316-.085-.061-.192-.068-.321-.02-.13.048-.237.133-.321.256-.083.123-.124.259-.124.409 0 .15.041.256.124.317.084.061.191.068.321.02zm1.991-2.055c.19-.07.342-.067.456.009.114.076.172.23.172.462v.918l-.352.129v-.87c0-.14-.031-.233-.093-.28-.062-.049-.15-.053-.265-.011-.129.048-.231.128-.306.24-.075.109-.113.242-.113.398v.81l-.352.13v-1.602l.335-.124v.207c.058-.095.132-.178.22-.249.088-.07.187-.126.298-.167zm1.978.804c-.042.051-.092.097-.152.137-.059.039-.121.071-.186.095-.165.061-.293.062-.383.004-.09-.059-.135-.177-.135-.353v-.771l-.248.092v-.3l.248-.092v-.366l.352-.129v.366l.402-.149v.3l-.402.149v.762c0 .078.018.131.053.16.036.027.087.028.155.003.079-.029.144-.076.197-.139l.099.231zm.863-1.852c.222-.082.39-.087.507-.016.118.069.177.217.177.445v.939l-.332.122v-.195c-.043.086-.105.163-.186.231-.079.065-.174.118-.287.16-.113.041-.211.058-.295.049-.085-.011-.151-.044-.197-.099-.046-.057-.068-.132-.068-.224 0-.144.05-.277.149-.4.101-.125.26-.228.476-.307l.388-.143v-.024c0-.112-.032-.187-.095-.223-.062-.037-.155-.033-.279.013-.085.031-.168.076-.251.134-.08.058-.149.122-.205.193l-.138-.222c.079-.093.174-.177.284-.252.111-.075.228-.135.352-.181zm-.048 1.386c.088-.033.166-.082.234-.149.069-.07.118-.15.146-.24v-.186l-.363.134c-.203.074-.304.183-.304.325 0 .068.025.112.076.134.051.021.121.015.211-.018zm1.797-1.098l-.262.36v.423l-.351.13v-2.226l.351-.13v1.344l.729-.989.423-.155-.628.903.687.677-.428.158-.521-.495zm2.079-.167c-.041.051-.092.097-.152.137-.058.039-.12.071-.185.095-.165.061-.293.062-.383.004-.09-.059-.135-.177-.135-.353v-.771l-.248.092v-.3l.248-.092v-.366l.352-.129v.366l.402-.149v.3l-.402.149v.762c0 .078.017.131.053.16.036.027.087.028.155.003.079-.029.144-.075.197-.139l.098.231z" fill="#fff"/><rect x=".469096" y=".326941" width="65.9665" height="61.5511" rx="8.5" transform="matrix(.9382 -.34612 0 1 214.226 388.391)" stroke="#fff"/><path clip-rule="evenodd" d="M214.755 432.484c10.174-2.29 19.559-2.163 29.733-9.575 10.031-7.359 22.017-20.006 32.191-24.248v20.847s.047 1.629-.384 2.8c-.464 1.258-.956 2.207-1.938 3.392-.679.819-2.036 2.254-2.908 2.907-1.208.906-1.955 1.296-3.175 1.797-1.221.501-3.17 1.195-3.17 1.195l-40.021 14.796s-2.034.971-3.205 1.183c-2.277.412-2.585.309-3.731-.073-1.453-.484-1.656-.806-2.423-1.938-.676-.998-.969-3.876-.969-3.876v-9.207z" stroke="#fff"/><rect x=".469096" y=".326941" width="49.3505" height="46.0307" rx="5.5" transform="matrix(.9382 -.34612 0 1 235.029 460.46)" stroke="#fff"/><path clip-rule="evenodd" d="M235.419 493.572c7.65-1.722 14.706-1.627 22.356-7.199 7.541-5.533 16.554-15.043 24.203-18.232v15.675s.036 1.224-.288 2.105c-.349.946-.719 1.659-1.458 2.55-.51.616-1.53 1.695-2.186 2.186-.908.681-1.47.974-2.387 1.351-.918.376-2.384.899-2.384.899l-30.09 11.124s-1.53.73-2.411.89c-1.711.309-1.943.232-2.804-.055-1.093-.364-1.245-.606-1.822-1.457-.508-.751-.729-2.915-.729-2.915v-6.922z" stroke="#fff"/><path fill="#2B09FF" d="M160 482.354l32.000006-11.805428v56.8307L160 539.1847z"/><circle r="12.5" transform="matrix(.9382 -.34612 0 1 176.196 494.37)" stroke="#fff"/><circle r="8.52705" transform="matrix(.9382 -.34612 0 1 176 494.349)" fill="#fff"/><rect x=".234548" y=".163471" width="24.0153" height="17.1352" rx="3.75" transform="matrix(.9382 -.34612 0 1 165.014 515.953)" stroke="#fff" stroke-width=".5"/><rect x=".234548" y=".163471" width="19.8334" height="12.0667" rx="2.75" transform="matrix(.9382 -.34612 0 1 167.014 517.99)" stroke="#fff" stroke-width=".5"/><rect x=".234548" y=".163471" width="15.4882" height="7.86973" rx="1.75" transform="matrix(.9382 -.34612 0 1 169.014 519.486)" stroke="#fff" stroke-width=".5"/><g filter="url(#filter1_d)"><path d="M490.356 144.609c10.144 3.043 255.615 139.237 339.177 185.675 15.313 8.51 25.367 27.747 22.667 43.07l-55.371 314.287c-2.699 15.321-17.297 20.83-32.605 12.306L431.69 514.771c-15.363-8.555-25.592-27.984-22.806-43.316l58.84-323.788s10.398-6.728 22.632-3.058z" fill="#A195E3"/></g><g filter="url(#filter2_d)"><rect width="421.768" height="395.713" rx="30" transform="matrix(.92394 .5145 -.16292 .9247 457.603 132.824)" fill="#fff"/></g><g filter="url(#filter3_d)"><rect width="265.352" height="248.96" rx="30" transform="matrix(.92394 .5145 -.16292 .9247 620.831 345.91)" fill="#A195E0"/></g><rect width="265.352" height="248.96" rx="30" transform="matrix(.92394 .5145 -.16292 .9247 615.411 348.356)" fill="#fff"/><g filter="url(#filter4_d)"><path d="M426.566 159.692c.45-2.553 2.883-3.471 5.434-2.051l376.092 209.432c2.547 1.419 4.251 4.634 3.807 7.187l-5.583 32.093c-.217 1.245-.925 2.16-1.964 2.538l-5.103 1.856-374.65-211.283c-2.537-1.43-4.223-4.637-3.775-7.179l5.742-32.593z" fill="#A195E3"/></g><rect width="417.043" height="45.2142" rx="5" transform="matrix(.92394 .5145 -.16292 .9247 422.93 157.001)" fill="#fff"/><path d="M710.498 336.789l-2.804 1.089-.539 3.063-1.231-.686 2.053-11.651 1.231.685-1.241 7.041 8.076-3.234 1.413.787-5.968 2.47 4.265 9.376-1.464-.815-3.791-8.125zm10.155 11.76c-.842-.47-1.569-1.081-2.179-1.835-.607-.765-1.046-1.594-1.315-2.487-.268-.893-.328-1.767-.177-2.621.151-.855.479-1.512.987-1.973.507-.461 1.132-.691 1.875-.692.743-.001 1.535.234 2.378.703.843.469 1.569 1.081 2.179 1.834.61.754 1.043 1.575 1.301 2.461.269.893.328 1.767.178 2.622-.151.854-.48 1.512-.987 1.972-.496.467-1.117.707-1.862.719-.743 0-1.535-.234-2.378-.703zm.185-1.049c.621.346 1.2.516 1.736.51.55-.011 1.009-.2 1.379-.567.369-.367.612-.883.729-1.549.117-.666.083-1.337-.102-2.013-.185-.676-.503-1.291-.953-1.846-.437-.561-.966-1.014-1.587-1.359-.621-.346-1.206-.514-1.756-.503-.536.006-.995.189-1.375.55-.369.367-.612.884-.73 1.55-.117.665-.083 1.336.102 2.012.197.682.513 1.303.95 1.864.451.555.986 1.005 1.607 1.351zm12.692-1.559c1.098.611 1.912 1.418 2.441 2.419.543.997.707 2.106.492 3.326l-.895 5.077-1.18-.658.873-4.96c.161-.91.056-1.73-.315-2.46-.37-.73-.977-1.33-1.82-1.799-.942-.525-1.74-.659-2.394-.402-.641.253-1.049.873-1.223 1.86l-.809 4.594-1.181-.657 1.542-8.756 1.131.63-.284 1.615c.415-.354.931-.517 1.547-.491.63.021 1.321.242 2.075.662zm9.945 14.64c-.257.076-.562.077-.914.003-.339-.079-.686-.218-1.041-.415-.82-.457-1.413-1.031-1.779-1.722-.365-.691-.476-1.441-.333-2.251l.932-5.293-1.563-.871.176-.998 1.563.87.337-1.914 1.181.658-.337 1.914 2.661 1.481-.176.999-2.661-1.482-.921 5.227c-.092.521-.035.992.172 1.411.219.415.572.758 1.06 1.029.244.136.484.227.719.273.247.052.466.052.657 0l.267 1.081zm6.67-5.388c1.142.636 1.967 1.412 2.475 2.329.51.905.666 1.918.469 3.039l-.956 5.426-1.131-.63.24-1.364c-.346.306-.802.442-1.368.407-.555-.029-1.187-.241-1.897-.636-.976-.543-1.711-1.208-2.205-1.995-.495-.787-.674-1.564-.539-2.329.131-.744.502-1.195 1.115-1.354.623-.152 1.522.099 2.698.754l2.777 1.546.094-.533c.133-.754.023-1.443-.33-2.066-.351-.634-.931-1.176-1.741-1.627-.554-.309-1.103-.511-1.646-.606-.541-.107-1.023-.101-1.446.017l-.377-1.178c.51-.131 1.093-.123 1.749.023.659.135 1.331.394 2.019.777zm-1.821 7.741c.665.371 1.263.539 1.792.505.532-.046.965-.292 1.299-.739l.253-1.432-2.745-1.528c-1.496-.833-2.337-.729-2.52.315-.09.51.032 1.023.368 1.539.337.504.855.951 1.553 1.34zm11.033 2.251l-2.396.749-.44 2.497-1.181-.658 2.176-12.35 1.181.657-1.475 8.373 6.063-1.87 1.464.815-4.373 1.495 3.18 7.455-1.447-.806-2.752-6.357zm10.672 10.183c-.257.076-.562.077-.914.003-.339-.079-.686-.218-1.041-.415-.82-.457-1.413-1.031-1.778-1.722-.366-.691-.477-1.441-.334-2.251l.932-5.293-1.563-.871.176-.998 1.563.87.338-1.914 1.18.658-.337 1.914 2.661 1.482-.176.998-2.661-1.482-.921 5.227c-.092.521-.034.992.172 1.411.219.415.572.758 1.06 1.03.244.135.484.226.719.272.247.052.466.052.658 0l.266 1.081z" fill="#4508BD"/><path fill-rule="evenodd" clip-rule="evenodd" d="M589.554 487.292c39.113 29.865 73.864 70.236 117.518 74.334 43.084 3.781 97.584-11.305 138.428 8.744l-19 108s-.679 4.892-1.5 9c-1 5-2 11.5-13.001 15.5-3.287 1.195-5.499 1.5-9.999.5-5.471-1.216-8.107-3.053-13-5.5-4.894-2.447-17-9.37-17-9.37l-157.001-87.63S608.5 597.5 602.5 594c-5.92-3.454-9.501-6.13-16.501-16.13-5.572-7.96-7.26-18.837-7-23 .5-8 2.321-17.278 2.321-17.278l8.234-50.3z" fill="#4508BD"/><path transform="matrix(.2339 -.80225 .96105 .6472 371.45 598.286)" stroke="#310686" stroke-width="7" d="M0-3.5h360.677"/><path transform="matrix(.2339 -.80225 .96105 .6472 426.526 636.064)" stroke="#310686" stroke-width="7" d="M0-3.5h360.677"/><path transform="matrix(.9034 .72685 -.33812 .74536 368.173 552.448)" stroke="#310686" stroke-width="6" d="M0-3h84.1401"/><path transform="matrix(.9034 .72685 -.33812 .74536 399.355 458.096)" stroke="#310686" stroke-width="6" d="M0-3h84.1401"/><path transform="matrix(.9034 .72685 -.33812 .74536 430.256 349.723)" stroke="#310686" stroke-width="6" d="M0-3h84.1401"/><path transform="matrix(.9034 .72685 -.33812 .74536 411.578 400.043)" stroke="#310686" stroke-width="6" d="M0-3h84.1401"/><path transform="matrix(.9034 .72685 -.33812 .74536 380.827 496.193)" stroke="#310686" stroke-width="6" d="M0-3h84.1401"/><path fill-rule="evenodd" clip-rule="evenodd" d="M445.287 219.976c-2.403-4.141-3.852-8.549-3.099-12.428 2.17-11.176 19.518-.768 22.301 6.602 2.783 7.37.736 22.004-3.812 21.072-1.814-.372-5.466-3.071-9.065-6.891l.684 16.623-14.203-6.334 7.194-18.644z" fill="#D4A181"/><path fill-rule="evenodd" clip-rule="evenodd" d="M450.293 221.354c-2.103 2.304-4.796 3.544-7.23 2.459-4.622-2.062-7.284-9.174-6.612-15.246.024-.213.052-.423.084-.629-5.229.885-9.666 5.248-16.136 2.363-8.803-3.925-10.503-21.707 1.795-16.223 8.364 3.73 12.354 6.679 15.718 9.907.898-1.489 2.132-2.528 3.553-3.004.35-.183.865-.277 1.517-.287.4-.02.81 0 1.226.064 2.218.236 5.371 1.11 8.842 2.543.649.267 1.284.544 1.902.828.34-2.975 3.252-4.206 6.515-2.752 3.268 1.458 5.65 5.061 5.319 8.047-.319 2.888-3.059 4.143-6.195 2.904-1.84-.293-4.174-.946-6.733-1.924.153.958.18 1.982.059 3.071-.106.961-.335 1.929-.663 2.869-.486-.845-1.18-1.564-1.928-1.898-2.094-.934-3.725-.01-3.91 1.661-.235 2.121.935 4.252 2.877 5.247z" fill="#191847"/><path fill-rule="evenodd" clip-rule="evenodd" d="M477 366.554l3.723 23.96 10.098-2.478-3.758-20.941-10.063-.541z" fill="#BA8B72"/><path fill-rule="evenodd" clip-rule="evenodd" d="M419.496 285.541c7.754 39.025 10.573 60.034 10.805 63.487.232 3.453 2.131 26.646-4.202 65.355l10.56 2.067c10.818-36.205 13.02-58.596 14.155-63.406 1.135-4.81 3.553-24.794 6.08-60.18l-37.398-7.323z" fill="#D4A181"/><path fill-rule="evenodd" clip-rule="evenodd" d="M428.701 287.343c4.673 12.84 19.103 32.964 33.299 52.211 6.679 11.932 12.538 17.786 13 37l16.5-1c.13-9.005-.5-31.5-6.5-45.5-7.154-16.692-20.887-22.842-27.023-36.978l-29.276-5.733z" fill="#69A1AC"/><path fill-rule="evenodd" clip-rule="evenodd" d="M419.422 285.526c7.723 39.019 10.074 76.43 5.794 120.688l15.845 3.103c10.945-35.609 17.171-71.158 18.107-116.008l-39.746-7.783z" fill="#89C5CC"/><path fill-rule="evenodd" clip-rule="evenodd" d="M425.833 421.766l-.943-9.336c3.574 1.672 7.783 2.115 12.629 1.329 6.156 5.015 13.539 9.062 22.151 12.141.657.235 1.185.929 1.18 1.551 0 .04-.003.08-.008.118l-.344 2.7-20.977-4.107-12.236-2.396-1.452-2zM478.225 390.11l-1.059-8.184c4.029 1.12 8.775 1.085 14.24-.104 6.939 3.823 15.263 6.663 24.972 8.519.741.142 1.336.704 1.33 1.256 0 .036-.003.071-.009.106l-.389 2.429-23.653-1.513-13.797-.883-1.635-1.626z" fill="#191847"/><path transform="matrix(.2339 -.80225 .96105 .6472 426.528 636.064)" stroke="#310686" stroke-width="7" d="M0-3.5h360.677"/><path fill-rule="evenodd" clip-rule="evenodd" d="M465.812 262.456l20.797-3.189c3.489-2.604 6.914-4.367 10.276-5.289 1.024-.032 2.808.371 1.103 2.558-1.705 2.187-3.366 4.607-2.53 5.774.836 1.168 2.968.734 3.96 2.53.661 1.197-2.975 1.391-10.907.58l-15.186 7.529-7.513-10.493zm32.204 20.74l9.136-1.415c1.338-4.111 2.892-5.86 4.662-5.246 1.368-.104-1.083 4.814 1.502 5.248 2.584.434 8.937-1.702 10.008-.412 1.584 1.909.096 5.465-1.617 6.881-3.203 2.646-5.828 2.996-12.295 2.355-3.381-.335-7.049.122-11.003 1.37l-.393-8.781z" fill="#D4A181"/><path fill-rule="evenodd" clip-rule="evenodd" d="M455.792 256.43c7.232 2.551 16.896 4.607 27.273 2.172l3.918 9.975c-7.192 4.077-17.249 5.922-25.971 2.525-6.874-2.677-10.275-11.807-5.22-14.672z" fill="#2026A2"/><path fill-rule="evenodd" clip-rule="evenodd" d="M465.333 273.609c7.65 4.593 20.554 7.131 38.711 7.614 4.357 10.384 6.339 17.378 5.948 20.985-15.611 2.023-28.946.612-39.895-3.134.26 6.26-.614 11.81-3.346 16.179-5.617 8.983-37.441-12.768-48.218-14.67-6.436-23.087 6.7-26.755 6.899-39.961.219-14.463 12.837-32.268 14.647-31.611l16.503 5.987c.753 11.379 5.161 25.217 8.751 38.611z" fill="#1F28CF"/><g filter="url(#filter5_d)"><rect width="62.9381" height="27.5354" rx="5" transform="matrix(.62258 .97777 -.70185 .40467 503.326 231.184)" fill="#fff"/></g><path d="M503.638 256.298c-.741-1.148-1.084-2.182-1.027-3.104.056-.921.534-1.648 1.433-2.182l3.629-2.156.605.937-3.602 2.14c-.736.437-1.135.995-1.198 1.675-.062.679.191 1.458.758 2.335.572.887 1.189 1.455 1.851 1.704.662.249 1.36.155 2.097-.282l3.601-2.14.589.912-3.629 2.156c-.899.534-1.791.62-2.676.258-.879-.354-1.689-1.105-2.431-2.253zm8.616-3.857l.777 1.203-2.447-1.385-.572-.886 2.242 1.068zm3.86 12.862l-6.674-.135-.596-.925 2.855-5.778.605.937-2.444 4.903 5.682.111.572.887zm-2.35 6.658c-.414-.642-.685-1.281-.812-1.918-.122-.64-.094-1.217.084-1.732.177-.514.498-.909.962-1.185.465-.276.977-.375 1.535-.298.559.076 1.107.311 1.645.704.538.394 1.014.911 1.428 1.552.414.642.685 1.281.812 1.918.128.637.1 1.208-.083 1.714-.177.514-.498.909-.962 1.185-.465.276-.977.375-1.535.299-.554-.069-1.102-.298-1.646-.687-.538-.393-1.014-.911-1.428-1.552zm.57-.339c.306.473.654.85 1.044 1.132.402.287.813.451 1.233.494.42.042.811-.044 1.173-.259.362-.215.617-.512.764-.892.147-.379.174-.804.079-1.273-.083-.465-.277-.933-.582-1.406-.305-.473-.659-.853-1.061-1.139-.391-.282-.799-.449-1.224-.5-.42-.042-.811.044-1.173.259-.362.215-.617.512-.764.892-.142.388-.171.814-.088 1.279.094.469.294.94.599 1.413zm13.483 7.617l-6.715 3.989-.556-.861.942-.559c-.495-.08-.971-.294-1.428-.641-.453-.338-.859-.786-1.219-1.343-.403-.625-.666-1.252-.788-1.88-.122-.628-.091-1.195.092-1.701.182-.506.509-.898.98-1.178.47-.279.982-.385 1.535-.317.554.069 1.094.297 1.62.685.532.385 1 .89 1.403 1.514.349.541.581 1.074.696 1.602.127.532.126 1.029-.002 1.49l2.86-1.699.58.899zm-8.356.322c.299.464.645.837 1.035 1.119.402.287.813.451 1.233.494.426.051.819-.031 1.181-.246.362-.215.614-.517.756-.905.147-.379.174-.804.079-1.273-.083-.465-.274-.929-.574-1.393-.305-.473-.659-.853-1.061-1.14-.391-.281-.799-.448-1.224-.499-.42-.042-.811.044-1.173.259-.362.215-.616.512-.764.892-.142.388-.171.814-.088 1.279.094.469.294.94.6 1.413z" fill="#4508BD"/><defs><filter id="filter0_d" x="101" y="299.831" width="200.987" height="295.156" filterUnits="userSpaceOnUse" color-interpolation-filters="sRGB"><feFlood flood-opacity="0" result="BackgroundImageFix"/><feColorMatrix in="SourceAlpha" values="0 0 0 0 0 0 0 0 0 0 0 0 0 0 0 0 0 0 127 0"/><feOffset dx="-2" dy="-2"/><feGaussianBlur stdDeviation="7.5"/><feColorMatrix values="0 0 0 0 0 0 0 0 0 0 0 0 0 0 0 0 0 0 0.15 0"/><feBlend in2="BackgroundImageFix" result="effect1_dropShadow"/><feBlend in="SourceGraphic" in2="effect1_dropShadow" result="shape"/></filter><filter id="filter1_d" x="388.427" y="125.513" width="474.212" height="590.444" filterUnits="userSpaceOnUse" color-interpolation-filters="sRGB"><feFlood flood-opacity="0" result="BackgroundImageFix"/><feColorMatrix in="SourceAlpha" values="0 0 0 0 0 0 0 0 0 0 0 0 0 0 0 0 0 0 127 0"/><feOffset dx="-5" dy="-3"/><feGaussianBlur stdDeviation="7.5"/><feColorMatrix values="0 0 0 0 0 0 0 0 0 0 0 0 0 0 0 0 0 0 0.15 0"/><feBlend in2="BackgroundImageFix" result="effect1_dropShadow"/><feBlend in="SourceGraphic" in2="effect1_dropShadow" result="shape"/></filter><filter id="filter2_d" x="379.59" y="131.249" width="475.245" height="590.072" filterUnits="userSpaceOnUse" color-interpolation-filters="sRGB"><feFlood flood-opacity="0" result="BackgroundImageFix"/><feColorMatrix in="SourceAlpha" values="0 0 0 0 0 0 0 0 0 0 0 0 0 0 0 0 0 0 127 0"/><feOffset dx="-3" dy="2"/><feGaussianBlur stdDeviation="7.5"/><feColorMatrix values="0 0 0 0 0 0 0 0 0 0 0 0 0 0 0 0 0 0 0.15 0"/><feBlend in2="BackgroundImageFix" result="effect1_dropShadow"/><feBlend in="SourceGraphic" in2="effect1_dropShadow" result="shape"/></filter><filter id="filter3_d" x="563.727" y="336.334" width="318.818" height="385.891" filterUnits="userSpaceOnUse" color-interpolation-filters="sRGB"><feFlood flood-opacity="0" result="BackgroundImageFix"/><feColorMatrix in="SourceAlpha" values="0 0 0 0 0 0 0 0 0 0 0 0 0 0 0 0 0 0 127 0"/><feMorphology radius="1" operator="dilate" in="SourceAlpha" result="effect1_dropShadow"/><feOffset/><feGaussianBlur stdDeviation="10"/><feColorMatrix values="0 0 0 0 0.6 0 0 0 0 0.6 0 0 0 0 0.6 0 0 0 0.25 0"/><feBlend in2="BackgroundImageFix" result="effect1_dropShadow"/><feBlend in="SourceGraphic" in2="effect1_dropShadow" result="shape"/></filter><filter id="filter4_d" x="405.751" y="139.973" width="421.217" height="283.774" filterUnits="userSpaceOnUse" color-interpolation-filters="sRGB"><feFlood flood-opacity="0" result="BackgroundImageFix"/><feColorMatrix in="SourceAlpha" values="0 0 0 0 0 0 0 0 0 0 0 0 0 0 0 0 0 0 127 0"/><feOffset dy="-2"/><feGaussianBlur stdDeviation="7.5"/><feColorMatrix values="0 0 0 0 0 0 0 0 0 0 0 0 0 0 0 0 0 0 0.15 0"/><feBlend in2="BackgroundImageFix" result="effect1_dropShadow"/><feBlend in="SourceGraphic" in2="effect1_dropShadow" result="shape"/></filter><filter id="filter5_d" x="475.431" y="222.303" width="75.6476" height="90.4423" filterUnits="userSpaceOnUse" color-interpolation-filters="sRGB"><feFlood flood-opacity="0" result="BackgroundImageFix"/><feColorMatrix in="SourceAlpha" values="0 0 0 0 0 0 0 0 0 0 0 0 0 0 0 0 0 0 127 0"/><feMorphology radius=".5" operator="dilate" in="SourceAlpha" result="effect1_dropShadow"/><feOffset/><feGaussianBlur stdDeviation="5"/><feColorMatrix values="0 0 0 0 0 0 0 0 0 0 0 0 0 0 0 0 0 0 0.25 0"/><feBlend in2="BackgroundImageFix" result="effect1_dropShadow"/><feBlend in="SourceGraphic" in2="effect1_dropShadow" result="shape"/></filter></defs></svg>